<?xml version="1.0" encoding="UTF-8"?><svg id="Layer_1" xmlns="http://www.w3.org/2000/svg" viewBox="0 0 595.3 841.9"><rect x="-4762.2" y="-1.4" width="7740.4" height="845.9" style="fill:#171a23; stroke-width:0px;"/><path d="M48.8,50h0v9.8h-2.9v-10.5h5.3l1.9,10.3h0l1.9-10.3h5.3v10.5h-2.9v-9.8h0l-1.9,9.8h-4.9l-1.9-9.8Z" style="fill:#fff; stroke-width:0px;"/><path d="M71.1,49.3v2.3h-6.2v1.9h4.7v2h-4.7v1.9h6.4v2.3h-9.2v-10.5h9.1Z" style="fill:#fff; stroke-width:0px;"/><path d="M77.9,49.3l3.4,10.2h0v-10.2h2.8v10.5h-5.7l-3.4-10.3h0v10.3h-2.8v-10.5h5.7Z" style="fill:#fff; stroke-width:0px;"/><path d="M95.2,58.8c-1,.8-2.4,1.2-4.2,1.2s-3.2-.4-4.2-1.2c-1-.8-1.5-2-1.5-3.5v-6h2.9v6c0,.8.2,1.4.7,1.8.5.4,1.1.6,2,.6s1.6-.2,2-.6c.5-.4.7-1,.7-1.8v-6h2.9v6c0,1.5-.5,2.7-1.5,3.5Z" style="fill:#fff; stroke-width:0px;"/><path d="M106.6,49.3l3.4,10.2h0v-10.2h2.8v10.5h-5.7l-3.4-10.3h0v10.3h-2.8v-10.5h5.7Z" style="fill:#fff; stroke-width:0px;"/><path d="M123.5,49.3v2.3h-6.2v1.9h4.7v2h-4.7v1.9h6.4v2.3h-9.2v-10.5h9.1Z" style="fill:#fff; stroke-width:0px;"/><path d="M130.5,54.5l-3.1,5.3h-3.3l3.5-5.4-3.3-5.1h3.3l2.9,5,2.9-5h3.3l-3.3,5.1,3.5,5.4h-3.3l-3.1-5.3Z" style="fill:#fff; stroke-width:0px;"/><path d="M140.5,51.6h-3.5v-2.3h9.9v2.3h-3.5v8.1h-2.9v-8.1Z" style="fill:#fff; stroke-width:0px;"/><path d="M153.7,49.3v8.1h5.8v2.3h-8.7v-10.5h2.9Z" style="fill:#fff; stroke-width:0px;"/><path d="M169.4,49.3v2.3h-6.2v1.9h4.7v2h-4.7v1.9h6.4v2.3h-9.2v-10.5h9.1Z" style="fill:#fff; stroke-width:0px;"/><path d="M179,59.8h-5.8l-3.4-10.5h3.2l3.1,10.3h0l3.1-10.3h3.2l-3.4,10.5Z" style="fill:#fff; stroke-width:0px;"/><path d="M192.3,49.3v2.3h-6.2v1.9h4.7v2h-4.7v1.9h6.4v2.3h-9.2v-10.5h9.1Z" style="fill:#fff; stroke-width:0px;"/><path d="M196.3,49.3v8.1h5.8v2.3h-8.7v-10.5h2.9Z" style="fill:#fff; stroke-width:0px;"/><path d="M542.6,53.4c.3-.2.7-.3,1.1-.3s.6,0,.8.2c.3.1.5.3.7.5.2.2.3.5.4.8h1.2c0-.5-.3-1-.6-1.4-.3-.4-.7-.6-1.1-.8s-.9-.3-1.3-.3-1.2.1-1.7.4-.9.7-1.2,1.2c-.3.5-.4,1.1-.4,1.7s.1,1.2.4,1.7c.3.5.7.9,1.2,1.2s1.1.4,1.7.4.9,0,1.3-.3c.4-.2.8-.5,1.1-.8.3-.4.5-.8.6-1.4h-1.2c0,.3-.2.6-.4.8-.2.2-.4.4-.7.5-.3.1-.5.2-.8.2s-.8,0-1.1-.3c-.3-.2-.6-.4-.8-.8-.2-.3-.3-.7-.3-1.2s0-.8.3-1.2c.2-.3.4-.6.8-.8Z" style="fill:#fff; stroke-width:0px;"/><path d="M543.7,49.8c-3.1,0-5.6,2.5-5.6,5.6s2.5,5.6,5.6,5.6,5.6-2.5,5.6-5.6-2.5-5.6-5.6-5.6ZM543.7,60.3c-2.7,0-4.8-2.2-4.8-4.8s2.2-4.8,4.8-4.8,4.8,2.2,4.8,4.8-2.2,4.8-4.8,4.8Z" style="fill:#fff; stroke-width:0px;"/><path d="M496.5,59.8l3.6-3.2c.5-.5.9-.9,1.2-1.2s.5-.6.7-1c.2-.3.3-.6.3-1s0-.6-.2-.9-.4-.5-.6-.6c-.3-.1-.6-.2-.9-.2s-.7,0-1,.2c-.3.2-.5.4-.7.8-.2.4-.3.8-.3,1.4h-2c0-.8.1-1.4.4-2.1s.7-1.2,1.3-1.6,1.3-.6,2.2-.6,1.5.2,2,.5c.6.3,1,.7,1.3,1.3.3.5.5,1.1.5,1.8s0,.9-.2,1.3-.4.8-.7,1.2c-.3.4-.7.8-1.2,1.2l-2.7,2.4.9-.2h4.1v1.7h-8v-1.1Z" style="fill:#fff; stroke-width:0px;"/><path d="M510.2,61.2c-1,0-1.9-.3-2.6-.8s-1.2-1.2-1.6-2c-.4-.9-.5-1.8-.5-2.9s.2-2.1.5-2.9c.4-.9.9-1.6,1.6-2.1.7-.5,1.5-.8,2.5-.8s2,.3,2.7.8c.7.5,1.2,1.2,1.5,2.1.3.9.5,1.8.5,2.8s-.2,2-.5,2.9c-.4.9-.9,1.5-1.6,2.1s-1.6.8-2.6.8ZM510.2,59.4c.5,0,1-.2,1.4-.5.4-.3.7-.8.9-1.4s.3-1.3.3-2-.1-1.4-.3-2-.5-1-.9-1.4-.9-.5-1.5-.5-1,.2-1.4.5-.7.8-.9,1.4c-.2.6-.3,1.3-.3,2s.1,1.4.3,2c.2.6.5,1,.9,1.4.4.3.9.5,1.4.5Z" style="fill:#fff; stroke-width:0px;"/><path d="M515.9,59.8l3.6-3.2c.5-.5.9-.9,1.2-1.2s.5-.6.7-1c.2-.3.3-.6.3-1s0-.6-.2-.9c-.2-.3-.4-.5-.6-.6-.3-.1-.6-.2-.9-.2s-.7,0-1,.2c-.3.2-.5.4-.7.8-.2.4-.3.8-.3,1.4h-2c0-.8.1-1.4.4-2.1s.7-1.2,1.3-1.6c.6-.4,1.3-.6,2.2-.6s1.5.2,2,.5c.6.3,1,.7,1.3,1.3s.5,1.1.5,1.8,0,.9-.2,1.3-.4.8-.7,1.2c-.3.4-.7.8-1.2,1.2l-2.7,2.4.9-.2h4.1v1.7h-8v-1.1Z" style="fill:#fff; stroke-width:0px;"/><path d="M529.2,61.2c-.7,0-1.3-.1-1.9-.4s-1.1-.6-1.5-1.2c-.4-.5-.6-1.2-.7-2.1h1.9c0,.4.2.8.4,1,.2.3.5.5.8.6.3.1.6.2.9.2s.7,0,1.1-.3c.3-.2.6-.4.7-.7.2-.3.3-.6.3-1s0-.7-.3-1c-.2-.3-.5-.5-.8-.6-.4-.1-.8-.2-1.3-.2h-2.2s-.9-.7-.9-.7l.7-4.8h6v1.6h-4.3l-.3,2.5h1.6c.8,0,1.5.1,2,.4.6.3,1,.6,1.3,1.1.3.5.5,1.1.5,1.8s-.2,1.3-.5,1.9c-.3.6-.8,1-1.4,1.4s-1.3.5-2.1.5Z" style="fill:#fff; stroke-width:0px;"/><rect x="260.2" y="101.4" width="290.2" height="54" style="fill:#fff; stroke-width:0px;"/><path d="M387.6,132.9v5.1c0,.2-.1.4-.4.4-1.6,0-2.9-.5-3.9-1.6-.6,5.7-4.3,9.2-10.8,9.2s-10.5-3.1-10.5-9.4.5-5.1,1.5-8.2l4.4,1.2c-.6,2-1,3.7-1,5.4,0,3.5,1.9,5.2,5.6,5.2s5.4-1.9,5.3-5.8v-21.3l5.5-.6v17c0,1.9,1.7,3.2,3.8,3.2s.4.1.4.4Z" style="fill:#171a23; stroke-width:0px;"/><path d="M394.4,132.9v5.1c0,.2-.1.4-.4.4h-6.8c-.2,0-.4-.2-.4-.4v-5.1c0-.2.1-.4.4-.4h6.8c.2,0,.4.1.4.4Z" style="fill:#171a23; stroke-width:0px;"/><path d="M401.3,132.9v5.1c0,.2-.1.4-.4.4h-6.8c-.2,0-.4-.2-.4-.4v-5.1c0-.2.1-.4.4-.4h6.8c.2,0,.4.1.4.4Z" style="fill:#171a23; stroke-width:0px;"/><path d="M408.1,132.9v5.1c0,.2-.1.4-.4.4h-6.8c-.2,0-.4-.2-.4-.4v-5.1c0-.2.1-.4.4-.4h6.8c.2,0,.4.1.4.4Z" style="fill:#171a23; stroke-width:0px;"/><path d="M414.9,132.9v5.1c0,.2-.1.4-.4.4h-6.8c-.2,0-.4-.2-.4-.4v-5.1c0-.2.1-.4.4-.4h6.8c.2,0,.4.1.4.4Z" style="fill:#171a23; stroke-width:0px;"/><path d="M421.8,132.9v5.1c0,.2-.1.4-.4.4h-6.8c-.2,0-.4-.2-.4-.4v-5.1c0-.2.1-.4.4-.4h6.8c.2,0,.4.1.4.4Z" style="fill:#171a23; stroke-width:0px;"/><path d="M428.6,132.9v5.1c0,.2-.1.4-.4.4h-6.8c-.2,0-.4-.2-.4-.4v-5.1c0-.2.1-.4.4-.4h6.8c.2,0,.4.1.4.4Z" style="fill:#171a23; stroke-width:0px;"/><path d="M435.5,132.9v5.1c0,.2-.1.4-.4.4h-6.8c-.2,0-.4-.2-.4-.4v-5.1c0-.2.1-.4.4-.4h6.8c.2,0,.4.1.4.4Z" style="fill:#171a23; stroke-width:0px;"/><path d="M453.3,128.7c0,5.9-3.9,9.6-10.1,9.6h-8.1c-.2,0-.4-.1-.4-.4v-5.1c0-.2.1-.4.4-.4h2.2c-.7-1.4-1.1-2.7-1.1-4.1,0-4.8,3.6-8.2,8.4-8.2s8.7,3.6,8.7,8.5ZM444.3,117.9l-3.7-3.6,3.7-3.6,3.7,3.6-3.6,3.6ZM447.8,128.7c0-1.9-1.4-3.2-3.3-3.2s-3.4,1.5-3.4,3.5.4,2.3,1,3.6h1.1c2.9,0,4.5-1.5,4.5-3.8Z" style="fill:#171a23; stroke-width:0px;"/><path d="M456.9,113.3l5.5-.6v25.7h-5.5v-25.1Z" style="fill:#171a23; stroke-width:0px;"/><path d="M482.9,129.3v8.3c0,6.1-5.9,8.4-14.5,8.4l-.6-4.5c6.5,0,9.4-1.1,9.6-3.8-1.1.5-2.2.7-3.2.7-4.8,0-8.2-3.5-8.2-8.8s3.8-9.1,8.7-9.1,8.2,3.3,8.2,8.8ZM474.6,132.9c.8,0,1.8-.1,2.8-.4v-2.8c0-2.3-1.3-3.6-3.2-3.6s-3.3,1.3-3.3,3.3,1.6,3.5,3.7,3.5Z" style="fill:#171a23; stroke-width:0px;"/><path d="M453.5,228.8v2.6c0,.1,0,.2-.2.2-1.2,0-2-.2-2.7-.7-1.1.6-2.1.8-3.1.8-2.6,0-4.4-2-4.4-4.6s1.8-4.8,4.4-4.8,1.2.1,1.8.3v-1l2.8-.3v6.1c0,.8.4,1.1,1,1.1s.2,0,.2.2ZM446.3,221.1l-1.9-1.9,1.9-1.9,1.4,1.4,1.4-1.4,1.9,1.9-1.9,1.9-1.5-1.4-1.4,1.4ZM449.5,228.6c0-.2,0-.5,0-.8v-2.4c-.6-.2-1.2-.3-1.7-.3-1.2,0-1.9.8-1.9,1.9s.7,1.8,1.8,1.8c.7,0,1.3,0,1.9-.3Z" style="fill:#fff; stroke-width:0px;"/><path d="M457.1,228.8v2.6c0,.1,0,.2-.2.2h-3.5c-.1,0-.2,0-.2-.2v-2.6c0-.1,0-.2.2-.2h3.5c.1,0,.2,0,.2.2Z" style="fill:#fff; stroke-width:0px;"/><path d="M460.6,228.8v2.6c0,.1,0,.2-.2.2h-3.5c-.1,0-.2,0-.2-.2v-2.6c0-.1,0-.2.2-.2h3.5c.1,0,.2,0,.2.2Z" style="fill:#fff; stroke-width:0px;"/><path d="M464.1,228.8v2.6c0,.1,0,.2-.2.2h-3.5c-.1,0-.2,0-.2-.2v-2.6c0-.1,0-.2.2-.2h3.5c.1,0,.2,0,.2.2Z" style="fill:#fff; stroke-width:0px;"/><path d="M467,222.7l2.8-.3v5.4c0,2.5-1.4,3.8-4.4,3.8h-1.5c-.1,0-.2,0-.2-.2v-2.6c0-.1.1-.2.2-.2h1.5c1,0,1.5-.6,1.5-1.9v-4ZM467,221.3l-1.9-1.9,1.9-1.9,1.4,1.4,1.4-1.4,1.9,1.9-1.9,1.9-1.4-1.4-1.4,1.4Z" style="fill:#fff; stroke-width:0px;"/><path d="M483.8,231.4c0,.1,0,.2-.2.2-1.5,0-2.6-.3-3.3-1-1.1.5-3.3,1-4.5,1h-3.9l-.4-3h3.1l-1.4-7.2,2.8-.7,1.2,7.8c.7,0,1.4-.2,2-.3,0-.2,0-.3,0-.5v-9.1s2.8-.3,2.8-.3v8.4c0,1.3.5,1.9,1.5,1.9s.2,0,.2.2v2.6Z" style="fill:#fff; stroke-width:0px;"/><path d="M487.4,228.8v2.6c0,.1,0,.2-.2.2h-3.5c-.1,0-.2,0-.2-.2v-2.6c0-.1,0-.2.2-.2h3.5c.1,0,.2,0,.2.2Z" style="fill:#fff; stroke-width:0px;"/><path d="M490.9,228.8v2.6c0,.1,0,.2-.2.2h-3.5c-.1,0-.2,0-.2-.2v-2.6c0-.1,0-.2.2-.2h3.5c.1,0,.2,0,.2.2Z" style="fill:#fff; stroke-width:0px;"/><path d="M494.5,228.8v2.6c0,.1,0,.2-.2.2h-3.5c-.1,0-.2,0-.2-.2v-2.6c0-.1,0-.2.2-.2h3.5c.1,0,.2,0,.2.2Z" style="fill:#fff; stroke-width:0px;"/><path d="M498,228.8v2.6c0,.1,0,.2-.2.2h-3.5c-.1,0-.2,0-.2-.2v-2.6c0-.1,0-.2.2-.2h3.5c.1,0,.2,0,.2.2Z" style="fill:#fff; stroke-width:0px;"/><path d="M508,227.3c0,2.7-1.7,4.3-4.5,4.3h-5.7c-.1,0-.2,0-.2-.2v-2.6c0-.1,0-.2.2-.2h5.7c1,0,1.6-.5,1.6-1.3s-.6-1.3-1.6-1.3h-4.1l-1.5-2.6,5.2-6.4,2.5,1.4-4.8,5h2.5c2.8,0,4.6,1.5,4.6,3.9Z" style="fill:#fff; stroke-width:0px;"/><path d="M518.9,228.8v2.6c0,.1,0,.2-.2.2h-.9c-.3,2.8-3.2,3.9-7.5,3.9l-.3-2.3c3.1,0,4.6-.4,4.9-1.6h-1.5c-2.6,0-4.3-1.8-4.3-4.5s2-4.7,4.5-4.7,4.3,1.7,4.3,4.6v1.7h.9c.1,0,.2,0,.2.2ZM513.7,228.8c.4,0,.9,0,1.4,0v-1.6c0-1.2-.7-1.9-1.7-1.9s-1.7.7-1.7,1.7.9,1.8,2,1.8Z" style="fill:#fff; stroke-width:0px;"/><path d="M522.5,228.8v2.6c0,.1,0,.2-.2.2h-3.5c-.1,0-.2,0-.2-.2v-2.6c0-.1,0-.2.2-.2h3.5c.1,0,.2,0,.2.2Z" style="fill:#fff; stroke-width:0px;"/><path d="M526,228.8v2.6c0,.1,0,.2-.2.2h-3.5c-.1,0-.2,0-.2-.2v-2.6c0-.1,0-.2.2-.2h3.5c.1,0,.2,0,.2.2Z" style="fill:#fff; stroke-width:0px;"/><path d="M529.6,228.8v2.6c0,.1,0,.2-.2.2h-3.5c-.1,0-.2,0-.2-.2v-2.6c0-.1,0-.2.2-.2h3.5c.1,0,.2,0,.2.2Z" style="fill:#fff; stroke-width:0px;"/><path d="M533.1,228.8v2.6c0,.1,0,.2-.2.2h-3.5c-.1,0-.2,0-.2-.2v-2.6c0-.1,0-.2.2-.2h3.5c.1,0,.2,0,.2.2Z" style="fill:#fff; stroke-width:0px;"/><path d="M548.7,222.3v5.4c0,2.5-1.3,3.8-3.8,3.8s-2-.3-3-1c-.7.6-1.7,1-2.9,1s-1.8-.3-2.7-1.1c-.7.7-1.8,1.1-3.3,1.1s-.2,0-.2-.2v-2.6c0-.1,0-.2.2-.2,1,0,1.5-.6,1.5-1.9v-2.2s2.8-.3,2.8-.3v3.6c0,.2,0,.4,0,.5.5.2.9.3,1.4.3,1,0,1.5-.6,1.5-1.9v-2.2s2.8-.3,2.8-.3v3.6c0,.2,0,.4,0,.6.5.1.9.2,1.4.2,1,0,1.5-.6,1.5-1.9v-4.1l2.8-.3ZM540.1,222.4l-1.9-1.9,1.9-1.9,1.4,1.4,1.4-1.4,1.9,1.9-1.9,1.9-1.5-1.4-1.4,1.4ZM541.6,219.1l-1.2-1.2,1.2-1.2,1.2,1.2-1.2,1.2Z" style="fill:#fff; stroke-width:0px;"/><path d="M453.5,257.3c.7.7,1.8,1,3.2,1s1.2,0,1.8-.2,1.2-.3,1.7-.6v1.5c-.4.2-1,.4-1.7.6-.6.1-1.2.2-1.9.2-2,0-3.5-.5-4.6-1.4s-1.6-2.3-1.6-4,.5-3.1,1.6-4,2.6-1.4,4.6-1.4,1.2,0,1.8.2,1.2.3,1.8.5v1.5c-.6-.2-1.2-.4-1.8-.6-.6-.1-1.2-.2-1.8-.2-1.4,0-2.4.4-3.2,1-.7.7-1.1,1.7-1.1,3s.4,2.3,1.1,3Z" style="fill:#ee304c; stroke-width:0px;"/><path d="M472,249.1v10.5h-1.7v-4.5h-6.5v4.5h-1.7v-10.5h1.7v4.6h6.5v-4.6h1.7Z" style="fill:#ee304c; stroke-width:0px;"/><path d="M476.3,259.2c-.9-.4-1.5-1-2-1.9-.5-.8-.7-1.8-.7-2.9s.2-2.1.7-3,1.1-1.5,2-1.9,1.9-.7,3.1-.7,2.3.2,3.1.7c.9.4,1.5,1.1,2,1.9s.7,1.8.7,3-.2,2.1-.7,2.9c-.5.8-1.1,1.4-2,1.9-.9.4-1.9.6-3.1.6s-2.3-.2-3.1-.6ZM476.5,257.3c.7.7,1.7,1,3,1s2.3-.3,3-1c.7-.7,1.1-1.7,1.1-2.9s-.4-2.3-1.1-3c-.7-.7-1.7-1.1-3-1.1s-2.3.4-3,1.1-1.1,1.7-1.1,3,.4,2.2,1.1,2.9Z" style="fill:#ee304c; stroke-width:0px;"/><path d="M489.3,257.3c.7.7,1.8,1,3.2,1s1.2,0,1.8-.2,1.2-.3,1.7-.6v1.5c-.4.2-1,.4-1.7.6-.6.1-1.2.2-1.9.2-2,0-3.5-.5-4.6-1.4s-1.6-2.3-1.6-4,.5-3.1,1.6-4,2.6-1.4,4.6-1.4,1.2,0,1.8.2,1.2.3,1.8.5v1.5c-.6-.2-1.2-.4-1.8-.6-.6-.1-1.2-.2-1.8-.2-1.4,0-2.4.4-3.2,1-.7.7-1.1,1.7-1.1,3s.4,2.3,1.1,3Z" style="fill:#ee304c; stroke-width:0px;"/><path d="M499.9,259.2c-.9-.4-1.5-1-2-1.9-.5-.8-.7-1.8-.7-2.9s.2-2.1.7-3,1.1-1.5,2-1.9,1.9-.7,3.1-.7,2.3.2,3.1.7c.9.4,1.5,1.1,2,1.9s.7,1.8.7,3-.2,2.1-.7,2.9c-.5.8-1.1,1.4-2,1.9-.9.4-1.9.6-3.1.6s-2.3-.2-3.1-.6ZM500.1,257.3c.7.7,1.7,1,3,1s2.3-.3,3-1c.7-.7,1.1-1.7,1.1-2.9s-.4-2.3-1.1-3c-.7-.7-1.7-1.1-3-1.1s-2.3.4-3,1.1-1.1,1.7-1.1,3,.4,2.2,1.1,2.9Z" style="fill:#ee304c; stroke-width:0px;"/><path d="M512.3,249.1v9.1h6.2v1.4h-8v-10.5h1.7Z" style="fill:#ee304c; stroke-width:0px;"/><path d="M523.3,249.1h3.3l4.3,10.5h-1.9l-1-2.5h-6.1l-1,2.5h-1.9l4.3-10.5ZM527.6,255.8l-2.6-6.5h0l-2.5,6.5h5.1Z" style="fill:#ee304c; stroke-width:0px;"/><path d="M533.5,250.5h-3.7v-1.4h9.2v1.4h-3.8v9.1h-1.7v-9.1Z" style="fill:#ee304c; stroke-width:0px;"/><path d="M548.5,249.1v1.4h-6.6v3.2h5.4v1.2h-5.4v3.3h6.8v1.4h-8.5v-10.5h8.3Z" style="fill:#ee304c; stroke-width:0px;"/><path d="M453.9,324.8v2.6c0,.1,0,.2-.2.2-1.2,0-2-.2-2.7-.7-1.1.6-2.1.8-3.1.8-2.6,0-4.4-2-4.4-4.6s1.8-4.8,4.4-4.8,1.2.1,1.8.3v-1l2.8-.3v6.1c0,.8.4,1.1,1,1.1s.2,0,.2.2ZM446.7,317.1l-1.9-1.9,1.9-1.9,1.4,1.4,1.4-1.4,1.9,1.9-1.9,1.9-1.5-1.4-1.4,1.4ZM449.9,324.6c0-.2,0-.5,0-.8v-2.4c-.6-.2-1.2-.3-1.7-.3-1.2,0-1.9.8-1.9,1.9s.8,1.8,1.8,1.8c.7,0,1.3,0,1.9-.3Z" style="fill:#fff; stroke-width:0px;"/><path d="M457.4,324.8v2.6c0,.1,0,.2-.2.2h-3.5c-.1,0-.2,0-.2-.2v-2.6c0-.1,0-.2.2-.2h3.5c.1,0,.2,0,.2.2Z" style="fill:#fff; stroke-width:0px;"/><path d="M461,324.8v2.6c0,.1,0,.2-.2.2h-3.5c-.1,0-.2,0-.2-.2v-2.6c0-.1,0-.2.2-.2h3.5c.1,0,.2,0,.2.2Z" style="fill:#fff; stroke-width:0px;"/><path d="M464.5,324.8v2.6c0,.1,0,.2-.2.2h-3.5c-.1,0-.2,0-.2-.2v-2.6c0-.1,0-.2.2-.2h3.5c.1,0,.2,0,.2.2Z" style="fill:#fff; stroke-width:0px;"/><path d="M468.1,324.8v2.6c0,.1,0,.2-.2.2h-3.5c-.1,0-.2,0-.2-.2v-2.6c0-.1,0-.2.2-.2h3.5c.1,0,.2,0,.2.2Z" style="fill:#fff; stroke-width:0px;"/><path d="M471.6,324.8v2.6c0,.1,0,.2-.2.2h-3.5c-.1,0-.2,0-.2-.2v-2.6c0-.1,0-.2.2-.2h3.5c.1,0,.2,0,.2.2Z" style="fill:#fff; stroke-width:0px;"/><path d="M475.2,324.8v2.6c0,.1,0,.2-.2.2h-3.5c-.1,0-.2,0-.2-.2v-2.6c0-.1,0-.2.2-.2h3.5c.1,0,.2,0,.2.2Z" style="fill:#fff; stroke-width:0px;"/><path d="M478.7,324.8v2.6c0,.1,0,.2-.2.2h-3.5c-.1,0-.2,0-.2-.2v-2.6c0-.1,0-.2.2-.2h3.5c.1,0,.2,0,.2.2Z" style="fill:#fff; stroke-width:0px;"/><path d="M482.3,324.8v2.6c0,.1,0,.2-.2.2h-3.5c-.1,0-.2,0-.2-.2v-2.6c0-.1,0-.2.2-.2h3.5c.1,0,.2,0,.2.2Z" style="fill:#fff; stroke-width:0px;"/><path d="M485.8,324.8v2.6c0,.1,0,.2-.2.2h-3.5c-.1,0-.2,0-.2-.2v-2.6c0-.1,0-.2.2-.2h3.5c.1,0,.2,0,.2.2Z" style="fill:#fff; stroke-width:0px;"/><path d="M495.8,323.3c0,2.7-1.7,4.3-4.5,4.3h-5.7c-.1,0-.2,0-.2-.2v-2.6c0-.1,0-.2.2-.2h5.7c1,0,1.6-.5,1.6-1.3s-.6-1.3-1.6-1.3h-4.1l-1.5-2.6,5.2-6.4,2.5,1.4-4.8,5h2.5c2.8,0,4.6,1.5,4.6,3.9Z" style="fill:#fff; stroke-width:0px;"/><path d="M497.5,314.6l2.8-.3v13.3h-2.8v-13Z" style="fill:#fff; stroke-width:0px;"/><path d="M512.1,324.8v2.6c0,.1,0,.2-.2.2h-.9c-.3,2.8-3.2,3.9-7.5,3.9l-.3-2.3c3.1,0,4.6-.4,4.9-1.6h-1.5c-2.6,0-4.3-1.8-4.3-4.5s2-4.7,4.5-4.7,4.3,1.7,4.3,4.6v1.7h.9c.1,0,.2,0,.2.2ZM506.8,324.7c.4,0,.9,0,1.4,0v-1.6c0-1.2-.7-1.9-1.7-1.9s-1.7.7-1.7,1.7.9,1.8,2,1.8Z" style="fill:#fff; stroke-width:0px;"/><path d="M515.6,324.8v2.6c0,.1,0,.2-.2.2h-3.5c-.1,0-.2,0-.2-.2v-2.6c0-.1,0-.2.2-.2h3.5c.1,0,.2,0,.2.2Z" style="fill:#fff; stroke-width:0px;"/><path d="M519.2,324.8v2.6c0,.1,0,.2-.2.2h-3.5c-.1,0-.2,0-.2-.2v-2.6c0-.1,0-.2.2-.2h3.5c.1,0,.2,0,.2.2Z" style="fill:#fff; stroke-width:0px;"/><path d="M522.7,324.8v2.6c0,.1,0,.2-.2.2h-3.5c-.1,0-.2,0-.2-.2v-2.6c0-.1,0-.2.2-.2h3.5c.1,0,.2,0,.2.2Z" style="fill:#fff; stroke-width:0px;"/><path d="M526.2,324.8v2.6c0,.1,0,.2-.2.2h-3.5c-.1,0-.2,0-.2-.2v-2.6c0-.1,0-.2.2-.2h3.5c.1,0,.2,0,.2.2Z" style="fill:#fff; stroke-width:0px;"/><path d="M529.8,324.8v2.6c0,.1,0,.2-.2.2h-3.5c-.1,0-.2,0-.2-.2v-2.6c0-.1,0-.2.2-.2h3.5c.1,0,.2,0,.2.2Z" style="fill:#fff; stroke-width:0px;"/><path d="M533.3,324.8v2.6c0,.1,0,.2-.2.2h-3.5c-.1,0-.2,0-.2-.2v-2.6c0-.1,0-.2.2-.2h3.5c.1,0,.2,0,.2.2Z" style="fill:#fff; stroke-width:0px;"/><path d="M536.9,324.8v2.6c0,.1,0,.2-.2.2h-3.5c-.1,0-.2,0-.2-.2v-2.6c0-.1,0-.2.2-.2h3.5c.1,0,.2,0,.2.2Z" style="fill:#fff; stroke-width:0px;"/><path d="M546.1,322.6c0,3-2,5-5.2,5h-4.2c-.1,0-.2,0-.2-.2v-2.6c0-.1,0-.2.2-.2h1.1c-.3-.7-.5-1.4-.5-2.1,0-2.5,1.9-4.3,4.3-4.3s4.5,1.9,4.5,4.4ZM541.5,317l-1.9-1.9,1.9-1.9,1.9,1.9-1.9,1.9ZM543.3,322.6c0-1-.7-1.7-1.7-1.7s-1.8.8-1.8,1.8.2,1.2.5,1.9h.6c1.5,0,2.4-.8,2.4-2Z" style="fill:#fff; stroke-width:0px;"/><path d="M501.6,344.7h8.3v1.4h-6.6v3.5h5.2v1.3h-5.2v4.2h-1.7v-10.5Z" style="fill:#ee304c; stroke-width:0px;"/><path d="M511.4,344.7h4.6c1.4,0,2.4.3,3.2.8.8.6,1.1,1.3,1.1,2.4s-.3,1.7-1,2.2c-.7.5-1.6.9-2.8.9l4,4.2h-2l-5.1-5.3h2.4c.8,0,1.4-.2,1.9-.5.4-.3.7-.8.7-1.5s-.2-1.1-.7-1.5c-.4-.3-1.1-.5-1.9-.5h-2.8v9.2h-1.7v-10.5Z" style="fill:#ee304c; stroke-width:0px;"/><path d="M530.4,354.3c-.9.8-2.2,1.2-3.8,1.2s-3-.4-3.8-1.2c-.9-.8-1.3-1.9-1.3-3.4v-6.2h1.7v6.2c0,1,.3,1.8.9,2.4.6.5,1.4.8,2.6.8s2-.3,2.6-.8c.6-.5.9-1.3.9-2.4v-6.2h1.7v6.2c0,1.5-.4,2.6-1.3,3.4Z" style="fill:#ee304c; stroke-width:0px;"/><path d="M535.2,344.7v10.5h-1.7v-10.5h1.7Z" style="fill:#ee304c; stroke-width:0px;"/><path d="M540.2,346.1h-3.7v-1.4h9.2v1.4h-3.8v9.1h-1.7v-9.1Z" style="fill:#ee304c; stroke-width:0px;"/><path d="M442.9,417.1c1.5,0,2.6-.6,2.6-2.2v-8.4s2.8-.3,2.8-.3v8.8c0,3.2-1.7,4.3-5.2,4.3l-.2-2.3Z" style="fill:#fff; stroke-width:0px;"/><path d="M460.2,412.7v2.6c0,.1,0,.2-.2.2-1.1,0-2-.4-2.7-1.1-.7.7-1.9,1.1-3.4,1.1h-4.1l-.4-3h4.6c1,0,1.5-.6,1.5-1.4v-.6c0-1-.8-1.6-2-1.6h-1.2v-2.9h1.9c2.5,0,4.2,1.5,4.2,4.3v1.4c0,.1,0,.3,0,.4.5.3,1,.4,1.8.4s.2,0,.2.2Z" style="fill:#fff; stroke-width:0px;"/><path d="M463.8,412.7v2.6c0,.1,0,.2-.2.2h-3.5c-.1,0-.2,0-.2-.2v-2.6c0-.1,0-.2.2-.2h3.5c.1,0,.2,0,.2.2Z" style="fill:#fff; stroke-width:0px;"/><path d="M467.3,412.7v2.6c0,.1,0,.2-.2.2h-3.5c-.1,0-.2,0-.2-.2v-2.6c0-.1,0-.2.2-.2h3.5c.1,0,.2,0,.2.2Z" style="fill:#fff; stroke-width:0px;"/><path d="M470.9,412.7v2.6c0,.1,0,.2-.2.2h-3.5c-.1,0-.2,0-.2-.2v-2.6c0-.1,0-.2.2-.2h3.5c.1,0,.2,0,.2.2Z" style="fill:#fff; stroke-width:0px;"/><path d="M474.4,412.7v2.6c0,.1,0,.2-.2.2h-3.5c-.1,0-.2,0-.2-.2v-2.6c0-.1,0-.2.2-.2h3.5c.1,0,.2,0,.2.2Z" style="fill:#fff; stroke-width:0px;"/><path d="M478,412.7v2.6c0,.1,0,.2-.2.2h-3.5c-.1,0-.2,0-.2-.2v-2.6c0-.1,0-.2.2-.2h3.5c.1,0,.2,0,.2.2Z" style="fill:#fff; stroke-width:0px;"/><path d="M481.5,412.7v2.6c0,.1,0,.2-.2.2h-3.5c-.1,0-.2,0-.2-.2v-2.6c0-.1,0-.2.2-.2h3.5c.1,0,.2,0,.2.2Z" style="fill:#fff; stroke-width:0px;"/><path d="M485,412.7v2.6c0,.1,0,.2-.2.2h-3.5c-.1,0-.2,0-.2-.2v-2.6c0-.1,0-.2.2-.2h3.5c.1,0,.2,0,.2.2Z" style="fill:#fff; stroke-width:0px;"/><path d="M488.6,412.7v2.6c0,.1,0,.2-.2.2h-3.5c-.1,0-.2,0-.2-.2v-2.6c0-.1,0-.2.2-.2h3.5c.1,0,.2,0,.2.2Z" style="fill:#fff; stroke-width:0px;"/><path d="M492.1,412.7v2.6c0,.1,0,.2-.2.2h-3.5c-.1,0-.2,0-.2-.2v-2.6c0-.1,0-.2.2-.2h3.5c.1,0,.2,0,.2.2Z" style="fill:#fff; stroke-width:0px;"/><path d="M495.7,412.7v2.6c0,.1,0,.2-.2.2h-3.5c-.1,0-.2,0-.2-.2v-2.6c0-.1,0-.2.2-.2h3.5c.1,0,.2,0,.2.2Z" style="fill:#fff; stroke-width:0px;"/><path d="M499.2,412.7v2.6c0,.1,0,.2-.2.2h-3.5c-.1,0-.2,0-.2-.2v-2.6c0-.1,0-.2.2-.2h3.5c.1,0,.2,0,.2.2Z" style="fill:#fff; stroke-width:0px;"/><path d="M505.5,412.7v2.6c0,.1,0,.2-.2.2-1.1,0-2-.4-2.8-1.2-.7.8-1.9,1.2-3.5,1.2s-.2,0-.2-.2v-2.6c0-.1.1-.2.2-.2,1,0,1.5-.6,1.5-1.9v-2.2s2.8-.3,2.8-.3v3.9c.5.3,1.2.5,1.9.5s.2,0,.2.2ZM502.1,407l-1.9-1.9,1.9-1.9,1.9,1.9-1.9,1.9Z" style="fill:#fff; stroke-width:0px;"/><path d="M509.1,412.7v2.6c0,.1,0,.2-.2.2h-3.5c-.1,0-.2,0-.2-.2v-2.6c0-.1,0-.2.2-.2h3.5c.1,0,.2,0,.2.2Z" style="fill:#fff; stroke-width:0px;"/><path d="M512.6,412.7v2.6c0,.1,0,.2-.2.2h-3.5c-.1,0-.2,0-.2-.2v-2.6c0-.1,0-.2.2-.2h3.5c.1,0,.2,0,.2.2Z" style="fill:#fff; stroke-width:0px;"/><path d="M516.2,412.7v2.6c0,.1,0,.2-.2.2h-3.5c-.1,0-.2,0-.2-.2v-2.6c0-.1,0-.2.2-.2h3.5c.1,0,.2,0,.2.2Z" style="fill:#fff; stroke-width:0px;"/><path d="M519.7,412.7v2.6c0,.1,0,.2-.2.2h-3.5c-.1,0-.2,0-.2-.2v-2.6c0-.1,0-.2.2-.2h3.5c.1,0,.2,0,.2.2Z" style="fill:#fff; stroke-width:0px;"/><path d="M523.2,412.7v2.6c0,.1,0,.2-.2.2h-3.5c-.1,0-.2,0-.2-.2v-2.6c0-.1,0-.2.2-.2h3.5c.1,0,.2,0,.2.2Z" style="fill:#fff; stroke-width:0px;"/><path d="M526.8,412.7v2.6c0,.1,0,.2-.2.2h-3.5c-.1,0-.2,0-.2-.2v-2.6c0-.1,0-.2.2-.2h3.5c.1,0,.2,0,.2.2Z" style="fill:#fff; stroke-width:0px;"/><path d="M530.3,412.7v2.6c0,.1,0,.2-.2.2h-3.5c-.1,0-.2,0-.2-.2v-2.6c0-.1,0-.2.2-.2h3.5c.1,0,.2,0,.2.2Z" style="fill:#fff; stroke-width:0px;"/><path d="M533.9,412.7v2.6c0,.1,0,.2-.2.2h-3.5c-.1,0-.2,0-.2-.2v-2.6c0-.1,0-.2.2-.2h3.5c.1,0,.2,0,.2.2Z" style="fill:#fff; stroke-width:0px;"/><path d="M537.4,412.7v2.6c0,.1,0,.2-.2.2h-3.5c-.1,0-.2,0-.2-.2v-2.6c0-.1,0-.2.2-.2h3.5c.1,0,.2,0,.2.2Z" style="fill:#fff; stroke-width:0px;"/><path d="M547.4,411.2c0,2.7-1.7,4.3-4.5,4.3h-5.7c-.1,0-.2,0-.2-.2v-2.6c0-.1,0-.2.2-.2h5.7c1,0,1.6-.5,1.6-1.3s-.6-1.3-1.6-1.3h-4.1l-1.5-2.6,5.2-6.4,2.5,1.4-4.8,5h2.5c2.8,0,4.6,1.5,4.6,3.9Z" style="fill:#fff; stroke-width:0px;"/><path d="M489.1,431.5v10.5h-1.7v-10.5h1.7ZM494.5,431.5h2.1l-5.2,4.9,5.3,5.6h-2l-5.3-5.6,5.1-4.9Z" style="fill:#ee304c; stroke-width:0px;"/><path d="M499.6,431.5v10.5h-1.7v-10.5h1.7Z" style="fill:#ee304c; stroke-width:0px;"/><path d="M505.2,431.5l5.5,10.3h0v-10.3h1.7v10.5h-3.4l-5.5-10.3h0v10.3h-1.7v-10.5h3.4Z" style="fill:#ee304c; stroke-width:0px;"/><path d="M522.3,432.1c.9.4,1.6,1,2.1,1.8.5.8.7,1.7.7,2.8s-.2,2-.7,2.8c-.5.8-1.2,1.4-2.1,1.8-.9.4-2,.6-3.2.6h-4.5v-10.5h4.5c1.2,0,2.3.2,3.2.6ZM519,440.6c.9,0,1.6-.2,2.2-.5.6-.3,1.1-.8,1.5-1.3s.5-1.3.5-2-.2-1.5-.5-2-.8-1-1.5-1.3c-.6-.3-1.4-.5-2.2-.5h-2.7v7.7h2.7Z" style="fill:#ee304c; stroke-width:0px;"/><path d="M535.1,431.5v1.4h-6.6v3.2h5.4v1.2h-5.4v3.3h6.8v1.4h-8.5v-10.5h8.3Z" style="fill:#ee304c; stroke-width:0px;"/><path d="M536.5,431.5h4.6c1.4,0,2.4.3,3.2.8.8.6,1.1,1.3,1.1,2.4s-.3,1.7-1,2.2c-.7.5-1.6.9-2.8.9l4,4.2h-2l-5.1-5.3h2.4c.8,0,1.4-.2,1.9-.5.4-.3.7-.8.7-1.5s-.2-1.1-.7-1.5c-.4-.3-1.1-.5-1.9-.5h-2.8v9.2h-1.7v-10.5Z" style="fill:#ee304c; stroke-width:0px;"/><path d="M468.1,501.2v2.6c0,.1,0,.2-.2.2-1,0-1.8-.3-2.5-.9-.6.6-1.6.9-2.8.9s-2-.3-3-1c-.7.7-1.7,1-2.9,1s-1.5-.2-2.2-.7c-.3,2.9-2.3,4.6-5.6,4.6s-5.5-1.6-5.5-4.9.3-2.6.8-4.3l2.3.6c-.3,1-.5,1.9-.5,2.8,0,1.8,1,2.7,2.9,2.7s2.8-1,2.8-3v-6.8l2.8-.3v5.8c.6.3,1.2.5,1.8.5,1,0,1.5-.6,1.5-1.9v-2.2s2.8-.3,2.8-.3v3.6c0,.2,0,.4,0,.6.5.1.9.2,1.4.2,1,0,1.5-.6,1.5-1.9v-4l2.8-.3v5.4c0,.2,0,.4,0,.5.4.2.9.3,1.4.3s.2,0,.2.2Z" style="fill:#fff; stroke-width:0px;"/><path d="M471.6,501.2v2.6c0,.1,0,.2-.2.2h-3.5c-.1,0-.2,0-.2-.2v-2.6c0-.1,0-.2.2-.2h3.5c.1,0,.2,0,.2.2Z" style="fill:#fff; stroke-width:0px;"/><path d="M475.2,501.2v2.6c0,.1,0,.2-.2.2h-3.5c-.1,0-.2,0-.2-.2v-2.6c0-.1,0-.2.2-.2h3.5c.1,0,.2,0,.2.2Z" style="fill:#fff; stroke-width:0px;"/><path d="M478.7,501.2v2.6c0,.1,0,.2-.2.2h-3.5c-.1,0-.2,0-.2-.2v-2.6c0-.1,0-.2.2-.2h3.5c.1,0,.2,0,.2.2Z" style="fill:#fff; stroke-width:0px;"/><path d="M482.3,501.2v2.6c0,.1,0,.2-.2.2h-3.5c-.1,0-.2,0-.2-.2v-2.6c0-.1,0-.2.2-.2h3.5c.1,0,.2,0,.2.2Z" style="fill:#fff; stroke-width:0px;"/><path d="M485.8,501.2v2.6c0,.1,0,.2-.2.2h-3.5c-.1,0-.2,0-.2-.2v-2.6c0-.1,0-.2.2-.2h3.5c.1,0,.2,0,.2.2Z" style="fill:#fff; stroke-width:0px;"/><path d="M489.4,501.2v2.6c0,.1,0,.2-.2.2h-3.5c-.1,0-.2,0-.2-.2v-2.6c0-.1,0-.2.2-.2h3.5c.1,0,.2,0,.2.2Z" style="fill:#fff; stroke-width:0px;"/><path d="M492.9,501.2v2.6c0,.1,0,.2-.2.2h-3.5c-.1,0-.2,0-.2-.2v-2.6c0-.1,0-.2.2-.2h3.5c.1,0,.2,0,.2.2Z" style="fill:#fff; stroke-width:0px;"/><path d="M496.4,501.2v2.6c0,.1,0,.2-.2.2h-3.5c-.1,0-.2,0-.2-.2v-2.6c0-.1,0-.2.2-.2h3.5c.1,0,.2,0,.2.2Z" style="fill:#fff; stroke-width:0px;"/><path d="M500,501.2v2.6c0,.1,0,.2-.2.2h-3.5c-.1,0-.2,0-.2-.2v-2.6c0-.1,0-.2.2-.2h3.5c.1,0,.2,0,.2.2Z" style="fill:#fff; stroke-width:0px;"/><path d="M502.9,495.1l2.8-.3v5.4c0,2.5-1.4,3.8-4.4,3.8h-1.5c-.1,0-.2,0-.2-.2v-2.6c0-.1.1-.2.2-.2h1.5c1,0,1.5-.6,1.5-1.9v-4ZM502.8,493.7l-1.9-1.9,1.9-1.9,1.4,1.4,1.4-1.4,1.9,1.9-1.9,1.9-1.4-1.4-1.4,1.4Z" style="fill:#fff; stroke-width:0px;"/><path d="M517.5,501.2v2.6c0,.1,0,.2-.2.2h-.9c-.3,2.8-3.2,3.9-7.5,3.9l-.3-2.3c3.1,0,4.6-.4,4.9-1.6h-1.5c-2.6,0-4.3-1.8-4.3-4.5s2-4.7,4.5-4.7,4.3,1.7,4.3,4.6v1.7h.9c.1,0,.2,0,.2.2ZM512.3,501.2c.4,0,.9,0,1.4,0v-1.6c0-1.2-.7-1.9-1.7-1.9s-1.7.7-1.7,1.7.9,1.8,2,1.8Z" style="fill:#fff; stroke-width:0px;"/><path d="M521.1,501.2v2.6c0,.1,0,.2-.2.2h-3.5c-.1,0-.2,0-.2-.2v-2.6c0-.1,0-.2.2-.2h3.5c.1,0,.2,0,.2.2Z" style="fill:#fff; stroke-width:0px;"/><path d="M524.6,501.2v2.6c0,.1,0,.2-.2.2h-3.5c-.1,0-.2,0-.2-.2v-2.6c0-.1,0-.2.2-.2h3.5c.1,0,.2,0,.2.2Z" style="fill:#fff; stroke-width:0px;"/><path d="M528.2,501.2v2.6c0,.1,0,.2-.2.2h-3.5c-.1,0-.2,0-.2-.2v-2.6c0-.1,0-.2.2-.2h3.5c.1,0,.2,0,.2.2Z" style="fill:#fff; stroke-width:0px;"/><path d="M531.7,501.2v2.6c0,.1,0,.2-.2.2h-3.5c-.1,0-.2,0-.2-.2v-2.6c0-.1,0-.2.2-.2h3.5c.1,0,.2,0,.2.2Z" style="fill:#fff; stroke-width:0px;"/><path d="M535.3,501.2v2.6c0,.1,0,.2-.2.2h-3.5c-.1,0-.2,0-.2-.2v-2.6c0-.1,0-.2.2-.2h3.5c.1,0,.2,0,.2.2Z" style="fill:#fff; stroke-width:0px;"/><path d="M538.8,501.2v2.6c0,.1,0,.2-.2.2h-3.5c-.1,0-.2,0-.2-.2v-2.6c0-.1,0-.2.2-.2h3.5c.1,0,.2,0,.2.2Z" style="fill:#fff; stroke-width:0px;"/><path d="M542.4,501.2v2.6c0,.1,0,.2-.2.2h-3.5c-.1,0-.2,0-.2-.2v-2.6c0-.1,0-.2.2-.2h3.5c.1,0,.2,0,.2.2Z" style="fill:#fff; stroke-width:0px;"/><path d="M542,503.9v-2.6c0-.1,0-.2.2-.2,1,0,1.5-.6,1.5-1.9v-8.1s2.9-.3,2.9-.3v9.5c0,2.6-1.5,3.9-4.4,3.9s-.2,0-.2-.2Z" style="fill:#fff; stroke-width:0px;"/><path d="M496.6,522.9v9.1h6.2v1.4h-8v-10.5h1.7Z" style="fill:#ee304c; stroke-width:0px;"/><path d="M505.9,533c-.9-.4-1.5-1-2-1.9-.5-.8-.7-1.8-.7-2.9s.2-2.1.7-3c.5-.8,1.1-1.5,2-1.9.9-.4,1.9-.7,3.1-.7s2.3.2,3.1.7c.9.4,1.5,1.1,2,1.9.5.8.7,1.8.7,3s-.2,2.1-.7,2.9c-.5.8-1.1,1.4-2,1.9-.9.4-1.9.6-3.1.6s-2.3-.2-3.1-.6ZM506.1,531.1c.7.7,1.7,1,3,1s2.3-.3,3-1c.7-.7,1.1-1.7,1.1-2.9s-.4-2.3-1.1-3c-.7-.7-1.7-1.1-3-1.1s-2.3.4-3,1.1c-.7.7-1.1,1.7-1.1,3s.4,2.2,1.1,2.9Z" style="fill:#ee304c; stroke-width:0px;"/><path d="M518.7,524.3h-3.7v-1.4h9.2v1.4h-3.8v9.1h-1.7v-9.1Z" style="fill:#ee304c; stroke-width:0px;"/><path d="M533.9,532.5c-.9.8-2.2,1.2-3.8,1.2s-3-.4-3.8-1.2c-.9-.8-1.3-1.9-1.3-3.4v-6.2h1.7v6.2c0,1,.3,1.8.9,2.4.6.5,1.4.8,2.6.8s2-.3,2.6-.8c.6-.5.9-1.3.9-2.4v-6.2h1.7v6.2c0,1.5-.4,2.6-1.3,3.4Z" style="fill:#ee304c; stroke-width:0px;"/><path d="M542.9,524.4c-.7-.1-1.4-.2-2.1-.2s-1.5.1-1.9.4-.6.6-.6,1.1,0,.6.3.8c.2.2.5.4.9.5.4.2.9.3,1.6.5,1,.2,1.9.5,2.5.7.6.3,1.1.6,1.4,1,.3.4.5.9.5,1.5,0,1-.4,1.8-1.3,2.3-.9.5-2,.8-3.6.8s-3.2-.3-4.3-.8v-1.5c.7.2,1.3.5,2,.6.7.2,1.5.2,2.3.2s1.8-.1,2.3-.4c.5-.3.8-.7.8-1.2s-.1-.6-.3-.8c-.2-.2-.5-.4-1-.6-.4-.2-1-.3-1.8-.5-1-.2-1.7-.4-2.3-.7s-1-.6-1.3-1c-.3-.4-.5-.9-.5-1.4,0-.9.4-1.6,1.1-2.1s1.8-.7,3.2-.7,2.8.2,3.9.7v1.5c-.6-.2-1.2-.4-1.9-.6Z" style="fill:#ee304c; stroke-width:0px;"/><path d="M54.5,232.2h-5.3v-1.4c-.1,0,5.1-7,5.1-7h2.2v6.8h1.7v1.6h-1.7v2.3h-1.9v-2.3ZM54.5,230.6v-4.4l-3.3,4.4h3.3Z" style="fill:#fff; stroke-width:0px;"/><path d="M59.9,232.7h1.8l-1.4,3.2h-1.4l.9-3.2Z" style="fill:#fff; stroke-width:0px;"/><path d="M67.5,234.7c-1,0-1.8-.2-2.5-.7s-1.2-1.2-1.5-2c-.3-.8-.5-1.8-.5-2.8s.2-2,.5-2.8c.4-.8.9-1.5,1.6-2,.7-.5,1.5-.7,2.4-.7s1.9.3,2.6.8c.7.5,1.2,1.2,1.5,2,.3.8.5,1.8.5,2.8s-.2,2-.5,2.8c-.3.8-.9,1.5-1.5,2-.7.5-1.5.7-2.5.7ZM67.5,232.9c.5,0,1-.2,1.4-.5.4-.3.7-.8.9-1.3s.3-1.2.3-2-.1-1.4-.3-1.9-.5-1-.9-1.3c-.4-.3-.9-.5-1.4-.5s-1,.2-1.4.5c-.4.3-.7.8-.9,1.3-.2.6-.3,1.2-.3,2s.1,1.4.3,1.9c.2.6.5,1,.9,1.3.4.3.9.5,1.4.5Z" style="fill:#fff; stroke-width:0px;"/><path d="M77.6,234.7c-1,0-1.8-.2-2.5-.7s-1.2-1.2-1.5-2c-.3-.8-.5-1.8-.5-2.8s.2-2,.5-2.8c.4-.8.9-1.5,1.6-2,.7-.5,1.5-.7,2.4-.7s1.9.3,2.6.8c.7.5,1.2,1.2,1.5,2,.3.8.5,1.8.5,2.8s-.2,2-.5,2.8c-.3.8-.9,1.5-1.5,2-.7.5-1.5.7-2.5.7ZM77.6,232.9c.5,0,1-.2,1.4-.5.4-.3.7-.8.9-1.3s.3-1.2.3-2-.1-1.4-.3-1.9-.5-1-.9-1.3c-.4-.3-.9-.5-1.4-.5s-1,.2-1.4.5c-.4.3-.7.8-.9,1.3-.2.6-.3,1.2-.3,2s.1,1.4.3,1.9c.2.6.5,1,.9,1.3.4.3.9.5,1.4.5Z" style="fill:#fff; stroke-width:0px;"/><path d="M87.8,234.7c-1,0-1.8-.2-2.5-.7s-1.2-1.2-1.5-2c-.3-.8-.5-1.8-.5-2.8s.2-2,.5-2.8c.4-.8.9-1.5,1.6-2,.7-.5,1.5-.7,2.4-.7s1.9.3,2.6.8c.7.5,1.2,1.2,1.5,2,.3.8.5,1.8.5,2.8s-.2,2-.5,2.8c-.3.8-.9,1.5-1.5,2-.7.5-1.5.7-2.5.7ZM87.8,232.9c.5,0,1-.2,1.4-.5.4-.3.7-.8.9-1.3s.3-1.2.3-2-.1-1.4-.3-1.9-.5-1-.9-1.3c-.4-.3-.9-.5-1.4-.5s-1,.2-1.4.5c-.4.3-.7.8-.9,1.3-.2.6-.3,1.2-.3,2s.1,1.4.3,1.9c.2.6.5,1,.9,1.3.4.3.9.5,1.4.5Z" style="fill:#fff; stroke-width:0px;"/><path d="M98,223.9h1.9v10.6h-1.9v-10.6Z" style="fill:#fff; stroke-width:0px;"/><path d="M107.5,234.7c-1,0-2-.2-2.9-.7-.9-.5-1.6-1.2-2.1-2s-.8-1.8-.8-2.8.3-1.9.8-2.8c.5-.8,1.2-1.5,2.1-2,.9-.5,1.8-.7,2.9-.7s2,.2,2.9.7c.9.5,1.6,1.2,2.1,2,.5.8.8,1.8.8,2.8s-.3,1.9-.8,2.8-1.2,1.5-2.1,2c-.9.5-1.8.7-2.9.7ZM107.5,232.9c.7,0,1.3-.2,1.9-.5.6-.3,1-.8,1.4-1.3.3-.6.5-1.2.5-1.9s-.2-1.4-.5-1.9c-.3-.6-.8-1-1.4-1.4s-1.2-.5-1.9-.5-1.3.2-1.9.5-1,.8-1.4,1.4c-.3.6-.5,1.2-.5,1.9s.2,1.3.5,1.9.8,1,1.4,1.3,1.2.5,1.9.5ZM109.1,233.9l1.7-.8,1.9,2.7-1.8,1-1.8-2.9Z" style="fill:#fff; stroke-width:0px;"/><path d="M115.1,223.9h4.1c1.1,0,2.1.2,3,.7.9.4,1.5,1.1,2,1.9.5.8.7,1.7.7,2.8s-.2,2-.7,2.8-1.1,1.4-2,1.9c-.9.4-1.8.7-2.9.7h-4.1v-10.6ZM119.2,232.8c.8,0,1.4-.1,2-.4.6-.3,1-.7,1.3-1.2.3-.5.4-1.2.4-1.9s-.1-1.4-.4-1.9c-.3-.5-.7-1-1.3-1.3-.6-.3-1.2-.4-2-.4h-2.1v7.2h2.1Z" style="fill:#fff; stroke-width:0px;"/><path d="M53.8,328.1c-.7,0-1.3-.1-1.8-.4s-1.1-.6-1.5-1.2-.6-1.2-.7-2.1h1.9c0,.4.2.8.4,1s.5.5.8.6.6.2.9.2.7,0,1-.3.5-.4.7-.7c.2-.3.2-.6.2-1s0-.7-.3-1c-.2-.3-.5-.5-.8-.6-.3-.1-.8-.2-1.2-.2h-2.1s-.8-.7-.8-.7l.6-4.7h5.9v1.6h-4.2l-.3,2.4h1.5c.8,0,1.4.1,2,.4.6.3,1,.6,1.3,1.1.3.5.5,1,.5,1.7s-.2,1.3-.5,1.8c-.3.6-.8,1-1.4,1.4s-1.3.5-2.1.5Z" style="fill:#fff; stroke-width:0px;"/><path d="M59.8,326.1h1.8l-1.4,3.2h-1.4l.9-3.2Z" style="fill:#fff; stroke-width:0px;"/><path d="M67.3,328.1c-1,0-1.8-.2-2.5-.7s-1.2-1.2-1.5-2c-.3-.8-.5-1.8-.5-2.8s.2-2,.5-2.8c.4-.8.9-1.5,1.6-2,.7-.5,1.5-.7,2.4-.7s1.9.3,2.6.8c.7.5,1.2,1.2,1.5,2,.3.8.5,1.8.5,2.8s-.2,2-.5,2.8c-.3.8-.9,1.5-1.5,2-.7.5-1.5.7-2.5.7ZM67.3,326.3c.5,0,1-.2,1.4-.5.4-.3.7-.8.9-1.3s.3-1.2.3-2-.1-1.4-.3-1.9-.5-1-.9-1.3c-.4-.3-.9-.5-1.4-.5s-1,.2-1.4.5c-.4.3-.7.8-.9,1.3-.2.6-.3,1.2-.3,2s.1,1.4.3,1.9c.2.6.5,1,.9,1.3.4.3.9.5,1.4.5Z" style="fill:#fff; stroke-width:0px;"/><path d="M77.5,328.1c-1,0-1.8-.2-2.5-.7s-1.2-1.2-1.5-2c-.3-.8-.5-1.8-.5-2.8s.2-2,.5-2.8c.4-.8.9-1.5,1.6-2,.7-.5,1.5-.7,2.4-.7s1.9.3,2.6.8c.7.5,1.2,1.2,1.5,2,.3.8.5,1.8.5,2.8s-.2,2-.5,2.8c-.3.8-.9,1.5-1.5,2-.7.5-1.5.7-2.5.7ZM77.5,326.3c.5,0,1-.2,1.4-.5.4-.3.7-.8.9-1.3s.3-1.2.3-2-.1-1.4-.3-1.9-.5-1-.9-1.3c-.4-.3-.9-.5-1.4-.5s-1,.2-1.4.5c-.4.3-.7.8-.9,1.3-.2.6-.3,1.2-.3,2s.1,1.4.3,1.9c.2.6.5,1,.9,1.3.4.3.9.5,1.4.5Z" style="fill:#fff; stroke-width:0px;"/><path d="M87.6,328.1c-1,0-1.8-.2-2.5-.7s-1.2-1.2-1.5-2c-.3-.8-.5-1.8-.5-2.8s.2-2,.5-2.8c.4-.8.9-1.5,1.6-2,.7-.5,1.5-.7,2.4-.7s1.9.3,2.6.8c.7.5,1.2,1.2,1.5,2,.3.8.5,1.8.5,2.8s-.2,2-.5,2.8c-.3.8-.9,1.5-1.5,2-.7.5-1.5.7-2.5.7ZM87.6,326.3c.5,0,1-.2,1.4-.5.4-.3.7-.8.9-1.3s.3-1.2.3-2-.1-1.4-.3-1.9-.5-1-.9-1.3c-.4-.3-.9-.5-1.4-.5s-1,.2-1.4.5c-.4.3-.7.8-.9,1.3-.2.6-.3,1.2-.3,2s.1,1.4.3,1.9c.2.6.5,1,.9,1.3.4.3.9.5,1.4.5Z" style="fill:#fff; stroke-width:0px;"/><path d="M97.9,317.2h1.9v10.6h-1.9v-10.6Z" style="fill:#fff; stroke-width:0px;"/><path d="M107.3,328.1c-1,0-2-.2-2.9-.7-.9-.5-1.6-1.2-2.1-2s-.8-1.8-.8-2.8.3-1.9.8-2.8c.5-.8,1.2-1.5,2.1-2,.9-.5,1.8-.7,2.9-.7s2,.2,2.9.7c.9.5,1.6,1.2,2.1,2,.5.8.8,1.8.8,2.8s-.3,1.9-.8,2.8-1.2,1.5-2.1,2c-.9.5-1.8.7-2.9.7ZM107.3,326.3c.7,0,1.3-.2,1.9-.5.6-.3,1-.8,1.4-1.3.3-.6.5-1.2.5-1.9s-.2-1.4-.5-1.9c-.3-.6-.8-1-1.4-1.4s-1.2-.5-1.9-.5-1.3.2-1.9.5-1,.8-1.4,1.4c-.3.6-.5,1.2-.5,1.9s.2,1.3.5,1.9.8,1,1.4,1.3,1.2.5,1.9.5ZM109,327.3l1.7-.8,1.9,2.7-1.8,1-1.8-2.9Z" style="fill:#fff; stroke-width:0px;"/><path d="M115,317.2h4.1c1.1,0,2.1.2,3,.7.9.4,1.5,1.1,2,1.9.5.8.7,1.7.7,2.8s-.2,2-.7,2.8-1.1,1.4-2,1.9c-.9.4-1.8.7-2.9.7h-4.1v-10.6ZM119.1,326.1c.8,0,1.4-.1,2-.4.6-.3,1-.7,1.3-1.2.3-.5.4-1.2.4-1.9s-.1-1.4-.4-1.9c-.3-.5-.7-1-1.3-1.3-.6-.3-1.2-.4-2-.4h-2.1v7.2h2.1Z" style="fill:#fff; stroke-width:0px;"/><path d="M55,411.6h-5.3v-1.4c-.1,0,5.1-7,5.1-7h2.2v6.8h1.7v1.6h-1.7v2.3h-1.9v-2.3ZM55,410v-4.4l-3.3,4.4h3.3Z" style="fill:#fff; stroke-width:0px;"/><path d="M60.4,412.2h1.8l-1.4,3.2h-1.4l.9-3.2Z" style="fill:#fff; stroke-width:0px;"/><path d="M67.6,414.1c-.7,0-1.3-.1-1.8-.4s-1.1-.6-1.5-1.2-.6-1.2-.7-2.1h1.9c0,.4.2.8.4,1s.5.5.8.6.6.2.9.2.7,0,1-.3.5-.4.7-.7c.2-.3.2-.6.2-1s0-.7-.3-1c-.2-.3-.5-.5-.8-.6-.3-.1-.8-.2-1.2-.2h-2.1s-.8-.7-.8-.7l.6-4.7h5.9v1.6h-4.2l-.3,2.4h1.5c.8,0,1.4.1,2,.4.6.3,1,.6,1.3,1.1.3.5.5,1,.5,1.7s-.2,1.3-.5,1.8c-.3.6-.8,1-1.4,1.4s-1.3.5-2.1.5Z" style="fill:#fff; stroke-width:0px;"/><path d="M77.1,414.1c-1,0-1.8-.2-2.5-.7s-1.2-1.2-1.5-2c-.3-.8-.5-1.8-.5-2.8s.2-2,.5-2.8c.4-.8.9-1.5,1.6-2,.7-.5,1.5-.7,2.4-.7s1.9.3,2.6.8c.7.5,1.2,1.2,1.5,2,.3.8.5,1.8.5,2.8s-.2,2-.5,2.8c-.3.8-.9,1.5-1.5,2-.7.5-1.5.7-2.5.7ZM77.1,412.4c.5,0,1-.2,1.4-.5.4-.3.7-.8.9-1.3s.3-1.2.3-2-.1-1.4-.3-1.9-.5-1-.9-1.3c-.4-.3-.9-.5-1.4-.5s-1,.2-1.4.5c-.4.3-.7.8-.9,1.3-.2.6-.3,1.2-.3,2s.1,1.4.3,1.9c.2.6.5,1,.9,1.3.4.3.9.5,1.4.5Z" style="fill:#fff; stroke-width:0px;"/><path d="M87.3,414.1c-1,0-1.8-.2-2.5-.7s-1.2-1.2-1.5-2c-.3-.8-.5-1.8-.5-2.8s.2-2,.5-2.8c.4-.8.9-1.5,1.6-2,.7-.5,1.5-.7,2.4-.7s1.9.3,2.6.8c.7.5,1.2,1.2,1.5,2,.3.8.5,1.8.5,2.8s-.2,2-.5,2.8c-.3.8-.9,1.5-1.5,2-.7.5-1.5.7-2.5.7ZM87.3,412.4c.5,0,1-.2,1.4-.5.4-.3.7-.8.9-1.3s.3-1.2.3-2-.1-1.4-.3-1.9-.5-1-.9-1.3c-.4-.3-.9-.5-1.4-.5s-1,.2-1.4.5c-.4.3-.7.8-.9,1.3-.2.6-.3,1.2-.3,2s.1,1.4.3,1.9c.2.6.5,1,.9,1.3.4.3.9.5,1.4.5Z" style="fill:#fff; stroke-width:0px;"/><path d="M97.5,403.3h1.9v10.6h-1.9v-10.6Z" style="fill:#fff; stroke-width:0px;"/><path d="M106.9,414.1c-1,0-2-.2-2.9-.7-.9-.5-1.6-1.2-2.1-2s-.8-1.8-.8-2.8.3-1.9.8-2.8c.5-.8,1.2-1.5,2.1-2,.9-.5,1.8-.7,2.9-.7s2,.2,2.9.7c.9.5,1.6,1.2,2.1,2,.5.8.8,1.8.8,2.8s-.3,1.9-.8,2.8-1.2,1.5-2.1,2c-.9.5-1.8.7-2.9.7ZM106.9,412.3c.7,0,1.3-.2,1.9-.5.6-.3,1-.8,1.4-1.3.3-.6.5-1.2.5-1.9s-.2-1.4-.5-1.9c-.3-.6-.8-1-1.4-1.4s-1.2-.5-1.9-.5-1.3.2-1.9.5-1,.8-1.4,1.4c-.3.6-.5,1.2-.5,1.9s.2,1.3.5,1.9.8,1,1.4,1.3,1.2.5,1.9.5ZM108.6,413.4l1.7-.8,1.9,2.7-1.8,1-1.8-2.9Z" style="fill:#fff; stroke-width:0px;"/><path d="M114.6,403.3h4.1c1.1,0,2.1.2,3,.7.9.4,1.5,1.1,2,1.9.5.8.7,1.7.7,2.8s-.2,2-.7,2.8-1.1,1.4-2,1.9c-.9.4-1.8.7-2.9.7h-4.1v-10.6ZM118.7,412.2c.8,0,1.4-.1,2-.4.6-.3,1-.7,1.3-1.2.3-.5.4-1.2.4-1.9s-.1-1.4-.4-1.9c-.3-.5-.7-1-1.3-1.3-.6-.3-1.2-.4-2-.4h-2.1v7.2h2.1Z" style="fill:#fff; stroke-width:0px;"/><path d="M54.5,504.7h-5.3v-1.4c-.1,0,5.1-7,5.1-7h2.2v6.8h1.7v1.6h-1.7v2.3h-1.9v-2.3ZM54.5,503.1v-4.4l-3.3,4.4h3.3Z" style="fill:#fff; stroke-width:0px;"/><path d="M59.9,505.2h1.8l-1.4,3.2h-1.4l.9-3.2Z" style="fill:#fff; stroke-width:0px;"/><path d="M67.5,507.2c-1,0-1.8-.2-2.5-.7s-1.2-1.2-1.5-2-.5-1.8-.5-2.8.2-2,.5-2.8.9-1.5,1.6-2c.7-.5,1.5-.7,2.4-.7s1.9.3,2.6.8c.7.5,1.2,1.2,1.5,2s.5,1.8.5,2.8-.2,2-.5,2.8-.9,1.5-1.5,2-1.5.7-2.5.7ZM67.5,505.4c.5,0,1-.2,1.4-.5s.7-.8.9-1.3.3-1.2.3-2-.1-1.4-.3-1.9-.5-1-.9-1.3-.9-.5-1.4-.5-1,.2-1.4.5-.7.8-.9,1.3-.3,1.2-.3,2,.1,1.4.3,1.9.5,1,.9,1.3.9.5,1.4.5Z" style="fill:#fff; stroke-width:0px;"/><path d="M77.6,507.2c-1,0-1.8-.2-2.5-.7s-1.2-1.2-1.5-2-.5-1.8-.5-2.8.2-2,.5-2.8.9-1.5,1.6-2c.7-.5,1.5-.7,2.4-.7s1.9.3,2.6.8c.7.5,1.2,1.2,1.5,2s.5,1.8.5,2.8-.2,2-.5,2.8-.9,1.5-1.5,2-1.5.7-2.5.7ZM77.6,505.4c.5,0,1-.2,1.4-.5s.7-.8.9-1.3.3-1.2.3-2-.1-1.4-.3-1.9-.5-1-.9-1.3-.9-.5-1.4-.5-1,.2-1.4.5-.7.8-.9,1.3-.3,1.2-.3,2,.1,1.4.3,1.9.5,1,.9,1.3.9.5,1.4.5Z" style="fill:#fff; stroke-width:0px;"/><path d="M87.8,507.2c-1,0-1.8-.2-2.5-.7s-1.2-1.2-1.5-2-.5-1.8-.5-2.8.2-2,.5-2.8.9-1.5,1.6-2c.7-.5,1.5-.7,2.4-.7s1.9.3,2.6.8c.7.5,1.2,1.2,1.5,2s.5,1.8.5,2.8-.2,2-.5,2.8-.9,1.5-1.5,2-1.5.7-2.5.7ZM87.8,505.4c.5,0,1-.2,1.4-.5s.7-.8.9-1.3.3-1.2.3-2-.1-1.4-.3-1.9-.5-1-.9-1.3-.9-.5-1.4-.5-1,.2-1.4.5-.7.8-.9,1.3-.3,1.2-.3,2,.1,1.4.3,1.9.5,1,.9,1.3.9.5,1.4.5Z" style="fill:#fff; stroke-width:0px;"/><path d="M98,496.3h1.9v10.6h-1.9v-10.6Z" style="fill:#fff; stroke-width:0px;"/><path d="M107.5,507.2c-1,0-2-.2-2.9-.7s-1.6-1.2-2.1-2-.8-1.8-.8-2.8.3-1.9.8-2.8,1.2-1.5,2.1-2c.9-.5,1.8-.7,2.9-.7s2,.2,2.9.7c.9.5,1.6,1.2,2.1,2s.8,1.8.8,2.8-.3,1.9-.8,2.8-1.2,1.5-2.1,2-1.8.7-2.9.7ZM107.5,505.4c.7,0,1.3-.2,1.9-.5s1-.8,1.4-1.3.5-1.2.5-1.9-.2-1.4-.5-1.9-.8-1-1.4-1.4-1.2-.5-1.9-.5-1.3.2-1.9.5-1,.8-1.4,1.4-.5,1.2-.5,1.9.2,1.3.5,1.9.8,1,1.4,1.3,1.2.5,1.9.5ZM109.1,506.4l1.7-.8,1.9,2.7-1.8,1-1.8-2.9Z" style="fill:#fff; stroke-width:0px;"/><path d="M115.1,496.3h4.1c1.1,0,2.1.2,3,.7s1.5,1.1,2,1.9.7,1.7.7,2.8-.2,2-.7,2.8-1.1,1.4-2,1.9-1.8.7-2.9.7h-4.1v-10.6ZM119.2,505.2c.8,0,1.4-.1,2-.4s1-.7,1.3-1.2.4-1.2.4-1.9-.1-1.4-.4-1.9-.7-1-1.3-1.3-1.2-.4-2-.4h-2.1v7.2h2.1Z" style="fill:#fff; stroke-width:0px;"/><rect x="162.9" y="228.9" width="245.1" height=".8" style="fill:#fff; stroke-width:0px;"/><rect x="162.9" y="323.3" width="245.1" height=".8" style="fill:#fff; stroke-width:0px;"/><rect x="162.9" y="409.9" width="245.1" height=".8" style="fill:#fff; stroke-width:0px;"/><rect x="162.9" y="500.7" width="245.1" height=".8" style="fill:#fff; stroke-width:0px;"/><path d="M456,589.8v2.6c0,.1,0,.2-.2.2h-.9c-.3,2.8-3.2,3.9-7.5,3.9l-.3-2.3c3.1,0,4.6-.4,4.9-1.6h-1.5c-2.6,0-4.3-1.8-4.3-4.5s2-4.7,4.5-4.7,4.3,1.7,4.3,4.6v1.7h.9c.1,0,.2,0,.2.2ZM450.7,589.8c.4,0,.9,0,1.4,0v-1.6c0-1.2-.7-1.9-1.7-1.9s-1.7.7-1.7,1.7.9,1.8,2,1.8Z" style="fill:#fff; stroke-width:0px;"/><path d="M459.5,589.8v2.6c0,.1,0,.2-.2.2h-3.5c-.1,0-.2,0-.2-.2v-2.6c0-.1,0-.2.2-.2h3.5c.1,0,.2,0,.2.2Z" style="fill:#fff; stroke-width:0px;"/><path d="M463.1,589.8v2.6c0,.1,0,.2-.2.2h-3.5c-.1,0-.2,0-.2-.2v-2.6c0-.1,0-.2.2-.2h3.5c.1,0,.2,0,.2.2Z" style="fill:#fff; stroke-width:0px;"/><path d="M466.6,589.8v2.6c0,.1,0,.2-.2.2h-3.5c-.1,0-.2,0-.2-.2v-2.6c0-.1,0-.2.2-.2h3.5c.1,0,.2,0,.2.2Z" style="fill:#fff; stroke-width:0px;"/><path d="M470.1,589.8v2.6c0,.1,0,.2-.2.2h-3.5c-.1,0-.2,0-.2-.2v-2.6c0-.1,0-.2.2-.2h3.5c.1,0,.2,0,.2.2Z" style="fill:#fff; stroke-width:0px;"/><path d="M473.7,589.8v2.6c0,.1,0,.2-.2.2h-3.5c-.1,0-.2,0-.2-.2v-2.6c0-.1,0-.2.2-.2h3.5c.1,0,.2,0,.2.2Z" style="fill:#fff; stroke-width:0px;"/><path d="M477.2,589.8v2.6c0,.1,0,.2-.2.2h-3.5c-.1,0-.2,0-.2-.2v-2.6c0-.1,0-.2.2-.2h3.5c.1,0,.2,0,.2.2Z" style="fill:#fff; stroke-width:0px;"/><path d="M480.8,589.8v2.6c0,.1,0,.2-.2.2h-3.5c-.1,0-.2,0-.2-.2v-2.6c0-.1,0-.2.2-.2h3.5c.1,0,.2,0,.2.2Z" style="fill:#fff; stroke-width:0px;"/><path d="M484.3,589.8v2.6c0,.1,0,.2-.2.2h-3.5c-.1,0-.2,0-.2-.2v-2.6c0-.1,0-.2.2-.2h3.5c.1,0,.2,0,.2.2Z" style="fill:#fff; stroke-width:0px;"/><path d="M487.9,589.8v2.6c0,.1,0,.2-.2.2h-3.5c-.1,0-.2,0-.2-.2v-2.6c0-.1,0-.2.2-.2h3.5c.1,0,.2,0,.2.2Z" style="fill:#fff; stroke-width:0px;"/><path d="M491.4,589.8v2.6c0,.1,0,.2-.2.2h-3.5c-.1,0-.2,0-.2-.2v-2.6c0-.1,0-.2.2-.2h3.5c.1,0,.2,0,.2.2Z" style="fill:#fff; stroke-width:0px;"/><path d="M494.9,589.8v2.6c0,.1,0,.2-.2.2h-3.5c-.1,0-.2,0-.2-.2v-2.6c0-.1,0-.2.2-.2h3.5c.1,0,.2,0,.2.2Z" style="fill:#fff; stroke-width:0px;"/><path d="M498.5,589.8v2.6c0,.1,0,.2-.2.2h-3.5c-.1,0-.2,0-.2-.2v-2.6c0-.1,0-.2.2-.2h3.5c.1,0,.2,0,.2.2Z" style="fill:#fff; stroke-width:0px;"/><path d="M502,589.8v2.6c0,.1,0,.2-.2.2h-3.5c-.1,0-.2,0-.2-.2v-2.6c0-.1,0-.2.2-.2h3.5c.1,0,.2,0,.2.2Z" style="fill:#fff; stroke-width:0px;"/><path d="M505.6,589.8v2.6c0,.1,0,.2-.2.2h-3.5c-.1,0-.2,0-.2-.2v-2.6c0-.1,0-.2.2-.2h3.5c.1,0,.2,0,.2.2Z" style="fill:#fff; stroke-width:0px;"/><path d="M509.1,589.8v2.6c0,.1,0,.2-.2.2h-3.5c-.1,0-.2,0-.2-.2v-2.6c0-.1,0-.2.2-.2h3.5c.1,0,.2,0,.2.2Z" style="fill:#fff; stroke-width:0px;"/><path d="M512.7,589.8v2.6c0,.1,0,.2-.2.2h-3.5c-.1,0-.2,0-.2-.2v-2.6c0-.1,0-.2.2-.2h3.5c.1,0,.2,0,.2.2Z" style="fill:#fff; stroke-width:0px;"/><path d="M516.2,589.8v2.6c0,.1,0,.2-.2.2h-3.5c-.1,0-.2,0-.2-.2v-2.6c0-.1,0-.2.2-.2h3.5c.1,0,.2,0,.2.2Z" style="fill:#fff; stroke-width:0px;"/><path d="M519.8,589.8v2.6c0,.1,0,.2-.2.2h-3.5c-.1,0-.2,0-.2-.2v-2.6c0-.1,0-.2.2-.2h3.5c.1,0,.2,0,.2.2Z" style="fill:#fff; stroke-width:0px;"/><path d="M523.8,597.3l-1.3-1.3-1.3,1.3-1.9-1.9,1.9-1.9,1.3,1.3,1.3-1.3,1.9,1.9-1.9,1.9ZM519.4,592.5v-2.6c0-.1.1-.2.2-.2h1.5c1,0,1.5-.6,1.5-1.9v-4s2.8-.3,2.8-.3v5.4c0,2.5-1.4,3.8-4.4,3.8h-1.5c-.1,0-.2,0-.2-.2Z" style="fill:#fff; stroke-width:0px;"/><path d="M526.1,594.3c1.5,0,2.6-.6,2.6-2.2v-8.4s2.8-.3,2.8-.3v8.8c0,3.2-1.7,4.3-5.2,4.3l-.2-2.3Z" style="fill:#fff; stroke-width:0px;"/><path d="M541.7,588v4.3c0,3.2-3.1,4.3-7.5,4.3l-.3-2.3c3.4,0,4.9-.5,5-2-.6.2-1.1.4-1.7.4-2.5,0-4.2-1.8-4.2-4.5s2-4.7,4.5-4.7,4.3,1.7,4.3,4.6ZM537.5,589.8c.4,0,.9,0,1.4-.2v-1.5c0-1.2-.7-1.9-1.7-1.9s-1.7.7-1.7,1.7.8,1.8,1.9,1.8Z" style="fill:#fff; stroke-width:0px;"/><path d="M543.8,579.7l2.8-.3v13.3h-2.8v-13Z" style="fill:#fff; stroke-width:0px;"/><path d="M503.1,621.7c-.9-.4-1.5-1-2-1.9s-.7-1.8-.7-2.9.2-2.1.7-3,1.1-1.5,2-1.9c.9-.4,1.9-.7,3.1-.7s2.3.2,3.1.7c.9.4,1.5,1.1,2,1.9s.7,1.8.7,3-.2,2.1-.7,2.9-1.1,1.4-2,1.9c-.9.4-1.9.6-3.1.6s-2.3-.2-3.1-.6ZM503.2,619.8c.7.7,1.7,1,3,1s2.3-.3,3-1c.7-.7,1.1-1.7,1.1-2.9s-.4-2.3-1.1-3c-.7-.7-1.7-1.1-3-1.1s-2.3.4-3,1.1-1.1,1.7-1.1,3,.4,2.2,1.1,2.9Z" style="fill:#ee304c; stroke-width:0px;"/><path d="M513.7,611.6h4.6c1.4,0,2.4.3,3.2.8.8.6,1.1,1.3,1.1,2.4s-.3,1.7-1,2.2c-.7.5-1.6.9-2.8.9l4,4.2h-2l-5.1-5.3h2.4c.8,0,1.4-.2,1.9-.5.4-.3.7-.8.7-1.5s-.2-1.1-.7-1.5c-.4-.3-1.1-.5-1.9-.5h-2.8v9.2h-1.7v-10.5Z" style="fill:#ee304c; stroke-width:0px;"/><path d="M532.5,611.6v1.4h-6.6v3.2h5.4v1.2h-5.4v3.3h6.8v1.4h-8.5v-10.5h8.3Z" style="fill:#ee304c; stroke-width:0px;"/><path d="M536.3,621.7c-.9-.4-1.5-1-2-1.9s-.7-1.8-.7-2.9.2-2.1.7-3,1.1-1.5,2-1.9c.9-.4,1.9-.7,3.1-.7s2.3.2,3.1.7c.9.4,1.5,1.1,2,1.9s.7,1.8.7,3-.2,2.1-.7,2.9-1.1,1.4-2,1.9c-.9.4-1.9.6-3.1.6s-2.3-.2-3.1-.6ZM536.5,619.8c.7.7,1.7,1,3,1s2.3-.3,3-1c.7-.7,1.1-1.7,1.1-2.9s-.4-2.3-1.1-3c-.7-.7-1.7-1.1-3-1.1s-2.3.4-3,1.1-1.1,1.7-1.1,3,.4,2.2,1.1,2.9Z" style="fill:#ee304c; stroke-width:0px;"/><path d="M54.5,588.8h-5.3v-1.4c-.1,0,5.1-7,5.1-7h2.2v6.8h1.7v1.6h-1.7v2.3h-1.9v-2.3ZM54.5,587.2v-4.4l-3.3,4.4h3.3Z" style="fill:#fff; stroke-width:0px;"/><path d="M59.9,589.3h1.8l-1.4,3.2h-1.4l.9-3.2Z" style="fill:#fff; stroke-width:0px;"/><path d="M67.5,591.3c-1,0-1.8-.2-2.5-.7s-1.2-1.2-1.5-2-.5-1.8-.5-2.8.2-2,.5-2.8.9-1.5,1.6-2,1.5-.7,2.4-.7,1.9.3,2.6.8,1.2,1.2,1.5,2,.5,1.8.5,2.8-.2,2-.5,2.8-.9,1.5-1.5,2-1.5.7-2.5.7ZM67.5,589.5c.5,0,1-.2,1.4-.5s.7-.8.9-1.3.3-1.2.3-2-.1-1.4-.3-1.9-.5-1-.9-1.3-.9-.5-1.4-.5-1,.2-1.4.5-.7.8-.9,1.3-.3,1.2-.3,2,.1,1.4.3,1.9.5,1,.9,1.3.9.5,1.4.5Z" style="fill:#fff; stroke-width:0px;"/><path d="M77.6,591.3c-1,0-1.8-.2-2.5-.7s-1.2-1.2-1.5-2-.5-1.8-.5-2.8.2-2,.5-2.8.9-1.5,1.6-2,1.5-.7,2.4-.7,1.9.3,2.6.8,1.2,1.2,1.5,2,.5,1.8.5,2.8-.2,2-.5,2.8-.9,1.5-1.5,2-1.5.7-2.5.7ZM77.6,589.5c.5,0,1-.2,1.4-.5s.7-.8.9-1.3.3-1.2.3-2-.1-1.4-.3-1.9-.5-1-.9-1.3-.9-.5-1.4-.5-1,.2-1.4.5-.7.8-.9,1.3-.3,1.2-.3,2,.1,1.4.3,1.9.5,1,.9,1.3.9.5,1.4.5Z" style="fill:#fff; stroke-width:0px;"/><path d="M87.8,591.3c-1,0-1.8-.2-2.5-.7s-1.2-1.2-1.5-2-.5-1.8-.5-2.8.2-2,.5-2.8.9-1.5,1.6-2,1.5-.7,2.4-.7,1.9.3,2.6.8,1.2,1.2,1.5,2,.5,1.8.5,2.8-.2,2-.5,2.8-.9,1.5-1.5,2-1.5.7-2.5.7ZM87.8,589.5c.5,0,1-.2,1.4-.5s.7-.8.9-1.3.3-1.2.3-2-.1-1.4-.3-1.9-.5-1-.9-1.3-.9-.5-1.4-.5-1,.2-1.4.5-.7.8-.9,1.3-.3,1.2-.3,2,.1,1.4.3,1.9.5,1,.9,1.3.9.5,1.4.5Z" style="fill:#fff; stroke-width:0px;"/><path d="M98,580.4h1.9v10.6h-1.9v-10.6Z" style="fill:#fff; stroke-width:0px;"/><path d="M107.5,591.3c-1,0-2-.2-2.9-.7s-1.6-1.2-2.1-2-.8-1.8-.8-2.8.3-1.9.8-2.8,1.2-1.5,2.1-2,1.8-.7,2.9-.7,2,.2,2.9.7,1.6,1.2,2.1,2,.8,1.8.8,2.8-.3,1.9-.8,2.8-1.2,1.5-2.1,2-1.8.7-2.9.7ZM107.5,589.5c.7,0,1.3-.2,1.9-.5s1-.8,1.4-1.3.5-1.2.5-1.9-.2-1.4-.5-1.9-.8-1-1.4-1.4-1.2-.5-1.9-.5-1.3.2-1.9.5-1,.8-1.4,1.4-.5,1.2-.5,1.9.2,1.3.5,1.9.8,1,1.4,1.3,1.2.5,1.9.5ZM109.1,590.5l1.7-.8,1.9,2.7-1.8,1-1.8-2.9Z" style="fill:#fff; stroke-width:0px;"/><path d="M115.1,580.4h4.1c1.1,0,2.1.2,3,.7s1.5,1.1,2,1.9.7,1.7.7,2.8-.2,2-.7,2.8-1.1,1.4-2,1.9-1.8.7-2.9.7h-4.1v-10.6ZM119.2,589.3c.8,0,1.4-.1,2-.4s1-.7,1.3-1.2.4-1.2.4-1.9-.1-1.4-.4-1.9-.7-1-1.3-1.3-1.2-.4-2-.4h-2.1v7.2h2.1Z" style="fill:#fff; stroke-width:0px;"/><rect x="162.9" y="587.1" width="245.1" height=".8" style="fill:#fff; stroke-width:0px;"/><rect x="44.9" y="101.4" width="246.2" height="54" style="fill:#ee304c; stroke-width:0px;"/><path d="M89.1,116.6h6.9l4.4,22.8h.2l4.1-22.8h10.7l4.2,22.8h.2l4.4-22.8h6.9l-5.3,23.4h-11.6l-4-22.8h-.1l-3.9,22.8h-11.6l-5.3-23.4Z" style="fill:#fff; stroke-width:0px;"/><path d="M136.1,116.6h12.6l7.8,23.4h-7.1l-1.4-4.7h-11.2l-1.4,4.7h-7.1l7.8-23.4ZM146.5,130.6l-4.1-13.5h-.1l-4.1,13.5h8.3Z" style="fill:#fff; stroke-width:0px;"/><path d="M158.1,116.6h19.9v5.3h-13.5v5.1h10.4v4.9h-10.4v8.1h-6.4v-23.4Z" style="fill:#fff; stroke-width:0px;"/><path d="M180.5,116.6h19.9v5.3h-13.5v5.1h10.4v4.9h-10.4v8.1h-6.4v-23.4Z" style="fill:#fff; stroke-width:0px;"/><path d="M209.3,116.6v18.2h13v5.2h-19.4v-23.4h6.4Z" style="fill:#fff; stroke-width:0px;"/><path d="M244.6,116.6v5.2h-13.8v4.2h10.6v4.5h-10.6v4.3h14.2v5.2h-20.7v-23.4h20.3Z" style="fill:#fff; stroke-width:0px;"/><polygon points="74 99.2 89.2 113.8 83.5 90.2 74 99.2" style="fill:#171a23; stroke-width:0px;"/><polygon points="514.8 99.2 499.5 113.8 505.3 90.2 514.8 99.2" style="fill:#171a23; stroke-width:0px;"/><polygon points="270.7 158.3 255.5 143.6 261.3 167.2 270.7 158.3" style="fill:#171a23; stroke-width:0px;"/><path d="M263.1,764.2h-3.5l-4.5-8.9h4.2l3.9,8.4h.1l4-8.4h4.2l-7,13.7h-3.7l2.3-4.8Z" style="fill:#fff; stroke-width:0px;"/><path d="M273.2,755.4h7.3l4.6,13.7h-4.1l-.8-2.8h-6.5l-.8,2.8h-4.1l4.6-13.7ZM279.3,763.6l-2.4-7.9h0l-2.4,7.9h4.9Z" style="fill:#fff; stroke-width:0px;"/><path d="M289.9,755.4v10.6h7.6v3h-11.4v-13.7h3.8Z" style="fill:#fff; stroke-width:0px;"/><path d="M302.4,755.4v10.6h7.6v3h-11.4v-13.7h3.8Z" style="fill:#fff; stroke-width:0px;"/><path d="M315.1,755.4h7.3l4.6,13.7h-4.1l-.8-2.8h-6.5l-.8,2.8h-4.1l4.6-13.7ZM321.2,763.6l-2.4-7.9h0l-2.4,7.9h4.9Z" style="fill:#fff; stroke-width:0px;"/><path d="M233,774.1l4.4,13.4h0v-13.4h3.7v13.7h-7.4l-4.4-13.5h0v13.5h-3.7v-13.7h7.4Z" style="fill:#fff; stroke-width:0px;"/><path d="M255,774.1v3h-8.1v2.5h6.2v2.6h-6.2v2.5h8.3v3h-12.1v-13.7h11.8Z" style="fill:#fff; stroke-width:0px;"/><path d="M264.1,780.9l-4,6.9h-4.3l4.6-7-4.3-6.7h4.3l3.8,6.5,3.8-6.5h4.3l-4.3,6.7,4.6,7h-4.3l-4-6.9Z" style="fill:#fff; stroke-width:0px;"/><path d="M277.2,777.1h-4.6v-3h12.9v3h-4.6v10.6h-3.8v-10.6Z" style="fill:#fff; stroke-width:0px;"/><path d="M294.4,774.1v10.6h7.6v3h-11.4v-13.7h3.8Z" style="fill:#fff; stroke-width:0px;"/><path d="M315,774.1v3h-8.1v2.5h6.2v2.6h-6.2v2.5h8.3v3h-12.1v-13.7h11.8Z" style="fill:#fff; stroke-width:0px;"/><path d="M327.5,787.7h-7.6l-4.4-13.7h4.1l4.1,13.4h0l4-13.4h4.1l-4.4,13.7Z" style="fill:#fff; stroke-width:0px;"/><path d="M344.8,774.1v3h-8.1v2.5h6.2v2.6h-6.2v2.5h8.3v3h-12.1v-13.7h11.8Z" style="fill:#fff; stroke-width:0px;"/><path d="M350,774.1v10.6h7.6v3h-11.4v-13.7h3.8Z" style="fill:#fff; stroke-width:0px;"/><path d="M329.7,756.1h-1.3v-.7h3.5v.7h-1.3v3.8h-.8v-3.8Z" style="fill:#fff; stroke-width:0px;"/><path d="M332.5,755.4h.7l1.5,2.1h0s1.6-2.1,1.6-2.1h.7v4.5h-.8v-3.2l-1.3,1.8h-.2l-1.3-1.8v3.2h-.8v-4.5Z" style="fill:#fff; stroke-width:0px;"/></svg>