<?xml version="1.0" encoding="UTF-8"?><svg id="Layer_1" xmlns="http://www.w3.org/2000/svg" viewBox="0 0 595.3 841.9"><rect x="-5952.8" y="-1.4" width="7740.4" height="845.9" style="fill:#171a23; stroke-width:0px;"/><path d="M498.4,228.8v2.6c0,.1,0,.2-.2.2-1,0-1.8-.3-2.5-.9-.6.6-1.6.9-2.8.9s-2-.3-3-1c-.7.7-1.7,1-2.9,1s-1.5-.2-2.2-.7c-.3,2.9-2.3,4.6-5.6,4.6s-5.5-1.6-5.5-4.9.3-2.6.8-4.3l2.3.6c-.3,1-.5,1.9-.5,2.8,0,1.8,1,2.7,2.9,2.7s2.8-1,2.8-3v-6.8l2.8-.3v5.8c.6.3,1.2.5,1.8.5,1,0,1.5-.6,1.5-1.9v-2.2s2.8-.3,2.8-.3v3.6c0,.2,0,.4,0,.6.5.1.9.2,1.4.2,1,0,1.5-.6,1.5-1.9v-4l2.8-.3v5.4c0,.2,0,.4,0,.5.4.2.9.3,1.4.3s.2,0,.2.2Z" style="fill:#fff; stroke-width:0px;"/><path d="M508.4,227.3c0,2.7-1.7,4.3-4.5,4.3h-5.7c-.1,0-.2,0-.2-.2v-2.6c0-.1,0-.2.2-.2h5.7c1,0,1.6-.5,1.6-1.3s-.6-1.3-1.6-1.3h-4.1l-1.5-2.6,5.2-6.4,2.5,1.4-4.8,5h2.5c2.8,0,4.6,1.5,4.6,3.9Z" style="fill:#fff; stroke-width:0px;"/><path d="M519.4,228.8v2.6c0,.1,0,.2-.2.2h-.9c-.3,2.8-3.2,3.9-7.5,3.9l-.3-2.3c3.1,0,4.6-.4,4.9-1.6h-1.5c-2.6,0-4.3-1.8-4.3-4.5s2-4.7,4.5-4.7,4.3,1.7,4.3,4.6v1.7h.9c.1,0,.2,0,.2.2ZM514.1,228.8c.4,0,.9,0,1.4,0v-1.6c0-1.2-.7-1.9-1.7-1.9s-1.7.7-1.7,1.7.9,1.8,2,1.8Z" style="fill:#fff; stroke-width:0px;"/><path d="M522.9,228.8v2.6c0,.1,0,.2-.2.2h-3.5c-.1,0-.2,0-.2-.2v-2.6c0-.1,0-.2.2-.2h3.5c.1,0,.2,0,.2.2Z" style="fill:#fff; stroke-width:0px;"/><path d="M526.5,228.8v2.6c0,.1,0,.2-.2.2h-3.5c-.1,0-.2,0-.2-.2v-2.6c0-.1,0-.2.2-.2h3.5c.1,0,.2,0,.2.2Z" style="fill:#fff; stroke-width:0px;"/><path d="M530,228.8v2.6c0,.1,0,.2-.2.2h-3.5c-.1,0-.2,0-.2-.2v-2.6c0-.1,0-.2.2-.2h3.5c.1,0,.2,0,.2.2Z" style="fill:#fff; stroke-width:0px;"/><path d="M533.5,228.8v2.6c0,.1,0,.2-.2.2h-3.5c-.1,0-.2,0-.2-.2v-2.6c0-.1,0-.2.2-.2h3.5c.1,0,.2,0,.2.2Z" style="fill:#fff; stroke-width:0px;"/><path d="M537.1,228.8v2.6c0,.1,0,.2-.2.2h-3.5c-.1,0-.2,0-.2-.2v-2.6c0-.1,0-.2.2-.2h3.5c.1,0,.2,0,.2.2Z" style="fill:#fff; stroke-width:0px;"/><path d="M540.6,228.8v2.6c0,.1,0,.2-.2.2h-3.5c-.1,0-.2,0-.2-.2v-2.6c0-.1,0-.2.2-.2h3.5c.1,0,.2,0,.2.2Z" style="fill:#fff; stroke-width:0px;"/><path d="M544.2,228.8v2.6c0,.1,0,.2-.2.2h-3.5c-.1,0-.2,0-.2-.2v-2.6c0-.1,0-.2.2-.2h3.5c.1,0,.2,0,.2.2Z" style="fill:#fff; stroke-width:0px;"/><path d="M547.1,222.7l2.8-.3v5.4c0,2.5-1.4,3.8-4.4,3.8h-1.5c-.1,0-.2,0-.2-.2v-2.6c0-.1.1-.2.2-.2h1.5c1,0,1.5-.6,1.5-1.9v-4ZM547,221.3l-1.9-1.9,1.9-1.9,1.4,1.4,1.4-1.4,1.9,1.9-1.9,1.9-1.4-1.4-1.4,1.4Z" style="fill:#fff; stroke-width:0px;"/><path d="M509.7,250.5h-3.7v-1.4h9.2v1.4h-3.8v9.1h-1.7v-9.1Z" style="fill:#ee304c; stroke-width:0px;"/><path d="M515.4,249.1h1.8l3,10.3h0l2.9-10.3h2.8l2.9,10.3h0l3-10.3h1.8l-3.2,10.5h-3.1l-2.9-10.3h0l-2.8,10.3h-3.1l-3.2-10.5Z" style="fill:#ee304c; stroke-width:0px;"/><path d="M536.5,249.1v10.5h-1.7v-10.5h1.7Z" style="fill:#ee304c; stroke-width:0px;"/><path d="M543.4,254.3l-3.8,5.3h-2l4-5.4-3.8-5.1h2l3.5,5,3.5-5h2l-3.8,5.1,4,5.4h-2l-3.8-5.3Z" style="fill:#ee304c; stroke-width:0px;"/><path d="M498.5,318.3v5.4c0,2.5-1.3,3.8-3.8,3.8s-2-.3-3-1c-.7.7-1.7,1-2.9,1s-1.5-.2-2.2-.7c-.3,2.9-2.3,4.6-5.6,4.6s-5.5-1.6-5.5-4.9.3-2.6.8-4.3l2.3.6c-.3,1-.5,1.9-.5,2.8,0,1.8,1,2.7,2.9,2.7s2.8-1,2.8-3v-6.8l2.8-.3v5.8c.6.3,1.2.5,1.8.5,1,0,1.5-.6,1.5-1.9v-2.2s2.8-.3,2.8-.3v3.6c0,.2,0,.4,0,.6.5.1.9.2,1.4.2,1,0,1.5-.6,1.5-1.9v-4l2.8-.3Z" style="fill:#fff; stroke-width:0px;"/><path d="M499.1,329.2c1.5,0,2.6-.6,2.6-2.2v-8.4s2.8-.3,2.8-.3v8.8c0,3.2-1.7,4.3-5.2,4.3l-.2-2.3Z" style="fill:#fff; stroke-width:0px;"/><path d="M506.8,323.7v-9.1s2.8-.3,2.8-.3v8.4c0,1.3.5,1.9,1.5,1.9s.2,0,.2.2v2.6c0,.1,0,.2-.2.2-2.9,0-4.4-1.3-4.4-3.9Z" style="fill:#fff; stroke-width:0px;"/><path d="M514.9,324.8v2.6c0,.1,0,.2-.2.2h-3.5c-.1,0-.2,0-.2-.2v-2.6c0-.1,0-.2.2-.2h3.5c.1,0,.2,0,.2.2Z" style="fill:#fff; stroke-width:0px;"/><path d="M518.5,324.8v2.6c0,.1,0,.2-.2.2h-3.5c-.1,0-.2,0-.2-.2v-2.6c0-.1,0-.2.2-.2h3.5c.1,0,.2,0,.2.2Z" style="fill:#fff; stroke-width:0px;"/><path d="M522,324.8v2.6c0,.1,0,.2-.2.2h-3.5c-.1,0-.2,0-.2-.2v-2.6c0-.1,0-.2.2-.2h3.5c.1,0,.2,0,.2.2Z" style="fill:#fff; stroke-width:0px;"/><path d="M525.6,324.8v2.6c0,.1,0,.2-.2.2h-3.5c-.1,0-.2,0-.2-.2v-2.6c0-.1,0-.2.2-.2h3.5c.1,0,.2,0,.2.2Z" style="fill:#fff; stroke-width:0px;"/><path d="M529.1,324.8v2.6c0,.1,0,.2-.2.2h-3.5c-.1,0-.2,0-.2-.2v-2.6c0-.1,0-.2.2-.2h3.5c.1,0,.2,0,.2.2Z" style="fill:#fff; stroke-width:0px;"/><path d="M532.6,324.8v2.6c0,.1,0,.2-.2.2h-3.5c-.1,0-.2,0-.2-.2v-2.6c0-.1,0-.2.2-.2h3.5c.1,0,.2,0,.2.2Z" style="fill:#fff; stroke-width:0px;"/><path d="M536.2,324.8v2.6c0,.1,0,.2-.2.2h-3.5c-.1,0-.2,0-.2-.2v-2.6c0-.1,0-.2.2-.2h3.5c.1,0,.2,0,.2.2Z" style="fill:#fff; stroke-width:0px;"/><path d="M539.7,324.8v2.6c0,.1,0,.2-.2.2h-3.5c-.1,0-.2,0-.2-.2v-2.6c0-.1,0-.2.2-.2h3.5c.1,0,.2,0,.2.2Z" style="fill:#fff; stroke-width:0px;"/><path d="M549,322.6c0,3-2,5-5.2,5h-4.2c-.1,0-.2,0-.2-.2v-2.6c0-.1,0-.2.2-.2h1.1c-.3-.7-.5-1.4-.5-2.1,0-2.5,1.9-4.3,4.3-4.3s4.5,1.9,4.5,4.4ZM546.1,322.6c0-1-.7-1.7-1.7-1.7s-1.8.8-1.8,1.8.2,1.2.5,1.9h.6c1.5,0,2.4-.8,2.4-2Z" style="fill:#fff; stroke-width:0px;"/><path d="M505,345.2h0v10h-1.7v-10.5h3.2l3.5,10.3h0l3.5-10.3h3.2v10.5h-1.7v-10h0l-3.5,10h-2.9l-3.5-10Z" style="fill:#ee304c; stroke-width:0px;"/><path d="M521.9,344.7h3.3l4.3,10.5h-1.9l-1-2.5h-6.1l-1,2.5h-1.9l4.3-10.5ZM526.2,351.4l-2.6-6.5h0l-2.5,6.5h5.1Z" style="fill:#ee304c; stroke-width:0px;"/><path d="M530.5,344.7h4.6c1.4,0,2.4.3,3.2.8.8.6,1.1,1.3,1.1,2.4s-.3,1.7-1,2.2c-.7.5-1.6.9-2.8.9l4,4.2h-2l-5.1-5.3h2.4c.8,0,1.4-.2,1.9-.5.4-.3.7-.8.7-1.5s-.2-1.1-.7-1.5c-.4-.3-1.1-.5-1.9-.5h-2.8v9.2h-1.7v-10.5Z" style="fill:#ee304c; stroke-width:0px;"/><path d="M547,346.2c-.7-.1-1.4-.2-2.1-.2s-1.5.1-1.9.4-.6.6-.6,1.1,0,.6.3.8c.2.2.5.4.9.5.4.1.9.3,1.6.5,1,.2,1.9.5,2.5.7.6.3,1.1.6,1.4,1,.3.4.5.9.5,1.5,0,1-.4,1.8-1.3,2.3-.9.5-2,.8-3.6.8s-3.2-.3-4.3-.8v-1.5c.7.2,1.3.5,2,.6.7.2,1.5.2,2.3.2s1.8-.1,2.3-.4c.5-.3.8-.7.8-1.2s-.1-.6-.3-.8-.5-.4-1-.6c-.4-.2-1-.3-1.8-.5-1-.2-1.7-.4-2.3-.7-.6-.2-1-.6-1.3-1-.3-.4-.5-.9-.5-1.4,0-.9.4-1.6,1.1-2.1.8-.5,1.8-.7,3.2-.7s2.8.2,3.9.7v1.5c-.6-.2-1.2-.4-1.9-.6Z" style="fill:#ee304c; stroke-width:0px;"/><path d="M491.7,420.3c0,.1,0,.2-.2.2-1.8,0-3-.5-3.7-1.4-1.4.9-2.9,1.4-4.9,1.4h-2.5c-3,0-4.5-1.4-4.5-4.1s0-1.8.3-3l2.4.3c-.1.9-.2,1.4-.2,1.8,0,1.4.8,2,2.6,2h1.8c2,0,3.3-.2,4.2-.7v-9.3s2.8-.3,2.8-.3v8.4c0,1.3.5,1.9,1.5,1.9s.2,0,.2.2v2.6ZM484.9,414.1h-4.3v-1.9h.9c-.2-.3-.3-.6-.3-1,0-1.2.9-1.9,2.1-1.9s.9.1,1.4.4v1.6c-.5-.2-.9-.3-1.2-.3-.5,0-.8.2-.8.6s0,.4.2.5h2.5l-.6,1.9Z" style="fill:#fff; stroke-width:0px;"/><path d="M497.7,420.3c0,.1,0,.2-.2.2-1.6,0-2.8-.4-3.5-1.2-.8.8-1.6,1.2-2.5,1.2s-.2,0-.2-.2v-2.6c0-.1,0-.2.2-.2.7,0,1.2-.2,1.6-.5,0-.1,0-.3,0-.4v-9.1s2.8-.3,2.8-.3v8.4c0,1.3.5,1.9,1.5,1.9s.2,0,.2.2v2.6Z" style="fill:#fff; stroke-width:0px;"/><path d="M501.2,417.7v2.6c0,.1,0,.2-.2.2h-3.5c-.1,0-.2,0-.2-.2v-2.6c0-.1,0-.2.2-.2h3.5c.1,0,.2,0,.2.2Z" style="fill:#fff; stroke-width:0px;"/><path d="M504.8,417.7v2.6c0,.1,0,.2-.2.2h-3.5c-.1,0-.2,0-.2-.2v-2.6c0-.1,0-.2.2-.2h3.5c.1,0,.2,0,.2.2Z" style="fill:#fff; stroke-width:0px;"/><path d="M508.3,417.7v2.6c0,.1,0,.2-.2.2h-3.5c-.1,0-.2,0-.2-.2v-2.6c0-.1,0-.2.2-.2h3.5c.1,0,.2,0,.2.2Z" style="fill:#fff; stroke-width:0px;"/><path d="M511.9,417.7v2.6c0,.1,0,.2-.2.2h-3.5c-.1,0-.2,0-.2-.2v-2.6c0-.1,0-.2.2-.2h3.5c.1,0,.2,0,.2.2Z" style="fill:#fff; stroke-width:0px;"/><path d="M515.4,417.7v2.6c0,.1,0,.2-.2.2h-3.5c-.1,0-.2,0-.2-.2v-2.6c0-.1,0-.2.2-.2h3.5c.1,0,.2,0,.2.2Z" style="fill:#fff; stroke-width:0px;"/><path d="M519,417.7v2.6c0,.1,0,.2-.2.2h-3.5c-.1,0-.2,0-.2-.2v-2.6c0-.1,0-.2.2-.2h3.5c.1,0,.2,0,.2.2Z" style="fill:#fff; stroke-width:0px;"/><path d="M522.5,417.7v2.6c0,.1,0,.2-.2.2h-3.5c-.1,0-.2,0-.2-.2v-2.6c0-.1,0-.2.2-.2h3.5c.1,0,.2,0,.2.2Z" style="fill:#fff; stroke-width:0px;"/><path d="M526,417.7v2.6c0,.1,0,.2-.2.2h-3.5c-.1,0-.2,0-.2-.2v-2.6c0-.1,0-.2.2-.2h3.5c.1,0,.2,0,.2.2Z" style="fill:#fff; stroke-width:0px;"/><path d="M529.6,417.7v2.6c0,.1,0,.2-.2.2h-3.5c-.1,0-.2,0-.2-.2v-2.6c0-.1,0-.2.2-.2h3.5c.1,0,.2,0,.2.2Z" style="fill:#fff; stroke-width:0px;"/><path d="M533.1,417.7v2.6c0,.1,0,.2-.2.2h-3.5c-.1,0-.2,0-.2-.2v-2.6c0-.1,0-.2.2-.2h3.5c.1,0,.2,0,.2.2Z" style="fill:#fff; stroke-width:0px;"/><path d="M536.7,417.7v2.6c0,.1,0,.2-.2.2h-3.5c-.1,0-.2,0-.2-.2v-2.6c0-.1,0-.2.2-.2h3.5c.1,0,.2,0,.2.2Z" style="fill:#fff; stroke-width:0px;"/><path d="M540.2,417.7v2.6c0,.1,0,.2-.2.2h-3.5c-.1,0-.2,0-.2-.2v-2.6c0-.1,0-.2.2-.2h3.5c.1,0,.2,0,.2.2Z" style="fill:#fff; stroke-width:0px;"/><path d="M549.5,415.5c0,3-2,5-5.2,5h-4.2c-.1,0-.2,0-.2-.2v-2.6c0-.1,0-.2.2-.2h1.1c-.3-.7-.5-1.4-.5-2.1,0-2.5,1.9-4.3,4.3-4.3s4.5,1.9,4.5,4.4ZM544.8,409.9l-1.9-1.9,1.9-1.9,1.9,1.9-1.9,1.9ZM546.6,415.5c0-1-.7-1.7-1.7-1.7s-1.8.8-1.8,1.8.2,1.2.5,1.9h.6c1.5,0,2.4-.8,2.4-2Z" style="fill:#fff; stroke-width:0px;"/><path d="M500.2,436.7h8.3v1.4h-6.6v3.5h5.2v1.3h-5.2v4.2h-1.7v-10.5Z" style="fill:#ee304c; stroke-width:0px;"/><path d="M511.7,436.7v9.1h6.2v1.4h-8v-10.5h1.7Z" style="fill:#ee304c; stroke-width:0px;"/><path d="M522.7,436.7h3.3l4.3,10.5h-1.9l-1-2.5h-6.1l-1,2.5h-1.9l4.3-10.5ZM527,443.4l-2.6-6.5h0l-2.5,6.5h5.1Z" style="fill:#ee304c; stroke-width:0px;"/><path d="M533.1,436.7v10.5h-1.7v-10.5h1.7ZM538.5,436.7h2.1l-5.2,4.9,5.3,5.6h-2l-5.3-5.6,5.1-4.9Z" style="fill:#ee304c; stroke-width:0px;"/><path d="M550.2,436.7v1.4h-6.6v3.2h5.4v1.2h-5.4v3.3h6.8v1.4h-8.5v-10.5h8.3Z" style="fill:#ee304c; stroke-width:0px;"/><path d="M474.4,513.7c1.5,0,2.6-.6,2.6-2.2v-8.4s2.8-.3,2.8-.3v8.8c0,3.2-1.7,4.3-5.2,4.3l-.2-2.3ZM476.5,500.1l1.9-1.9,1.9,1.9-1.9,1.9-1.9-1.9Z" style="fill:#fff; stroke-width:0px;"/><path d="M487.9,509.2v2.6c0,.1,0,.2-.2.2-.8,0-1.4-.3-1.9-.7v.3c0,3.2-1.7,4.3-5.2,4.3l-.2-2.3c1.5,0,2.6-.6,2.6-2.2v-8.4s2.8-.3,2.8-.3v4.9c.1.9.9,1.3,1.9,1.3s.2,0,.2.2Z" style="fill:#fff; stroke-width:0px;"/><path d="M491.5,509.2v2.6c0,.1,0,.2-.2.2h-3.5c-.1,0-.2,0-.2-.2v-2.6c0-.1,0-.2.2-.2h3.5c.1,0,.2,0,.2.2Z" style="fill:#fff; stroke-width:0px;"/><path d="M495,509.2v2.6c0,.1,0,.2-.2.2h-3.5c-.1,0-.2,0-.2-.2v-2.6c0-.1,0-.2.2-.2h3.5c.1,0,.2,0,.2.2Z" style="fill:#fff; stroke-width:0px;"/><path d="M498.6,509.2v2.6c0,.1,0,.2-.2.2h-3.5c-.1,0-.2,0-.2-.2v-2.6c0-.1,0-.2.2-.2h3.5c.1,0,.2,0,.2.2Z" style="fill:#fff; stroke-width:0px;"/><path d="M502.1,509.2v2.6c0,.1,0,.2-.2.2h-3.5c-.1,0-.2,0-.2-.2v-2.6c0-.1,0-.2.2-.2h3.5c.1,0,.2,0,.2.2Z" style="fill:#fff; stroke-width:0px;"/><path d="M505.7,509.2v2.6c0,.1,0,.2-.2.2h-3.5c-.1,0-.2,0-.2-.2v-2.6c0-.1,0-.2.2-.2h3.5c.1,0,.2,0,.2.2Z" style="fill:#fff; stroke-width:0px;"/><path d="M509.2,509.2v2.6c0,.1,0,.2-.2.2h-3.5c-.1,0-.2,0-.2-.2v-2.6c0-.1,0-.2.2-.2h3.5c.1,0,.2,0,.2.2Z" style="fill:#fff; stroke-width:0px;"/><path d="M521,509.2v2.6c0,.1,0,.2-.2.2-1.1,0-2-.4-2.8-1.1-.8.7-1.9,1.1-3.3,1.1h-5.7c-.1,0-.2,0-.2-.2v-2.6c0-.1,0-.2.2-.2h5.7c1,0,1.6-.5,1.6-1.3s-.6-1.3-1.6-1.3h-4.1l-1.5-2.6,5.2-6.4,2.5,1.4-4.8,5h2.5c2.8,0,4.6,1.5,4.6,3.9s0,.6,0,.9c.5.3,1,.4,1.7.4s.2,0,.2.2Z" style="fill:#fff; stroke-width:0px;"/><path d="M528,509.2v2.6c0,.1,0,.2-.2.2-1,0-2-.5-2.9-1.4-.8.9-2.3,1.4-4.2,1.4s-.2,0-.2-.2v-2.6c0-.1.1-.2.2-.2,1.4,0,2.2-.5,2.2-1.9v-2.2s2.8-.3,2.8-.3v3.8c.6.4,1.3.6,2,.6s.2,0,.2.2ZM525.6,513l1.9,1.9-1.9,1.9-1.3-1.3-1.3,1.3-1.9-1.9,1.9-1.9,1.3,1.3,1.3-1.3Z" style="fill:#fff; stroke-width:0px;"/><path d="M534.4,509.2v2.6c0,.1,0,.2-.2.2-1.1,0-2-.4-2.8-1.2-.7.8-1.9,1.2-3.5,1.2s-.2,0-.2-.2v-2.6c0-.1.1-.2.2-.2,1,0,1.5-.6,1.5-1.9v-2.2s2.8-.3,2.8-.3v3.9c.5.3,1.2.5,1.9.5s.2,0,.2.2ZM530.9,503.6l-1.9-1.9,1.9-1.9,1.9,1.9-1.9,1.9Z" style="fill:#fff; stroke-width:0px;"/><path d="M550,502.8v5.4c0,2.5-1.3,3.8-3.8,3.8s-2-.3-3-1c-.7.6-1.7,1-2.9,1s-1.8-.3-2.7-1.1c-.7.7-1.8,1.1-3.3,1.1s-.2,0-.2-.2v-2.6c0-.1,0-.2.2-.2,1,0,1.5-.6,1.5-1.9v-2.2s2.8-.3,2.8-.3v3.6c0,.2,0,.4,0,.5.5.2.9.3,1.4.3,1,0,1.5-.6,1.5-1.9v-2.2s2.8-.3,2.8-.3v3.6c0,.2,0,.4,0,.6.5.1.9.2,1.4.2,1,0,1.5-.6,1.5-1.9v-4.1l2.8-.3Z" style="fill:#fff; stroke-width:0px;"/><path d="M480.2,532.4c-.7-.1-1.4-.2-2.1-.2s-1.5.1-1.9.4-.6.6-.6,1.1,0,.6.3.8c.2.2.5.4.9.5.4.2.9.3,1.6.5,1,.2,1.9.5,2.5.7.6.3,1.1.6,1.4,1,.3.4.5.9.5,1.5,0,1-.4,1.8-1.3,2.3-.9.5-2,.8-3.6.8s-3.2-.3-4.3-.8v-1.5c.7.2,1.3.5,2,.6.7.2,1.5.2,2.3.2s1.8-.1,2.3-.4c.5-.3.8-.7.8-1.2s-.1-.6-.3-.8c-.2-.2-.5-.4-1-.6-.4-.2-1-.3-1.8-.5-1-.2-1.7-.4-2.3-.7s-1-.6-1.3-1c-.3-.4-.5-.9-.5-1.4,0-.9.4-1.6,1.1-2.1s1.8-.7,3.2-.7,2.8.2,3.9.7v1.5c-.6-.2-1.2-.4-1.9-.6Z" style="fill:#ee304c; stroke-width:0px;"/><path d="M487.6,530.9l5.5,10.3h0v-10.3h1.7v10.5h-3.4l-5.5-10.3h0v10.3h-1.7v-10.5h3.4Z" style="fill:#ee304c; stroke-width:0px;"/><path d="M498.7,530.9v10.5h-1.7v-10.5h1.7Z" style="fill:#ee304c; stroke-width:0px;"/><path d="M503.3,539.1c.7.7,1.8,1,3.2,1s1.2,0,1.8-.2c.6-.1,1.2-.3,1.7-.6v1.5c-.4.2-1,.4-1.7.6-.6.1-1.2.2-1.9.2-2,0-3.5-.5-4.6-1.4s-1.6-2.3-1.6-4,.5-3.1,1.6-4,2.6-1.4,4.6-1.4,1.2,0,1.8.2,1.2.3,1.8.5v1.5c-.6-.2-1.2-.4-1.8-.6s-1.2-.2-1.8-.2c-1.4,0-2.4.3-3.2,1s-1.1,1.7-1.1,3,.4,2.3,1.1,3Z" style="fill:#ee304c; stroke-width:0px;"/><path d="M513.6,530.9v10.5h-1.7v-10.5h1.7ZM519,530.9h2.1l-5.2,4.9,5.3,5.6h-2l-5.3-5.6,5.1-4.9Z" style="fill:#ee304c; stroke-width:0px;"/><path d="M530.7,530.9v1.4h-6.6v3.2h5.4v1.2h-5.4v3.3h6.8v1.4h-8.5v-10.5h8.3Z" style="fill:#ee304c; stroke-width:0px;"/><path d="M532.1,530.9h4.6c1.4,0,2.4.3,3.2.8.8.6,1.1,1.3,1.1,2.4s-.3,1.7-1,2.2c-.7.5-1.6.9-2.8.9l4,4.2h-2l-5.1-5.3h2.4c.8,0,1.4-.2,1.9-.5.4-.3.7-.8.7-1.5s-.2-1.1-.7-1.5c-.4-.3-1.1-.5-1.9-.5h-2.8v9.2h-1.7v-10.5Z" style="fill:#ee304c; stroke-width:0px;"/><path d="M548.5,532.4c-.7-.1-1.4-.2-2.1-.2s-1.5.1-1.9.4-.6.6-.6,1.1,0,.6.3.8c.2.2.5.4.9.5.4.2.9.3,1.6.5,1,.2,1.9.5,2.5.7.6.3,1.1.6,1.4,1,.3.4.5.9.5,1.5,0,1-.4,1.8-1.3,2.3-.9.5-2,.8-3.6.8s-3.2-.3-4.3-.8v-1.5c.7.2,1.3.5,2,.6.7.2,1.5.2,2.3.2s1.8-.1,2.3-.4c.5-.3.8-.7.8-1.2s-.1-.6-.3-.8c-.2-.2-.5-.4-1-.6-.4-.2-1-.3-1.8-.5-1-.2-1.7-.4-2.3-.7s-1-.6-1.3-1c-.3-.4-.5-.9-.5-1.4,0-.9.4-1.6,1.1-2.1s1.8-.7,3.2-.7,2.8.2,3.9.7v1.5c-.6-.2-1.2-.4-1.9-.6Z" style="fill:#ee304c; stroke-width:0px;"/><path d="M58.1,225.7l-1.9.7v-1.7s2.2-.9,2.2-.9h1.6v10.6h-1.9v-8.8Z" style="fill:#fff; stroke-width:0px;"/><path d="M62.8,232.7h1.8l-1.4,3.2h-1.4l.9-3.2Z" style="fill:#fff; stroke-width:0px;"/><path d="M70,234.7c-.7,0-1.3-.1-1.8-.4s-1.1-.6-1.5-1.2c-.4-.5-.6-1.2-.7-2.1h1.9c0,.4.2.8.4,1s.5.5.8.6c.3.1.6.2.9.2s.7,0,1-.3c.3-.2.5-.4.7-.7.2-.3.2-.6.2-1s0-.7-.3-1c-.2-.3-.5-.5-.8-.6-.3-.1-.8-.2-1.2-.2h-2.1s-.8-.7-.8-.7l.6-4.7h5.9v1.6h-4.2l-.3,2.4h1.5c.8,0,1.4.1,2,.4.6.3,1,.6,1.3,1.1.3.5.5,1,.5,1.7s-.2,1.3-.5,1.8c-.3.6-.8,1-1.4,1.4-.6.3-1.3.5-2.1.5Z" style="fill:#fff; stroke-width:0px;"/><path d="M79.5,234.7c-1,0-1.8-.2-2.5-.7-.7-.5-1.2-1.2-1.5-2-.3-.8-.5-1.8-.5-2.8s.2-2,.5-2.8c.4-.8.9-1.5,1.6-2,.7-.5,1.5-.7,2.4-.7s1.9.3,2.6.8c.7.5,1.2,1.2,1.5,2,.3.8.5,1.8.5,2.8s-.2,2-.5,2.8c-.3.8-.9,1.5-1.5,2-.7.5-1.5.7-2.5.7ZM79.5,232.9c.5,0,1-.2,1.4-.5.4-.3.7-.8.9-1.3s.3-1.2.3-2-.1-1.4-.3-1.9-.5-1-.9-1.3c-.4-.3-.9-.5-1.4-.5s-1,.2-1.4.5c-.4.3-.7.8-.9,1.3-.2.6-.3,1.2-.3,2s.1,1.4.3,1.9c.2.6.5,1,.9,1.3.4.3.9.5,1.4.5Z" style="fill:#fff; stroke-width:0px;"/><path d="M89.7,234.7c-1,0-1.8-.2-2.5-.7-.7-.5-1.2-1.2-1.5-2-.3-.8-.5-1.8-.5-2.8s.2-2,.5-2.8c.4-.8.9-1.5,1.6-2,.7-.5,1.5-.7,2.4-.7s1.9.3,2.6.8c.7.5,1.2,1.2,1.5,2,.3.8.5,1.8.5,2.8s-.2,2-.5,2.8c-.3.8-.9,1.5-1.5,2-.7.5-1.5.7-2.5.7ZM89.7,232.9c.5,0,1-.2,1.4-.5.4-.3.7-.8.9-1.3s.3-1.2.3-2-.1-1.4-.3-1.9-.5-1-.9-1.3c-.4-.3-.9-.5-1.4-.5s-1,.2-1.4.5c-.4.3-.7.8-.9,1.3-.2.6-.3,1.2-.3,2s.1,1.4.3,1.9c.2.6.5,1,.9,1.3.4.3.9.5,1.4.5Z" style="fill:#fff; stroke-width:0px;"/><path d="M99.9,223.9h1.9v10.6h-1.9v-10.6Z" style="fill:#fff; stroke-width:0px;"/><path d="M109.3,234.7c-1,0-2-.2-2.9-.7-.9-.5-1.6-1.2-2.1-2-.5-.9-.8-1.8-.8-2.8s.3-1.9.8-2.8c.5-.8,1.2-1.5,2.1-2,.9-.5,1.8-.7,2.9-.7s2,.2,2.9.7c.9.5,1.6,1.2,2.1,2,.5.8.8,1.8.8,2.8s-.3,1.9-.8,2.8-1.2,1.5-2.1,2c-.9.5-1.8.7-2.9.7ZM109.3,232.9c.7,0,1.3-.2,1.9-.5.6-.3,1-.8,1.4-1.3.3-.6.5-1.2.5-1.9s-.2-1.4-.5-1.9c-.3-.6-.8-1-1.4-1.4-.6-.3-1.2-.5-1.9-.5s-1.3.2-1.9.5-1,.8-1.4,1.4c-.3.6-.5,1.2-.5,1.9s.2,1.3.5,1.9c.3.6.8,1,1.4,1.3s1.2.5,1.9.5ZM111,233.9l1.7-.8,1.9,2.7-1.8,1-1.8-2.9Z" style="fill:#fff; stroke-width:0px;"/><path d="M117,223.9h4.1c1.1,0,2.1.2,3,.7.9.4,1.5,1.1,2,1.9.5.8.7,1.7.7,2.8s-.2,2-.7,2.8c-.5.8-1.1,1.4-2,1.9-.9.4-1.8.7-2.9.7h-4.1v-10.6ZM121.1,232.8c.8,0,1.4-.1,2-.4.6-.3,1-.7,1.3-1.2.3-.5.4-1.2.4-1.9s-.1-1.4-.4-1.9c-.3-.5-.7-1-1.3-1.3-.6-.3-1.2-.4-2-.4h-2.1v7.2h2.1Z" style="fill:#fff; stroke-width:0px;"/><path d="M58.1,319l-1.9.7v-1.7s2.2-.9,2.2-.9h1.6v10.6h-1.9v-8.8Z" style="fill:#fff; stroke-width:0px;"/><path d="M62.8,326.1h1.8l-1.4,3.2h-1.4l.9-3.2Z" style="fill:#fff; stroke-width:0px;"/><path d="M70,328.1c-.7,0-1.3-.1-1.8-.4s-1.1-.6-1.5-1.2c-.4-.5-.6-1.2-.7-2.1h1.9c0,.4.2.8.4,1s.5.5.8.6c.3.1.6.2.9.2s.7,0,1-.3c.3-.2.5-.4.7-.7.2-.3.2-.6.2-1s0-.7-.3-1c-.2-.3-.5-.5-.8-.6-.3-.1-.8-.2-1.2-.2h-2.1s-.8-.7-.8-.7l.6-4.7h5.9v1.6h-4.2l-.3,2.4h1.5c.8,0,1.4.1,2,.4.6.3,1,.6,1.3,1.1.3.5.5,1,.5,1.7s-.2,1.3-.5,1.8c-.3.6-.8,1-1.4,1.4-.6.3-1.3.5-2.1.5Z" style="fill:#fff; stroke-width:0px;"/><path d="M79.5,328.1c-1,0-1.8-.2-2.5-.7-.7-.5-1.2-1.2-1.5-2-.3-.8-.5-1.8-.5-2.8s.2-2,.5-2.8c.4-.8.9-1.5,1.6-2,.7-.5,1.5-.7,2.4-.7s1.9.3,2.6.8c.7.5,1.2,1.2,1.5,2,.3.8.5,1.8.5,2.8s-.2,2-.5,2.8c-.3.8-.9,1.5-1.5,2-.7.5-1.5.7-2.5.7ZM79.5,326.3c.5,0,1-.2,1.4-.5.4-.3.7-.8.9-1.3s.3-1.2.3-2-.1-1.4-.3-1.9-.5-1-.9-1.3c-.4-.3-.9-.5-1.4-.5s-1,.2-1.4.5c-.4.3-.7.8-.9,1.3-.2.6-.3,1.2-.3,2s.1,1.4.3,1.9c.2.6.5,1,.9,1.3.4.3.9.5,1.4.5Z" style="fill:#fff; stroke-width:0px;"/><path d="M89.7,328.1c-1,0-1.8-.2-2.5-.7-.7-.5-1.2-1.2-1.5-2-.3-.8-.5-1.8-.5-2.8s.2-2,.5-2.8c.4-.8.9-1.5,1.6-2,.7-.5,1.5-.7,2.4-.7s1.9.3,2.6.8c.7.5,1.2,1.2,1.5,2,.3.8.5,1.8.5,2.8s-.2,2-.5,2.8c-.3.8-.9,1.5-1.5,2-.7.5-1.5.7-2.5.7ZM89.7,326.3c.5,0,1-.2,1.4-.5.4-.3.7-.8.9-1.3s.3-1.2.3-2-.1-1.4-.3-1.9-.5-1-.9-1.3c-.4-.3-.9-.5-1.4-.5s-1,.2-1.4.5c-.4.3-.7.8-.9,1.3-.2.6-.3,1.2-.3,2s.1,1.4.3,1.9c.2.6.5,1,.9,1.3.4.3.9.5,1.4.5Z" style="fill:#fff; stroke-width:0px;"/><path d="M99.9,317.2h1.9v10.6h-1.9v-10.6Z" style="fill:#fff; stroke-width:0px;"/><path d="M109.3,328.1c-1,0-2-.2-2.9-.7-.9-.5-1.6-1.2-2.1-2-.5-.9-.8-1.8-.8-2.8s.3-1.9.8-2.8c.5-.8,1.2-1.5,2.1-2,.9-.5,1.8-.7,2.9-.7s2,.2,2.9.7c.9.5,1.6,1.2,2.1,2,.5.8.8,1.8.8,2.8s-.3,1.9-.8,2.8-1.2,1.5-2.1,2c-.9.5-1.8.7-2.9.7ZM109.3,326.3c.7,0,1.3-.2,1.9-.5.6-.3,1-.8,1.4-1.3.3-.6.5-1.2.5-1.9s-.2-1.4-.5-1.9c-.3-.6-.8-1-1.4-1.4-.6-.3-1.2-.5-1.9-.5s-1.3.2-1.9.5-1,.8-1.4,1.4c-.3.6-.5,1.2-.5,1.9s.2,1.3.5,1.9c.3.6.8,1,1.4,1.3s1.2.5,1.9.5ZM111,327.3l1.7-.8,1.9,2.7-1.8,1-1.8-2.9Z" style="fill:#fff; stroke-width:0px;"/><path d="M117,317.2h4.1c1.1,0,2.1.2,3,.7.9.4,1.5,1.1,2,1.9.5.8.7,1.7.7,2.8s-.2,2-.7,2.8c-.5.8-1.1,1.4-2,1.9-.9.4-1.8.7-2.9.7h-4.1v-10.6ZM121.1,326.1c.8,0,1.4-.1,2-.4.6-.3,1-.7,1.3-1.2.3-.5.4-1.2.4-1.9s-.1-1.4-.4-1.9c-.3-.5-.7-1-1.3-1.3-.6-.3-1.2-.4-2-.4h-2.1v7.2h2.1Z" style="fill:#fff; stroke-width:0px;"/><path d="M58.1,410.1l-1.9.7v-1.7s2.2-.9,2.2-.9h1.6v10.6h-1.9v-8.8Z" style="fill:#fff; stroke-width:0px;"/><path d="M62.8,417.2h1.8l-1.4,3.2h-1.4l.9-3.2Z" style="fill:#fff; stroke-width:0px;"/><path d="M70,419.1c-.7,0-1.3-.1-1.8-.4s-1.1-.6-1.5-1.2c-.4-.5-.6-1.2-.7-2.1h1.9c0,.4.2.8.4,1s.5.5.8.6c.3.1.6.2.9.2s.7,0,1-.3c.3-.2.5-.4.7-.7.2-.3.2-.6.2-1s0-.7-.3-1c-.2-.3-.5-.5-.8-.6-.3-.1-.8-.2-1.2-.2h-2.1s-.8-.7-.8-.7l.6-4.7h5.9v1.6h-4.2l-.3,2.4h1.5c.8,0,1.4.1,2,.4.6.3,1,.6,1.3,1.1.3.5.5,1,.5,1.7s-.2,1.3-.5,1.8c-.3.6-.8,1-1.4,1.4-.6.3-1.3.5-2.1.5Z" style="fill:#fff; stroke-width:0px;"/><path d="M79.5,419.1c-1,0-1.8-.2-2.5-.7-.7-.5-1.2-1.2-1.5-2-.3-.8-.5-1.8-.5-2.8s.2-2,.5-2.8c.4-.8.9-1.5,1.6-2,.7-.5,1.5-.7,2.4-.7s1.9.3,2.6.8c.7.5,1.2,1.2,1.5,2,.3.8.5,1.8.5,2.8s-.2,2-.5,2.8c-.3.8-.9,1.5-1.5,2-.7.5-1.5.7-2.5.7ZM79.5,417.4c.5,0,1-.2,1.4-.5.4-.3.7-.8.9-1.3s.3-1.2.3-2-.1-1.4-.3-1.9-.5-1-.9-1.3c-.4-.3-.9-.5-1.4-.5s-1,.2-1.4.5c-.4.3-.7.8-.9,1.3-.2.6-.3,1.2-.3,2s.1,1.4.3,1.9c.2.6.5,1,.9,1.3.4.3.9.5,1.4.5Z" style="fill:#fff; stroke-width:0px;"/><path d="M89.7,419.1c-1,0-1.8-.2-2.5-.7-.7-.5-1.2-1.2-1.5-2-.3-.8-.5-1.8-.5-2.8s.2-2,.5-2.8c.4-.8.9-1.5,1.6-2,.7-.5,1.5-.7,2.4-.7s1.9.3,2.6.8c.7.5,1.2,1.2,1.5,2,.3.8.5,1.8.5,2.8s-.2,2-.5,2.8c-.3.8-.9,1.5-1.5,2-.7.5-1.5.7-2.5.7ZM89.7,417.4c.5,0,1-.2,1.4-.5.4-.3.7-.8.9-1.3s.3-1.2.3-2-.1-1.4-.3-1.9-.5-1-.9-1.3c-.4-.3-.9-.5-1.4-.5s-1,.2-1.4.5c-.4.3-.7.8-.9,1.3-.2.6-.3,1.2-.3,2s.1,1.4.3,1.9c.2.6.5,1,.9,1.3.4.3.9.5,1.4.5Z" style="fill:#fff; stroke-width:0px;"/><path d="M99.9,408.3h1.9v10.6h-1.9v-10.6Z" style="fill:#fff; stroke-width:0px;"/><path d="M109.3,419.1c-1,0-2-.2-2.9-.7-.9-.5-1.6-1.2-2.1-2-.5-.9-.8-1.8-.8-2.8s.3-1.9.8-2.8c.5-.8,1.2-1.5,2.1-2,.9-.5,1.8-.7,2.9-.7s2,.2,2.9.7c.9.5,1.6,1.2,2.1,2,.5.8.8,1.8.8,2.8s-.3,1.9-.8,2.8-1.2,1.5-2.1,2c-.9.5-1.8.7-2.9.7ZM109.3,417.3c.7,0,1.3-.2,1.9-.5.6-.3,1-.8,1.4-1.3.3-.6.5-1.2.5-1.9s-.2-1.4-.5-1.9c-.3-.6-.8-1-1.4-1.4-.6-.3-1.2-.5-1.9-.5s-1.3.2-1.9.5-1,.8-1.4,1.4c-.3.6-.5,1.2-.5,1.9s.2,1.3.5,1.9c.3.6.8,1,1.4,1.3s1.2.5,1.9.5ZM111,418.4l1.7-.8,1.9,2.7-1.8,1-1.8-2.9Z" style="fill:#fff; stroke-width:0px;"/><path d="M117,408.3h4.1c1.1,0,2.1.2,3,.7.9.4,1.5,1.1,2,1.9.5.8.7,1.7.7,2.8s-.2,2-.7,2.8c-.5.8-1.1,1.4-2,1.9-.9.4-1.8.7-2.9.7h-4.1v-10.6ZM121.1,417.2c.8,0,1.4-.1,2-.4.6-.3,1-.7,1.3-1.2.3-.5.4-1.2.4-1.9s-.1-1.4-.4-1.9c-.3-.5-.7-1-1.3-1.3-.6-.3-1.2-.4-2-.4h-2.1v7.2h2.1Z" style="fill:#fff; stroke-width:0px;"/><path d="M58.1,506.2l-1.9.7v-1.7s2.2-.9,2.2-.9h1.6v10.6h-1.9v-8.8Z" style="fill:#fff; stroke-width:0px;"/><path d="M62.8,513.2h1.8l-1.4,3.2h-1.4l.9-3.2Z" style="fill:#fff; stroke-width:0px;"/><path d="M70,515.2c-.7,0-1.3-.1-1.8-.4s-1.1-.6-1.5-1.2c-.4-.5-.6-1.2-.7-2.1h1.9c0,.4.2.8.4,1s.5.5.8.6c.3.1.6.2.9.2s.7,0,1-.3c.3-.2.5-.4.7-.7.2-.3.2-.6.2-1s0-.7-.3-1-.5-.5-.8-.6-.8-.2-1.2-.2h-2.1s-.8-.7-.8-.7l.6-4.7h5.9v1.6h-4.2l-.3,2.4h1.5c.8,0,1.4.1,2,.4s1,.6,1.3,1.1.5,1,.5,1.7-.2,1.3-.5,1.8c-.3.6-.8,1-1.4,1.4-.6.3-1.3.5-2.1.5Z" style="fill:#fff; stroke-width:0px;"/><path d="M79.5,515.2c-1,0-1.8-.2-2.5-.7-.7-.5-1.2-1.2-1.5-2-.3-.8-.5-1.8-.5-2.8s.2-2,.5-2.8c.4-.8.9-1.5,1.6-2,.7-.5,1.5-.7,2.4-.7s1.9.3,2.6.8c.7.5,1.2,1.2,1.5,2s.5,1.8.5,2.8-.2,2-.5,2.8-.9,1.5-1.5,2c-.7.5-1.5.7-2.5.7ZM79.5,513.4c.5,0,1-.2,1.4-.5.4-.3.7-.8.9-1.3s.3-1.2.3-2-.1-1.4-.3-1.9-.5-1-.9-1.3c-.4-.3-.9-.5-1.4-.5s-1,.2-1.4.5c-.4.3-.7.8-.9,1.3-.2.6-.3,1.2-.3,2s.1,1.4.3,1.9.5,1,.9,1.3c.4.3.9.5,1.4.5Z" style="fill:#fff; stroke-width:0px;"/><path d="M89.7,515.2c-1,0-1.8-.2-2.5-.7-.7-.5-1.2-1.2-1.5-2-.3-.8-.5-1.8-.5-2.8s.2-2,.5-2.8c.4-.8.9-1.5,1.6-2,.7-.5,1.5-.7,2.4-.7s1.9.3,2.6.8c.7.5,1.2,1.2,1.5,2s.5,1.8.5,2.8-.2,2-.5,2.8-.9,1.5-1.5,2c-.7.5-1.5.7-2.5.7ZM89.7,513.4c.5,0,1-.2,1.4-.5.4-.3.7-.8.9-1.3s.3-1.2.3-2-.1-1.4-.3-1.9-.5-1-.9-1.3c-.4-.3-.9-.5-1.4-.5s-1,.2-1.4.5c-.4.3-.7.8-.9,1.3-.2.6-.3,1.2-.3,2s.1,1.4.3,1.9.5,1,.9,1.3c.4.3.9.5,1.4.5Z" style="fill:#fff; stroke-width:0px;"/><path d="M99.9,504.3h1.9v10.6h-1.9v-10.6Z" style="fill:#fff; stroke-width:0px;"/><path d="M109.3,515.2c-1,0-2-.2-2.9-.7-.9-.5-1.6-1.2-2.1-2-.5-.9-.8-1.8-.8-2.8s.3-1.9.8-2.8c.5-.8,1.2-1.5,2.1-2,.9-.5,1.8-.7,2.9-.7s2,.2,2.9.7c.9.5,1.6,1.2,2.1,2s.8,1.8.8,2.8-.3,1.9-.8,2.8-1.2,1.5-2.1,2-1.8.7-2.9.7ZM109.3,513.4c.7,0,1.3-.2,1.9-.5.6-.3,1-.8,1.4-1.3.3-.6.5-1.2.5-1.9s-.2-1.4-.5-1.9c-.3-.6-.8-1-1.4-1.4-.6-.3-1.2-.5-1.9-.5s-1.3.2-1.9.5-1,.8-1.4,1.4c-.3.6-.5,1.2-.5,1.9s.2,1.3.5,1.9c.3.6.8,1,1.4,1.3s1.2.5,1.9.5ZM111,514.4l1.7-.8,1.9,2.7-1.8,1-1.8-2.9Z" style="fill:#fff; stroke-width:0px;"/><path d="M117,504.3h4.1c1.1,0,2.1.2,3,.7.9.4,1.5,1.1,2,1.9s.7,1.7.7,2.8-.2,2-.7,2.8c-.5.8-1.1,1.4-2,1.9s-1.8.7-2.9.7h-4.1v-10.6ZM121.1,513.2c.8,0,1.4-.1,2-.4.6-.3,1-.7,1.3-1.2s.4-1.2.4-1.9-.1-1.4-.4-1.9c-.3-.5-.7-1-1.3-1.3s-1.2-.4-2-.4h-2.1v7.2h2.1Z" style="fill:#fff; stroke-width:0px;"/><rect x="167.3" y="228.9" width="270.1" height=".8" style="fill:#fff; stroke-width:0px;"/><rect x="167.3" y="323.3" width="270.1" height=".8" style="fill:#fff; stroke-width:0px;"/><rect x="167.3" y="414.9" width="270.1" height=".8" style="fill:#fff; stroke-width:0px;"/><rect x="167.3" y="508.7" width="270.1" height=".8" style="fill:#fff; stroke-width:0px;"/><path d="M488.9,594.5v5.4c0,2.5-1.4,3.8-4.3,3.8h-4.8c-3,0-4.5-1.4-4.5-4.1s0-1.8.3-3l2.4.3c-.1.9-.2,1.4-.2,1.8,0,1.4.8,2,2.6,2h4c1,0,1.5-.6,1.5-1.9v-4s2.8-.3,2.8-.3ZM480.6,595.6l-1.9-1.9,1.9-1.9,1.4,1.4,1.4-1.4,1.9,1.9-1.9,1.9-1.5-1.4-1.4,1.4Z" style="fill:#fff; stroke-width:0px;"/><path d="M491.2,599.9v-9.1s2.8-.3,2.8-.3v8.4c0,1.3.5,1.9,1.5,1.9s.2,0,.2.2v2.6c0,.1,0,.2-.2.2-2.9,0-4.4-1.3-4.4-3.9Z" style="fill:#fff; stroke-width:0px;"/><path d="M499.3,600.9v2.6c0,.1,0,.2-.2.2h-3.5c-.1,0-.2,0-.2-.2v-2.6c0-.1,0-.2.2-.2h3.5c.1,0,.2,0,.2.2Z" style="fill:#fff; stroke-width:0px;"/><path d="M502.8,600.9v2.6c0,.1,0,.2-.2.2h-3.5c-.1,0-.2,0-.2-.2v-2.6c0-.1,0-.2.2-.2h3.5c.1,0,.2,0,.2.2Z" style="fill:#fff; stroke-width:0px;"/><path d="M512.8,599.5c0,2.7-1.7,4.3-4.5,4.3h-5.7c-.1,0-.2,0-.2-.2v-2.6c0-.1,0-.2.2-.2h5.7c1,0,1.6-.5,1.6-1.3s-.6-1.3-1.6-1.3h-4.1l-1.5-2.6,5.2-6.4,2.5,1.4-4.8,5h2.5c2.8,0,4.6,1.5,4.6,3.9Z" style="fill:#fff; stroke-width:0px;"/><path d="M533.1,600.9v2.6c0,.1,0,.2-.2.2-1.1,0-2-.4-2.8-1.2-.7.7-1.7,1.1-3.1,1.2h-4.8c-3.1,0-4.6-1.4-4.6-4.3s.2-2.3.5-3.7l2.4.3c-.2,1.2-.3,2-.3,2.6,0,1.5.8,2.2,2.6,2.2h3.7c1,0,1.5-.6,1.5-1.9v-2.2s2.8-.3,2.8-.3v3.8c.5.3,1.1.5,1.9.5s.2,0,.2.2ZM523.9,595.6l-1.9-1.9,1.9-1.9,1.4,1.4,1.4-1.4,1.9,1.9-1.9,1.9-1.5-1.4-1.4,1.4Z" style="fill:#fff; stroke-width:0px;"/><path d="M536.7,600.9v2.6c0,.1,0,.2-.2.2h-3.5c-.1,0-.2,0-.2-.2v-2.6c0-.1,0-.2.2-.2h3.5c.1,0,.2,0,.2.2Z" style="fill:#fff; stroke-width:0px;"/><path d="M540.2,600.9v2.6c0,.1,0,.2-.2.2h-3.5c-.1,0-.2,0-.2-.2v-2.6c0-.1,0-.2.2-.2h3.5c.1,0,.2,0,.2.2Z" style="fill:#fff; stroke-width:0px;"/><path d="M550.2,599.5c0,2.7-1.7,4.3-4.5,4.3h-5.7c-.1,0-.2,0-.2-.2v-2.6c0-.1,0-.2.2-.2h5.7c1,0,1.6-.5,1.6-1.3s-.6-1.3-1.6-1.3h-4.1l-1.5-2.6,5.2-6.4,2.5,1.4-4.8,5h2.5c2.8,0,4.6,1.5,4.6,3.9Z" style="fill:#fff; stroke-width:0px;"/><path d="M498.9,622.6v10.5h-1.7v-10.5h1.7ZM504.3,622.6h2.1l-5.2,4.9,5.3,5.6h-2l-5.3-5.6,5.1-4.9Z" style="fill:#ee304c; stroke-width:0px;"/><path d="M509.4,622.6v10.5h-1.7v-10.5h1.7Z" style="fill:#ee304c; stroke-width:0px;"/><path d="M514.3,624h-3.7v-1.4h9.2v1.4h-3.8v9.1h-1.7v-9.1Z" style="fill:#ee304c; stroke-width:0px;"/><path d="M522.7,622.6v10.5h-1.7v-10.5h1.7ZM528.1,622.6h2.1l-5.2,4.9,5.3,5.6h-2l-5.3-5.6,5.1-4.9Z" style="fill:#ee304c; stroke-width:0px;"/><path d="M534.8,622.6h3.3l4.3,10.5h-1.9l-1-2.5h-6.1l-1,2.5h-1.9l4.3-10.5ZM539,629.4l-2.6-6.5h0l-2.6,6.5h5.1Z" style="fill:#ee304c; stroke-width:0px;"/><path d="M544.9,624h-3.7v-1.4h9.2v1.4h-3.8v9.1h-1.7v-9.1Z" style="fill:#ee304c; stroke-width:0px;"/><path d="M58.1,597.9l-1.9.7v-1.7s2.2-.9,2.2-.9h1.6v10.6h-1.9v-8.8Z" style="fill:#fff; stroke-width:0px;"/><path d="M62.8,604.9h1.8l-1.4,3.2h-1.4l.9-3.2Z" style="fill:#fff; stroke-width:0px;"/><path d="M70,606.9c-.7,0-1.3-.1-1.8-.4s-1.1-.6-1.5-1.2c-.4-.5-.6-1.2-.7-2.1h1.9c0,.4.2.8.4,1s.5.5.8.6c.3.1.6.2.9.2s.7,0,1-.3c.3-.2.5-.4.7-.7.2-.3.2-.6.2-1s0-.7-.3-1-.5-.5-.8-.6-.8-.2-1.2-.2h-2.1s-.8-.7-.8-.7l.6-4.7h5.9v1.6h-4.2l-.3,2.4h1.5c.8,0,1.4.1,2,.4s1,.6,1.3,1.1.5,1,.5,1.7-.2,1.3-.5,1.8c-.3.6-.8,1-1.4,1.4-.6.3-1.3.5-2.1.5Z" style="fill:#fff; stroke-width:0px;"/><path d="M79.5,606.9c-1,0-1.8-.2-2.5-.7-.7-.5-1.2-1.2-1.5-2-.3-.8-.5-1.8-.5-2.8s.2-2,.5-2.8c.4-.8.9-1.5,1.6-2,.7-.5,1.5-.7,2.4-.7s1.9.3,2.6.8c.7.5,1.2,1.2,1.5,2s.5,1.8.5,2.8-.2,2-.5,2.8-.9,1.5-1.5,2c-.7.5-1.5.7-2.5.7ZM79.5,605.1c.5,0,1-.2,1.4-.5.4-.3.7-.8.9-1.3s.3-1.2.3-2-.1-1.4-.3-1.9-.5-1-.9-1.3c-.4-.3-.9-.5-1.4-.5s-1,.2-1.4.5c-.4.3-.7.8-.9,1.3-.2.6-.3,1.2-.3,2s.1,1.4.3,1.9.5,1,.9,1.3c.4.3.9.5,1.4.5Z" style="fill:#fff; stroke-width:0px;"/><path d="M89.7,606.9c-1,0-1.8-.2-2.5-.7-.7-.5-1.2-1.2-1.5-2-.3-.8-.5-1.8-.5-2.8s.2-2,.5-2.8c.4-.8.9-1.5,1.6-2,.7-.5,1.5-.7,2.4-.7s1.9.3,2.6.8c.7.5,1.2,1.2,1.5,2s.5,1.8.5,2.8-.2,2-.5,2.8-.9,1.5-1.5,2c-.7.5-1.5.7-2.5.7ZM89.7,605.1c.5,0,1-.2,1.4-.5.4-.3.7-.8.9-1.3s.3-1.2.3-2-.1-1.4-.3-1.9-.5-1-.9-1.3c-.4-.3-.9-.5-1.4-.5s-1,.2-1.4.5c-.4.3-.7.8-.9,1.3-.2.6-.3,1.2-.3,2s.1,1.4.3,1.9.5,1,.9,1.3c.4.3.9.5,1.4.5Z" style="fill:#fff; stroke-width:0px;"/><path d="M99.9,596h1.9v10.6h-1.9v-10.6Z" style="fill:#fff; stroke-width:0px;"/><path d="M109.3,606.9c-1,0-2-.2-2.9-.7-.9-.5-1.6-1.2-2.1-2-.5-.9-.8-1.8-.8-2.8s.3-1.9.8-2.8c.5-.8,1.2-1.5,2.1-2,.9-.5,1.8-.7,2.9-.7s2,.2,2.9.7c.9.5,1.6,1.2,2.1,2s.8,1.8.8,2.8-.3,1.9-.8,2.8-1.2,1.5-2.1,2-1.8.7-2.9.7ZM109.3,605.1c.7,0,1.3-.2,1.9-.5.6-.3,1-.8,1.4-1.3.3-.6.5-1.2.5-1.9s-.2-1.4-.5-1.9c-.3-.6-.8-1-1.4-1.4-.6-.3-1.2-.5-1.9-.5s-1.3.2-1.9.5-1,.8-1.4,1.4c-.3.6-.5,1.2-.5,1.9s.2,1.3.5,1.9c.3.6.8,1,1.4,1.3s1.2.5,1.9.5ZM111,606.1l1.7-.8,1.9,2.7-1.8,1-1.8-2.9Z" style="fill:#fff; stroke-width:0px;"/><path d="M117,596h4.1c1.1,0,2.1.2,3,.7.9.4,1.5,1.1,2,1.9s.7,1.7.7,2.8-.2,2-.7,2.8c-.5.8-1.1,1.4-2,1.9s-1.8.7-2.9.7h-4.1v-10.6ZM121.1,604.9c.8,0,1.4-.1,2-.4.6-.3,1-.7,1.3-1.2s.4-1.2.4-1.9-.1-1.4-.4-1.9c-.3-.5-.7-1-1.3-1.3s-1.2-.4-2-.4h-2.1v7.2h2.1Z" style="fill:#fff; stroke-width:0px;"/><rect x="167.3" y="600.4" width="270.1" height=".8" style="fill:#fff; stroke-width:0px;"/><polygon points="65.3 156.4 80.5 141.8 74.7 165.3 65.3 156.4" style="fill:#171a23; stroke-width:0px;"/><path d="M50.6,49.2h0v9.8h-2.9v-10.5h5.3l1.9,10.3h0l1.9-10.3h5.3v10.5h-2.9v-9.8h0l-1.9,9.8h-4.9l-1.9-9.8Z" style="fill:#fff; stroke-width:0px;"/><path d="M72.9,48.5v2.3h-6.2v1.9h4.7v2h-4.7v1.9h6.4v2.3h-9.2v-10.5h9.1Z" style="fill:#fff; stroke-width:0px;"/><path d="M79.7,48.5l3.4,10.2h0v-10.2h2.8v10.5h-5.7l-3.4-10.3h0v10.3h-2.8v-10.5h5.7Z" style="fill:#fff; stroke-width:0px;"/><path d="M97,58c-1,.8-2.4,1.2-4.2,1.2s-3.2-.4-4.2-1.2c-1-.8-1.5-2-1.5-3.5v-6h2.9v6c0,.8.2,1.4.7,1.8.5.4,1.1.6,2,.6s1.6-.2,2-.6c.5-.4.7-1,.7-1.8v-6h2.9v6c0,1.5-.5,2.7-1.5,3.5Z" style="fill:#fff; stroke-width:0px;"/><path d="M108.4,48.5l3.4,10.2h0v-10.2h2.8v10.5h-5.7l-3.4-10.3h0v10.3h-2.8v-10.5h5.7Z" style="fill:#fff; stroke-width:0px;"/><path d="M125.3,48.5v2.3h-6.2v1.9h4.7v2h-4.7v1.9h6.4v2.3h-9.2v-10.5h9.1Z" style="fill:#fff; stroke-width:0px;"/><path d="M132.3,53.7l-3.1,5.3h-3.3l3.5-5.4-3.3-5.1h3.3l2.9,5,2.9-5h3.3l-3.3,5.1,3.5,5.4h-3.3l-3.1-5.3Z" style="fill:#fff; stroke-width:0px;"/><path d="M142.3,50.8h-3.5v-2.3h9.9v2.3h-3.5v8.1h-2.9v-8.1Z" style="fill:#fff; stroke-width:0px;"/><path d="M155.4,48.5v8.1h5.8v2.3h-8.7v-10.5h2.9Z" style="fill:#fff; stroke-width:0px;"/><path d="M171.2,48.5v2.3h-6.2v1.9h4.7v2h-4.7v1.9h6.4v2.3h-9.2v-10.5h9.1Z" style="fill:#fff; stroke-width:0px;"/><path d="M180.8,59h-5.8l-3.4-10.5h3.2l3.1,10.3h0l3.1-10.3h3.2l-3.4,10.5Z" style="fill:#fff; stroke-width:0px;"/><path d="M194,48.5v2.3h-6.2v1.9h4.7v2h-4.7v1.9h6.4v2.3h-9.2v-10.5h9.1Z" style="fill:#fff; stroke-width:0px;"/><path d="M198.1,48.5v8.1h5.8v2.3h-8.7v-10.5h2.9Z" style="fill:#fff; stroke-width:0px;"/><path d="M544.4,52.6c.3-.2.7-.3,1.1-.3s.6,0,.8.2c.3.1.5.3.7.5.2.2.3.5.4.8h1.2c0-.5-.3-1-.6-1.4-.3-.4-.7-.6-1.1-.8s-.9-.3-1.3-.3-1.2.1-1.7.4-.9.7-1.2,1.2c-.3.5-.4,1.1-.4,1.7s.1,1.2.4,1.7c.3.5.7.9,1.2,1.2s1.1.4,1.7.4.9,0,1.3-.3c.4-.2.8-.5,1.1-.8.3-.4.5-.8.6-1.4h-1.2c0,.3-.2.6-.4.8-.2.2-.4.4-.7.5-.3.1-.5.2-.8.2s-.8,0-1.1-.3c-.3-.2-.6-.4-.8-.8-.2-.3-.3-.7-.3-1.2s0-.8.3-1.2c.2-.3.4-.6.8-.8Z" style="fill:#fff; stroke-width:0px;"/><path d="M545.4,49c-3.1,0-5.6,2.5-5.6,5.6s2.5,5.6,5.6,5.6,5.6-2.5,5.6-5.6-2.5-5.6-5.6-5.6ZM545.4,59.5c-2.7,0-4.8-2.2-4.8-4.8s2.2-4.8,4.8-4.8,4.8,2.2,4.8,4.8-2.2,4.8-4.8,4.8Z" style="fill:#fff; stroke-width:0px;"/><path d="M498.3,59l3.6-3.2c.5-.5.9-.9,1.2-1.2s.5-.6.7-1c.2-.3.3-.6.3-1s0-.6-.2-.9c-.2-.3-.4-.5-.6-.6-.3-.1-.6-.2-.9-.2s-.7,0-1,.2c-.3.2-.5.4-.7.8-.2.4-.3.8-.3,1.4h-2c0-.8.1-1.4.4-2.1s.7-1.2,1.3-1.6c.6-.4,1.3-.6,2.2-.6s1.5.2,2,.5c.6.3,1,.7,1.3,1.3s.5,1.1.5,1.8,0,.9-.2,1.3-.4.8-.7,1.2c-.3.4-.7.8-1.2,1.2l-2.7,2.4.9-.2h4.1v1.7h-8v-1.1Z" style="fill:#fff; stroke-width:0px;"/><path d="M512,60.4c-1,0-1.9-.3-2.6-.8s-1.2-1.2-1.6-2-.5-1.8-.5-2.9.2-2.1.6-2.9c.4-.9.9-1.6,1.6-2.1.7-.5,1.5-.8,2.5-.8s2,.3,2.7.8c.7.5,1.2,1.2,1.5,2.1.3.9.5,1.8.5,2.8s-.2,2-.5,2.9c-.4.9-.9,1.5-1.6,2.1s-1.6.8-2.6.8ZM512,58.5c.5,0,1-.2,1.4-.5.4-.3.7-.8.9-1.4.2-.6.3-1.3.3-2s-.1-1.4-.3-2c-.2-.6-.5-1-.9-1.4s-.9-.5-1.5-.5-1,.2-1.4.5c-.4.3-.7.8-.9,1.4s-.3,1.3-.3,2,.1,1.4.3,2c.2.6.5,1,.9,1.4.4.3.9.5,1.4.5Z" style="fill:#fff; stroke-width:0px;"/><path d="M517.7,59l3.6-3.2c.5-.5.9-.9,1.2-1.2s.5-.6.7-1c.2-.3.3-.6.3-1s0-.6-.2-.9-.4-.5-.6-.6c-.3-.1-.6-.2-.9-.2s-.7,0-1,.2c-.3.2-.5.4-.7.8-.2.4-.3.8-.3,1.4h-2c0-.8.1-1.4.4-2.1s.7-1.2,1.3-1.6,1.3-.6,2.2-.6,1.5.2,2,.5c.6.3,1,.7,1.3,1.3.3.5.5,1.1.5,1.8s0,.9-.2,1.3-.4.8-.7,1.2c-.3.4-.7.8-1.2,1.2l-2.7,2.4.9-.2h4.1v1.7h-8v-1.1Z" style="fill:#fff; stroke-width:0px;"/><path d="M531,60.4c-.7,0-1.3-.1-1.9-.4-.6-.2-1.1-.6-1.5-1.2-.4-.5-.6-1.2-.7-2.1h1.9c0,.4.2.8.4,1,.2.3.5.5.8.6.3.1.6.2.9.2s.7,0,1.1-.3c.3-.2.6-.4.7-.7.2-.3.3-.6.3-1s0-.7-.3-1c-.2-.3-.5-.5-.8-.6-.4-.1-.8-.2-1.3-.2h-2.2s-.9-.7-.9-.7l.7-4.8h6v1.6h-4.3l-.3,2.5h1.6c.8,0,1.5.1,2,.4.6.3,1,.6,1.3,1.1.3.5.5,1.1.5,1.8s-.2,1.3-.5,1.9c-.3.6-.8,1-1.4,1.4-.6.4-1.3.5-2.1.5Z" style="fill:#fff; stroke-width:0px;"/><rect x="260" y="100.6" width="290.2" height="54" style="fill:#fff; stroke-width:0px;"/><path d="M388.9,134.6v5.1c0,.2-.1.4-.4.4-1.6,0-2.9-.5-3.9-1.6-.6,5.7-4.3,9.2-10.8,9.2s-10.5-3.1-10.5-9.4.5-5.1,1.5-8.2l4.4,1.2c-.6,2-1,3.7-1,5.4,0,3.5,1.9,5.2,5.6,5.2s5.4-1.9,5.3-5.8v-21.3l5.5-.6v17c0,1.9,1.7,3.2,3.8,3.2s.4.1.4.4Z" style="fill:#171a23; stroke-width:0px;"/><path d="M394.5,122.8l5.5-.7v10.5c0,4.9-2.8,7.4-8.5,7.4h-3c-.2,0-.4-.2-.4-.4v-5.1c0-.2.2-.4.4-.4h3c2,0,2.9-1.1,2.9-3.6v-7.8ZM394.4,120.1l-3.7-3.6,3.6-3.6,2.8,2.7,2.7-2.7,3.7,3.6-3.6,3.6-2.8-2.7-2.8,2.7Z" style="fill:#171a23; stroke-width:0px;"/><path d="M405.3,132.6v-17.6s5.5-.6,5.5-.6v16.3c0,2.5,1,3.6,3,3.6s.4.1.4.4v5.1c0,.2-.1.4-.3.4-5.7,0-8.5-2.5-8.5-7.5Z" style="fill:#171a23; stroke-width:0px;"/><path d="M421,134.6v5.1c0,.2-.1.4-.4.4h-6.8c-.2,0-.4-.2-.4-.4v-5.1c0-.2.1-.4.4-.4h6.8c.2,0,.4.1.4.4Z" style="fill:#171a23; stroke-width:0px;"/><path d="M427.8,134.6v5.1c0,.2-.1.4-.4.4h-6.8c-.2,0-.4-.2-.4-.4v-5.1c0-.2.1-.4.4-.4h6.8c.2,0,.4.1.4.4Z" style="fill:#171a23; stroke-width:0px;"/><path d="M434.6,134.6v5.1c0,.2-.1.4-.4.4h-6.8c-.2,0-.4-.2-.4-.4v-5.1c0-.2.1-.4.4-.4h6.8c.2,0,.4.1.4.4Z" style="fill:#171a23; stroke-width:0px;"/><path d="M441.5,134.6v5.1c0,.2-.1.4-.4.4h-6.8c-.2,0-.4-.2-.4-.4v-5.1c0-.2.1-.4.4-.4h6.8c.2,0,.4.1.4.4Z" style="fill:#171a23; stroke-width:0px;"/><path d="M474.9,134.6v5.1c0,.2-.1.4-.4.4-1.9,0-3.6-.6-4.9-1.8-1.2,1.2-3.1,1.8-5.4,1.8s-3.9-.6-5.9-2c-1.4,1.2-3.3,2-5.7,2s-3.5-.7-5.2-2.1c-1.4,1.3-3.5,2.1-6.3,2.1s-.4-.2-.4-.4v-5.1c0-.2.1-.4.4-.4,2,0,2.9-1.1,2.9-3.6v-4.2s5.5-.6,5.5-.6v6.9c0,.4,0,.7,0,1.1.9.4,1.7.5,2.6.5,2,0,3-1.1,3-3.6v-4.2s5.5-.6,5.5-.6v6.9c0,.4,0,.8,0,1.2.9.3,1.7.4,2.7.4,1.9,0,2.9-1.2,2.9-3.6v-7.8l5.5-.6v10.5c0,.3,0,.6,0,1,.8.4,1.8.6,3,.6s.4.1.4.4Z" style="fill:#171a23; stroke-width:0px;"/><path d="M474.2,139.6v-5.1c0-.2.2-.4.4-.4,2,0,2.9-1.1,2.9-3.6v-7.8s5.5-.7,5.5-.7v10.5c0,4.9-2.8,7.4-8.5,7.4s-.4-.2-.4-.4ZM476.5,116l3.7-3.6,3.7,3.6-3.6,3.6-3.7-3.6Z" style="fill:#171a23; stroke-width:0px;"/><rect x="44.7" y="100.6" width="246.2" height="54" style="fill:#ee304c; stroke-width:0px;"/><path d="M56.3,130.6c1.2,1.1,2.9,1.6,5.1,1.6s2.3-.1,3.5-.4c1.2-.3,2.4-.7,3.4-1.2l.4,5c-1.1.4-2.2.8-3.5,1-1.2.2-2.4.4-3.6.4-2.8,0-5.2-.4-7.2-1.3-2-.9-3.5-2.1-4.5-3.8-1-1.6-1.5-3.6-1.5-5.9s.5-4.3,1.5-5.9c1-1.6,2.5-2.9,4.5-3.8,2-.9,4.4-1.3,7.2-1.3s2.4.1,3.6.4c1.2.2,2.4.6,3.5,1l-.4,5c-1-.5-2.2-.9-3.4-1.2-1.2-.3-2.4-.4-3.6-.4-2.2,0-3.9.5-5.1,1.6-1.2,1.1-1.8,2.6-1.8,4.5s.6,3.4,1.8,4.5Z" style="fill:#fff; stroke-width:0px;"/><path d="M82.5,126.2c-.5-.5-1.3-.8-2.3-.8s-2.1.5-2.8,1.4c-.7.9-1,2-1,3.2v6.7h-5.2v-22.5h5.2v9.2l-.2,4.3h.2c.1-1.8.7-3.4,1.7-4.6,1-1.2,2.5-1.8,4.4-1.8s3.4.6,4.5,1.8c1.1,1.2,1.6,2.8,1.6,4.9v8.8h-5.2v-8.2c0-.9-.3-1.7-.8-2.2Z" style="fill:#fff; stroke-width:0px;"/><path d="M93.2,135c-1.6-1.4-2.4-3.3-2.4-5.8s.8-4.5,2.4-5.9c1.6-1.4,3.8-2.1,6.7-2.1s5.1.7,6.7,2.1c1.6,1.4,2.4,3.4,2.4,5.9s-.8,4.4-2.4,5.8c-1.6,1.4-3.8,2.1-6.7,2.1s-5.1-.7-6.7-2.1ZM97.1,132c.7.7,1.6,1,2.8,1s2.1-.3,2.8-1c.7-.7,1-1.6,1-2.8s-.3-2.2-1-2.8c-.7-.7-1.6-1-2.8-1s-2.2.3-2.8,1c-.7.7-1,1.6-1,2.8s.3,2.2,1,2.8Z" style="fill:#fff; stroke-width:0px;"/><path d="M122.7,125.6c-.8-.2-1.6-.3-2.4-.3-1.4,0-2.5.3-3.3.9-.8.6-1.2,1.6-1.2,2.8s.4,2.2,1.2,2.8,1.9.9,3.3.9,1.6,0,2.4-.3c.8-.2,1.6-.4,2.2-.7l.2,4.2c-.7.3-1.4.6-2.3.7-.9.2-1.9.2-2.9.2-2.9,0-5.2-.7-6.9-2s-2.6-3.3-2.6-6,.9-4.7,2.6-6c1.7-1.3,4-2,6.9-2s2,0,2.9.2c.9.2,1.7.4,2.4.7l-.2,4.2c-.7-.3-1.5-.5-2.3-.7Z" style="fill:#fff; stroke-width:0px;"/><path d="M129,135c-1.6-1.4-2.4-3.3-2.4-5.8s.8-4.5,2.4-5.9c1.6-1.4,3.8-2.1,6.7-2.1s5.1.7,6.7,2.1c1.6,1.4,2.4,3.4,2.4,5.9s-.8,4.4-2.4,5.8c-1.6,1.4-3.8,2.1-6.7,2.1s-5.1-.7-6.7-2.1ZM132.9,132c.7.7,1.6,1,2.8,1s2.1-.3,2.8-1c.7-.7,1-1.6,1-2.8s-.3-2.2-1-2.8c-.7-.7-1.6-1-2.8-1s-2.2.3-2.8,1c-.7.7-1,1.6-1,2.8s.3,2.2,1,2.8Z" style="fill:#fff; stroke-width:0px;"/><path d="M152,114.1v22.5h-5.2v-22.5h5.2Z" style="fill:#fff; stroke-width:0px;"/><path d="M165.3,131.6h-.2c0,.8-.2,1.6-.6,2.4-.4.8-1,1.6-1.8,2.2-.9.6-2,.9-3.4.9s-2.9-.4-3.8-1.2c-.9-.8-1.4-1.9-1.4-3.3s.6-2.7,1.7-3.4c1.1-.7,2.6-1.1,4.5-1.1s3.3.1,4.7.4v-.3c0-1.7-1.2-2.6-3.3-2.6s-3.6.4-5.5,1.1l-.5-4.3c.9-.4,1.9-.7,3-.9,1.1-.2,2.2-.3,3.4-.3,2.8,0,4.8.6,6.1,1.7,1.3,1.1,1.9,2.7,1.9,4.8v8.9h-3.6l-1.4-5ZM160.1,132.7c.4.3.9.4,1.5.4s1.6-.2,2.3-.7,1.1-1.2,1.2-2.2v-.3c-1,0-1.8-.1-2.6-.1s-1.8.1-2.3.5c-.5.3-.8.7-.8,1.3s.2.9.6,1.2Z" style="fill:#fff; stroke-width:0px;"/><path d="M181.7,137.1c-2.3,0-4.1-.5-5.3-1.6-1.3-1-1.9-2.7-1.9-4.9v-4.9h-2.5v-4.1h3.1l-.6-4.4h6l-1.9,4.4h6.7v4.1h-5.5v4.7c0,.9.2,1.5.7,1.8.5.4,1.2.5,2.1.5s1.7-.1,2.6-.3l.2,4.2c-.8.3-2,.4-3.6.4Z" style="fill:#fff; stroke-width:0px;"/><path d="M191.1,136.2c-1.4-.6-2.5-1.4-3.3-2.6-.8-1.2-1.2-2.7-1.2-4.5s.4-3.1,1.1-4.3,1.7-2.1,3-2.7c1.3-.6,2.9-.9,4.6-.9,2.7,0,4.7.6,6.2,1.9,1.5,1.3,2.2,3.1,2.2,5.4s0,1.2-.2,1.7h-11.6c.2,1,.6,1.8,1.4,2.2.8.5,1.7.7,2.9.7s1.6,0,2.4-.3c.8-.2,1.6-.5,2.2-.8l.2,4.2c-.7.3-1.5.5-2.4.7s-1.9.3-2.8.3c-1.8,0-3.3-.3-4.7-.9ZM198.7,128.2c0-.9-.4-1.6-1-2.1-.6-.5-1.4-.8-2.4-.8s-1.7.3-2.4.9-1,1.4-1.2,2.4l6.9-.4Z" style="fill:#fff; stroke-width:0px;"/><path d="M212,115.6h10.6c2.7,0,4.8.4,6.3,1.3s2.2,2.1,2.2,3.7-.7,2.4-2,3.1c-1.3.8-3.2,1.2-5.6,1.4h0c2.8.1,5,.6,6.5,1.5,1.5.9,2.3,2.2,2.3,3.9s-.3,2.3-1,3.2-1.7,1.6-3.1,2.1c-1.3.5-2.9.8-4.8.8h-11.3v-21ZM221,124.8c1.3,0,2.3-.2,3-.6.7-.4,1-1,1-1.8s-.3-1.3-1-1.6c-.7-.4-1.6-.6-2.9-.6h-3.4v4.6h3.3ZM222.1,132c1.3,0,2.4-.2,3.1-.6.7-.4,1.1-1.1,1.1-1.9s-.4-1.4-1.1-1.9-1.7-.7-3.1-.7h-4.4v5.1h4.4Z" style="fill:#fff; stroke-width:0px;"/><path d="M244.6,131.6h-.2c0,.8-.2,1.6-.6,2.4-.4.8-1,1.6-1.8,2.2-.9.6-2,.9-3.4.9s-2.9-.4-3.8-1.2c-.9-.8-1.4-1.9-1.4-3.3s.6-2.7,1.7-3.4c1.1-.7,2.6-1.1,4.5-1.1s3.3.1,4.7.4v-.3c0-1.7-1.2-2.6-3.3-2.6s-3.6.4-5.5,1.1l-.5-4.3c.9-.4,1.9-.7,3-.9,1.1-.2,2.2-.3,3.4-.3,2.8,0,4.8.6,6.1,1.7,1.3,1.1,1.9,2.7,1.9,4.8v8.9h-3.6l-1.4-5ZM239.3,132.7c.4.3.9.4,1.5.4s1.6-.2,2.3-.7,1.1-1.2,1.2-2.2v-.3c-1,0-1.8-.1-2.6-.1s-1.8.1-2.3.5c-.5.3-.8.7-.8,1.3s.2.9.6,1.2Z" style="fill:#fff; stroke-width:0px;"/><path d="M256.2,121.6l1.5,6.3h.1c0-1.9.4-3.5,1.1-4.8.7-1.3,1.7-1.9,3.3-1.9s1.5.1,2.3.4l-.3,5.1c-1-.4-2-.6-2.8-.6-2.4,0-3.5,1.7-3.5,5.2v5.4h-5.2v-15h3.6Z" style="fill:#fff; stroke-width:0px;"/><path d="M267.4,122.4c1.3-.8,3.1-1.2,5.5-1.2s2.4,0,3.5.3,2.1.5,2.8.8l-.2,4.2c-.8-.4-1.8-.6-2.8-.9s-2-.3-3-.3-1.2,0-1.6.3c-.4.2-.5.4-.5.8s.2.6.5.8c.4.2,1,.4,2.1.6,2.2.3,3.8.8,4.8,1.6,1,.7,1.5,1.7,1.5,3s-.7,2.7-2,3.5c-1.4.8-3.3,1.3-5.8,1.3s-2.5-.1-3.7-.3c-1.2-.2-2.2-.5-3.1-.9l.3-4.4c1,.5,2.1.9,3.2,1.1,1.1.3,2.1.4,3.1.4s1.4,0,1.7-.3c.4-.2.6-.5.6-.9s-.2-.7-.6-.9c-.4-.2-1-.4-1.9-.6-2.3-.3-3.9-.8-4.8-1.5-.9-.7-1.4-1.7-1.4-3s.6-2.6,1.9-3.3Z" style="fill:#fff; stroke-width:0px;"/><polygon points="336.9 100 321.6 114.7 327.4 91.1 336.9 100" style="fill:#171a23; stroke-width:0px;"/><polygon points="527.6 157.4 512.3 142.8 518.1 166.3 527.6 157.4" style="fill:#171a23; stroke-width:0px;"/><path d="M270.7,764.2h-3.5l-4.5-8.9h4.2l3.9,8.4h.1l4-8.4h4.2l-7,13.7h-3.7l2.3-4.8Z" style="fill:#fff; stroke-width:0px;"/><path d="M280.8,755.4h7.3l4.6,13.7h-4.1l-.8-2.8h-6.5l-.8,2.8h-4.1l4.6-13.7ZM286.9,763.6l-2.4-7.9h0l-2.4,7.9h4.9Z" style="fill:#fff; stroke-width:0px;"/><path d="M297.4,755.4v10.6h7.6v3h-11.4v-13.7h3.8Z" style="fill:#fff; stroke-width:0px;"/><path d="M309.9,755.4v10.6h7.6v3h-11.4v-13.7h3.8Z" style="fill:#fff; stroke-width:0px;"/><path d="M322.7,755.4h7.3l4.6,13.7h-4.1l-.8-2.8h-6.5l-.8,2.8h-4.1l4.6-13.7ZM328.8,763.6l-2.4-7.9h0l-2.4,7.9h4.9Z" style="fill:#fff; stroke-width:0px;"/><path d="M240.5,774.1l4.4,13.4h0v-13.4h3.7v13.7h-7.4l-4.4-13.5h0v13.5h-3.7v-13.7h7.4Z" style="fill:#fff; stroke-width:0px;"/><path d="M262.6,774.1v3h-8.1v2.5h6.2v2.6h-6.2v2.5h8.3v3h-12.1v-13.7h11.8Z" style="fill:#fff; stroke-width:0px;"/><path d="M271.7,780.9l-4,6.9h-4.3l4.6-7-4.3-6.7h4.3l3.8,6.5,3.8-6.5h4.3l-4.3,6.7,4.6,7h-4.3l-4-6.9Z" style="fill:#fff; stroke-width:0px;"/><path d="M284.7,777.1h-4.6v-3h12.9v3h-4.6v10.6h-3.8v-10.6Z" style="fill:#fff; stroke-width:0px;"/><path d="M301.9,774.1v10.6h7.6v3h-11.4v-13.7h3.8Z" style="fill:#fff; stroke-width:0px;"/><path d="M322.5,774.1v3h-8.1v2.5h6.2v2.6h-6.2v2.5h8.3v3h-12.1v-13.7h11.8Z" style="fill:#fff; stroke-width:0px;"/><path d="M335.1,787.7h-7.6l-4.4-13.7h4.1l4.1,13.4h0l4-13.4h4.1l-4.4,13.7Z" style="fill:#fff; stroke-width:0px;"/><path d="M352.4,774.1v3h-8.1v2.5h6.2v2.6h-6.2v2.5h8.3v3h-12.1v-13.7h11.8Z" style="fill:#fff; stroke-width:0px;"/><path d="M357.6,774.1v10.6h7.6v3h-11.4v-13.7h3.8Z" style="fill:#fff; stroke-width:0px;"/><path d="M337.2,756.1h-1.3v-.7h3.5v.7h-1.3v3.8h-.8v-3.8Z" style="fill:#fff; stroke-width:0px;"/><path d="M340.1,755.4h.7l1.5,2.1h0s1.6-2.1,1.6-2.1h.7v4.5h-.8v-3.2l-1.3,1.8h-.2l-1.3-1.8v3.2h-.8v-4.5Z" style="fill:#fff; stroke-width:0px;"/></svg>