<?xml version="1.0" encoding="UTF-8"?><svg id="Layer_1" xmlns="http://www.w3.org/2000/svg" viewBox="0 0 595.3 841.9"><rect x="-6548" y="-1.4" width="7740.4" height="845.9" style="fill:#171a23; stroke-width:0px;"/><path d="M486.2,228.8v2.6c0,.1,0,.2-.2.2-.8,0-1.4-.3-1.9-.7v.3c0,3.2-1.7,4.3-5.2,4.3l-.2-2.3c1.5,0,2.6-.6,2.6-2.2v-8.4s2.8-.3,2.8-.3v4.9c.1.9.9,1.3,1.9,1.3s.2,0,.2.2ZM482.7,221.5l-1.9-1.9,1.9-1.9,1.9,1.9-1.9,1.9Z" style="fill:#fff; stroke-width:0px;"/><path d="M489.8,228.8v2.6c0,.1,0,.2-.2.2h-3.5c-.1,0-.2,0-.2-.2v-2.6c0-.1,0-.2.2-.2h3.5c.1,0,.2,0,.2.2Z" style="fill:#fff; stroke-width:0px;"/><path d="M493.3,228.8v2.6c0,.1,0,.2-.2.2h-3.5c-.1,0-.2,0-.2-.2v-2.6c0-.1,0-.2.2-.2h3.5c.1,0,.2,0,.2.2Z" style="fill:#fff; stroke-width:0px;"/><path d="M496.9,228.8v2.6c0,.1,0,.2-.2.2h-3.5c-.1,0-.2,0-.2-.2v-2.6c0-.1,0-.2.2-.2h3.5c.1,0,.2,0,.2.2Z" style="fill:#fff; stroke-width:0px;"/><path d="M500.4,228.8v2.6c0,.1,0,.2-.2.2h-3.5c-.1,0-.2,0-.2-.2v-2.6c0-.1,0-.2.2-.2h3.5c.1,0,.2,0,.2.2Z" style="fill:#fff; stroke-width:0px;"/><path d="M503.9,228.8v2.6c0,.1,0,.2-.2.2h-3.5c-.1,0-.2,0-.2-.2v-2.6c0-.1,0-.2.2-.2h3.5c.1,0,.2,0,.2.2Z" style="fill:#fff; stroke-width:0px;"/><path d="M507.5,228.8v2.6c0,.1,0,.2-.2.2h-3.5c-.1,0-.2,0-.2-.2v-2.6c0-.1,0-.2.2-.2h3.5c.1,0,.2,0,.2.2Z" style="fill:#fff; stroke-width:0px;"/><path d="M511,228.8v2.6c0,.1,0,.2-.2.2h-3.5c-.1,0-.2,0-.2-.2v-2.6c0-.1,0-.2.2-.2h3.5c.1,0,.2,0,.2.2Z" style="fill:#fff; stroke-width:0px;"/><path d="M514.6,228.8v2.6c0,.1,0,.2-.2.2h-3.5c-.1,0-.2,0-.2-.2v-2.6c0-.1,0-.2.2-.2h3.5c.1,0,.2,0,.2.2Z" style="fill:#fff; stroke-width:0px;"/><path d="M518.1,228.8v2.6c0,.1,0,.2-.2.2h-3.5c-.1,0-.2,0-.2-.2v-2.6c0-.1,0-.2.2-.2h3.5c.1,0,.2,0,.2.2Z" style="fill:#fff; stroke-width:0px;"/><path d="M521.7,228.8v2.6c0,.1,0,.2-.2.2h-3.5c-.1,0-.2,0-.2-.2v-2.6c0-.1,0-.2.2-.2h3.5c.1,0,.2,0,.2.2Z" style="fill:#fff; stroke-width:0px;"/><path d="M525.2,228.8v2.6c0,.1,0,.2-.2.2h-3.5c-.1,0-.2,0-.2-.2v-2.6c0-.1,0-.2.2-.2h3.5c.1,0,.2,0,.2.2Z" style="fill:#fff; stroke-width:0px;"/><path d="M528.7,228.8v2.6c0,.1,0,.2-.2.2h-3.5c-.1,0-.2,0-.2-.2v-2.6c0-.1,0-.2.2-.2h3.5c.1,0,.2,0,.2.2Z" style="fill:#fff; stroke-width:0px;"/><path d="M532.3,228.8v2.6c0,.1,0,.2-.2.2h-3.5c-.1,0-.2,0-.2-.2v-2.6c0-.1,0-.2.2-.2h3.5c.1,0,.2,0,.2.2Z" style="fill:#fff; stroke-width:0px;"/><path d="M535.8,228.8v2.6c0,.1,0,.2-.2.2h-3.5c-.1,0-.2,0-.2-.2v-2.6c0-.1,0-.2.2-.2h3.5c.1,0,.2,0,.2.2Z" style="fill:#fff; stroke-width:0px;"/><path d="M539.4,228.8v2.6c0,.1,0,.2-.2.2h-3.5c-.1,0-.2,0-.2-.2v-2.6c0-.1,0-.2.2-.2h3.5c.1,0,.2,0,.2.2Z" style="fill:#fff; stroke-width:0px;"/><path d="M546.5,228.8v2.6c0,.1,0,.2-.2.2-1,0-2-.5-2.9-1.4-.8.9-2.3,1.4-4.2,1.4s-.2,0-.2-.2v-2.6c0-.1.1-.2.2-.2,1.4,0,2.2-.5,2.2-1.9v-2.2s2.8-.3,2.8-.3v3.8c.6.4,1.3.6,2,.6s.2,0,.2.2ZM544,232.5l1.9,1.9-1.9,1.9-1.3-1.3-1.3,1.3-1.9-1.9,1.9-1.9,1.3,1.3,1.3-1.3Z" style="fill:#fff; stroke-width:0px;"/><path d="M546.1,231.4v-2.6c0-.1,0-.2.2-.2,1,0,1.5-.6,1.5-1.9v-8.1s2.9-.3,2.9-.3v9.5c0,2.6-1.5,3.9-4.4,3.9s-.2,0-.2-.2Z" style="fill:#fff; stroke-width:0px;"/><path d="M513.9,249.1v9.1h6.2v1.4h-8v-10.5h1.7Z" style="fill:#ee304c; stroke-width:0px;"/><path d="M526.5,257h-.1c0,.5-.2.9-.4,1.3-.2.4-.6.8-1.1,1.1-.5.3-1,.4-1.7.4s-1.5-.2-1.9-.6c-.5-.4-.7-.9-.7-1.6s.3-1.3.8-1.7c.6-.4,1.3-.5,2.3-.5s1.8,0,2.7.2v-.4c0-.6-.2-1.1-.6-1.4-.4-.3-.9-.5-1.6-.5s-.9,0-1.4.2c-.5.1-.9.2-1.3.4l-.2-1.3c.4-.2.9-.4,1.4-.5s1-.2,1.5-.2c1.2,0,2.1.3,2.7.8.6.5.9,1.3.9,2.3v4.5h-1.1l-.4-2.6ZM522.7,258.3c.3.2.7.3,1.2.3s1.3-.2,1.7-.6c.5-.4.8-1,.8-1.8h0c-.7-.2-1.4-.2-2.1-.2s-1.2.1-1.6.3-.6.6-.6,1,.2.7.5.9Z" style="fill:#ee304c; stroke-width:0px;"/><path d="M530.5,262.5c-.3,0-.5,0-.7-.1v-1.2c.4,0,.9.1,1.4.1s1.2-.3,1.5-.9l.3-.8h-1.4l-2.8-7.3h1.6l2.6,7.2h0l2.6-7.2h1.6l-2.8,7.3-.4,1c-.3.7-.6,1.2-1.1,1.6-.4.3-1,.5-1.7.5s-.5,0-.8,0Z" style="fill:#ee304c; stroke-width:0px;"/><path d="M538.7,252.5c.6-.3,1.4-.5,2.4-.5s1.1,0,1.6.2,1,.2,1.4.4v1.3c-.5-.2-.9-.3-1.4-.4s-1-.2-1.4-.2c-1.1,0-1.7.3-1.7,1s.1.6.4.7c.3.2.7.3,1.4.4,1.1.2,1.8.4,2.3.8.5.3.8.8.8,1.4s-.3,1.3-.9,1.6-1.5.6-2.6.6-2.3-.2-3.2-.6v-1.3c.5.2,1,.4,1.5.5.5.1,1.1.2,1.6.2s1.1,0,1.4-.3c.3-.2.5-.4.5-.8s-.2-.6-.5-.8-.8-.3-1.5-.5c-1-.2-1.8-.4-2.2-.7s-.7-.8-.7-1.4.3-1.2.8-1.5Z" style="fill:#ee304c; stroke-width:0px;"/><path d="M468.7,315.1l-3-4.5v7h-2.8v-12.4h3.1l3.8,5.8,3.8-5.8h3.1v12.3l-3.2.3v-7.2l-3,4.5h-1.8Z" style="fill:#fff; stroke-width:0px;"/><path d="M487.1,315.3h-5.1l-.8,2.3h-3.3l4.8-12.3,3.8-.3,4.7,12.5-3.2.3-.9-2.5ZM486.2,312.7l-1.6-4.6-1.7,4.6h3.3Z" style="fill:#fff; stroke-width:0px;"/><path d="M497.2,313.4l-2.7,4.2h-3.4l4.4-6.4-4.1-5.8,3.5-.3,2.6,3.9,2.3-3.7h3.4l-3.9,6,4.5,6.3-3.5.3-3.1-4.3Z" style="fill:#fff; stroke-width:0px;"/><path d="M514.8,314.8v2.6c0,.1,0,.2-.2.2-.8,0-1.4-.3-1.9-.7v.3c0,3.2-1.7,4.3-5.2,4.3l-.2-2.3c1.5,0,2.6-.6,2.6-2.2v-8.4s2.8-.3,2.8-.3v4.9c.1.9.9,1.3,1.9,1.3s.2,0,.2.2ZM511.3,307.5l-1.9-1.9,1.9-1.9,1.9,1.9-1.9,1.9Z" style="fill:#fff; stroke-width:0px;"/><path d="M518.4,314.8v2.6c0,.1,0,.2-.2.2h-3.5c-.1,0-.2,0-.2-.2v-2.6c0-.1,0-.2.2-.2h3.5c.1,0,.2,0,.2.2Z" style="fill:#fff; stroke-width:0px;"/><path d="M521.9,314.8v2.6c0,.1,0,.2-.2.2h-3.5c-.1,0-.2,0-.2-.2v-2.6c0-.1,0-.2.2-.2h3.5c.1,0,.2,0,.2.2Z" style="fill:#fff; stroke-width:0px;"/><path d="M525.5,314.8v2.6c0,.1,0,.2-.2.2h-3.5c-.1,0-.2,0-.2-.2v-2.6c0-.1,0-.2.2-.2h3.5c.1,0,.2,0,.2.2Z" style="fill:#fff; stroke-width:0px;"/><path d="M529,314.8v2.6c0,.1,0,.2-.2.2h-3.5c-.1,0-.2,0-.2-.2v-2.6c0-.1,0-.2.2-.2h3.5c.1,0,.2,0,.2.2Z" style="fill:#fff; stroke-width:0px;"/><path d="M532.6,314.8v2.6c0,.1,0,.2-.2.2h-3.5c-.1,0-.2,0-.2-.2v-2.6c0-.1,0-.2.2-.2h3.5c.1,0,.2,0,.2.2Z" style="fill:#fff; stroke-width:0px;"/><path d="M536.1,314.8v2.6c0,.1,0,.2-.2.2h-3.5c-.1,0-.2,0-.2-.2v-2.6c0-.1,0-.2.2-.2h3.5c.1,0,.2,0,.2.2Z" style="fill:#fff; stroke-width:0px;"/><path d="M539.7,314.8v2.6c0,.1,0,.2-.2.2h-3.5c-.1,0-.2,0-.2-.2v-2.6c0-.1,0-.2.2-.2h3.5c.1,0,.2,0,.2.2Z" style="fill:#fff; stroke-width:0px;"/><path d="M546.7,314.8v2.6c0,.1,0,.2-.2.2-1,0-2-.5-2.9-1.4-.8.9-2.3,1.4-4.2,1.4s-.2,0-.2-.2v-2.6c0-.1.1-.2.2-.2,1.4,0,2.2-.5,2.2-1.9v-2.2s2.8-.3,2.8-.3v3.8c.6.4,1.3.6,2,.6s.2,0,.2.2ZM544.3,318.5l1.9,1.9-1.9,1.9-1.3-1.3-1.3,1.3-1.9-1.9,1.9-1.9,1.3,1.3,1.3-1.3Z" style="fill:#fff; stroke-width:0px;"/><path d="M546.4,317.4v-2.6c0-.1,0-.2.2-.2,1,0,1.5-.6,1.5-1.9v-8.1s2.9-.3,2.9-.3v9.5c0,2.6-1.5,3.9-4.4,3.9s-.2,0-.2-.2Z" style="fill:#fff; stroke-width:0px;"/><path d="M484.1,334.7v9.1h6.2v1.4h-8v-10.5h1.7Z" style="fill:#ee304c; stroke-width:0px;"/><path d="M496.8,342.6h-.1c0,.5-.2.9-.4,1.3-.2.4-.6.8-1.1,1.1s-1,.4-1.7.4-1.5-.2-1.9-.6c-.5-.4-.7-.9-.7-1.6s.3-1.3.8-1.7c.6-.4,1.3-.5,2.3-.5s1.8,0,2.7.2v-.4c0-.6-.2-1.1-.6-1.4-.4-.3-.9-.5-1.6-.5s-.9,0-1.4.2c-.5.1-.9.2-1.3.4l-.2-1.3c.4-.2.9-.4,1.4-.5s1-.2,1.5-.2c1.2,0,2.1.3,2.7.8.6.5.9,1.3.9,2.3v4.5h-1.1l-.4-2.6ZM493,343.9c.3.2.7.3,1.2.3s1.3-.2,1.7-.6c.5-.4.8-1,.8-1.8h0c-.7-.2-1.4-.2-2.1-.2s-1.2.1-1.6.3c-.4.2-.6.6-.6,1s.2.7.5.9Z" style="fill:#ee304c; stroke-width:0px;"/><path d="M500.8,348.1c-.3,0-.5,0-.7-.1v-1.2c.4,0,.9.1,1.4.1s1.2-.3,1.5-.9l.3-.8h-1.4l-2.8-7.3h1.6l2.6,7.2h0l2.6-7.2h1.6l-2.8,7.3-.4,1c-.3.7-.6,1.2-1,1.6-.4.3-1,.5-1.7.5s-.5,0-.8,0Z" style="fill:#ee304c; stroke-width:0px;"/><path d="M508.9,338.2c.6-.3,1.4-.5,2.4-.5s1.1,0,1.6.2c.5.1,1,.2,1.4.4v1.3c-.5-.2-.9-.3-1.4-.4-.5-.1-1-.2-1.4-.2-1.1,0-1.7.3-1.7,1s.1.6.4.7c.3.2.7.3,1.4.4,1.1.2,1.8.4,2.3.8.5.3.8.8.8,1.4s-.3,1.3-.9,1.6-1.5.6-2.6.6-2.3-.2-3.2-.6v-1.3c.5.2,1,.4,1.5.5.5.1,1.1.2,1.6.2s1.1,0,1.4-.3c.3-.2.5-.4.5-.8s-.2-.6-.5-.8-.8-.3-1.5-.5c-1-.2-1.8-.4-2.2-.7s-.7-.8-.7-1.4.3-1.2.8-1.5Z" style="fill:#ee304c; stroke-width:0px;"/><path d="M520.9,335.2h0v10h-1.7v-10.5h3.2l3.5,10.3h0l3.5-10.3h3.2v10.5h-1.7v-10h0l-3.5,10h-2.9l-3.5-10Z" style="fill:#ee304c; stroke-width:0px;"/><path d="M540,342.6h-.1c0,.5-.2.9-.4,1.3-.2.4-.6.8-1.1,1.1s-1,.4-1.7.4-1.5-.2-1.9-.6c-.5-.4-.7-.9-.7-1.6s.3-1.3.8-1.7c.6-.4,1.3-.5,2.3-.5s1.8,0,2.7.2v-.4c0-.6-.2-1.1-.6-1.4-.4-.3-.9-.5-1.6-.5s-.9,0-1.4.2c-.5.1-.9.2-1.3.4l-.2-1.3c.4-.2.9-.4,1.4-.5s1-.2,1.5-.2c1.2,0,2.1.3,2.7.8.6.5.9,1.3.9,2.3v4.5h-1.1l-.4-2.6ZM536.1,343.9c.3.2.7.3,1.2.3s1.3-.2,1.7-.6c.5-.4.8-1,.8-1.8h0c-.7-.2-1.4-.2-2.1-.2s-1.2.1-1.6.3c-.4.2-.6.6-.6,1s.2.7.5.9Z" style="fill:#ee304c; stroke-width:0px;"/><path d="M545.2,341.4l-2.5-3.6h1.8l2.3,3.5,2.3-3.5h1.8l-2.5,3.6,2.7,3.8h-1.8l-2.5-3.7-2.5,3.7h-1.8l2.7-3.8Z" style="fill:#ee304c; stroke-width:0px;"/><path d="M486.1,395.2v5.4c0,2.5-1.3,3.8-3.8,3.8s-2-.3-3-1c-.7.7-1.7,1-2.9,1s-1.5-.2-2.2-.7c-.3,2.9-2.3,4.6-5.6,4.6s-5.5-1.6-5.5-4.9.3-2.6.8-4.3l2.3.6c-.3,1-.5,1.9-.5,2.8,0,1.8,1,2.7,2.9,2.7s2.8-1,2.8-3v-6.8l2.8-.3v5.8c.6.3,1.2.5,1.8.5,1,0,1.5-.6,1.5-1.9v-2.2s2.8-.3,2.8-.3v3.6c0,.2,0,.4,0,.6.5.1.9.2,1.4.2,1,0,1.5-.6,1.5-1.9v-4l2.8-.3Z" style="fill:#fff; stroke-width:0px;"/><path d="M497.4,401.7v2.6c0,.1,0,.2-.2.2h-.9c-.3,2.8-3.2,3.9-7.5,3.9l-.3-2.3c3.1,0,4.6-.4,4.9-1.6h-1.5c-2.6,0-4.3-1.8-4.3-4.5s2-4.7,4.5-4.7,4.3,1.7,4.3,4.6v1.7h.9c.1,0,.2,0,.2.2ZM492.2,401.7c.4,0,.9,0,1.4,0v-1.6c0-1.2-.7-1.9-1.7-1.9s-1.7.7-1.7,1.7.9,1.8,2,1.8Z" style="fill:#fff; stroke-width:0px;"/><path d="M501,401.7v2.6c0,.1,0,.2-.2.2h-3.5c-.1,0-.2,0-.2-.2v-2.6c0-.1,0-.2.2-.2h3.5c.1,0,.2,0,.2.2Z" style="fill:#fff; stroke-width:0px;"/><path d="M504.5,401.7v2.6c0,.1,0,.2-.2.2h-3.5c-.1,0-.2,0-.2-.2v-2.6c0-.1,0-.2.2-.2h3.5c.1,0,.2,0,.2.2Z" style="fill:#fff; stroke-width:0px;"/><path d="M508,401.7v2.6c0,.1,0,.2-.2.2h-3.5c-.1,0-.2,0-.2-.2v-2.6c0-.1,0-.2.2-.2h3.5c.1,0,.2,0,.2.2Z" style="fill:#fff; stroke-width:0px;"/><path d="M511.6,401.7v2.6c0,.1,0,.2-.2.2h-3.5c-.1,0-.2,0-.2-.2v-2.6c0-.1,0-.2.2-.2h3.5c.1,0,.2,0,.2.2Z" style="fill:#fff; stroke-width:0px;"/><path d="M518.7,401.7v2.6c0,.1,0,.2-.2.2-1,0-2-.5-2.9-1.4-.8.9-2.3,1.4-4.2,1.4s-.2,0-.2-.2v-2.6c0-.1.1-.2.2-.2,1.4,0,2.2-.5,2.2-1.9v-2.2s2.8-.3,2.8-.3v3.8c.6.4,1.3.6,2,.6s.2,0,.2.2ZM513.5,396.2l-1.9-1.9,1.9-1.9,1.4,1.4,1.4-1.4,1.9,1.9-1.9,1.9-1.5-1.4-1.4,1.4Z" style="fill:#fff; stroke-width:0px;"/><path d="M522.7,409.2l-1.3-1.3-1.3,1.3-1.9-1.9,1.9-1.9,1.3,1.3,1.3-1.3,1.9,1.9-1.9,1.9ZM518.3,404.3v-2.6c0-.1.1-.2.2-.2h1.5c1,0,1.5-.6,1.5-1.9v-4s2.8-.3,2.8-.3v5.4c0,2.5-1.4,3.8-4.4,3.8h-1.5c-.1,0-.2,0-.2-.2Z" style="fill:#fff; stroke-width:0px;"/><path d="M525,406.1c1.5,0,2.6-.6,2.6-2.2v-8.4s2.8-.3,2.8-.3v8.8c0,3.2-1.7,4.3-5.2,4.3l-.2-2.3Z" style="fill:#fff; stroke-width:0px;"/><path d="M540.7,399.8v4.3c0,3.2-3.1,4.3-7.5,4.3l-.3-2.3c3.4,0,4.9-.5,5-2-.6.2-1.1.4-1.7.4-2.5,0-4.2-1.8-4.2-4.5s2-4.7,4.5-4.7,4.3,1.7,4.3,4.6ZM536.4,401.7c.4,0,.9,0,1.4-.2v-1.5c0-1.2-.7-1.9-1.7-1.9s-1.7.7-1.7,1.7.8,1.8,1.9,1.8Z" style="fill:#fff; stroke-width:0px;"/><path d="M541.7,401.5h4.6c1,0,1.5-.6,1.5-1.4v-.6c0-1-.8-1.6-2-1.6h-1.2v-2.9h1.9c2.5,0,4.2,1.5,4.2,4.3v1.4c0,2.5-1.5,3.8-4.4,3.8h-4.1l-.4-3Z" style="fill:#fff; stroke-width:0px;"/><path d="M504.8,421.3c.9.4,1.6,1,2.1,1.8.5.8.7,1.7.7,2.8s-.2,2-.7,2.8c-.5.8-1.2,1.4-2.1,1.8-.9.4-2,.6-3.2.6h-4.5v-10.5h4.5c1.2,0,2.3.2,3.2.6ZM501.6,429.8c.9,0,1.6-.2,2.2-.5.6-.3,1.1-.8,1.5-1.3s.5-1.3.5-2-.2-1.5-.5-2c-.3-.6-.8-1-1.5-1.3-.6-.3-1.4-.5-2.2-.5h-2.7v7.7h2.7Z" style="fill:#ee304c; stroke-width:0px;"/><path d="M509.8,430.4c-.7-.7-1.1-1.6-1.1-2.9s.4-2.2,1.1-2.9c.7-.7,1.8-1,3.1-1s2.3.3,3.1,1c.7.7,1.1,1.6,1.1,2.9s-.4,2.2-1.1,2.9c-.7.7-1.8,1-3.1,1s-2.3-.3-3.1-1ZM511,429.4c.4.5,1.1.7,1.9.7s1.5-.2,1.9-.7.7-1.1.7-2-.2-1.5-.7-2-1.1-.7-1.9-.7-1.5.2-1.9.7c-.4.5-.7,1.1-.7,2s.2,1.5.7,2Z" style="fill:#ee304c; stroke-width:0px;"/><path d="M519.5,423.8l.4,3h0c0-1,.3-1.7.7-2.3.4-.6.9-.9,1.6-.9s.7,0,1.1.2v1.5c-.5-.1-.9-.2-1.3-.2-.7,0-1.2.3-1.6.9-.3.6-.5,1.5-.5,2.7v2.5h-1.6v-7.4h1.1Z" style="fill:#ee304c; stroke-width:0px;"/><path d="M526.4,431.2h-1.6v-6.1h-.7v-1.3h2.3v7.4ZM524.6,422.3c-.2-.1-.3-.3-.3-.6s0-.4.3-.6.4-.2.7-.2.6,0,.7.2c.2.1.3.3.3.6s0,.4-.3.6c-.2.1-.4.2-.7.2s-.6,0-.7-.2Z" style="fill:#ee304c; stroke-width:0px;"/><path d="M531.8,431.4c-.9,0-1.7-.2-2.2-.7-.5-.5-.8-1.2-.8-2.1v-3.5h-1.3v-1.2h1.5l-.2-2.2h1.8l-.6,2.2h3.4v1.2h-3v3.5c0,1,.5,1.6,1.6,1.6s.9,0,1.4-.2v1.3c-.3.1-.9.2-1.6.2Z" style="fill:#ee304c; stroke-width:0px;"/><path d="M535.2,430.4c-.7-.7-1.1-1.6-1.1-2.9s.4-2.2,1.1-2.9c.7-.7,1.8-1,3.1-1s2.3.3,3.1,1c.7.7,1.1,1.6,1.1,2.9s-.4,2.2-1.1,2.9c-.7.7-1.8,1-3.1,1s-2.3-.3-3.1-1ZM536.4,429.4c.4.5,1.1.7,1.9.7s1.5-.2,1.9-.7.7-1.1.7-2-.2-1.5-.7-2-1.1-.7-1.9-.7-1.5.2-1.9.7c-.4.5-.7,1.1-.7,2s.2,1.5.7,2Z" style="fill:#ee304c; stroke-width:0px;"/><path d="M544.3,424.1c.6-.3,1.4-.5,2.4-.5s1.1,0,1.6.2c.5.1,1,.2,1.4.4v1.3c-.5-.2-.9-.3-1.4-.4-.5-.1-1-.2-1.4-.2-1.1,0-1.7.3-1.7,1s.1.6.4.7c.3.2.7.3,1.4.4,1.1.2,1.8.4,2.3.8.5.3.8.8.8,1.4s-.3,1.3-.9,1.6-1.5.6-2.6.6-2.3-.2-3.2-.6v-1.3c.5.2,1,.4,1.5.5.5.1,1.1.2,1.6.2s1.1,0,1.4-.3.5-.5.5-.8-.2-.6-.5-.8c-.3-.2-.8-.3-1.5-.5-1-.2-1.8-.4-2.2-.7s-.7-.8-.7-1.4.3-1.2.8-1.5Z" style="fill:#ee304c; stroke-width:0px;"/><path d="M491.2,487.1v2.6c0,.1,0,.2-.2.2-1.2,0-2-.2-2.7-.7-1.1.6-2.1.8-3.1.8-2.6,0-4.4-2-4.4-4.6s1.8-4.8,4.4-4.8,1.2.1,1.8.3v-1l2.8-.3v6.1c0,.8.4,1.1,1,1.1s.2,0,.2.2ZM484,479.4l-1.9-1.9,1.9-1.9,1.4,1.4,1.4-1.4,1.9,1.9-1.9,1.9-1.5-1.4-1.4,1.4ZM487.2,486.9c0-.2,0-.5,0-.8v-2.4c-.6-.2-1.2-.3-1.7-.3-1.2,0-1.9.8-1.9,1.9s.7,1.8,1.8,1.8c.7,0,1.3,0,1.9-.3Z" style="fill:#fff; stroke-width:0px;"/><path d="M498.3,487.1v2.6c0,.1,0,.2-.2.2-1,0-2-.5-2.9-1.4-.8.9-2.3,1.4-4.2,1.4s-.2,0-.2-.2v-2.6c0-.1.1-.2.2-.2,1.4,0,2.2-.5,2.2-1.9v-2.2s2.8-.3,2.8-.3v3.8c.6.4,1.3.6,2,.6s.2,0,.2.2ZM495.9,490.8l1.9,1.9-1.9,1.9-1.3-1.3-1.3,1.3-1.9-1.9,1.9-1.9,1.3,1.3,1.3-1.3Z" style="fill:#fff; stroke-width:0px;"/><path d="M507.5,484.9c0,3-2,5-5.2,5h-4.2c-.1,0-.2,0-.2-.2v-2.6c0-.1,0-.2.2-.2h1.1c-.3-.7-.5-1.4-.5-2.1,0-2.5,1.9-4.3,4.3-4.3s4.5,1.9,4.5,4.4ZM504.7,484.9c0-1-.7-1.7-1.7-1.7s-1.8.8-1.8,1.8.2,1.2.5,1.9h.6c1.5,0,2.4-.8,2.4-2Z" style="fill:#fff; stroke-width:0px;"/><path d="M509.5,486v-9.1s2.8-.3,2.8-.3v8.4c0,1.3.5,1.9,1.5,1.9s.2,0,.2.2v2.6c0,.1,0,.2-.2.2-2.9,0-4.4-1.3-4.4-3.9Z" style="fill:#fff; stroke-width:0px;"/><path d="M517.6,487.1v2.6c0,.1,0,.2-.2.2h-3.5c-.1,0-.2,0-.2-.2v-2.6c0-.1,0-.2.2-.2h3.5c.1,0,.2,0,.2.2Z" style="fill:#fff; stroke-width:0px;"/><path d="M521.2,487.1v2.6c0,.1,0,.2-.2.2h-3.5c-.1,0-.2,0-.2-.2v-2.6c0-.1,0-.2.2-.2h3.5c.1,0,.2,0,.2.2Z" style="fill:#fff; stroke-width:0px;"/><path d="M524.7,487.1v2.6c0,.1,0,.2-.2.2h-3.5c-.1,0-.2,0-.2-.2v-2.6c0-.1,0-.2.2-.2h3.5c.1,0,.2,0,.2.2Z" style="fill:#fff; stroke-width:0px;"/><path d="M528.2,487.1v2.6c0,.1,0,.2-.2.2h-3.5c-.1,0-.2,0-.2-.2v-2.6c0-.1,0-.2.2-.2h3.5c.1,0,.2,0,.2.2Z" style="fill:#fff; stroke-width:0px;"/><path d="M531.8,487.1v2.6c0,.1,0,.2-.2.2h-3.5c-.1,0-.2,0-.2-.2v-2.6c0-.1,0-.2.2-.2h3.5c.1,0,.2,0,.2.2Z" style="fill:#fff; stroke-width:0px;"/><path d="M535.3,487.1v2.6c0,.1,0,.2-.2.2h-3.5c-.1,0-.2,0-.2-.2v-2.6c0-.1,0-.2.2-.2h3.5c.1,0,.2,0,.2.2Z" style="fill:#fff; stroke-width:0px;"/><path d="M550.9,480.6v5.4c0,2.5-1.3,3.8-3.8,3.8s-2-.3-3-1c-.7.6-1.7,1-2.9,1s-1.8-.3-2.7-1.1c-.7.7-1.8,1.1-3.3,1.1s-.2,0-.2-.2v-2.6c0-.1,0-.2.2-.2,1,0,1.5-.6,1.5-1.9v-2.2s2.8-.3,2.8-.3v3.6c0,.2,0,.4,0,.5.5.2.9.3,1.4.3,1,0,1.5-.6,1.5-1.9v-2.2s2.8-.3,2.8-.3v3.6c0,.2,0,.4,0,.6.5.1.9.2,1.4.2,1,0,1.5-.6,1.5-1.9v-4.1l2.8-.3ZM542.3,480.7l-1.9-1.9,1.9-1.9,1.4,1.4,1.4-1.4,1.9,1.9-1.9,1.9-1.5-1.4-1.4,1.4ZM543.8,477.4l-1.2-1.2,1.2-1.2,1.2,1.2-1.2,1.2Z" style="fill:#fff; stroke-width:0px;"/><path d="M491.3,508.8h4.5c1.5,0,2.7.3,3.5.9.8.6,1.2,1.5,1.2,2.6s-.4,2-1.2,2.6c-.8.6-2,.9-3.5.9h-2.7v3.6h-1.7v-10.5ZM497.9,513.9c.5-.4.8-.9.8-1.6s-.3-1.3-.8-1.6c-.5-.4-1.2-.6-2.2-.6h-2.7v4.4h2.7c1,0,1.7-.2,2.2-.6Z" style="fill:#ee304c; stroke-width:0px;"/><path d="M501.9,518.4c-.7-.7-1.1-1.6-1.1-2.9s.4-2.2,1.1-2.9c.7-.7,1.8-1,3.1-1s2.3.3,3.1,1c.7.7,1.1,1.6,1.1,2.9s-.4,2.2-1.1,2.9c-.7.7-1.8,1-3.1,1s-2.3-.3-3.1-1ZM503,517.5c.4.5,1.1.7,1.9.7s1.5-.2,1.9-.7c.4-.5.7-1.1.7-2s-.2-1.5-.7-2-1.1-.7-1.9-.7-1.5.2-1.9.7c-.4.5-.7,1.1-.7,2s.2,1.5.7,2Z" style="fill:#ee304c; stroke-width:0px;"/><path d="M510.5,511.9h1.1l.4,2.8h0c.1-.9.4-1.6,1-2.2.6-.5,1.3-.8,2.2-.8s2,.3,2.6,1c.6.7.9,1.6.9,2.9s-.3,2.2-.9,2.9-1.4,1-2.5,1-1.7-.3-2.3-.8-.9-1.2-1-2.2h0v2.4c0,0,0,3.2,0,3.2h-1.6v-10.2ZM512.8,517.5c.5.4,1.1.7,1.9.7s1.4-.2,1.8-.7.6-1.1.6-1.9-.2-1.5-.6-1.9c-.4-.5-1-.7-1.8-.7s-1.5.2-1.9.7-.7,1.1-.7,2,.2,1.4.7,1.9Z" style="fill:#ee304c; stroke-width:0px;"/><path d="M525.4,513.1c-.4,0-.8-.1-1.3-.1-.9,0-1.6.2-2.1.7s-.8,1.1-.8,2,.3,1.5.8,2c.5.4,1.2.7,2.1.7s.9,0,1.3-.1.8-.2,1.1-.4v1.3c-.6.3-1.4.5-2.4.5s-2.4-.3-3.2-1c-.8-.7-1.2-1.6-1.2-2.9s.4-2.2,1.2-2.9,1.8-1,3.2-1,.9,0,1.4.1c.4,0,.8.2,1.2.4v1.3c-.4-.2-.8-.3-1.2-.4Z" style="fill:#ee304c; stroke-width:0px;"/><path d="M528.6,518.4c-.7-.7-1.1-1.6-1.1-2.9s.4-2.2,1.1-2.9c.7-.7,1.8-1,3.1-1s2.3.3,3.1,1c.7.7,1.1,1.6,1.1,2.9s-.4,2.2-1.1,2.9c-.7.7-1.8,1-3.1,1s-2.3-.3-3.1-1ZM529.8,517.5c.4.5,1.1.7,1.9.7s1.5-.2,1.9-.7c.4-.5.7-1.1.7-2s-.2-1.5-.7-2-1.1-.7-1.9-.7-1.5.2-1.9.7c-.4.5-.7,1.1-.7,2s.2,1.5.7,2Z" style="fill:#ee304c; stroke-width:0px;"/><path d="M538.3,511.9l.4,3h0c0-1,.3-1.7.7-2.3.4-.6.9-.9,1.6-.9s.7,0,1.1.2v1.5c-.5-.2-.9-.2-1.3-.2-.7,0-1.2.3-1.6.9s-.5,1.5-.5,2.7v2.5h-1.6v-7.4h1.1Z" style="fill:#ee304c; stroke-width:0px;"/><path d="M544.3,511.9l.4,2.9h0c0-.9.4-1.6,1-2.2s1.3-.9,2.2-.9,1.7.3,2.2.9.8,1.4.8,2.4v4.3h-1.6v-4.1c0-.7-.2-1.2-.5-1.6s-.9-.6-1.6-.6-1.4.3-1.9.9-.7,1.3-.7,2.2v3.3h-1.6v-7.4h1.1Z" style="fill:#ee304c; stroke-width:0px;"/><path d="M58.4,225.7l-1.9.7v-1.7s2.2-.9,2.2-.9h1.6v10.6h-1.9v-8.8Z" style="fill:#fff; stroke-width:0px;"/><path d="M63.2,232.7h1.8l-1.4,3.2h-1.4l.9-3.2Z" style="fill:#fff; stroke-width:0px;"/><path d="M70.3,234.7c-.7,0-1.3-.1-1.8-.4s-1.1-.6-1.5-1.2c-.4-.5-.6-1.2-.7-2.1h1.9c0,.4.2.8.4,1s.5.5.8.6c.3.1.6.2.9.2s.7,0,1-.3c.3-.2.5-.4.7-.7.2-.3.2-.6.2-1s0-.7-.3-1c-.2-.3-.5-.5-.8-.6-.3-.1-.8-.2-1.2-.2h-2.1s-.8-.7-.8-.7l.6-4.7h5.9v1.6h-4.2l-.3,2.4h1.5c.8,0,1.4.1,2,.4.6.3,1,.6,1.3,1.1.3.5.5,1,.5,1.7s-.2,1.3-.5,1.8c-.3.6-.8,1-1.4,1.4-.6.3-1.3.5-2.1.5Z" style="fill:#fff; stroke-width:0px;"/><path d="M79.8,234.7c-1,0-1.8-.2-2.5-.7-.7-.5-1.2-1.2-1.5-2-.3-.8-.5-1.8-.5-2.8s.2-2,.5-2.8c.4-.8.9-1.5,1.6-2,.7-.5,1.5-.7,2.4-.7s1.9.3,2.6.8c.7.5,1.2,1.2,1.5,2,.3.8.5,1.8.5,2.8s-.2,2-.5,2.8c-.3.8-.9,1.5-1.5,2-.7.5-1.5.7-2.5.7ZM79.8,232.9c.5,0,1-.2,1.4-.5.4-.3.7-.8.9-1.3s.3-1.2.3-2-.1-1.4-.3-1.9-.5-1-.9-1.3c-.4-.3-.9-.5-1.4-.5s-1,.2-1.4.5c-.4.3-.7.8-.9,1.3-.2.6-.3,1.2-.3,2s.1,1.4.3,1.9c.2.6.5,1,.9,1.3.4.3.9.5,1.4.5Z" style="fill:#fff; stroke-width:0px;"/><path d="M90,234.7c-1,0-1.8-.2-2.5-.7-.7-.5-1.2-1.2-1.5-2-.3-.8-.5-1.8-.5-2.8s.2-2,.5-2.8c.4-.8.9-1.5,1.6-2,.7-.5,1.5-.7,2.4-.7s1.9.3,2.6.8c.7.5,1.2,1.2,1.5,2,.3.8.5,1.8.5,2.8s-.2,2-.5,2.8c-.3.8-.9,1.5-1.5,2-.7.5-1.5.7-2.5.7ZM90,232.9c.5,0,1-.2,1.4-.5.4-.3.7-.8.9-1.3s.3-1.2.3-2-.1-1.4-.3-1.9-.5-1-.9-1.3c-.4-.3-.9-.5-1.4-.5s-1,.2-1.4.5c-.4.3-.7.8-.9,1.3-.2.6-.3,1.2-.3,2s.1,1.4.3,1.9c.2.6.5,1,.9,1.3.4.3.9.5,1.4.5Z" style="fill:#fff; stroke-width:0px;"/><path d="M100.2,223.9h1.9v10.6h-1.9v-10.6Z" style="fill:#fff; stroke-width:0px;"/><path d="M109.7,234.7c-1,0-2-.2-2.9-.7-.9-.5-1.6-1.2-2.1-2-.5-.9-.8-1.8-.8-2.8s.3-1.9.8-2.8c.5-.8,1.2-1.5,2.1-2,.9-.5,1.8-.7,2.9-.7s2,.2,2.9.7c.9.5,1.6,1.2,2.1,2,.5.8.8,1.8.8,2.8s-.3,1.9-.8,2.8-1.2,1.5-2.1,2c-.9.5-1.8.7-2.9.7ZM109.7,232.9c.7,0,1.3-.2,1.9-.5.6-.3,1-.8,1.4-1.3.3-.6.5-1.2.5-1.9s-.2-1.4-.5-1.9c-.3-.6-.8-1-1.4-1.4-.6-.3-1.2-.5-1.9-.5s-1.3.2-1.9.5-1,.8-1.4,1.4c-.3.6-.5,1.2-.5,1.9s.2,1.3.5,1.9c.3.6.8,1,1.4,1.3s1.2.5,1.9.5ZM111.3,233.9l1.7-.8,1.9,2.7-1.8,1-1.8-2.9Z" style="fill:#fff; stroke-width:0px;"/><path d="M117.4,223.9h4.1c1.1,0,2.1.2,3,.7.9.4,1.5,1.1,2,1.9.5.8.7,1.7.7,2.8s-.2,2-.7,2.8c-.5.8-1.1,1.4-2,1.9-.9.4-1.8.7-2.9.7h-4.1v-10.6ZM121.4,232.8c.8,0,1.4-.1,2-.4.6-.3,1-.7,1.3-1.2.3-.5.4-1.2.4-1.9s-.1-1.4-.4-1.9c-.3-.5-.7-1-1.3-1.3-.6-.3-1.2-.4-2-.4h-2.1v7.2h2.1Z" style="fill:#fff; stroke-width:0px;"/><path d="M58.4,309l-1.9.7v-1.7s2.2-.9,2.2-.9h1.6v10.6h-1.9v-8.8Z" style="fill:#fff; stroke-width:0px;"/><path d="M63.2,316.1h1.8l-1.4,3.2h-1.4l.9-3.2Z" style="fill:#fff; stroke-width:0px;"/><path d="M70.3,318.1c-.7,0-1.3-.1-1.8-.4s-1.1-.6-1.5-1.2c-.4-.5-.6-1.2-.7-2.1h1.9c0,.4.2.8.4,1s.5.5.8.6c.3.1.6.2.9.2s.7,0,1-.3c.3-.2.5-.4.7-.7.2-.3.2-.6.2-1s0-.7-.3-1c-.2-.3-.5-.5-.8-.6-.3-.1-.8-.2-1.2-.2h-2.1s-.8-.7-.8-.7l.6-4.7h5.9v1.6h-4.2l-.3,2.4h1.5c.8,0,1.4.1,2,.4.6.3,1,.6,1.3,1.1.3.5.5,1,.5,1.7s-.2,1.3-.5,1.8c-.3.6-.8,1-1.4,1.4-.6.3-1.3.5-2.1.5Z" style="fill:#fff; stroke-width:0px;"/><path d="M79.8,318.1c-1,0-1.8-.2-2.5-.7-.7-.5-1.2-1.2-1.5-2-.3-.8-.5-1.8-.5-2.8s.2-2,.5-2.8c.4-.8.9-1.5,1.6-2,.7-.5,1.5-.7,2.4-.7s1.9.3,2.6.8c.7.5,1.2,1.2,1.5,2,.3.8.5,1.8.5,2.8s-.2,2-.5,2.8c-.3.8-.9,1.5-1.5,2-.7.5-1.5.7-2.5.7ZM79.8,316.3c.5,0,1-.2,1.4-.5.4-.3.7-.8.9-1.3s.3-1.2.3-2-.1-1.4-.3-1.9-.5-1-.9-1.3c-.4-.3-.9-.5-1.4-.5s-1,.2-1.4.5c-.4.3-.7.8-.9,1.3-.2.6-.3,1.2-.3,2s.1,1.4.3,1.9c.2.6.5,1,.9,1.3.4.3.9.5,1.4.5Z" style="fill:#fff; stroke-width:0px;"/><path d="M90,318.1c-1,0-1.8-.2-2.5-.7-.7-.5-1.2-1.2-1.5-2-.3-.8-.5-1.8-.5-2.8s.2-2,.5-2.8c.4-.8.9-1.5,1.6-2,.7-.5,1.5-.7,2.4-.7s1.9.3,2.6.8c.7.5,1.2,1.2,1.5,2,.3.8.5,1.8.5,2.8s-.2,2-.5,2.8c-.3.8-.9,1.5-1.5,2-.7.5-1.5.7-2.5.7ZM90,316.3c.5,0,1-.2,1.4-.5.4-.3.7-.8.9-1.3s.3-1.2.3-2-.1-1.4-.3-1.9-.5-1-.9-1.3c-.4-.3-.9-.5-1.4-.5s-1,.2-1.4.5c-.4.3-.7.8-.9,1.3-.2.6-.3,1.2-.3,2s.1,1.4.3,1.9c.2.6.5,1,.9,1.3.4.3.9.5,1.4.5Z" style="fill:#fff; stroke-width:0px;"/><path d="M100.2,307.2h1.9v10.6h-1.9v-10.6Z" style="fill:#fff; stroke-width:0px;"/><path d="M109.7,318.1c-1,0-2-.2-2.9-.7-.9-.5-1.6-1.2-2.1-2-.5-.9-.8-1.8-.8-2.8s.3-1.9.8-2.8c.5-.8,1.2-1.5,2.1-2,.9-.5,1.8-.7,2.9-.7s2,.2,2.9.7c.9.5,1.6,1.2,2.1,2,.5.8.8,1.8.8,2.8s-.3,1.9-.8,2.8-1.2,1.5-2.1,2c-.9.5-1.8.7-2.9.7ZM109.7,316.3c.7,0,1.3-.2,1.9-.5.6-.3,1-.8,1.4-1.3.3-.6.5-1.2.5-1.9s-.2-1.4-.5-1.9c-.3-.6-.8-1-1.4-1.4-.6-.3-1.2-.5-1.9-.5s-1.3.2-1.9.5-1,.8-1.4,1.4c-.3.6-.5,1.2-.5,1.9s.2,1.3.5,1.9c.3.6.8,1,1.4,1.3s1.2.5,1.9.5ZM111.3,317.3l1.7-.8,1.9,2.7-1.8,1-1.8-2.9Z" style="fill:#fff; stroke-width:0px;"/><path d="M117.4,307.2h4.1c1.1,0,2.1.2,3,.7.9.4,1.5,1.1,2,1.9.5.8.7,1.7.7,2.8s-.2,2-.7,2.8c-.5.8-1.1,1.4-2,1.9-.9.4-1.8.7-2.9.7h-4.1v-10.6ZM121.4,316.1c.8,0,1.4-.1,2-.4.6-.3,1-.7,1.3-1.2.3-.5.4-1.2.4-1.9s-.1-1.4-.4-1.9c-.3-.5-.7-1-1.3-1.3-.6-.3-1.2-.4-2-.4h-2.1v7.2h2.1Z" style="fill:#fff; stroke-width:0px;"/><path d="M58.4,394.1l-1.9.7v-1.7s2.2-.9,2.2-.9h1.6v10.6h-1.9v-8.8Z" style="fill:#fff; stroke-width:0px;"/><path d="M63.2,401.2h1.8l-1.4,3.2h-1.4l.9-3.2Z" style="fill:#fff; stroke-width:0px;"/><path d="M70.3,403.1c-.7,0-1.3-.1-1.8-.4s-1.1-.6-1.5-1.2c-.4-.5-.6-1.2-.7-2.1h1.9c0,.4.2.8.4,1s.5.5.8.6c.3.1.6.2.9.2s.7,0,1-.3c.3-.2.5-.4.7-.7.2-.3.2-.6.2-1s0-.7-.3-1c-.2-.3-.5-.5-.8-.6-.3-.1-.8-.2-1.2-.2h-2.1s-.8-.7-.8-.7l.6-4.7h5.9v1.6h-4.2l-.3,2.4h1.5c.8,0,1.4.1,2,.4.6.3,1,.6,1.3,1.1.3.5.5,1,.5,1.7s-.2,1.3-.5,1.8c-.3.6-.8,1-1.4,1.4-.6.3-1.3.5-2.1.5Z" style="fill:#fff; stroke-width:0px;"/><path d="M79.8,403.1c-1,0-1.8-.2-2.5-.7-.7-.5-1.2-1.2-1.5-2-.3-.8-.5-1.8-.5-2.8s.2-2,.5-2.8c.4-.8.9-1.5,1.6-2,.7-.5,1.5-.7,2.4-.7s1.9.3,2.6.8c.7.5,1.2,1.2,1.5,2,.3.8.5,1.8.5,2.8s-.2,2-.5,2.8c-.3.8-.9,1.5-1.5,2-.7.5-1.5.7-2.5.7ZM79.8,401.4c.5,0,1-.2,1.4-.5.4-.3.7-.8.9-1.3s.3-1.2.3-2-.1-1.4-.3-1.9-.5-1-.9-1.3c-.4-.3-.9-.5-1.4-.5s-1,.2-1.4.5c-.4.3-.7.8-.9,1.3-.2.6-.3,1.2-.3,2s.1,1.4.3,1.9c.2.6.5,1,.9,1.3.4.3.9.5,1.4.5Z" style="fill:#fff; stroke-width:0px;"/><path d="M90,403.1c-1,0-1.8-.2-2.5-.7-.7-.5-1.2-1.2-1.5-2-.3-.8-.5-1.8-.5-2.8s.2-2,.5-2.8c.4-.8.9-1.5,1.6-2,.7-.5,1.5-.7,2.4-.7s1.9.3,2.6.8c.7.5,1.2,1.2,1.5,2,.3.8.5,1.8.5,2.8s-.2,2-.5,2.8c-.3.8-.9,1.5-1.5,2-.7.5-1.5.7-2.5.7ZM90,401.4c.5,0,1-.2,1.4-.5.4-.3.7-.8.9-1.3s.3-1.2.3-2-.1-1.4-.3-1.9-.5-1-.9-1.3c-.4-.3-.9-.5-1.4-.5s-1,.2-1.4.5c-.4.3-.7.8-.9,1.3-.2.6-.3,1.2-.3,2s.1,1.4.3,1.9c.2.6.5,1,.9,1.3.4.3.9.5,1.4.5Z" style="fill:#fff; stroke-width:0px;"/><path d="M100.2,392.3h1.9v10.6h-1.9v-10.6Z" style="fill:#fff; stroke-width:0px;"/><path d="M109.7,403.1c-1,0-2-.2-2.9-.7-.9-.5-1.6-1.2-2.1-2-.5-.9-.8-1.8-.8-2.8s.3-1.9.8-2.8c.5-.8,1.2-1.5,2.1-2,.9-.5,1.8-.7,2.9-.7s2,.2,2.9.7c.9.5,1.6,1.2,2.1,2,.5.8.8,1.8.8,2.8s-.3,1.9-.8,2.8-1.2,1.5-2.1,2c-.9.5-1.8.7-2.9.7ZM109.7,401.3c.7,0,1.3-.2,1.9-.5.6-.3,1-.8,1.4-1.3.3-.6.5-1.2.5-1.9s-.2-1.4-.5-1.9c-.3-.6-.8-1-1.4-1.4-.6-.3-1.2-.5-1.9-.5s-1.3.2-1.9.5-1,.8-1.4,1.4c-.3.6-.5,1.2-.5,1.9s.2,1.3.5,1.9c.3.6.8,1,1.4,1.3s1.2.5,1.9.5ZM111.3,402.4l1.7-.8,1.9,2.7-1.8,1-1.8-2.9Z" style="fill:#fff; stroke-width:0px;"/><path d="M117.4,392.3h4.1c1.1,0,2.1.2,3,.7.9.4,1.5,1.1,2,1.9.5.8.7,1.7.7,2.8s-.2,2-.7,2.8c-.5.8-1.1,1.4-2,1.9-.9.4-1.8.7-2.9.7h-4.1v-10.6ZM121.4,401.2c.8,0,1.4-.1,2-.4.6-.3,1-.7,1.3-1.2.3-.5.4-1.2.4-1.9s-.1-1.4-.4-1.9c-.3-.5-.7-1-1.3-1.3-.6-.3-1.2-.4-2-.4h-2.1v7.2h2.1Z" style="fill:#fff; stroke-width:0px;"/><path d="M57.9,484l-1.9.7v-1.7s2.2-.9,2.2-.9h1.6v10.6h-1.9v-8.8Z" style="fill:#fff; stroke-width:0px;"/><path d="M62.7,491h1.8l-1.4,3.2h-1.4l.9-3.2Z" style="fill:#fff; stroke-width:0px;"/><path d="M70.2,493c-1,0-1.8-.2-2.5-.7-.7-.5-1.2-1.2-1.5-2-.3-.8-.5-1.8-.5-2.8s.2-2,.5-2.8c.4-.8.9-1.5,1.6-2,.7-.5,1.5-.7,2.4-.7s1.9.3,2.6.8c.7.5,1.2,1.2,1.5,2,.3.8.5,1.8.5,2.8s-.2,2-.5,2.8c-.3.8-.9,1.5-1.5,2-.7.5-1.5.7-2.5.7ZM70.2,491.2c.5,0,1-.2,1.4-.5.4-.3.7-.8.9-1.3s.3-1.2.3-2-.1-1.4-.3-1.9-.5-1-.9-1.3c-.4-.3-.9-.5-1.4-.5s-1,.2-1.4.5c-.4.3-.7.8-.9,1.3-.2.6-.3,1.2-.3,2s.1,1.4.3,1.9c.2.6.5,1,.9,1.3.4.3.9.5,1.4.5Z" style="fill:#fff; stroke-width:0px;"/><path d="M80.4,493c-1,0-1.8-.2-2.5-.7-.7-.5-1.2-1.2-1.5-2-.3-.8-.5-1.8-.5-2.8s.2-2,.5-2.8c.4-.8.9-1.5,1.6-2,.7-.5,1.5-.7,2.4-.7s1.9.3,2.6.8c.7.5,1.2,1.2,1.5,2,.3.8.5,1.8.5,2.8s-.2,2-.5,2.8c-.3.8-.9,1.5-1.5,2-.7.5-1.5.7-2.5.7ZM80.4,491.2c.5,0,1-.2,1.4-.5.4-.3.7-.8.9-1.3s.3-1.2.3-2-.1-1.4-.3-1.9-.5-1-.9-1.3c-.4-.3-.9-.5-1.4-.5s-1,.2-1.4.5c-.4.3-.7.8-.9,1.3-.2.6-.3,1.2-.3,2s.1,1.4.3,1.9c.2.6.5,1,.9,1.3.4.3.9.5,1.4.5Z" style="fill:#fff; stroke-width:0px;"/><path d="M90.5,493c-1,0-1.8-.2-2.5-.7-.7-.5-1.2-1.2-1.5-2-.3-.8-.5-1.8-.5-2.8s.2-2,.5-2.8c.4-.8.9-1.5,1.6-2,.7-.5,1.5-.7,2.4-.7s1.9.3,2.6.8c.7.5,1.2,1.2,1.5,2,.3.8.5,1.8.5,2.8s-.2,2-.5,2.8c-.3.8-.9,1.5-1.5,2-.7.5-1.5.7-2.5.7ZM90.5,491.2c.5,0,1-.2,1.4-.5.4-.3.7-.8.9-1.3s.3-1.2.3-2-.1-1.4-.3-1.9-.5-1-.9-1.3c-.4-.3-.9-.5-1.4-.5s-1,.2-1.4.5c-.4.3-.7.8-.9,1.3-.2.6-.3,1.2-.3,2s.1,1.4.3,1.9c.2.6.5,1,.9,1.3.4.3.9.5,1.4.5Z" style="fill:#fff; stroke-width:0px;"/><path d="M100.7,482.2h1.9v10.6h-1.9v-10.6Z" style="fill:#fff; stroke-width:0px;"/><path d="M110.2,493c-1,0-2-.2-2.9-.7-.9-.5-1.6-1.2-2.1-2-.5-.9-.8-1.8-.8-2.8s.3-1.9.8-2.8c.5-.8,1.2-1.5,2.1-2,.9-.5,1.8-.7,2.9-.7s2,.2,2.9.7c.9.5,1.6,1.2,2.1,2,.5.8.8,1.8.8,2.8s-.3,1.9-.8,2.8-1.2,1.5-2.1,2c-.9.5-1.8.7-2.9.7ZM110.2,491.2c.7,0,1.3-.2,1.9-.5.6-.3,1-.8,1.4-1.3.3-.6.5-1.2.5-1.9s-.2-1.4-.5-1.9c-.3-.6-.8-1-1.4-1.4-.6-.3-1.2-.5-1.9-.5s-1.3.2-1.9.5-1,.8-1.4,1.4c-.3.6-.5,1.2-.5,1.9s.2,1.3.5,1.9c.3.6.8,1,1.4,1.3s1.2.5,1.9.5ZM111.8,492.2l1.7-.8,1.9,2.7-1.8,1-1.8-2.9Z" style="fill:#fff; stroke-width:0px;"/><path d="M117.9,482.2h4.1c1.1,0,2.1.2,3,.7.9.4,1.5,1.1,2,1.9.5.8.7,1.7.7,2.8s-.2,2-.7,2.8c-.5.8-1.1,1.4-2,1.9-.9.4-1.8.7-2.9.7h-4.1v-10.6ZM121.9,491.1c.8,0,1.4-.1,2-.4.6-.3,1-.7,1.3-1.2.3-.5.4-1.2.4-1.9s-.1-1.4-.4-1.9c-.3-.5-.7-1-1.3-1.3-.6-.3-1.2-.4-2-.4h-2.1v7.2h2.1Z" style="fill:#fff; stroke-width:0px;"/><rect x="167.6" y="228.9" width="270.1" height=".8" style="fill:#fff; stroke-width:0px;"/><rect x="167.6" y="313.3" width="270.1" height=".8" style="fill:#fff; stroke-width:0px;"/><rect x="167.6" y="398.9" width="270.1" height=".8" style="fill:#fff; stroke-width:0px;"/><rect x="167.6" y="486.5" width="270.1" height=".8" style="fill:#fff; stroke-width:0px;"/><path d="M493.7,569.5v5.4c0,2.5-1.4,3.8-4.3,3.8h-4.8c-3,0-4.5-1.4-4.5-4.1s0-1.8.3-3l2.4.3c-.1.9-.2,1.4-.2,1.8,0,1.4.8,2,2.6,2h4c1,0,1.5-.6,1.5-1.9v-4s2.8-.3,2.8-.3ZM485.4,570.5l-1.9-1.9,1.9-1.9,1.4,1.4,1.4-1.4,1.9,1.9-1.9,1.9-1.5-1.4-1.4,1.4Z" style="fill:#fff; stroke-width:0px;"/><path d="M495.8,565.7l2.8-.3v13.3h-2.8v-13Z" style="fill:#fff; stroke-width:0px;"/><path d="M499.6,580.3c1.5,0,2.6-.6,2.6-2.2v-8.4s2.8-.3,2.8-.3v8.8c0,3.2-1.7,4.3-5.2,4.3l-.2-2.3ZM501.7,566.7l1.9-1.9,1.9,1.9-1.9,1.9-1.9-1.9Z" style="fill:#fff; stroke-width:0px;"/><path d="M513.1,575.9v2.6c0,.1,0,.2-.2.2-.8,0-1.4-.3-1.9-.7v.3c0,3.2-1.7,4.3-5.2,4.3l-.2-2.3c1.5,0,2.6-.6,2.6-2.2v-8.4s2.8-.3,2.8-.3v4.9c.1.9.9,1.3,1.9,1.3s.2,0,.2.2Z" style="fill:#fff; stroke-width:0px;"/><path d="M516.7,575.9v2.6c0,.1,0,.2-.2.2h-3.5c-.1,0-.2,0-.2-.2v-2.6c0-.1,0-.2.2-.2h3.5c.1,0,.2,0,.2.2Z" style="fill:#fff; stroke-width:0px;"/><path d="M520.2,575.9v2.6c0,.1,0,.2-.2.2h-3.5c-.1,0-.2,0-.2-.2v-2.6c0-.1,0-.2.2-.2h3.5c.1,0,.2,0,.2.2Z" style="fill:#fff; stroke-width:0px;"/><path d="M523.8,575.9v2.6c0,.1,0,.2-.2.2h-3.5c-.1,0-.2,0-.2-.2v-2.6c0-.1,0-.2.2-.2h3.5c.1,0,.2,0,.2.2Z" style="fill:#fff; stroke-width:0px;"/><path d="M527.3,575.9v2.6c0,.1,0,.2-.2.2h-3.5c-.1,0-.2,0-.2-.2v-2.6c0-.1,0-.2.2-.2h3.5c.1,0,.2,0,.2.2Z" style="fill:#fff; stroke-width:0px;"/><path d="M530.9,575.9v2.6c0,.1,0,.2-.2.2h-3.5c-.1,0-.2,0-.2-.2v-2.6c0-.1,0-.2.2-.2h3.5c.1,0,.2,0,.2.2Z" style="fill:#fff; stroke-width:0px;"/><path d="M534.4,575.9v2.6c0,.1,0,.2-.2.2h-3.5c-.1,0-.2,0-.2-.2v-2.6c0-.1,0-.2.2-.2h3.5c.1,0,.2,0,.2.2Z" style="fill:#fff; stroke-width:0px;"/><path d="M538,575.9v2.6c0,.1,0,.2-.2.2h-3.5c-.1,0-.2,0-.2-.2v-2.6c0-.1,0-.2.2-.2h3.5c.1,0,.2,0,.2.2Z" style="fill:#fff; stroke-width:0px;"/><path d="M541.5,575.9v2.6c0,.1,0,.2-.2.2h-3.5c-.1,0-.2,0-.2-.2v-2.6c0-.1,0-.2.2-.2h3.5c.1,0,.2,0,.2.2Z" style="fill:#fff; stroke-width:0px;"/><path d="M551.5,574.4c0,2.7-1.7,4.3-4.5,4.3h-5.7c-.1,0-.2,0-.2-.2v-2.6c0-.1,0-.2.2-.2h5.7c1,0,1.6-.5,1.6-1.3s-.6-1.3-1.6-1.3h-4.1l-1.5-2.6,5.2-6.4,2.5,1.4-4.8,5h2.5c2.8,0,4.6,1.5,4.6,3.9Z" style="fill:#fff; stroke-width:0px;"/><path d="M519,599.4l5.5,10.3h0v-10.3h1.7v10.5h-3.4l-5.5-10.3h0v10.3h-1.7v-10.5h3.4Z" style="fill:#ee304c; stroke-width:0px;"/><path d="M535,609.9l-.4-2.9h0c-.1.9-.4,1.6-1,2.2s-1.3.9-2.2.9-1.7-.3-2.2-.9-.8-1.4-.8-2.4v-4.3h1.6v4.2c0,.7.2,1.2.6,1.6s.9.6,1.6.6,1.4-.3,1.9-.8c.4-.6.7-1.3.7-2.2v-3.3h1.6v7.4h-1.1Z" style="fill:#ee304c; stroke-width:0px;"/><path d="M541.4,610.1c-.9,0-1.7-.2-2.2-.7-.5-.5-.8-1.2-.8-2.1v-3.5h-1.3v-1.2h1.5l-.2-2.2h1.8l-.6,2.2h3.4v1.2h-3v3.5c0,1,.5,1.6,1.6,1.6s.9,0,1.4-.2v1.3c-.3.1-.9.2-1.6.2Z" style="fill:#ee304c; stroke-width:0px;"/><path d="M544.8,602.9c.6-.3,1.4-.5,2.4-.5s1.1,0,1.6.2c.5,0,1,.2,1.4.4v1.3c-.5-.2-.9-.3-1.4-.4-.5-.1-1-.2-1.4-.2-1.1,0-1.7.3-1.7,1s.1.6.4.7c.3.2.7.3,1.4.4,1.1.2,1.8.4,2.3.8.5.3.8.8.8,1.4s-.3,1.3-.9,1.6-1.5.6-2.6.6-2.3-.2-3.2-.6v-1.4c.5.2,1,.4,1.5.5.5.1,1.1.2,1.6.2s1.1,0,1.4-.3c.3-.2.5-.5.5-.8s-.2-.6-.5-.8c-.3-.2-.8-.3-1.5-.4-1-.2-1.8-.4-2.2-.7-.5-.3-.7-.8-.7-1.4s.3-1.2.8-1.5Z" style="fill:#ee304c; stroke-width:0px;"/><path d="M58.4,574.7l-1.9.7v-1.7s2.2-.9,2.2-.9h1.6v10.6h-1.9v-8.8Z" style="fill:#fff; stroke-width:0px;"/><path d="M63.2,581.8h1.8l-1.4,3.2h-1.4l.9-3.2Z" style="fill:#fff; stroke-width:0px;"/><path d="M70.3,583.7c-.7,0-1.3-.1-1.8-.4s-1.1-.6-1.5-1.2c-.4-.5-.6-1.2-.7-2.1h1.9c0,.4.2.8.4,1s.5.5.8.6c.3.1.6.2.9.2s.7,0,1-.3c.3-.2.5-.4.7-.7.2-.3.2-.6.2-1s0-.7-.3-1-.5-.5-.8-.6-.8-.2-1.2-.2h-2.1s-.8-.7-.8-.7l.6-4.7h5.9v1.6h-4.2l-.3,2.4h1.5c.8,0,1.4.1,2,.4s1,.6,1.3,1.1.5,1,.5,1.7-.2,1.3-.5,1.8c-.3.6-.8,1-1.4,1.4-.6.3-1.3.5-2.1.5Z" style="fill:#fff; stroke-width:0px;"/><path d="M79.8,583.7c-1,0-1.8-.2-2.5-.7-.7-.5-1.2-1.2-1.5-2-.3-.8-.5-1.8-.5-2.8s.2-2,.5-2.8c.4-.8.9-1.5,1.6-2,.7-.5,1.5-.7,2.4-.7s1.9.3,2.6.8c.7.5,1.2,1.2,1.5,2s.5,1.8.5,2.8-.2,2-.5,2.8-.9,1.5-1.5,2c-.7.5-1.5.7-2.5.7ZM79.8,582c.5,0,1-.2,1.4-.5.4-.3.7-.8.9-1.3s.3-1.2.3-2-.1-1.4-.3-1.9-.5-1-.9-1.3c-.4-.3-.9-.5-1.4-.5s-1,.2-1.4.5c-.4.3-.7.8-.9,1.3-.2.6-.3,1.2-.3,2s.1,1.4.3,1.9.5,1,.9,1.3c.4.3.9.5,1.4.5Z" style="fill:#fff; stroke-width:0px;"/><path d="M90,583.7c-1,0-1.8-.2-2.5-.7-.7-.5-1.2-1.2-1.5-2-.3-.8-.5-1.8-.5-2.8s.2-2,.5-2.8c.4-.8.9-1.5,1.6-2,.7-.5,1.5-.7,2.4-.7s1.9.3,2.6.8c.7.5,1.2,1.2,1.5,2s.5,1.8.5,2.8-.2,2-.5,2.8-.9,1.5-1.5,2c-.7.5-1.5.7-2.5.7ZM90,582c.5,0,1-.2,1.4-.5.4-.3.7-.8.9-1.3s.3-1.2.3-2-.1-1.4-.3-1.9-.5-1-.9-1.3c-.4-.3-.9-.5-1.4-.5s-1,.2-1.4.5c-.4.3-.7.8-.9,1.3-.2.6-.3,1.2-.3,2s.1,1.4.3,1.9.5,1,.9,1.3c.4.3.9.5,1.4.5Z" style="fill:#fff; stroke-width:0px;"/><path d="M100.2,572.9h1.9v10.6h-1.9v-10.6Z" style="fill:#fff; stroke-width:0px;"/><path d="M109.7,583.7c-1,0-2-.2-2.9-.7-.9-.5-1.6-1.2-2.1-2-.5-.9-.8-1.8-.8-2.8s.3-1.9.8-2.8c.5-.8,1.2-1.5,2.1-2,.9-.5,1.8-.7,2.9-.7s2,.2,2.9.7,1.6,1.2,2.1,2,.8,1.8.8,2.8-.3,1.9-.8,2.8-1.2,1.5-2.1,2-1.8.7-2.9.7ZM109.7,581.9c.7,0,1.3-.2,1.9-.5.6-.3,1-.8,1.4-1.3.3-.6.5-1.2.5-1.9s-.2-1.4-.5-1.9c-.3-.6-.8-1-1.4-1.4-.6-.3-1.2-.5-1.9-.5s-1.3.2-1.9.5-1,.8-1.4,1.4c-.3.6-.5,1.2-.5,1.9s.2,1.3.5,1.9c.3.6.8,1,1.4,1.3s1.2.5,1.9.5ZM111.3,583l1.7-.8,1.9,2.7-1.8,1-1.8-2.9Z" style="fill:#fff; stroke-width:0px;"/><path d="M117.4,572.9h4.1c1.1,0,2.1.2,3,.7.9.4,1.5,1.1,2,1.9s.7,1.7.7,2.8-.2,2-.7,2.8c-.5.8-1.1,1.4-2,1.9s-1.8.7-2.9.7h-4.1v-10.6ZM121.4,581.8c.8,0,1.4-.1,2-.4.6-.3,1-.7,1.3-1.2s.4-1.2.4-1.9-.1-1.4-.4-1.9c-.3-.5-.7-1-1.3-1.3s-1.2-.4-2-.4h-2.1v7.2h2.1Z" style="fill:#fff; stroke-width:0px;"/><rect x="167.6" y="577.2" width="270.1" height=".8" style="fill:#fff; stroke-width:0px;"/><polygon points="65.6 156.4 80.8 141.8 75.1 165.3 65.6 156.4" style="fill:#171a23; stroke-width:0px;"/><path d="M50.9,49.2h0v9.8h-2.9v-10.5h5.3l1.9,10.3h0l1.9-10.3h5.3v10.5h-2.9v-9.8h0l-1.9,9.8h-4.9l-1.9-9.8Z" style="fill:#fff; stroke-width:0px;"/><path d="M73.3,48.5v2.3h-6.2v1.9h4.7v2h-4.7v1.9h6.4v2.3h-9.2v-10.5h9.1Z" style="fill:#fff; stroke-width:0px;"/><path d="M80.1,48.5l3.4,10.2h0v-10.2h2.8v10.5h-5.7l-3.4-10.3h0v10.3h-2.8v-10.5h5.7Z" style="fill:#fff; stroke-width:0px;"/><path d="M97.4,58c-1,.8-2.4,1.2-4.2,1.2s-3.2-.4-4.2-1.2c-1-.8-1.5-2-1.5-3.5v-6h2.9v6c0,.8.2,1.4.7,1.8.5.4,1.1.6,2,.6s1.6-.2,2-.6c.5-.4.7-1,.7-1.8v-6h2.9v6c0,1.5-.5,2.7-1.5,3.5Z" style="fill:#fff; stroke-width:0px;"/><path d="M108.8,48.5l3.4,10.2h0v-10.2h2.8v10.5h-5.7l-3.4-10.3h0v10.3h-2.8v-10.5h5.7Z" style="fill:#fff; stroke-width:0px;"/><path d="M125.7,48.5v2.3h-6.2v1.9h4.7v2h-4.7v1.9h6.4v2.3h-9.2v-10.5h9.1Z" style="fill:#fff; stroke-width:0px;"/><path d="M132.6,53.7l-3.1,5.3h-3.3l3.5-5.4-3.3-5.1h3.3l2.9,5,2.9-5h3.3l-3.3,5.1,3.5,5.4h-3.3l-3.1-5.3Z" style="fill:#fff; stroke-width:0px;"/><path d="M142.6,50.8h-3.5v-2.3h9.9v2.3h-3.5v8.1h-2.9v-8.1Z" style="fill:#fff; stroke-width:0px;"/><path d="M155.8,48.5v8.1h5.8v2.3h-8.7v-10.5h2.9Z" style="fill:#fff; stroke-width:0px;"/><path d="M171.5,48.5v2.3h-6.2v1.9h4.7v2h-4.7v1.9h6.4v2.3h-9.2v-10.5h9.1Z" style="fill:#fff; stroke-width:0px;"/><path d="M181.2,59h-5.8l-3.4-10.5h3.2l3.1,10.3h0l3.1-10.3h3.2l-3.4,10.5Z" style="fill:#fff; stroke-width:0px;"/><path d="M194.4,48.5v2.3h-6.2v1.9h4.7v2h-4.7v1.9h6.4v2.3h-9.2v-10.5h9.1Z" style="fill:#fff; stroke-width:0px;"/><path d="M198.4,48.5v8.1h5.8v2.3h-8.7v-10.5h2.9Z" style="fill:#fff; stroke-width:0px;"/><path d="M544.7,52.6c.3-.2.7-.3,1.1-.3s.6,0,.8.2c.3.1.5.3.7.5.2.2.3.5.4.8h1.2c0-.5-.3-1-.6-1.4-.3-.4-.7-.6-1.1-.8s-.9-.3-1.3-.3-1.2.1-1.7.4-.9.7-1.2,1.2c-.3.5-.4,1.1-.4,1.7s.1,1.2.4,1.7c.3.5.7.9,1.2,1.2s1.1.4,1.7.4.9,0,1.3-.3c.4-.2.8-.5,1.1-.8.3-.4.5-.8.6-1.4h-1.2c0,.3-.2.6-.4.8-.2.2-.4.4-.7.5-.3.1-.5.2-.8.2s-.8,0-1.1-.3c-.3-.2-.6-.4-.8-.8-.2-.3-.3-.7-.3-1.2s0-.8.3-1.2c.2-.3.4-.6.8-.8Z" style="fill:#fff; stroke-width:0px;"/><path d="M545.8,49c-3.1,0-5.6,2.5-5.6,5.6s2.5,5.6,5.6,5.6,5.6-2.5,5.6-5.6-2.5-5.6-5.6-5.6ZM545.8,59.5c-2.7,0-4.8-2.2-4.8-4.8s2.2-4.8,4.8-4.8,4.8,2.2,4.8,4.8-2.2,4.8-4.8,4.8Z" style="fill:#fff; stroke-width:0px;"/><path d="M498.6,59l3.6-3.2c.5-.5.9-.9,1.2-1.2s.5-.6.7-1c.2-.3.3-.6.3-1s0-.6-.2-.9-.4-.5-.6-.6c-.3-.1-.6-.2-.9-.2s-.7,0-1,.2c-.3.2-.5.4-.7.8-.2.4-.3.8-.3,1.4h-2c0-.8.1-1.4.4-2.1s.7-1.2,1.3-1.6,1.3-.6,2.2-.6,1.5.2,2,.5c.6.3,1,.7,1.3,1.3.3.5.5,1.1.5,1.8s0,.9-.2,1.3-.4.8-.7,1.2c-.3.4-.7.8-1.2,1.2l-2.7,2.4.9-.2h4.1v1.7h-8v-1.1Z" style="fill:#fff; stroke-width:0px;"/><path d="M512.3,60.4c-1,0-1.9-.3-2.6-.8s-1.2-1.2-1.6-2c-.4-.9-.5-1.8-.5-2.9s.2-2.1.5-2.9c.4-.9.9-1.6,1.6-2.1.7-.5,1.5-.8,2.5-.8s2,.3,2.7.8c.7.5,1.2,1.2,1.5,2.1.3.9.5,1.8.5,2.8s-.2,2-.5,2.9c-.4.9-.9,1.5-1.6,2.1s-1.6.8-2.6.8ZM512.3,58.5c.5,0,1-.2,1.4-.5.4-.3.7-.8.9-1.4s.3-1.3.3-2-.1-1.4-.3-2-.5-1-.9-1.4-.9-.5-1.5-.5-1,.2-1.4.5-.7.8-.9,1.4c-.2.6-.3,1.3-.3,2s.1,1.4.3,2c.2.6.5,1,.9,1.4.4.3.9.5,1.4.5Z" style="fill:#fff; stroke-width:0px;"/><path d="M518.1,59l3.6-3.2c.5-.5.9-.9,1.2-1.2s.5-.6.7-1c.2-.3.3-.6.3-1s0-.6-.2-.9c-.2-.3-.4-.5-.6-.6-.3-.1-.6-.2-.9-.2s-.7,0-1,.2c-.3.2-.5.4-.7.8-.2.4-.3.8-.3,1.4h-2c0-.8.1-1.4.4-2.1s.7-1.2,1.3-1.6c.6-.4,1.3-.6,2.2-.6s1.5.2,2,.5c.6.3,1,.7,1.3,1.3s.5,1.1.5,1.8,0,.9-.2,1.3-.4.8-.7,1.2c-.3.4-.7.8-1.2,1.2l-2.7,2.4.9-.2h4.1v1.7h-8v-1.1Z" style="fill:#fff; stroke-width:0px;"/><path d="M531.3,60.4c-.7,0-1.3-.1-1.9-.4s-1.1-.6-1.5-1.2c-.4-.5-.6-1.2-.7-2.1h1.9c0,.4.2.8.4,1,.2.3.5.5.8.6.3.1.6.2.9.2s.7,0,1.1-.3c.3-.2.6-.4.7-.7.2-.3.3-.6.3-1s0-.7-.3-1c-.2-.3-.5-.5-.8-.6-.4-.1-.8-.2-1.3-.2h-2.2s-.9-.7-.9-.7l.7-4.8h6v1.6h-4.3l-.3,2.5h1.6c.8,0,1.5.1,2,.4.6.3,1,.6,1.3,1.1.3.5.5,1.1.5,1.8s-.2,1.3-.5,1.9c-.3.6-.8,1-1.4,1.4s-1.3.5-2.1.5Z" style="fill:#fff; stroke-width:0px;"/><rect x="260.3" y="100.6" width="290.2" height="54" style="fill:#fff; stroke-width:0px;"/><path d="M392.1,117.7v10.5c0,4.8-2.7,7.3-8.2,7.4h-9.2c-5.8,0-8.8-2.6-8.8-8s.2-3.5.7-5.7l4.7.6c-.2,1.7-.4,2.7-.4,3.5,0,2.7,1.6,3.8,5.1,3.8h7.7c2,0,3-1.1,3-3.6v-7.8s5.5-.7,5.5-.7ZM376,119.7l-3.7-3.7,3.6-3.6,2.8,2.7,2.7-2.7,3.7,3.6-3.6,3.7-2.8-2.7-2.8,2.7Z" style="fill:#171a23; stroke-width:0px;"/><path d="M396.4,128.1v-17.6s5.5-.6,5.5-.6v16.3c0,2.5,1,3.6,3,3.6s.4.1.4.4v5.1c0,.2-.1.4-.3.4-5.7,0-8.5-2.5-8.5-7.5Z" style="fill:#171a23; stroke-width:0px;"/><path d="M424.5,127.3c0,5.2-3.2,8.2-8.6,8.2h-11c-.2,0-.4-.2-.4-.4v-5.1c0-.2.1-.4.4-.4h11c1.9,0,3.1-1,3.1-2.5s-1.2-2.5-3-2.5h-7.9l-2.8-4.9,9.9-12.4,4.9,2.8-9.3,9.6h4.9c5.4,0,8.9,3,8.9,7.5Z" style="fill:#171a23; stroke-width:0px;"/><path d="M428.2,128.1v-17.6s5.5-.6,5.5-.6v16.3c0,2.5,1,3.6,3,3.6s.4.1.4.4v5.1c0,.2-.1.4-.3.4-5.7,0-8.5-2.5-8.5-7.5Z" style="fill:#171a23; stroke-width:0px;"/><path d="M449.1,130.1v5.1c0,.2-.1.4-.4.4-2.1,0-3.9-.8-5.4-2.3-1.4,1.5-3.7,2.3-6.8,2.3s-.4-.2-.4-.4v-5.1c0-.2.2-.4.4-.4,2,0,2.9-1.1,2.9-3.6v-4.2s5.5-.6,5.5-.6v7.4c1.1.6,2.2,1,3.7,1s.4.1.4.4ZM442.4,119.1l-3.7-3.6,3.7-3.6,3.7,3.6-3.6,3.6Z" style="fill:#171a23; stroke-width:0px;"/><path d="M479.3,117.7v10.5c0,4.8-2.5,7.4-7.4,7.4s-3.9-.6-5.9-2c-1.4,1.2-3.3,2-5.7,2s-3.5-.7-5.2-2.1c-1.4,1.3-3.5,2.1-6.3,2.1s-.4-.2-.4-.4v-5.1c0-.2.1-.4.4-.4,2,0,2.9-1.1,2.9-3.6v-4.2s5.5-.6,5.5-.6v6.9c0,.4,0,.7,0,1.1.9.4,1.7.5,2.6.5,2,0,3-1.1,3-3.6v-4.2s5.5-.6,5.5-.6v6.9c0,.4,0,.8,0,1.2.9.3,1.7.4,2.7.4,1.9,0,2.9-1.2,2.9-3.6v-7.8l5.5-.6Z" style="fill:#171a23; stroke-width:0px;"/><rect x="45" y="100.6" width="246.2" height="54" style="fill:#ee304c; stroke-width:0px;"/><path d="M116,118.8c-1.6-.3-3.4-.5-5.2-.5s-2.4.1-3.1.4c-.6.3-.9.8-.9,1.4s.4,1.1,1.1,1.5,2,.8,3.9,1.2c2.5.5,4.6,1.1,6.1,1.8,1.5.6,2.7,1.4,3.4,2.4.8,1,1.1,2.2,1.1,3.6,0,2.5-1,4.4-3.1,5.6-2.1,1.3-4.9,1.9-8.6,1.9s-8.5-.6-11.2-1.9l.3-5.9c1.4.6,3,1.1,4.9,1.5,1.9.4,3.9.6,5.9.6s2.9-.2,3.7-.5c.7-.3,1.1-.8,1.1-1.5s-.2-.8-.5-1.1c-.3-.3-.9-.6-1.7-.8-.8-.3-2-.5-3.4-.9-3.4-.7-5.9-1.7-7.5-2.8s-2.4-2.8-2.4-4.9,1-4.2,2.9-5.5c1.9-1.3,4.7-2,8.3-2s7,.5,9.7,1.6l-.4,5.7c-1.2-.5-2.6-1-4.2-1.3Z" style="fill:#fff; stroke-width:0px;"/><path d="M128.9,120.2l1.7,7h.2c.1-2.1.8-3.9,1.9-5.3,1.2-1.4,2.9-2.1,5.2-2.1s3.9.7,5.2,2c1.3,1.4,1.9,3.3,1.9,5.7v10.2h-6.1v-9.6c0-1.1-.3-2-.9-2.6-.6-.6-1.5-.9-2.7-.9s-2.5.5-3.3,1.6c-.8,1-1.2,2.3-1.2,3.8v7.8h-6.1v-17.4h4.2Z" style="fill:#fff; stroke-width:0px;"/><path d="M160.3,131.8h-.2c0,.9-.2,1.9-.7,2.8-.4,1-1.1,1.8-2.1,2.5-1,.7-2.3,1.1-3.9,1.1s-3.4-.5-4.5-1.4-1.6-2.2-1.6-3.8.7-3.2,2-4c1.3-.9,3.1-1.3,5.2-1.3s3.9.2,5.5.5v-.3c0-2-1.3-3-3.8-3s-4.2.4-6.4,1.3l-.5-5c1-.4,2.2-.8,3.5-1,1.3-.3,2.6-.4,3.9-.4,3.2,0,5.6.7,7.1,2,1.5,1.3,2.3,3.2,2.3,5.6v10.4h-4.2l-1.6-5.9ZM154.2,133.1c.5.3,1.1.5,1.8.5s1.9-.3,2.7-.8c.8-.5,1.3-1.4,1.4-2.6v-.4c-1.1-.1-2.1-.2-3-.2s-2.1.2-2.7.5c-.6.3-.9.9-.9,1.5s.2,1,.7,1.4Z" style="fill:#fff; stroke-width:0px;"/><path d="M182.9,124.9c-1-.2-1.9-.3-2.8-.3-1.6,0-2.9.4-3.8,1.1-.9.7-1.4,1.8-1.4,3.3s.5,2.6,1.4,3.3c.9.7,2.2,1.1,3.9,1.1s1.9-.1,2.8-.3c1-.2,1.8-.5,2.6-.8l.3,4.9c-.8.4-1.7.7-2.7.8-1,.2-2.2.3-3.4.3-3.3,0-6-.8-8-2.3-2-1.5-3-3.8-3-7s1-5.4,3-7c2-1.5,4.7-2.3,8-2.3s2.3,0,3.3.3,2,.5,2.8.8l-.3,4.9c-.8-.3-1.7-.6-2.7-.8Z" style="fill:#fff; stroke-width:0px;"/><path d="M194.4,111.5v26.2h-6.1v-26.2h6.1ZM202.3,120.2h7.1l-7.3,8.1,7.3,9.3h-6.7l-7.3-9.3,6.9-8.1Z" style="fill:#fff; stroke-width:0px;"/><path d="M212.9,121.1c1.5-.9,3.6-1.4,6.4-1.4s2.8.1,4.1.3c1.3.2,2.4.5,3.3,1l-.3,4.9c-1-.4-2-.8-3.2-1-1.2-.2-2.4-.4-3.5-.4s-1.4,0-1.8.3-.6.5-.6.9.2.7.6.9c.4.2,1.2.4,2.4.6,2.6.4,4.4,1,5.6,1.8,1.2.9,1.7,2,1.7,3.5s-.8,3.1-2.4,4.1c-1.6,1-3.8,1.5-6.8,1.5s-2.9-.1-4.3-.4c-1.4-.2-2.5-.6-3.6-1l.3-5.2c1.2.6,2.4,1,3.7,1.3,1.3.3,2.5.5,3.7.5s1.6-.1,2-.3c.4-.2.7-.6.7-1s-.2-.8-.7-1.1c-.5-.3-1.2-.5-2.3-.7-2.7-.4-4.5-1-5.6-1.8-1.1-.8-1.7-2-1.7-3.5s.8-3,2.3-3.9Z" style="fill:#fff; stroke-width:0px;"/><polygon points="337.2 100 322 114.7 327.7 91.1 337.2 100" style="fill:#171a23; stroke-width:0px;"/><polygon points="527.9 157.4 512.7 142.8 518.4 166.3 527.9 157.4" style="fill:#171a23; stroke-width:0px;"/><path d="M271,764.2h-3.5l-4.5-8.9h4.2l3.9,8.4h.1l4-8.4h4.2l-7,13.7h-3.7l2.3-4.8Z" style="fill:#fff; stroke-width:0px;"/><path d="M281.1,755.4h7.3l4.6,13.7h-4.1l-.8-2.8h-6.5l-.8,2.8h-4.1l4.6-13.7ZM287.2,763.6l-2.4-7.9h0l-2.4,7.9h4.9Z" style="fill:#fff; stroke-width:0px;"/><path d="M297.8,755.4v10.6h7.6v3h-11.4v-13.7h3.8Z" style="fill:#fff; stroke-width:0px;"/><path d="M310.3,755.4v10.6h7.6v3h-11.4v-13.7h3.8Z" style="fill:#fff; stroke-width:0px;"/><path d="M323,755.4h7.3l4.6,13.7h-4.1l-.8-2.8h-6.5l-.8,2.8h-4.1l4.6-13.7ZM329.1,763.6l-2.4-7.9h0l-2.4,7.9h4.9Z" style="fill:#fff; stroke-width:0px;"/><path d="M240.9,774.1l4.4,13.4h0v-13.4h3.7v13.7h-7.4l-4.4-13.5h0v13.5h-3.7v-13.7h7.4Z" style="fill:#fff; stroke-width:0px;"/><path d="M262.9,774.1v3h-8.1v2.5h6.2v2.6h-6.2v2.5h8.3v3h-12.1v-13.7h11.8Z" style="fill:#fff; stroke-width:0px;"/><path d="M272,780.9l-4,6.9h-4.3l4.6-7-4.3-6.7h4.3l3.8,6.5,3.8-6.5h4.3l-4.3,6.7,4.6,7h-4.3l-4-6.9Z" style="fill:#fff; stroke-width:0px;"/><path d="M285.1,777.1h-4.6v-3h12.9v3h-4.6v10.6h-3.8v-10.6Z" style="fill:#fff; stroke-width:0px;"/><path d="M302.3,774.1v10.6h7.6v3h-11.4v-13.7h3.8Z" style="fill:#fff; stroke-width:0px;"/><path d="M322.9,774.1v3h-8.1v2.5h6.2v2.6h-6.2v2.5h8.3v3h-12.1v-13.7h11.8Z" style="fill:#fff; stroke-width:0px;"/><path d="M335.4,787.7h-7.6l-4.4-13.7h4.1l4.1,13.4h0l4-13.4h4.1l-4.4,13.7Z" style="fill:#fff; stroke-width:0px;"/><path d="M352.7,774.1v3h-8.1v2.5h6.2v2.6h-6.2v2.5h8.3v3h-12.1v-13.7h11.8Z" style="fill:#fff; stroke-width:0px;"/><path d="M357.9,774.1v10.6h7.6v3h-11.4v-13.7h3.8Z" style="fill:#fff; stroke-width:0px;"/><path d="M337.6,756.1h-1.3v-.7h3.5v.7h-1.3v3.8h-.8v-3.8Z" style="fill:#fff; stroke-width:0px;"/><path d="M340.4,755.4h.7l1.5,2.1h0s1.6-2.1,1.6-2.1h.7v4.5h-.8v-3.2l-1.3,1.8h-.2l-1.3-1.8v3.2h-.8v-4.5Z" style="fill:#fff; stroke-width:0px;"/></svg>