<?xml version="1.0" encoding="UTF-8"?><svg id="Layer_1" xmlns="http://www.w3.org/2000/svg" viewBox="0 0 597.1 841.3"><rect x="-7143.3" y="-1.7" width="7740.4" height="845.9" style="fill:#171a23; stroke-width:0px;"/><path d="M51.3,49.7h0v9.8h-2.9v-10.5h5.3l1.9,10.3h0l1.9-10.3h5.3v10.5h-2.9v-9.8h0l-1.9,9.8h-4.9l-1.9-9.8Z" style="fill:#fff; stroke-width:0px;"/><path d="M73.6,49v2.3h-6.2v1.9h4.7v2h-4.7v1.9h6.4v2.3h-9.2v-10.5h9.1Z" style="fill:#fff; stroke-width:0px;"/><path d="M80.4,49l3.4,10.2h0v-10.2h2.8v10.5h-5.7l-3.4-10.3h0v10.3h-2.8v-10.5h5.7Z" style="fill:#fff; stroke-width:0px;"/><path d="M97.7,58.5c-1,.8-2.4,1.2-4.2,1.2s-3.2-.4-4.2-1.2c-1-.8-1.5-2-1.5-3.5v-6h2.9v6c0,.8.2,1.4.7,1.8.5.4,1.1.6,2,.6s1.6-.2,2-.6c.5-.4.7-1,.7-1.8v-6h2.9v6c0,1.5-.5,2.7-1.5,3.5Z" style="fill:#fff; stroke-width:0px;"/><path d="M109.1,49l3.4,10.2h0v-10.2h2.8v10.5h-5.7l-3.4-10.3h0v10.3h-2.8v-10.5h5.7Z" style="fill:#fff; stroke-width:0px;"/><path d="M126,49v2.3h-6.2v1.9h4.7v2h-4.7v1.9h6.4v2.3h-9.2v-10.5h9.1Z" style="fill:#fff; stroke-width:0px;"/><path d="M132.9,54.2l-3.1,5.3h-3.3l3.5-5.4-3.3-5.1h3.3l2.9,5,2.9-5h3.3l-3.3,5.1,3.5,5.4h-3.3l-3.1-5.3Z" style="fill:#fff; stroke-width:0px;"/><path d="M142.9,51.3h-3.5v-2.3h9.9v2.3h-3.5v8.1h-2.9v-8.1Z" style="fill:#fff; stroke-width:0px;"/><path d="M156.1,49v8.1h5.8v2.3h-8.7v-10.5h2.9Z" style="fill:#fff; stroke-width:0px;"/><path d="M171.9,49v2.3h-6.2v1.9h4.7v2h-4.7v1.9h6.4v2.3h-9.2v-10.5h9.1Z" style="fill:#fff; stroke-width:0px;"/><path d="M181.5,59.4h-5.8l-3.4-10.5h3.2l3.1,10.3h0l3.1-10.3h3.2l-3.4,10.5Z" style="fill:#fff; stroke-width:0px;"/><path d="M194.7,49v2.3h-6.2v1.9h4.7v2h-4.7v1.9h6.4v2.3h-9.2v-10.5h9.1Z" style="fill:#fff; stroke-width:0px;"/><path d="M198.7,49v8.1h5.8v2.3h-8.7v-10.5h2.9Z" style="fill:#fff; stroke-width:0px;"/><path d="M545,53.1c.3-.2.7-.3,1.1-.3s.6,0,.8.2c.3.1.5.3.7.5.2.2.3.5.4.8h1.2c0-.5-.3-1-.6-1.4-.3-.4-.7-.6-1.1-.8s-.9-.3-1.3-.3-1.2.1-1.7.4-.9.7-1.2,1.2c-.3.5-.4,1.1-.4,1.7s.1,1.2.4,1.7c.3.5.7.9,1.2,1.2s1.1.4,1.7.4.9,0,1.3-.3c.4-.2.8-.5,1.1-.8.3-.4.5-.8.6-1.4h-1.2c0,.3-.2.6-.4.8-.2.2-.4.4-.7.5-.3.1-.5.2-.8.2s-.8,0-1.1-.3c-.3-.2-.6-.4-.8-.8-.2-.3-.3-.7-.3-1.2s0-.8.3-1.2c.2-.3.4-.6.8-.8Z" style="fill:#fff; stroke-width:0px;"/><path d="M546.1,49.5c-3.1,0-5.6,2.5-5.6,5.6s2.5,5.6,5.6,5.6,5.6-2.5,5.6-5.6-2.5-5.6-5.6-5.6ZM546.1,60c-2.7,0-4.8-2.2-4.8-4.8s2.2-4.8,4.8-4.8,4.8,2.2,4.8,4.8-2.2,4.8-4.8,4.8Z" style="fill:#fff; stroke-width:0px;"/><path d="M498.9,59.5l3.6-3.2c.5-.5.9-.9,1.2-1.2s.5-.6.7-1c.2-.3.3-.6.3-1s0-.6-.2-.9-.4-.5-.6-.6c-.3-.1-.6-.2-.9-.2s-.7,0-1,.2c-.3.2-.5.4-.7.8-.2.4-.3.8-.3,1.4h-2c0-.8.1-1.4.4-2.1s.7-1.2,1.3-1.6,1.3-.6,2.2-.6,1.5.2,2,.5c.6.3,1,.7,1.3,1.3.3.5.5,1.1.5,1.8s0,.9-.2,1.3-.4.8-.7,1.2c-.3.4-.7.8-1.2,1.2l-2.7,2.4.9-.2h4.1v1.7h-8v-1.1Z" style="fill:#fff; stroke-width:0px;"/><path d="M512.6,60.9c-1,0-1.9-.3-2.6-.8s-1.2-1.2-1.6-2c-.4-.9-.5-1.8-.5-2.9s.2-2.1.5-2.9c.4-.9.9-1.6,1.6-2.1.7-.5,1.5-.8,2.5-.8s2,.3,2.7.8c.7.5,1.2,1.2,1.5,2.1.3.9.5,1.8.5,2.8s-.2,2-.5,2.9c-.4.9-.9,1.5-1.6,2.1s-1.6.8-2.6.8ZM512.6,59c.5,0,1-.2,1.4-.5.4-.3.7-.8.9-1.4s.3-1.3.3-2-.1-1.4-.3-2-.5-1-.9-1.4-.9-.5-1.5-.5-1,.2-1.4.5-.7.8-.9,1.4c-.2.6-.3,1.3-.3,2s.1,1.4.3,2c.2.6.5,1,.9,1.4.4.3.9.5,1.4.5Z" style="fill:#fff; stroke-width:0px;"/><path d="M518.4,59.5l3.6-3.2c.5-.5.9-.9,1.2-1.2s.5-.6.7-1c.2-.3.3-.6.3-1s0-.6-.2-.9c-.2-.3-.4-.5-.6-.6-.3-.1-.6-.2-.9-.2s-.7,0-1,.2c-.3.2-.5.4-.7.8-.2.4-.3.8-.3,1.4h-2c0-.8.1-1.4.4-2.1s.7-1.2,1.3-1.6c.6-.4,1.3-.6,2.2-.6s1.5.2,2,.5c.6.3,1,.7,1.3,1.3s.5,1.1.5,1.8,0,.9-.2,1.3-.4.8-.7,1.2c-.3.4-.7.8-1.2,1.2l-2.7,2.4.9-.2h4.1v1.7h-8v-1.1Z" style="fill:#fff; stroke-width:0px;"/><path d="M531.7,60.9c-.7,0-1.3-.1-1.9-.4s-1.1-.6-1.5-1.2c-.4-.5-.6-1.2-.7-2.1h1.9c0,.4.2.8.4,1,.2.3.5.5.8.6.3.1.6.2.9.2s.7,0,1.1-.3c.3-.2.6-.4.7-.7.2-.3.3-.6.3-1s0-.7-.3-1c-.2-.3-.5-.5-.8-.6-.4-.1-.8-.2-1.3-.2h-2.2s-.9-.7-.9-.7l.7-4.8h6v1.6h-4.3l-.3,2.5h1.6c.8,0,1.5.1,2,.4.6.3,1,.6,1.3,1.1.3.5.5,1.1.5,1.8s-.2,1.3-.5,1.9c-.3.6-.8,1-1.4,1.4s-1.3.5-2.1.5Z" style="fill:#fff; stroke-width:0px;"/><rect x="260.6" y="101.1" width="290.2" height="54" style="fill:#fff; stroke-width:0px;"/><path d="M378,132.6v5.1c0,.2-.1.4-.4.4-1.6,0-2.9-.5-3.9-1.6-.6,5.7-4.3,9.2-10.8,9.2s-10.5-3.1-10.5-9.4.5-5.1,1.5-8.2l4.4,1.2c-.6,2-1,3.7-1,5.4,0,3.5,1.9,5.2,5.6,5.2s5.4-1.9,5.3-5.8v-21.3l5.5-.6v17c0,1.9,1.7,3.2,3.8,3.2s.4.1.4.4Z" style="fill:#171a23; stroke-width:0px;"/><path d="M384.9,132.6v5.1c0,.2-.1.4-.4.4h-6.8c-.2,0-.4-.2-.4-.4v-5.1c0-.2.1-.4.4-.4h6.8c.2,0,.4.1.4.4Z" style="fill:#171a23; stroke-width:0px;"/><path d="M391.7,132.6v5.1c0,.2-.1.4-.4.4h-6.8c-.2,0-.4-.2-.4-.4v-5.1c0-.2.1-.4.4-.4h6.8c.2,0,.4.1.4.4Z" style="fill:#171a23; stroke-width:0px;"/><path d="M405.4,132.6v5.1c0,.2-.1.4-.4.4-1.9,0-3.9-1-5.5-2.6-1.6,1.8-4.4,2.6-8.1,2.6s-.4-.2-.4-.4v-5.1c0-.2.2-.4.4-.4,2.8,0,4.2-1.1,4.2-3.6v-4.2s5.5-.6,5.5-.6v7.3c1.2.7,2.5,1.1,3.9,1.1s.4.1.4.4ZM400.7,139.8l3.7,3.6-3.6,3.6-2.6-2.5-2.5,2.5-3.7-3.6,3.6-3.6,2.6,2.5,2.5-2.5Z" style="fill:#171a23; stroke-width:0px;"/><path d="M412.2,132.6v5.1c0,.2-.1.4-.4.4h-6.8c-.2,0-.4-.2-.4-.4v-5.1c0-.2.1-.4.4-.4h6.8c.2,0,.4.1.4.4Z" style="fill:#171a23; stroke-width:0px;"/><path d="M419,132.6v5.1c0,.2-.1.4-.4.4h-6.8c-.2,0-.4-.2-.4-.4v-5.1c0-.2.1-.4.4-.4h6.8c.2,0,.4.1.4.4Z" style="fill:#171a23; stroke-width:0px;"/><path d="M438.3,129.8c0,5.2-3.2,8.2-8.6,8.2h-11c-.2,0-.4-.2-.4-.4v-5.1c0-.2.1-.4.4-.4h11c1.9,0,3.1-1,3.1-2.5s-1.2-2.5-3-2.5h-7.9l-2.8-4.9,9.9-12.4,4.9,2.8-9.3,9.6h4.9c5.4,0,8.9,3,8.9,7.5Z" style="fill:#171a23; stroke-width:0px;"/><path d="M441.7,112.9l5.5-.6v25.7h-5.5v-25.1Z" style="fill:#171a23; stroke-width:0px;"/><path d="M449.1,141.1c2.9,0,4.9-1.1,4.9-4.2v-16.1s5.5-.7,5.5-.7v17.1c0,6.1-3.3,8.4-10,8.4l-.4-4.5Z" style="fill:#171a23; stroke-width:0px;"/><path d="M482.1,112.3v18.3c0,5-2.8,7.5-8.5,7.5h-11.1l-.8-5.8h6.1l-2.7-13.9,5.4-1.4,2.4,15.3h.8c2,0,2.9-1.1,2.9-3.6v-15.7s5.5-.6,5.5-.6Z" style="fill:#171a23; stroke-width:0px;"/><path d="M487,112.9l5.5-.6v25.7h-5.5v-25.1Z" style="fill:#171a23; stroke-width:0px;"/><path d="M443.7,258.9c-1.9.7-3.3,1.1-4.8,1.1-3,0-5-1.4-5-4s.6-2.7,2.2-3.7c-1-1.1-1.4-2.2-1.4-3.5,0-2.1,1.7-3.7,4.2-3.7s2,.2,3.5.8l-.8,2.4c-1.1-.3-1.7-.4-2.3-.4-1.3,0-2.1.7-2.1,1.7s.3,1.3.9,1.9c.2,0,.5-.1.7-.2l3.5-.9v2.7c.1,0-3.1.7-3.1.7-2.2.5-2.8,1.2-2.8,1.9s1,1.5,2.7,1.5,2.4-.2,3.6-.6l.8,2.4Z" style="fill:#fff; stroke-width:0px;"/><path d="M445.2,251.1v-9.1s2.8-.3,2.8-.3v8.4c0,1.3.5,1.9,1.5,1.9s.2,0,.2.2v2.6c0,.1,0,.2-.2.2-2.9,0-4.4-1.3-4.4-3.9Z" style="fill:#fff; stroke-width:0px;"/><path d="M453.3,252.1v2.6c0,.1,0,.2-.2.2h-3.5c-.1,0-.2,0-.2-.2v-2.6c0-.1,0-.2.2-.2h3.5c.1,0,.2,0,.2.2Z" style="fill:#fff; stroke-width:0px;"/><path d="M456.8,252.1v2.6c0,.1,0,.2-.2.2h-3.5c-.1,0-.2,0-.2-.2v-2.6c0-.1,0-.2.2-.2h3.5c.1,0,.2,0,.2.2Z" style="fill:#fff; stroke-width:0px;"/><path d="M460.4,252.1v2.6c0,.1,0,.2-.2.2h-3.5c-.1,0-.2,0-.2-.2v-2.6c0-.1,0-.2.2-.2h3.5c.1,0,.2,0,.2.2Z" style="fill:#fff; stroke-width:0px;"/><path d="M463.9,252.1v2.6c0,.1,0,.2-.2.2h-3.5c-.1,0-.2,0-.2-.2v-2.6c0-.1,0-.2.2-.2h3.5c.1,0,.2,0,.2.2Z" style="fill:#fff; stroke-width:0px;"/><path d="M470.2,252.1v2.6c0,.1,0,.2-.2.2-1.1,0-2-.4-2.8-1.2-.7.8-1.9,1.2-3.5,1.2s-.2,0-.2-.2v-2.6c0-.1.1-.2.2-.2,1,0,1.5-.6,1.5-1.9v-2.2s2.8-.3,2.8-.3v3.9c.5.3,1.2.5,1.9.5s.2,0,.2.2ZM466.8,246.5l-1.9-1.9,1.9-1.9,1.9,1.9-1.9,1.9Z" style="fill:#fff; stroke-width:0px;"/><path d="M481.1,252.1v2.6c0,.1,0,.2-.2.2-2,0-3.5-.4-4.9-1.2-1.8.9-3.2,1.2-5.9,1.2-.1,0-.2,0-.2-.2v-2.6c0-.1,0-.2.2-.2,1,0,1.8,0,2.5-.1-.7-.9-1.3-1.9-2-3.3l.9-2.2c1.8-.9,3.1-1.2,4.5-1.2,2.5,0,4.3,1.4,4.3,3.5s-.4,2.2-1.5,3.2c.6,0,1.3.1,2.2.1s.2,0,.2.2ZM473.1,248.4c.7,1.5,1.4,2.5,2.3,3.4,1.5-.5,2.3-1.5,2.3-2.3s-.8-1.6-2.1-1.6c-.7,0-1.5.1-2.5.5Z" style="fill:#fff; stroke-width:0px;"/><path d="M480.8,254.8v-2.6c0-.1.1-.2.2-.2,1,0,1.5-.6,1.5-1.9v-4s2.8-.3,2.8-.3v5.4c0,2.5-1.4,3.8-4.4,3.8s-.2,0-.2-.2ZM482,242.5l1.9-1.9,1.9,1.9-1.9,1.9-1.9-1.9Z" style="fill:#fff; stroke-width:0px;"/><path d="M495.6,250.3v4.3c0,3.2-3.1,4.3-7.5,4.3l-.3-2.3c3.4,0,4.9-.5,5-2-.6.2-1.1.4-1.7.4-2.5,0-4.2-1.8-4.2-4.5s2-4.7,4.5-4.7,4.3,1.7,4.3,4.6ZM491.3,252.1c.4,0,.9,0,1.4-.2v-1.5c0-1.2-.7-1.9-1.7-1.9s-1.7.7-1.7,1.7.8,1.8,1.9,1.8Z" style="fill:#fff; stroke-width:0px;"/><path d="M511.1,252.1v2.6c0,.1,0,.2-.2.2-1.2,0-2-.2-2.7-.7-1.1.6-2.1.8-3.1.8-2.6,0-4.4-2-4.4-4.6s1.8-4.8,4.4-4.8,1.2.1,1.8.3v-1l2.8-.3v6.1c0,.8.4,1.1,1,1.1s.2,0,.2.2ZM503.8,244.5l-1.9-1.9,1.9-1.9,1.4,1.4,1.4-1.4,1.9,1.9-1.9,1.9-1.5-1.4-1.4,1.4ZM507,252c0-.2,0-.5,0-.8v-2.4c-.6-.2-1.2-.3-1.7-.3-1.2,0-1.9.8-1.9,1.9s.7,1.8,1.8,1.8c.7,0,1.3,0,1.9-.3Z" style="fill:#fff; stroke-width:0px;"/><path d="M514.6,252.1v2.6c0,.1,0,.2-.2.2h-3.5c-.1,0-.2,0-.2-.2v-2.6c0-.1,0-.2.2-.2h3.5c.1,0,.2,0,.2.2Z" style="fill:#fff; stroke-width:0px;"/><path d="M518.1,252.1v2.6c0,.1,0,.2-.2.2h-3.5c-.1,0-.2,0-.2-.2v-2.6c0-.1,0-.2.2-.2h3.5c.1,0,.2,0,.2.2Z" style="fill:#fff; stroke-width:0px;"/><path d="M529.9,252.1v2.6c0,.1,0,.2-.2.2-1.1,0-2-.4-2.8-1.1-.8.7-1.9,1.1-3.3,1.1h-5.7c-.1,0-.2,0-.2-.2v-2.6c0-.1,0-.2.2-.2h5.7c1,0,1.6-.5,1.6-1.3s-.6-1.3-1.6-1.3h-4.1l-1.5-2.6,5.2-6.4,2.5,1.4-4.8,5h2.5c2.8,0,4.6,1.5,4.6,3.9s0,.6,0,.9c.5.3,1,.4,1.7.4s.2,0,.2.2Z" style="fill:#fff; stroke-width:0px;"/><path d="M535.9,254.8c0,.1,0,.2-.2.2-1.6,0-2.8-.4-3.5-1.2-.8.8-1.6,1.2-2.5,1.2s-.2,0-.2-.2v-2.6c0-.1,0-.2.2-.2.7,0,1.2-.2,1.6-.5,0-.1,0-.3,0-.4v-9.1s2.8-.3,2.8-.3v8.4c0,1.3.5,1.9,1.5,1.9s.2,0,.2.2v2.6Z" style="fill:#fff; stroke-width:0px;"/><path d="M545.5,251.2l-.6,3c-2.4.5-5,.7-9.1.7s-.2,0-.2-.2v-2.6c0-.1,0-.2.2-.2h1.3c-.4-.9-.6-1.7-.6-2.6,0-2.1,1.7-3.7,4.2-3.7s2.1.3,3.6.8l-.8,2.4c-1.1-.3-1.8-.4-2.4-.4-1.3,0-2.1.7-2.1,1.7s.2,1.1.5,1.7c2-.1,3.8-.3,6-.7Z" style="fill:#fff; stroke-width:0px;"/><path d="M444.2,304.5c-1.9.7-3.3,1.1-4.8,1.1-3,0-5-1.4-5-4s.6-2.7,2.2-3.7c-1-1.1-1.4-2.2-1.4-3.5,0-2.1,1.7-3.7,4.2-3.7s2,.2,3.5.8l-.8,2.4c-1.1-.3-1.7-.4-2.3-.4-1.3,0-2.1.7-2.1,1.7s.3,1.3.9,1.9c.2,0,.5-.1.7-.2l3.5-.9v2.7c.1,0-3.1.7-3.1.7-2.2.5-2.8,1.2-2.8,1.9s1,1.5,2.7,1.5,2.4-.2,3.6-.6l.8,2.4Z" style="fill:#fff; stroke-width:0px;"/><path d="M445.7,296.6v-9.1s2.8-.3,2.8-.3v8.4c0,1.3.5,1.9,1.5,1.9s.2,0,.2.2v2.6c0,.1,0,.2-.2.2-2.9,0-4.4-1.3-4.4-3.9Z" style="fill:#fff; stroke-width:0px;"/><path d="M453.8,297.7v2.6c0,.1,0,.2-.2.2h-3.5c-.1,0-.2,0-.2-.2v-2.6c0-.1,0-.2.2-.2h3.5c.1,0,.2,0,.2.2Z" style="fill:#fff; stroke-width:0px;"/><path d="M457.3,297.7v2.6c0,.1,0,.2-.2.2h-3.5c-.1,0-.2,0-.2-.2v-2.6c0-.1,0-.2.2-.2h3.5c.1,0,.2,0,.2.2Z" style="fill:#fff; stroke-width:0px;"/><path d="M460.9,297.7v2.6c0,.1,0,.2-.2.2h-3.5c-.1,0-.2,0-.2-.2v-2.6c0-.1,0-.2.2-.2h3.5c.1,0,.2,0,.2.2Z" style="fill:#fff; stroke-width:0px;"/><path d="M467.2,297.7v2.6c0,.1,0,.2-.2.2-1.1,0-2-.4-2.8-1.2-.7.8-1.9,1.2-3.5,1.2s-.2,0-.2-.2v-2.6c0-.1.1-.2.2-.2,1,0,1.5-.6,1.5-1.9v-2.2s2.8-.3,2.8-.3v3.9c.5.3,1.2.5,1.9.5s.2,0,.2.2ZM463.7,292l-1.9-1.9,1.9-1.9,1.9,1.9-1.9,1.9Z" style="fill:#fff; stroke-width:0px;"/><path d="M478,297.7v2.6c0,.1,0,.2-.2.2-2,0-3.5-.4-4.9-1.2-1.8.9-3.2,1.2-5.9,1.2-.1,0-.2,0-.2-.2v-2.6c0-.1,0-.2.2-.2,1,0,1.8,0,2.5-.1-.7-.9-1.3-1.9-2-3.3l.9-2.2c1.8-.9,3.1-1.2,4.5-1.2,2.5,0,4.3,1.4,4.3,3.5s-.4,2.2-1.5,3.2c.6,0,1.3.1,2.2.1s.2,0,.2.2ZM470,294c.8,1.5,1.4,2.5,2.3,3.4,1.5-.5,2.3-1.5,2.3-2.3s-.8-1.6-2.1-1.6c-.7,0-1.5.1-2.5.5Z" style="fill:#fff; stroke-width:0px;"/><path d="M477.7,300.3v-2.6c0-.1.1-.2.2-.2,1,0,1.5-.6,1.5-1.9v-4s2.8-.3,2.8-.3v5.4c0,2.5-1.4,3.8-4.4,3.8s-.2,0-.2-.2ZM478.9,288l1.9-1.9,1.9,1.9-1.9,1.9-1.9-1.9Z" style="fill:#fff; stroke-width:0px;"/><path d="M492.5,295.8v4.3c0,3.2-3.1,4.3-7.5,4.3l-.3-2.3c3.4,0,4.9-.5,4.9-2-.6.2-1.1.4-1.7.4-2.5,0-4.2-1.8-4.2-4.5s2-4.7,4.5-4.7,4.3,1.7,4.3,4.6ZM488.2,297.6c.4,0,.9,0,1.4-.2v-1.5c0-1.2-.7-1.9-1.7-1.9s-1.7.7-1.7,1.7.8,1.8,1.9,1.8Z" style="fill:#fff; stroke-width:0px;"/><path d="M497.7,299.5c0-1.2.3-2.6.8-4.3l2.3.6c-.3,1-.5,1.9-.5,2.8,0,1.8,1,2.7,2.9,2.7s2.8-1,2.8-3v-6.8l2.8-.3v7.6c0,3.5-2,5.6-5.6,5.6s-5.5-1.6-5.5-4.9ZM500.8,291.3l1.9-1.9,1.9,1.9-1.9,1.9-1.9-1.9Z" style="fill:#fff; stroke-width:0px;"/><path d="M520.1,297.7v2.6c0,.1,0,.2-.2.2h-.9c-.3,2.8-3.2,3.9-7.5,3.9l-.3-2.3c3.1,0,4.6-.4,4.9-1.6h-1.5c-2.6,0-4.3-1.8-4.3-4.5s2-4.7,4.5-4.7,4.3,1.7,4.3,4.6v1.7h.9c.1,0,.2,0,.2.2ZM514.9,297.6c.4,0,.9,0,1.4,0v-1.6c0-1.2-.7-1.9-1.7-1.9s-1.7.7-1.7,1.7.9,1.8,2,1.8Z" style="fill:#fff; stroke-width:0px;"/><path d="M530.6,297.7v2.6c0,.1,0,.2-.2.2h-4.3c-1.3,0-2.4-.3-3.2-.9-.9.6-2,.9-3,.9s-.2,0-.2-.2v-2.6c0-.1,0-.2.2-.2.5,0,.9,0,1.3-.2-.2-.5-.3-1.1-.3-1.8,0-2.5,1.9-4.4,4.5-4.4s4.3,1.8,4.3,4.1-.1,1.4-.4,2.2h1c.1,0,.2,0,.2.2ZM527,297.5c.2-.7.3-1.4.3-1.9,0-1-.8-1.8-1.7-1.8s-1.7.7-1.7,1.7.8,2,2.3,2h.9Z" style="fill:#fff; stroke-width:0px;"/><path d="M537.7,297.7v2.6c0,.1,0,.2-.2.2-1,0-2-.5-2.9-1.4-.8.9-2.3,1.4-4.2,1.4s-.2,0-.2-.2v-2.6c0-.1.1-.2.2-.2,1.4,0,2.2-.5,2.2-1.9v-2.2s2.8-.3,2.8-.3v3.8c.6.4,1.3.6,2,.6s.2,0,.2.2ZM535.3,301.4l1.9,1.9-1.9,1.9-1.3-1.3-1.3,1.3-1.9-1.9,1.9-1.9,1.3,1.3,1.3-1.3Z" style="fill:#fff; stroke-width:0px;"/><path d="M537.3,300.3v-2.6c0-.1,0-.2.2-.2,1,0,1.5-.6,1.5-1.9v-8.1s2.9-.3,2.9-.3v9.5c0,2.6-1.5,3.9-4.4,3.9s-.2,0-.2-.2Z" style="fill:#fff; stroke-width:0px;"/><path d="M448.1,341.8v2.6c0,.1,0,.2-.2.2-.8,0-1.5-.3-2-.8-.3,3-2.2,4.7-5.6,4.7s-5.5-1.6-5.5-4.9.3-2.6.8-4.3l2.3.6c-.3,1-.5,1.9-.5,2.8,0,1.8,1,2.7,2.9,2.7s2.8-1,2.8-3v-6.8l2.8-.3v4.6c0,1.1.8,1.7,1.9,1.7s.2,0,.2.2ZM439.9,337.3l-1.9-1.9,1.9-1.9,1.9,1.9-1.9,1.9Z" style="fill:#fff; stroke-width:0px;"/><path d="M451.6,341.8v2.6c0,.1,0,.2-.2.2h-3.5c-.1,0-.2,0-.2-.2v-2.6c0-.1,0-.2.2-.2h3.5c.1,0,.2,0,.2.2Z" style="fill:#fff; stroke-width:0px;"/><path d="M455.1,341.8v2.6c0,.1,0,.2-.2.2h-3.5c-.1,0-.2,0-.2-.2v-2.6c0-.1,0-.2.2-.2h3.5c.1,0,.2,0,.2.2Z" style="fill:#fff; stroke-width:0px;"/><path d="M458.7,341.8v2.6c0,.1,0,.2-.2.2h-3.5c-.1,0-.2,0-.2-.2v-2.6c0-.1,0-.2.2-.2h3.5c.1,0,.2,0,.2.2Z" style="fill:#fff; stroke-width:0px;"/><path d="M462.2,341.8v2.6c0,.1,0,.2-.2.2h-3.5c-.1,0-.2,0-.2-.2v-2.6c0-.1,0-.2.2-.2h3.5c.1,0,.2,0,.2.2Z" style="fill:#fff; stroke-width:0px;"/><path d="M465.8,341.8v2.6c0,.1,0,.2-.2.2h-3.5c-.1,0-.2,0-.2-.2v-2.6c0-.1,0-.2.2-.2h3.5c.1,0,.2,0,.2.2Z" style="fill:#fff; stroke-width:0px;"/><path d="M469.3,341.8v2.6c0,.1,0,.2-.2.2h-3.5c-.1,0-.2,0-.2-.2v-2.6c0-.1,0-.2.2-.2h3.5c.1,0,.2,0,.2.2Z" style="fill:#fff; stroke-width:0px;"/><path d="M472.9,341.8v2.6c0,.1,0,.2-.2.2h-3.5c-.1,0-.2,0-.2-.2v-2.6c0-.1,0-.2.2-.2h3.5c.1,0,.2,0,.2.2Z" style="fill:#fff; stroke-width:0px;"/><path d="M476.4,341.8v2.6c0,.1,0,.2-.2.2h-3.5c-.1,0-.2,0-.2-.2v-2.6c0-.1,0-.2.2-.2h3.5c.1,0,.2,0,.2.2Z" style="fill:#fff; stroke-width:0px;"/><path d="M483.5,341.8v2.6c0,.1,0,.2-.2.2-1,0-2-.5-2.9-1.4-.8.9-2.3,1.4-4.2,1.4s-.2,0-.2-.2v-2.6c0-.1.1-.2.2-.2,1.4,0,2.2-.5,2.2-1.9v-2.2s2.8-.3,2.8-.3v3.8c.6.4,1.3.6,2,.6s.2,0,.2.2ZM481.1,345.5l1.9,1.9-1.9,1.9-1.3-1.3-1.3,1.3-1.9-1.9,1.9-1.9,1.3,1.3,1.3-1.3Z" style="fill:#fff; stroke-width:0px;"/><path d="M487,341.8v2.6c0,.1,0,.2-.2.2h-3.5c-.1,0-.2,0-.2-.2v-2.6c0-.1,0-.2.2-.2h3.5c.1,0,.2,0,.2.2Z" style="fill:#fff; stroke-width:0px;"/><path d="M494.1,341.8v2.6c0,.1,0,.2-.2.2-1,0-2-.5-2.9-1.4-.8.9-2.3,1.4-4.2,1.4s-.2,0-.2-.2v-2.6c0-.1.1-.2.2-.2,1.4,0,2.2-.5,2.2-1.9v-2.2s2.8-.3,2.8-.3v3.8c.6.4,1.3.6,2,.6s.2,0,.2.2ZM489,336.3l-1.9-1.9,1.9-1.9,1.4,1.4,1.4-1.4,1.9,1.9-1.9,1.9-1.5-1.4-1.4,1.4Z" style="fill:#fff; stroke-width:0px;"/><path d="M504.4,339l-.6,2.9c-3.6,2-6,2.7-9.9,2.7s-.2,0-.2-.2v-2.6c0-.1,0-.2.2-.2,3.5,0,5.4-.3,7.5-1.2-2.4-1.7-3.4-2.2-4.6-2.2s-1,.1-1.8.3l-.5-2.5c1-.4,1.8-.6,2.6-.6,1.6,0,3,.7,7.2,3.6Z" style="fill:#fff; stroke-width:0px;"/><path d="M506,340.7v-9.1s2.8-.3,2.8-.3v8.4c0,1.3.5,1.9,1.5,1.9s.2,0,.2.2v2.6c0,.1,0,.2-.2.2-2.9,0-4.4-1.3-4.4-3.9Z" style="fill:#fff; stroke-width:0px;"/><path d="M514.1,341.8v2.6c0,.1,0,.2-.2.2h-3.5c-.1,0-.2,0-.2-.2v-2.6c0-.1,0-.2.2-.2h3.5c.1,0,.2,0,.2.2Z" style="fill:#fff; stroke-width:0px;"/><path d="M517.7,341.8v2.6c0,.1,0,.2-.2.2h-3.5c-.1,0-.2,0-.2-.2v-2.6c0-.1,0-.2.2-.2h3.5c.1,0,.2,0,.2.2Z" style="fill:#fff; stroke-width:0px;"/><path d="M521.2,341.8v2.6c0,.1,0,.2-.2.2h-3.5c-.1,0-.2,0-.2-.2v-2.6c0-.1,0-.2.2-.2h3.5c.1,0,.2,0,.2.2Z" style="fill:#fff; stroke-width:0px;"/><path d="M524.8,341.8v2.6c0,.1,0,.2-.2.2h-3.5c-.1,0-.2,0-.2-.2v-2.6c0-.1,0-.2.2-.2h3.5c.1,0,.2,0,.2.2Z" style="fill:#fff; stroke-width:0px;"/><path d="M534.9,341.8v2.6c0,.1,0,.2-.2.2-1.4,0-3.1-.3-4.8-.9-1.6.6-3.5.9-5.3.9-.1,0-.2,0-.2-.2v-2.6c0-.1,0-.2.2-.2.6,0,1.2,0,1.8,0-.5-.7-.8-1.5-.8-2.4,0-2.2,1.6-3.9,4.1-3.9s4.2,1.9,4.2,3.9-.3,1.7-.9,2.3c.5,0,1.1.1,1.7.1s.2,0,.2.2ZM529.5,334l-1.9-1.9,1.9-1.9,1.9,1.9-1.9,1.9ZM528,339.5c0,.8.6,1.6,1.6,2,1-.4,1.6-1.2,1.6-2s-.8-1.6-1.6-1.6-1.6.7-1.6,1.6Z" style="fill:#fff; stroke-width:0px;"/><path d="M537.8,335.7l2.8-.3v5.4c0,2.5-1.4,3.8-4.4,3.8h-1.5c-.1,0-.2,0-.2-.2v-2.6c0-.1.1-.2.2-.2h1.5c1,0,1.5-.6,1.5-1.9v-4ZM537.7,334.3l-1.9-1.9,1.9-1.9,1.4,1.4,1.4-1.4,1.9,1.9-1.9,1.9-1.4-1.4-1.4,1.4Z" style="fill:#fff; stroke-width:0px;"/><path d="M450.5,488.5v7.4l-2.8.3v-6.2h-1c-1,0-1.5.6-1.5,1.8v2.7c0,3.5-1.6,5.4-5.6,5.4s-5.5-1.6-5.5-4.9.3-2.6.8-4.3l2.3.6c-.3,1-.5,1.9-.5,2.8,0,1.8,1,2.7,2.9,2.7s2.8-.8,2.8-2.8v-3c0-2.5,1.3-4.1,3.8-4.1h2.8l1.7,1.5ZM441.9,500.7l1.9,1.9-1.9,1.9-1.3-1.3-1.3,1.3-1.9-1.9,1.9-1.9,1.3,1.3,1.3-1.3Z" style="fill:#fff; stroke-width:0px;"/><path d="M458.5,493.2v2.6c0,.1,0,.2-.2.2-.8,0-1.4-.3-1.9-.7v.3c0,3.2-1.7,4.3-5.2,4.3l-.2-2.3c1.5,0,2.6-.6,2.6-2.2v-8.4s2.8-.3,2.8-.3v4.9c.1.9.9,1.3,1.9,1.3s.2,0,.2.2ZM455,485.9l-1.9-1.9,1.9-1.9,1.9,1.9-1.9,1.9Z" style="fill:#fff; stroke-width:0px;"/><path d="M462,493.2v2.6c0,.1,0,.2-.2.2h-3.5c-.1,0-.2,0-.2-.2v-2.6c0-.1,0-.2.2-.2h3.5c.1,0,.2,0,.2.2Z" style="fill:#fff; stroke-width:0px;"/><path d="M465.6,493.2v2.6c0,.1,0,.2-.2.2h-3.5c-.1,0-.2,0-.2-.2v-2.6c0-.1,0-.2.2-.2h3.5c.1,0,.2,0,.2.2Z" style="fill:#fff; stroke-width:0px;"/><path d="M469.1,493.2v2.6c0,.1,0,.2-.2.2h-3.5c-.1,0-.2,0-.2-.2v-2.6c0-.1,0-.2.2-.2h3.5c.1,0,.2,0,.2.2Z" style="fill:#fff; stroke-width:0px;"/><path d="M472.6,493.2v2.6c0,.1,0,.2-.2.2h-3.5c-.1,0-.2,0-.2-.2v-2.6c0-.1,0-.2.2-.2h3.5c.1,0,.2,0,.2.2Z" style="fill:#fff; stroke-width:0px;"/><path d="M476.2,493.2v2.6c0,.1,0,.2-.2.2h-3.5c-.1,0-.2,0-.2-.2v-2.6c0-.1,0-.2.2-.2h3.5c.1,0,.2,0,.2.2Z" style="fill:#fff; stroke-width:0px;"/><path d="M479.7,493.2v2.6c0,.1,0,.2-.2.2h-3.5c-.1,0-.2,0-.2-.2v-2.6c0-.1,0-.2.2-.2h3.5c.1,0,.2,0,.2.2Z" style="fill:#fff; stroke-width:0px;"/><path d="M483.3,493.2v2.6c0,.1,0,.2-.2.2h-3.5c-.1,0-.2,0-.2-.2v-2.6c0-.1,0-.2.2-.2h3.5c.1,0,.2,0,.2.2Z" style="fill:#fff; stroke-width:0px;"/><path d="M486.8,493.2v2.6c0,.1,0,.2-.2.2h-3.5c-.1,0-.2,0-.2-.2v-2.6c0-.1,0-.2.2-.2h3.5c.1,0,.2,0,.2.2Z" style="fill:#fff; stroke-width:0px;"/><path d="M493.9,493.2v2.6c0,.1,0,.2-.2.2-1,0-2-.5-2.9-1.4-.8.9-2.3,1.4-4.2,1.4s-.2,0-.2-.2v-2.6c0-.1.1-.2.2-.2,1.4,0,2.2-.5,2.2-1.9v-2.2s2.8-.3,2.8-.3v3.8c.6.4,1.3.6,2,.6s.2,0,.2.2ZM491.5,497l1.9,1.9-1.9,1.9-1.3-1.3-1.3,1.3-1.9-1.9,1.9-1.9,1.3,1.3,1.3-1.3Z" style="fill:#fff; stroke-width:0px;"/><path d="M497.4,493.2v2.6c0,.1,0,.2-.2.2h-3.5c-.1,0-.2,0-.2-.2v-2.6c0-.1,0-.2.2-.2h3.5c.1,0,.2,0,.2.2Z" style="fill:#fff; stroke-width:0px;"/><path d="M501,493.2v2.6c0,.1,0,.2-.2.2h-3.5c-.1,0-.2,0-.2-.2v-2.6c0-.1,0-.2.2-.2h3.5c.1,0,.2,0,.2.2Z" style="fill:#fff; stroke-width:0px;"/><path d="M507,495.8c0,.1,0,.2-.2.2-1.6,0-2.8-.4-3.5-1.2-.8.8-1.6,1.2-2.5,1.2s-.2,0-.2-.2v-2.6c0-.1,0-.2.2-.2.7,0,1.2-.2,1.6-.5,0-.1,0-.3,0-.4v-9.1s2.8-.3,2.8-.3v8.4c0,1.3.5,1.9,1.5,1.9s.2,0,.2.2v2.6Z" style="fill:#fff; stroke-width:0px;"/><path d="M510.5,493.2v2.6c0,.1,0,.2-.2.2h-3.5c-.1,0-.2,0-.2-.2v-2.6c0-.1,0-.2.2-.2h3.5c.1,0,.2,0,.2.2Z" style="fill:#fff; stroke-width:0px;"/><path d="M514.1,493.2v2.6c0,.1,0,.2-.2.2h-3.5c-.1,0-.2,0-.2-.2v-2.6c0-.1,0-.2.2-.2h3.5c.1,0,.2,0,.2.2Z" style="fill:#fff; stroke-width:0px;"/><path d="M517.6,493.2v2.6c0,.1,0,.2-.2.2h-3.5c-.1,0-.2,0-.2-.2v-2.6c0-.1,0-.2.2-.2h3.5c.1,0,.2,0,.2.2Z" style="fill:#fff; stroke-width:0px;"/><path d="M521.2,493.2v2.6c0,.1,0,.2-.2.2h-3.5c-.1,0-.2,0-.2-.2v-2.6c0-.1,0-.2.2-.2h3.5c.1,0,.2,0,.2.2Z" style="fill:#fff; stroke-width:0px;"/><path d="M533,493.2v2.6c0,.1,0,.2-.2.2-1.1,0-2-.4-2.8-1.1-.8.7-1.9,1.1-3.3,1.1h-5.7c-.1,0-.2,0-.2-.2v-2.6c0-.1,0-.2.2-.2h5.7c1,0,1.6-.5,1.6-1.3s-.6-1.3-1.6-1.3h-4.1l-1.5-2.6,5.2-6.4,2.5,1.4-4.8,5h2.5c2.8,0,4.6,1.5,4.6,3.9s0,.6,0,.9c.5.3,1,.4,1.7.4s.2,0,.2.2Z" style="fill:#fff; stroke-width:0px;"/><path d="M532.6,495.8v-2.6c0-.1.1-.2.2-.2,1,0,1.5-.6,1.5-1.9v-4s2.8-.3,2.8-.3v5.4c0,2.5-1.4,3.8-4.4,3.8s-.2,0-.2-.2ZM533.8,483.6l1.9-1.9,1.9,1.9-1.9,1.9-1.9-1.9Z" style="fill:#fff; stroke-width:0px;"/><path d="M542.8,499.3l-.3,1.5h-4.3v-1.5h.8c-.1-.3-.2-.6-.2-.9,0-.9.8-1.7,1.8-1.7s1.2.2,1.6.4v1.4c-.5-.2-.9-.3-1.2-.3-.4,0-.7.2-.7.5s0,.4.2.6h2.3ZM542.1,496h-2.8v-13l2.8-.3v13.3Z" style="fill:#fff; stroke-width:0px;"/><path d="M54.2,258.1c-.8,0-1.4-.2-2-.5s-1-.8-1.4-1.3c-.3-.5-.5-1.2-.5-1.8s0-.7.1-1c0-.3.2-.7.4-1,.2-.4.5-.8.8-1.4l2.4-3.8h2.2l-2.7,4.1c.2,0,.3-.2.5-.2.2,0,.4,0,.5,0,.6,0,1.1.1,1.7.4.5.3.9.7,1.2,1.2.3.5.5,1.1.5,1.8s-.2,1.3-.5,1.8c-.3.5-.8,1-1.4,1.3s-1.3.5-2,.5ZM54.2,256.3c.3,0,.7,0,.9-.2.3-.2.5-.4.6-.6.2-.3.2-.6.2-.9s0-.7-.2-.9-.4-.5-.6-.7c-.3-.2-.6-.2-.9-.2s-.7,0-1,.3c-.3.2-.5.4-.6.7-.1.3-.2.6-.2.9s0,.7.2.9c.2.3.4.5.7.6.3.2.6.2.9.2Z" style="fill:#fff; stroke-width:0px;"/><path d="M60.1,256.1h1.8l-1.4,3.2h-1.4l.9-3.2Z" style="fill:#fff; stroke-width:0px;"/><path d="M67.6,258.1c-1,0-1.8-.2-2.5-.7s-1.2-1.2-1.5-2c-.3-.8-.5-1.8-.5-2.8s.2-2,.5-2.8c.4-.8.9-1.5,1.6-2,.7-.5,1.5-.7,2.4-.7s1.9.3,2.6.8c.7.5,1.2,1.2,1.5,2,.3.8.5,1.8.5,2.8s-.2,2-.5,2.8c-.3.8-.9,1.5-1.5,2-.7.5-1.5.7-2.5.7ZM67.6,256.3c.5,0,1-.2,1.4-.5.4-.3.7-.8.9-1.3s.3-1.2.3-2-.1-1.4-.3-1.9-.5-1-.9-1.3c-.4-.3-.9-.5-1.4-.5s-1,.2-1.4.5c-.4.3-.7.8-.9,1.3-.2.6-.3,1.2-.3,2s.1,1.4.3,1.9c.2.6.5,1,.9,1.3.4.3.9.5,1.4.5Z" style="fill:#fff; stroke-width:0px;"/><path d="M77.8,258.1c-1,0-1.8-.2-2.5-.7s-1.2-1.2-1.5-2c-.3-.8-.5-1.8-.5-2.8s.2-2,.5-2.8c.4-.8.9-1.5,1.6-2,.7-.5,1.5-.7,2.4-.7s1.9.3,2.6.8c.7.5,1.2,1.2,1.5,2,.3.8.5,1.8.5,2.8s-.2,2-.5,2.8c-.3.8-.9,1.5-1.5,2-.7.5-1.5.7-2.5.7ZM77.8,256.3c.5,0,1-.2,1.4-.5.4-.3.7-.8.9-1.3s.3-1.2.3-2-.1-1.4-.3-1.9-.5-1-.9-1.3c-.4-.3-.9-.5-1.4-.5s-1,.2-1.4.5c-.4.3-.7.8-.9,1.3-.2.6-.3,1.2-.3,2s.1,1.4.3,1.9c.2.6.5,1,.9,1.3.4.3.9.5,1.4.5Z" style="fill:#fff; stroke-width:0px;"/><path d="M87.9,258.1c-1,0-1.8-.2-2.5-.7s-1.2-1.2-1.5-2c-.3-.8-.5-1.8-.5-2.8s.2-2,.5-2.8c.4-.8.9-1.5,1.6-2,.7-.5,1.5-.7,2.4-.7s1.9.3,2.6.8c.7.5,1.2,1.2,1.5,2,.3.8.5,1.8.5,2.8s-.2,2-.5,2.8c-.3.8-.9,1.5-1.5,2-.7.5-1.5.7-2.5.7ZM87.9,256.3c.5,0,1-.2,1.4-.5.4-.3.7-.8.9-1.3s.3-1.2.3-2-.1-1.4-.3-1.9-.5-1-.9-1.3c-.4-.3-.9-.5-1.4-.5s-1,.2-1.4.5c-.4.3-.7.8-.9,1.3-.2.6-.3,1.2-.3,2s.1,1.4.3,1.9c.2.6.5,1,.9,1.3.4.3.9.5,1.4.5Z" style="fill:#fff; stroke-width:0px;"/><path d="M98.2,247.2h1.9v10.6h-1.9v-10.6Z" style="fill:#fff; stroke-width:0px;"/><path d="M107.6,258.1c-1,0-2-.2-2.9-.7-.9-.5-1.6-1.2-2.1-2s-.8-1.8-.8-2.8.3-1.9.8-2.8c.5-.8,1.2-1.5,2.1-2,.9-.5,1.8-.7,2.9-.7s2,.2,2.9.7c.9.5,1.6,1.2,2.1,2,.5.8.8,1.8.8,2.8s-.3,1.9-.8,2.8-1.2,1.5-2.1,2c-.9.5-1.8.7-2.9.7ZM107.6,256.3c.7,0,1.3-.2,1.9-.5.6-.3,1-.8,1.4-1.3.3-.6.5-1.2.5-1.9s-.2-1.4-.5-1.9c-.3-.6-.8-1-1.4-1.4s-1.2-.5-1.9-.5-1.3.2-1.9.5-1,.8-1.4,1.4c-.3.6-.5,1.2-.5,1.9s.2,1.3.5,1.9.8,1,1.4,1.3,1.2.5,1.9.5ZM109.3,257.3l1.7-.8,1.9,2.7-1.8,1-1.8-2.9Z" style="fill:#fff; stroke-width:0px;"/><path d="M115.3,247.2h4.1c1.1,0,2.1.2,3,.7.9.4,1.5,1.1,2,1.9.5.8.7,1.7.7,2.8s-.2,2-.7,2.8-1.1,1.4-2,1.9c-.9.4-1.8.7-2.9.7h-4.1v-10.6ZM119.4,256.1c.8,0,1.4-.1,2-.4.6-.3,1-.7,1.3-1.2.3-.5.4-1.2.4-1.9s-.1-1.4-.4-1.9c-.3-.5-.7-1-1.3-1.3-.6-.3-1.2-.4-2-.4h-2.1v7.2h2.1Z" style="fill:#fff; stroke-width:0px;"/><path d="M54.2,301c-.8,0-1.4-.2-2-.5s-1-.8-1.4-1.3c-.3-.5-.5-1.2-.5-1.8s0-.7.1-1c0-.3.2-.7.4-1,.2-.4.5-.8.8-1.4l2.4-3.8h2.2l-2.7,4.1c.2,0,.3-.2.5-.2.2,0,.4,0,.5,0,.6,0,1.1.1,1.7.4.5.3.9.7,1.2,1.2.3.5.5,1.1.5,1.8s-.2,1.3-.5,1.8c-.3.5-.8,1-1.4,1.3s-1.3.5-2,.5ZM54.2,299.2c.3,0,.7,0,.9-.2.3-.2.5-.4.6-.6.2-.3.2-.6.2-.9s0-.7-.2-.9-.4-.5-.6-.7c-.3-.2-.6-.2-.9-.2s-.7,0-1,.3c-.3.2-.5.4-.6.7-.1.3-.2.6-.2.9s0,.7.2.9c.2.3.4.5.7.6.3.2.6.2.9.2Z" style="fill:#fff; stroke-width:0px;"/><path d="M60.1,299h1.8l-1.4,3.2h-1.4l.9-3.2Z" style="fill:#fff; stroke-width:0px;"/><path d="M67.6,301c-1,0-1.8-.2-2.5-.7s-1.2-1.2-1.5-2c-.3-.8-.5-1.8-.5-2.8s.2-2,.5-2.8c.4-.8.9-1.5,1.6-2,.7-.5,1.5-.7,2.4-.7s1.9.3,2.6.8c.7.5,1.2,1.2,1.5,2,.3.8.5,1.8.5,2.8s-.2,2-.5,2.8c-.3.8-.9,1.5-1.5,2-.7.5-1.5.7-2.5.7ZM67.6,299.2c.5,0,1-.2,1.4-.5.4-.3.7-.8.9-1.3s.3-1.2.3-2-.1-1.4-.3-1.9-.5-1-.9-1.3c-.4-.3-.9-.5-1.4-.5s-1,.2-1.4.5c-.4.3-.7.8-.9,1.3-.2.6-.3,1.2-.3,2s.1,1.4.3,1.9c.2.6.5,1,.9,1.3.4.3.9.5,1.4.5Z" style="fill:#fff; stroke-width:0px;"/><path d="M77.8,301c-1,0-1.8-.2-2.5-.7s-1.2-1.2-1.5-2c-.3-.8-.5-1.8-.5-2.8s.2-2,.5-2.8c.4-.8.9-1.5,1.6-2,.7-.5,1.5-.7,2.4-.7s1.9.3,2.6.8c.7.5,1.2,1.2,1.5,2,.3.8.5,1.8.5,2.8s-.2,2-.5,2.8c-.3.8-.9,1.5-1.5,2-.7.5-1.5.7-2.5.7ZM77.8,299.2c.5,0,1-.2,1.4-.5.4-.3.7-.8.9-1.3s.3-1.2.3-2-.1-1.4-.3-1.9-.5-1-.9-1.3c-.4-.3-.9-.5-1.4-.5s-1,.2-1.4.5c-.4.3-.7.8-.9,1.3-.2.6-.3,1.2-.3,2s.1,1.4.3,1.9c.2.6.5,1,.9,1.3.4.3.9.5,1.4.5Z" style="fill:#fff; stroke-width:0px;"/><path d="M87.9,301c-1,0-1.8-.2-2.5-.7s-1.2-1.2-1.5-2c-.3-.8-.5-1.8-.5-2.8s.2-2,.5-2.8c.4-.8.9-1.5,1.6-2,.7-.5,1.5-.7,2.4-.7s1.9.3,2.6.8c.7.5,1.2,1.2,1.5,2,.3.8.5,1.8.5,2.8s-.2,2-.5,2.8c-.3.8-.9,1.5-1.5,2-.7.5-1.5.7-2.5.7ZM87.9,299.2c.5,0,1-.2,1.4-.5.4-.3.7-.8.9-1.3s.3-1.2.3-2-.1-1.4-.3-1.9-.5-1-.9-1.3c-.4-.3-.9-.5-1.4-.5s-1,.2-1.4.5c-.4.3-.7.8-.9,1.3-.2.6-.3,1.2-.3,2s.1,1.4.3,1.9c.2.6.5,1,.9,1.3.4.3.9.5,1.4.5Z" style="fill:#fff; stroke-width:0px;"/><path d="M98.2,290.1h1.9v10.6h-1.9v-10.6Z" style="fill:#fff; stroke-width:0px;"/><path d="M107.6,301c-1,0-2-.2-2.9-.7-.9-.5-1.6-1.2-2.1-2s-.8-1.8-.8-2.8.3-1.9.8-2.8c.5-.8,1.2-1.5,2.1-2,.9-.5,1.8-.7,2.9-.7s2,.2,2.9.7c.9.5,1.6,1.2,2.1,2,.5.8.8,1.8.8,2.8s-.3,1.9-.8,2.8-1.2,1.5-2.1,2c-.9.5-1.8.7-2.9.7ZM107.6,299.2c.7,0,1.3-.2,1.9-.5.6-.3,1-.8,1.4-1.3.3-.6.5-1.2.5-1.9s-.2-1.4-.5-1.9c-.3-.6-.8-1-1.4-1.4s-1.2-.5-1.9-.5-1.3.2-1.9.5-1,.8-1.4,1.4c-.3.6-.5,1.2-.5,1.9s.2,1.3.5,1.9.8,1,1.4,1.3,1.2.5,1.9.5ZM109.3,300.2l1.7-.8,1.9,2.7-1.8,1-1.8-2.9Z" style="fill:#fff; stroke-width:0px;"/><path d="M115.3,290.1h4.1c1.1,0,2.1.2,3,.7.9.4,1.5,1.1,2,1.9.5.8.7,1.7.7,2.8s-.2,2-.7,2.8-1.1,1.4-2,1.9c-.9.4-1.8.7-2.9.7h-4.1v-10.6ZM119.4,299c.8,0,1.4-.1,2-.4.6-.3,1-.7,1.3-1.2.3-.5.4-1.2.4-1.9s-.1-1.4-.4-1.9c-.3-.5-.7-1-1.3-1.3-.6-.3-1.2-.4-2-.4h-2.1v7.2h2.1Z" style="fill:#fff; stroke-width:0px;"/><path d="M54.2,343.2c-.8,0-1.4-.2-2-.5s-1-.8-1.4-1.3c-.3-.5-.5-1.2-.5-1.8s0-.7.1-1c0-.3.2-.7.4-1,.2-.4.5-.8.8-1.4l2.4-3.8h2.2l-2.7,4.1c.2,0,.3-.2.5-.2.2,0,.4,0,.5,0,.6,0,1.1.1,1.7.4.5.3.9.7,1.2,1.2.3.5.5,1.1.5,1.8s-.2,1.3-.5,1.8c-.3.5-.8,1-1.4,1.3s-1.3.5-2,.5ZM54.2,341.5c.3,0,.7,0,.9-.2.3-.2.5-.4.6-.6.2-.3.2-.6.2-.9s0-.7-.2-.9-.4-.5-.6-.7c-.3-.2-.6-.2-.9-.2s-.7,0-1,.3c-.3.2-.5.4-.6.7-.1.3-.2.6-.2.9s0,.7.2.9c.2.3.4.5.7.6.3.2.6.2.9.2Z" style="fill:#fff; stroke-width:0px;"/><path d="M60.1,341.3h1.8l-1.4,3.2h-1.4l.9-3.2Z" style="fill:#fff; stroke-width:0px;"/><path d="M67.6,343.3c-1,0-1.8-.2-2.5-.7s-1.2-1.2-1.5-2c-.3-.8-.5-1.8-.5-2.8s.2-2,.5-2.8c.4-.8.9-1.5,1.6-2,.7-.5,1.5-.7,2.4-.7s1.9.3,2.6.8c.7.5,1.2,1.2,1.5,2,.3.8.5,1.8.5,2.8s-.2,2-.5,2.8c-.3.8-.9,1.5-1.5,2-.7.5-1.5.7-2.5.7ZM67.6,341.5c.5,0,1-.2,1.4-.5.4-.3.7-.8.9-1.3s.3-1.2.3-2-.1-1.4-.3-1.9-.5-1-.9-1.3c-.4-.3-.9-.5-1.4-.5s-1,.2-1.4.5c-.4.3-.7.8-.9,1.3-.2.6-.3,1.2-.3,2s.1,1.4.3,1.9c.2.6.5,1,.9,1.3.4.3.9.5,1.4.5Z" style="fill:#fff; stroke-width:0px;"/><path d="M77.8,343.3c-1,0-1.8-.2-2.5-.7s-1.2-1.2-1.5-2c-.3-.8-.5-1.8-.5-2.8s.2-2,.5-2.8c.4-.8.9-1.5,1.6-2,.7-.5,1.5-.7,2.4-.7s1.9.3,2.6.8c.7.5,1.2,1.2,1.5,2,.3.8.5,1.8.5,2.8s-.2,2-.5,2.8c-.3.8-.9,1.5-1.5,2-.7.5-1.5.7-2.5.7ZM77.8,341.5c.5,0,1-.2,1.4-.5.4-.3.7-.8.9-1.3s.3-1.2.3-2-.1-1.4-.3-1.9-.5-1-.9-1.3c-.4-.3-.9-.5-1.4-.5s-1,.2-1.4.5c-.4.3-.7.8-.9,1.3-.2.6-.3,1.2-.3,2s.1,1.4.3,1.9c.2.6.5,1,.9,1.3.4.3.9.5,1.4.5Z" style="fill:#fff; stroke-width:0px;"/><path d="M87.9,343.3c-1,0-1.8-.2-2.5-.7s-1.2-1.2-1.5-2c-.3-.8-.5-1.8-.5-2.8s.2-2,.5-2.8c.4-.8.9-1.5,1.6-2,.7-.5,1.5-.7,2.4-.7s1.9.3,2.6.8c.7.5,1.2,1.2,1.5,2,.3.8.5,1.8.5,2.8s-.2,2-.5,2.8c-.3.8-.9,1.5-1.5,2-.7.5-1.5.7-2.5.7ZM87.9,341.5c.5,0,1-.2,1.4-.5.4-.3.7-.8.9-1.3s.3-1.2.3-2-.1-1.4-.3-1.9-.5-1-.9-1.3c-.4-.3-.9-.5-1.4-.5s-1,.2-1.4.5c-.4.3-.7.8-.9,1.3-.2.6-.3,1.2-.3,2s.1,1.4.3,1.9c.2.6.5,1,.9,1.3.4.3.9.5,1.4.5Z" style="fill:#fff; stroke-width:0px;"/><path d="M98.2,332.4h1.9v10.6h-1.9v-10.6Z" style="fill:#fff; stroke-width:0px;"/><path d="M107.6,343.2c-1,0-2-.2-2.9-.7-.9-.5-1.6-1.2-2.1-2s-.8-1.8-.8-2.8.3-1.9.8-2.8c.5-.8,1.2-1.5,2.1-2,.9-.5,1.8-.7,2.9-.7s2,.2,2.9.7c.9.5,1.6,1.2,2.1,2,.5.8.8,1.8.8,2.8s-.3,1.9-.8,2.8-1.2,1.5-2.1,2c-.9.5-1.8.7-2.9.7ZM107.6,341.5c.7,0,1.3-.2,1.9-.5.6-.3,1-.8,1.4-1.3.3-.6.5-1.2.5-1.9s-.2-1.4-.5-1.9c-.3-.6-.8-1-1.4-1.4s-1.2-.5-1.9-.5-1.3.2-1.9.5-1,.8-1.4,1.4c-.3.6-.5,1.2-.5,1.9s.2,1.3.5,1.9.8,1,1.4,1.3,1.2.5,1.9.5ZM109.3,342.5l1.7-.8,1.9,2.7-1.8,1-1.8-2.9Z" style="fill:#fff; stroke-width:0px;"/><path d="M115.3,332.4h4.1c1.1,0,2.1.2,3,.7.9.4,1.5,1.1,2,1.9.5.8.7,1.7.7,2.8s-.2,2-.7,2.8-1.1,1.4-2,1.9c-.9.4-1.8.7-2.9.7h-4.1v-10.6ZM119.4,341.3c.8,0,1.4-.1,2-.4.6-.3,1-.7,1.3-1.2.3-.5.4-1.2.4-1.9s-.1-1.4-.4-1.9c-.3-.5-.7-1-1.3-1.3-.6-.3-1.2-.4-2-.4h-2.1v7.2h2.1Z" style="fill:#fff; stroke-width:0px;"/><path d="M55.6,489.9h-5.1v-1.6h7.4v1l-4.6,9.6h-2.1l4.4-9Z" style="fill:#fff; stroke-width:0px;"/><path d="M59.8,497.2h1.8l-1.4,3.2h-1.4l.9-3.2Z" style="fill:#fff; stroke-width:0px;"/><path d="M67.3,499.2c-1,0-1.8-.2-2.5-.7s-1.2-1.2-1.5-2-.5-1.8-.5-2.8.2-2,.5-2.8.9-1.5,1.6-2c.7-.5,1.5-.7,2.4-.7s1.9.3,2.6.8c.7.5,1.2,1.2,1.5,2s.5,1.8.5,2.8-.2,2-.5,2.8-.9,1.5-1.5,2-1.5.7-2.5.7ZM67.3,497.4c.5,0,1-.2,1.4-.5s.7-.8.9-1.3.3-1.2.3-2-.1-1.4-.3-1.9-.5-1-.9-1.3-.9-.5-1.4-.5-1,.2-1.4.5-.7.8-.9,1.3-.3,1.2-.3,2,.1,1.4.3,1.9.5,1,.9,1.3.9.5,1.4.5Z" style="fill:#fff; stroke-width:0px;"/><path d="M77.5,499.2c-1,0-1.8-.2-2.5-.7s-1.2-1.2-1.5-2-.5-1.8-.5-2.8.2-2,.5-2.8.9-1.5,1.6-2c.7-.5,1.5-.7,2.4-.7s1.9.3,2.6.8c.7.5,1.2,1.2,1.5,2s.5,1.8.5,2.8-.2,2-.5,2.8-.9,1.5-1.5,2-1.5.7-2.5.7ZM77.5,497.4c.5,0,1-.2,1.4-.5s.7-.8.9-1.3.3-1.2.3-2-.1-1.4-.3-1.9-.5-1-.9-1.3-.9-.5-1.4-.5-1,.2-1.4.5-.7.8-.9,1.3-.3,1.2-.3,2,.1,1.4.3,1.9.5,1,.9,1.3.9.5,1.4.5Z" style="fill:#fff; stroke-width:0px;"/><path d="M87.6,499.2c-1,0-1.8-.2-2.5-.7s-1.2-1.2-1.5-2-.5-1.8-.5-2.8.2-2,.5-2.8.9-1.5,1.6-2c.7-.5,1.5-.7,2.4-.7s1.9.3,2.6.8c.7.5,1.2,1.2,1.5,2s.5,1.8.5,2.8-.2,2-.5,2.8-.9,1.5-1.5,2-1.5.7-2.5.7ZM87.6,497.4c.5,0,1-.2,1.4-.5s.7-.8.9-1.3.3-1.2.3-2-.1-1.4-.3-1.9-.5-1-.9-1.3-.9-.5-1.4-.5-1,.2-1.4.5-.7.8-.9,1.3-.3,1.2-.3,2,.1,1.4.3,1.9.5,1,.9,1.3.9.5,1.4.5Z" style="fill:#fff; stroke-width:0px;"/><path d="M97.8,488.3h1.9v10.6h-1.9v-10.6Z" style="fill:#fff; stroke-width:0px;"/><path d="M107.3,499.2c-1,0-2-.2-2.9-.7s-1.6-1.2-2.1-2-.8-1.8-.8-2.8.3-1.9.8-2.8,1.2-1.5,2.1-2c.9-.5,1.8-.7,2.9-.7s2,.2,2.9.7c.9.5,1.6,1.2,2.1,2s.8,1.8.8,2.8-.3,1.9-.8,2.8-1.2,1.5-2.1,2-1.8.7-2.9.7ZM107.3,497.4c.7,0,1.3-.2,1.9-.5s1-.8,1.4-1.3.5-1.2.5-1.9-.2-1.4-.5-1.9-.8-1-1.4-1.4-1.2-.5-1.9-.5-1.3.2-1.9.5-1,.8-1.4,1.4-.5,1.2-.5,1.9.2,1.3.5,1.9.8,1,1.4,1.3,1.2.5,1.9.5ZM109,498.4l1.7-.8,1.9,2.7-1.8,1-1.8-2.9Z" style="fill:#fff; stroke-width:0px;"/><path d="M115,488.3h4.1c1.1,0,2.1.2,3,.7s1.5,1.1,2,1.9.7,1.7.7,2.8-.2,2-.7,2.8-1.1,1.4-2,1.9-1.8.7-2.9.7h-4.1v-10.6ZM119,497.2c.8,0,1.4-.1,2-.4s1-.7,1.3-1.2.4-1.2.4-1.9-.1-1.4-.4-1.9-.7-1-1.3-1.3-1.2-.4-2-.4h-2.1v7.2h2.1Z" style="fill:#fff; stroke-width:0px;"/><rect x="156.4" y="252.2" width="245.1" height=".8" style="fill:#fff; stroke-width:0px;"/><rect x="156.4" y="296.2" width="245.1" height=".8" style="fill:#fff; stroke-width:0px;"/><rect x="156.4" y="339.1" width="245.1" height=".8" style="fill:#fff; stroke-width:0px;"/><rect x="156.4" y="492.6" width="245.1" height=".8" style="fill:#fff; stroke-width:0px;"/><path d="M445.3,384.7v2.6c0,.1,0,.2-.2.2-1.2,0-2-.2-2.7-.7-1.1.6-2.1.8-3.1.8-2.6,0-4.4-2-4.4-4.6s1.8-4.8,4.4-4.8,1.2.1,1.8.3v-1l2.8-.3v6.1c0,.8.4,1.1,1,1.1s.2,0,.2.2ZM438.1,377l-1.9-1.9,1.9-1.9,1.4,1.4,1.4-1.4,1.9,1.9-1.9,1.9-1.5-1.4-1.4,1.4ZM441.3,384.6c0-.2,0-.5,0-.8v-2.4c-.6-.2-1.2-.3-1.7-.3-1.2,0-1.9.8-1.9,1.9s.7,1.8,1.8,1.8c.7,0,1.3,0,1.9-.3Z" style="fill:#fff; stroke-width:0px;"/><path d="M454.5,382.5c0,3-2,5-5.2,5h-4.2c-.1,0-.2,0-.2-.2v-2.6c0-.1,0-.2.2-.2h1.1c-.3-.7-.5-1.4-.5-2.1,0-2.5,1.9-4.3,4.3-4.3s4.5,1.9,4.5,4.4ZM449.9,376.9l-1.9-1.9,1.9-1.9,1.9,1.9-1.9,1.9ZM451.7,382.5c0-1-.7-1.7-1.7-1.7s-1.8.8-1.8,1.8.2,1.2.5,1.9h.6c1.5,0,2.4-.8,2.4-2Z" style="fill:#fff; stroke-width:0px;"/><path d="M462.3,384.7v2.6c0,.1,0,.2-.2.2-.8,0-1.4-.3-1.9-.7v.3c0,3.2-1.7,4.3-5.2,4.3l-.2-2.3c1.5,0,2.6-.6,2.6-2.2v-8.4s2.8-.3,2.8-.3v4.9c.1.9.9,1.3,1.9,1.3s.2,0,.2.2Z" style="fill:#fff; stroke-width:0px;"/><path d="M465.9,384.7v2.6c0,.1,0,.2-.2.2h-3.5c-.1,0-.2,0-.2-.2v-2.6c0-.1,0-.2.2-.2h3.5c.1,0,.2,0,.2.2Z" style="fill:#fff; stroke-width:0px;"/><path d="M469.4,384.7v2.6c0,.1,0,.2-.2.2h-3.5c-.1,0-.2,0-.2-.2v-2.6c0-.1,0-.2.2-.2h3.5c.1,0,.2,0,.2.2Z" style="fill:#fff; stroke-width:0px;"/><path d="M473,384.7v2.6c0,.1,0,.2-.2.2h-3.5c-.1,0-.2,0-.2-.2v-2.6c0-.1,0-.2.2-.2h3.5c.1,0,.2,0,.2.2Z" style="fill:#fff; stroke-width:0px;"/><path d="M476.5,384.7v2.6c0,.1,0,.2-.2.2h-3.5c-.1,0-.2,0-.2-.2v-2.6c0-.1,0-.2.2-.2h3.5c.1,0,.2,0,.2.2Z" style="fill:#fff; stroke-width:0px;"/><path d="M485.8,382.5c0,3-2,5-5.2,5h-4.2c-.1,0-.2,0-.2-.2v-2.6c0-.1,0-.2.2-.2h1.1c-.3-.7-.5-1.4-.5-2.1,0-2.5,1.9-4.3,4.3-4.3s4.5,1.9,4.5,4.4ZM479.7,376.9l-1.9-1.9,1.9-1.9,1.4,1.4,1.4-1.4,1.9,1.9-1.9,1.9-1.5-1.4-1.4,1.4ZM482.9,382.5c0-1-.7-1.7-1.7-1.7s-1.8.8-1.8,1.8.2,1.2.5,1.9h.6c1.5,0,2.4-.8,2.4-2Z" style="fill:#fff; stroke-width:0px;"/><path d="M495.8,382.8v4.3c0,3.2-3.1,4.3-7.5,4.3l-.3-2.3c3.4,0,4.9-.5,4.9-2-.6.2-1.1.4-1.7.4-2.5,0-4.2-1.8-4.2-4.5s2-4.7,4.5-4.7,4.3,1.7,4.3,4.6ZM491.5,384.7c.4,0,.9,0,1.4-.2v-1.5c0-1.2-.7-1.9-1.7-1.9s-1.7.7-1.7,1.7.8,1.8,1.9,1.8Z" style="fill:#fff; stroke-width:0px;"/><path d="M511.2,384.7v2.6c0,.1,0,.2-.2.2-1.2,0-2-.2-2.7-.7-1.1.6-2.1.8-3.1.8-2.6,0-4.4-2-4.4-4.6s1.8-4.8,4.4-4.8,1.2.1,1.8.3v-1l2.8-.3v6.1c0,.8.4,1.1,1,1.1s.2,0,.2.2ZM504,377l-1.9-1.9,1.9-1.9,1.4,1.4,1.4-1.4,1.9,1.9-1.9,1.9-1.5-1.4-1.4,1.4ZM507.2,384.6c0-.2,0-.5,0-.8v-2.4c-.6-.2-1.2-.3-1.7-.3-1.2,0-1.9.8-1.9,1.9s.8,1.8,1.8,1.8c.7,0,1.3,0,1.9-.3Z" style="fill:#fff; stroke-width:0px;"/><path d="M514.8,384.7v2.6c0,.1,0,.2-.2.2h-3.5c-.1,0-.2,0-.2-.2v-2.6c0-.1,0-.2.2-.2h3.5c.1,0,.2,0,.2.2Z" style="fill:#fff; stroke-width:0px;"/><path d="M526.6,384.7v2.6c0,.1,0,.2-.2.2-1.1,0-2-.4-2.8-1.1-.8.7-1.9,1.1-3.3,1.1h-5.7c-.1,0-.2,0-.2-.2v-2.6c0-.1,0-.2.2-.2h5.7c1,0,1.6-.5,1.6-1.3s-.6-1.3-1.6-1.3h-4.1l-1.5-2.6,5.2-6.4,2.5,1.4-4.8,5h2.5c2.8,0,4.6,1.5,4.6,3.9s0,.6,0,.9c.5.3,1,.4,1.7.4s.2,0,.2.2Z" style="fill:#fff; stroke-width:0px;"/><path d="M532.6,387.3c0,.1,0,.2-.2.2-1.6,0-2.8-.4-3.5-1.2-.8.8-1.6,1.2-2.5,1.2s-.2,0-.2-.2v-2.6c0-.1,0-.2.2-.2.7,0,1.2-.2,1.6-.5,0-.1,0-.3,0-.4v-9.1s2.8-.3,2.8-.3v8.4c0,1.3.5,1.9,1.5,1.9s.2,0,.2.2v2.6Z" style="fill:#fff; stroke-width:0px;"/><path d="M542.1,383.7l-.6,3c-2.4.5-5,.7-9.1.7s-.2,0-.2-.2v-2.6c0-.1,0-.2.2-.2h1.3c-.4-.9-.6-1.7-.6-2.6,0-2.1,1.7-3.7,4.2-3.7s2.1.3,3.6.8l-.8,2.4c-1.1-.3-1.8-.4-2.4-.4-1.3,0-2.1.7-2.1,1.7s.2,1.1.5,1.7c2-.1,3.8-.3,6-.7Z" style="fill:#fff; stroke-width:0px;"/><path d="M54.2,386.1c-.8,0-1.4-.2-2-.5s-1-.8-1.4-1.3c-.3-.5-.5-1.2-.5-1.8s0-.7.1-1c0-.3.2-.7.4-1,.2-.4.5-.8.8-1.4l2.4-3.8h2.2l-2.7,4.1c.2,0,.3-.2.5-.2.2,0,.4,0,.5,0,.6,0,1.1.1,1.7.4.5.3.9.7,1.2,1.2.3.5.5,1.1.5,1.8s-.2,1.3-.5,1.8c-.3.5-.8,1-1.4,1.3s-1.3.5-2,.5ZM54.2,384.4c.3,0,.7,0,.9-.2.3-.2.5-.4.6-.6.2-.3.2-.6.2-.9s0-.7-.2-.9-.4-.5-.6-.7c-.3-.2-.6-.2-.9-.2s-.7,0-1,.3c-.3.2-.5.4-.6.7-.1.3-.2.6-.2.9s0,.7.2.9c.2.3.4.5.7.6.3.2.6.2.9.2Z" style="fill:#fff; stroke-width:0px;"/><path d="M60.1,384.2h1.8l-1.4,3.2h-1.4l.9-3.2Z" style="fill:#fff; stroke-width:0px;"/><path d="M67.6,386.2c-1,0-1.8-.2-2.5-.7s-1.2-1.2-1.5-2c-.3-.8-.5-1.8-.5-2.8s.2-2,.5-2.8c.4-.8.9-1.5,1.6-2,.7-.5,1.5-.7,2.4-.7s1.9.3,2.6.8c.7.5,1.2,1.2,1.5,2,.3.8.5,1.8.5,2.8s-.2,2-.5,2.8c-.3.8-.9,1.5-1.5,2-.7.5-1.5.7-2.5.7ZM67.6,384.4c.5,0,1-.2,1.4-.5.4-.3.7-.8.9-1.3s.3-1.2.3-2-.1-1.4-.3-1.9-.5-1-.9-1.3c-.4-.3-.9-.5-1.4-.5s-1,.2-1.4.5c-.4.3-.7.8-.9,1.3-.2.6-.3,1.2-.3,2s.1,1.4.3,1.9c.2.6.5,1,.9,1.3.4.3.9.5,1.4.5Z" style="fill:#fff; stroke-width:0px;"/><path d="M77.8,386.2c-1,0-1.8-.2-2.5-.7s-1.2-1.2-1.5-2c-.3-.8-.5-1.8-.5-2.8s.2-2,.5-2.8c.4-.8.9-1.5,1.6-2,.7-.5,1.5-.7,2.4-.7s1.9.3,2.6.8c.7.5,1.2,1.2,1.5,2,.3.8.5,1.8.5,2.8s-.2,2-.5,2.8c-.3.8-.9,1.5-1.5,2-.7.5-1.5.7-2.5.7ZM77.8,384.4c.5,0,1-.2,1.4-.5.4-.3.7-.8.9-1.3s.3-1.2.3-2-.1-1.4-.3-1.9-.5-1-.9-1.3c-.4-.3-.9-.5-1.4-.5s-1,.2-1.4.5c-.4.3-.7.8-.9,1.3-.2.6-.3,1.2-.3,2s.1,1.4.3,1.9c.2.6.5,1,.9,1.3.4.3.9.5,1.4.5Z" style="fill:#fff; stroke-width:0px;"/><path d="M87.9,386.2c-1,0-1.8-.2-2.5-.7s-1.2-1.2-1.5-2c-.3-.8-.5-1.8-.5-2.8s.2-2,.5-2.8c.4-.8.9-1.5,1.6-2,.7-.5,1.5-.7,2.4-.7s1.9.3,2.6.8c.7.5,1.2,1.2,1.5,2,.3.8.5,1.8.5,2.8s-.2,2-.5,2.8c-.3.8-.9,1.5-1.5,2-.7.5-1.5.7-2.5.7ZM87.9,384.4c.5,0,1-.2,1.4-.5.4-.3.7-.8.9-1.3s.3-1.2.3-2-.1-1.4-.3-1.9-.5-1-.9-1.3c-.4-.3-.9-.5-1.4-.5s-1,.2-1.4.5c-.4.3-.7.8-.9,1.3-.2.6-.3,1.2-.3,2s.1,1.4.3,1.9c.2.6.5,1,.9,1.3.4.3.9.5,1.4.5Z" style="fill:#fff; stroke-width:0px;"/><path d="M98.2,375.3h1.9v10.6h-1.9v-10.6Z" style="fill:#fff; stroke-width:0px;"/><path d="M107.6,386.1c-1,0-2-.2-2.9-.7-.9-.5-1.6-1.2-2.1-2s-.8-1.8-.8-2.8.3-1.9.8-2.8c.5-.8,1.2-1.5,2.1-2,.9-.5,1.8-.7,2.9-.7s2,.2,2.9.7c.9.5,1.6,1.2,2.1,2,.5.8.8,1.8.8,2.8s-.3,1.9-.8,2.8-1.2,1.5-2.1,2c-.9.5-1.8.7-2.9.7ZM107.6,384.4c.7,0,1.3-.2,1.9-.5.6-.3,1-.8,1.4-1.3.3-.6.5-1.2.5-1.9s-.2-1.4-.5-1.9c-.3-.6-.8-1-1.4-1.4s-1.2-.5-1.9-.5-1.3.2-1.9.5-1,.8-1.4,1.4c-.3.6-.5,1.2-.5,1.9s.2,1.3.5,1.9.8,1,1.4,1.3,1.2.5,1.9.5ZM109.3,385.4l1.7-.8,1.9,2.7-1.8,1-1.8-2.9Z" style="fill:#fff; stroke-width:0px;"/><path d="M115.3,375.3h4.1c1.1,0,2.1.2,3,.7.9.4,1.5,1.1,2,1.9.5.8.7,1.7.7,2.8s-.2,2-.7,2.8-1.1,1.4-2,1.9c-.9.4-1.8.7-2.9.7h-4.1v-10.6ZM119.4,384.2c.8,0,1.4-.1,2-.4.6-.3,1-.7,1.3-1.2.3-.5.4-1.2.4-1.9s-.1-1.4-.4-1.9c-.3-.5-.7-1-1.3-1.3-.6-.3-1.2-.4-2-.4h-2.1v7.2h2.1Z" style="fill:#fff; stroke-width:0px;"/><rect x="156.4" y="381.9" width="245.1" height=".8" style="fill:#fff; stroke-width:0px;"/><path d="M455.1,541.3v2.6c0,.1,0,.2-.2.2h-4.9v-6h-1c-1,0-1.5.6-1.5,1.8v2.7c0,3.5-1.6,5.4-5.6,5.4s-5.5-1.6-5.5-4.9.3-2.6.8-4.3l2.3.6c-.3,1-.5,1.9-.5,2.8,0,1.8,1,2.7,2.9,2.7s2.8-.8,2.8-2.8v-3c0-2.5,1.3-4.1,3.8-4.1h2.8l1.7,1.5v4.5h2c.1,0,.2,0,.2.2ZM444.8,548.8l1.9,1.9-1.9,1.9-1.3-1.3-1.3,1.3-1.9-1.9,1.9-1.9,1.3,1.3,1.3-1.3Z" style="fill:#fff; stroke-width:0px;"/><path d="M458.7,541.3v2.6c0,.1,0,.2-.2.2h-3.5c-.1,0-.2,0-.2-.2v-2.6c0-.1,0-.2.2-.2h3.5c.1,0,.2,0,.2.2Z" style="fill:#fff; stroke-width:0px;"/><path d="M462.2,541.3v2.6c0,.1,0,.2-.2.2h-3.5c-.1,0-.2,0-.2-.2v-2.6c0-.1,0-.2.2-.2h3.5c.1,0,.2,0,.2.2Z" style="fill:#fff; stroke-width:0px;"/><path d="M465.8,541.3v2.6c0,.1,0,.2-.2.2h-3.5c-.1,0-.2,0-.2-.2v-2.6c0-.1,0-.2.2-.2h3.5c.1,0,.2,0,.2.2Z" style="fill:#fff; stroke-width:0px;"/><path d="M469.3,541.3v2.6c0,.1,0,.2-.2.2h-3.5c-.1,0-.2,0-.2-.2v-2.6c0-.1,0-.2.2-.2h3.5c.1,0,.2,0,.2.2Z" style="fill:#fff; stroke-width:0px;"/><path d="M472.9,541.3v2.6c0,.1,0,.2-.2.2h-3.5c-.1,0-.2,0-.2-.2v-2.6c0-.1,0-.2.2-.2h3.5c.1,0,.2,0,.2.2Z" style="fill:#fff; stroke-width:0px;"/><path d="M476.4,541.3v2.6c0,.1,0,.2-.2.2h-3.5c-.1,0-.2,0-.2-.2v-2.6c0-.1,0-.2.2-.2h3.5c.1,0,.2,0,.2.2Z" style="fill:#fff; stroke-width:0px;"/><path d="M480,541.3v2.6c0,.1,0,.2-.2.2h-3.5c-.1,0-.2,0-.2-.2v-2.6c0-.1,0-.2.2-.2h3.5c.1,0,.2,0,.2.2Z" style="fill:#fff; stroke-width:0px;"/><path d="M483.5,541.3v2.6c0,.1,0,.2-.2.2h-3.5c-.1,0-.2,0-.2-.2v-2.6c0-.1,0-.2.2-.2h3.5c.1,0,.2,0,.2.2Z" style="fill:#fff; stroke-width:0px;"/><path d="M489.5,543.9c0,.1,0,.2-.2.2-1.6,0-2.8-.4-3.5-1.2-.8.8-1.6,1.2-2.5,1.2s-.2,0-.2-.2v-2.6c0-.1,0-.2.2-.2.7,0,1.2-.2,1.6-.5,0-.1,0-.3,0-.4v-9.1s2.8-.3,2.8-.3v8.4c0,1.3.5,1.9,1.5,1.9s.2,0,.2.2v2.6Z" style="fill:#fff; stroke-width:0px;"/><path d="M493.1,541.3v2.6c0,.1,0,.2-.2.2h-3.5c-.1,0-.2,0-.2-.2v-2.6c0-.1,0-.2.2-.2h3.5c.1,0,.2,0,.2.2Z" style="fill:#fff; stroke-width:0px;"/><path d="M496.6,541.3v2.6c0,.1,0,.2-.2.2h-3.5c-.1,0-.2,0-.2-.2v-2.6c0-.1,0-.2.2-.2h3.5c.1,0,.2,0,.2.2Z" style="fill:#fff; stroke-width:0px;"/><path d="M500.2,541.3v2.6c0,.1,0,.2-.2.2h-3.5c-.1,0-.2,0-.2-.2v-2.6c0-.1,0-.2.2-.2h3.5c.1,0,.2,0,.2.2Z" style="fill:#fff; stroke-width:0px;"/><path d="M503.7,541.3v2.6c0,.1,0,.2-.2.2h-3.5c-.1,0-.2,0-.2-.2v-2.6c0-.1,0-.2.2-.2h3.5c.1,0,.2,0,.2.2Z" style="fill:#fff; stroke-width:0px;"/><path d="M507.2,541.3v2.6c0,.1,0,.2-.2.2h-3.5c-.1,0-.2,0-.2-.2v-2.6c0-.1,0-.2.2-.2h3.5c.1,0,.2,0,.2.2Z" style="fill:#fff; stroke-width:0px;"/><path d="M510.8,541.3v2.6c0,.1,0,.2-.2.2h-3.5c-.1,0-.2,0-.2-.2v-2.6c0-.1,0-.2.2-.2h3.5c.1,0,.2,0,.2.2Z" style="fill:#fff; stroke-width:0px;"/><path d="M514.3,541.3v2.6c0,.1,0,.2-.2.2h-3.5c-.1,0-.2,0-.2-.2v-2.6c0-.1,0-.2.2-.2h3.5c.1,0,.2,0,.2.2Z" style="fill:#fff; stroke-width:0px;"/><path d="M517.9,541.3v2.6c0,.1,0,.2-.2.2h-3.5c-.1,0-.2,0-.2-.2v-2.6c0-.1,0-.2.2-.2h3.5c.1,0,.2,0,.2.2Z" style="fill:#fff; stroke-width:0px;"/><path d="M521.4,541.3v2.6c0,.1,0,.2-.2.2h-3.5c-.1,0-.2,0-.2-.2v-2.6c0-.1,0-.2.2-.2h3.5c.1,0,.2,0,.2.2Z" style="fill:#fff; stroke-width:0px;"/><path d="M525,541.3v2.6c0,.1,0,.2-.2.2h-3.5c-.1,0-.2,0-.2-.2v-2.6c0-.1,0-.2.2-.2h3.5c.1,0,.2,0,.2.2Z" style="fill:#fff; stroke-width:0px;"/><path d="M528.5,541.3v2.6c0,.1,0,.2-.2.2h-3.5c-.1,0-.2,0-.2-.2v-2.6c0-.1,0-.2.2-.2h3.5c.1,0,.2,0,.2.2Z" style="fill:#fff; stroke-width:0px;"/><path d="M532.6,548.8l-1.3-1.3-1.3,1.3-1.9-1.9,1.9-1.9,1.3,1.3,1.3-1.3,1.9,1.9-1.9,1.9ZM528.1,543.9v-2.6c0-.1.1-.2.2-.2h1.5c1,0,1.5-.6,1.5-1.9v-4s2.8-.3,2.8-.3v5.4c0,2.5-1.4,3.8-4.4,3.8h-1.5c-.1,0-.2,0-.2-.2Z" style="fill:#fff; stroke-width:0px;"/><path d="M539.9,547.4l-.3,1.5h-4.3v-1.5h.8c-.1-.3-.2-.6-.2-.9,0-.9.8-1.7,1.8-1.7s1.2.2,1.6.4v1.4c-.5-.2-.9-.3-1.2-.3-.4,0-.7.2-.7.5s0,.4.2.6h2.3ZM539.2,544.1h-2.8v-13l2.8-.3v13.3Z" style="fill:#fff; stroke-width:0px;"/><path d="M450.8,587.4v5.4c0,2.5-1.4,3.8-4.3,3.8h-4.8c-3,0-4.5-1.4-4.5-4.1s0-1.8.3-3l2.4.3c-.1.9-.2,1.4-.2,1.8,0,1.4.8,2,2.6,2h4c1,0,1.5-.6,1.5-1.9v-4s2.8-.3,2.8-.3ZM444.4,597.6l1.9,1.9-1.9,1.9-1.9-1.9,1.9-1.9Z" style="fill:#fff; stroke-width:0px;"/><path d="M457,583.2l-.3,1.5h-4.3v-1.5h.8c-.1-.3-.2-.6-.2-.9,0-1,.8-1.7,1.8-1.7s1.2.2,1.6.4v1.4c-.5-.2-.9-.3-1.2-.3s-.7.2-.7.5,0,.4.2.6h2.3ZM453.1,585.9l2.8-.3v11.1h-2.8v-10.8Z" style="fill:#fff; stroke-width:0px;"/><path d="M474.8,593.9v2.6c0,.1,0,.2-.2.2-.8,0-1.5-.3-2-.8-.3,3-2.2,4.7-5.6,4.7s-5.5-1.6-5.5-4.9.3-2.6.8-4.3l2.3.6c-.3,1-.5,1.9-.5,2.8,0,1.8,1,2.7,2.9,2.7s2.8-1,2.8-3v-11l2.8-.3v8.8c0,1,.9,1.7,2,1.7s.2,0,.2.2Z" style="fill:#fff; stroke-width:0px;"/><path d="M478.3,593.9v2.6c0,.1,0,.2-.2.2h-3.5c-.1,0-.2,0-.2-.2v-2.6c0-.1,0-.2.2-.2h3.5c.1,0,.2,0,.2.2Z" style="fill:#fff; stroke-width:0px;"/><path d="M481.9,593.9v2.6c0,.1,0,.2-.2.2h-3.5c-.1,0-.2,0-.2-.2v-2.6c0-.1,0-.2.2-.2h3.5c.1,0,.2,0,.2.2Z" style="fill:#fff; stroke-width:0px;"/><path d="M485.4,593.9v2.6c0,.1,0,.2-.2.2h-3.5c-.1,0-.2,0-.2-.2v-2.6c0-.1,0-.2.2-.2h3.5c.1,0,.2,0,.2.2Z" style="fill:#fff; stroke-width:0px;"/><path d="M489,593.9v2.6c0,.1,0,.2-.2.2h-3.5c-.1,0-.2,0-.2-.2v-2.6c0-.1,0-.2.2-.2h3.5c.1,0,.2,0,.2.2Z" style="fill:#fff; stroke-width:0px;"/><path d="M492.5,593.9v2.6c0,.1,0,.2-.2.2h-3.5c-.1,0-.2,0-.2-.2v-2.6c0-.1,0-.2.2-.2h3.5c.1,0,.2,0,.2.2Z" style="fill:#fff; stroke-width:0px;"/><path d="M496,593.9v2.6c0,.1,0,.2-.2.2h-3.5c-.1,0-.2,0-.2-.2v-2.6c0-.1,0-.2.2-.2h3.5c.1,0,.2,0,.2.2Z" style="fill:#fff; stroke-width:0px;"/><path d="M499.6,593.9v2.6c0,.1,0,.2-.2.2h-3.5c-.1,0-.2,0-.2-.2v-2.6c0-.1,0-.2.2-.2h3.5c.1,0,.2,0,.2.2Z" style="fill:#fff; stroke-width:0px;"/><path d="M503.1,593.9v2.6c0,.1,0,.2-.2.2h-3.5c-.1,0-.2,0-.2-.2v-2.6c0-.1,0-.2.2-.2h3.5c.1,0,.2,0,.2.2Z" style="fill:#fff; stroke-width:0px;"/><path d="M506.7,593.9v2.6c0,.1,0,.2-.2.2h-3.5c-.1,0-.2,0-.2-.2v-2.6c0-.1,0-.2.2-.2h3.5c.1,0,.2,0,.2.2Z" style="fill:#fff; stroke-width:0px;"/><path d="M510.2,593.9v2.6c0,.1,0,.2-.2.2h-3.5c-.1,0-.2,0-.2-.2v-2.6c0-.1,0-.2.2-.2h3.5c.1,0,.2,0,.2.2Z" style="fill:#fff; stroke-width:0px;"/><path d="M513.8,593.9v2.6c0,.1,0,.2-.2.2h-3.5c-.1,0-.2,0-.2-.2v-2.6c0-.1,0-.2.2-.2h3.5c.1,0,.2,0,.2.2Z" style="fill:#fff; stroke-width:0px;"/><path d="M517.3,593.9v2.6c0,.1,0,.2-.2.2h-3.5c-.1,0-.2,0-.2-.2v-2.6c0-.1,0-.2.2-.2h3.5c.1,0,.2,0,.2.2Z" style="fill:#fff; stroke-width:0px;"/><path d="M520.9,593.9v2.6c0,.1,0,.2-.2.2h-3.5c-.1,0-.2,0-.2-.2v-2.6c0-.1,0-.2.2-.2h3.5c.1,0,.2,0,.2.2Z" style="fill:#fff; stroke-width:0px;"/><path d="M524.4,593.9v2.6c0,.1,0,.2-.2.2h-3.5c-.1,0-.2,0-.2-.2v-2.6c0-.1,0-.2.2-.2h3.5c.1,0,.2,0,.2.2Z" style="fill:#fff; stroke-width:0px;"/><path d="M534.5,593.9v2.6c0,.1,0,.2-.2.2-1.4,0-3.1-.3-4.8-.9-1.6.6-3.5.9-5.3.9-.1,0-.2,0-.2-.2v-2.6c0-.1,0-.2.2-.2.6,0,1.2,0,1.8,0-.5-.7-.8-1.5-.8-2.4,0-2.2,1.6-3.9,4.1-3.9s4.2,1.9,4.2,3.9-.3,1.7-.9,2.3c.5,0,1.1.1,1.7.1s.2,0,.2.2ZM529.1,586.1l-1.9-1.9,1.9-1.9,1.9,1.9-1.9,1.9ZM527.6,591.6c0,.8.6,1.6,1.6,2,1-.4,1.6-1.2,1.6-2s-.8-1.6-1.6-1.6-1.6.7-1.6,1.6Z" style="fill:#fff; stroke-width:0px;"/><path d="M534.2,596.5v-2.6c0-.1,0-.2.2-.2,1,0,1.5-.6,1.5-1.9v-8.1s2.9-.3,2.9-.3v9.5c0,2.6-1.5,3.9-4.4,3.9s-.2,0-.2-.2Z" style="fill:#fff; stroke-width:0px;"/><path d="M55.6,535.5h-5.1v-1.6h7.4v1l-4.6,9.6h-2.1l4.4-9Z" style="fill:#fff; stroke-width:0px;"/><path d="M59.8,542.8h1.8l-1.4,3.2h-1.4l.9-3.2Z" style="fill:#fff; stroke-width:0px;"/><path d="M67.3,544.7c-1,0-1.8-.2-2.5-.7s-1.2-1.2-1.5-2c-.3-.8-.5-1.8-.5-2.8s.2-2,.5-2.8c.4-.8.9-1.5,1.6-2,.7-.5,1.5-.7,2.4-.7s1.9.3,2.6.8c.7.5,1.2,1.2,1.5,2,.3.8.5,1.8.5,2.8s-.2,2-.5,2.8c-.3.8-.9,1.5-1.5,2-.7.5-1.5.7-2.5.7ZM67.3,543c.5,0,1-.2,1.4-.5.4-.3.7-.8.9-1.3s.3-1.2.3-2-.1-1.4-.3-1.9-.5-1-.9-1.3c-.4-.3-.9-.5-1.4-.5s-1,.2-1.4.5c-.4.3-.7.8-.9,1.3-.2.6-.3,1.2-.3,2s.1,1.4.3,1.9c.2.6.5,1,.9,1.3.4.3.9.5,1.4.5Z" style="fill:#fff; stroke-width:0px;"/><path d="M77.5,544.7c-1,0-1.8-.2-2.5-.7s-1.2-1.2-1.5-2c-.3-.8-.5-1.8-.5-2.8s.2-2,.5-2.8c.4-.8.9-1.5,1.6-2,.7-.5,1.5-.7,2.4-.7s1.9.3,2.6.8c.7.5,1.2,1.2,1.5,2,.3.8.5,1.8.5,2.8s-.2,2-.5,2.8c-.3.8-.9,1.5-1.5,2-.7.5-1.5.7-2.5.7ZM77.5,543c.5,0,1-.2,1.4-.5.4-.3.7-.8.9-1.3s.3-1.2.3-2-.1-1.4-.3-1.9-.5-1-.9-1.3c-.4-.3-.9-.5-1.4-.5s-1,.2-1.4.5c-.4.3-.7.8-.9,1.3-.2.6-.3,1.2-.3,2s.1,1.4.3,1.9c.2.6.5,1,.9,1.3.4.3.9.5,1.4.5Z" style="fill:#fff; stroke-width:0px;"/><path d="M87.6,544.7c-1,0-1.8-.2-2.5-.7s-1.2-1.2-1.5-2c-.3-.8-.5-1.8-.5-2.8s.2-2,.5-2.8c.4-.8.9-1.5,1.6-2,.7-.5,1.5-.7,2.4-.7s1.9.3,2.6.8c.7.5,1.2,1.2,1.5,2,.3.8.5,1.8.5,2.8s-.2,2-.5,2.8c-.3.8-.9,1.5-1.5,2-.7.5-1.5.7-2.5.7ZM87.6,543c.5,0,1-.2,1.4-.5.4-.3.7-.8.9-1.3s.3-1.2.3-2-.1-1.4-.3-1.9-.5-1-.9-1.3c-.4-.3-.9-.5-1.4-.5s-1,.2-1.4.5c-.4.3-.7.8-.9,1.3-.2.6-.3,1.2-.3,2s.1,1.4.3,1.9c.2.6.5,1,.9,1.3.4.3.9.5,1.4.5Z" style="fill:#fff; stroke-width:0px;"/><path d="M97.8,533.9h1.9v10.6h-1.9v-10.6Z" style="fill:#fff; stroke-width:0px;"/><path d="M107.3,544.7c-1,0-2-.2-2.9-.7-.9-.5-1.6-1.2-2.1-2s-.8-1.8-.8-2.8.3-1.9.8-2.8c.5-.8,1.2-1.5,2.1-2,.9-.5,1.8-.7,2.9-.7s2,.2,2.9.7c.9.5,1.6,1.2,2.1,2,.5.8.8,1.8.8,2.8s-.3,1.9-.8,2.8-1.2,1.5-2.1,2c-.9.5-1.8.7-2.9.7ZM107.3,542.9c.7,0,1.3-.2,1.9-.5.6-.3,1-.8,1.4-1.3.3-.6.5-1.2.5-1.9s-.2-1.3-.5-1.9c-.3-.6-.8-1-1.4-1.4s-1.2-.5-1.9-.5-1.3.2-1.9.5-1,.8-1.4,1.4c-.3.6-.5,1.2-.5,1.9s.2,1.3.5,1.9.8,1,1.4,1.3,1.2.5,1.9.5ZM109,544l1.7-.8,1.9,2.7-1.8,1-1.8-2.9Z" style="fill:#fff; stroke-width:0px;"/><path d="M115,533.9h4.1c1.1,0,2.1.2,3,.7.9.4,1.5,1.1,2,1.9.5.8.7,1.7.7,2.8s-.2,2-.7,2.8-1.1,1.4-2,1.9c-.9.4-1.8.7-2.9.7h-4.1v-10.6ZM119,542.8c.8,0,1.4-.1,2-.4.6-.3,1-.7,1.3-1.2.3-.5.4-1.2.4-1.9s-.1-1.4-.4-1.9c-.3-.5-.7-1-1.3-1.3-.6-.3-1.2-.4-2-.4h-2.1v7.2h2.1Z" style="fill:#fff; stroke-width:0px;"/><path d="M56.1,590.6h-5.1v-1.6h7.4v1l-4.6,9.6h-2.1l4.4-9Z" style="fill:#fff; stroke-width:0px;"/><path d="M60.3,597.8h1.8l-1.4,3.2h-1.4l.9-3.2Z" style="fill:#fff; stroke-width:0px;"/><path d="M67.4,599.8c-.7,0-1.3-.1-1.8-.4s-1.1-.6-1.5-1.2-.6-1.2-.7-2.1h1.9c0,.4.2.8.4,1s.5.5.8.6.6.2.9.2.7,0,1-.3.5-.4.7-.7.2-.6.2-1,0-.7-.3-1-.5-.5-.8-.6-.8-.2-1.2-.2h-2.1s-.8-.7-.8-.7l.6-4.7h5.9v1.6h-4.2l-.3,2.4h1.5c.8,0,1.4.1,2,.4s1,.6,1.3,1.1.5,1,.5,1.7-.2,1.3-.5,1.8-.8,1-1.4,1.4-1.3.5-2.1.5Z" style="fill:#fff; stroke-width:0px;"/><path d="M76.9,599.8c-1,0-1.8-.2-2.5-.7s-1.2-1.2-1.5-2-.5-1.8-.5-2.8.2-2,.5-2.8.9-1.5,1.6-2,1.5-.7,2.4-.7,1.9.3,2.6.8,1.2,1.2,1.5,2,.5,1.8.5,2.8-.2,2-.5,2.8-.9,1.5-1.5,2-1.5.7-2.5.7ZM76.9,598c.5,0,1-.2,1.4-.5s.7-.8.9-1.3.3-1.2.3-2-.1-1.4-.3-1.9-.5-1-.9-1.3-.9-.5-1.4-.5-1,.2-1.4.5-.7.8-.9,1.3-.3,1.2-.3,2,.1,1.4.3,1.9.5,1,.9,1.3.9.5,1.4.5Z" style="fill:#fff; stroke-width:0px;"/><path d="M87.1,599.8c-1,0-1.8-.2-2.5-.7s-1.2-1.2-1.5-2-.5-1.8-.5-2.8.2-2,.5-2.8.9-1.5,1.6-2,1.5-.7,2.4-.7,1.9.3,2.6.8,1.2,1.2,1.5,2,.5,1.8.5,2.8-.2,2-.5,2.8-.9,1.5-1.5,2-1.5.7-2.5.7ZM87.1,598c.5,0,1-.2,1.4-.5s.7-.8.9-1.3.3-1.2.3-2-.1-1.4-.3-1.9-.5-1-.9-1.3-.9-.5-1.4-.5-1,.2-1.4.5-.7.8-.9,1.3-.3,1.2-.3,2,.1,1.4.3,1.9.5,1,.9,1.3.9.5,1.4.5Z" style="fill:#fff; stroke-width:0px;"/><path d="M97.3,589h1.9v10.6h-1.9v-10.6Z" style="fill:#fff; stroke-width:0px;"/><path d="M106.8,599.8c-1,0-2-.2-2.9-.7s-1.6-1.2-2.1-2-.8-1.8-.8-2.8.3-1.9.8-2.8,1.2-1.5,2.1-2,1.8-.7,2.9-.7,2,.2,2.9.7,1.6,1.2,2.1,2,.8,1.8.8,2.8-.3,1.9-.8,2.8-1.2,1.5-2.1,2-1.8.7-2.9.7ZM106.8,598c.7,0,1.3-.2,1.9-.5s1-.8,1.4-1.3.5-1.2.5-1.9-.2-1.4-.5-1.9-.8-1-1.4-1.4-1.2-.5-1.9-.5-1.3.2-1.9.5-1,.8-1.4,1.4-.5,1.2-.5,1.9.2,1.3.5,1.9.8,1,1.4,1.3,1.2.5,1.9.5ZM108.4,599l1.7-.8,1.9,2.7-1.8,1-1.8-2.9Z" style="fill:#fff; stroke-width:0px;"/><path d="M114.5,589h4.1c1.1,0,2.1.2,3,.7s1.5,1.1,2,1.9.7,1.7.7,2.8-.2,2-.7,2.8-1.1,1.4-2,1.9-1.8.7-2.9.7h-4.1v-10.6ZM118.5,597.9c.8,0,1.4-.1,2-.4s1-.7,1.3-1.2.4-1.2.4-1.9-.1-1.4-.4-1.9-.7-1-1.3-1.3-1.2-.4-2-.4h-2.1v7.2h2.1Z" style="fill:#fff; stroke-width:0px;"/><rect x="156.4" y="540.5" width="255" height=".8" style="fill:#fff; stroke-width:0px;"/><rect x="156.4" y="593.3" width="255" height=".8" style="fill:#fff; stroke-width:0px;"/><path d="M449.3,646.8v2.6c0,.1,0,.2-.2.2h-.9c-.3,2.8-3.2,3.9-7.5,3.9l-.3-2.3c3.1,0,4.6-.4,4.9-1.6h-1.5c-2.6,0-4.3-1.8-4.3-4.5s2-4.7,4.5-4.7,4.3,1.7,4.3,4.6v1.7h.9c.1,0,.2,0,.2.2ZM444.1,646.8c.4,0,.9,0,1.4,0v-1.6c0-1.2-.7-1.9-1.7-1.9s-1.7.7-1.7,1.7.9,1.8,2,1.8Z" style="fill:#fff; stroke-width:0px;"/><path d="M452.8,646.8v2.6c0,.1,0,.2-.2.2h-3.5c-.1,0-.2,0-.2-.2v-2.6c0-.1,0-.2.2-.2h3.5c.1,0,.2,0,.2.2Z" style="fill:#fff; stroke-width:0px;"/><path d="M456.4,646.8v2.6c0,.1,0,.2-.2.2h-3.5c-.1,0-.2,0-.2-.2v-2.6c0-.1,0-.2.2-.2h3.5c.1,0,.2,0,.2.2Z" style="fill:#fff; stroke-width:0px;"/><path d="M459.9,646.8v2.6c0,.1,0,.2-.2.2h-3.5c-.1,0-.2,0-.2-.2v-2.6c0-.1,0-.2.2-.2h3.5c.1,0,.2,0,.2.2Z" style="fill:#fff; stroke-width:0px;"/><path d="M463.5,646.8v2.6c0,.1,0,.2-.2.2h-3.5c-.1,0-.2,0-.2-.2v-2.6c0-.1,0-.2.2-.2h3.5c.1,0,.2,0,.2.2Z" style="fill:#fff; stroke-width:0px;"/><path d="M467,646.8v2.6c0,.1,0,.2-.2.2h-3.5c-.1,0-.2,0-.2-.2v-2.6c0-.1,0-.2.2-.2h3.5c.1,0,.2,0,.2.2Z" style="fill:#fff; stroke-width:0px;"/><path d="M470.6,646.8v2.6c0,.1,0,.2-.2.2h-3.5c-.1,0-.2,0-.2-.2v-2.6c0-.1,0-.2.2-.2h3.5c.1,0,.2,0,.2.2Z" style="fill:#fff; stroke-width:0px;"/><path d="M474.1,646.8v2.6c0,.1,0,.2-.2.2h-3.5c-.1,0-.2,0-.2-.2v-2.6c0-.1,0-.2.2-.2h3.5c.1,0,.2,0,.2.2Z" style="fill:#fff; stroke-width:0px;"/><path d="M477.7,646.8v2.6c0,.1,0,.2-.2.2h-3.5c-.1,0-.2,0-.2-.2v-2.6c0-.1,0-.2.2-.2h3.5c.1,0,.2,0,.2.2Z" style="fill:#fff; stroke-width:0px;"/><path d="M481.7,654.3l-1.3-1.3-1.3,1.3-1.9-1.9,1.9-1.9,1.3,1.3,1.3-1.3,1.9,1.9-1.9,1.9ZM477.3,649.4v-2.6c0-.1.1-.2.2-.2h1.5c1,0,1.5-.6,1.5-1.9v-4s2.8-.3,2.8-.3v5.4c0,2.5-1.4,3.8-4.4,3.8h-1.5c-.1,0-.2,0-.2-.2Z" style="fill:#fff; stroke-width:0px;"/><path d="M484,651.2c1.5,0,2.6-.6,2.6-2.2v-8.4s2.8-.3,2.8-.3v8.8c0,3.2-1.7,4.3-5.2,4.3l-.2-2.3Z" style="fill:#fff; stroke-width:0px;"/><path d="M491.6,645.8v-9.1s2.8-.3,2.8-.3v8.4c0,1.3.5,1.9,1.5,1.9s.2,0,.2.2v2.6c0,.1,0,.2-.2.2-2.9,0-4.4-1.3-4.4-3.9Z" style="fill:#fff; stroke-width:0px;"/><path d="M499.8,646.8v2.6c0,.1,0,.2-.2.2h-3.5c-.1,0-.2,0-.2-.2v-2.6c0-.1,0-.2.2-.2h3.5c.1,0,.2,0,.2.2Z" style="fill:#fff; stroke-width:0px;"/><path d="M503.3,646.8v2.6c0,.1,0,.2-.2.2h-3.5c-.1,0-.2,0-.2-.2v-2.6c0-.1,0-.2.2-.2h3.5c.1,0,.2,0,.2.2Z" style="fill:#fff; stroke-width:0px;"/><path d="M506.8,646.8v2.6c0,.1,0,.2-.2.2h-3.5c-.1,0-.2,0-.2-.2v-2.6c0-.1,0-.2.2-.2h3.5c.1,0,.2,0,.2.2Z" style="fill:#fff; stroke-width:0px;"/><path d="M510.4,646.8v2.6c0,.1,0,.2-.2.2h-3.5c-.1,0-.2,0-.2-.2v-2.6c0-.1,0-.2.2-.2h3.5c.1,0,.2,0,.2.2Z" style="fill:#fff; stroke-width:0px;"/><path d="M513.9,646.8v2.6c0,.1,0,.2-.2.2h-3.5c-.1,0-.2,0-.2-.2v-2.6c0-.1,0-.2.2-.2h3.5c.1,0,.2,0,.2.2Z" style="fill:#fff; stroke-width:0px;"/><path d="M517.5,646.8v2.6c0,.1,0,.2-.2.2h-3.5c-.1,0-.2,0-.2-.2v-2.6c0-.1,0-.2.2-.2h3.5c.1,0,.2,0,.2.2Z" style="fill:#fff; stroke-width:0px;"/><path d="M521,646.8v2.6c0,.1,0,.2-.2.2h-3.5c-.1,0-.2,0-.2-.2v-2.6c0-.1,0-.2.2-.2h3.5c.1,0,.2,0,.2.2Z" style="fill:#fff; stroke-width:0px;"/><path d="M524.6,646.8v2.6c0,.1,0,.2-.2.2h-3.5c-.1,0-.2,0-.2-.2v-2.6c0-.1,0-.2.2-.2h3.5c.1,0,.2,0,.2.2Z" style="fill:#fff; stroke-width:0px;"/><path d="M528.1,646.8v2.6c0,.1,0,.2-.2.2h-3.5c-.1,0-.2,0-.2-.2v-2.6c0-.1,0-.2.2-.2h3.5c.1,0,.2,0,.2.2Z" style="fill:#fff; stroke-width:0px;"/><path d="M537.3,644.6c0,3-2,5-5.2,5h-4.2c-.1,0-.2,0-.2-.2v-2.6c0-.1,0-.2.2-.2h1.1c-.3-.7-.5-1.4-.5-2.1,0-2.5,1.9-4.3,4.3-4.3s4.5,1.9,4.5,4.4ZM534.5,644.6c0-1-.7-1.7-1.7-1.7s-1.8.8-1.8,1.8.2,1.2.5,1.9h.6c1.5,0,2.4-.8,2.4-2Z" style="fill:#fff; stroke-width:0px;"/><path d="M55.6,640h-5.1v-1.6h7.4v1l-4.6,9.6h-2.1l4.4-9Z" style="fill:#fff; stroke-width:0px;"/><path d="M59.8,647.3h1.8l-1.4,3.2h-1.4l.9-3.2Z" style="fill:#fff; stroke-width:0px;"/><path d="M67.3,649.3c-1,0-1.8-.2-2.5-.7s-1.2-1.2-1.5-2-.5-1.8-.5-2.8.2-2,.5-2.8.9-1.5,1.6-2,1.5-.7,2.4-.7,1.9.3,2.6.8,1.2,1.2,1.5,2,.5,1.8.5,2.8-.2,2-.5,2.8-.9,1.5-1.5,2-1.5.7-2.5.7ZM67.3,647.5c.5,0,1-.2,1.4-.5s.7-.8.9-1.3.3-1.2.3-2-.1-1.4-.3-1.9-.5-1-.9-1.3-.9-.5-1.4-.5-1,.2-1.4.5-.7.8-.9,1.3-.3,1.2-.3,2,.1,1.4.3,1.9.5,1,.9,1.3.9.5,1.4.5Z" style="fill:#fff; stroke-width:0px;"/><path d="M77.5,649.3c-1,0-1.8-.2-2.5-.7s-1.2-1.2-1.5-2-.5-1.8-.5-2.8.2-2,.5-2.8.9-1.5,1.6-2,1.5-.7,2.4-.7,1.9.3,2.6.8,1.2,1.2,1.5,2,.5,1.8.5,2.8-.2,2-.5,2.8-.9,1.5-1.5,2-1.5.7-2.5.7ZM77.5,647.5c.5,0,1-.2,1.4-.5s.7-.8.9-1.3.3-1.2.3-2-.1-1.4-.3-1.9-.5-1-.9-1.3-.9-.5-1.4-.5-1,.2-1.4.5-.7.8-.9,1.3-.3,1.2-.3,2,.1,1.4.3,1.9.5,1,.9,1.3.9.5,1.4.5Z" style="fill:#fff; stroke-width:0px;"/><path d="M87.6,649.3c-1,0-1.8-.2-2.5-.7s-1.2-1.2-1.5-2-.5-1.8-.5-2.8.2-2,.5-2.8.9-1.5,1.6-2,1.5-.7,2.4-.7,1.9.3,2.6.8,1.2,1.2,1.5,2,.5,1.8.5,2.8-.2,2-.5,2.8-.9,1.5-1.5,2-1.5.7-2.5.7ZM87.6,647.5c.5,0,1-.2,1.4-.5s.7-.8.9-1.3.3-1.2.3-2-.1-1.4-.3-1.9-.5-1-.9-1.3-.9-.5-1.4-.5-1,.2-1.4.5-.7.8-.9,1.3-.3,1.2-.3,2,.1,1.4.3,1.9.5,1,.9,1.3.9.5,1.4.5Z" style="fill:#fff; stroke-width:0px;"/><path d="M97.8,638.4h1.9v10.6h-1.9v-10.6Z" style="fill:#fff; stroke-width:0px;"/><path d="M107.3,649.3c-1,0-2-.2-2.9-.7s-1.6-1.2-2.1-2-.8-1.8-.8-2.8.3-1.9.8-2.8,1.2-1.5,2.1-2,1.8-.7,2.9-.7,2,.2,2.9.7,1.6,1.2,2.1,2,.8,1.8.8,2.8-.3,1.9-.8,2.8-1.2,1.5-2.1,2-1.8.7-2.9.7ZM107.3,647.5c.7,0,1.3-.2,1.9-.5s1-.8,1.4-1.3.5-1.2.5-1.9-.2-1.4-.5-1.9-.8-1-1.4-1.4-1.2-.5-1.9-.5-1.3.2-1.9.5-1,.8-1.4,1.4-.5,1.2-.5,1.9.2,1.3.5,1.9.8,1,1.4,1.3,1.2.5,1.9.5ZM109,648.5l1.7-.8,1.9,2.7-1.8,1-1.8-2.9Z" style="fill:#fff; stroke-width:0px;"/><path d="M115,638.4h4.1c1.1,0,2.1.2,3,.7s1.5,1.1,2,1.9.7,1.7.7,2.8-.2,2-.7,2.8-1.1,1.4-2,1.9-1.8.7-2.9.7h-4.1v-10.6ZM119,647.3c.8,0,1.4-.1,2-.4s1-.7,1.3-1.2.4-1.2.4-1.9-.1-1.4-.4-1.9-.7-1-1.3-1.3-1.2-.4-2-.4h-2.1v7.2h2.1Z" style="fill:#fff; stroke-width:0px;"/><rect x="156.4" y="645.1" width="255" height=".8" style="fill:#fff; stroke-width:0px;"/><path d="M462.9,692.8v5.4c0,2.5-1.3,3.8-3.8,3.8s-2-.3-3-1c-.7.7-1.7,1-2.9,1s-1.5-.2-2.2-.7c-.3,2.9-2.3,4.6-5.6,4.6s-5.5-1.6-5.5-4.9.3-2.6.8-4.3l2.3.6c-.3,1-.5,1.9-.5,2.8,0,1.8,1,2.7,2.9,2.7s2.8-1,2.8-3v-6.8l2.8-.3v5.8c.6.3,1.2.5,1.8.5,1,0,1.5-.6,1.5-1.9v-2.2s2.8-.3,2.8-.3v3.6c0,.2,0,.4,0,.6.5.1.9.2,1.4.2,1,0,1.5-.6,1.5-1.9v-4l2.8-.3Z" style="fill:#fff; stroke-width:0px;"/><path d="M474.2,699.2v2.6c0,.1,0,.2-.2.2h-.9c-.3,2.8-3.2,3.9-7.5,3.9l-.3-2.3c3.1,0,4.6-.4,4.9-1.6h-1.5c-2.6,0-4.3-1.8-4.3-4.5s2-4.7,4.5-4.7,4.3,1.7,4.3,4.6v1.7h.9c.1,0,.2,0,.2.2ZM468.9,699.2c.4,0,.9,0,1.4,0v-1.6c0-1.2-.7-1.9-1.7-1.9s-1.7.7-1.7,1.7.9,1.8,2,1.8Z" style="fill:#fff; stroke-width:0px;"/><path d="M477.7,699.2v2.6c0,.1,0,.2-.2.2h-3.5c-.1,0-.2,0-.2-.2v-2.6c0-.1,0-.2.2-.2h3.5c.1,0,.2,0,.2.2Z" style="fill:#fff; stroke-width:0px;"/><path d="M481.3,699.2v2.6c0,.1,0,.2-.2.2h-3.5c-.1,0-.2,0-.2-.2v-2.6c0-.1,0-.2.2-.2h3.5c.1,0,.2,0,.2.2Z" style="fill:#fff; stroke-width:0px;"/><path d="M484.8,699.2v2.6c0,.1,0,.2-.2.2h-3.5c-.1,0-.2,0-.2-.2v-2.6c0-.1,0-.2.2-.2h3.5c.1,0,.2,0,.2.2Z" style="fill:#fff; stroke-width:0px;"/><path d="M488.4,699.2v2.6c0,.1,0,.2-.2.2h-3.5c-.1,0-.2,0-.2-.2v-2.6c0-.1,0-.2.2-.2h3.5c.1,0,.2,0,.2.2Z" style="fill:#fff; stroke-width:0px;"/><path d="M491.9,699.2v2.6c0,.1,0,.2-.2.2h-3.5c-.1,0-.2,0-.2-.2v-2.6c0-.1,0-.2.2-.2h3.5c.1,0,.2,0,.2.2Z" style="fill:#fff; stroke-width:0px;"/><path d="M495.4,699.2v2.6c0,.1,0,.2-.2.2h-3.5c-.1,0-.2,0-.2-.2v-2.6c0-.1,0-.2.2-.2h3.5c.1,0,.2,0,.2.2Z" style="fill:#fff; stroke-width:0px;"/><path d="M499,699.2v2.6c0,.1,0,.2-.2.2h-3.5c-.1,0-.2,0-.2-.2v-2.6c0-.1,0-.2.2-.2h3.5c.1,0,.2,0,.2.2Z" style="fill:#fff; stroke-width:0px;"/><path d="M506.1,699.2v2.6c0,.1,0,.2-.2.2-1,0-2-.5-2.9-1.4-.8.9-2.3,1.4-4.2,1.4s-.2,0-.2-.2v-2.6c0-.1.1-.2.2-.2,1.4,0,2.2-.5,2.2-1.9v-2.2s2.8-.3,2.8-.3v3.8c.6.4,1.3.6,2,.6s.2,0,.2.2ZM500.9,693.7l-1.9-1.9,1.9-1.9,1.4,1.4,1.4-1.4,1.9,1.9-1.9,1.9-1.5-1.4-1.4,1.4Z" style="fill:#fff; stroke-width:0px;"/><path d="M510.1,706.7l-1.3-1.3-1.3,1.3-1.9-1.9,1.9-1.9,1.3,1.3,1.3-1.3,1.9,1.9-1.9,1.9ZM505.7,701.8v-2.6c0-.1.1-.2.2-.2h1.5c1,0,1.5-.6,1.5-1.9v-4s2.8-.3,2.8-.3v5.4c0,2.5-1.4,3.8-4.4,3.8h-1.5c-.1,0-.2,0-.2-.2Z" style="fill:#fff; stroke-width:0px;"/><path d="M519.8,699.2v2.6c0,.1,0,.2-.2.2-.8,0-1.4-.3-1.9-.7v.3c0,3.2-1.7,4.3-5.2,4.3l-.2-2.3c1.5,0,2.6-.6,2.6-2.2v-8.4s2.8-.3,2.8-.3v4.9c.1.9.9,1.3,1.9,1.3s.2,0,.2.2Z" style="fill:#fff; stroke-width:0px;"/><path d="M523.4,699.2v2.6c0,.1,0,.2-.2.2h-3.5c-.1,0-.2,0-.2-.2v-2.6c0-.1,0-.2.2-.2h3.5c.1,0,.2,0,.2.2Z" style="fill:#fff; stroke-width:0px;"/><path d="M526.9,699.2v2.6c0,.1,0,.2-.2.2h-3.5c-.1,0-.2,0-.2-.2v-2.6c0-.1,0-.2.2-.2h3.5c.1,0,.2,0,.2.2Z" style="fill:#fff; stroke-width:0px;"/><path d="M536.9,697.8c0,2.7-1.7,4.3-4.5,4.3h-5.7c-.1,0-.2,0-.2-.2v-2.6c0-.1,0-.2.2-.2h5.7c1,0,1.6-.5,1.6-1.3s-.6-1.3-1.6-1.3h-4.1l-1.5-2.6,5.2-6.4,2.5,1.4-4.8,5h2.5c2.8,0,4.6,1.5,4.6,3.9Z" style="fill:#fff; stroke-width:0px;"/><path d="M55.6,692.4h-5.1v-1.6h7.4v1l-4.6,9.6h-2.1l4.4-9Z" style="fill:#fff; stroke-width:0px;"/><path d="M59.8,699.7h1.8l-1.4,3.2h-1.4l.9-3.2Z" style="fill:#fff; stroke-width:0px;"/><path d="M67.3,701.7c-1,0-1.8-.2-2.5-.7s-1.2-1.2-1.5-2c-.3-.8-.5-1.8-.5-2.8s.2-2,.5-2.8c.4-.8.9-1.5,1.6-2,.7-.5,1.5-.7,2.4-.7s1.9.3,2.6.8c.7.5,1.2,1.2,1.5,2,.3.8.5,1.8.5,2.8s-.2,2-.5,2.8c-.3.8-.9,1.5-1.5,2-.7.5-1.5.7-2.5.7ZM67.3,699.9c.5,0,1-.2,1.4-.5.4-.3.7-.8.9-1.3s.3-1.2.3-2-.1-1.4-.3-1.9-.5-1-.9-1.3c-.4-.3-.9-.5-1.4-.5s-1,.2-1.4.5c-.4.3-.7.8-.9,1.3-.2.6-.3,1.2-.3,2s.1,1.4.3,1.9c.2.6.5,1,.9,1.3.4.3.9.5,1.4.5Z" style="fill:#fff; stroke-width:0px;"/><path d="M77.5,701.7c-1,0-1.8-.2-2.5-.7s-1.2-1.2-1.5-2c-.3-.8-.5-1.8-.5-2.8s.2-2,.5-2.8c.4-.8.9-1.5,1.6-2,.7-.5,1.5-.7,2.4-.7s1.9.3,2.6.8c.7.5,1.2,1.2,1.5,2,.3.8.5,1.8.5,2.8s-.2,2-.5,2.8c-.3.8-.9,1.5-1.5,2-.7.5-1.5.7-2.5.7ZM77.5,699.9c.5,0,1-.2,1.4-.5.4-.3.7-.8.9-1.3s.3-1.2.3-2-.1-1.4-.3-1.9-.5-1-.9-1.3c-.4-.3-.9-.5-1.4-.5s-1,.2-1.4.5c-.4.3-.7.8-.9,1.3-.2.6-.3,1.2-.3,2s.1,1.4.3,1.9c.2.6.5,1,.9,1.3.4.3.9.5,1.4.5Z" style="fill:#fff; stroke-width:0px;"/><path d="M87.6,701.7c-1,0-1.8-.2-2.5-.7s-1.2-1.2-1.5-2c-.3-.8-.5-1.8-.5-2.8s.2-2,.5-2.8c.4-.8.9-1.5,1.6-2,.7-.5,1.5-.7,2.4-.7s1.9.3,2.6.8c.7.5,1.2,1.2,1.5,2,.3.8.5,1.8.5,2.8s-.2,2-.5,2.8c-.3.8-.9,1.5-1.5,2-.7.5-1.5.7-2.5.7ZM87.6,699.9c.5,0,1-.2,1.4-.5.4-.3.7-.8.9-1.3s.3-1.2.3-2-.1-1.4-.3-1.9-.5-1-.9-1.3c-.4-.3-.9-.5-1.4-.5s-1,.2-1.4.5c-.4.3-.7.8-.9,1.3-.2.6-.3,1.2-.3,2s.1,1.4.3,1.9c.2.6.5,1,.9,1.3.4.3.9.5,1.4.5Z" style="fill:#fff; stroke-width:0px;"/><path d="M97.8,690.8h1.9v10.6h-1.9v-10.6Z" style="fill:#fff; stroke-width:0px;"/><path d="M107.3,701.7c-1,0-2-.2-2.9-.7-.9-.5-1.6-1.2-2.1-2s-.8-1.8-.8-2.8.3-1.9.8-2.8c.5-.8,1.2-1.5,2.1-2,.9-.5,1.8-.7,2.9-.7s2,.2,2.9.7c.9.5,1.6,1.2,2.1,2,.5.8.8,1.8.8,2.8s-.3,1.9-.8,2.8-1.2,1.5-2.1,2c-.9.5-1.8.7-2.9.7ZM107.3,699.9c.7,0,1.3-.2,1.9-.5.6-.3,1-.8,1.4-1.3.3-.6.5-1.2.5-1.9s-.2-1.3-.5-1.9c-.3-.6-.8-1-1.4-1.4s-1.2-.5-1.9-.5-1.3.2-1.9.5-1,.8-1.4,1.4c-.3.6-.5,1.2-.5,1.9s.2,1.3.5,1.9.8,1,1.4,1.3,1.2.5,1.9.5ZM109,700.9l1.7-.8,1.9,2.7-1.8,1-1.8-2.9Z" style="fill:#fff; stroke-width:0px;"/><path d="M115,690.8h4.1c1.1,0,2.1.2,3,.7.9.4,1.5,1.1,2,1.9.5.8.7,1.7.7,2.8s-.2,2-.7,2.8-1.1,1.4-2,1.9c-.9.4-1.8.7-2.9.7h-4.1v-10.6ZM119,699.7c.8,0,1.4-.1,2-.4.6-.3,1-.7,1.3-1.2.3-.5.4-1.2.4-1.9s-.1-1.4-.4-1.9c-.3-.5-.7-1-1.3-1.3-.6-.3-1.2-.4-2-.4h-2.1v7.2h2.1Z" style="fill:#fff; stroke-width:0px;"/><rect x="156.4" y="697.5" width="255" height=".8" style="fill:#fff; stroke-width:0px;"/><rect x="45.3" y="101.1" width="246.2" height="54" style="fill:#ee304c; stroke-width:0px;"/><path d="M122,115.7v24.5h-6.7v-9.3h-11.7v9.3h-6.7v-24.5h6.7v9.6h11.7v-9.6h6.7Z" style="fill:#fff; stroke-width:0px;"/><path d="M131.6,139.2c-2.2-1-3.9-2.4-5-4.3-1.1-1.9-1.7-4.2-1.7-6.9s.6-5,1.7-7c1.1-1.9,2.8-3.4,5-4.4,2.2-1,4.8-1.5,7.9-1.5s5.6.5,7.8,1.5c2.2,1,3.8,2.5,5,4.4,1.1,1.9,1.7,4.2,1.7,7s-.6,5-1.7,6.9c-1.1,1.9-2.8,3.3-5,4.3-2.2,1-4.8,1.5-7.8,1.5s-5.7-.5-7.9-1.5ZM133.8,133.2c1.3,1.2,3.2,1.8,5.6,1.8s4.2-.6,5.5-1.8c1.3-1.2,2-2.9,2-5.2s-.7-4-2-5.2c-1.3-1.2-3.2-1.9-5.5-1.9s-4.3.6-5.6,1.9c-1.3,1.2-2,3-2,5.2s.7,3.9,2,5.2Z" style="fill:#fff; stroke-width:0px;"/><path d="M162.5,139.2c-2.2-1-3.9-2.4-5-4.3-1.1-1.9-1.7-4.2-1.7-6.9s.6-5,1.7-7c1.1-1.9,2.8-3.4,5-4.4,2.2-1,4.8-1.5,7.9-1.5s5.6.5,7.8,1.5c2.2,1,3.8,2.5,5,4.4,1.1,1.9,1.7,4.2,1.7,7s-.6,5-1.7,6.9c-1.1,1.9-2.8,3.3-5,4.3-2.2,1-4.8,1.5-7.8,1.5s-5.7-.5-7.9-1.5ZM164.8,133.2c1.3,1.2,3.2,1.8,5.6,1.8s4.2-.6,5.5-1.8c1.3-1.2,2-2.9,2-5.2s-.7-4-2-5.2c-1.3-1.2-3.2-1.9-5.5-1.9s-4.3.6-5.6,1.9c-1.3,1.2-2,3-2,5.2s.7,3.9,2,5.2Z" style="fill:#fff; stroke-width:0px;"/><path d="M194.4,115.7v24.5h-6.7v-24.5h6.7ZM204,115.7h8.2l-10,11.4,10.1,13.1h-7.6l-10-13.1,9.4-11.4Z" style="fill:#fff; stroke-width:0px;"/><path d="M220.4,115.7h13.1l8.2,24.5h-7.4l-1.5-5h-11.7l-1.5,5h-7.4l8.1-24.5ZM231.3,130.3l-4.3-14.1h-.1l-4.3,14.1h8.7Z" style="fill:#fff; stroke-width:0px;"/><path d="M216.1,211.1c1.4,1.2,3.4,1.9,6,1.9s2.7-.2,4.1-.5c1.4-.3,2.7-.8,4-1.4l.4,5.9c-1.3.5-2.6.9-4,1.2-1.4.3-2.8.4-4.2.4-3.3,0-6-.5-8.3-1.5s-4.1-2.5-5.3-4.4c-1.2-1.9-1.8-4.2-1.8-6.9s.6-5,1.8-6.9c1.2-1.9,3-3.4,5.3-4.4,2.3-1,5.1-1.5,8.3-1.5s2.7.1,4.2.4c1.4.3,2.8.7,4.1,1.2l-.4,5.9c-1.2-.6-2.5-1-3.9-1.4-1.4-.3-2.8-.5-4.1-.5-2.6,0-4.6.6-6,1.9-1.4,1.2-2.1,3-2.1,5.3s.7,4,2.1,5.3Z" style="fill:#fff; stroke-width:0px;"/><path d="M240.2,193.6v19h13.6v5.4h-20.3v-24.5h6.7Z" style="fill:#fff; stroke-width:0px;"/><path d="M263,193.6h13.1l8.2,24.5h-7.4l-1.5-5h-11.7l-1.5,5h-7.4l8.1-24.5ZM273.9,208.2l-4.3-14.1h-.1l-4.3,14.1h8.7Z" style="fill:#fff; stroke-width:0px;"/><path d="M301.4,199.2c-1.6-.3-3.4-.5-5.2-.5s-2.4.1-3.1.4c-.6.3-.9.8-.9,1.4s.4,1.1,1.1,1.5,2,.8,3.9,1.2c2.5.5,4.6,1.1,6.1,1.8,1.5.6,2.7,1.4,3.4,2.4.8,1,1.1,2.2,1.1,3.6,0,2.5-1,4.4-3.1,5.6-2.1,1.3-4.9,1.9-8.6,1.9s-8.5-.6-11.2-1.9l.3-5.9c1.4.6,3,1.1,4.9,1.5,1.9.4,3.9.6,5.9.6s2.9-.2,3.7-.5c.7-.3,1.1-.8,1.1-1.5s-.2-.8-.5-1.1c-.3-.3-.9-.6-1.7-.8-.8-.3-2-.5-3.4-.9-3.4-.7-5.9-1.7-7.5-2.8s-2.4-2.8-2.4-4.9,1-4.2,2.9-5.5c1.9-1.3,4.7-2,8.3-2s7,.5,9.7,1.6l-.4,5.7c-1.2-.5-2.6-1-4.2-1.3Z" style="fill:#fff; stroke-width:0px;"/><path d="M325.6,199.2c-1.6-.3-3.4-.5-5.2-.5s-2.4.1-3.1.4c-.6.3-.9.8-.9,1.4s.4,1.1,1.1,1.5,2,.8,3.9,1.2c2.5.5,4.6,1.1,6.1,1.8,1.5.6,2.7,1.4,3.4,2.4.8,1,1.1,2.2,1.1,3.6,0,2.5-1,4.4-3.1,5.6-2.1,1.3-4.9,1.9-8.6,1.9s-8.5-.6-11.2-1.9l.3-5.9c1.4.6,3,1.1,4.9,1.5,1.9.4,3.9.6,5.9.6s2.9-.2,3.7-.5c.7-.3,1.1-.8,1.1-1.5s-.2-.8-.5-1.1c-.3-.3-.9-.6-1.7-.8-.8-.3-2-.5-3.4-.9-3.4-.7-5.9-1.7-7.5-2.8s-2.4-2.8-2.4-4.9,1-4.2,2.9-5.5c1.9-1.3,4.7-2,8.3-2s7,.5,9.7,1.6l-.4,5.7c-1.2-.5-2.6-1-4.2-1.3Z" style="fill:#fff; stroke-width:0px;"/><path d="M341,193.6v24.5h-6.7v-24.5h6.7Z" style="fill:#fff; stroke-width:0px;"/><path d="M353,211.1c1.4,1.2,3.4,1.9,6,1.9s2.7-.2,4.1-.5c1.4-.3,2.7-.8,4-1.4l.4,5.9c-1.3.5-2.6.9-4,1.2-1.4.3-2.8.4-4.2.4-3.3,0-6-.5-8.3-1.5s-4.1-2.5-5.3-4.4c-1.2-1.9-1.8-4.2-1.8-6.9s.6-5,1.8-6.9c1.2-1.9,3-3.4,5.3-4.4,2.3-1,5.1-1.5,8.3-1.5s2.7.1,4.2.4c1.4.3,2.8.7,4.1,1.2l-.4,5.9c-1.2-.6-2.5-1-3.9-1.4-1.4-.3-2.8-.5-4.1-.5-2.6,0-4.6.6-6,1.9-1.4,1.2-2.1,3-2.1,5.3s.7,4,2.1,5.3Z" style="fill:#fff; stroke-width:0px;"/><path d="M264.1,427.2h-.2v22.8h-6.7v-24.5h12.5l4.5,24h.2l4.4-24h12.5v24.5h-6.7v-22.8h-.2l-4.4,22.8h-11.5l-4.4-22.8Z" style="fill:#fff; stroke-width:0px;"/><path d="M301.8,425.6v24.5h-6.7v-24.5h6.7Z" style="fill:#fff; stroke-width:0px;"/><path d="M318.7,437.8l-7.1,12.3h-7.8l8.1-12.5-7.7-11.9h7.8l6.7,11.7,6.7-11.7h7.7l-7.7,11.9,8.1,12.5h-7.7l-7.1-12.3Z" style="fill:#fff; stroke-width:0px;"/><polygon points="337.5 100.5 322.3 115.2 328.1 91.6 337.5 100.5" style="fill:#171a23; stroke-width:0px;"/><polygon points="528.2 157.9 513 143.3 518.8 166.8 528.2 157.9" style="fill:#171a23; stroke-width:0px;"/><path d="M481.6,787.2c-.5,0-.9,0-1.2-.3s-.7-.4-.9-.8c-.2-.4-.4-.8-.4-1.4h1.2c0,.3,0,.6.2.8s.3.3.5.4.4.1.6.1.4,0,.6-.2c.2-.1.3-.2.4-.4.1-.2.2-.4.2-.6s0-.4-.2-.6c-.1-.2-.3-.3-.5-.4-.2-.1-.5-.2-.7-.2h-.9v-.6l1.4-1.8h0s-2.6,0-2.6,0v-1h4.1v.6l-1.6,1.8h0c.5,0,.8.2,1.2.3.3.2.6.4.8.7.2.3.3.7.3,1.1s-.1.8-.3,1.2c-.2.4-.5.6-.9.8s-.8.3-1.3.3Z" style="fill:#fff; stroke-width:0px;"/><path d="M485.3,785.9h1.2l-.9,2h-.9l.6-2Z" style="fill:#fff; stroke-width:0px;"/><path d="M490.1,787.2c-.6,0-1.2-.2-1.6-.5-.4-.3-.8-.7-1-1.3-.2-.5-.3-1.1-.3-1.8s.1-1.3.3-1.8.6-1,1-1.3c.4-.3,1-.5,1.6-.5s1.2.2,1.6.5c.4.3.8.8,1,1.3.2.5.3,1.1.3,1.8s-.1,1.3-.3,1.8c-.2.5-.5,1-1,1.3s-1,.5-1.6.5ZM490.1,786.1c.3,0,.6-.1.9-.3.3-.2.4-.5.6-.8.1-.4.2-.8.2-1.2s0-.9-.2-1.2c-.1-.4-.3-.6-.6-.9-.3-.2-.6-.3-.9-.3s-.6.1-.9.3c-.3.2-.4.5-.6.9s-.2.8-.2,1.3,0,.9.2,1.2c.1.4.3.6.6.8.3.2.5.3.9.3Z" style="fill:#fff; stroke-width:0px;"/><path d="M496.6,787.2c-.6,0-1.2-.2-1.6-.5-.4-.3-.8-.7-1-1.3-.2-.5-.3-1.1-.3-1.8s.1-1.3.3-1.8.6-1,1-1.3c.4-.3,1-.5,1.6-.5s1.2.2,1.6.5c.4.3.8.8,1,1.3.2.5.3,1.1.3,1.8s-.1,1.3-.3,1.8c-.2.5-.5,1-1,1.3s-1,.5-1.6.5ZM496.6,786.1c.3,0,.6-.1.9-.3.3-.2.4-.5.6-.8.1-.4.2-.8.2-1.2s0-.9-.2-1.2c-.1-.4-.3-.6-.6-.9-.3-.2-.6-.3-.9-.3s-.6.1-.9.3c-.3.2-.4.5-.6.9s-.2.8-.2,1.3,0,.9.2,1.2c.1.4.3.6.6.8.3.2.5.3.9.3Z" style="fill:#fff; stroke-width:0px;"/><path d="M503.1,787.2c-.6,0-1.2-.2-1.6-.5-.4-.3-.8-.7-1-1.3-.2-.5-.3-1.1-.3-1.8s.1-1.3.3-1.8.6-1,1-1.3c.4-.3,1-.5,1.6-.5s1.2.2,1.6.5c.4.3.8.8,1,1.3.2.5.3,1.1.3,1.8s-.1,1.3-.3,1.8c-.2.5-.5,1-1,1.3s-1,.5-1.6.5ZM503.1,786.1c.3,0,.6-.1.9-.3.3-.2.4-.5.6-.8.1-.4.2-.8.2-1.2s0-.9-.2-1.2c-.1-.4-.3-.6-.6-.9-.3-.2-.6-.3-.9-.3s-.6.1-.9.3c-.3.2-.4.5-.6.9s-.2.8-.2,1.3,0,.9.2,1.2c.1.4.3.6.6.8.3.2.5.3.9.3Z" style="fill:#fff; stroke-width:0px;"/><path d="M509.6,780.3h1.2v6.8h-1.2v-6.8Z" style="fill:#fff; stroke-width:0px;"/><path d="M515.6,787.2c-.7,0-1.3-.2-1.8-.5s-1-.7-1.3-1.3-.5-1.1-.5-1.8.2-1.2.5-1.8c.3-.5.8-1,1.3-1.3s1.2-.5,1.8-.5,1.3.2,1.8.5c.6.3,1,.7,1.3,1.3.3.5.5,1.1.5,1.8s-.2,1.2-.5,1.8c-.3.5-.8,1-1.3,1.3-.6.3-1.2.5-1.8.5ZM515.6,786.1c.4,0,.8-.1,1.2-.3.4-.2.7-.5.9-.9s.3-.8.3-1.2-.1-.9-.3-1.2-.5-.7-.9-.9c-.4-.2-.8-.3-1.2-.3s-.8.1-1.2.3-.7.5-.9.9-.3.8-.3,1.2.1.9.3,1.2c.2.4.5.6.9.9.4.2.8.3,1.2.3ZM516.7,786.7l1.1-.5,1.2,1.7-1.2.7-1.2-1.9Z" style="fill:#fff; stroke-width:0px;"/><path d="M520.5,780.3h2.6c.7,0,1.3.1,1.9.4.5.3,1,.7,1.3,1.2.3.5.4,1.1.4,1.8s-.1,1.3-.4,1.8c-.3.5-.7.9-1.3,1.2-.5.3-1.2.4-1.9.4h-2.6v-6.8ZM523.1,786c.5,0,.9,0,1.3-.3.4-.2.6-.4.8-.8.2-.3.3-.7.3-1.2s0-.9-.3-1.2c-.2-.3-.5-.6-.8-.8-.4-.2-.8-.3-1.3-.3h-1.4v4.6h1.4Z" style="fill:#fff; stroke-width:0px;"/><path d="M447.8,770.1c0-.8.2-1.7.5-2.7l1.5.4c-.2.7-.3,1.2-.3,1.8,0,1.2.6,1.7,1.8,1.7s1.8-.6,1.8-1.9v-4.3l1.8-.2v4.8c0,2.2-1.2,3.6-3.6,3.6s-3.5-1-3.5-3.1ZM449.8,764.9l1.2-1.2,1.2,1.2-1.2,1.2-1.2-1.2Z" style="fill:#fff; stroke-width:0px;"/><path d="M456.4,768.2v-5.8s1.8-.2,1.8-.2v5.4c0,.8.3,1.2,1,1.2s.1,0,.1.1v1.7c0,0,0,.1-.1.1-1.9,0-2.8-.8-2.8-2.5Z" style="fill:#fff; stroke-width:0px;"/><path d="M461.5,768.9v1.7c0,0,0,.1-.1.1h-2.3c0,0-.1,0-.1-.1v-1.7c0,0,0-.1.1-.1h2.3c0,0,.1,0,.1.1Z" style="fill:#fff; stroke-width:0px;"/><path d="M463.8,768.9v1.7c0,0,0,.1-.1.1h-2.3c0,0-.1,0-.1-.1v-1.7c0,0,0-.1.1-.1h2.3c0,0,.1,0,.1.1Z" style="fill:#fff; stroke-width:0px;"/><path d="M466,768.9v1.7c0,0,0,.1-.1.1h-2.3c0,0-.1,0-.1-.1v-1.7c0,0,0-.1.1-.1h2.3c0,0,.1,0,.1.1Z" style="fill:#fff; stroke-width:0px;"/><path d="M473.4,768.9v1.7c0,0,0,.1-.1.1h-.2c-.9,0-1.6-.4-1.8-1.2-1.8.9-3.2,1.2-5.3,1.2s-.1,0-.1-.1v-1.7c0,0,0-.1.1-.1,2.2,0,3.4-.2,4.8-.7-1.6-1.1-2.2-1.4-3-1.4s-.6,0-1.1.2l-.3-1.6c.7-.3,1.2-.4,1.7-.4,1,0,1.9.4,4.6,2.3l-.3,1.5c.2,0,.4.1.8.1h.2c0,0,.1,0,.1.1ZM469.8,771.1l1.2,1.2-1.2,1.2-1.2-1.2,1.2-1.2Z" style="fill:#fff; stroke-width:0px;"/><path d="M475.7,768.9v1.7c0,0,0,.1-.1.1h-2.3c0,0-.1,0-.1-.1v-1.7c0,0,0-.1.1-.1h2.3c0,0,.1,0,.1.1Z" style="fill:#fff; stroke-width:0px;"/><path d="M477.9,768.9v1.7c0,0,0,.1-.1.1h-2.3c0,0-.1,0-.1-.1v-1.7c0,0,0-.1.1-.1h2.3c0,0,.1,0,.1.1Z" style="fill:#fff; stroke-width:0px;"/><path d="M481.9,768.9v1.7c0,0,0,.1-.1.1-.7,0-1.3-.3-1.8-.7-.5.5-1.2.7-2.2.7s-.1,0-.1-.1v-1.7c0,0,0-.1.1-.1.7,0,1-.4,1-1.2v-1.4s1.8-.2,1.8-.2v2.5c.3.2.7.3,1.2.3s.1,0,.1.1ZM479.7,765.3l-1.2-1.2,1.2-1.2,1.2,1.2-1.2,1.2Z" style="fill:#fff; stroke-width:0px;"/><path d="M487.8,767.5c0,1.9-1.3,3.2-3.3,3.2h-2.7c0,0-.1,0-.1-.1v-1.7c0,0,0-.1.1-.1h.7c-.2-.5-.3-.9-.3-1.4,0-1.6,1.2-2.7,2.8-2.7s2.9,1.2,2.9,2.8ZM484.9,763.9l-1.2-1.2,1.2-1.2,1.2,1.2-1.2,1.2ZM486,767.5c0-.6-.5-1.1-1.1-1.1s-1.1.5-1.1,1.1.1.8.3,1.2h.4c.9,0,1.5-.5,1.5-1.3Z" style="fill:#fff; stroke-width:0px;"/><path d="M499.4,768.9v1.7c0,0,0,.1-.1.1-.5,0-1-.2-1.3-.5-.2,1.9-1.4,3-3.6,3s-3.5-1-3.5-3.1.2-1.7.5-2.7l1.5.4c-.2.7-.3,1.2-.3,1.8,0,1.2.6,1.7,1.8,1.7s1.8-.6,1.8-1.9v-7l1.8-.2v5.6c0,.6.5,1.1,1.3,1.1s.1,0,.1.1Z" style="fill:#fff; stroke-width:0px;"/><path d="M502,773.7l-.9-.8-.8.8-1.2-1.2,1.2-1.2.8.8.8-.8,1.2,1.2-1.2,1.2ZM499.2,770.6v-1.7c0,0,0-.1.1-.1h1c.7,0,1-.4,1-1.2v-2.6s1.8-.2,1.8-.2v3.5c0,1.6-.9,2.4-2.8,2.4h-1c0,0-.1,0-.1-.1Z" style="fill:#fff; stroke-width:0px;"/><path d="M510.7,768.9v1.7c0,0,0,.1-.1.1-.7,0-1.3-.2-1.7-.7-.5.5-1.2.7-2.2.7h-2.6l-.3-1.9h2.9c.7,0,1-.4,1-.9v-.4c0-.6-.5-1-1.3-1h-.8v-1.9h1.2c1.6,0,2.7,1,2.7,2.7v.9c0,0,0,.2,0,.2.3.2.7.3,1.1.3s.1,0,.1.1Z" style="fill:#fff; stroke-width:0px;"/><path d="M512.9,768.9v1.7c0,0,0,.1-.1.1h-2.3c0,0-.1,0-.1-.1v-1.7c0,0,0-.1.1-.1h2.3c0,0,.1,0,.1.1Z" style="fill:#fff; stroke-width:0px;"/><path d="M515.2,768.9v1.7c0,0,0,.1-.1.1h-2.3c0,0-.1,0-.1-.1v-1.7c0,0,0-.1.1-.1h2.3c0,0,.1,0,.1.1Z" style="fill:#fff; stroke-width:0px;"/><path d="M517.4,768.9v1.7c0,0,0,.1-.1.1h-2.3c0,0-.1,0-.1-.1v-1.7c0,0,0-.1.1-.1h2.3c0,0,.1,0,.1.1Z" style="fill:#fff; stroke-width:0px;"/><path d="M519.7,768.9v1.7c0,0,0,.1-.1.1h-2.3c0,0-.1,0-.1-.1v-1.7c0,0,0-.1.1-.1h2.3c0,0,.1,0,.1.1Z" style="fill:#fff; stroke-width:0px;"/><path d="M523.7,768.9v1.7c0,0,0,.1-.1.1-.7,0-1.3-.3-1.8-.7-.5.5-1.2.7-2.2.7s-.1,0-.1-.1v-1.7c0,0,0-.1.1-.1.7,0,1-.4,1-1.2v-1.4s1.8-.2,1.8-.2v2.5c.3.2.7.3,1.2.3s.1,0,.1.1ZM521.6,771.3l1.2,1.2-1.2,1.2-1.2-1.2,1.2-1.2Z" style="fill:#fff; stroke-width:0px;"/><path d="M525.6,765l1.8-.2v3.5c0,1.6-.9,2.4-2.8,2.4h-1c0,0-.1,0-.1-.1v-1.7c0,0,0-.1.1-.1h1c.7,0,1-.4,1-1.2v-2.6ZM525.5,764.1l-1.2-1.2,1.2-1.2.9.9.9-.9,1.2,1.2-1.2,1.2-.9-.9-.9.9Z" style="fill:#fff; stroke-width:0px;"/><path d="M534.8,794.8h-93.8c-1.5,0-2.8-1.3-2.8-2.8v-35.3c0-1.5,1.3-2.8,2.8-2.8h93.8c1.5,0,2.8,1.3,2.8,2.8v35.3c0,1.5-1.3,2.8-2.8,2.8ZM441,754.4c-1.3,0-2.3,1-2.3,2.3v35.3c0,1.3,1,2.3,2.3,2.3h93.8c1.3,0,2.3-1,2.3-2.3v-35.3c0-1.3-1-2.3-2.3-2.3h-93.8Z" style="fill:#ee304c; stroke-width:0px;"/><rect x="450.1" y="783.6" width="22.5" height=".5" style="fill:#ee304c; stroke-width:0px;"/><path d="M271.4,764.7h-3.5l-4.5-8.9h4.2l3.9,8.4h.1l4-8.4h4.2l-7,13.7h-3.7l2.3-4.8Z" style="fill:#fff; stroke-width:0px;"/><path d="M281.5,755.9h7.3l4.6,13.7h-4.1l-.8-2.8h-6.5l-.8,2.8h-4.1l4.6-13.7ZM287.6,764l-2.4-7.9h0l-2.4,7.9h4.9Z" style="fill:#fff; stroke-width:0px;"/><path d="M298.1,755.9v10.6h7.6v3h-11.4v-13.7h3.8Z" style="fill:#fff; stroke-width:0px;"/><path d="M310.6,755.9v10.6h7.6v3h-11.4v-13.7h3.8Z" style="fill:#fff; stroke-width:0px;"/><path d="M323.4,755.9h7.3l4.6,13.7h-4.1l-.8-2.8h-6.5l-.8,2.8h-4.1l4.6-13.7ZM329.5,764l-2.4-7.9h0l-2.4,7.9h4.9Z" style="fill:#fff; stroke-width:0px;"/><path d="M241.2,774.6l4.4,13.4h0v-13.4h3.7v13.7h-7.4l-4.4-13.5h0v13.5h-3.7v-13.7h7.4Z" style="fill:#fff; stroke-width:0px;"/><path d="M263.3,774.6v3h-8.1v2.5h6.2v2.6h-6.2v2.5h8.3v3h-12.1v-13.7h11.8Z" style="fill:#fff; stroke-width:0px;"/><path d="M272.3,781.4l-4,6.9h-4.3l4.6-7-4.3-6.7h4.3l3.8,6.5,3.8-6.5h4.3l-4.3,6.7,4.6,7h-4.3l-4-6.9Z" style="fill:#fff; stroke-width:0px;"/><path d="M285.4,777.6h-4.6v-3h12.9v3h-4.6v10.6h-3.8v-10.6Z" style="fill:#fff; stroke-width:0px;"/><path d="M302.6,774.6v10.6h7.6v3h-11.4v-13.7h3.8Z" style="fill:#fff; stroke-width:0px;"/><path d="M323.2,774.6v3h-8.1v2.5h6.2v2.6h-6.2v2.5h8.3v3h-12.1v-13.7h11.8Z" style="fill:#fff; stroke-width:0px;"/><path d="M335.7,788.2h-7.6l-4.4-13.7h4.1l4.1,13.4h0l4-13.4h4.1l-4.4,13.7Z" style="fill:#fff; stroke-width:0px;"/><path d="M353,774.6v3h-8.1v2.5h6.2v2.6h-6.2v2.5h8.3v3h-12.1v-13.7h11.8Z" style="fill:#fff; stroke-width:0px;"/><path d="M358.3,774.6v10.6h7.6v3h-11.4v-13.7h3.8Z" style="fill:#fff; stroke-width:0px;"/><path d="M337.9,756.6h-1.3v-.7h3.5v.7h-1.3v3.8h-.8v-3.8Z" style="fill:#fff; stroke-width:0px;"/><path d="M340.7,755.9h.7l1.5,2.1h0s1.6-2.1,1.6-2.1h.7v4.5h-.8v-3.2l-1.3,1.8h-.2l-1.3-1.8v3.2h-.8v-4.5Z" style="fill:#fff; stroke-width:0px;"/></svg>