<?xml version="1.0" encoding="UTF-8"?><svg id="Layer_1" xmlns="http://www.w3.org/2000/svg" viewBox="0 0 597.1 841.3"><rect x="0" y="-1.6" width="597.1" height="849.4" style="fill:#171a23; stroke-width:0px;"/><path d="M51.3,51.3h0v9.8h-2.9v-10.5h5.3l1.9,10.3h0l1.9-10.3h5.3v10.5h-2.9v-9.8h0l-1.9,9.8h-4.9l-1.9-9.8Z" style="fill:#fff; stroke-width:0px;"/><path d="M73.6,50.6v2.3h-6.2v1.9h4.7v2h-4.7v1.9h6.4v2.3h-9.2v-10.5h9.1Z" style="fill:#fff; stroke-width:0px;"/><path d="M80.4,50.6l3.4,10.2h0v-10.2h2.8v10.5h-5.7l-3.4-10.3h0v10.3h-2.8v-10.5h5.7Z" style="fill:#fff; stroke-width:0px;"/><path d="M97.7,60.1c-1,.8-2.4,1.2-4.2,1.2s-3.2-.4-4.2-1.2c-1-.8-1.5-2-1.5-3.5v-6h2.9v6c0,.8.2,1.4.7,1.8.5.4,1.2.6,2,.6s1.6-.2,2-.6.7-1,.7-1.8v-6h2.9v6c0,1.5-.5,2.7-1.5,3.5Z" style="fill:#fff; stroke-width:0px;"/><path d="M109.1,50.6l3.4,10.2h0v-10.2h2.8v10.5h-5.7l-3.4-10.3h0v10.3h-2.8v-10.5h5.7Z" style="fill:#fff; stroke-width:0px;"/><path d="M126,50.6v2.3h-6.2v1.9h4.7v2h-4.7v1.9h6.4v2.3h-9.2v-10.5h9.1Z" style="fill:#fff; stroke-width:0px;"/><path d="M132.9,55.8l-3.1,5.3h-3.3l3.5-5.4-3.3-5.1h3.3l2.9,5,2.9-5h3.3l-3.3,5.1,3.5,5.4h-3.3l-3.1-5.3Z" style="fill:#fff; stroke-width:0px;"/><path d="M142.9,53h-3.5v-2.3h9.9v2.3h-3.5v8.1h-2.9v-8.1Z" style="fill:#fff; stroke-width:0px;"/><path d="M156.1,50.6v8.1h5.8v2.3h-8.7v-10.5h2.9Z" style="fill:#fff; stroke-width:0px;"/><path d="M171.9,50.6v2.3h-6.2v1.9h4.7v2h-4.7v1.9h6.4v2.3h-9.2v-10.5h9.1Z" style="fill:#fff; stroke-width:0px;"/><path d="M181.5,61.1h-5.8l-3.4-10.5h3.2l3.1,10.3h0l3.1-10.3h3.2l-3.4,10.5Z" style="fill:#fff; stroke-width:0px;"/><path d="M194.7,50.6v2.3h-6.2v1.9h4.7v2h-4.7v1.9h6.4v2.3h-9.2v-10.5h9.1Z" style="fill:#fff; stroke-width:0px;"/><path d="M198.7,50.6v8.1h5.8v2.3h-8.7v-10.5h2.9Z" style="fill:#fff; stroke-width:0px;"/><path d="M545,54.8c.3-.2.7-.3,1.1-.3s.6,0,.8.2c.3.1.5.3.7.5.2.2.3.5.4.8h1.2c0-.5-.3-1-.6-1.4-.3-.4-.7-.6-1.1-.8s-.9-.3-1.3-.3-1.2.1-1.7.4-.9.7-1.2,1.2c-.3.5-.4,1.1-.4,1.7s.1,1.2.4,1.7c.3.5.7.9,1.2,1.2s1.1.4,1.7.4.9,0,1.3-.3c.4-.2.8-.5,1.1-.8.3-.4.5-.8.6-1.4h-1.2c0,.3-.2.6-.4.8-.2.2-.4.4-.7.5-.3.1-.5.2-.8.2s-.8,0-1.1-.3c-.3-.2-.6-.4-.8-.8-.2-.3-.3-.7-.3-1.2s0-.8.3-1.2c.2-.3.4-.6.8-.8Z" style="fill:#fff; stroke-width:0px;"/><path d="M546.1,51.1c-3.1,0-5.6,2.5-5.6,5.6s2.5,5.6,5.6,5.6,5.6-2.5,5.6-5.6-2.5-5.6-5.6-5.6ZM546.1,61.6c-2.7,0-4.8-2.2-4.8-4.8s2.2-4.8,4.8-4.8,4.8,2.2,4.8,4.8-2.2,4.8-4.8,4.8Z" style="fill:#fff; stroke-width:0px;"/><path d="M498.9,61.1l3.6-3.2c.5-.5.9-.9,1.2-1.2s.5-.6.7-1c.2-.3.3-.6.3-1s0-.6-.2-.9c-.2-.3-.4-.5-.6-.6-.3-.1-.6-.2-.9-.2s-.7,0-1,.2-.5.4-.7.8c-.2.4-.3.8-.3,1.4h-2c0-.8.1-1.4.4-2.1.3-.6.7-1.2,1.3-1.6.6-.4,1.3-.6,2.2-.6s1.5.2,2,.5c.6.3,1,.7,1.3,1.3.3.5.5,1.1.5,1.8s0,.9-.2,1.3c-.2.4-.4.8-.7,1.2-.3.4-.7.8-1.2,1.2l-2.7,2.3.9-.2h4.1v1.7h-8v-1.1Z" style="fill:#fff; stroke-width:0px;"/><path d="M512.6,62.5c-1,0-1.9-.3-2.6-.8-.7-.5-1.2-1.2-1.6-2-.4-.9-.5-1.8-.5-2.9s.2-2.1.5-2.9c.4-.9.9-1.6,1.6-2.1.7-.5,1.5-.8,2.5-.8s2,.3,2.7.8c.7.5,1.2,1.2,1.5,2.1.3.9.5,1.8.5,2.8s-.2,2-.5,2.9c-.4.9-.9,1.5-1.6,2.1s-1.6.8-2.6.8ZM512.6,60.7c.5,0,1-.2,1.4-.5.4-.3.7-.8.9-1.4.2-.6.3-1.3.3-2s-.1-1.4-.3-2c-.2-.6-.5-1-.9-1.4-.4-.3-.9-.5-1.5-.5s-1,.2-1.4.5c-.4.3-.7.8-.9,1.4-.2.6-.3,1.3-.3,2s.1,1.4.3,2c.2.6.5,1,.9,1.4s.9.5,1.4.5Z" style="fill:#fff; stroke-width:0px;"/><path d="M518.4,61.1l3.6-3.2c.5-.5.9-.9,1.2-1.2s.5-.6.7-1c.2-.3.3-.6.3-1s0-.6-.2-.9c-.2-.3-.4-.5-.6-.6-.3-.1-.6-.2-.9-.2s-.7,0-1,.2-.5.4-.7.8c-.2.4-.3.8-.3,1.4h-2c0-.8.1-1.4.4-2.1.3-.6.7-1.2,1.3-1.6.6-.4,1.3-.6,2.2-.6s1.5.2,2,.5c.6.3,1,.7,1.3,1.3.3.5.5,1.1.5,1.8s0,.9-.2,1.3c-.2.4-.4.8-.7,1.2-.3.4-.7.8-1.2,1.2l-2.7,2.3.9-.2h4.1v1.7h-8v-1.1Z" style="fill:#fff; stroke-width:0px;"/><path d="M531.7,62.5c-.7,0-1.3-.1-1.9-.4-.6-.2-1.1-.6-1.5-1.2-.4-.5-.6-1.2-.7-2.1h1.9c0,.4.2.8.4,1s.5.5.8.6c.3.1.6.2.9.2s.7,0,1.1-.3c.3-.2.6-.4.7-.7s.3-.6.3-1,0-.7-.3-1-.5-.5-.8-.6c-.4-.1-.8-.2-1.3-.2h-2.2s-.9-.7-.9-.7l.7-4.8h6v1.6h-4.3l-.3,2.5h1.6c.8,0,1.5.1,2,.4s1,.6,1.3,1.1c.3.5.5,1.1.5,1.8s-.2,1.3-.5,1.9c-.3.6-.8,1-1.4,1.4-.6.4-1.3.5-2.1.5Z" style="fill:#fff; stroke-width:0px;"/><path d="M443.2,226.1v2.6c0,.1,0,.2-.2.2-.8,0-1.4-.3-1.9-.7v.3c0,3.2-1.7,4.3-5.2,4.3l-.2-2.3c1.5,0,2.6-.6,2.6-2.2v-8.4s2.8-.3,2.8-.3v4.9c.1.9.9,1.3,1.9,1.3s.2,0,.2.2Z" style="fill:#fff; stroke-width:0px;"/><path d="M446.8,226.1v2.6c0,.1,0,.2-.2.2h-3.5c-.1,0-.2,0-.2-.2v-2.6c0-.1,0-.2.2-.2h3.5c.1,0,.2,0,.2.2Z" style="fill:#fff; stroke-width:0px;"/><path d="M450.3,226.1v2.6c0,.1,0,.2-.2.2h-3.5c-.1,0-.2,0-.2-.2v-2.6c0-.1,0-.2.2-.2h3.5c.1,0,.2,0,.2.2Z" style="fill:#fff; stroke-width:0px;"/><path d="M453.8,226.1v2.6c0,.1,0,.2-.2.2h-3.5c-.1,0-.2,0-.2-.2v-2.6c0-.1,0-.2.2-.2h3.5c.1,0,.2,0,.2.2Z" style="fill:#fff; stroke-width:0px;"/><path d="M457.4,226.1v2.6c0,.1,0,.2-.2.2h-3.5c-.1,0-.2,0-.2-.2v-2.6c0-.1,0-.2.2-.2h3.5c.1,0,.2,0,.2.2Z" style="fill:#fff; stroke-width:0px;"/><path d="M460.9,226.1v2.6c0,.1,0,.2-.2.2h-3.5c-.1,0-.2,0-.2-.2v-2.6c0-.1,0-.2.2-.2h3.5c.1,0,.2,0,.2.2Z" style="fill:#fff; stroke-width:0px;"/><path d="M464.5,226.1v2.6c0,.1,0,.2-.2.2h-3.5c-.1,0-.2,0-.2-.2v-2.6c0-.1,0-.2.2-.2h3.5c.1,0,.2,0,.2.2Z" style="fill:#fff; stroke-width:0px;"/><path d="M468,226.1v2.6c0,.1,0,.2-.2.2h-3.5c-.1,0-.2,0-.2-.2v-2.6c0-.1,0-.2.2-.2h3.5c.1,0,.2,0,.2.2Z" style="fill:#fff; stroke-width:0px;"/><path d="M471.6,226.1v2.6c0,.1,0,.2-.2.2h-3.5c-.1,0-.2,0-.2-.2v-2.6c0-.1,0-.2.2-.2h3.5c.1,0,.2,0,.2.2Z" style="fill:#fff; stroke-width:0px;"/><path d="M475.1,226.1v2.6c0,.1,0,.2-.2.2h-3.5c-.1,0-.2,0-.2-.2v-2.6c0-.1,0-.2.2-.2h3.5c.1,0,.2,0,.2.2Z" style="fill:#fff; stroke-width:0px;"/><path d="M478.6,226.1v2.6c0,.1,0,.2-.2.2h-3.5c-.1,0-.2,0-.2-.2v-2.6c0-.1,0-.2.2-.2h3.5c.1,0,.2,0,.2.2Z" style="fill:#fff; stroke-width:0px;"/><path d="M482.2,226.1v2.6c0,.1,0,.2-.2.2h-3.5c-.1,0-.2,0-.2-.2v-2.6c0-.1,0-.2.2-.2h3.5c.1,0,.2,0,.2.2Z" style="fill:#fff; stroke-width:0px;"/><path d="M485.7,226.1v2.6c0,.1,0,.2-.2.2h-3.5c-.1,0-.2,0-.2-.2v-2.6c0-.1,0-.2.2-.2h3.5c.1,0,.2,0,.2.2Z" style="fill:#fff; stroke-width:0px;"/><path d="M497.3,226.1v2.6c0,.1,0,.2-.2.2h-.3c-1.4,0-2.4-.7-2.9-1.9-2.8,1.4-5.1,1.9-8.3,1.9s-.2,0-.2-.2v-2.6c0-.1,0-.2.2-.2,3.5,0,5.4-.3,7.5-1.2-2.4-1.7-3.4-2.2-4.6-2.2s-1,.1-1.8.3l-.5-2.5c1-.4,1.8-.6,2.6-.6,1.6,0,3,.7,7.2,3.6l-.5,2.4c.3.1.7.2,1.2.2h.3c.1,0,.2,0,.2.2ZM491.6,229.6l1.9,1.9-1.9,1.9-1.9-1.9,1.9-1.9Z" style="fill:#fff; stroke-width:0px;"/><path d="M500.8,226.1v2.6c0,.1,0,.2-.2.2h-3.5c-.1,0-.2,0-.2-.2v-2.6c0-.1,0-.2.2-.2h3.5c.1,0,.2,0,.2.2Z" style="fill:#fff; stroke-width:0px;"/><path d="M504.4,226.1v2.6c0,.1,0,.2-.2.2h-3.5c-.1,0-.2,0-.2-.2v-2.6c0-.1,0-.2.2-.2h3.5c.1,0,.2,0,.2.2Z" style="fill:#fff; stroke-width:0px;"/><path d="M507.9,226.1v2.6c0,.1,0,.2-.2.2h-3.5c-.1,0-.2,0-.2-.2v-2.6c0-.1,0-.2.2-.2h3.5c.1,0,.2,0,.2.2Z" style="fill:#fff; stroke-width:0px;"/><path d="M511.5,226.1v2.6c0,.1,0,.2-.2.2h-3.5c-.1,0-.2,0-.2-.2v-2.6c0-.1,0-.2.2-.2h3.5c.1,0,.2,0,.2.2Z" style="fill:#fff; stroke-width:0px;"/><path d="M515,226.1v2.6c0,.1,0,.2-.2.2h-3.5c-.1,0-.2,0-.2-.2v-2.6c0-.1,0-.2.2-.2h3.5c.1,0,.2,0,.2.2Z" style="fill:#fff; stroke-width:0px;"/><path d="M518.5,226.1v2.6c0,.1,0,.2-.2.2h-3.5c-.1,0-.2,0-.2-.2v-2.6c0-.1,0-.2.2-.2h3.5c.1,0,.2,0,.2.2Z" style="fill:#fff; stroke-width:0px;"/><path d="M522.1,226.1v2.6c0,.1,0,.2-.2.2h-3.5c-.1,0-.2,0-.2-.2v-2.6c0-.1,0-.2.2-.2h3.5c.1,0,.2,0,.2.2Z" style="fill:#fff; stroke-width:0px;"/><path d="M525.6,226.1v2.6c0,.1,0,.2-.2.2h-3.5c-.1,0-.2,0-.2-.2v-2.6c0-.1,0-.2.2-.2h3.5c.1,0,.2,0,.2.2Z" style="fill:#fff; stroke-width:0px;"/><path d="M529.2,226.1v2.6c0,.1,0,.2-.2.2h-3.5c-.1,0-.2,0-.2-.2v-2.6c0-.1,0-.2.2-.2h3.5c.1,0,.2,0,.2.2Z" style="fill:#fff; stroke-width:0px;"/><path d="M532.7,226.1v2.6c0,.1,0,.2-.2.2h-3.5c-.1,0-.2,0-.2-.2v-2.6c0-.1,0-.2.2-.2h3.5c.1,0,.2,0,.2.2Z" style="fill:#fff; stroke-width:0px;"/><path d="M536.3,226.1v2.6c0,.1,0,.2-.2.2h-3.5c-.1,0-.2,0-.2-.2v-2.6c0-.1,0-.2.2-.2h3.5c.1,0,.2,0,.2.2Z" style="fill:#fff; stroke-width:0px;"/><path d="M539.8,226.1v2.6c0,.1,0,.2-.2.2h-3.5c-.1,0-.2,0-.2-.2v-2.6c0-.1,0-.2.2-.2h3.5c.1,0,.2,0,.2.2Z" style="fill:#fff; stroke-width:0px;"/><path d="M539.4,228.7v-2.6c0-.1.1-.2.2-.2,1,0,1.5-.6,1.5-1.9v-4s2.8-.3,2.8-.3v5.4c0,2.5-1.4,3.8-4.4,3.8s-.2,0-.2-.2ZM540.6,216.4l1.9-1.9,1.9,1.9-1.9,1.9-1.9-1.9Z" style="fill:#fff; stroke-width:0px;"/><path d="M544.6,230.5c1.5,0,2.6-.6,2.6-2.2v-8.4s2.8-.3,2.8-.3v8.8c0,3.2-1.7,4.3-5.2,4.3l-.2-2.3ZM546.6,216.9l1.9-1.9,1.9,1.9-1.9,1.9-1.9-1.9Z" style="fill:#fff; stroke-width:0px;"/><path d="M51.6,232c-.7,0-1.3-.1-1.8-.4-.6-.2-1.1-.6-1.5-1.2s-.6-1.2-.7-2.1h1.9c0,.4.2.8.4,1s.5.5.8.6.6.2.9.2.7,0,1-.3.5-.4.7-.7c.2-.3.2-.6.2-1s0-.7-.3-1c-.2-.3-.5-.5-.8-.6-.3-.1-.8-.2-1.2-.2h-2.1s-.8-.7-.8-.7l.6-4.7h5.9v1.6h-4.2l-.3,2.4h1.5c.8,0,1.4.1,2,.4.6.3,1,.6,1.3,1.1.3.5.5,1,.5,1.7s-.2,1.3-.5,1.8c-.3.6-.8,1-1.4,1.4s-1.3.5-2.1.5Z" style="fill:#fff; stroke-width:0px;"/><path d="M57.6,230.1h1.8l-1.4,3.2h-1.4l.9-3.2Z" style="fill:#fff; stroke-width:0px;"/><path d="M64.7,232c-.7,0-1.3-.1-1.8-.4-.6-.2-1.1-.6-1.5-1.2s-.6-1.2-.7-2.1h1.9c0,.4.2.8.4,1s.5.5.8.6.6.2.9.2.7,0,1-.3.5-.4.7-.7c.2-.3.2-.6.2-1s0-.7-.3-1c-.2-.3-.5-.5-.8-.6-.3-.1-.8-.2-1.2-.2h-2.1s-.8-.7-.8-.7l.6-4.7h5.9v1.6h-4.2l-.3,2.4h1.5c.8,0,1.4.1,2,.4.6.3,1,.6,1.3,1.1.3.5.5,1,.5,1.7s-.2,1.3-.5,1.8c-.3.6-.8,1-1.4,1.4s-1.3.5-2.1.5Z" style="fill:#fff; stroke-width:0px;"/><path d="M74.3,232c-1,0-1.8-.2-2.5-.7s-1.2-1.2-1.5-2c-.3-.8-.5-1.8-.5-2.8s.2-2,.5-2.8c.4-.8.9-1.5,1.6-2,.7-.5,1.5-.7,2.4-.7s1.9.3,2.6.8c.7.5,1.2,1.2,1.5,2,.3.8.5,1.8.5,2.8s-.2,2-.5,2.8c-.3.8-.9,1.5-1.5,2-.7.5-1.5.7-2.5.7ZM74.3,230.3c.5,0,1-.2,1.4-.5.4-.3.7-.8.9-1.3s.3-1.2.3-2-.1-1.4-.3-1.9-.5-1-.9-1.3c-.4-.3-.9-.5-1.4-.5s-1,.2-1.4.5c-.4.3-.7.8-.9,1.3-.2.6-.3,1.2-.3,2s.1,1.4.3,1.9c.2.6.5,1,.9,1.3.4.3.9.5,1.4.5Z" style="fill:#fff; stroke-width:0px;"/><path d="M84.4,232c-1,0-1.8-.2-2.5-.7s-1.2-1.2-1.5-2c-.3-.8-.5-1.8-.5-2.8s.2-2,.5-2.8c.4-.8.9-1.5,1.6-2,.7-.5,1.5-.7,2.4-.7s1.9.3,2.6.8c.7.5,1.2,1.2,1.5,2,.3.8.5,1.8.5,2.8s-.2,2-.5,2.8c-.3.8-.9,1.5-1.5,2-.7.5-1.5.7-2.5.7ZM84.4,230.3c.5,0,1-.2,1.4-.5.4-.3.7-.8.9-1.3s.3-1.2.3-2-.1-1.4-.3-1.9-.5-1-.9-1.3c-.4-.3-.9-.5-1.4-.5s-1,.2-1.4.5c-.4.3-.7.8-.9,1.3-.2.6-.3,1.2-.3,2s.1,1.4.3,1.9c.2.6.5,1,.9,1.3.4.3.9.5,1.4.5Z" style="fill:#fff; stroke-width:0px;"/><path d="M94.6,221.2h1.9v10.6h-1.9v-10.6Z" style="fill:#fff; stroke-width:0px;"/><path d="M104.1,232c-1,0-2-.2-2.9-.7-.9-.5-1.6-1.2-2.1-2s-.8-1.8-.8-2.8.3-1.9.8-2.8c.5-.8,1.2-1.5,2.1-2,.9-.5,1.8-.7,2.9-.7s2,.2,2.9.7c.9.5,1.6,1.2,2.1,2,.5.8.8,1.8.8,2.8s-.3,1.9-.8,2.8-1.2,1.5-2.1,2c-.9.5-1.8.7-2.9.7ZM104.1,230.2c.7,0,1.3-.2,1.9-.5.6-.3,1-.8,1.4-1.3.3-.6.5-1.2.5-1.9s-.2-1.3-.5-1.9c-.3-.6-.8-1-1.4-1.4s-1.2-.5-1.9-.5-1.3.2-1.9.5-1,.8-1.4,1.4c-.3.6-.5,1.2-.5,1.9s.2,1.3.5,1.9.8,1,1.4,1.3,1.2.5,1.9.5ZM105.8,231.3l1.7-.8,1.9,2.7-1.8,1-1.8-2.9Z" style="fill:#fff; stroke-width:0px;"/><path d="M111.8,221.2h4.1c1.1,0,2.1.2,3,.7.9.4,1.5,1.1,2,1.9.5.8.7,1.7.7,2.8s-.2,2-.7,2.8-1.1,1.4-2,1.9c-.9.4-1.8.7-2.9.7h-4.1v-10.6ZM115.8,230.1c.8,0,1.4-.1,2-.4.6-.3,1-.7,1.3-1.2.3-.5.4-1.2.4-1.9s-.1-1.4-.4-1.9c-.3-.5-.7-1-1.3-1.3-.6-.3-1.2-.4-2-.4h-2.1v7.2h2.1Z" style="fill:#fff; stroke-width:0px;"/><rect x="160.2" y="226.2" width="245.1" height=".8" style="fill:#fff; stroke-width:0px;"/><path d="M444.4,288.4v2.6c0,.1,0,.2-.2.2-.8,0-1.4-.3-1.9-.7v.3c0,3.2-1.7,4.3-5.2,4.3l-.2-2.3c1.5,0,2.6-.6,2.6-2.2v-8.4s2.8-.3,2.8-.3v4.9c.1.9.9,1.3,1.9,1.3s.2,0,.2.2Z" style="fill:#fff; stroke-width:0px;"/><path d="M448,288.4v2.6c0,.1,0,.2-.2.2h-3.5c-.1,0-.2,0-.2-.2v-2.6c0-.1,0-.2.2-.2h3.5c.1,0,.2,0,.2.2Z" style="fill:#fff; stroke-width:0px;"/><path d="M455,288.4v2.6c0,.1,0,.2-.2.2-1,0-2-.5-2.9-1.4-.8.9-2.3,1.4-4.2,1.4s-.2,0-.2-.2v-2.6c0-.1.1-.2.2-.2,1.4,0,2.2-.5,2.2-1.9v-2.2s2.8-.3,2.8-.3v3.8c.6.4,1.3.6,2,.6s.2,0,.2.2ZM449.9,282.9l-1.9-1.9,1.9-1.9,1.4,1.4,1.4-1.4,1.9,1.9-1.9,1.9-1.5-1.4-1.4,1.4Z" style="fill:#fff; stroke-width:0px;"/><path d="M458.6,288.4v2.6c0,.1,0,.2-.2.2h-3.5c-.1,0-.2,0-.2-.2v-2.6c0-.1,0-.2.2-.2h3.5c.1,0,.2,0,.2.2Z" style="fill:#fff; stroke-width:0px;"/><path d="M462.1,288.4v2.6c0,.1,0,.2-.2.2h-3.5c-.1,0-.2,0-.2-.2v-2.6c0-.1,0-.2.2-.2h3.5c.1,0,.2,0,.2.2Z" style="fill:#fff; stroke-width:0px;"/><path d="M465.7,288.4v2.6c0,.1,0,.2-.2.2h-3.5c-.1,0-.2,0-.2-.2v-2.6c0-.1,0-.2.2-.2h3.5c.1,0,.2,0,.2.2Z" style="fill:#fff; stroke-width:0px;"/><path d="M469.2,288.4v2.6c0,.1,0,.2-.2.2h-3.5c-.1,0-.2,0-.2-.2v-2.6c0-.1,0-.2.2-.2h3.5c.1,0,.2,0,.2.2Z" style="fill:#fff; stroke-width:0px;"/><path d="M472.8,288.4v2.6c0,.1,0,.2-.2.2h-3.5c-.1,0-.2,0-.2-.2v-2.6c0-.1,0-.2.2-.2h3.5c.1,0,.2,0,.2.2Z" style="fill:#fff; stroke-width:0px;"/><path d="M476.3,288.4v2.6c0,.1,0,.2-.2.2h-3.5c-.1,0-.2,0-.2-.2v-2.6c0-.1,0-.2.2-.2h3.5c.1,0,.2,0,.2.2Z" style="fill:#fff; stroke-width:0px;"/><path d="M479.8,288.4v2.6c0,.1,0,.2-.2.2h-3.5c-.1,0-.2,0-.2-.2v-2.6c0-.1,0-.2.2-.2h3.5c.1,0,.2,0,.2.2Z" style="fill:#fff; stroke-width:0px;"/><path d="M483.4,288.4v2.6c0,.1,0,.2-.2.2h-3.5c-.1,0-.2,0-.2-.2v-2.6c0-.1,0-.2.2-.2h3.5c.1,0,.2,0,.2.2Z" style="fill:#fff; stroke-width:0px;"/><path d="M486.9,288.4v2.6c0,.1,0,.2-.2.2h-3.5c-.1,0-.2,0-.2-.2v-2.6c0-.1,0-.2.2-.2h3.5c.1,0,.2,0,.2.2Z" style="fill:#fff; stroke-width:0px;"/><path d="M504.3,288.4v2.6c0,.1,0,.2-.2.2-1,0-1.8-.3-2.6-.9-.6.6-1.6.9-2.8.9s-2-.3-3-1c-.7.6-1.7,1-2.9,1s-1.8-.3-2.7-1.1c-.7.7-1.8,1.1-3.3,1.1s-.2,0-.2-.2v-2.6c0-.1,0-.2.2-.2,1,0,1.5-.6,1.5-1.9v-2.2s2.8-.3,2.8-.3v3.6c0,.2,0,.4,0,.5.5.2.9.3,1.4.3,1,0,1.5-.6,1.5-1.9v-2.2s2.8-.3,2.8-.3v3.6c0,.2,0,.4,0,.6.5.1.9.2,1.4.2,1,0,1.5-.6,1.5-1.9v-4.1l2.8-.3v5.4c0,.2,0,.3,0,.5.4.2.9.3,1.6.3s.2,0,.2.2Z" style="fill:#fff; stroke-width:0px;"/><path d="M508.4,295.9l-1.3-1.3-1.3,1.3-1.9-1.9,1.9-1.9,1.3,1.3,1.3-1.3,1.9,1.9-1.9,1.9ZM503.9,291v-2.6c0-.1.1-.2.2-.2h1.5c1,0,1.5-.6,1.5-1.9v-4s2.8-.3,2.8-.3v5.4c0,2.5-1.4,3.8-4.4,3.8h-1.5c-.1,0-.2,0-.2-.2Z" style="fill:#fff; stroke-width:0px;"/><path d="M521.3,288.4v2.6c0,.1,0,.2-.2.2h-.9c-.3,2.8-3.2,3.9-7.5,3.9l-.3-2.3c3.1,0,4.6-.4,4.9-1.6h-1.5c-2.6,0-4.3-1.8-4.3-4.5s2-4.7,4.5-4.7,4.3,1.7,4.3,4.6v1.7h.9c.1,0,.2,0,.2.2ZM516,288.4c.4,0,.9,0,1.4,0v-1.6c0-1.2-.7-1.9-1.7-1.9s-1.7.7-1.7,1.7.9,1.8,2,1.8Z" style="fill:#fff; stroke-width:0px;"/><path d="M524.8,288.4v2.6c0,.1,0,.2-.2.2h-3.5c-.1,0-.2,0-.2-.2v-2.6c0-.1,0-.2.2-.2h3.5c.1,0,.2,0,.2.2Z" style="fill:#fff; stroke-width:0px;"/><path d="M528.4,288.4v2.6c0,.1,0,.2-.2.2h-3.5c-.1,0-.2,0-.2-.2v-2.6c0-.1,0-.2.2-.2h3.5c.1,0,.2,0,.2.2Z" style="fill:#fff; stroke-width:0px;"/><path d="M531.9,288.4v2.6c0,.1,0,.2-.2.2h-3.5c-.1,0-.2,0-.2-.2v-2.6c0-.1,0-.2.2-.2h3.5c.1,0,.2,0,.2.2Z" style="fill:#fff; stroke-width:0px;"/><path d="M535.5,288.4v2.6c0,.1,0,.2-.2.2h-3.5c-.1,0-.2,0-.2-.2v-2.6c0-.1,0-.2.2-.2h3.5c.1,0,.2,0,.2.2Z" style="fill:#fff; stroke-width:0px;"/><path d="M539,288.4v2.6c0,.1,0,.2-.2.2h-3.5c-.1,0-.2,0-.2-.2v-2.6c0-.1,0-.2.2-.2h3.5c.1,0,.2,0,.2.2Z" style="fill:#fff; stroke-width:0px;"/><path d="M542.6,288.4v2.6c0,.1,0,.2-.2.2h-3.5c-.1,0-.2,0-.2-.2v-2.6c0-.1,0-.2.2-.2h3.5c.1,0,.2,0,.2.2Z" style="fill:#fff; stroke-width:0px;"/><path d="M545.4,282.3l2.8-.3v5.4c0,2.5-1.4,3.8-4.4,3.8h-1.5c-.1,0-.2,0-.2-.2v-2.6c0-.1.1-.2.2-.2h1.5c1,0,1.5-.6,1.5-1.9v-4ZM545.4,280.9l-1.9-1.9,1.9-1.9,1.4,1.4,1.4-1.4,1.9,1.9-1.9,1.9-1.4-1.4-1.4,1.4Z" style="fill:#fff; stroke-width:0px;"/><path d="M51.6,294.4c-.7,0-1.3-.1-1.8-.4-.6-.2-1.1-.6-1.5-1.2s-.6-1.2-.7-2.1h1.9c0,.4.2.8.4,1s.5.5.8.6.6.2.9.2.7,0,1-.3.5-.4.7-.7.2-.6.2-1,0-.7-.3-1-.5-.5-.8-.6-.8-.2-1.2-.2h-2.1s-.8-.7-.8-.7l.6-4.7h5.9v1.6h-4.2l-.3,2.4h1.5c.8,0,1.4.1,2,.4s1,.6,1.3,1.1.5,1,.5,1.7-.2,1.3-.5,1.8-.8,1-1.4,1.4-1.3.5-2.1.5Z" style="fill:#fff; stroke-width:0px;"/><path d="M57.6,292.4h1.8l-1.4,3.2h-1.4l.9-3.2Z" style="fill:#fff; stroke-width:0px;"/><path d="M64.7,294.4c-.7,0-1.3-.1-1.8-.4-.6-.2-1.1-.6-1.5-1.2s-.6-1.2-.7-2.1h1.9c0,.4.2.8.4,1s.5.5.8.6.6.2.9.2.7,0,1-.3.5-.4.7-.7.2-.6.2-1,0-.7-.3-1-.5-.5-.8-.6-.8-.2-1.2-.2h-2.1s-.8-.7-.8-.7l.6-4.7h5.9v1.6h-4.2l-.3,2.4h1.5c.8,0,1.4.1,2,.4s1,.6,1.3,1.1.5,1,.5,1.7-.2,1.3-.5,1.8-.8,1-1.4,1.4-1.3.5-2.1.5Z" style="fill:#fff; stroke-width:0px;"/><path d="M74.3,294.4c-1,0-1.8-.2-2.5-.7s-1.2-1.2-1.5-2-.5-1.8-.5-2.8.2-2,.5-2.8.9-1.5,1.6-2,1.5-.7,2.4-.7,1.9.3,2.6.8,1.2,1.2,1.5,2,.5,1.8.5,2.8-.2,2-.5,2.8-.9,1.5-1.5,2-1.5.7-2.5.7ZM74.3,292.6c.5,0,1-.2,1.4-.5s.7-.8.9-1.3.3-1.2.3-2-.1-1.4-.3-1.9-.5-1-.9-1.3-.9-.5-1.4-.5-1,.2-1.4.5-.7.8-.9,1.3-.3,1.2-.3,2,.1,1.4.3,1.9.5,1,.9,1.3.9.5,1.4.5Z" style="fill:#fff; stroke-width:0px;"/><path d="M84.4,294.4c-1,0-1.8-.2-2.5-.7s-1.2-1.2-1.5-2-.5-1.8-.5-2.8.2-2,.5-2.8.9-1.5,1.6-2,1.5-.7,2.4-.7,1.9.3,2.6.8,1.2,1.2,1.5,2,.5,1.8.5,2.8-.2,2-.5,2.8-.9,1.5-1.5,2-1.5.7-2.5.7ZM84.4,292.6c.5,0,1-.2,1.4-.5s.7-.8.9-1.3.3-1.2.3-2-.1-1.4-.3-1.9-.5-1-.9-1.3-.9-.5-1.4-.5-1,.2-1.4.5-.7.8-.9,1.3-.3,1.2-.3,2,.1,1.4.3,1.9.5,1,.9,1.3.9.5,1.4.5Z" style="fill:#fff; stroke-width:0px;"/><path d="M94.6,283.5h1.9v10.6h-1.9v-10.6Z" style="fill:#fff; stroke-width:0px;"/><path d="M104.1,294.4c-1,0-2-.2-2.9-.7s-1.6-1.2-2.1-2-.8-1.8-.8-2.8.3-1.9.8-2.8,1.2-1.5,2.1-2,1.8-.7,2.9-.7,2,.2,2.9.7,1.6,1.2,2.1,2,.8,1.8.8,2.8-.3,1.9-.8,2.8-1.2,1.5-2.1,2-1.8.7-2.9.7ZM104.1,292.6c.7,0,1.3-.2,1.9-.5s1-.8,1.4-1.3.5-1.2.5-1.9-.2-1.4-.5-1.9-.8-1-1.4-1.4-1.2-.5-1.9-.5-1.3.2-1.9.5-1,.8-1.4,1.4-.5,1.2-.5,1.9.2,1.3.5,1.9.8,1,1.4,1.3,1.2.5,1.9.5ZM105.8,293.6l1.7-.8,1.9,2.7-1.8,1-1.8-2.9Z" style="fill:#fff; stroke-width:0px;"/><path d="M111.8,283.5h4.1c1.1,0,2.1.2,3,.7s1.5,1.1,2,1.9.7,1.7.7,2.8-.2,2-.7,2.8-1.1,1.4-2,1.9-1.8.7-2.9.7h-4.1v-10.6ZM115.8,292.4c.8,0,1.4-.1,2-.4s1-.7,1.3-1.2.4-1.2.4-1.9-.1-1.4-.4-1.9-.7-1-1.3-1.3-1.2-.4-2-.4h-2.1v7.2h2.1Z" style="fill:#fff; stroke-width:0px;"/><rect x="160.2" y="288.5" width="245.1" height=".8" style="fill:#fff; stroke-width:0px;"/><path d="M439.4,346v-9.1s2.8-.3,2.8-.3v8.4c0,1.3.5,1.9,1.5,1.9s.2,0,.2.2v2.6c0,.1,0,.2-.2.2-2.9,0-4.4-1.3-4.4-3.9Z" style="fill:#fff; stroke-width:0px;"/><path d="M447.5,347v2.6c0,.1,0,.2-.2.2h-3.5c-.1,0-.2,0-.2-.2v-2.6c0-.1,0-.2.2-.2h3.5c.1,0,.2,0,.2.2Z" style="fill:#fff; stroke-width:0px;"/><path d="M451.1,347v2.6c0,.1,0,.2-.2.2h-3.5c-.1,0-.2,0-.2-.2v-2.6c0-.1,0-.2.2-.2h3.5c.1,0,.2,0,.2.2Z" style="fill:#fff; stroke-width:0px;"/><path d="M454.6,347v2.6c0,.1,0,.2-.2.2h-3.5c-.1,0-.2,0-.2-.2v-2.6c0-.1,0-.2.2-.2h3.5c.1,0,.2,0,.2.2Z" style="fill:#fff; stroke-width:0px;"/><path d="M458.2,347v2.6c0,.1,0,.2-.2.2h-3.5c-.1,0-.2,0-.2-.2v-2.6c0-.1,0-.2.2-.2h3.5c.1,0,.2,0,.2.2Z" style="fill:#fff; stroke-width:0px;"/><path d="M461.7,347v2.6c0,.1,0,.2-.2.2h-3.5c-.1,0-.2,0-.2-.2v-2.6c0-.1,0-.2.2-.2h3.5c.1,0,.2,0,.2.2Z" style="fill:#fff; stroke-width:0px;"/><path d="M465.2,347v2.6c0,.1,0,.2-.2.2h-3.5c-.1,0-.2,0-.2-.2v-2.6c0-.1,0-.2.2-.2h3.5c.1,0,.2,0,.2.2Z" style="fill:#fff; stroke-width:0px;"/><path d="M468.8,347v2.6c0,.1,0,.2-.2.2h-3.5c-.1,0-.2,0-.2-.2v-2.6c0-.1,0-.2.2-.2h3.5c.1,0,.2,0,.2.2Z" style="fill:#fff; stroke-width:0px;"/><path d="M472.3,347v2.6c0,.1,0,.2-.2.2h-3.5c-.1,0-.2,0-.2-.2v-2.6c0-.1,0-.2.2-.2h3.5c.1,0,.2,0,.2.2Z" style="fill:#fff; stroke-width:0px;"/><path d="M475.9,347v2.6c0,.1,0,.2-.2.2h-3.5c-.1,0-.2,0-.2-.2v-2.6c0-.1,0-.2.2-.2h3.5c.1,0,.2,0,.2.2Z" style="fill:#fff; stroke-width:0px;"/><path d="M479.4,347v2.6c0,.1,0,.2-.2.2h-3.5c-.1,0-.2,0-.2-.2v-2.6c0-.1,0-.2.2-.2h3.5c.1,0,.2,0,.2.2Z" style="fill:#fff; stroke-width:0px;"/><path d="M486.5,347v2.6c0,.1,0,.2-.2.2-1,0-2-.5-2.9-1.4-.8.9-2.3,1.4-4.2,1.4s-.2,0-.2-.2v-2.6c0-.1.1-.2.2-.2,1.4,0,2.2-.5,2.2-1.9v-2.2s2.8-.3,2.8-.3v3.8c.6.4,1.3.6,2,.6s.2,0,.2.2ZM481.4,341.5l-1.9-1.9,1.9-1.9,1.4,1.4,1.4-1.4,1.9,1.9-1.9,1.9-1.5-1.4-1.4,1.4Z" style="fill:#fff; stroke-width:0px;"/><path d="M493.6,347v2.6c0,.1,0,.2-.2.2-1,0-2-.5-2.9-1.4-.8.9-2.3,1.4-4.2,1.4s-.2,0-.2-.2v-2.6c0-.1.1-.2.2-.2,1.4,0,2.2-.5,2.2-1.9v-2.2s2.8-.3,2.8-.3v3.8c.6.4,1.3.6,2,.6s.2,0,.2.2ZM491.1,350.8l1.9,1.9-1.9,1.9-1.3-1.3-1.3,1.3-1.9-1.9,1.9-1.9,1.3,1.3,1.3-1.3Z" style="fill:#fff; stroke-width:0px;"/><path d="M497.1,347v2.6c0,.1,0,.2-.2.2h-3.5c-.1,0-.2,0-.2-.2v-2.6c0-.1,0-.2.2-.2h3.5c.1,0,.2,0,.2.2Z" style="fill:#fff; stroke-width:0px;"/><path d="M500.6,347v2.6c0,.1,0,.2-.2.2h-3.5c-.1,0-.2,0-.2-.2v-2.6c0-.1,0-.2.2-.2h3.5c.1,0,.2,0,.2.2Z" style="fill:#fff; stroke-width:0px;"/><path d="M514.7,344.1c0,1-.2,2.2-.5,3.4l-2.1,2.4h-5.5c-1.3,0-2.3-.3-3.2-.9-.9.6-2.1.9-3,.9s-.2,0-.2-.2v-2.6c0-.1,0-.2.2-.2.5,0,1,0,1.3-.2-.2-.5-.3-1.1-.3-1.8,0-2.5,1.9-4.4,4.5-4.4s4.3,1.8,4.3,4.1-.1,1.4-.4,2.2h1.7c.3-1,.4-1.9.4-2.7,0-2.1-1.7-4.8-6.4-4.8l.2-2.6c5.8,0,8.9,2.6,8.9,7.2ZM507.6,346.9c.2-.7.3-1.4.3-1.9,0-1-.8-1.8-1.7-1.8s-1.7.7-1.7,1.7.8,2,2.3,2h.9Z" style="fill:#fff; stroke-width:0px;"/><path d="M516.7,346v-9.1s2.8-.3,2.8-.3v8.4c0,1.3.5,1.9,1.5,1.9s.2,0,.2.2v2.6c0,.1,0,.2-.2.2-2.9,0-4.4-1.3-4.4-3.9Z" style="fill:#fff; stroke-width:0px;"/><path d="M524.8,347v2.6c0,.1,0,.2-.2.2h-3.5c-.1,0-.2,0-.2-.2v-2.6c0-.1,0-.2.2-.2h3.5c.1,0,.2,0,.2.2Z" style="fill:#fff; stroke-width:0px;"/><path d="M528.4,347v2.6c0,.1,0,.2-.2.2h-3.5c-.1,0-.2,0-.2-.2v-2.6c0-.1,0-.2.2-.2h3.5c.1,0,.2,0,.2.2Z" style="fill:#fff; stroke-width:0px;"/><path d="M531.9,347v2.6c0,.1,0,.2-.2.2h-3.5c-.1,0-.2,0-.2-.2v-2.6c0-.1,0-.2.2-.2h3.5c.1,0,.2,0,.2.2Z" style="fill:#fff; stroke-width:0px;"/><path d="M535.5,347v2.6c0,.1,0,.2-.2.2h-3.5c-.1,0-.2,0-.2-.2v-2.6c0-.1,0-.2.2-.2h3.5c.1,0,.2,0,.2.2Z" style="fill:#fff; stroke-width:0px;"/><path d="M539,347v2.6c0,.1,0,.2-.2.2h-3.5c-.1,0-.2,0-.2-.2v-2.6c0-.1,0-.2.2-.2h3.5c.1,0,.2,0,.2.2Z" style="fill:#fff; stroke-width:0px;"/><path d="M548.2,344.9c0,3-2,5-5.2,5h-4.2c-.1,0-.2,0-.2-.2v-2.6c0-.1,0-.2.2-.2h1.1c-.3-.7-.5-1.4-.5-2.1,0-2.5,1.9-4.3,4.3-4.3s4.5,1.9,4.5,4.4ZM543.6,339.3l-1.9-1.9,1.9-1.9,1.9,1.9-1.9,1.9ZM545.4,344.9c0-1-.7-1.7-1.7-1.7s-1.8.8-1.8,1.8.2,1.2.5,1.9h.6c1.5,0,2.4-.8,2.4-2Z" style="fill:#fff; stroke-width:0px;"/><path d="M51,353c-.8,0-1.4-.2-2-.5s-1-.8-1.4-1.3c-.3-.5-.5-1.2-.5-1.8s0-.7.1-1c0-.3.2-.7.4-1,.2-.4.5-.8.8-1.4l2.4-3.8h2.2l-2.7,4.1c.2,0,.3-.2.5-.2.2,0,.4,0,.5,0,.6,0,1.1.2,1.7.4.5.3.9.7,1.2,1.2.3.5.5,1.1.5,1.8s-.2,1.3-.5,1.8c-.3.5-.8,1-1.4,1.3s-1.3.5-2,.5ZM51,351.2c.3,0,.7,0,.9-.2.3-.2.5-.4.6-.6.2-.3.2-.6.2-.9s0-.7-.2-.9-.4-.5-.6-.7c-.3-.2-.6-.2-.9-.2s-.7,0-1,.3c-.3.2-.5.4-.6.7-.1.3-.2.6-.2.9s0,.7.2.9c.2.3.4.5.7.6.3.2.6.2.9.2Z" style="fill:#fff; stroke-width:0px;"/><path d="M56.9,351h1.8l-1.4,3.2h-1.4l.9-3.2Z" style="fill:#fff; stroke-width:0px;"/><path d="M64.5,353c-1,0-1.8-.2-2.5-.7s-1.2-1.2-1.5-2c-.3-.8-.5-1.8-.5-2.8s.2-2,.5-2.8c.4-.8.9-1.5,1.6-2,.7-.5,1.5-.7,2.4-.7s1.9.3,2.6.8c.7.5,1.2,1.2,1.5,2,.3.8.5,1.8.5,2.8s-.2,2-.5,2.8c-.3.8-.9,1.5-1.5,2-.7.5-1.5.7-2.5.7ZM64.5,351.2c.5,0,1-.2,1.4-.5.4-.3.7-.8.9-1.3s.3-1.2.3-2-.1-1.4-.3-1.9-.5-1-.9-1.3c-.4-.3-.9-.5-1.4-.5s-1,.2-1.4.5c-.4.3-.7.8-.9,1.3-.2.6-.3,1.2-.3,2s.1,1.4.3,1.9c.2.6.5,1,.9,1.3.4.3.9.5,1.4.5Z" style="fill:#fff; stroke-width:0px;"/><path d="M74.6,353c-1,0-1.8-.2-2.5-.7s-1.2-1.2-1.5-2c-.3-.8-.5-1.8-.5-2.8s.2-2,.5-2.8c.4-.8.9-1.5,1.6-2,.7-.5,1.5-.7,2.4-.7s1.9.3,2.6.8c.7.5,1.2,1.2,1.5,2,.3.8.5,1.8.5,2.8s-.2,2-.5,2.8c-.3.8-.9,1.5-1.5,2-.7.5-1.5.7-2.5.7ZM74.6,351.2c.5,0,1-.2,1.4-.5.4-.3.7-.8.9-1.3s.3-1.2.3-2-.1-1.4-.3-1.9-.5-1-.9-1.3c-.4-.3-.9-.5-1.4-.5s-1,.2-1.4.5c-.4.3-.7.8-.9,1.3-.2.6-.3,1.2-.3,2s.1,1.4.3,1.9c.2.6.5,1,.9,1.3.4.3.9.5,1.4.5Z" style="fill:#fff; stroke-width:0px;"/><path d="M84.8,353c-1,0-1.8-.2-2.5-.7s-1.2-1.2-1.5-2c-.3-.8-.5-1.8-.5-2.8s.2-2,.5-2.8c.4-.8.9-1.5,1.6-2,.7-.5,1.5-.7,2.4-.7s1.9.3,2.6.8c.7.5,1.2,1.2,1.5,2,.3.8.5,1.8.5,2.8s-.2,2-.5,2.8c-.3.8-.9,1.5-1.5,2-.7.5-1.5.7-2.5.7ZM84.8,351.2c.5,0,1-.2,1.4-.5.4-.3.7-.8.9-1.3s.3-1.2.3-2-.1-1.4-.3-1.9-.5-1-.9-1.3c-.4-.3-.9-.5-1.4-.5s-1,.2-1.4.5c-.4.3-.7.8-.9,1.3-.2.6-.3,1.2-.3,2s.1,1.4.3,1.9c.2.6.5,1,.9,1.3.4.3.9.5,1.4.5Z" style="fill:#fff; stroke-width:0px;"/><path d="M95,342.1h1.9v10.6h-1.9v-10.6Z" style="fill:#fff; stroke-width:0px;"/><path d="M104.4,353c-1,0-2-.2-2.9-.7-.9-.5-1.6-1.2-2.1-2s-.8-1.8-.8-2.8.3-1.9.8-2.8c.5-.8,1.2-1.5,2.1-2,.9-.5,1.8-.7,2.9-.7s2,.2,2.9.7c.9.5,1.6,1.2,2.1,2,.5.8.8,1.8.8,2.8s-.3,1.9-.8,2.8-1.2,1.5-2.1,2c-.9.5-1.8.7-2.9.7ZM104.4,351.2c.7,0,1.3-.2,1.9-.5.6-.3,1-.8,1.4-1.3.3-.6.5-1.2.5-1.9s-.2-1.3-.5-1.9c-.3-.6-.8-1-1.4-1.4s-1.2-.5-1.9-.5-1.3.2-1.9.5-1,.8-1.4,1.4c-.3.6-.5,1.2-.5,1.9s.2,1.3.5,1.9.8,1,1.4,1.3,1.2.5,1.9.5ZM106.1,352.2l1.7-.8,1.9,2.7-1.8,1-1.8-2.9Z" style="fill:#fff; stroke-width:0px;"/><path d="M112.1,342.1h4.1c1.1,0,2.1.2,3,.7.9.4,1.5,1.1,2,1.9.5.8.7,1.7.7,2.8s-.2,2-.7,2.8-1.1,1.4-2,1.9c-.9.4-1.8.7-2.9.7h-4.1v-10.6ZM116.2,351c.8,0,1.4-.1,2-.4.6-.3,1-.7,1.3-1.2.3-.5.4-1.2.4-1.9s-.1-1.4-.4-1.9c-.3-.5-.7-1-1.3-1.3-.6-.3-1.2-.4-2-.4h-2.1v7.2h2.1Z" style="fill:#fff; stroke-width:0px;"/><rect x="160.2" y="347.1" width="245.1" height=".8" style="fill:#fff; stroke-width:0px;"/><path d="M444.9,513.8c0,.1,0,.2-.2.2-1.8,0-3-.5-3.7-1.4-1.4.9-2.9,1.4-4.9,1.4h-2.5c-3,0-4.5-1.4-4.5-4.1s0-1.8.3-3l2.4.3c-.1.9-.2,1.4-.2,1.8,0,1.4.8,2,2.6,2h1.8c2,0,3.3-.2,4.2-.7v-9.3s2.8-.3,2.8-.3v8.4c0,1.3.5,1.9,1.5,1.9s.2,0,.2.2v2.6ZM438.2,507.6h-4.3v-1.9h.9c-.2-.3-.3-.6-.3-1,0-1.2.9-1.9,2.1-1.9s.9.1,1.4.4v1.6c-.5-.2-.9-.3-1.2-.3-.5,0-.8.2-.8.6s0,.4.2.5h2.5l-.6,1.9Z" style="fill:#fff; stroke-width:0px;"/><path d="M448.5,511.2v2.6c0,.1,0,.2-.2.2h-3.5c-.1,0-.2,0-.2-.2v-2.6c0-.1,0-.2.2-.2h3.5c.1,0,.2,0,.2.2Z" style="fill:#fff; stroke-width:0px;"/><path d="M452,511.2v2.6c0,.1,0,.2-.2.2h-3.5c-.1,0-.2,0-.2-.2v-2.6c0-.1,0-.2.2-.2h3.5c.1,0,.2,0,.2.2Z" style="fill:#fff; stroke-width:0px;"/><path d="M455.6,511.2v2.6c0,.1,0,.2-.2.2h-3.5c-.1,0-.2,0-.2-.2v-2.6c0-.1,0-.2.2-.2h3.5c.1,0,.2,0,.2.2Z" style="fill:#fff; stroke-width:0px;"/><path d="M459.1,511.2v2.6c0,.1,0,.2-.2.2h-3.5c-.1,0-.2,0-.2-.2v-2.6c0-.1,0-.2.2-.2h3.5c.1,0,.2,0,.2.2Z" style="fill:#fff; stroke-width:0px;"/><path d="M462.7,511.2v2.6c0,.1,0,.2-.2.2h-3.5c-.1,0-.2,0-.2-.2v-2.6c0-.1,0-.2.2-.2h3.5c.1,0,.2,0,.2.2Z" style="fill:#fff; stroke-width:0px;"/><path d="M466.2,511.2v2.6c0,.1,0,.2-.2.2h-3.5c-.1,0-.2,0-.2-.2v-2.6c0-.1,0-.2.2-.2h3.5c.1,0,.2,0,.2.2Z" style="fill:#fff; stroke-width:0px;"/><path d="M469.8,511.2v2.6c0,.1,0,.2-.2.2h-3.5c-.1,0-.2,0-.2-.2v-2.6c0-.1,0-.2.2-.2h3.5c.1,0,.2,0,.2.2Z" style="fill:#fff; stroke-width:0px;"/><path d="M473.3,511.2v2.6c0,.1,0,.2-.2.2h-3.5c-.1,0-.2,0-.2-.2v-2.6c0-.1,0-.2.2-.2h3.5c.1,0,.2,0,.2.2Z" style="fill:#fff; stroke-width:0px;"/><path d="M476.8,511.2v2.6c0,.1,0,.2-.2.2h-3.5c-.1,0-.2,0-.2-.2v-2.6c0-.1,0-.2.2-.2h3.5c.1,0,.2,0,.2.2Z" style="fill:#fff; stroke-width:0px;"/><path d="M480.4,511.2v2.6c0,.1,0,.2-.2.2h-3.5c-.1,0-.2,0-.2-.2v-2.6c0-.1,0-.2.2-.2h3.5c.1,0,.2,0,.2.2Z" style="fill:#fff; stroke-width:0px;"/><path d="M496,504.8v5.4c0,2.5-1.3,3.8-3.8,3.8s-2-.3-3-1c-.7.6-1.7,1-2.9,1s-1.8-.3-2.7-1.1c-.7.7-1.8,1.1-3.3,1.1s-.2,0-.2-.2v-2.6c0-.1,0-.2.2-.2,1,0,1.5-.6,1.5-1.9v-2.2s2.8-.3,2.8-.3v3.6c0,.2,0,.4,0,.5.5.2.9.3,1.4.3,1,0,1.5-.6,1.5-1.9v-2.2s2.8-.3,2.8-.3v3.6c0,.2,0,.4,0,.6.5.1.9.2,1.4.2,1,0,1.5-.6,1.5-1.9v-4.1l2.8-.3Z" style="fill:#fff; stroke-width:0px;"/><path d="M509.4,513.8c0,.1,0,.2-.2.2-1.5,0-2.6-.3-3.3-1-1.1.5-3.3,1-4.5,1h-3.9l-.4-3h3.1l-1.4-7.2,2.8-.7,1.2,7.8c.7,0,1.4-.2,2-.3,0-.2,0-.3,0-.5v-9.1s2.8-.3,2.8-.3v8.4c0,1.3.5,1.9,1.5,1.9s.2,0,.2.2v2.6Z" style="fill:#fff; stroke-width:0px;"/><path d="M513,511.2v2.6c0,.1,0,.2-.2.2h-3.5c-.1,0-.2,0-.2-.2v-2.6c0-.1,0-.2.2-.2h3.5c.1,0,.2,0,.2.2Z" style="fill:#fff; stroke-width:0px;"/><path d="M516.5,511.2v2.6c0,.1,0,.2-.2.2h-3.5c-.1,0-.2,0-.2-.2v-2.6c0-.1,0-.2.2-.2h3.5c.1,0,.2,0,.2.2Z" style="fill:#fff; stroke-width:0px;"/><path d="M520.1,511.2v2.6c0,.1,0,.2-.2.2h-3.5c-.1,0-.2,0-.2-.2v-2.6c0-.1,0-.2.2-.2h3.5c.1,0,.2,0,.2.2Z" style="fill:#fff; stroke-width:0px;"/><path d="M523.6,511.2v2.6c0,.1,0,.2-.2.2h-3.5c-.1,0-.2,0-.2-.2v-2.6c0-.1,0-.2.2-.2h3.5c.1,0,.2,0,.2.2Z" style="fill:#fff; stroke-width:0px;"/><path d="M527.2,511.2v2.6c0,.1,0,.2-.2.2h-3.5c-.1,0-.2,0-.2-.2v-2.6c0-.1,0-.2.2-.2h3.5c.1,0,.2,0,.2.2Z" style="fill:#fff; stroke-width:0px;"/><path d="M530.7,511.2v2.6c0,.1,0,.2-.2.2h-3.5c-.1,0-.2,0-.2-.2v-2.6c0-.1,0-.2.2-.2h3.5c.1,0,.2,0,.2.2Z" style="fill:#fff; stroke-width:0px;"/><path d="M534.3,511.2v2.6c0,.1,0,.2-.2.2h-3.5c-.1,0-.2,0-.2-.2v-2.6c0-.1,0-.2.2-.2h3.5c.1,0,.2,0,.2.2Z" style="fill:#fff; stroke-width:0px;"/><path d="M537.8,511.2v2.6c0,.1,0,.2-.2.2h-3.5c-.1,0-.2,0-.2-.2v-2.6c0-.1,0-.2.2-.2h3.5c.1,0,.2,0,.2.2Z" style="fill:#fff; stroke-width:0px;"/><path d="M547.8,509.8c0,2.7-1.7,4.3-4.5,4.3h-5.7c-.1,0-.2,0-.2-.2v-2.6c0-.1,0-.2.2-.2h5.7c1,0,1.6-.5,1.6-1.3s-.6-1.3-1.6-1.3h-4.1l-1.5-2.6,5.2-6.4,2.5,1.4-4.8,5h2.5c2.8,0,4.6,1.5,4.6,3.9Z" style="fill:#fff; stroke-width:0px;"/><path d="M51,517.2c-.8,0-1.4-.2-2-.5s-1-.8-1.4-1.3-.5-1.2-.5-1.8,0-.7.1-1,.2-.7.4-1,.5-.8.8-1.4l2.4-3.8h2.2l-2.7,4.1c.2,0,.3-.2.5-.2s.4,0,.5,0c.6,0,1.1.1,1.7.4s.9.7,1.2,1.2.5,1.1.5,1.8-.2,1.3-.5,1.8-.8,1-1.4,1.3-1.3.5-2,.5ZM51,515.4c.3,0,.7,0,.9-.2s.5-.4.6-.6.2-.6.2-.9,0-.7-.2-.9-.4-.5-.6-.7-.6-.2-.9-.2-.7,0-1,.3-.5.4-.6.7-.2.6-.2.9,0,.7.2.9.4.5.7.6.6.2.9.2Z" style="fill:#fff; stroke-width:0px;"/><path d="M56.9,515.2h1.8l-1.4,3.2h-1.4l.9-3.2Z" style="fill:#fff; stroke-width:0px;"/><path d="M64.5,517.2c-1,0-1.8-.2-2.5-.7s-1.2-1.2-1.5-2-.5-1.8-.5-2.8.2-2,.5-2.8.9-1.5,1.6-2,1.5-.7,2.4-.7,1.9.3,2.6.8,1.2,1.2,1.5,2,.5,1.8.5,2.8-.2,2-.5,2.8-.9,1.5-1.5,2-1.5.7-2.5.7ZM64.5,515.4c.5,0,1-.2,1.4-.5s.7-.8.9-1.3.3-1.2.3-2-.1-1.4-.3-1.9-.5-1-.9-1.3-.9-.5-1.4-.5-1,.2-1.4.5-.7.8-.9,1.3-.3,1.2-.3,2,.1,1.4.3,1.9.5,1,.9,1.3.9.5,1.4.5Z" style="fill:#fff; stroke-width:0px;"/><path d="M74.6,517.2c-1,0-1.8-.2-2.5-.7s-1.2-1.2-1.5-2-.5-1.8-.5-2.8.2-2,.5-2.8.9-1.5,1.6-2,1.5-.7,2.4-.7,1.9.3,2.6.8,1.2,1.2,1.5,2,.5,1.8.5,2.8-.2,2-.5,2.8-.9,1.5-1.5,2-1.5.7-2.5.7ZM74.6,515.4c.5,0,1-.2,1.4-.5s.7-.8.9-1.3.3-1.2.3-2-.1-1.4-.3-1.9-.5-1-.9-1.3-.9-.5-1.4-.5-1,.2-1.4.5-.7.8-.9,1.3-.3,1.2-.3,2,.1,1.4.3,1.9.5,1,.9,1.3.9.5,1.4.5Z" style="fill:#fff; stroke-width:0px;"/><path d="M84.8,517.2c-1,0-1.8-.2-2.5-.7s-1.2-1.2-1.5-2-.5-1.8-.5-2.8.2-2,.5-2.8.9-1.5,1.6-2,1.5-.7,2.4-.7,1.9.3,2.6.8,1.2,1.2,1.5,2,.5,1.8.5,2.8-.2,2-.5,2.8-.9,1.5-1.5,2-1.5.7-2.5.7ZM84.8,515.4c.5,0,1-.2,1.4-.5s.7-.8.9-1.3.3-1.2.3-2-.1-1.4-.3-1.9-.5-1-.9-1.3-.9-.5-1.4-.5-1,.2-1.4.5-.7.8-.9,1.3-.3,1.2-.3,2,.1,1.4.3,1.9.5,1,.9,1.3.9.5,1.4.5Z" style="fill:#fff; stroke-width:0px;"/><path d="M95,506.3h1.9v10.6h-1.9v-10.6Z" style="fill:#fff; stroke-width:0px;"/><path d="M104.4,517.2c-1,0-2-.2-2.9-.7s-1.6-1.2-2.1-2-.8-1.8-.8-2.8.3-1.9.8-2.8,1.2-1.5,2.1-2,1.8-.7,2.9-.7,2,.2,2.9.7,1.6,1.2,2.1,2,.8,1.8.8,2.8-.3,1.9-.8,2.8-1.2,1.5-2.1,2-1.8.7-2.9.7ZM104.4,515.4c.7,0,1.3-.2,1.9-.5s1-.8,1.4-1.3.5-1.2.5-1.9-.2-1.4-.5-1.9-.8-1-1.4-1.4-1.2-.5-1.9-.5-1.3.2-1.9.5-1,.8-1.4,1.4-.5,1.2-.5,1.9.2,1.3.5,1.9.8,1,1.4,1.3,1.2.5,1.9.5ZM106.1,516.4l1.7-.8,1.9,2.7-1.8,1-1.8-2.9Z" style="fill:#fff; stroke-width:0px;"/><path d="M112.1,506.3h4.1c1.1,0,2.1.2,3,.7s1.5,1.1,2,1.9.7,1.7.7,2.8-.2,2-.7,2.8-1.1,1.4-2,1.9-1.8.7-2.9.7h-4.1v-10.6ZM116.2,515.2c.8,0,1.4-.1,2-.4s1-.7,1.3-1.2.4-1.2.4-1.9-.1-1.4-.4-1.9-.7-1-1.3-1.3-1.2-.4-2-.4h-2.1v7.2h2.1Z" style="fill:#fff; stroke-width:0px;"/><rect x="160.2" y="511.3" width="245.1" height=".8" style="fill:#fff; stroke-width:0px;"/><path d="M434.9,572.5v2.6c0,.1,0,.2-.2.2-.8,0-1.4-.3-1.9-.7v.3c0,3.2-1.7,4.3-5.2,4.3l-.2-2.3c1.5,0,2.6-.6,2.6-2.2v-8.4s2.8-.3,2.8-.3v4.9c.1.9.9,1.3,1.9,1.3s.2,0,.2.2Z" style="fill:#fff; stroke-width:0px;"/><path d="M438.4,572.5v2.6c0,.1,0,.2-.2.2h-3.5c-.1,0-.2,0-.2-.2v-2.6c0-.1,0-.2.2-.2h3.5c.1,0,.2,0,.2.2Z" style="fill:#fff; stroke-width:0px;"/><path d="M442,572.5v2.6c0,.1,0,.2-.2.2h-3.5c-.1,0-.2,0-.2-.2v-2.6c0-.1,0-.2.2-.2h3.5c.1,0,.2,0,.2.2Z" style="fill:#fff; stroke-width:0px;"/><path d="M445.5,572.5v2.6c0,.1,0,.2-.2.2h-3.5c-.1,0-.2,0-.2-.2v-2.6c0-.1,0-.2.2-.2h3.5c.1,0,.2,0,.2.2Z" style="fill:#fff; stroke-width:0px;"/><path d="M449.1,572.5v2.6c0,.1,0,.2-.2.2h-3.5c-.1,0-.2,0-.2-.2v-2.6c0-.1,0-.2.2-.2h3.5c.1,0,.2,0,.2.2Z" style="fill:#fff; stroke-width:0px;"/><path d="M452.6,572.5v2.6c0,.1,0,.2-.2.2h-3.5c-.1,0-.2,0-.2-.2v-2.6c0-.1,0-.2.2-.2h3.5c.1,0,.2,0,.2.2Z" style="fill:#fff; stroke-width:0px;"/><path d="M456.1,572.5v2.6c0,.1,0,.2-.2.2h-3.5c-.1,0-.2,0-.2-.2v-2.6c0-.1,0-.2.2-.2h3.5c.1,0,.2,0,.2.2Z" style="fill:#fff; stroke-width:0px;"/><path d="M465.7,571.6l-.6,3c-2.4.5-5,.7-9.1.7s-.2,0-.2-.2v-2.6c0-.1,0-.2.2-.2h1.3c-.4-.9-.6-1.7-.6-2.6,0-2.1,1.7-3.7,4.2-3.7s2.1.3,3.6.8l-.8,2.4c-1.1-.3-1.8-.4-2.4-.4-1.3,0-2.1.7-2.1,1.7s.2,1.1.5,1.7c2-.1,3.8-.3,6-.7ZM460.6,564.9l-1.9-1.9,1.9-1.9,1.9,1.9-1.9,1.9Z" style="fill:#fff; stroke-width:0px;"/><path d="M473.1,572.5v2.6c0,.1,0,.2-.2.2-.8,0-1.4-.3-1.9-.7v.3c0,3.2-1.7,4.3-5.2,4.3l-.2-2.3c1.5,0,2.6-.6,2.6-2.2v-8.4s2.8-.3,2.8-.3v4.9c.1.9.9,1.3,1.9,1.3s.2,0,.2.2Z" style="fill:#fff; stroke-width:0px;"/><path d="M472.7,575.2v-2.6c0-.1.1-.2.2-.2,1,0,1.5-.6,1.5-1.9v-4s2.8-.3,2.8-.3v5.4c0,2.5-1.4,3.8-4.4,3.8s-.2,0-.2-.2ZM473.2,578.2l1.9-1.9,1.9,1.9-1.9,1.9-1.9-1.9Z" style="fill:#fff; stroke-width:0px;"/><path d="M501.2,572.5v2.6c0,.1,0,.2-.2.2h-4.9v-6h-1c-1,0-1.5.6-1.5,1.8v2.7c0,3.5-1.6,5.4-5.6,5.4s-5.5-1.6-5.5-4.9.3-2.6.8-4.3l2.3.6c-.3,1-.5,1.9-.5,2.8,0,1.8,1,2.7,2.9,2.7s2.8-.8,2.8-2.8v-3c0-2.5,1.3-4.1,3.8-4.1h2.8l1.7,1.5v4.5h2c.1,0,.2,0,.2.2ZM490.8,580l1.9,1.9-1.9,1.9-1.3-1.3-1.3,1.3-1.9-1.9,1.9-1.9,1.3,1.3,1.3-1.3Z" style="fill:#fff; stroke-width:0px;"/><path d="M504.7,572.5v2.6c0,.1,0,.2-.2.2h-3.5c-.1,0-.2,0-.2-.2v-2.6c0-.1,0-.2.2-.2h3.5c.1,0,.2,0,.2.2Z" style="fill:#fff; stroke-width:0px;"/><path d="M508.3,572.5v2.6c0,.1,0,.2-.2.2h-3.5c-.1,0-.2,0-.2-.2v-2.6c0-.1,0-.2.2-.2h3.5c.1,0,.2,0,.2.2Z" style="fill:#fff; stroke-width:0px;"/><path d="M511.8,572.5v2.6c0,.1,0,.2-.2.2h-3.5c-.1,0-.2,0-.2-.2v-2.6c0-.1,0-.2.2-.2h3.5c.1,0,.2,0,.2.2Z" style="fill:#fff; stroke-width:0px;"/><path d="M515.4,572.5v2.6c0,.1,0,.2-.2.2h-3.5c-.1,0-.2,0-.2-.2v-2.6c0-.1,0-.2.2-.2h3.5c.1,0,.2,0,.2.2Z" style="fill:#fff; stroke-width:0px;"/><path d="M518.9,572.5v2.6c0,.1,0,.2-.2.2h-3.5c-.1,0-.2,0-.2-.2v-2.6c0-.1,0-.2.2-.2h3.5c.1,0,.2,0,.2.2Z" style="fill:#fff; stroke-width:0px;"/><path d="M522.4,572.5v2.6c0,.1,0,.2-.2.2h-3.5c-.1,0-.2,0-.2-.2v-2.6c0-.1,0-.2.2-.2h3.5c.1,0,.2,0,.2.2Z" style="fill:#fff; stroke-width:0px;"/><path d="M526,572.5v2.6c0,.1,0,.2-.2.2h-3.5c-.1,0-.2,0-.2-.2v-2.6c0-.1,0-.2.2-.2h3.5c.1,0,.2,0,.2.2Z" style="fill:#fff; stroke-width:0px;"/><path d="M532.3,572.5v2.6c0,.1,0,.2-.2.2-1.1,0-2-.4-2.8-1.2-.7.8-1.9,1.2-3.5,1.2s-.2,0-.2-.2v-2.6c0-.1.1-.2.2-.2,1,0,1.5-.6,1.5-1.9v-2.2s2.8-.3,2.8-.3v3.9c.5.3,1.2.5,1.9.5s.2,0,.2.2ZM528.8,566.9l-1.9-1.9,1.9-1.9,1.9,1.9-1.9,1.9Z" style="fill:#fff; stroke-width:0px;"/><path d="M539.4,572.5v2.6c0,.1,0,.2-.2.2-1,0-2-.5-2.9-1.4-.8.9-2.3,1.4-4.2,1.4s-.2,0-.2-.2v-2.6c0-.1.1-.2.2-.2,1.4,0,2.2-.5,2.2-1.9v-2.2s2.8-.3,2.8-.3v3.8c.6.4,1.3.6,2,.6s.2,0,.2.2ZM536.9,576.3l1.9,1.9-1.9,1.9-1.3-1.3-1.3,1.3-1.9-1.9,1.9-1.9,1.3,1.3,1.3-1.3Z" style="fill:#fff; stroke-width:0px;"/><path d="M548.6,570.4c0,3-2,5-5.2,5h-4.2c-.1,0-.2,0-.2-.2v-2.6c0-.1,0-.2.2-.2h1.1c-.3-.7-.5-1.4-.5-2.1,0-2.5,1.9-4.3,4.3-4.3s4.5,1.9,4.5,4.4ZM545.8,570.4c0-1-.7-1.7-1.7-1.7s-1.8.8-1.8,1.8.2,1.2.5,1.9h.6c1.5,0,2.4-.8,2.4-2Z" style="fill:#fff; stroke-width:0px;"/><path d="M52.9,569.2h-5.1v-1.6h7.4v1l-4.6,9.6h-2.1l4.4-9Z" style="fill:#fff; stroke-width:0px;"/><path d="M57.1,576.5h1.8l-1.4,3.2h-1.4l.9-3.2Z" style="fill:#fff; stroke-width:0px;"/><path d="M64.2,578.5c-.7,0-1.3-.1-1.8-.4-.6-.2-1.1-.6-1.5-1.2s-.6-1.2-.7-2.1h1.9c0,.4.2.8.4,1s.5.5.8.6.6.2.9.2.7,0,1-.3.5-.4.7-.7.2-.6.2-1,0-.7-.3-1-.5-.5-.8-.6-.8-.2-1.2-.2h-2.1s-.8-.7-.8-.7l.6-4.7h5.9v1.6h-4.2l-.3,2.4h1.5c.8,0,1.4.1,2,.4s1,.6,1.3,1.1.5,1,.5,1.7-.2,1.3-.5,1.8-.8,1-1.4,1.4-1.3.5-2.1.5Z" style="fill:#fff; stroke-width:0px;"/><path d="M73.8,578.5c-1,0-1.8-.2-2.5-.7s-1.2-1.2-1.5-2-.5-1.8-.5-2.8.2-2,.5-2.8.9-1.5,1.6-2,1.5-.7,2.4-.7,1.9.3,2.6.8,1.2,1.2,1.5,2,.5,1.8.5,2.8-.2,2-.5,2.8-.9,1.5-1.5,2-1.5.7-2.5.7ZM73.8,576.7c.5,0,1-.2,1.4-.5s.7-.8.9-1.3.3-1.2.3-2-.1-1.4-.3-1.9-.5-1-.9-1.3-.9-.5-1.4-.5-1,.2-1.4.5-.7.8-.9,1.3-.3,1.2-.3,2,.1,1.4.3,1.9.5,1,.9,1.3.9.5,1.4.5Z" style="fill:#fff; stroke-width:0px;"/><path d="M83.9,578.5c-1,0-1.8-.2-2.5-.7s-1.2-1.2-1.5-2-.5-1.8-.5-2.8.2-2,.5-2.8.9-1.5,1.6-2,1.5-.7,2.4-.7,1.9.3,2.6.8,1.2,1.2,1.5,2,.5,1.8.5,2.8-.2,2-.5,2.8-.9,1.5-1.5,2-1.5.7-2.5.7ZM83.9,576.7c.5,0,1-.2,1.4-.5s.7-.8.9-1.3.3-1.2.3-2-.1-1.4-.3-1.9-.5-1-.9-1.3-.9-.5-1.4-.5-1,.2-1.4.5-.7.8-.9,1.3-.3,1.2-.3,2,.1,1.4.3,1.9.5,1,.9,1.3.9.5,1.4.5Z" style="fill:#fff; stroke-width:0px;"/><path d="M94.2,567.6h1.9v10.6h-1.9v-10.6Z" style="fill:#fff; stroke-width:0px;"/><path d="M103.6,578.5c-1,0-2-.2-2.9-.7s-1.6-1.2-2.1-2-.8-1.8-.8-2.8.3-1.9.8-2.8,1.2-1.5,2.1-2,1.8-.7,2.9-.7,2,.2,2.9.7,1.6,1.2,2.1,2,.8,1.8.8,2.8-.3,1.9-.8,2.8-1.2,1.5-2.1,2-1.8.7-2.9.7ZM103.6,576.7c.7,0,1.3-.2,1.9-.5s1-.8,1.4-1.3.5-1.2.5-1.9-.2-1.4-.5-1.9-.8-1-1.4-1.4-1.2-.5-1.9-.5-1.3.2-1.9.5-1,.8-1.4,1.4-.5,1.2-.5,1.9.2,1.3.5,1.9.8,1,1.4,1.3,1.2.5,1.9.5ZM105.3,577.7l1.7-.8,1.9,2.7-1.8,1-1.8-2.9Z" style="fill:#fff; stroke-width:0px;"/><path d="M111.3,567.6h4.1c1.1,0,2.1.2,3,.7s1.5,1.1,2,1.9.7,1.7.7,2.8-.2,2-.7,2.8-1.1,1.4-2,1.9-1.8.7-2.9.7h-4.1v-10.6ZM115.3,576.5c.8,0,1.4-.1,2-.4s1-.7,1.3-1.2.4-1.2.4-1.9-.1-1.4-.4-1.9-.7-1-1.3-1.3-1.2-.4-2-.4h-2.1v7.2h2.1Z" style="fill:#fff; stroke-width:0px;"/><rect x="160.2" y="572.6" width="245.1" height=".8" style="fill:#fff; stroke-width:0px;"/><path d="M433.9,630.2v2.6c0,.1,0,.2-.2.2-.8,0-1.4-.3-1.9-.7v.3c0,3.2-1.7,4.3-5.2,4.3l-.2-2.3c1.5,0,2.6-.6,2.6-2.2v-8.4s2.8-.3,2.8-.3v4.9c.1.9.9,1.3,1.9,1.3s.2,0,.2.2Z" style="fill:#fff; stroke-width:0px;"/><path d="M443.4,629.2l-.6,3c-2.4.5-5,.7-9.1.7s-.2,0-.2-.2v-2.6c0-.1,0-.2.2-.2h1.3c-.4-.9-.6-1.7-.6-2.6,0-2.1,1.7-3.7,4.2-3.7s2.1.3,3.6.8l-.8,2.4c-1.1-.3-1.8-.4-2.4-.4-1.3,0-2.1.7-2.1,1.7s.2,1.1.5,1.7c2-.1,3.8-.3,6-.7ZM438.4,622.6l-1.9-1.9,1.9-1.9,1.9,1.9-1.9,1.9Z" style="fill:#fff; stroke-width:0px;"/><path d="M450.9,630.2v2.6c0,.1,0,.2-.2.2-.8,0-1.4-.3-1.9-.7v.3c0,3.2-1.7,4.3-5.2,4.3l-.2-2.3c1.5,0,2.6-.6,2.6-2.2v-8.4s2.8-.3,2.8-.3v4.9c.1.9.9,1.3,1.9,1.3s.2,0,.2.2Z" style="fill:#fff; stroke-width:0px;"/><path d="M450.5,632.8v-2.6c0-.1.1-.2.2-.2,1,0,1.5-.6,1.5-1.9v-4s2.8-.3,2.8-.3v5.4c0,2.5-1.4,3.8-4.4,3.8s-.2,0-.2-.2ZM451,635.9l1.9-1.9,1.9,1.9-1.9,1.9-1.9-1.9Z" style="fill:#fff; stroke-width:0px;"/><path d="M473.5,630.2v2.6c0,.1,0,.2-.2.2-.8,0-1.5-.3-2-.8-.3,3-2.2,4.7-5.6,4.7s-5.5-1.6-5.5-4.9.3-2.6.8-4.3l2.3.6c-.3,1-.5,1.9-.5,2.8,0,1.8,1,2.7,2.9,2.7s2.8-1,2.8-3v-11.1l2.8-.3v8.8c0,1,.9,1.7,2,1.7s.2,0,.2.2Z" style="fill:#fff; stroke-width:0px;"/><path d="M483.6,630.2v2.6c0,.1,0,.2-.2.2-1.4,0-3.1-.3-4.8-.9-1.6.6-3.5.9-5.3.9-.1,0-.2,0-.2-.2v-2.6c0-.1,0-.2.2-.2.6,0,1.2,0,1.8,0-.5-.7-.8-1.5-.8-2.4,0-2.2,1.6-3.9,4.1-3.9s4.2,1.9,4.2,3.9-.3,1.7-.9,2.3c.5,0,1.1.1,1.7.1s.2,0,.2.2ZM478.2,622.4l-1.9-1.9,1.9-1.9,1.9,1.9-1.9,1.9ZM476.7,627.9c0,.8.6,1.6,1.6,2,1-.4,1.6-1.2,1.6-2s-.8-1.6-1.6-1.6-1.6.7-1.6,1.6Z" style="fill:#fff; stroke-width:0px;"/><path d="M483.2,632.8v-2.6c0-.1,0-.2.2-.2,1,0,1.5-.6,1.5-1.9v-8.1s2.9-.3,2.9-.3v9.5c0,2.6-1.5,3.9-4.4,3.9s-.2,0-.2-.2Z" style="fill:#fff; stroke-width:0px;"/><path d="M508.9,630.2v2.6c0,.1,0,.2-.2.2-1.1,0-2-.4-2.8-1.2-.7.7-1.7,1.1-3.1,1.2h-4.8c-3.1,0-4.6-1.4-4.6-4.3s.2-2.3.5-3.7l2.4.3c-.2,1.2-.3,2-.3,2.6,0,1.5.8,2.2,2.6,2.2h3.7c1,0,1.5-.6,1.5-1.9v-2.2s2.8-.3,2.8-.3v3.8c.5.3,1.1.5,1.9.5s.2,0,.2.2ZM499.7,624.8l-1.9-1.9,1.9-1.9,1.4,1.4,1.4-1.4,1.9,1.9-1.9,1.9-1.5-1.4-1.4,1.4Z" style="fill:#fff; stroke-width:0px;"/><path d="M526.3,630.2v2.6c0,.1,0,.2-.2.2-1,0-1.8-.3-2.6-.9-.6.6-1.6.9-2.8.9s-2-.3-3-1c-.7.6-1.7,1-2.9,1s-1.8-.3-2.7-1.1c-.7.7-1.8,1.1-3.3,1.1s-.2,0-.2-.2v-2.6c0-.1,0-.2.2-.2,1,0,1.5-.6,1.5-1.9v-2.2s2.8-.3,2.8-.3v3.6c0,.2,0,.4,0,.5.5.2.9.3,1.4.3,1,0,1.5-.6,1.5-1.9v-2.2s2.8-.3,2.8-.3v3.6c0,.2,0,.4,0,.6.5.1.9.2,1.4.2,1,0,1.5-.6,1.5-1.9v-4.1l2.8-.3v5.4c0,.2,0,.3,0,.5.4.2,1,.3,1.6.3s.2,0,.2.2Z" style="fill:#fff; stroke-width:0px;"/><path d="M538.1,630.2v2.6c0,.1,0,.2-.2.2-1.1,0-2-.4-2.8-1.1-.8.7-1.9,1.1-3.3,1.1h-5.7c-.1,0-.2,0-.2-.2v-2.6c0-.1,0-.2.2-.2h5.7c1,0,1.6-.5,1.6-1.3s-.6-1.3-1.6-1.3h-4.1l-1.5-2.6,5.2-6.4,2.5,1.4-4.8,5h2.5c2.8,0,4.6,1.5,4.6,3.9s0,.6,0,.9c.5.3,1,.4,1.7.4s.2,0,.2.2Z" style="fill:#fff; stroke-width:0px;"/><path d="M545.1,630.2v2.6c0,.1,0,.2-.2.2-1,0-2-.5-2.9-1.4-.8.9-2.3,1.4-4.2,1.4s-.2,0-.2-.2v-2.6c0-.1.1-.2.2-.2,1.4,0,2.2-.5,2.2-1.9v-2.2s2.8-.3,2.8-.3v3.8c.6.4,1.3.6,2,.6s.2,0,.2.2ZM542.7,633.9l1.9,1.9-1.9,1.9-1.3-1.3-1.3,1.3-1.9-1.9,1.9-1.9,1.3,1.3,1.3-1.3Z" style="fill:#fff; stroke-width:0px;"/><path d="M544.8,632.8v-2.6c0-.1.1-.2.2-.2,1,0,1.5-.6,1.5-1.9v-4s2.8-.3,2.8-.3v5.4c0,2.5-1.4,3.8-4.4,3.8s-.2,0-.2-.2ZM545.9,620.5l1.9-1.9,1.9,1.9-1.9,1.9-1.9-1.9Z" style="fill:#fff; stroke-width:0px;"/><path d="M51,636.1c-.8,0-1.5-.1-2.1-.4s-1.1-.7-1.4-1.2-.5-1.1-.5-1.7,0-.9.3-1.3.4-.7.7-1,.6-.4,1-.5c-.3,0-.5-.2-.7-.5s-.4-.5-.5-.8-.2-.6-.2-.9c0-.6.2-1.1.5-1.5s.7-.8,1.2-1,1.1-.3,1.7-.3,1.2.1,1.7.3.9.6,1.2,1,.4.9.4,1.5,0,.6-.2.9-.3.6-.5.8-.5.4-.7.5c.4,0,.7.3,1,.5s.5.6.7,1,.3.8.3,1.3-.2,1.2-.5,1.7-.8.9-1.4,1.2-1.3.4-2.1.4ZM51,634.5c.4,0,.7,0,1-.2s.6-.4.8-.6.3-.6.3-.9,0-.6-.3-.9-.4-.5-.8-.7-.7-.2-1-.2-.7,0-1,.2-.6.4-.8.7-.3.6-.3.9,0,.6.3.9.4.5.8.6.7.2,1,.2ZM51,629.4c.3,0,.6,0,.8-.2s.4-.3.5-.5.2-.4.2-.7,0-.5-.2-.7-.3-.4-.5-.5-.5-.2-.8-.2-.6,0-.8.2-.4.3-.6.5-.2.4-.2.7,0,.5.2.7.3.4.6.5.5.2.8.2Z" style="fill:#fff; stroke-width:0px;"/><path d="M57,634.1h1.8l-1.4,3.2h-1.4l.9-3.2Z" style="fill:#fff; stroke-width:0px;"/><path d="M64.5,636.1c-1,0-1.8-.2-2.5-.7s-1.2-1.2-1.5-2-.5-1.8-.5-2.8.2-2,.5-2.8.9-1.5,1.6-2,1.5-.7,2.4-.7,1.9.3,2.6.8,1.2,1.2,1.5,2,.5,1.8.5,2.8-.2,2-.5,2.8-.9,1.5-1.5,2-1.5.7-2.5.7ZM64.5,634.3c.5,0,1-.2,1.4-.5s.7-.8.9-1.3.3-1.2.3-2-.1-1.4-.3-1.9-.5-1-.9-1.3-.9-.5-1.4-.5-1,.2-1.4.5-.7.8-.9,1.3-.3,1.2-.3,2,.1,1.4.3,1.9.5,1,.9,1.3.9.5,1.4.5Z" style="fill:#fff; stroke-width:0px;"/><path d="M74.7,636.1c-1,0-1.8-.2-2.5-.7s-1.2-1.2-1.5-2-.5-1.8-.5-2.8.2-2,.5-2.8.9-1.5,1.6-2,1.5-.7,2.4-.7,1.9.3,2.6.8,1.2,1.2,1.5,2,.5,1.8.5,2.8-.2,2-.5,2.8-.9,1.5-1.5,2-1.5.7-2.5.7ZM74.7,634.3c.5,0,1-.2,1.4-.5s.7-.8.9-1.3.3-1.2.3-2-.1-1.4-.3-1.9-.5-1-.9-1.3-.9-.5-1.4-.5-1,.2-1.4.5-.7.8-.9,1.3-.3,1.2-.3,2,.1,1.4.3,1.9.5,1,.9,1.3.9.5,1.4.5Z" style="fill:#fff; stroke-width:0px;"/><path d="M84.8,636.1c-1,0-1.8-.2-2.5-.7s-1.2-1.2-1.5-2-.5-1.8-.5-2.8.2-2,.5-2.8.9-1.5,1.6-2,1.5-.7,2.4-.7,1.9.3,2.6.8,1.2,1.2,1.5,2,.5,1.8.5,2.8-.2,2-.5,2.8-.9,1.5-1.5,2-1.5.7-2.5.7ZM84.8,634.3c.5,0,1-.2,1.4-.5s.7-.8.9-1.3.3-1.2.3-2-.1-1.4-.3-1.9-.5-1-.9-1.3-.9-.5-1.4-.5-1,.2-1.4.5-.7.8-.9,1.3-.3,1.2-.3,2,.1,1.4.3,1.9.5,1,.9,1.3.9.5,1.4.5Z" style="fill:#fff; stroke-width:0px;"/><path d="M95,625.3h1.9v10.6h-1.9v-10.6Z" style="fill:#fff; stroke-width:0px;"/><path d="M104.5,636.1c-1,0-2-.2-2.9-.7s-1.6-1.2-2.1-2-.8-1.8-.8-2.8.3-1.9.8-2.8,1.2-1.5,2.1-2,1.8-.7,2.9-.7,2,.2,2.9.7,1.6,1.2,2.1,2,.8,1.8.8,2.8-.3,1.9-.8,2.8-1.2,1.5-2.1,2-1.8.7-2.9.7ZM104.5,634.3c.7,0,1.3-.2,1.9-.5s1-.8,1.4-1.3.5-1.2.5-1.9-.2-1.4-.5-1.9-.8-1-1.4-1.4-1.2-.5-1.9-.5-1.3.2-1.9.5-1,.8-1.4,1.4-.5,1.2-.5,1.9.2,1.3.5,1.9.8,1,1.4,1.3,1.2.5,1.9.5ZM106.2,635.3l1.7-.8,1.9,2.7-1.8,1-1.8-2.9Z" style="fill:#fff; stroke-width:0px;"/><path d="M112.2,625.3h4.1c1.1,0,2.1.2,3,.7s1.5,1.1,2,1.9.7,1.7.7,2.8-.2,2-.7,2.8-1.1,1.4-2,1.9-1.8.7-2.9.7h-4.1v-10.6ZM116.2,634.2c.8,0,1.4-.1,2-.4s1-.7,1.3-1.2.4-1.2.4-1.9-.1-1.4-.4-1.9-.7-1-1.3-1.3-1.2-.4-2-.4h-2.1v7.2h2.1Z" style="fill:#fff; stroke-width:0px;"/><rect x="160.2" y="630.3" width="245.1" height=".8" style="fill:#fff; stroke-width:0px;"/><rect x="308.4" y="102.7" width="242.5" height="54" style="fill:#fff; stroke-width:0px;"/><path d="M395.4,134.2v4.7c0,.2-.1.4-.3.4-1.7,0-3.2-.6-4.5-1.6-1.2,1.1-2.8,1.6-5,1.6s-3.6-.6-5.5-1.8c-1.3,1.2-3.1,1.8-5.3,1.8s-2.6-.4-3.9-1.3c-.6,5.2-4.1,8.3-10,8.3s-9.9-2.9-9.9-8.8.5-4.8,1.4-7.7l4.2,1.1c-.6,1.9-.9,3.5-.9,5,0,3.3,1.8,4.9,5.2,4.9s5-1.7,5-5.4v-12.3l5.1-.6v10.4c1.1.6,2.1.9,3.3.9,1.9,0,2.8-1,2.8-3.4v-4s5.1-.6,5.1-.6v6.4c0,.4,0,.8,0,1.1.8.3,1.6.4,2.5.4,1.8,0,2.7-1.2,2.7-3.4v-7.3l5.1-.6v9.8c0,.3,0,.7,0,1,.8.3,1.6.5,2.6.5s.3.1.3.3ZM377,122.7l-3.4-3.4,3.4-3.4,2.6,2.5,2.6-2.5,3.4,3.4-3.4,3.4-2.6-2.6-2.6,2.6ZM379.6,116.8l-2.2-2.2,2.1-2.2,2.2,2.2-2.2,2.2Z" style="fill:#171a23; stroke-width:0px;"/><path d="M402.8,147.8l-2.4-2.3-2.3,2.3-3.5-3.4,3.4-3.4,2.4,2.3,2.3-2.3,3.5,3.4-3.4,3.4ZM394.7,139v-4.7c0-.2.2-.3.4-.3h2.8c1.8,0,2.7-1,2.7-3.4v-7.3s5.1-.6,5.1-.6v9.8c0,4.5-2.6,6.9-7.9,6.9h-2.8c-.2,0-.3-.2-.3-.4Z" style="fill:#171a23; stroke-width:0px;"/><path d="M424.2,130.9v7.7c0,5.7-5.5,7.8-13.5,7.8l-.5-4.2c6.1,0,8.8-1,8.9-3.6-1,.4-2,.7-3,.7-4.5,0-7.6-3.2-7.6-8.2s3.6-8.5,8.1-8.5,7.7,3.1,7.7,8.2ZM416.5,134.2c.8,0,1.7-.1,2.6-.3v-2.6c0-2.1-1.2-3.4-3-3.4s-3.1,1.2-3.1,3.1,1.5,3.3,3.5,3.2Z" style="fill:#171a23; stroke-width:0px;"/><path d="M445.6,134.2v4.7c0,.2-.1.4-.3.4-1.9,0-3.6-.7-4.9-2-1.3,1.3-3.4,2-6.2,2h-7.4l-.8-5.4h8.2c1.8,0,2.7-1,2.7-2.5v-1.1c0-1.7-1.5-2.9-3.6-2.9h-2.2v-5.3h3.4c4.5,0,7.6,2.7,7.6,7.7v2.6c0,.2,0,.5,0,.7.9.5,1.9.8,3.2.8s.3.1.3.3Z" style="fill:#171a23; stroke-width:0px;"/><path d="M452,134.2v4.7c0,.2-.1.4-.3.4h-6.4c-.2,0-.3-.2-.3-.4v-4.7c0-.2.1-.3.3-.3h6.4c.2,0,.3.1.3.3Z" style="fill:#171a23; stroke-width:0px;"/><path d="M458.4,134.2v4.7c0,.2-.1.4-.3.4h-6.4c-.2,0-.3-.2-.3-.4v-4.7c0-.2.1-.3.3-.3h6.4c.2,0,.3.1.3.3Z" style="fill:#171a23; stroke-width:0px;"/><path d="M464.8,134.2v4.7c0,.2-.1.4-.3.4h-6.4c-.2,0-.3-.2-.3-.4v-4.7c0-.2.1-.3.3-.3h6.4c.2,0,.3.1.3.3Z" style="fill:#171a23; stroke-width:0px;"/><path d="M464.1,139v-4.7c0-.2.2-.3.4-.3,1.8,0,2.7-1,2.7-3.4v-7.3s5.1-.6,5.1-.6v9.8c0,4.5-2.6,6.9-7.9,6.9s-.3-.2-.3-.4ZM466.3,116.8l3.4-3.4,3.4,3.4-3.4,3.4-3.5-3.4Z" style="fill:#171a23; stroke-width:0px;"/><path d="M476.4,132.3v-16.5s5.1-.6,5.1-.6v15.2c0,2.3.9,3.4,2.8,3.4s.3.1.3.3v4.7c0,.2,0,.4-.3.4-5.3,0-7.9-2.3-7.9-7Z" style="fill:#171a23; stroke-width:0px;"/><path d="M512.8,122.6v9.8c0,4.5-2.4,6.9-6.9,6.9s-3.6-.6-5.5-1.8c-1.3,1.2-3.1,1.8-5.3,1.8s-3.3-.6-4.9-1.9c-1.3,1.3-3.3,1.9-5.9,1.9s-.3-.2-.3-.4v-4.7c0-.2.1-.3.3-.3,1.8,0,2.7-1,2.7-3.4v-4s5.1-.6,5.1-.6v6.4c0,.3,0,.7,0,1,.8.3,1.6.5,2.5.5,1.9,0,2.8-1,2.8-3.4v-4s5.1-.6,5.1-.6v6.4c0,.4,0,.7,0,1.1.8.3,1.6.4,2.5.4,1.8,0,2.7-1.2,2.7-3.4v-7.3l5.1-.6Z" style="fill:#171a23; stroke-width:0px;"/><rect x="45.3" y="102.7" width="263.1" height="54" style="fill:#ee304c; stroke-width:0px;"/><path d="M93.8,123.7c-1.5-.3-3-.4-4.7-.4s-2.2.1-2.8.4c-.6.3-.8.7-.8,1.3s.3,1,1,1.3c.7.3,1.8.7,3.5,1.1,2.3.5,4.1,1,5.5,1.6,1.4.6,2.4,1.3,3.1,2.1.7.9,1,1.9,1,3.3,0,2.2-.9,3.9-2.8,5.1-1.9,1.1-4.4,1.7-7.7,1.7s-7.6-.6-10.1-1.7l.3-5.3c1.2.5,2.7,1,4.4,1.3,1.7.4,3.5.5,5.3.5s2.6-.2,3.3-.5c.7-.3,1-.7,1-1.3s-.2-.7-.5-1c-.3-.3-.8-.5-1.6-.8-.7-.2-1.8-.5-3.1-.8-3.1-.6-5.3-1.5-6.8-2.5-1.4-1-2.2-2.5-2.2-4.4s.9-3.8,2.6-5c1.7-1.2,4.2-1.8,7.4-1.8s6.3.5,8.7,1.5l-.4,5.1c-1.1-.5-2.3-.9-3.8-1.1Z" style="fill:#fff; stroke-width:0px;"/><path d="M107,118.8h11.8l7.3,21.9h-6.6l-1.3-4.5h-10.5l-1.3,4.5h-6.6l7.3-21.9ZM116.8,131.9l-3.9-12.7h0l-3.9,12.7h7.8Z" style="fill:#fff; stroke-width:0px;"/><path d="M139.6,118.8l7,21.5h.2v-21.5h5.9v21.9h-11.9l-7.1-21.6h-.1v21.6h-5.9v-21.9h11.9Z" style="fill:#fff; stroke-width:0px;"/><path d="M173.8,120.1c1.9.9,3.4,2.1,4.4,3.8,1,1.6,1.5,3.6,1.5,5.9s-.5,4.2-1.5,5.9c-1,1.6-2.5,2.9-4.4,3.8-1.9.9-4.2,1.3-6.8,1.3h-11v-21.9h11c2.6,0,4.9.4,6.8,1.3ZM167,135.8c2,0,3.6-.5,4.7-1.6,1.1-1.1,1.7-2.6,1.7-4.5s-.6-3.4-1.7-4.5c-1.1-1.1-2.7-1.6-4.7-1.6h-5v12.2h5Z" style="fill:#fff; stroke-width:0px;"/><path d="M180,118.8h6.4l4.2,21.3h.2l3.9-21.3h10l3.9,21.3h.2l4.1-21.3h6.4l-5,21.9h-10.9l-3.8-21.3h-.1l-3.7,21.3h-10.9l-5-21.9Z" style="fill:#fff; stroke-width:0px;"/><path d="M226.8,118.8v21.9h-6v-21.9h6Z" style="fill:#fff; stroke-width:0px;"/><path d="M237.6,134.5c1.3,1.1,3.1,1.7,5.4,1.7s2.4-.1,3.7-.4c1.3-.3,2.5-.7,3.6-1.2l.4,5.3c-1.1.5-2.3.8-3.6,1.1-1.3.2-2.5.4-3.8.4-2.9,0-5.4-.5-7.5-1.3-2.1-.9-3.6-2.2-4.7-3.9-1.1-1.7-1.6-3.8-1.6-6.2s.5-4.5,1.6-6.2c1.1-1.7,2.6-3,4.7-3.9s4.6-1.3,7.5-1.3,2.5.1,3.7.4c1.3.3,2.5.6,3.7,1.1l-.4,5.3c-1.1-.5-2.3-.9-3.5-1.2-1.3-.3-2.5-.4-3.7-.4-2.3,0-4.1.6-5.4,1.7-1.3,1.1-1.9,2.7-1.9,4.7s.6,3.6,1.9,4.7Z" style="fill:#fff; stroke-width:0px;"/><path d="M275.7,118.8v21.9h-6v-8.3h-10.5v8.3h-6v-21.9h6v8.7h10.5v-8.7h6Z" style="fill:#fff; stroke-width:0px;"/><polygon points="66.2 158.6 81.4 143.9 75.7 167.5 66.2 158.6" style="fill:#171a23; stroke-width:0px;"/><polygon points="337.5 102.1 322.3 116.8 328.1 93.2 337.5 102.1" style="fill:#171a23; stroke-width:0px;"/><polygon points="528.2 159.6 513 144.9 518.8 168.5 528.2 159.6" style="fill:#171a23; stroke-width:0px;"/><rect x="308.4" y="401.4" width="242.5" height="54" style="fill:#fff; stroke-width:0px;"/><path d="M377.4,432.9v4.7c0,.2-.1.4-.3.4-1.4,0-2.6-.5-3.4-1.3v.6c0,5.7-3.1,7.8-9.4,7.8l-.4-4.2c2.7,0,4.6-1.1,4.6-3.9v-15.1s5.1-.6,5.1-.6v8.9c.3,1.5,1.7,2.4,3.4,2.4s.3.1.3.3Z" style="fill:#171a23; stroke-width:0px;"/><path d="M383.8,432.9v4.7c0,.2-.1.4-.3.4h-6.4c-.2,0-.3-.2-.3-.4v-4.7c0-.2.1-.3.3-.3h6.4c.2,0,.3.1.3.3Z" style="fill:#171a23; stroke-width:0px;"/><path d="M390.1,432.9v4.7c0,.2-.1.4-.3.4h-6.4c-.2,0-.3-.2-.3-.4v-4.7c0-.2.1-.3.3-.3h6.4c.2,0,.3.1.3.3Z" style="fill:#171a23; stroke-width:0px;"/><path d="M396.5,432.9v4.7c0,.2-.1.4-.3.4h-6.4c-.2,0-.3-.2-.3-.4v-4.7c0-.2.1-.3.3-.3h6.4c.2,0,.3.1.3.3Z" style="fill:#171a23; stroke-width:0px;"/><path d="M402.9,432.9v4.7c0,.2-.1.4-.3.4h-6.4c-.2,0-.3-.2-.3-.4v-4.7c0-.2.1-.3.3-.3h6.4c.2,0,.3.1.3.3Z" style="fill:#171a23; stroke-width:0px;"/><path d="M409.3,432.9v4.7c0,.2-.1.4-.3.4h-6.4c-.2,0-.3-.2-.3-.4v-4.7c0-.2.1-.3.3-.3h6.4c.2,0,.3.1.3.3Z" style="fill:#171a23; stroke-width:0px;"/><path d="M415.7,432.9v4.7c0,.2-.1.4-.3.4h-6.4c-.2,0-.3-.2-.3-.4v-4.7c0-.2.1-.3.3-.3h6.4c.2,0,.3.1.3.3Z" style="fill:#171a23; stroke-width:0px;"/><path d="M432.9,431.2l-1.1,5.5c-4.4.8-9,1.4-16.4,1.4s-.3-.2-.3-.4v-4.7c0-.2.1-.3.3-.3h2.3c-.8-1.6-1.1-3-1.1-4.6,0-3.8,3.1-6.7,7.6-6.7s3.8.5,6.5,1.4l-1.4,4.4c-1.9-.5-3.3-.8-4.3-.8-2.4,0-3.8,1.3-3.8,3.1s.3,2,.9,3.1c3.7-.2,6.8-.6,10.7-1.3ZM423.8,419.2l-3.5-3.4,3.4-3.4,3.4,3.4-3.4,3.4Z" style="fill:#171a23; stroke-width:0px;"/><path d="M446.3,432.9v4.7c0,.2-.1.4-.3.4-1.4,0-2.6-.5-3.4-1.3v.6c0,5.7-3.1,7.8-9.4,7.8l-.4-4.2c2.7,0,4.6-1.1,4.6-3.9v-15.1s5.1-.6,5.1-.6v8.9c.3,1.5,1.7,2.4,3.4,2.4s.3.1.3.3Z" style="fill:#171a23; stroke-width:0px;"/><path d="M452.7,432.9v4.7c0,.2-.1.4-.3.4h-6.4c-.2,0-.3-.2-.3-.4v-4.7c0-.2.1-.3.3-.3h6.4c.2,0,.3.1.3.3Z" style="fill:#171a23; stroke-width:0px;"/><path d="M459.1,432.9v4.7c0,.2-.1.4-.3.4h-6.4c-.2,0-.3-.2-.3-.4v-4.7c0-.2.1-.3.3-.3h6.4c.2,0,.3.1.3.3Z" style="fill:#171a23; stroke-width:0px;"/><path d="M465.5,432.9v4.7c0,.2-.1.4-.3.4h-6.4c-.2,0-.3-.2-.3-.4v-4.7c0-.2.1-.3.3-.3h6.4c.2,0,.3.1.3.3Z" style="fill:#171a23; stroke-width:0px;"/><path d="M471.9,432.9v4.7c0,.2-.1.4-.3.4h-6.4c-.2,0-.3-.2-.3-.4v-4.7c0-.2.1-.3.3-.3h6.4c.2,0,.3.1.3.3Z" style="fill:#171a23; stroke-width:0px;"/><path d="M478.3,432.9v4.7c0,.2-.1.4-.3.4h-6.4c-.2,0-.3-.2-.3-.4v-4.7c0-.2.1-.3.3-.3h6.4c.2,0,.3.1.3.3Z" style="fill:#171a23; stroke-width:0px;"/><path d="M484.7,432.9v4.7c0,.2-.1.4-.3.4h-6.4c-.2,0-.3-.2-.3-.4v-4.7c0-.2.1-.3.3-.3h6.4c.2,0,.3.1.3.3Z" style="fill:#171a23; stroke-width:0px;"/><path d="M491.1,432.9v4.7c0,.2-.1.4-.3.4h-6.4c-.2,0-.3-.2-.3-.4v-4.7c0-.2.1-.3.3-.3h6.4c.2,0,.3.1.3.3Z" style="fill:#171a23; stroke-width:0px;"/><path d="M490.4,437.7v-4.7c0-.2.2-.3.4-.3,1.8,0,2.7-1,2.7-3.4v-7.3s5.1-.6,5.1-.6v9.8c0,4.5-2.6,6.9-7.9,6.9s-.3-.2-.3-.4ZM491.3,443.2l3.4-3.4,3.4,3.4-3.4,3.4-3.5-3.4Z" style="fill:#171a23; stroke-width:0px;"/><rect x="45.3" y="401.4" width="263.1" height="54" style="fill:#ee304c; stroke-width:0px;"/><path d="M109.7,417.5h11c2.8,0,5,.4,6.5,1.4,1.6,1,2.4,2.2,2.4,3.8s-.7,2.5-2.1,3.3c-1.4.8-3.3,1.3-5.9,1.4h0c2.9.1,5.2.6,6.8,1.6,1.6,1,2.4,2.3,2.4,4.1s-.4,2.4-1.1,3.3-1.8,1.7-3.2,2.2c-1.4.5-3.1.8-5,.8h-11.8v-21.9ZM119.2,427c1.4,0,2.4-.2,3.1-.6s1-1,1-1.8-.3-1.3-1-1.7c-.7-.4-1.7-.6-3-.6h-3.5v4.8h3.4ZM120.3,434.6c1.4,0,2.5-.2,3.2-.7.7-.4,1.1-1.1,1.1-2s-.4-1.5-1.1-2c-.7-.5-1.8-.7-3.2-.7h-4.6v5.3h4.6Z" style="fill:#fff; stroke-width:0px;"/><path d="M153,437.3c-2,1.7-4.9,2.6-8.7,2.6s-6.7-.9-8.7-2.6c-2-1.7-3.1-4.2-3.1-7.3v-12.5h6v12.5c0,1.7.5,3,1.5,3.9,1,.9,2.4,1.3,4.2,1.3s3.2-.4,4.2-1.3c1-.9,1.5-2.2,1.5-3.9v-12.5h6v12.5c0,3.2-1,5.6-3.1,7.3Z" style="fill:#fff; stroke-width:0px;"/><path d="M158.7,417.5h10.7c2,0,3.8.3,5.3.9,1.5.6,2.7,1.5,3.5,2.6.8,1.1,1.2,2.4,1.2,4s-.5,3-1.4,4.2-2.3,2-4,2.5l6.2,7.9h-6.7l-8.8-11.1v11.1h-6v-21.9ZM169.5,428.3c1.1,0,2.1-.3,2.7-.8.7-.6,1-1.3,1-2.4s-.3-1.8-1-2.3c-.7-.6-1.6-.8-2.7-.8h-4.7v6.4h4.7Z" style="fill:#fff; stroke-width:0px;"/><path d="M189.1,433.3c.9,1.1,2.1,1.6,3.7,1.6s2.4-.3,3.2-.9,1.3-1.5,1.4-2.6h-4.1v-4.2h10.5v12.2h-3.6l-2.1-8h0c0,2.7-.7,4.8-2,6.3-1.3,1.5-3.2,2.2-5.6,2.2s-3.4-.4-4.8-1.3-2.4-2.2-3.2-3.8-1.1-3.6-1.1-5.9c0-3.8,1.2-6.8,3.6-8.8s5.8-3.1,10.2-3.1,2.7.1,4.2.4c1.4.3,2.7.6,3.8,1.1l-.3,5.2c-1-.5-2.2-.9-3.6-1.2-1.4-.3-2.7-.4-4.1-.4-2.4,0-4.2.6-5.4,1.7-1.2,1.1-1.9,2.8-1.9,5s.4,3.4,1.3,4.5Z" style="fill:#fff; stroke-width:0px;"/><path d="M225.6,417.5v4.9h-13v3.9h9.9v4.2h-9.9v4h13.4v4.9h-19.4v-21.9h19Z" style="fill:#fff; stroke-width:0px;"/><path d="M228,417.5h10.7c2,0,3.8.3,5.3.9,1.5.6,2.7,1.5,3.5,2.6.8,1.1,1.2,2.4,1.2,4s-.5,3-1.4,4.2-2.3,2-4,2.5l6.2,7.9h-6.7l-8.8-11.1v11.1h-6v-21.9ZM238.7,428.3c1.1,0,2.1-.3,2.7-.8.7-.6,1-1.3,1-2.4s-.3-1.8-1-2.3c-.7-.6-1.6-.8-2.7-.8h-4.7v6.4h4.7Z" style="fill:#fff; stroke-width:0px;"/><polygon points="66.2 457.3 81.4 442.6 75.7 466.2 66.2 457.3" style="fill:#171a23; stroke-width:0px;"/><polygon points="337.5 400.9 322.3 415.5 328.1 391.9 337.5 400.9" style="fill:#171a23; stroke-width:0px;"/><polygon points="528.2 458.3 513 443.6 518.8 467.2 528.2 458.3" style="fill:#171a23; stroke-width:0px;"/><path d="M271.4,765.5h-3.5l-4.5-8.9h4.2l3.9,8.4h.1l4-8.4h4.2l-7,13.7h-3.7l2.3-4.8Z" style="fill:#fff; stroke-width:0px;"/><path d="M281.5,756.7h7.3l4.6,13.7h-4.1l-.8-2.8h-6.5l-.8,2.8h-4.1l4.6-13.7ZM287.6,764.9l-2.4-7.9h0l-2.4,7.9h4.9Z" style="fill:#fff; stroke-width:0px;"/><path d="M298.1,756.7v10.6h7.6v3h-11.4v-13.7h3.8Z" style="fill:#fff; stroke-width:0px;"/><path d="M310.6,756.7v10.6h7.6v3h-11.4v-13.7h3.8Z" style="fill:#fff; stroke-width:0px;"/><path d="M323.4,756.7h7.3l4.6,13.7h-4.1l-.8-2.8h-6.5l-.8,2.8h-4.1l4.6-13.7ZM329.5,764.9l-2.4-7.9h0l-2.4,7.9h4.9Z" style="fill:#fff; stroke-width:0px;"/><path d="M241.2,775.4l4.4,13.4h0v-13.4h3.7v13.7h-7.4l-4.4-13.5h0v13.5h-3.7v-13.7h7.4Z" style="fill:#fff; stroke-width:0px;"/><path d="M263.3,775.4v3h-8.1v2.5h6.2v2.6h-6.2v2.5h8.3v3h-12.1v-13.7h11.8Z" style="fill:#fff; stroke-width:0px;"/><path d="M272.3,782.2l-4,6.9h-4.3l4.6-7-4.3-6.7h4.3l3.8,6.5,3.8-6.5h4.3l-4.3,6.7,4.6,7h-4.3l-4-6.9Z" style="fill:#fff; stroke-width:0px;"/><path d="M285.4,778.4h-4.6v-3h12.9v3h-4.6v10.6h-3.8v-10.6Z" style="fill:#fff; stroke-width:0px;"/><path d="M302.6,775.4v10.6h7.6v3h-11.4v-13.7h3.8Z" style="fill:#fff; stroke-width:0px;"/><path d="M323.2,775.4v3h-8.1v2.5h6.2v2.6h-6.2v2.5h8.3v3h-12.1v-13.7h11.8Z" style="fill:#fff; stroke-width:0px;"/><path d="M335.8,789.1h-7.6l-4.4-13.7h4.1l4.1,13.4h0l4-13.4h4.1l-4.4,13.7Z" style="fill:#fff; stroke-width:0px;"/><path d="M353,775.4v3h-8.1v2.5h6.2v2.6h-6.2v2.5h8.3v3h-12.1v-13.7h11.8Z" style="fill:#fff; stroke-width:0px;"/><path d="M358.3,775.4v10.6h7.6v3h-11.4v-13.7h3.8Z" style="fill:#fff; stroke-width:0px;"/><path d="M337.9,757.4h-1.3v-.7h3.5v.7h-1.3v3.8h-.8v-3.8Z" style="fill:#fff; stroke-width:0px;"/><path d="M340.7,756.7h.7l1.5,2.1h0s1.6-2.1,1.6-2.1h.7v4.5h-.8v-3.2l-1.3,1.8h-.2l-1.3-1.8v3.2h-.8v-4.5Z" style="fill:#fff; stroke-width:0px;"/></svg>