<?xml version="1.0" encoding="UTF-8"?><svg id="Layer_1" xmlns="http://www.w3.org/2000/svg" viewBox="0 0 597.1 841.3"><rect x="-5.7" y="-1.6" width="604.6" height="845.2" style="fill:#171a23; stroke-width:0px;"/><rect x="257.4" y="256.9" width="290.2" height="54" style="fill:#fff; stroke-width:0px;"/><path d="M386.3,288.4v5.1c0,.2-.1.4-.4.4-1.5,0-2.7-.5-3.7-1.4v.6c0,6.1-3.3,8.4-10,8.4l-.4-4.5c2.9,0,4.9-1.1,4.9-4.2v-16.1s5.5-.7,5.5-.7v9.5c.3,1.7,1.8,2.6,3.7,2.6s.4.1.4.4Z" style="fill:#171a23; stroke-width:0px;"/><path d="M393.2,288.4v5.1c0,.2-.1.4-.4.4h-6.8c-.2,0-.4-.2-.4-.4v-5.1c0-.2.1-.4.4-.4h6.8c.2,0,.4.1.4.4Z" style="fill:#171a23; stroke-width:0px;"/><path d="M400,288.4v5.1c0,.2-.1.4-.4.4h-6.8c-.2,0-.4-.2-.4-.4v-5.1c0-.2.1-.4.4-.4h6.8c.2,0,.4.1.4.4Z" style="fill:#171a23; stroke-width:0px;"/><path d="M406.9,288.4v5.1c0,.2-.1.4-.4.4h-6.8c-.2,0-.4-.2-.4-.4v-5.1c0-.2.1-.4.4-.4h6.8c.2,0,.4.1.4.4Z" style="fill:#171a23; stroke-width:0px;"/><path d="M413.7,288.4v5.1c0,.2-.1.4-.4.4h-6.8c-.2,0-.4-.2-.4-.4v-5.1c0-.2.1-.4.4-.4h6.8c.2,0,.4.1.4.4Z" style="fill:#171a23; stroke-width:0px;"/><path d="M436.4,288.4v5.1c0,.2-.1.4-.4.4-2.1,0-3.9-.8-5.4-2.2-1.5,1.4-3.6,2.2-6.3,2.2h-11c-.2,0-.4-.2-.4-.4v-5.1c0-.2.1-.4.4-.4h11c1.9,0,3.1-1,3.1-2.5s-1.2-2.5-3-2.5h-7.9l-2.8-4.9,9.9-12.4,4.9,2.8-9.3,9.6h4.9c5.4,0,8.9,3,8.9,7.5s0,1.1-.1,1.7c.9.5,1.9.8,3.2.8s.4.1.4.4Z" style="fill:#171a23; stroke-width:0px;"/><path d="M448.6,288.4v5.1c0,.2-.1.4-.4.4-2.1,0-3.9-.8-5.4-2.3-1.4,1.5-3.7,2.3-6.8,2.3s-.4-.2-.4-.4v-5.1c0-.2.2-.4.4-.4,2,0,2.9-1.1,2.9-3.6v-4.2s5.5-.6,5.5-.6v7.4c1.1.6,2.2,1,3.7,1s.4.1.4.4ZM441.9,277.5l-3.7-3.6,3.7-3.6,3.7,3.6-3.6,3.6Z" style="fill:#171a23; stroke-width:0px;"/><path d="M466.4,284.3c0,5.9-3.9,9.6-10.1,9.6h-8.1c-.2,0-.4-.1-.4-.4v-5.1c0-.2.1-.4.4-.4h2.2c-.7-1.4-1.1-2.7-1.1-4.1,0-4.8,3.6-8.2,8.4-8.2s8.7,3.6,8.7,8.5ZM457.5,273.4l-3.7-3.6,3.7-3.6,3.7,3.6-3.6,3.6ZM460.9,284.2c0-1.9-1.4-3.2-3.3-3.2s-3.4,1.5-3.4,3.5.4,2.3,1,3.6h1.1c2.9,0,4.5-1.5,4.5-3.8Z" style="fill:#171a23; stroke-width:0px;"/><rect x="42.1" y="256.9" width="246.2" height="54" style="fill:#ee304c; stroke-width:0px;"/><path d="M118.1,272.7h19.1v5.1h-12.9v4.9h10v4.7h-10v7.7h-6.2v-22.5Z" style="fill:#fff; stroke-width:0px;"/><path d="M139.7,272.7h11c2.1,0,3.9.3,5.5.9s2.7,1.5,3.6,2.6c.8,1.1,1.3,2.5,1.3,4.1s-.5,3.1-1.5,4.3c-1,1.2-2.4,2-4.1,2.6l6.4,8.1h-6.9l-9-11.4v11.4h-6.2v-22.5ZM150.6,283.8c1.2,0,2.1-.3,2.8-.9.7-.6,1-1.4,1-2.4s-.3-1.8-1-2.4c-.7-.6-1.6-.9-2.8-.9h-4.8v6.5h4.8Z" style="fill:#fff; stroke-width:0px;"/><path d="M170,272.7v22.5h-6.2v-22.5h6.2Z" style="fill:#fff; stroke-width:0px;"/><path d="M192.9,272.7v5h-13.3v4h10.2v4.3h-10.2v4.1h13.7v5h-19.9v-22.5h19.5Z" style="fill:#fff; stroke-width:0px;"/><path d="M209.9,277.8c-1.5-.3-3.1-.4-4.8-.4s-2.2.1-2.8.4-.9.7-.9,1.3.3,1,1,1.4c.7.4,1.9.7,3.5,1.1,2.3.5,4.2,1,5.6,1.6,1.4.6,2.5,1.3,3.1,2.2s1,2,1,3.3c0,2.3-1,4-2.9,5.2-1.9,1.2-4.6,1.8-7.9,1.8s-7.8-.6-10.3-1.7l.3-5.4c1.3.5,2.8,1,4.5,1.4,1.8.4,3.6.6,5.5.6s2.7-.2,3.4-.5,1-.8,1-1.4-.2-.7-.5-1c-.3-.3-.9-.5-1.6-.8-.7-.2-1.8-.5-3.2-.8-3.1-.7-5.5-1.5-6.9-2.6-1.5-1-2.2-2.5-2.2-4.5s.9-3.9,2.7-5.1c1.8-1.2,4.3-1.8,7.6-1.8s6.5.5,9,1.5l-.4,5.3c-1.1-.5-2.4-.9-3.9-1.2Z" style="fill:#fff; stroke-width:0px;"/><polygon points="334.3 311.2 319.1 296.6 324.8 320.1 334.3 311.2" style="fill:#171a23; stroke-width:0px;"/><polygon points="82.8 256.4 98 271 92.3 247.5 82.8 256.4" style="fill:#171a23; stroke-width:0px;"/><polygon points="523.9 256.4 508.6 271 514.4 247.5 523.9 256.4" style="fill:#171a23; stroke-width:0px;"/><rect x="257.4" y="503" width="290.2" height="54" style="fill:#fff; stroke-width:0px;"/><path d="M391.2,522.1v10.5c0,4.8-2.8,7.3-8.2,7.4h-9.2c-5.8,0-8.8-2.6-8.8-8s.2-3.5.7-5.7l4.7.6c-.2,1.7-.4,2.7-.4,3.5,0,2.7,1.6,3.8,5.1,3.8h7.7c2,0,3-1.1,3-3.6v-7.8s5.5-.7,5.5-.7ZM375.1,524.1l-3.7-3.7,3.6-3.6,2.8,2.7,2.8-2.7,3.7,3.6-3.6,3.7-2.8-2.7-2.8,2.7Z" style="fill:#171a23; stroke-width:0px;"/><path d="M395.5,532.5v-17.6s5.5-.6,5.5-.6v16.3c0,2.5,1,3.6,3,3.6s.4.1.4.4v5.1c0,.2-.1.4-.3.4-5.7,0-8.5-2.5-8.5-7.5Z" style="fill:#171a23; stroke-width:0px;"/><path d="M422.1,530.3c0,5.9-3.9,9.6-10.1,9.6h-8.1c-.2,0-.4-.1-.4-.4v-5.1c0-.2.1-.4.4-.4h2.2c-.7-1.4-1.1-2.8-1.1-4.1,0-4.8,3.6-8.2,8.4-8.2s8.7,3.6,8.7,8.5ZM413.2,519.5l-3.7-3.6,3.7-3.6,3.7,3.6-3.6,3.6ZM416.6,530.3c0-1.9-1.4-3.2-3.3-3.2s-3.4,1.5-3.4,3.5.4,2.3,1,3.6h1.1c2.9,0,4.5-1.5,4.5-3.8Z" style="fill:#171a23; stroke-width:0px;"/><path d="M426,532.5v-17.6s5.5-.6,5.5-.6v16.3c0,2.5,1,3.6,3,3.6s.4.1.4.4v5.1c0,.2-.1.4-.3.4-5.7,0-8.5-2.5-8.5-7.5Z" style="fill:#171a23; stroke-width:0px;"/><path d="M464.1,529.3c0,1.6-.4,3.6-1,5.9l-4,4.7h-24.7c-.2,0-.4-.2-.4-.4v-5.1c0-.2.2-.4.4-.4h2.7v-11.4s5.5-.7,5.5-.7v3.1c6.6-3.1,9.9-4.2,13.3-4.2s8.1,3.3,8.1,8.3ZM458.6,529.9c0-1.9-1.6-3.2-3.8-3.2s-4.4.5-12.1,3v4.5h15.2c.5-1.7.7-3.1.7-4.3ZM448,519.1l-3.7-3.6,3.7-3.6,3.7,3.6-3.6,3.6Z" style="fill:#171a23; stroke-width:0px;"/><path d="M475.5,513.9l-.6,3h-8.4v-3h1.5c-.2-.5-.4-1.1-.4-1.7,0-1.8,1.5-3.2,3.5-3.2s2.4.4,3.2.7v2.7c-.9-.4-1.7-.5-2.3-.5s-1.3.4-1.3,1,.1.8.4,1.1h4.5ZM468.1,519.1l5.5-.6v21.4h-5.5v-20.8Z" style="fill:#171a23; stroke-width:0px;"/><rect x="42.1" y="503" width="246.2" height="54" style="fill:#ee304c; stroke-width:0px;"/><path d="M89.1,520.4h10.5l6.5,19.5h-5.9l-1.2-4h-9.3l-1.2,4h-5.9l6.5-19.5ZM97.9,532.1l-3.4-11.3h0l-3.4,11.3h6.9Z" style="fill:#fff; stroke-width:0px;"/><path d="M123.3,521.5c1.7.8,3,1.9,3.9,3.4.9,1.5,1.4,3.2,1.4,5.2s-.5,3.8-1.4,5.2c-.9,1.5-2.2,2.6-3.9,3.4-1.7.8-3.7,1.2-6,1.2h-9.8v-19.5h9.8c2.3,0,4.3.4,6,1.2ZM117.3,535.5c1.8,0,3.2-.5,4.2-1.4,1-1,1.5-2.3,1.5-4s-.5-3-1.5-4c-1-1-2.4-1.4-4.2-1.4h-4.4v10.8h4.4Z" style="fill:#fff; stroke-width:0px;"/><path d="M146.7,521.5c1.7.8,3,1.9,3.9,3.4.9,1.5,1.4,3.2,1.4,5.2s-.5,3.8-1.4,5.2c-.9,1.5-2.2,2.6-3.9,3.4-1.7.8-3.7,1.2-6,1.2h-9.8v-19.5h9.8c2.3,0,4.3.4,6,1.2ZM140.6,535.5c1.8,0,3.2-.5,4.2-1.4,1-1,1.5-2.3,1.5-4s-.5-3-1.5-4c-1-1-2.4-1.4-4.2-1.4h-4.4v10.8h4.4Z" style="fill:#fff; stroke-width:0px;"/><path d="M159.6,520.4v19.5h-5.4v-19.5h5.4Z" style="fill:#fff; stroke-width:0px;"/><path d="M167.7,524.7h-6.5v-4.4h18.4v4.4h-6.6v15.2h-5.4v-15.2Z" style="fill:#fff; stroke-width:0px;"/><path d="M186.7,520.4v19.5h-5.4v-19.5h5.4Z" style="fill:#fff; stroke-width:0px;"/><path d="M194.3,539.2c-1.7-.8-3.1-1.9-4-3.5-.9-1.5-1.4-3.3-1.4-5.5s.5-4,1.4-5.6c.9-1.5,2.2-2.7,4-3.5,1.7-.8,3.8-1.2,6.3-1.2s4.5.4,6.2,1.2c1.7.8,3.1,2,4,3.5.9,1.5,1.4,3.4,1.4,5.6s-.5,4-1.4,5.5c-.9,1.5-2.2,2.7-4,3.5-1.7.8-3.8,1.2-6.2,1.2s-4.5-.4-6.3-1.2ZM196.1,534.3c1.1,1,2.5,1.5,4.4,1.5s3.4-.5,4.4-1.5c1.1-1,1.6-2.3,1.6-4.1s-.5-3.2-1.6-4.2c-1-1-2.5-1.5-4.4-1.5s-3.4.5-4.4,1.5c-1.1,1-1.6,2.4-1.6,4.2s.5,3.1,1.6,4.1Z" style="fill:#fff; stroke-width:0px;"/><path d="M225,520.4l6.2,19.1h.1v-19.1h5.2v19.5h-10.6l-6.3-19.2h-.1v19.2h-5.2v-19.5h10.6Z" style="fill:#fff; stroke-width:0px;"/><path d="M251.9,524.8c-1.3-.2-2.7-.4-4.2-.4s-2,.1-2.5.3-.8.6-.8,1.1.3.9.9,1.2c.6.3,1.6.6,3.1,1,2,.4,3.6.9,4.9,1.4,1.2.5,2.1,1.1,2.7,1.9s.9,1.7.9,2.9c0,2-.8,3.5-2.5,4.5-1.7,1-4,1.5-6.9,1.5s-6.8-.5-9-1.5l.3-4.7c1.1.5,2.4.9,3.9,1.2s3.1.5,4.7.5,2.3-.1,2.9-.4.9-.7.9-1.2-.1-.7-.4-.9c-.3-.2-.7-.5-1.4-.7-.6-.2-1.6-.4-2.7-.7-2.7-.6-4.7-1.3-6-2.2s-1.9-2.2-1.9-3.9.8-3.4,2.3-4.4c1.5-1,3.7-1.6,6.6-1.6s5.6.4,7.8,1.3l-.3,4.6c-.9-.4-2.1-.8-3.4-1Z" style="fill:#fff; stroke-width:0px;"/><polygon points="345.4 502.4 330.2 517.1 335.9 493.5 345.4 502.4" style="fill:#171a23; stroke-width:0px;"/><polygon points="522.2 557.7 507 543 512.8 566.6 522.2 557.7" style="fill:#171a23; stroke-width:0px;"/><polygon points="59.8 557.7 75 543 69.3 566.6 59.8 557.7" style="fill:#171a23; stroke-width:0px;"/><path d="M436.4,214.4c1.5,0,2.6-.6,2.6-2.2v-8.4s2.8-.3,2.8-.3v8.8c0,3.2-1.7,4.3-5.2,4.3l-.2-2.3Z" style="fill:#fff; stroke-width:0px;"/><path d="M449.9,210v2.6c0,.1,0,.2-.2.2-.8,0-1.4-.3-1.9-.7v.3c0,3.2-1.7,4.3-5.2,4.3l-.2-2.3c1.5,0,2.6-.6,2.6-2.2v-8.4s2.8-.3,2.8-.3v4.9c.1.9.9,1.3,1.9,1.3s.2,0,.2.2ZM446.4,202.7l-1.9-1.9,1.9-1.9,1.9,1.9-1.9,1.9Z" style="fill:#fff; stroke-width:0px;"/><path d="M453.5,210v2.6c0,.1,0,.2-.2.2h-3.5c-.1,0-.2,0-.2-.2v-2.6c0-.1,0-.2.2-.2h3.5c.1,0,.2,0,.2.2Z" style="fill:#fff; stroke-width:0px;"/><path d="M457,210v2.6c0,.1,0,.2-.2.2h-3.5c-.1,0-.2,0-.2-.2v-2.6c0-.1,0-.2.2-.2h3.5c.1,0,.2,0,.2.2Z" style="fill:#fff; stroke-width:0px;"/><path d="M460.6,210v2.6c0,.1,0,.2-.2.2h-3.5c-.1,0-.2,0-.2-.2v-2.6c0-.1,0-.2.2-.2h3.5c.1,0,.2,0,.2.2Z" style="fill:#fff; stroke-width:0px;"/><path d="M464.1,210v2.6c0,.1,0,.2-.2.2h-3.5c-.1,0-.2,0-.2-.2v-2.6c0-.1,0-.2.2-.2h3.5c.1,0,.2,0,.2.2Z" style="fill:#fff; stroke-width:0px;"/><path d="M467.7,210v2.6c0,.1,0,.2-.2.2h-3.5c-.1,0-.2,0-.2-.2v-2.6c0-.1,0-.2.2-.2h3.5c.1,0,.2,0,.2.2Z" style="fill:#fff; stroke-width:0px;"/><path d="M471.2,210v2.6c0,.1,0,.2-.2.2h-3.5c-.1,0-.2,0-.2-.2v-2.6c0-.1,0-.2.2-.2h3.5c.1,0,.2,0,.2.2Z" style="fill:#fff; stroke-width:0px;"/><path d="M474.8,210v2.6c0,.1,0,.2-.2.2h-3.5c-.1,0-.2,0-.2-.2v-2.6c0-.1,0-.2.2-.2h3.5c.1,0,.2,0,.2.2Z" style="fill:#fff; stroke-width:0px;"/><path d="M478.3,210v2.6c0,.1,0,.2-.2.2h-3.5c-.1,0-.2,0-.2-.2v-2.6c0-.1,0-.2.2-.2h3.5c.1,0,.2,0,.2.2Z" style="fill:#fff; stroke-width:0px;"/><path d="M481.8,210v2.6c0,.1,0,.2-.2.2h-3.5c-.1,0-.2,0-.2-.2v-2.6c0-.1,0-.2.2-.2h3.5c.1,0,.2,0,.2.2Z" style="fill:#fff; stroke-width:0px;"/><path d="M485.4,210v2.6c0,.1,0,.2-.2.2h-3.5c-.1,0-.2,0-.2-.2v-2.6c0-.1,0-.2.2-.2h3.5c.1,0,.2,0,.2.2Z" style="fill:#fff; stroke-width:0px;"/><path d="M488.9,210v2.6c0,.1,0,.2-.2.2h-3.5c-.1,0-.2,0-.2-.2v-2.6c0-.1,0-.2.2-.2h3.5c.1,0,.2,0,.2.2Z" style="fill:#fff; stroke-width:0px;"/><path d="M492.5,210v2.6c0,.1,0,.2-.2.2h-3.5c-.1,0-.2,0-.2-.2v-2.6c0-.1,0-.2.2-.2h3.5c.1,0,.2,0,.2.2Z" style="fill:#fff; stroke-width:0px;"/><path d="M496,210v2.6c0,.1,0,.2-.2.2h-3.5c-.1,0-.2,0-.2-.2v-2.6c0-.1,0-.2.2-.2h3.5c.1,0,.2,0,.2.2Z" style="fill:#fff; stroke-width:0px;"/><path d="M503.1,210v2.6c0,.1,0,.2-.2.2-1,0-2-.5-2.9-1.4-.8.9-2.3,1.4-4.2,1.4s-.2,0-.2-.2v-2.6c0-.1.1-.2.2-.2,1.4,0,2.2-.5,2.2-1.9v-2.2s2.8-.3,2.8-.3v3.8c.6.4,1.3.6,2,.6s.2,0,.2.2ZM500.7,213.7l1.9,1.9-1.9,1.9-1.3-1.3-1.3,1.3-1.9-1.9,1.9-1.9,1.3,1.3,1.3-1.3Z" style="fill:#fff; stroke-width:0px;"/><path d="M506.6,210v2.6c0,.1,0,.2-.2.2h-3.5c-.1,0-.2,0-.2-.2v-2.6c0-.1,0-.2.2-.2h3.5c.1,0,.2,0,.2.2Z" style="fill:#fff; stroke-width:0px;"/><path d="M510.2,210v2.6c0,.1,0,.2-.2.2h-3.5c-.1,0-.2,0-.2-.2v-2.6c0-.1,0-.2.2-.2h3.5c.1,0,.2,0,.2.2Z" style="fill:#fff; stroke-width:0px;"/><path d="M513.7,210v2.6c0,.1,0,.2-.2.2h-3.5c-.1,0-.2,0-.2-.2v-2.6c0-.1,0-.2.2-.2h3.5c.1,0,.2,0,.2.2Z" style="fill:#fff; stroke-width:0px;"/><path d="M517.3,210v2.6c0,.1,0,.2-.2.2h-3.5c-.1,0-.2,0-.2-.2v-2.6c0-.1,0-.2.2-.2h3.5c.1,0,.2,0,.2.2Z" style="fill:#fff; stroke-width:0px;"/><path d="M520.8,210v2.6c0,.1,0,.2-.2.2h-3.5c-.1,0-.2,0-.2-.2v-2.6c0-.1,0-.2.2-.2h3.5c.1,0,.2,0,.2.2Z" style="fill:#fff; stroke-width:0px;"/><path d="M524.3,210v2.6c0,.1,0,.2-.2.2h-3.5c-.1,0-.2,0-.2-.2v-2.6c0-.1,0-.2.2-.2h3.5c.1,0,.2,0,.2.2Z" style="fill:#fff; stroke-width:0px;"/><path d="M527.9,210v2.6c0,.1,0,.2-.2.2h-3.5c-.1,0-.2,0-.2-.2v-2.6c0-.1,0-.2.2-.2h3.5c.1,0,.2,0,.2.2Z" style="fill:#fff; stroke-width:0px;"/><path d="M531.4,210v2.6c0,.1,0,.2-.2.2h-3.5c-.1,0-.2,0-.2-.2v-2.6c0-.1,0-.2.2-.2h3.5c.1,0,.2,0,.2.2Z" style="fill:#fff; stroke-width:0px;"/><path d="M547.1,203.6v5.4c0,2.5-1.3,3.8-3.8,3.8s-2-.3-3-1c-.7.6-1.7,1-2.9,1s-1.8-.3-2.7-1.1c-.7.7-1.8,1.1-3.3,1.1s-.2,0-.2-.2v-2.6c0-.1,0-.2.2-.2,1,0,1.5-.6,1.5-1.9v-2.2s2.8-.3,2.8-.3v3.6c0,.2,0,.4,0,.5.5.2.9.3,1.4.3,1,0,1.5-.6,1.5-1.9v-2.2s2.8-.3,2.8-.3v3.6c0,.2,0,.4,0,.6.5.1.9.2,1.4.2,1,0,1.5-.6,1.5-1.9v-4.1l2.8-.3Z" style="fill:#fff; stroke-width:0px;"/><path d="M50,215.9c-.7,0-1.3-.1-1.8-.4-.6-.2-1.1-.6-1.5-1.2s-.6-1.2-.7-2.1h1.9c0,.4.2.8.4,1s.5.5.8.6.6.2.9.2.7,0,1-.3.5-.4.7-.7.2-.6.2-1,0-.7-.3-1-.5-.5-.8-.6-.8-.2-1.2-.2h-2.1s-.8-.7-.8-.7l.6-4.7h5.9v1.6h-4.2l-.3,2.4h1.5c.8,0,1.4.1,2,.4s1,.6,1.3,1.1.5,1,.5,1.7-.2,1.3-.5,1.8-.8,1-1.4,1.4-1.3.5-2.1.5Z" style="fill:#fff; stroke-width:0px;"/><path d="M55.9,214h1.8l-1.4,3.2h-1.4l.9-3.2Z" style="fill:#fff; stroke-width:0px;"/><path d="M63.5,215.9c-1,0-1.8-.2-2.5-.7s-1.2-1.2-1.5-2-.5-1.8-.5-2.8.2-2,.5-2.8.9-1.5,1.6-2,1.5-.7,2.4-.7,1.9.3,2.6.8,1.2,1.2,1.5,2,.5,1.8.5,2.8-.2,2-.5,2.8-.9,1.5-1.5,2-1.5.7-2.5.7ZM63.5,214.2c.5,0,1-.2,1.4-.5s.7-.8.9-1.3.3-1.2.3-2-.1-1.4-.3-1.9-.5-1-.9-1.3-.9-.5-1.4-.5-1,.2-1.4.5-.7.8-.9,1.3-.3,1.2-.3,2,.1,1.4.3,1.9.5,1,.9,1.3.9.5,1.4.5Z" style="fill:#fff; stroke-width:0px;"/><path d="M73.6,215.9c-1,0-1.8-.2-2.5-.7s-1.2-1.2-1.5-2-.5-1.8-.5-2.8.2-2,.5-2.8.9-1.5,1.6-2,1.5-.7,2.4-.7,1.9.3,2.6.8,1.2,1.2,1.5,2,.5,1.8.5,2.8-.2,2-.5,2.8-.9,1.5-1.5,2-1.5.7-2.5.7ZM73.6,214.2c.5,0,1-.2,1.4-.5s.7-.8.9-1.3.3-1.2.3-2-.1-1.4-.3-1.9-.5-1-.9-1.3-.9-.5-1.4-.5-1,.2-1.4.5-.7.8-.9,1.3-.3,1.2-.3,2,.1,1.4.3,1.9.5,1,.9,1.3.9.5,1.4.5Z" style="fill:#fff; stroke-width:0px;"/><path d="M83.8,215.9c-1,0-1.8-.2-2.5-.7s-1.2-1.2-1.5-2-.5-1.8-.5-2.8.2-2,.5-2.8.9-1.5,1.6-2,1.5-.7,2.4-.7,1.9.3,2.6.8,1.2,1.2,1.5,2,.5,1.8.5,2.8-.2,2-.5,2.8-.9,1.5-1.5,2-1.5.7-2.5.7ZM83.8,214.2c.5,0,1-.2,1.4-.5s.7-.8.9-1.3.3-1.2.3-2-.1-1.4-.3-1.9-.5-1-.9-1.3-.9-.5-1.4-.5-1,.2-1.4.5-.7.8-.9,1.3-.3,1.2-.3,2,.1,1.4.3,1.9.5,1,.9,1.3.9.5,1.4.5Z" style="fill:#fff; stroke-width:0px;"/><path d="M94,205.1h1.9v10.6h-1.9v-10.6Z" style="fill:#fff; stroke-width:0px;"/><path d="M103.5,215.9c-1,0-2-.2-2.9-.7s-1.6-1.2-2.1-2-.8-1.8-.8-2.8.3-1.9.8-2.8,1.2-1.5,2.1-2,1.8-.7,2.9-.7,2,.2,2.9.7,1.6,1.2,2.1,2,.8,1.8.8,2.8-.3,1.9-.8,2.8-1.2,1.5-2.1,2-1.8.7-2.9.7ZM103.5,214.1c.7,0,1.3-.2,1.9-.5s1-.8,1.4-1.3.5-1.2.5-1.9-.2-1.4-.5-1.9-.8-1-1.4-1.4-1.2-.5-1.9-.5-1.3.2-1.9.5-1,.8-1.4,1.4-.5,1.2-.5,1.9.2,1.3.5,1.9.8,1,1.4,1.3,1.2.5,1.9.5ZM105.1,215.2l1.7-.8,1.9,2.7-1.8,1-1.8-2.9Z" style="fill:#fff; stroke-width:0px;"/><path d="M111.2,205.1h4.1c1.1,0,2.1.2,3,.7s1.5,1.1,2,1.9.7,1.7.7,2.8-.2,2-.7,2.8-1.1,1.4-2,1.9-1.8.7-2.9.7h-4.1v-10.6ZM115.2,214c.8,0,1.4-.1,2-.4s1-.7,1.3-1.2.4-1.2.4-1.9-.1-1.4-.4-1.9-.7-1-1.3-1.3-1.2-.4-2-.4h-2.1v7.2h2.1Z" style="fill:#fff; stroke-width:0px;"/><rect x="159.1" y="210.1" width="245.1" height=".8" style="fill:#fff; stroke-width:0px;"/><path d="M450.5,355.2v7.4l-2.8.3v-6.2h-1c-1,0-1.5.6-1.5,1.8v2.7c0,3.5-1.6,5.4-5.6,5.4s-5.5-1.6-5.5-4.9.3-2.6.8-4.3l2.3.6c-.3,1-.5,1.9-.5,2.8,0,1.8,1,2.7,2.9,2.7s2.8-.8,2.8-2.8v-3c0-2.5,1.3-4.1,3.8-4.1h2.8l1.7,1.5ZM441.9,367.4l1.9,1.9-1.9,1.9-1.3-1.3-1.3,1.3-1.9-1.9,1.9-1.9,1.3,1.3,1.3-1.3Z" style="fill:#fff; stroke-width:0px;"/><path d="M451.5,359.7h4.6c1,0,1.5-.6,1.5-1.4v-.6c0-1-.8-1.6-2-1.6h-1.2v-2.9h1.9c2.5,0,4.2,1.5,4.2,4.3v1.4c0,2.5-1.5,3.8-4.4,3.8h-4.1l-.4-3Z" style="fill:#fff; stroke-width:0px;"/><path d="M462.4,358.9v-9.1s2.8-.3,2.8-.3v8.4c0,1.3.5,1.9,1.5,1.9s.2,0,.2.2v2.6c0,.1,0,.2-.2.2-2.9,0-4.4-1.3-4.4-3.9Z" style="fill:#fff; stroke-width:0px;"/><path d="M470.5,359.9v2.6c0,.1,0,.2-.2.2h-3.5c-.1,0-.2,0-.2-.2v-2.6c0-.1,0-.2.2-.2h3.5c.1,0,.2,0,.2.2Z" style="fill:#fff; stroke-width:0px;"/><path d="M480,359l-.6,3c-2.4.5-5,.7-9.1.7s-.2,0-.2-.2v-2.6c0-.1,0-.2.2-.2h1.3c-.4-.9-.6-1.7-.6-2.6,0-2.1,1.7-3.7,4.2-3.7s2.1.3,3.6.8l-.8,2.4c-1.1-.3-1.8-.4-2.4-.4-1.3,0-2.1.7-2.1,1.7s.2,1.1.5,1.7c2-.1,3.8-.3,6-.7Z" style="fill:#fff; stroke-width:0px;"/><path d="M491.3,359.9v2.6c0,.1,0,.2-.2.2-.8,0-1.4-.3-1.9-.7v.3c0,3.2-1.7,4.3-5.2,4.3l-.2-2.3c1.5,0,2.6-.6,2.6-2.2v-8.4s2.8-.3,2.8-.3v4.9c.1.9.9,1.3,1.9,1.3s.2,0,.2.2Z" style="fill:#fff; stroke-width:0px;"/><path d="M494.9,359.9v2.6c0,.1,0,.2-.2.2h-3.5c-.1,0-.2,0-.2-.2v-2.6c0-.1,0-.2.2-.2h3.5c.1,0,.2,0,.2.2Z" style="fill:#fff; stroke-width:0px;"/><path d="M498.4,359.9v2.6c0,.1,0,.2-.2.2h-3.5c-.1,0-.2,0-.2-.2v-2.6c0-.1,0-.2.2-.2h3.5c.1,0,.2,0,.2.2Z" style="fill:#fff; stroke-width:0px;"/><path d="M501.9,359.9v2.6c0,.1,0,.2-.2.2h-3.5c-.1,0-.2,0-.2-.2v-2.6c0-.1,0-.2.2-.2h3.5c.1,0,.2,0,.2.2Z" style="fill:#fff; stroke-width:0px;"/><path d="M513.7,359.9v2.6c0,.1,0,.2-.2.2-1.1,0-2-.4-2.8-1.1-.8.7-1.9,1.1-3.3,1.1h-5.7c-.1,0-.2,0-.2-.2v-2.6c0-.1,0-.2.2-.2h5.7c1,0,1.6-.5,1.6-1.3s-.6-1.3-1.6-1.3h-4.1l-1.5-2.6,5.2-6.4,2.5,1.4-4.8,5h2.5c2.8,0,4.6,1.5,4.6,3.9s0,.6,0,.9c.5.3,1,.4,1.7.4s.2,0,.2.2Z" style="fill:#fff; stroke-width:0px;"/><path d="M517.3,359.9v2.6c0,.1,0,.2-.2.2h-3.5c-.1,0-.2,0-.2-.2v-2.6c0-.1,0-.2.2-.2h3.5c.1,0,.2,0,.2.2Z" style="fill:#fff; stroke-width:0px;"/><path d="M520.8,359.9v2.6c0,.1,0,.2-.2.2h-3.5c-.1,0-.2,0-.2-.2v-2.6c0-.1,0-.2.2-.2h3.5c.1,0,.2,0,.2.2Z" style="fill:#fff; stroke-width:0px;"/><path d="M524.4,359.9v2.6c0,.1,0,.2-.2.2h-3.5c-.1,0-.2,0-.2-.2v-2.6c0-.1,0-.2.2-.2h3.5c.1,0,.2,0,.2.2Z" style="fill:#fff; stroke-width:0px;"/><path d="M527.9,359.9v2.6c0,.1,0,.2-.2.2h-3.5c-.1,0-.2,0-.2-.2v-2.6c0-.1,0-.2.2-.2h3.5c.1,0,.2,0,.2.2Z" style="fill:#fff; stroke-width:0px;"/><path d="M531.4,359.9v2.6c0,.1,0,.2-.2.2h-3.5c-.1,0-.2,0-.2-.2v-2.6c0-.1,0-.2.2-.2h3.5c.1,0,.2,0,.2.2Z" style="fill:#fff; stroke-width:0px;"/><path d="M535,359.9v2.6c0,.1,0,.2-.2.2h-3.5c-.1,0-.2,0-.2-.2v-2.6c0-.1,0-.2.2-.2h3.5c.1,0,.2,0,.2.2Z" style="fill:#fff; stroke-width:0px;"/><path d="M541.3,359.9v2.6c0,.1,0,.2-.2.2-1.1,0-2-.4-2.8-1.2-.7.8-1.9,1.2-3.5,1.2s-.2,0-.2-.2v-2.6c0-.1.1-.2.2-.2,1,0,1.5-.6,1.5-1.9v-2.2s2.8-.3,2.8-.3v3.9c.5.3,1.2.5,1.9.5s.2,0,.2.2ZM537.8,354.3l-1.9-1.9,1.9-1.9,1.9,1.9-1.9,1.9Z" style="fill:#fff; stroke-width:0px;"/><path d="M550.5,357.8c0,3-2,5-5.2,5h-4.2c-.1,0-.2,0-.2-.2v-2.6c0-.1,0-.2.2-.2h1.1c-.3-.7-.5-1.4-.5-2.1,0-2.5,1.9-4.3,4.3-4.3s4.5,1.9,4.5,4.4ZM545.9,352.2l-1.9-1.9,1.9-1.9,1.9,1.9-1.9,1.9ZM547.7,357.7c0-1-.7-1.7-1.7-1.7s-1.8.8-1.8,1.8.2,1.2.5,1.9h.6c1.5,0,2.4-.8,2.4-2Z" style="fill:#fff; stroke-width:0px;"/><path d="M46,364.5l3.5-3.2c.5-.5.9-.9,1.2-1.2s.5-.6.7-.9.2-.6.2-.9,0-.6-.2-.9-.4-.5-.6-.6-.6-.2-.9-.2-.7,0-1,.2-.5.4-.7.8-.3.8-.3,1.3h-1.9c0-.7.1-1.4.4-2s.7-1.1,1.3-1.5,1.3-.6,2.1-.6,1.4.2,2,.5,1,.7,1.3,1.3.5,1.1.5,1.8,0,.9-.2,1.3-.4.8-.7,1.1-.7.7-1.1,1.1l-2.6,2.3.9-.2h4v1.7h-7.8v-1.1Z" style="fill:#fff; stroke-width:0px;"/><path d="M55.8,363.9h1.8l-1.4,3.2h-1.4l.9-3.2Z" style="fill:#fff; stroke-width:0px;"/><path d="M63.3,365.9c-1,0-1.8-.2-2.5-.7s-1.2-1.2-1.5-2-.5-1.8-.5-2.8.2-2,.5-2.8.9-1.5,1.6-2,1.5-.7,2.4-.7,1.9.3,2.6.8,1.2,1.2,1.5,2,.5,1.8.5,2.8-.2,2-.5,2.8-.9,1.5-1.5,2-1.5.7-2.5.7ZM63.3,364.1c.5,0,1-.2,1.4-.5s.7-.8.9-1.3.3-1.2.3-2-.1-1.4-.3-1.9-.5-1-.9-1.3-.9-.5-1.4-.5-1,.2-1.4.5-.7.8-.9,1.3-.3,1.2-.3,2,.1,1.4.3,1.9.5,1,.9,1.3.9.5,1.4.5Z" style="fill:#fff; stroke-width:0px;"/><path d="M73.5,365.9c-1,0-1.8-.2-2.5-.7s-1.2-1.2-1.5-2-.5-1.8-.5-2.8.2-2,.5-2.8.9-1.5,1.6-2,1.5-.7,2.4-.7,1.9.3,2.6.8,1.2,1.2,1.5,2,.5,1.8.5,2.8-.2,2-.5,2.8-.9,1.5-1.5,2-1.5.7-2.5.7ZM73.5,364.1c.5,0,1-.2,1.4-.5s.7-.8.9-1.3.3-1.2.3-2-.1-1.4-.3-1.9-.5-1-.9-1.3-.9-.5-1.4-.5-1,.2-1.4.5-.7.8-.9,1.3-.3,1.2-.3,2,.1,1.4.3,1.9.5,1,.9,1.3.9.5,1.4.5Z" style="fill:#fff; stroke-width:0px;"/><path d="M83.6,365.9c-1,0-1.8-.2-2.5-.7s-1.2-1.2-1.5-2-.5-1.8-.5-2.8.2-2,.5-2.8.9-1.5,1.6-2,1.5-.7,2.4-.7,1.9.3,2.6.8,1.2,1.2,1.5,2,.5,1.8.5,2.8-.2,2-.5,2.8-.9,1.5-1.5,2-1.5.7-2.5.7ZM83.6,364.1c.5,0,1-.2,1.4-.5s.7-.8.9-1.3.3-1.2.3-2-.1-1.4-.3-1.9-.5-1-.9-1.3-.9-.5-1.4-.5-1,.2-1.4.5-.7.8-.9,1.3-.3,1.2-.3,2,.1,1.4.3,1.9.5,1,.9,1.3.9.5,1.4.5Z" style="fill:#fff; stroke-width:0px;"/><path d="M93.9,355h1.9v10.6h-1.9v-10.6Z" style="fill:#fff; stroke-width:0px;"/><path d="M103.3,365.9c-1,0-2-.2-2.9-.7s-1.6-1.2-2.1-2-.8-1.8-.8-2.8.3-1.9.8-2.8,1.2-1.5,2.1-2,1.8-.7,2.9-.7,2,.2,2.9.7,1.6,1.2,2.1,2,.8,1.8.8,2.8-.3,1.9-.8,2.8-1.2,1.5-2.1,2-1.8.7-2.9.7ZM103.3,364.1c.7,0,1.3-.2,1.9-.5s1-.8,1.4-1.3.5-1.2.5-1.9-.2-1.4-.5-1.9-.8-1-1.4-1.4-1.2-.5-1.9-.5-1.3.2-1.9.5-1,.8-1.4,1.4-.5,1.2-.5,1.9.2,1.3.5,1.9.8,1,1.4,1.3,1.2.5,1.9.5ZM105,365.1l1.7-.8,1.9,2.7-1.8,1-1.8-2.9Z" style="fill:#fff; stroke-width:0px;"/><path d="M111,355h4.1c1.1,0,2.1.2,3,.7s1.5,1.1,2,1.9.7,1.7.7,2.8-.2,2-.7,2.8-1.1,1.4-2,1.9-1.8.7-2.9.7h-4.1v-10.6ZM115.1,363.9c.8,0,1.4-.1,2-.4s1-.7,1.3-1.2.4-1.2.4-1.9-.1-1.4-.4-1.9-.7-1-1.3-1.3-1.2-.4-2-.4h-2.1v7.2h2.1Z" style="fill:#fff; stroke-width:0px;"/><rect x="159.1" y="360" width="245.1" height=".8" style="fill:#fff; stroke-width:0px;"/><path d="M451.1,410.8v2.6c0,.1,0,.2-.2.2-.8,0-1.5-.3-2-.8-.3,3-2.2,4.7-5.6,4.7s-5.5-1.6-5.5-4.9.3-2.6.8-4.3l2.3.6c-.3,1-.5,1.9-.5,2.8,0,1.8,1,2.7,2.9,2.7s2.8-1,2.8-3v-6.8l2.8-.3v4.6c0,1.1.8,1.7,1.9,1.7s.2,0,.2.2ZM442.9,406.4l-1.9-1.9,1.9-1.9,1.9,1.9-1.9,1.9Z" style="fill:#fff; stroke-width:0px;"/><path d="M454.6,410.8v2.6c0,.1,0,.2-.2.2h-3.5c-.1,0-.2,0-.2-.2v-2.6c0-.1,0-.2.2-.2h3.5c.1,0,.2,0,.2.2Z" style="fill:#fff; stroke-width:0px;"/><path d="M458.1,410.8v2.6c0,.1,0,.2-.2.2h-3.5c-.1,0-.2,0-.2-.2v-2.6c0-.1,0-.2.2-.2h3.5c.1,0,.2,0,.2.2Z" style="fill:#fff; stroke-width:0px;"/><path d="M461.7,410.8v2.6c0,.1,0,.2-.2.2h-3.5c-.1,0-.2,0-.2-.2v-2.6c0-.1,0-.2.2-.2h3.5c.1,0,.2,0,.2.2Z" style="fill:#fff; stroke-width:0px;"/><path d="M468,410.8v2.6c0,.1,0,.2-.2.2-1.1,0-2-.4-2.8-1.2-.7.8-1.9,1.2-3.5,1.2s-.2,0-.2-.2v-2.6c0-.1.1-.2.2-.2,1,0,1.5-.6,1.5-1.9v-2.2s2.8-.3,2.8-.3v3.9c.5.3,1.2.5,1.9.5s.2,0,.2.2ZM464.6,414.7l1.9,1.9-1.9,1.9-1.9-1.9,1.9-1.9Z" style="fill:#fff; stroke-width:0px;"/><path d="M479.5,410.8v2.6c0,.1,0,.2-.2.2h-.3c-1.4,0-2.4-.7-2.9-1.9-2.8,1.4-5.1,1.9-8.3,1.9s-.2,0-.2-.2v-2.6c0-.1,0-.2.2-.2,3.5,0,5.4-.3,7.5-1.2-2.4-1.7-3.4-2.2-4.6-2.2s-1,.1-1.8.3l-.5-2.5c1-.4,1.8-.6,2.6-.6,1.6,0,3,.7,7.2,3.6l-.5,2.4c.3.1.7.2,1.2.2h.3c.1,0,.2,0,.2.2ZM473.8,414.4l1.9,1.9-1.9,1.9-1.9-1.9,1.9-1.9Z" style="fill:#fff; stroke-width:0px;"/><path d="M479.2,413.5v-2.6c0-.1,0-.2.2-.2,1,0,1.5-.6,1.5-1.9v-8.1s2.9-.3,2.9-.3v9.5c0,2.6-1.5,3.9-4.4,3.9s-.2,0-.2-.2Z" style="fill:#fff; stroke-width:0px;"/><path d="M486.5,409.8v-9.1s2.8-.3,2.8-.3v8.4c0,1.3.5,1.9,1.5,1.9s.2,0,.2.2v2.6c0,.1,0,.2-.2.2-2.9,0-4.4-1.3-4.4-3.9Z" style="fill:#fff; stroke-width:0px;"/><path d="M490.7,413.5v-2.6c0-.1.1-.2.2-.2,1,0,1.5-.6,1.5-1.9v-4s2.8-.3,2.8-.3v5.4c0,2.5-1.4,3.8-4.4,3.8s-.2,0-.2-.2ZM491.2,416.5l1.9-1.9,1.9,1.9-1.9,1.9-1.9-1.9Z" style="fill:#fff; stroke-width:0px;"/><path d="M507.1,410.8v2.6c0,.1,0,.2-.2.2-.8,0-1.4-.3-1.9-.7v.3c0,3.2-1.7,4.3-5.2,4.3l-.2-2.3c1.5,0,2.6-.6,2.6-2.2v-8.4s2.8-.3,2.8-.3v4.9c.1.9.9,1.3,1.9,1.3s.2,0,.2.2Z" style="fill:#fff; stroke-width:0px;"/><path d="M510.7,410.8v2.6c0,.1,0,.2-.2.2h-3.5c-.1,0-.2,0-.2-.2v-2.6c0-.1,0-.2.2-.2h3.5c.1,0,.2,0,.2.2Z" style="fill:#fff; stroke-width:0px;"/><path d="M514.2,410.8v2.6c0,.1,0,.2-.2.2h-3.5c-.1,0-.2,0-.2-.2v-2.6c0-.1,0-.2.2-.2h3.5c.1,0,.2,0,.2.2Z" style="fill:#fff; stroke-width:0px;"/><path d="M517.8,410.8v2.6c0,.1,0,.2-.2.2h-3.5c-.1,0-.2,0-.2-.2v-2.6c0-.1,0-.2.2-.2h3.5c.1,0,.2,0,.2.2Z" style="fill:#fff; stroke-width:0px;"/><path d="M521.3,410.8v2.6c0,.1,0,.2-.2.2h-3.5c-.1,0-.2,0-.2-.2v-2.6c0-.1,0-.2.2-.2h3.5c.1,0,.2,0,.2.2Z" style="fill:#fff; stroke-width:0px;"/><path d="M533.1,410.8v2.6c0,.1,0,.2-.2.2-1.1,0-2-.4-2.8-1.1-.8.7-1.9,1.1-3.3,1.1h-5.7c-.1,0-.2,0-.2-.2v-2.6c0-.1,0-.2.2-.2h5.7c1,0,1.6-.5,1.6-1.3s-.6-1.3-1.6-1.3h-4.1l-1.5-2.6,5.2-6.4,2.5,1.4-4.8,5h2.5c2.8,0,4.6,1.5,4.6,3.9s0,.6,0,.9c.5.3,1,.4,1.7.4s.2,0,.2.2Z" style="fill:#fff; stroke-width:0px;"/><path d="M539.4,410.8v2.6c0,.1,0,.2-.2.2-1.1,0-2-.4-2.8-1.2-.7.8-1.9,1.2-3.5,1.2s-.2,0-.2-.2v-2.6c0-.1.1-.2.2-.2,1,0,1.5-.6,1.5-1.9v-2.2s2.8-.3,2.8-.3v3.9c.5.3,1.2.5,1.9.5s.2,0,.2.2ZM535.9,405.2l-1.9-1.9,1.9-1.9,1.9,1.9-1.9,1.9Z" style="fill:#fff; stroke-width:0px;"/><path d="M548.6,408.7c0,3-2,5-5.2,5h-4.2c-.1,0-.2,0-.2-.2v-2.6c0-.1,0-.2.2-.2h1.1c-.3-.7-.5-1.4-.5-2.1,0-2.5,1.9-4.3,4.3-4.3s4.5,1.9,4.5,4.4ZM544,403.1l-1.9-1.9,1.9-1.9,1.9,1.9-1.9,1.9ZM545.8,408.7c0-1-.7-1.7-1.7-1.7s-1.8.8-1.8,1.8.2,1.2.5,1.9h.6c1.5,0,2.4-.8,2.4-2Z" style="fill:#fff; stroke-width:0px;"/><path d="M49.9,416.8c-.7,0-1.4-.1-2-.4s-1.1-.7-1.4-1.2c-.4-.6-.6-1.3-.6-2.2h1.9c0,.5.1.9.3,1.2s.5.5.8.7.6.2,1,.2.7,0,1-.2.5-.4.7-.7c.2-.3.3-.6.3-1s0-.7-.3-.9-.4-.5-.8-.7c-.3-.2-.7-.2-1.2-.2h-1.4v-1l2.2-2.8h0s-4.1,0-4.1,0v-1.6h6.4v1l-2.5,2.9h0c.7.1,1.3.3,1.8.5s.9.6,1.2,1.1c.3.5.4,1,.4,1.8s-.2,1.3-.5,1.8c-.3.5-.8,1-1.4,1.3s-1.3.5-2,.5Z" style="fill:#fff; stroke-width:0px;"/><path d="M55.7,414.8h1.8l-1.4,3.2h-1.4l.9-3.2Z" style="fill:#fff; stroke-width:0px;"/><path d="M63.3,416.8c-1,0-1.8-.2-2.5-.7s-1.2-1.2-1.5-2c-.3-.8-.5-1.8-.5-2.8s.2-2,.5-2.8c.4-.8.9-1.5,1.6-2,.7-.5,1.5-.7,2.4-.7s1.9.3,2.6.8c.7.5,1.2,1.2,1.5,2,.3.8.5,1.8.5,2.8s-.2,2-.5,2.8c-.3.8-.9,1.5-1.5,2-.7.5-1.5.7-2.5.7ZM63.3,415c.5,0,1-.2,1.4-.5.4-.3.7-.8.9-1.3s.3-1.2.3-2-.1-1.4-.3-1.9-.5-1-.9-1.3c-.4-.3-.9-.5-1.4-.5s-1,.2-1.4.5c-.4.3-.7.8-.9,1.3-.2.6-.3,1.2-.3,2s.1,1.4.3,1.9c.2.6.5,1,.9,1.3.4.3.9.5,1.4.5Z" style="fill:#fff; stroke-width:0px;"/><path d="M73.4,416.8c-1,0-1.8-.2-2.5-.7s-1.2-1.2-1.5-2c-.3-.8-.5-1.8-.5-2.8s.2-2,.5-2.8c.4-.8.9-1.5,1.6-2,.7-.5,1.5-.7,2.4-.7s1.9.3,2.6.8c.7.5,1.2,1.2,1.5,2,.3.8.5,1.8.5,2.8s-.2,2-.5,2.8c-.3.8-.9,1.5-1.5,2-.7.5-1.5.7-2.5.7ZM73.4,415c.5,0,1-.2,1.4-.5.4-.3.7-.8.9-1.3s.3-1.2.3-2-.1-1.4-.3-1.9-.5-1-.9-1.3c-.4-.3-.9-.5-1.4-.5s-1,.2-1.4.5c-.4.3-.7.8-.9,1.3-.2.6-.3,1.2-.3,2s.1,1.4.3,1.9c.2.6.5,1,.9,1.3.4.3.9.5,1.4.5Z" style="fill:#fff; stroke-width:0px;"/><path d="M83.6,416.8c-1,0-1.8-.2-2.5-.7s-1.2-1.2-1.5-2c-.3-.8-.5-1.8-.5-2.8s.2-2,.5-2.8c.4-.8.9-1.5,1.6-2,.7-.5,1.5-.7,2.4-.7s1.9.3,2.6.8c.7.5,1.2,1.2,1.5,2,.3.8.5,1.8.5,2.8s-.2,2-.5,2.8c-.3.8-.9,1.5-1.5,2-.7.5-1.5.7-2.5.7ZM83.6,415c.5,0,1-.2,1.4-.5.4-.3.7-.8.9-1.3s.3-1.2.3-2-.1-1.4-.3-1.9-.5-1-.9-1.3c-.4-.3-.9-.5-1.4-.5s-1,.2-1.4.5c-.4.3-.7.8-.9,1.3-.2.6-.3,1.2-.3,2s.1,1.4.3,1.9c.2.6.5,1,.9,1.3.4.3.9.5,1.4.5Z" style="fill:#fff; stroke-width:0px;"/><path d="M93.8,405.9h1.9v10.6h-1.9v-10.6Z" style="fill:#fff; stroke-width:0px;"/><path d="M103.3,416.8c-1,0-2-.2-2.9-.7-.9-.5-1.6-1.2-2.1-2s-.8-1.8-.8-2.8.3-1.9.8-2.8c.5-.8,1.2-1.5,2.1-2,.9-.5,1.8-.7,2.9-.7s2,.2,2.9.7c.9.5,1.6,1.2,2.1,2,.5.8.8,1.8.8,2.8s-.3,1.9-.8,2.8-1.2,1.5-2.1,2c-.9.5-1.8.7-2.9.7ZM103.3,415c.7,0,1.3-.2,1.9-.5.6-.3,1-.8,1.4-1.3.3-.6.5-1.2.5-1.9s-.2-1.3-.5-1.9c-.3-.6-.8-1-1.4-1.4s-1.2-.5-1.9-.5-1.3.2-1.9.5-1,.8-1.4,1.4c-.3.6-.5,1.2-.5,1.9s.2,1.3.5,1.9.8,1,1.4,1.3,1.2.5,1.9.5ZM104.9,416l1.7-.8,1.9,2.7-1.8,1-1.8-2.9Z" style="fill:#fff; stroke-width:0px;"/><path d="M111,405.9h4.1c1.1,0,2.1.2,3,.7.9.4,1.5,1.1,2,1.9.5.8.7,1.7.7,2.8s-.2,2-.7,2.8-1.1,1.4-2,1.9c-.9.4-1.8.7-2.9.7h-4.1v-10.6ZM115,414.8c.8,0,1.4-.1,2-.4.6-.3,1-.7,1.3-1.2.3-.5.4-1.2.4-1.9s-.1-1.4-.4-1.9c-.3-.5-.7-1-1.3-1.3-.6-.3-1.2-.4-2-.4h-2.1v7.2h2.1Z" style="fill:#fff; stroke-width:0px;"/><rect x="159.1" y="410.9" width="245.1" height=".8" style="fill:#fff; stroke-width:0px;"/><path d="M417.5,459.7v2.6c0,.1,0,.2-.2.2-.8,0-1.4-.3-1.9-.7v.3c0,3.2-1.7,4.3-5.2,4.3l-.2-2.3c1.5,0,2.6-.6,2.6-2.2v-8.4s2.8-.3,2.8-.3v4.9c.1.9.9,1.3,1.9,1.3s.2,0,.2.2Z" style="fill:#fff; stroke-width:0px;"/><path d="M429.3,459.7v2.6c0,.1,0,.2-.2.2-1.1,0-2-.4-2.8-1.1-.8.7-1.9,1.1-3.3,1.1h-5.7c-.1,0-.2,0-.2-.2v-2.6c0-.1,0-.2.2-.2h5.7c1,0,1.6-.5,1.6-1.3s-.6-1.3-1.6-1.3h-4.1l-1.5-2.6,5.2-6.4,2.5,1.4-4.8,5h2.5c2.8,0,4.6,1.5,4.6,3.9s0,.6,0,.9c.5.3,1,.4,1.7.4s.2,0,.2.2Z" style="fill:#fff; stroke-width:0px;"/><path d="M435.6,459.7v2.6c0,.1,0,.2-.2.2-1.1,0-2-.4-2.8-1.2-.7.8-1.9,1.2-3.5,1.2s-.2,0-.2-.2v-2.6c0-.1.1-.2.2-.2,1,0,1.5-.6,1.5-1.9v-2.2s2.8-.3,2.8-.3v3.9c.5.3,1.2.5,1.9.5s.2,0,.2.2ZM432.1,454.1l-1.9-1.9,1.9-1.9,1.9,1.9-1.9,1.9Z" style="fill:#fff; stroke-width:0px;"/><path d="M444.8,457.6c0,3-2,5-5.2,5h-4.2c-.1,0-.2,0-.2-.2v-2.6c0-.1,0-.2.2-.2h1.1c-.3-.7-.5-1.4-.5-2.1,0-2.5,1.9-4.3,4.3-4.3s4.5,1.9,4.5,4.4ZM440.2,452l-1.9-1.9,1.9-1.9,1.9,1.9-1.9,1.9ZM442,457.6c0-1-.7-1.7-1.7-1.7s-1.8.8-1.8,1.8.2,1.2.5,1.9h.6c1.5,0,2.4-.8,2.4-2Z" style="fill:#fff; stroke-width:0px;"/><path d="M456.5,459.7v2.6c0,.1,0,.2-.2.2-.8,0-1.4-.3-1.9-.7v.3c0,3.2-1.7,4.3-5.2,4.3l-.2-2.3c1.5,0,2.6-.6,2.6-2.2v-8.4s2.8-.3,2.8-.3v4.9c.1.9.9,1.3,1.9,1.3s.2,0,.2.2ZM453,452.5l-1.9-1.9,1.9-1.9,1.9,1.9-1.9,1.9Z" style="fill:#fff; stroke-width:0px;"/><path d="M463.5,459.7v2.6c0,.1,0,.2-.2.2-1,0-2-.5-2.9-1.4-.8.9-2.3,1.4-4.2,1.4s-.2,0-.2-.2v-2.6c0-.1.1-.2.2-.2,1.4,0,2.2-.5,2.2-1.9v-2.2s2.8-.3,2.8-.3v3.8c.6.4,1.3.6,2,.6s.2,0,.2.2ZM461.1,463.5l1.9,1.9-1.9,1.9-1.3-1.3-1.3,1.3-1.9-1.9,1.9-1.9,1.3,1.3,1.3-1.3Z" style="fill:#fff; stroke-width:0px;"/><path d="M480.9,459.7v2.6c0,.1,0,.2-.2.2-1,0-1.8-.3-2.6-.9-.6.6-1.6.9-2.8.9s-2-.3-3-1c-.7.6-1.7,1-2.9,1s-1.8-.3-2.7-1.1c-.7.7-1.8,1.1-3.3,1.1s-.2,0-.2-.2v-2.6c0-.1,0-.2.2-.2,1,0,1.5-.6,1.5-1.9v-2.2s2.8-.3,2.8-.3v3.6c0,.2,0,.4,0,.5.5.2.9.3,1.4.3,1,0,1.5-.6,1.5-1.9v-2.2s2.8-.3,2.8-.3v3.6c0,.2,0,.4,0,.6.5.1.9.2,1.4.2,1,0,1.5-.6,1.5-1.9v-4.1l2.8-.3v5.4c0,.2,0,.3,0,.5.4.2,1,.3,1.6.3s.2,0,.2.2ZM470.5,453.4l-1.9-1.9,1.9-1.9,1.4,1.4,1.4-1.4,1.9,1.9-1.9,1.9-1.5-1.4-1.4,1.4ZM472,450.1l-1.2-1.2,1.2-1.2,1.2,1.2-1.2,1.2Z" style="fill:#fff; stroke-width:0px;"/><path d="M483.8,453.7l2.8-.3v5.4c0,2.5-1.4,3.8-4.4,3.8h-1.5c-.1,0-.2,0-.2-.2v-2.6c0-.1.1-.2.2-.2h1.5c1,0,1.5-.6,1.5-1.9v-4ZM483.7,452.3l-1.9-1.9,1.9-1.9,1.4,1.4,1.4-1.4,1.9,1.9-1.9,1.9-1.4-1.4-1.4,1.4Z" style="fill:#fff; stroke-width:0px;"/><path d="M511,459.7v2.6c0,.1,0,.2-.2.2h-4.9v-6h-1c-1,0-1.5.6-1.5,1.8v2.7c0,3.5-1.6,5.4-5.6,5.4s-5.5-1.6-5.5-4.9.3-2.6.8-4.3l2.3.6c-.3,1-.5,1.9-.5,2.8,0,1.8,1,2.7,2.9,2.7s2.8-.8,2.8-2.8v-3c0-2.5,1.3-4.1,3.8-4.1h2.8l1.7,1.5v4.5h2c.1,0,.2,0,.2.2ZM500.6,467.2l1.9,1.9-1.9,1.9-1.3-1.3-1.3,1.3-1.9-1.9,1.9-1.9,1.3,1.3,1.3-1.3Z" style="fill:#fff; stroke-width:0px;"/><path d="M517,462.4c0,.1,0,.2-.2.2-1.6,0-2.8-.4-3.5-1.2-.8.8-1.6,1.2-2.5,1.2s-.2,0-.2-.2v-2.6c0-.1,0-.2.2-.2.7,0,1.2-.2,1.6-.5,0-.1,0-.3,0-.4v-9.1s2.8-.3,2.8-.3v8.4c0,1.3.5,1.9,1.5,1.9s.2,0,.2.2v2.6Z" style="fill:#fff; stroke-width:0px;"/><path d="M524.1,459.7v2.6c0,.1,0,.2-.2.2-1,0-2-.5-2.9-1.4-.8.9-2.3,1.4-4.2,1.4s-.2,0-.2-.2v-2.6c0-.1.1-.2.2-.2,1.4,0,2.2-.5,2.2-1.9v-2.2s2.8-.3,2.8-.3v3.8c.6.4,1.3.6,2,.6s.2,0,.2.2ZM521.7,463.5l1.9,1.9-1.9,1.9-1.3-1.3-1.3,1.3-1.9-1.9,1.9-1.9,1.3,1.3,1.3-1.3Z" style="fill:#fff; stroke-width:0px;"/><path d="M541.4,459.7v2.6c0,.1,0,.2-.2.2-1,0-1.8-.3-2.6-.9-.6.6-1.6.9-2.8.9s-2-.3-3-1c-.7.6-1.7,1-2.9,1s-1.8-.3-2.7-1.1c-.7.7-1.8,1.1-3.3,1.1s-.2,0-.2-.2v-2.6c0-.1,0-.2.2-.2,1,0,1.5-.6,1.5-1.9v-2.2s2.8-.3,2.8-.3v3.6c0,.2,0,.4,0,.5.5.2.9.3,1.4.3,1,0,1.5-.6,1.5-1.9v-2.2s2.8-.3,2.8-.3v3.6c0,.2,0,.4,0,.6.5.1.9.2,1.4.2,1,0,1.5-.6,1.5-1.9v-4.1l2.8-.3v5.4c0,.2,0,.3,0,.5.4.2,1,.3,1.6.3s.2,0,.2.2ZM531.1,453.4l-1.9-1.9,1.9-1.9,1.4,1.4,1.4-1.4,1.9,1.9-1.9,1.9-1.5-1.4-1.4,1.4ZM532.5,450.1l-1.2-1.2,1.2-1.2,1.2,1.2-1.2,1.2Z" style="fill:#fff; stroke-width:0px;"/><path d="M544.3,453.7l2.8-.3v5.4c0,2.5-1.4,3.8-4.4,3.8h-1.5c-.1,0-.2,0-.2-.2v-2.6c0-.1.1-.2.2-.2h1.5c1,0,1.5-.6,1.5-1.9v-4ZM544.3,452.3l-1.9-1.9,1.9-1.9,1.4,1.4,1.4-1.4,1.9,1.9-1.9,1.9-1.4-1.4-1.4,1.4Z" style="fill:#fff; stroke-width:0px;"/><path d="M50.7,463.2h-5.3v-1.4c-.1,0,5.1-7,5.1-7h2.2v6.8h1.7v1.6h-1.7v2.3h-1.9v-2.3ZM50.7,461.6v-4.4l-3.3,4.4h3.3Z" style="fill:#fff; stroke-width:0px;"/><path d="M56.1,463.7h1.8l-1.4,3.2h-1.4l.9-3.2Z" style="fill:#fff; stroke-width:0px;"/><path d="M63.6,465.7c-1,0-1.8-.2-2.5-.7s-1.2-1.2-1.5-2c-.3-.8-.5-1.8-.5-2.8s.2-2,.5-2.8c.4-.8.9-1.5,1.6-2,.7-.5,1.5-.7,2.4-.7s1.9.3,2.6.8c.7.5,1.2,1.2,1.5,2,.3.8.5,1.8.5,2.8s-.2,2-.5,2.8c-.3.8-.9,1.5-1.5,2-.7.5-1.5.7-2.5.7ZM63.6,463.9c.5,0,1-.2,1.4-.5.4-.3.7-.8.9-1.3s.3-1.2.3-2-.1-1.4-.3-1.9-.5-1-.9-1.3c-.4-.3-.9-.5-1.4-.5s-1,.2-1.4.5c-.4.3-.7.8-.9,1.3-.2.6-.3,1.2-.3,2s.1,1.4.3,1.9c.2.6.5,1,.9,1.3.4.3.9.5,1.4.5Z" style="fill:#fff; stroke-width:0px;"/><path d="M73.8,465.7c-1,0-1.8-.2-2.5-.7s-1.2-1.2-1.5-2c-.3-.8-.5-1.8-.5-2.8s.2-2,.5-2.8c.4-.8.9-1.5,1.6-2,.7-.5,1.5-.7,2.4-.7s1.9.3,2.6.8c.7.5,1.2,1.2,1.5,2,.3.8.5,1.8.5,2.8s-.2,2-.5,2.8c-.3.8-.9,1.5-1.5,2-.7.5-1.5.7-2.5.7ZM73.8,463.9c.5,0,1-.2,1.4-.5.4-.3.7-.8.9-1.3s.3-1.2.3-2-.1-1.4-.3-1.9-.5-1-.9-1.3c-.4-.3-.9-.5-1.4-.5s-1,.2-1.4.5c-.4.3-.7.8-.9,1.3-.2.6-.3,1.2-.3,2s.1,1.4.3,1.9c.2.6.5,1,.9,1.3.4.3.9.5,1.4.5Z" style="fill:#fff; stroke-width:0px;"/><path d="M83.9,465.7c-1,0-1.8-.2-2.5-.7s-1.2-1.2-1.5-2c-.3-.8-.5-1.8-.5-2.8s.2-2,.5-2.8c.4-.8.9-1.5,1.6-2,.7-.5,1.5-.7,2.4-.7s1.9.3,2.6.8c.7.5,1.2,1.2,1.5,2,.3.8.5,1.8.5,2.8s-.2,2-.5,2.8c-.3.8-.9,1.5-1.5,2-.7.5-1.5.7-2.5.7ZM83.9,463.9c.5,0,1-.2,1.4-.5.4-.3.7-.8.9-1.3s.3-1.2.3-2-.1-1.4-.3-1.9-.5-1-.9-1.3c-.4-.3-.9-.5-1.4-.5s-1,.2-1.4.5c-.4.3-.7.8-.9,1.3-.2.6-.3,1.2-.3,2s.1,1.4.3,1.9c.2.6.5,1,.9,1.3.4.3.9.5,1.4.5Z" style="fill:#fff; stroke-width:0px;"/><path d="M94.2,454.8h1.9v10.6h-1.9v-10.6Z" style="fill:#fff; stroke-width:0px;"/><path d="M103.6,465.7c-1,0-2-.2-2.9-.7-.9-.5-1.6-1.2-2.1-2s-.8-1.8-.8-2.8.3-1.9.8-2.8c.5-.8,1.2-1.5,2.1-2,.9-.5,1.8-.7,2.9-.7s2,.2,2.9.7c.9.5,1.6,1.2,2.1,2,.5.8.8,1.8.8,2.8s-.3,1.9-.8,2.8-1.2,1.5-2.1,2c-.9.5-1.8.7-2.9.7ZM103.6,463.9c.7,0,1.3-.2,1.9-.5.6-.3,1-.8,1.4-1.3.3-.6.5-1.2.5-1.9s-.2-1.3-.5-1.9c-.3-.6-.8-1-1.4-1.4s-1.2-.5-1.9-.5-1.3.2-1.9.5-1,.8-1.4,1.4c-.3.6-.5,1.2-.5,1.9s.2,1.3.5,1.9.8,1,1.4,1.3,1.2.5,1.9.5ZM105.3,464.9l1.7-.8,1.9,2.7-1.8,1-1.8-2.9Z" style="fill:#fff; stroke-width:0px;"/><path d="M111.3,454.8h4.1c1.1,0,2.1.2,3,.7.9.4,1.5,1.1,2,1.9.5.8.7,1.7.7,2.8s-.2,2-.7,2.8-1.1,1.4-2,1.9c-.9.4-1.8.7-2.9.7h-4.1v-10.6ZM115.4,463.7c.8,0,1.4-.1,2-.4.6-.3,1-.7,1.3-1.2.3-.5.4-1.2.4-1.9s-.1-1.4-.4-1.9c-.3-.5-.7-1-1.3-1.3-.6-.3-1.2-.4-2-.4h-2.1v7.2h2.1Z" style="fill:#fff; stroke-width:0px;"/><rect x="159.1" y="459.8" width="216.3" height=".8" style="fill:#fff; stroke-width:0px;"/><path d="M458.3,605.1c0,.8-.2,1.9-.5,3.1l-2.1,2.4h-8.7c-.5,2.5-2.4,3.9-5.4,3.9s-5.5-1.6-5.5-4.9.3-2.6.8-4.3l2.3.6c-.3,1-.5,1.9-.5,2.8,0,1.8,1,2.7,2.9,2.7s2.8-1,2.8-3v-6.8l2.8-.3v1.6c3.4-1.6,5.1-2.1,6.9-2.1s4.2,1.7,4.2,4.3ZM455.4,605.4c0-1-.8-1.6-2-1.6s-2.3.3-6.2,1.5v2.3h7.8c.2-.9.4-1.6.4-2.2Z" style="fill:#fff; stroke-width:0px;"/><path d="M469.4,607.8v2.6c0,.1,0,.2-.2.2h-.9c-.3,2.8-3.2,3.9-7.5,3.9l-.3-2.3c3.1,0,4.6-.4,4.9-1.6h-1.5c-2.6,0-4.3-1.8-4.3-4.5s2-4.7,4.5-4.7,4.3,1.7,4.3,4.6v1.7h.9c.1,0,.2,0,.2.2ZM464.1,607.8c.4,0,.9,0,1.4,0v-1.6c0-1.2-.7-1.9-1.7-1.9s-1.7.7-1.7,1.7.9,1.8,2,1.8Z" style="fill:#fff; stroke-width:0px;"/><path d="M472.9,607.8v2.6c0,.1,0,.2-.2.2h-3.5c-.1,0-.2,0-.2-.2v-2.6c0-.1,0-.2.2-.2h3.5c.1,0,.2,0,.2.2Z" style="fill:#fff; stroke-width:0px;"/><path d="M476.4,607.8v2.6c0,.1,0,.2-.2.2h-3.5c-.1,0-.2,0-.2-.2v-2.6c0-.1,0-.2.2-.2h3.5c.1,0,.2,0,.2.2Z" style="fill:#fff; stroke-width:0px;"/><path d="M480,607.8v2.6c0,.1,0,.2-.2.2h-3.5c-.1,0-.2,0-.2-.2v-2.6c0-.1,0-.2.2-.2h3.5c.1,0,.2,0,.2.2Z" style="fill:#fff; stroke-width:0px;"/><path d="M483.5,607.8v2.6c0,.1,0,.2-.2.2h-3.5c-.1,0-.2,0-.2-.2v-2.6c0-.1,0-.2.2-.2h3.5c.1,0,.2,0,.2.2Z" style="fill:#fff; stroke-width:0px;"/><path d="M487.1,607.8v2.6c0,.1,0,.2-.2.2h-3.5c-.1,0-.2,0-.2-.2v-2.6c0-.1,0-.2.2-.2h3.5c.1,0,.2,0,.2.2Z" style="fill:#fff; stroke-width:0px;"/><path d="M490.6,607.8v2.6c0,.1,0,.2-.2.2h-3.5c-.1,0-.2,0-.2-.2v-2.6c0-.1,0-.2.2-.2h3.5c.1,0,.2,0,.2.2Z" style="fill:#fff; stroke-width:0px;"/><path d="M494.2,607.8v2.6c0,.1,0,.2-.2.2h-3.5c-.1,0-.2,0-.2-.2v-2.6c0-.1,0-.2.2-.2h3.5c.1,0,.2,0,.2.2Z" style="fill:#fff; stroke-width:0px;"/><path d="M497.7,607.8v2.6c0,.1,0,.2-.2.2h-3.5c-.1,0-.2,0-.2-.2v-2.6c0-.1,0-.2.2-.2h3.5c.1,0,.2,0,.2.2Z" style="fill:#fff; stroke-width:0px;"/><path d="M501.2,607.8v2.6c0,.1,0,.2-.2.2h-3.5c-.1,0-.2,0-.2-.2v-2.6c0-.1,0-.2.2-.2h3.5c.1,0,.2,0,.2.2Z" style="fill:#fff; stroke-width:0px;"/><path d="M504.8,607.8v2.6c0,.1,0,.2-.2.2h-3.5c-.1,0-.2,0-.2-.2v-2.6c0-.1,0-.2.2-.2h3.5c.1,0,.2,0,.2.2Z" style="fill:#fff; stroke-width:0px;"/><path d="M508.3,607.8v2.6c0,.1,0,.2-.2.2h-3.5c-.1,0-.2,0-.2-.2v-2.6c0-.1,0-.2.2-.2h3.5c.1,0,.2,0,.2.2Z" style="fill:#fff; stroke-width:0px;"/><path d="M511.9,607.8v2.6c0,.1,0,.2-.2.2h-3.5c-.1,0-.2,0-.2-.2v-2.6c0-.1,0-.2.2-.2h3.5c.1,0,.2,0,.2.2Z" style="fill:#fff; stroke-width:0px;"/><path d="M515.4,607.8v2.6c0,.1,0,.2-.2.2h-3.5c-.1,0-.2,0-.2-.2v-2.6c0-.1,0-.2.2-.2h3.5c.1,0,.2,0,.2.2Z" style="fill:#fff; stroke-width:0px;"/><path d="M519,607.8v2.6c0,.1,0,.2-.2.2h-3.5c-.1,0-.2,0-.2-.2v-2.6c0-.1,0-.2.2-.2h3.5c.1,0,.2,0,.2.2Z" style="fill:#fff; stroke-width:0px;"/><path d="M522.5,607.8v2.6c0,.1,0,.2-.2.2h-3.5c-.1,0-.2,0-.2-.2v-2.6c0-.1,0-.2.2-.2h3.5c.1,0,.2,0,.2.2Z" style="fill:#fff; stroke-width:0px;"/><path d="M526.1,607.8v2.6c0,.1,0,.2-.2.2h-3.5c-.1,0-.2,0-.2-.2v-2.6c0-.1,0-.2.2-.2h3.5c.1,0,.2,0,.2.2Z" style="fill:#fff; stroke-width:0px;"/><path d="M529.6,607.8v2.6c0,.1,0,.2-.2.2h-3.5c-.1,0-.2,0-.2-.2v-2.6c0-.1,0-.2.2-.2h3.5c.1,0,.2,0,.2.2Z" style="fill:#fff; stroke-width:0px;"/><path d="M533.1,607.8v2.6c0,.1,0,.2-.2.2h-3.5c-.1,0-.2,0-.2-.2v-2.6c0-.1,0-.2.2-.2h3.5c.1,0,.2,0,.2.2Z" style="fill:#fff; stroke-width:0px;"/><path d="M548.3,605.1c0,.8-.2,1.9-.5,3.1l-2.1,2.4h-12.8c-.1,0-.2,0-.2-.2v-2.6c0-.1.1-.2.2-.2h1.4v-5.9s2.8-.3,2.8-.3v1.6c3.4-1.6,5.1-2.2,6.9-2.2s4.2,1.7,4.2,4.3ZM545.5,605.4c0-1-.8-1.6-2-1.6s-2.3.3-6.3,1.5v2.3h7.9c.2-.9.4-1.6.4-2.2Z" style="fill:#fff; stroke-width:0px;"/><path d="M49,613.7c-.7,0-1.3-.1-1.8-.4-.6-.2-1.1-.6-1.5-1.2s-.6-1.2-.7-2.1h1.9c0,.4.2.8.4,1s.5.5.8.6.6.2.9.2.7,0,1-.3.5-.4.7-.7c.2-.3.2-.6.2-1s0-.7-.3-1c-.2-.3-.5-.5-.8-.6-.3-.1-.8-.2-1.2-.2h-2.1s-.8-.7-.8-.7l.6-4.7h5.9v1.6h-4.2l-.3,2.4h1.5c.8,0,1.4.1,2,.4.6.3,1,.6,1.3,1.1.3.5.5,1,.5,1.7s-.2,1.3-.5,1.8c-.3.6-.8,1-1.4,1.4s-1.3.5-2.1.5Z" style="fill:#fff; stroke-width:0px;"/><path d="M55,611.7h1.8l-1.4,3.2h-1.4l.9-3.2Z" style="fill:#fff; stroke-width:0px;"/><path d="M62.6,613.7c-1,0-1.8-.2-2.5-.7s-1.2-1.2-1.5-2c-.3-.8-.5-1.8-.5-2.8s.2-2,.5-2.8c.4-.8.9-1.5,1.6-2,.7-.5,1.5-.7,2.4-.7s1.9.3,2.6.8c.7.5,1.2,1.2,1.5,2,.3.8.5,1.8.5,2.8s-.2,2-.5,2.8c-.3.8-.9,1.5-1.5,2-.7.5-1.5.7-2.5.7ZM62.6,611.9c.5,0,1-.2,1.4-.5.4-.3.7-.8.9-1.3s.3-1.2.3-2-.1-1.4-.3-1.9-.5-1-.9-1.3c-.4-.3-.9-.5-1.4-.5s-1,.2-1.4.5c-.4.3-.7.8-.9,1.3-.2.6-.3,1.2-.3,2s.1,1.4.3,1.9c.2.6.5,1,.9,1.3.4.3.9.5,1.4.5Z" style="fill:#fff; stroke-width:0px;"/><path d="M72.7,613.7c-1,0-1.8-.2-2.5-.7s-1.2-1.2-1.5-2c-.3-.8-.5-1.8-.5-2.8s.2-2,.5-2.8c.4-.8.9-1.5,1.6-2,.7-.5,1.5-.7,2.4-.7s1.9.3,2.6.8c.7.5,1.2,1.2,1.5,2,.3.8.5,1.8.5,2.8s-.2,2-.5,2.8c-.3.8-.9,1.5-1.5,2-.7.5-1.5.7-2.5.7ZM72.7,611.9c.5,0,1-.2,1.4-.5.4-.3.7-.8.9-1.3s.3-1.2.3-2-.1-1.4-.3-1.9-.5-1-.9-1.3c-.4-.3-.9-.5-1.4-.5s-1,.2-1.4.5c-.4.3-.7.8-.9,1.3-.2.6-.3,1.2-.3,2s.1,1.4.3,1.9c.2.6.5,1,.9,1.3.4.3.9.5,1.4.5Z" style="fill:#fff; stroke-width:0px;"/><path d="M83,602.9h1.9v10.6h-1.9v-10.6Z" style="fill:#fff; stroke-width:0px;"/><path d="M92.4,613.7c-1,0-2-.2-2.9-.7-.9-.5-1.6-1.2-2.1-2s-.8-1.8-.8-2.8.3-1.9.8-2.8c.5-.8,1.2-1.5,2.1-2,.9-.5,1.8-.7,2.9-.7s2,.2,2.9.7c.9.5,1.6,1.2,2.1,2,.5.8.8,1.8.8,2.8s-.3,1.9-.8,2.8-1.2,1.5-2.1,2c-.9.5-1.8.7-2.9.7ZM92.4,611.9c.7,0,1.3-.2,1.9-.5.6-.3,1-.8,1.4-1.3.3-.6.5-1.2.5-1.9s-.2-1.3-.5-1.9c-.3-.6-.8-1-1.4-1.4s-1.2-.5-1.9-.5-1.3.2-1.9.5-1,.8-1.4,1.4c-.3.6-.5,1.2-.5,1.9s.2,1.3.5,1.9.8,1,1.4,1.3,1.2.5,1.9.5ZM94.1,612.9l1.7-.8,1.9,2.7-1.8,1-1.8-2.9Z" style="fill:#fff; stroke-width:0px;"/><path d="M100.1,602.9h4.1c1.1,0,2.1.2,3,.7.9.4,1.5,1.1,2,1.9.5.8.7,1.7.7,2.8s-.2,2-.7,2.8-1.1,1.4-2,1.9c-.9.4-1.8.7-2.9.7h-4.1v-10.6ZM104.1,611.8c.8,0,1.4-.1,2-.4.6-.3,1-.7,1.3-1.2.3-.5.4-1.2.4-1.9s-.1-1.4-.4-1.9c-.3-.5-.7-1-1.3-1.3-.6-.3-1.2-.4-2-.4h-2.1v7.2h2.1Z" style="fill:#fff; stroke-width:0px;"/><rect x="159.1" y="607.9" width="245.1" height=".8" style="fill:#fff; stroke-width:0px;"/><path d="M456.1,658.7v2.6c0,.1,0,.2-.2.2h-4.9v-6h-1c-1,0-1.5.6-1.5,1.8v2.7c0,3.5-1.6,5.4-5.6,5.4s-5.5-1.6-5.5-4.9.3-2.6.8-4.3l2.3.6c-.3,1-.5,1.9-.5,2.8,0,1.8,1,2.7,2.9,2.7s2.8-.8,2.8-2.8v-3c0-2.5,1.3-4.1,3.8-4.1h2.8l1.7,1.5v4.5h2c.1,0,.2,0,.2.2ZM445.7,666.2l1.9,1.9-1.9,1.9-1.3-1.3-1.3,1.3-1.9-1.9,1.9-1.9,1.3,1.3,1.3-1.3Z" style="fill:#fff; stroke-width:0px;"/><path d="M459.6,658.7v2.6c0,.1,0,.2-.2.2h-3.5c-.1,0-.2,0-.2-.2v-2.6c0-.1,0-.2.2-.2h3.5c.1,0,.2,0,.2.2Z" style="fill:#fff; stroke-width:0px;"/><path d="M463.2,658.7v2.6c0,.1,0,.2-.2.2h-3.5c-.1,0-.2,0-.2-.2v-2.6c0-.1,0-.2.2-.2h3.5c.1,0,.2,0,.2.2Z" style="fill:#fff; stroke-width:0px;"/><path d="M466.7,658.7v2.6c0,.1,0,.2-.2.2h-3.5c-.1,0-.2,0-.2-.2v-2.6c0-.1,0-.2.2-.2h3.5c.1,0,.2,0,.2.2Z" style="fill:#fff; stroke-width:0px;"/><path d="M470.3,658.7v2.6c0,.1,0,.2-.2.2h-3.5c-.1,0-.2,0-.2-.2v-2.6c0-.1,0-.2.2-.2h3.5c.1,0,.2,0,.2.2Z" style="fill:#fff; stroke-width:0px;"/><path d="M473.8,658.7v2.6c0,.1,0,.2-.2.2h-3.5c-.1,0-.2,0-.2-.2v-2.6c0-.1,0-.2.2-.2h3.5c.1,0,.2,0,.2.2Z" style="fill:#fff; stroke-width:0px;"/><path d="M477.4,658.7v2.6c0,.1,0,.2-.2.2h-3.5c-.1,0-.2,0-.2-.2v-2.6c0-.1,0-.2.2-.2h3.5c.1,0,.2,0,.2.2Z" style="fill:#fff; stroke-width:0px;"/><path d="M480.9,658.7v2.6c0,.1,0,.2-.2.2h-3.5c-.1,0-.2,0-.2-.2v-2.6c0-.1,0-.2.2-.2h3.5c.1,0,.2,0,.2.2Z" style="fill:#fff; stroke-width:0px;"/><path d="M484.4,658.7v2.6c0,.1,0,.2-.2.2h-3.5c-.1,0-.2,0-.2-.2v-2.6c0-.1,0-.2.2-.2h3.5c.1,0,.2,0,.2.2Z" style="fill:#fff; stroke-width:0px;"/><path d="M488,658.7v2.6c0,.1,0,.2-.2.2h-3.5c-.1,0-.2,0-.2-.2v-2.6c0-.1,0-.2.2-.2h3.5c.1,0,.2,0,.2.2Z" style="fill:#fff; stroke-width:0px;"/><path d="M491.5,658.7v2.6c0,.1,0,.2-.2.2h-3.5c-.1,0-.2,0-.2-.2v-2.6c0-.1,0-.2.2-.2h3.5c.1,0,.2,0,.2.2Z" style="fill:#fff; stroke-width:0px;"/><path d="M495.1,658.7v2.6c0,.1,0,.2-.2.2h-3.5c-.1,0-.2,0-.2-.2v-2.6c0-.1,0-.2.2-.2h3.5c.1,0,.2,0,.2.2Z" style="fill:#fff; stroke-width:0px;"/><path d="M498.6,658.7v2.6c0,.1,0,.2-.2.2h-3.5c-.1,0-.2,0-.2-.2v-2.6c0-.1,0-.2.2-.2h3.5c.1,0,.2,0,.2.2Z" style="fill:#fff; stroke-width:0px;"/><path d="M502.2,658.7v2.6c0,.1,0,.2-.2.2h-3.5c-.1,0-.2,0-.2-.2v-2.6c0-.1,0-.2.2-.2h3.5c.1,0,.2,0,.2.2Z" style="fill:#fff; stroke-width:0px;"/><path d="M505.7,658.7v2.6c0,.1,0,.2-.2.2h-3.5c-.1,0-.2,0-.2-.2v-2.6c0-.1,0-.2.2-.2h3.5c.1,0,.2,0,.2.2Z" style="fill:#fff; stroke-width:0px;"/><path d="M509.2,658.7v2.6c0,.1,0,.2-.2.2h-3.5c-.1,0-.2,0-.2-.2v-2.6c0-.1,0-.2.2-.2h3.5c.1,0,.2,0,.2.2Z" style="fill:#fff; stroke-width:0px;"/><path d="M515.5,658.7v2.6c0,.1,0,.2-.2.2-1.1,0-2-.4-2.8-1.2-.7.8-1.9,1.2-3.5,1.2s-.2,0-.2-.2v-2.6c0-.1.1-.2.2-.2,1,0,1.5-.6,1.5-1.9v-2.2s2.8-.3,2.8-.3v3.9c.5.3,1.2.5,1.9.5s.2,0,.2.2ZM512.2,662.5l1.9,1.9-1.9,1.9-1.9-1.9,1.9-1.9Z" style="fill:#fff; stroke-width:0px;"/><path d="M531.2,652.3v5.4c0,2.5-1.3,3.8-3.8,3.8s-2-.3-3-1c-.7.6-1.7,1-2.9,1s-1.8-.3-2.7-1.1c-.7.7-1.8,1.1-3.3,1.1s-.2,0-.2-.2v-2.6c0-.1,0-.2.2-.2,1,0,1.5-.6,1.5-1.9v-2.2s2.8-.3,2.8-.3v3.6c0,.2,0,.4,0,.5.5.2.9.3,1.4.3,1,0,1.5-.6,1.5-1.9v-2.2s2.8-.3,2.8-.3v3.6c0,.2,0,.4,0,.6.5.1.9.2,1.4.2,1,0,1.5-.6,1.5-1.9v-4.1l2.8-.3Z" style="fill:#fff; stroke-width:0px;"/><path d="M539.2,658.7v2.6c0,.1,0,.2-.2.2-.8,0-1.4-.3-1.9-.7v.3c0,3.2-1.7,4.3-5.2,4.3l-.2-2.3c1.5,0,2.6-.6,2.6-2.2v-8.4s2.8-.3,2.8-.3v4.9c.1.9.9,1.3,1.9,1.3s.2,0,.2.2Z" style="fill:#fff; stroke-width:0px;"/><path d="M549.2,657.2c0,2.7-1.7,4.3-4.5,4.3h-5.7c-.1,0-.2,0-.2-.2v-2.6c0-.1,0-.2.2-.2h5.7c1,0,1.6-.5,1.6-1.3s-.6-1.3-1.6-1.3h-4.1l-1.5-2.6,5.2-6.4,2.5,1.4-4.8,5h2.5c2.8,0,4.6,1.5,4.6,3.9Z" style="fill:#fff; stroke-width:0px;"/><path d="M46,663.3l3.5-3.2c.5-.5.9-.9,1.2-1.2.3-.3.5-.6.7-.9.2-.3.2-.6.2-.9s0-.6-.2-.9-.4-.5-.6-.6c-.3-.1-.6-.2-.9-.2s-.7,0-1,.2-.5.4-.7.8c-.2.3-.3.8-.3,1.3h-1.9c0-.7.1-1.4.4-2,.3-.6.7-1.1,1.3-1.5.6-.4,1.3-.6,2.1-.6s1.4.2,2,.5c.6.3,1,.7,1.3,1.3.3.5.5,1.1.5,1.8s0,.9-.2,1.3c-.2.4-.4.8-.7,1.1-.3.4-.7.7-1.1,1.1l-2.6,2.3.9-.2h4v1.7h-7.8v-1.1Z" style="fill:#fff; stroke-width:0px;"/><path d="M55.8,662.6h1.8l-1.4,3.2h-1.4l.9-3.2Z" style="fill:#fff; stroke-width:0px;"/><path d="M63.3,664.6c-1,0-1.8-.2-2.5-.7s-1.2-1.2-1.5-2c-.3-.8-.5-1.8-.5-2.8s.2-2,.5-2.8c.4-.8.9-1.5,1.6-2,.7-.5,1.5-.7,2.4-.7s1.9.3,2.6.8c.7.5,1.2,1.2,1.5,2,.3.8.5,1.8.5,2.8s-.2,2-.5,2.8c-.3.8-.9,1.5-1.5,2-.7.5-1.5.7-2.5.7ZM63.3,662.9c.5,0,1-.2,1.4-.5.4-.3.7-.8.9-1.3s.3-1.2.3-2-.1-1.4-.3-1.9-.5-1-.9-1.3c-.4-.3-.9-.5-1.4-.5s-1,.2-1.4.5c-.4.3-.7.8-.9,1.3-.2.6-.3,1.2-.3,2s.1,1.4.3,1.9c.2.6.5,1,.9,1.3.4.3.9.5,1.4.5Z" style="fill:#fff; stroke-width:0px;"/><path d="M73.5,664.6c-1,0-1.8-.2-2.5-.7s-1.2-1.2-1.5-2c-.3-.8-.5-1.8-.5-2.8s.2-2,.5-2.8c.4-.8.9-1.5,1.6-2,.7-.5,1.5-.7,2.4-.7s1.9.3,2.6.8c.7.5,1.2,1.2,1.5,2,.3.8.5,1.8.5,2.8s-.2,2-.5,2.8c-.3.8-.9,1.5-1.5,2-.7.5-1.5.7-2.5.7ZM73.5,662.9c.5,0,1-.2,1.4-.5.4-.3.7-.8.9-1.3s.3-1.2.3-2-.1-1.4-.3-1.9-.5-1-.9-1.3c-.4-.3-.9-.5-1.4-.5s-1,.2-1.4.5c-.4.3-.7.8-.9,1.3-.2.6-.3,1.2-.3,2s.1,1.4.3,1.9c.2.6.5,1,.9,1.3.4.3.9.5,1.4.5Z" style="fill:#fff; stroke-width:0px;"/><path d="M83.6,664.6c-1,0-1.8-.2-2.5-.7s-1.2-1.2-1.5-2c-.3-.8-.5-1.8-.5-2.8s.2-2,.5-2.8c.4-.8.9-1.5,1.6-2,.7-.5,1.5-.7,2.4-.7s1.9.3,2.6.8c.7.5,1.2,1.2,1.5,2,.3.8.5,1.8.5,2.8s-.2,2-.5,2.8c-.3.8-.9,1.5-1.5,2-.7.5-1.5.7-2.5.7ZM83.6,662.9c.5,0,1-.2,1.4-.5.4-.3.7-.8.9-1.3s.3-1.2.3-2-.1-1.4-.3-1.9-.5-1-.9-1.3c-.4-.3-.9-.5-1.4-.5s-1,.2-1.4.5c-.4.3-.7.8-.9,1.3-.2.6-.3,1.2-.3,2s.1,1.4.3,1.9c.2.6.5,1,.9,1.3.4.3.9.5,1.4.5Z" style="fill:#fff; stroke-width:0px;"/><path d="M93.9,653.8h1.9v10.6h-1.9v-10.6Z" style="fill:#fff; stroke-width:0px;"/><path d="M103.3,664.6c-1,0-2-.2-2.9-.7-.9-.5-1.6-1.2-2.1-2s-.8-1.8-.8-2.8.3-1.9.8-2.8c.5-.8,1.2-1.5,2.1-2,.9-.5,1.8-.7,2.9-.7s2,.2,2.9.7c.9.5,1.6,1.2,2.1,2,.5.8.8,1.8.8,2.8s-.3,1.9-.8,2.8-1.2,1.5-2.1,2c-.9.5-1.8.7-2.9.7ZM103.3,662.8c.7,0,1.3-.2,1.9-.5.6-.3,1-.8,1.4-1.3.3-.6.5-1.2.5-1.9s-.2-1.3-.5-1.9c-.3-.6-.8-1-1.4-1.4s-1.2-.5-1.9-.5-1.3.2-1.9.5-1,.8-1.4,1.4c-.3.6-.5,1.2-.5,1.9s.2,1.3.5,1.9.8,1,1.4,1.3,1.2.5,1.9.5ZM105,663.9l1.7-.8,1.9,2.7-1.8,1-1.8-2.9Z" style="fill:#fff; stroke-width:0px;"/><path d="M111,653.8h4.1c1.1,0,2.1.2,3,.7.9.4,1.5,1.1,2,1.9.5.8.7,1.7.7,2.8s-.2,2-.7,2.8-1.1,1.4-2,1.9c-.9.4-1.8.7-2.9.7h-4.1v-10.6ZM115.1,662.7c.8,0,1.4-.1,2-.4.6-.3,1-.7,1.3-1.2.3-.5.4-1.2.4-1.9s-.1-1.4-.4-1.9c-.3-.5-.7-1-1.3-1.3-.6-.3-1.2-.4-2-.4h-2.1v7.2h2.1Z" style="fill:#fff; stroke-width:0px;"/><rect x="159.1" y="658.8" width="245.1" height=".8" style="fill:#fff; stroke-width:0px;"/><path d="M449.1,707.6v2.6c0,.1,0,.2-.2.2-1.2,0-2-.2-2.7-.7-1.1.6-2.1.8-3.1.8-2.6,0-4.4-2-4.4-4.6s1.8-4.8,4.4-4.8,1.2.1,1.8.3v-1l2.8-.3v6.1c0,.8.4,1.1,1,1.1s.2,0,.2.2ZM445.1,707.5c0-.2,0-.5,0-.8v-2.4c-.6-.2-1.2-.3-1.7-.3-1.2,0-1.9.8-1.9,1.9s.7,1.8,1.8,1.8c.7,0,1.3,0,1.9-.3Z" style="fill:#fff; stroke-width:0px;"/><path d="M452.7,707.6v2.6c0,.1,0,.2-.2.2h-3.5c-.1,0-.2,0-.2-.2v-2.6c0-.1,0-.2.2-.2h3.5c.1,0,.2,0,.2.2Z" style="fill:#fff; stroke-width:0px;"/><path d="M456.2,707.6v2.6c0,.1,0,.2-.2.2h-3.5c-.1,0-.2,0-.2-.2v-2.6c0-.1,0-.2.2-.2h3.5c.1,0,.2,0,.2.2Z" style="fill:#fff; stroke-width:0px;"/><path d="M459.8,707.6v2.6c0,.1,0,.2-.2.2h-3.5c-.1,0-.2,0-.2-.2v-2.6c0-.1,0-.2.2-.2h3.5c.1,0,.2,0,.2.2Z" style="fill:#fff; stroke-width:0px;"/><path d="M463.3,707.6v2.6c0,.1,0,.2-.2.2h-3.5c-.1,0-.2,0-.2-.2v-2.6c0-.1,0-.2.2-.2h3.5c.1,0,.2,0,.2.2Z" style="fill:#fff; stroke-width:0px;"/><path d="M466.9,707.6v2.6c0,.1,0,.2-.2.2h-3.5c-.1,0-.2,0-.2-.2v-2.6c0-.1,0-.2.2-.2h3.5c.1,0,.2,0,.2.2Z" style="fill:#fff; stroke-width:0px;"/><path d="M470.4,707.6v2.6c0,.1,0,.2-.2.2h-3.5c-.1,0-.2,0-.2-.2v-2.6c0-.1,0-.2.2-.2h3.5c.1,0,.2,0,.2.2Z" style="fill:#fff; stroke-width:0px;"/><path d="M473.9,707.6v2.6c0,.1,0,.2-.2.2h-3.5c-.1,0-.2,0-.2-.2v-2.6c0-.1,0-.2.2-.2h3.5c.1,0,.2,0,.2.2Z" style="fill:#fff; stroke-width:0px;"/><path d="M477.5,707.6v2.6c0,.1,0,.2-.2.2h-3.5c-.1,0-.2,0-.2-.2v-2.6c0-.1,0-.2.2-.2h3.5c.1,0,.2,0,.2.2Z" style="fill:#fff; stroke-width:0px;"/><path d="M481,707.6v2.6c0,.1,0,.2-.2.2h-3.5c-.1,0-.2,0-.2-.2v-2.6c0-.1,0-.2.2-.2h3.5c.1,0,.2,0,.2.2Z" style="fill:#fff; stroke-width:0px;"/><path d="M484.6,707.6v2.6c0,.1,0,.2-.2.2h-3.5c-.1,0-.2,0-.2-.2v-2.6c0-.1,0-.2.2-.2h3.5c.1,0,.2,0,.2.2Z" style="fill:#fff; stroke-width:0px;"/><path d="M490.9,707.6v2.6c0,.1,0,.2-.2.2-1.1,0-2-.4-2.8-1.2-.7.8-1.9,1.2-3.5,1.2s-.2,0-.2-.2v-2.6c0-.1.1-.2.2-.2,1,0,1.5-.6,1.5-1.9v-2.2s2.8-.3,2.8-.3v3.9c.5.3,1.2.5,1.9.5s.2,0,.2.2ZM487.5,711.4l1.9,1.9-1.9,1.9-1.9-1.9,1.9-1.9Z" style="fill:#fff; stroke-width:0px;"/><path d="M494.4,707.6v2.6c0,.1,0,.2-.2.2h-3.5c-.1,0-.2,0-.2-.2v-2.6c0-.1,0-.2.2-.2h3.5c.1,0,.2,0,.2.2Z" style="fill:#fff; stroke-width:0px;"/><path d="M498,707.6v2.6c0,.1,0,.2-.2.2h-3.5c-.1,0-.2,0-.2-.2v-2.6c0-.1,0-.2.2-.2h3.5c.1,0,.2,0,.2.2Z" style="fill:#fff; stroke-width:0px;"/><path d="M501.5,707.6v2.6c0,.1,0,.2-.2.2h-3.5c-.1,0-.2,0-.2-.2v-2.6c0-.1,0-.2.2-.2h3.5c.1,0,.2,0,.2.2Z" style="fill:#fff; stroke-width:0px;"/><path d="M505.1,707.6v2.6c0,.1,0,.2-.2.2h-3.5c-.1,0-.2,0-.2-.2v-2.6c0-.1,0-.2.2-.2h3.5c.1,0,.2,0,.2.2Z" style="fill:#fff; stroke-width:0px;"/><path d="M508.6,707.6v2.6c0,.1,0,.2-.2.2h-3.5c-.1,0-.2,0-.2-.2v-2.6c0-.1,0-.2.2-.2h3.5c.1,0,.2,0,.2.2Z" style="fill:#fff; stroke-width:0px;"/><path d="M512.1,707.6v2.6c0,.1,0,.2-.2.2h-3.5c-.1,0-.2,0-.2-.2v-2.6c0-.1,0-.2.2-.2h3.5c.1,0,.2,0,.2.2Z" style="fill:#fff; stroke-width:0px;"/><path d="M515.7,707.6v2.6c0,.1,0,.2-.2.2h-3.5c-.1,0-.2,0-.2-.2v-2.6c0-.1,0-.2.2-.2h3.5c.1,0,.2,0,.2.2Z" style="fill:#fff; stroke-width:0px;"/><path d="M519.2,707.6v2.6c0,.1,0,.2-.2.2h-3.5c-.1,0-.2,0-.2-.2v-2.6c0-.1,0-.2.2-.2h3.5c.1,0,.2,0,.2.2Z" style="fill:#fff; stroke-width:0px;"/><path d="M522.8,707.6v2.6c0,.1,0,.2-.2.2h-3.5c-.1,0-.2,0-.2-.2v-2.6c0-.1,0-.2.2-.2h3.5c.1,0,.2,0,.2.2Z" style="fill:#fff; stroke-width:0px;"/><path d="M526.3,707.6v2.6c0,.1,0,.2-.2.2h-3.5c-.1,0-.2,0-.2-.2v-2.6c0-.1,0-.2.2-.2h3.5c.1,0,.2,0,.2.2Z" style="fill:#fff; stroke-width:0px;"/><path d="M536.6,704.8l-.6,2.9c-3.6,2-6,2.7-9.9,2.7s-.2,0-.2-.2v-2.6c0-.1,0-.2.2-.2,3.5,0,5.4-.3,7.5-1.2-2.4-1.7-3.4-2.2-4.6-2.2s-1,.1-1.8.3l-.5-2.5c1-.4,1.8-.6,2.6-.6,1.6,0,3,.7,7.2,3.6ZM532.1,711.1l1.9,1.9-1.9,1.9-1.9-1.9,1.9-1.9Z" style="fill:#fff; stroke-width:0px;"/><path d="M546.3,705.7v4.3c0,3.2-3.1,4.3-7.5,4.3l-.3-2.3c3.4,0,4.9-.5,5-2-.6.2-1.1.4-1.7.4-2.5,0-4.2-1.8-4.2-4.5s2-4.7,4.5-4.7,4.3,1.7,4.3,4.6ZM542,707.6c.4,0,.9,0,1.4-.2v-1.5c0-1.2-.7-1.9-1.7-1.9s-1.7.7-1.7,1.7.8,1.8,1.9,1.8Z" style="fill:#fff; stroke-width:0px;"/><path d="M46,712.2l3.5-3.2c.5-.5.9-.9,1.2-1.2s.5-.6.7-.9.2-.6.2-.9,0-.6-.2-.9-.4-.5-.6-.6-.6-.2-.9-.2-.7,0-1,.2-.5.4-.7.8-.3.8-.3,1.3h-1.9c0-.7.1-1.4.4-2s.7-1.1,1.3-1.5,1.3-.6,2.1-.6,1.4.2,2,.5,1,.7,1.3,1.3.5,1.1.5,1.8,0,.9-.2,1.3-.4.8-.7,1.1-.7.7-1.1,1.1l-2.6,2.3.9-.2h4v1.7h-7.8v-1.1Z" style="fill:#fff; stroke-width:0px;"/><path d="M55.8,711.6h1.8l-1.4,3.2h-1.4l.9-3.2Z" style="fill:#fff; stroke-width:0px;"/><path d="M63.3,713.6c-1,0-1.8-.2-2.5-.7s-1.2-1.2-1.5-2-.5-1.8-.5-2.8.2-2,.5-2.8.9-1.5,1.6-2,1.5-.7,2.4-.7,1.9.3,2.6.8,1.2,1.2,1.5,2,.5,1.8.5,2.8-.2,2-.5,2.8-.9,1.5-1.5,2-1.5.7-2.5.7ZM63.3,711.8c.5,0,1-.2,1.4-.5s.7-.8.9-1.3.3-1.2.3-2-.1-1.4-.3-1.9-.5-1-.9-1.3-.9-.5-1.4-.5-1,.2-1.4.5-.7.8-.9,1.3-.3,1.2-.3,2,.1,1.4.3,1.9.5,1,.9,1.3.9.5,1.4.5Z" style="fill:#fff; stroke-width:0px;"/><path d="M73.5,713.6c-1,0-1.8-.2-2.5-.7s-1.2-1.2-1.5-2-.5-1.8-.5-2.8.2-2,.5-2.8.9-1.5,1.6-2,1.5-.7,2.4-.7,1.9.3,2.6.8,1.2,1.2,1.5,2,.5,1.8.5,2.8-.2,2-.5,2.8-.9,1.5-1.5,2-1.5.7-2.5.7ZM73.5,711.8c.5,0,1-.2,1.4-.5s.7-.8.9-1.3.3-1.2.3-2-.1-1.4-.3-1.9-.5-1-.9-1.3-.9-.5-1.4-.5-1,.2-1.4.5-.7.8-.9,1.3-.3,1.2-.3,2,.1,1.4.3,1.9.5,1,.9,1.3.9.5,1.4.5Z" style="fill:#fff; stroke-width:0px;"/><path d="M83.6,713.6c-1,0-1.8-.2-2.5-.7s-1.2-1.2-1.5-2-.5-1.8-.5-2.8.2-2,.5-2.8.9-1.5,1.6-2,1.5-.7,2.4-.7,1.9.3,2.6.8,1.2,1.2,1.5,2,.5,1.8.5,2.8-.2,2-.5,2.8-.9,1.5-1.5,2-1.5.7-2.5.7ZM83.6,711.8c.5,0,1-.2,1.4-.5s.7-.8.9-1.3.3-1.2.3-2-.1-1.4-.3-1.9-.5-1-.9-1.3-.9-.5-1.4-.5-1,.2-1.4.5-.7.8-.9,1.3-.3,1.2-.3,2,.1,1.4.3,1.9.5,1,.9,1.3.9.5,1.4.5Z" style="fill:#fff; stroke-width:0px;"/><path d="M93.9,702.7h1.9v10.6h-1.9v-10.6Z" style="fill:#fff; stroke-width:0px;"/><path d="M103.3,713.5c-1,0-2-.2-2.9-.7s-1.6-1.2-2.1-2-.8-1.8-.8-2.8.3-1.9.8-2.8,1.2-1.5,2.1-2,1.8-.7,2.9-.7,2,.2,2.9.7,1.6,1.2,2.1,2,.8,1.8.8,2.8-.3,1.9-.8,2.8-1.2,1.5-2.1,2-1.8.7-2.9.7ZM103.3,711.7c.7,0,1.3-.2,1.9-.5s1-.8,1.4-1.3.5-1.2.5-1.9-.2-1.4-.5-1.9-.8-1-1.4-1.4-1.2-.5-1.9-.5-1.3.2-1.9.5-1,.8-1.4,1.4-.5,1.2-.5,1.9.2,1.3.5,1.9.8,1,1.4,1.3,1.2.5,1.9.5ZM105,712.8l1.7-.8,1.9,2.7-1.8,1-1.8-2.9Z" style="fill:#fff; stroke-width:0px;"/><path d="M111,702.7h4.1c1.1,0,2.1.2,3,.7s1.5,1.1,2,1.9.7,1.7.7,2.8-.2,2-.7,2.8-1.1,1.4-2,1.9-1.8.7-2.9.7h-4.1v-10.6ZM115.1,711.6c.8,0,1.4-.1,2-.4s1-.7,1.3-1.2.4-1.2.4-1.9-.1-1.4-.4-1.9-.7-1-1.3-1.3-1.2-.4-2-.4h-2.1v7.2h2.1Z" style="fill:#fff; stroke-width:0px;"/><rect x="159.1" y="707.7" width="245.1" height=".8" style="fill:#fff; stroke-width:0px;"/><path d="M48.6,50.2h0v9.8h-2.9v-10.5h5.3l1.9,10.3h0l1.9-10.3h5.3v10.5h-2.9v-9.8h0l-1.9,9.8h-4.9l-1.9-9.8Z" style="fill:#fff; stroke-width:0px;"/><path d="M70.9,49.5v2.3h-6.2v1.9h4.7v2h-4.7v1.9h6.4v2.3h-9.2v-10.5h9.1Z" style="fill:#fff; stroke-width:0px;"/><path d="M77.7,49.5l3.4,10.2h0v-10.2h2.8v10.5h-5.7l-3.4-10.3h0v10.3h-2.8v-10.5h5.7Z" style="fill:#fff; stroke-width:0px;"/><path d="M95,59c-1,.8-2.4,1.2-4.2,1.2s-3.2-.4-4.2-1.2c-1-.8-1.5-2-1.5-3.5v-6h2.9v6c0,.8.2,1.4.7,1.8.5.4,1.1.6,2,.6s1.6-.2,2-.6.7-1,.7-1.8v-6h2.9v6c0,1.5-.5,2.7-1.5,3.5Z" style="fill:#fff; stroke-width:0px;"/><path d="M106.4,49.5l3.4,10.2h0v-10.2h2.8v10.5h-5.7l-3.4-10.3h0v10.3h-2.8v-10.5h5.7Z" style="fill:#fff; stroke-width:0px;"/><path d="M123.3,49.5v2.3h-6.2v1.9h4.7v2h-4.7v1.9h6.4v2.3h-9.2v-10.5h9.1Z" style="fill:#fff; stroke-width:0px;"/><path d="M130.3,54.7l-3.1,5.3h-3.3l3.5-5.4-3.3-5.1h3.3l2.9,5,2.9-5h3.3l-3.3,5.1,3.5,5.4h-3.3l-3.1-5.3Z" style="fill:#fff; stroke-width:0px;"/><path d="M140.2,51.8h-3.5v-2.3h9.9v2.3h-3.5v8.1h-2.9v-8.1Z" style="fill:#fff; stroke-width:0px;"/><path d="M153.4,49.5v8.1h5.8v2.3h-8.7v-10.5h2.9Z" style="fill:#fff; stroke-width:0px;"/><path d="M169.2,49.5v2.3h-6.2v1.9h4.7v2h-4.7v1.9h6.4v2.3h-9.2v-10.5h9.1Z" style="fill:#fff; stroke-width:0px;"/><path d="M178.8,60h-5.8l-3.4-10.5h3.2l3.1,10.3h0l3.1-10.3h3.2l-3.4,10.5Z" style="fill:#fff; stroke-width:0px;"/><path d="M192,49.5v2.3h-6.2v1.9h4.7v2h-4.7v1.9h6.4v2.3h-9.2v-10.5h9.1Z" style="fill:#fff; stroke-width:0px;"/><path d="M196,49.5v8.1h5.8v2.3h-8.7v-10.5h2.9Z" style="fill:#fff; stroke-width:0px;"/><path d="M542.3,53.7c.3-.2.7-.3,1.1-.3s.6,0,.8.2c.3.1.5.3.7.5.2.2.3.5.4.8h1.2c0-.5-.3-1-.6-1.4-.3-.4-.7-.6-1.1-.8s-.9-.3-1.3-.3-1.2.1-1.7.4-.9.7-1.2,1.2c-.3.5-.4,1.1-.4,1.7s.1,1.2.4,1.7c.3.5.7.9,1.2,1.2s1.1.4,1.7.4.9,0,1.3-.3c.4-.2.8-.5,1.1-.8.3-.4.5-.8.6-1.4h-1.2c0,.3-.2.6-.4.8-.2.2-.4.4-.7.5-.3.1-.5.2-.8.2s-.8,0-1.1-.3c-.3-.2-.6-.4-.8-.8-.2-.3-.3-.7-.3-1.2s0-.8.3-1.2c.2-.3.4-.6.8-.8Z" style="fill:#fff; stroke-width:0px;"/><path d="M543.4,50c-3.1,0-5.6,2.5-5.6,5.6s2.5,5.6,5.6,5.6,5.6-2.5,5.6-5.6-2.5-5.6-5.6-5.6ZM543.4,60.5c-2.7,0-4.8-2.2-4.8-4.8s2.2-4.8,4.8-4.8,4.8,2.2,4.8,4.8-2.2,4.8-4.8,4.8Z" style="fill:#fff; stroke-width:0px;"/><path d="M496.3,60l3.6-3.2c.5-.5.9-.9,1.2-1.2s.5-.6.7-1c.2-.3.3-.6.3-1s0-.6-.2-.9-.4-.5-.6-.6c-.3-.1-.6-.2-.9-.2s-.7,0-1,.2c-.3.2-.5.4-.7.8-.2.4-.3.8-.3,1.4h-2c0-.8.1-1.4.4-2.1.3-.6.7-1.2,1.3-1.6s1.3-.6,2.2-.6,1.5.2,2,.5c.6.3,1,.7,1.3,1.3.3.5.5,1.1.5,1.8s0,.9-.2,1.3c-.2.4-.4.8-.7,1.2s-.7.8-1.2,1.2l-2.7,2.3.9-.2h4.1v1.7h-8v-1.1Z" style="fill:#fff; stroke-width:0px;"/><path d="M509.9,61.4c-1,0-1.9-.3-2.6-.8-.7-.5-1.2-1.2-1.6-2-.4-.9-.5-1.8-.5-2.9s.2-2.1.5-2.9.9-1.6,1.6-2.1c.7-.5,1.5-.8,2.5-.8s2,.3,2.7.8c.7.5,1.2,1.2,1.5,2.1.3.9.5,1.8.5,2.8s-.2,2-.5,2.9c-.4.9-.9,1.5-1.6,2.1s-1.6.8-2.6.8ZM509.9,59.6c.5,0,1-.2,1.4-.5.4-.3.7-.8.9-1.4.2-.6.3-1.3.3-2s-.1-1.4-.3-2c-.2-.6-.5-1-.9-1.4-.4-.3-.9-.5-1.5-.5s-1,.2-1.4.5-.7.8-.9,1.4c-.2.6-.3,1.3-.3,2s.1,1.4.3,2c.2.6.5,1,.9,1.4s.9.5,1.4.5Z" style="fill:#fff; stroke-width:0px;"/><path d="M515.7,60l3.6-3.2c.5-.5.9-.9,1.2-1.2s.5-.6.7-1c.2-.3.3-.6.3-1s0-.6-.2-.9c-.2-.3-.4-.5-.6-.6-.3-.1-.6-.2-.9-.2s-.7,0-1,.2c-.3.2-.5.4-.7.8-.2.4-.3.8-.3,1.4h-2c0-.8.1-1.4.4-2.1.3-.6.7-1.2,1.3-1.6.6-.4,1.3-.6,2.2-.6s1.5.2,2,.5c.6.3,1,.7,1.3,1.3s.5,1.1.5,1.8,0,.9-.2,1.3c-.2.4-.4.8-.7,1.2-.3.4-.7.8-1.2,1.2l-2.7,2.3.9-.2h4.1v1.7h-8v-1.1Z" style="fill:#fff; stroke-width:0px;"/><path d="M529,61.4c-.7,0-1.3-.1-1.9-.4s-1.1-.6-1.5-1.2c-.4-.5-.6-1.2-.7-2.1h1.9c0,.4.2.8.4,1s.5.5.8.6.6.2.9.2.7,0,1.1-.3.6-.4.7-.7c.2-.3.3-.6.3-1s0-.7-.3-1c-.2-.3-.5-.5-.8-.6-.4-.1-.8-.2-1.3-.2h-2.2s-.9-.7-.9-.7l.7-4.8h6v1.6h-4.3l-.3,2.5h1.6c.8,0,1.5.1,2,.4.6.3,1,.6,1.3,1.1.3.5.5,1.1.5,1.8s-.2,1.3-.5,1.9c-.3.6-.8,1-1.4,1.4-.6.4-1.3.5-2.1.5Z" style="fill:#fff; stroke-width:0px;"/><rect x="257.9" y="101.6" width="290.2" height="54" style="fill:#fff; stroke-width:0px;"/><path d="M380.9,122.7v10.5c0,4.8-2.7,7.3-8.2,7.4h-9.2c-5.8,0-8.8-2.6-8.8-8s.2-3.5.7-5.7l4.7.6c-.2,1.7-.4,2.7-.4,3.5,0,2.7,1.6,3.8,5.1,3.8h7.7c2,0,3-1.1,3-3.6v-7.8s5.5-.7,5.5-.7ZM364.8,124.7l-3.7-3.7,3.6-3.6,2.8,2.7,2.7-2.7,3.7,3.6-3.6,3.7-2.8-2.7-2.8,2.7Z" style="fill:#171a23; stroke-width:0px;"/><path d="M385.2,133.1v-17.6s5.5-.6,5.5-.6v16.3c0,2.5,1,3.6,3,3.6s.4.1.4.4v5.1c0,.2-.1.4-.3.4-5.7,0-8.5-2.5-8.5-7.5Z" style="fill:#171a23; stroke-width:0px;"/><path d="M400.9,135.1v5.1c0,.2-.1.4-.4.4h-6.8c-.2,0-.4-.2-.4-.4v-5.1c0-.2.1-.4.4-.4h6.8c.2,0,.4.1.4.4Z" style="fill:#171a23; stroke-width:0px;"/><path d="M407.7,135.1v5.1c0,.2-.1.4-.4.4h-6.8c-.2,0-.4-.2-.4-.4v-5.1c0-.2.1-.4.4-.4h6.8c.2,0,.4.1.4.4Z" style="fill:#171a23; stroke-width:0px;"/><path d="M414.6,135.1v5.1c0,.2-.1.4-.4.4h-6.8c-.2,0-.4-.2-.4-.4v-5.1c0-.2.1-.4.4-.4h6.8c.2,0,.4.1.4.4Z" style="fill:#171a23; stroke-width:0px;"/><path d="M448,135.1v5.1c0,.2-.1.4-.4.4-2.2,0-4-.8-5.5-2.4-1.4,1.6-3.7,2.4-6.8,2.4h-21.1c-.2,0-.4-.2-.4-.4v-5.1c0-.2.2-.4.4-.4h2.7v-19.3l5.5-.6v11c6.6-3.1,9.9-4.2,13.3-4.2s8.2,3.3,8.1,8.3v3.2c0,0,0,.5,0,.5,1.1.7,2.3,1.1,3.8,1.1s.4.1.4.4ZM438.4,130.5c0-1.9-1.6-3.2-3.8-3.2s-4.4.5-12.1,3v4.5h12.9c1.9,0,3-1.1,3-2.9v-1.3Z" style="fill:#171a23; stroke-width:0px;"/><path d="M459.6,140.2c0,.2-.1.4-.4.4-3.1,0-5.3-.7-6.7-2.2-1.6,1.5-3,2.2-4.9,2.2s-.4-.2-.4-.4v-5.1c0-.2.1-.4.4-.4,1.3,0,2.3-.3,3.2-.9,0-.2,0-.5,0-.7v-17.6s5.5-.6,5.5-.6v16.3c0,2.5.9,3.6,2.9,3.6s.4.1.4.4v5.1Z" style="fill:#171a23; stroke-width:0px;"/><path d="M489.7,122.7v10.5c0,4.8-2.5,7.4-7.4,7.4s-3.9-.6-5.9-2c-1.4,1.2-3.3,2-5.7,2s-3.5-.7-5.2-2.1c-1.4,1.3-3.5,2.1-6.3,2.1s-.4-.2-.4-.4v-5.1c0-.2.1-.4.4-.4,2,0,2.9-1.1,2.9-3.6v-4.2s5.5-.6,5.5-.6v6.9c0,.4,0,.7,0,1.1.9.4,1.7.5,2.6.5,2,0,3-1.1,3-3.6v-4.2s5.5-.6,5.5-.6v6.9c0,.4,0,.8,0,1.2.9.3,1.7.4,2.7.4,1.9,0,2.9-1.2,2.9-3.6v-7.8l5.5-.6Z" style="fill:#171a23; stroke-width:0px;"/><rect x="42.6" y="101.6" width="246.2" height="54" style="fill:#ee304c; stroke-width:0px;"/><path d="M123.5,123.5c-1.6-.3-3.2-.4-4.9-.4s-2.3.1-2.9.4-.9.7-.9,1.3.3,1,1,1.4c.7.4,1.9.8,3.6,1.2,2.4.5,4.3,1.1,5.8,1.7,1.4.6,2.5,1.4,3.2,2.3.7.9,1.1,2,1.1,3.4,0,2.4-1,4.1-2.9,5.3-2,1.2-4.7,1.8-8.2,1.8s-8-.6-10.6-1.7l.3-5.5c1.3.5,2.8,1,4.7,1.4s3.7.6,5.6.6,2.8-.2,3.5-.5c.7-.3,1.1-.8,1.1-1.4s-.2-.8-.5-1.1c-.3-.3-.9-.5-1.6-.8s-1.8-.5-3.3-.8c-3.2-.7-5.6-1.6-7.1-2.6-1.5-1.1-2.3-2.6-2.3-4.6s.9-4,2.7-5.2c1.8-1.2,4.4-1.8,7.8-1.8s6.6.5,9.2,1.6l-.4,5.4c-1.1-.5-2.5-.9-4-1.2Z" style="fill:#fff; stroke-width:0px;"/><path d="M137.5,118.2h12.4l7.7,23.1h-7l-1.4-4.7h-11.1l-1.4,4.7h-7l7.7-23.1ZM147.8,132l-4.1-13.4h0l-4.1,13.4h8.2Z" style="fill:#fff; stroke-width:0px;"/><path d="M165.5,118.2v18h12.8v5.1h-19.2v-23.1h6.3Z" style="fill:#fff; stroke-width:0px;"/><path d="M187.1,118.2h12.4l7.7,23.1h-7l-1.4-4.7h-11.1l-1.4,4.7h-7l7.7-23.1ZM197.4,132l-4.1-13.4h0l-4.1,13.4h8.2Z" style="fill:#fff; stroke-width:0px;"/><path d="M227.6,119.6c2,.9,3.6,2.2,4.6,4,1.1,1.7,1.6,3.8,1.6,6.2s-.5,4.5-1.6,6.2c-1.1,1.7-2.6,3.1-4.6,4-2,.9-4.4,1.4-7.1,1.4h-11.6v-23.1h11.6c2.8,0,5.1.5,7.1,1.4ZM220.4,136.2c2.1,0,3.8-.6,5-1.7,1.2-1.1,1.8-2.7,1.8-4.7s-.6-3.6-1.8-4.7c-1.2-1.1-2.9-1.7-5-1.7h-5.2v12.8h5.2Z" style="fill:#fff; stroke-width:0px;"/><polygon points="75.6 101 90.8 115.7 85.1 92.1 75.6 101" style="fill:#171a23; stroke-width:0px;"/><polygon points="335.5 156.3 320.3 141.6 326 165.2 335.5 156.3" style="fill:#171a23; stroke-width:0px;"/><polygon points="521.1 101 505.8 115.7 511.6 92.1 521.1 101" style="fill:#171a23; stroke-width:0px;"/><path d="M260.3,764.4h-3.5l-4.5-8.9h4.2l3.9,8.4h.1l4-8.4h4.2l-7,13.7h-3.7l2.3-4.8Z" style="fill:#fff; stroke-width:0px;"/><path d="M270.4,755.6h7.3l4.6,13.7h-4.1l-.8-2.8h-6.5l-.8,2.8h-4.1l4.6-13.7ZM276.6,763.8l-2.4-7.9h0l-2.4,7.9h4.9Z" style="fill:#fff; stroke-width:0px;"/><path d="M287.1,755.6v10.6h7.6v3h-11.4v-13.7h3.8Z" style="fill:#fff; stroke-width:0px;"/><path d="M299.6,755.6v10.6h7.6v3h-11.4v-13.7h3.8Z" style="fill:#fff; stroke-width:0px;"/><path d="M312.3,755.6h7.3l4.6,13.7h-4.1l-.8-2.8h-6.5l-.8,2.8h-4.1l4.6-13.7ZM318.5,763.8l-2.4-7.9h0l-2.4,7.9h4.9Z" style="fill:#fff; stroke-width:0px;"/><path d="M230.2,774.3l4.4,13.4h0v-13.4h3.7v13.7h-7.4l-4.4-13.5h0v13.5h-3.7v-13.7h7.4Z" style="fill:#fff; stroke-width:0px;"/><path d="M252.3,774.3v3h-8.1v2.5h6.2v2.6h-6.2v2.5h8.3v3h-12.1v-13.7h11.8Z" style="fill:#fff; stroke-width:0px;"/><path d="M261.3,781.1l-4,6.9h-4.3l4.6-7-4.3-6.7h4.3l3.8,6.5,3.8-6.5h4.3l-4.3,6.7,4.6,7h-4.3l-4-6.9Z" style="fill:#fff; stroke-width:0px;"/><path d="M274.4,777.3h-4.6v-3h12.9v3h-4.6v10.6h-3.8v-10.6Z" style="fill:#fff; stroke-width:0px;"/><path d="M291.6,774.3v10.6h7.6v3h-11.4v-13.7h3.8Z" style="fill:#fff; stroke-width:0px;"/><path d="M312.2,774.3v3h-8.1v2.5h6.2v2.6h-6.2v2.5h8.3v3h-12.1v-13.7h11.8Z" style="fill:#fff; stroke-width:0px;"/><path d="M324.7,788h-7.6l-4.4-13.7h4.1l4.1,13.4h0l4-13.4h4.1l-4.4,13.7Z" style="fill:#fff; stroke-width:0px;"/><path d="M342,774.3v3h-8.1v2.5h6.2v2.6h-6.2v2.5h8.3v3h-12.1v-13.7h11.8Z" style="fill:#fff; stroke-width:0px;"/><path d="M347.2,774.3v10.6h7.6v3h-11.4v-13.7h3.8Z" style="fill:#fff; stroke-width:0px;"/><path d="M326.9,756.3h-1.3v-.7h3.5v.7h-1.3v3.8h-.8v-3.8Z" style="fill:#fff; stroke-width:0px;"/><path d="M329.7,755.6h.7l1.5,2.1h0s1.6-2.1,1.6-2.1h.7v4.5h-.8v-3.2l-1.3,1.8h-.2l-1.3-1.8v3.2h-.8v-4.5Z" style="fill:#fff; stroke-width:0px;"/></svg>