<?xml version="1.0" encoding="UTF-8"?><svg id="Layer_1" xmlns="http://www.w3.org/2000/svg" viewBox="0 0 595.3 841.9"><rect x="-5357.5" y="-1.4" width="7740.4" height="845.9" style="fill:#171a23; stroke-width:0px;"/><path d="M471.3,215.8v5.4c0,2.5-1.4,3.8-4.3,3.8h-4.8c-3,0-4.5-1.4-4.5-4.1s0-1.8.3-3l2.4.3c-.1.9-.2,1.4-.2,1.8,0,1.4.8,2,2.6,2h4c1,0,1.5-.6,1.5-1.9v-4s2.8-.3,2.8-.3ZM462.9,216.8l-1.9-1.9,1.9-1.9,1.4,1.4,1.4-1.4,1.9,1.9-1.9,1.9-1.5-1.4-1.4,1.4Z" style="fill:#fff; stroke-width:0px;"/><path d="M473.5,221.1v-9.1s2.8-.3,2.8-.3v8.4c0,1.3.5,1.9,1.5,1.9s.2,0,.2.2v2.6c0,.1,0,.2-.2.2-2.9,0-4.4-1.3-4.4-3.9Z" style="fill:#fff; stroke-width:0px;"/><path d="M481.6,222.2v2.6c0,.1,0,.2-.2.2h-3.5c-.1,0-.2,0-.2-.2v-2.6c0-.1,0-.2.2-.2h3.5c.1,0,.2,0,.2.2Z" style="fill:#fff; stroke-width:0px;"/><path d="M485.2,222.2v2.6c0,.1,0,.2-.2.2h-3.5c-.1,0-.2,0-.2-.2v-2.6c0-.1,0-.2.2-.2h3.5c.1,0,.2,0,.2.2Z" style="fill:#fff; stroke-width:0px;"/><path d="M488.7,222.2v2.6c0,.1,0,.2-.2.2h-3.5c-.1,0-.2,0-.2-.2v-2.6c0-.1,0-.2.2-.2h3.5c.1,0,.2,0,.2.2Z" style="fill:#fff; stroke-width:0px;"/><path d="M492.2,222.2v2.6c0,.1,0,.2-.2.2h-3.5c-.1,0-.2,0-.2-.2v-2.6c0-.1,0-.2.2-.2h3.5c.1,0,.2,0,.2.2Z" style="fill:#fff; stroke-width:0px;"/><path d="M495.8,222.2v2.6c0,.1,0,.2-.2.2h-3.5c-.1,0-.2,0-.2-.2v-2.6c0-.1,0-.2.2-.2h3.5c.1,0,.2,0,.2.2Z" style="fill:#fff; stroke-width:0px;"/><path d="M499.3,222.2v2.6c0,.1,0,.2-.2.2h-3.5c-.1,0-.2,0-.2-.2v-2.6c0-.1,0-.2.2-.2h3.5c.1,0,.2,0,.2.2Z" style="fill:#fff; stroke-width:0px;"/><path d="M502.9,222.2v2.6c0,.1,0,.2-.2.2h-3.5c-.1,0-.2,0-.2-.2v-2.6c0-.1,0-.2.2-.2h3.5c.1,0,.2,0,.2.2Z" style="fill:#fff; stroke-width:0px;"/><path d="M506.4,222.2v2.6c0,.1,0,.2-.2.2h-3.5c-.1,0-.2,0-.2-.2v-2.6c0-.1,0-.2.2-.2h3.5c.1,0,.2,0,.2.2Z" style="fill:#fff; stroke-width:0px;"/><path d="M510,222.2v2.6c0,.1,0,.2-.2.2h-3.5c-.1,0-.2,0-.2-.2v-2.6c0-.1,0-.2.2-.2h3.5c.1,0,.2,0,.2.2Z" style="fill:#fff; stroke-width:0px;"/><path d="M513.5,222.2v2.6c0,.1,0,.2-.2.2h-3.5c-.1,0-.2,0-.2-.2v-2.6c0-.1,0-.2.2-.2h3.5c.1,0,.2,0,.2.2Z" style="fill:#fff; stroke-width:0px;"/><path d="M517,222.2v2.6c0,.1,0,.2-.2.2h-3.5c-.1,0-.2,0-.2-.2v-2.6c0-.1,0-.2.2-.2h3.5c.1,0,.2,0,.2.2Z" style="fill:#fff; stroke-width:0px;"/><path d="M520.6,222.2v2.6c0,.1,0,.2-.2.2h-3.5c-.1,0-.2,0-.2-.2v-2.6c0-.1,0-.2.2-.2h3.5c.1,0,.2,0,.2.2Z" style="fill:#fff; stroke-width:0px;"/><path d="M524.1,222.2v2.6c0,.1,0,.2-.2.2h-3.5c-.1,0-.2,0-.2-.2v-2.6c0-.1,0-.2.2-.2h3.5c.1,0,.2,0,.2.2Z" style="fill:#fff; stroke-width:0px;"/><path d="M527.7,222.2v2.6c0,.1,0,.2-.2.2h-3.5c-.1,0-.2,0-.2-.2v-2.6c0-.1,0-.2.2-.2h3.5c.1,0,.2,0,.2.2Z" style="fill:#fff; stroke-width:0px;"/><path d="M527.3,224.8v-2.6c0-.1.1-.2.2-.2,1,0,1.5-.6,1.5-1.9v-4s2.8-.3,2.8-.3v5.4c0,2.5-1.4,3.8-4.4,3.8s-.2,0-.2-.2ZM528.5,212.5l1.9-1.9,1.9,1.9-1.9,1.9-1.9-1.9Z" style="fill:#fff; stroke-width:0px;"/><path d="M542.1,220.3v4.3c0,3.2-3.1,4.3-7.5,4.3l-.3-2.3c3.4,0,4.9-.5,5-2-.6.2-1.1.4-1.7.4-2.5,0-4.2-1.8-4.2-4.5s2-4.7,4.5-4.7,4.3,1.7,4.3,4.6ZM537.8,222.2c.4,0,.9,0,1.4-.2v-1.5c0-1.2-.7-1.9-1.7-1.9s-1.7.7-1.7,1.7.8,1.8,1.9,1.8Z" style="fill:#fff; stroke-width:0px;"/><path d="M543.1,222h4.6c1,0,1.5-.6,1.5-1.4v-.6c0-1-.8-1.6-2-1.6h-1.2v-2.9h1.9c2.5,0,4.2,1.5,4.2,4.3v1.4c0,2.5-1.5,3.8-4.4,3.8h-4.1l-.4-3Z" style="fill:#fff; stroke-width:0px;"/><path d="M501.7,242.8c.9.4,1.6,1,2.1,1.8.5.8.7,1.7.7,2.8s-.2,2-.7,2.8c-.5.8-1.2,1.4-2.1,1.8-.9.4-2,.6-3.2.6h-4.5v-10.5h4.5c1.2,0,2.3.2,3.2.6ZM498.5,251.2c.9,0,1.6-.2,2.2-.5.6-.3,1.1-.8,1.5-1.3s.5-1.3.5-2-.2-1.5-.5-2c-.3-.6-.8-1-1.5-1.3-.6-.3-1.4-.5-2.2-.5h-2.7v7.7h2.7Z" style="fill:#ee304c; stroke-width:0px;"/><path d="M508.4,252.2c-.9-.4-1.5-1-2-1.9-.5-.8-.7-1.8-.7-2.9s.2-2.1.7-3,1.1-1.5,2-1.9,1.9-.7,3.1-.7,2.3.2,3.1.7c.9.4,1.5,1.1,2,1.9s.7,1.8.7,3-.2,2.1-.7,2.9c-.5.8-1.1,1.4-2,1.9-.9.4-1.9.6-3.1.6s-2.3-.2-3.1-.6ZM508.5,250.4c.7.7,1.7,1,3,1s2.3-.3,3-1c.7-.7,1.1-1.7,1.1-2.9s-.4-2.3-1.1-3c-.7-.7-1.7-1.1-3-1.1s-2.3.4-3,1.1-1.1,1.7-1.1,3,.4,2.2,1.1,2.9Z" style="fill:#ee304c; stroke-width:0px;"/><path d="M522.4,242.1l5.5,10.3h0v-10.3h1.7v10.5h-3.4l-5.5-10.3h0v10.3h-1.7v-10.5h3.4Z" style="fill:#ee304c; stroke-width:0px;"/><path d="M540.3,251.7c-.9.8-2.2,1.2-3.8,1.2s-3-.4-3.8-1.2c-.9-.8-1.3-1.9-1.3-3.4v-6.2h1.7v6.2c0,1,.3,1.8.9,2.4.6.5,1.4.8,2.6.8s2-.3,2.6-.8c.6-.5.9-1.3.9-2.4v-6.2h1.7v6.2c0,1.5-.4,2.6-1.3,3.4Z" style="fill:#ee304c; stroke-width:0px;"/><path d="M546.2,243.5h-3.7v-1.4h9.2v1.4h-3.8v9.1h-1.7v-9.1Z" style="fill:#ee304c; stroke-width:0px;"/><path d="M61.2,223h-5.3v-1.4c-.1,0,5.1-7,5.1-7h2.2v6.8h1.7v1.6h-1.7v2.3h-1.9v-2.3ZM61.2,221.4v-4.4l-3.3,4.4h3.3Z" style="fill:#fff; stroke-width:0px;"/><path d="M66.7,223.5h1.8l-1.4,3.2h-1.4l.9-3.2Z" style="fill:#fff; stroke-width:0px;"/><path d="M73.8,225.5c-.7,0-1.3-.1-1.8-.4s-1.1-.6-1.5-1.2-.6-1.2-.7-2.1h1.9c0,.4.2.8.4,1s.5.5.8.6.6.2.9.2.7,0,1-.3.5-.4.7-.7c.2-.3.2-.6.2-1s0-.7-.3-1c-.2-.3-.5-.5-.8-.6-.3-.1-.8-.2-1.2-.2h-2.1s-.8-.7-.8-.7l.6-4.7h5.9v1.6h-4.2l-.3,2.4h1.5c.8,0,1.4.1,2,.4.6.3,1,.6,1.3,1.1.3.5.5,1,.5,1.7s-.2,1.3-.5,1.8c-.3.6-.8,1-1.4,1.4s-1.3.5-2.1.5Z" style="fill:#fff; stroke-width:0px;"/><path d="M83.3,225.5c-1,0-1.8-.2-2.5-.7s-1.2-1.2-1.5-2c-.3-.8-.5-1.8-.5-2.8s.2-2,.5-2.8c.4-.8.9-1.5,1.6-2,.7-.5,1.5-.7,2.4-.7s1.9.3,2.6.8c.7.5,1.2,1.2,1.5,2,.3.8.5,1.8.5,2.8s-.2,2-.5,2.8c-.3.8-.9,1.5-1.5,2-.7.5-1.5.7-2.5.7ZM83.3,223.7c.5,0,1-.2,1.4-.5.4-.3.7-.8.9-1.3s.3-1.2.3-2-.1-1.4-.3-1.9-.5-1-.9-1.3c-.4-.3-.9-.5-1.4-.5s-1,.2-1.4.5c-.4.3-.7.8-.9,1.3-.2.6-.3,1.2-.3,2s.1,1.4.3,1.9c.2.6.5,1,.9,1.3.4.3.9.5,1.4.5Z" style="fill:#fff; stroke-width:0px;"/><path d="M93.5,225.5c-1,0-1.8-.2-2.5-.7s-1.2-1.2-1.5-2c-.3-.8-.5-1.8-.5-2.8s.2-2,.5-2.8c.4-.8.9-1.5,1.6-2,.7-.5,1.5-.7,2.4-.7s1.9.3,2.6.8c.7.5,1.2,1.2,1.5,2,.3.8.5,1.8.5,2.8s-.2,2-.5,2.8c-.3.8-.9,1.5-1.5,2-.7.5-1.5.7-2.5.7ZM93.5,223.7c.5,0,1-.2,1.4-.5.4-.3.7-.8.9-1.3s.3-1.2.3-2-.1-1.4-.3-1.9-.5-1-.9-1.3c-.4-.3-.9-.5-1.4-.5s-1,.2-1.4.5c-.4.3-.7.8-.9,1.3-.2.6-.3,1.2-.3,2s.1,1.4.3,1.9c.2.6.5,1,.9,1.3.4.3.9.5,1.4.5Z" style="fill:#fff; stroke-width:0px;"/><path d="M103.7,214.6h1.9v10.6h-1.9v-10.6Z" style="fill:#fff; stroke-width:0px;"/><path d="M113.2,225.5c-1,0-2-.2-2.9-.7-.9-.5-1.6-1.2-2.1-2s-.8-1.8-.8-2.8.3-1.9.8-2.8c.5-.8,1.2-1.5,2.1-2,.9-.5,1.8-.7,2.9-.7s2,.2,2.9.7c.9.5,1.6,1.2,2.1,2,.5.8.8,1.8.8,2.8s-.3,1.9-.8,2.8-1.2,1.5-2.1,2c-.9.5-1.8.7-2.9.7ZM113.2,223.7c.7,0,1.3-.2,1.9-.5.6-.3,1-.8,1.4-1.3.3-.6.5-1.2.5-1.9s-.2-1.4-.5-1.9c-.3-.6-.8-1-1.4-1.4s-1.2-.5-1.9-.5-1.3.2-1.9.5-1,.8-1.4,1.4c-.3.6-.5,1.2-.5,1.9s.2,1.3.5,1.9.8,1,1.4,1.3,1.2.5,1.9.5ZM114.8,224.7l1.7-.8,1.9,2.7-1.8,1-1.8-2.9Z" style="fill:#fff; stroke-width:0px;"/><path d="M120.9,214.6h4.1c1.1,0,2.1.2,3,.7.9.4,1.5,1.1,2,1.9.5.8.7,1.7.7,2.8s-.2,2-.7,2.8-1.1,1.4-2,1.9c-.9.4-1.8.7-2.9.7h-4.1v-10.6ZM124.9,223.5c.8,0,1.4-.1,2-.4.6-.3,1-.7,1.3-1.2.3-.5.4-1.2.4-1.9s-.1-1.4-.4-1.9c-.3-.5-.7-1-1.3-1.3-.6-.3-1.2-.4-2-.4h-2.1v7.2h2.1Z" style="fill:#fff; stroke-width:0px;"/><rect x="169.1" y="220.7" width="249.1" height=".8" style="fill:#fff; stroke-width:0px;"/><polygon points="67.1 156.4 82.3 141.8 76.6 165.3 67.1 156.4" style="fill:#171a23; stroke-width:0px;"/><path d="M52.4,49.2h0v9.8h-2.9v-10.5h5.3l1.9,10.3h0l1.9-10.3h5.3v10.5h-2.9v-9.8h0l-1.9,9.8h-4.9l-1.9-9.8Z" style="fill:#fff; stroke-width:0px;"/><path d="M74.7,48.5v2.3h-6.2v1.9h4.7v2h-4.7v1.9h6.4v2.3h-9.2v-10.5h9.1Z" style="fill:#fff; stroke-width:0px;"/><path d="M81.5,48.5l3.4,10.2h0v-10.2h2.8v10.5h-5.7l-3.4-10.3h0v10.3h-2.8v-10.5h5.7Z" style="fill:#fff; stroke-width:0px;"/><path d="M98.8,58c-1,.8-2.4,1.2-4.2,1.2s-3.2-.4-4.2-1.2c-1-.8-1.5-2-1.5-3.5v-6h2.9v6c0,.8.2,1.4.7,1.8.5.4,1.2.6,2,.6s1.6-.2,2-.6c.5-.4.7-1,.7-1.8v-6h2.9v6c0,1.5-.5,2.7-1.5,3.5Z" style="fill:#fff; stroke-width:0px;"/><path d="M110.2,48.5l3.4,10.2h0v-10.2h2.8v10.5h-5.7l-3.4-10.3h0v10.3h-2.8v-10.5h5.7Z" style="fill:#fff; stroke-width:0px;"/><path d="M127.2,48.5v2.3h-6.2v1.9h4.7v2h-4.7v1.9h6.4v2.3h-9.2v-10.5h9.1Z" style="fill:#fff; stroke-width:0px;"/><path d="M134.1,53.7l-3.1,5.3h-3.3l3.5-5.4-3.3-5.1h3.3l2.9,5,2.9-5h3.3l-3.3,5.1,3.5,5.4h-3.3l-3.1-5.3Z" style="fill:#fff; stroke-width:0px;"/><path d="M144.1,50.8h-3.5v-2.3h9.9v2.3h-3.5v8.1h-2.9v-8.1Z" style="fill:#fff; stroke-width:0px;"/><path d="M157.3,48.5v8.1h5.8v2.3h-8.7v-10.5h2.9Z" style="fill:#fff; stroke-width:0px;"/><path d="M173,48.5v2.3h-6.2v1.9h4.7v2h-4.7v1.9h6.4v2.3h-9.2v-10.5h9.1Z" style="fill:#fff; stroke-width:0px;"/><path d="M182.6,59h-5.8l-3.4-10.5h3.2l3.1,10.3h0l3.1-10.3h3.2l-3.4,10.5Z" style="fill:#fff; stroke-width:0px;"/><path d="M195.9,48.5v2.3h-6.2v1.9h4.7v2h-4.7v1.9h6.4v2.3h-9.2v-10.5h9.1Z" style="fill:#fff; stroke-width:0px;"/><path d="M199.9,48.5v8.1h5.8v2.3h-8.7v-10.5h2.9Z" style="fill:#fff; stroke-width:0px;"/><path d="M546.2,52.6c.3-.2.7-.3,1.1-.3s.6,0,.8.2c.3.1.5.3.7.5.2.2.3.5.4.8h1.2c0-.5-.3-1-.6-1.4-.3-.4-.7-.6-1.1-.8s-.9-.3-1.3-.3-1.2.1-1.7.4-.9.7-1.2,1.2c-.3.5-.4,1.1-.4,1.7s.1,1.2.4,1.7c.3.5.7.9,1.2,1.2s1.1.4,1.7.4.9,0,1.3-.3c.4-.2.8-.5,1.1-.8.3-.4.5-.8.6-1.4h-1.2c0,.3-.2.6-.4.8-.2.2-.4.4-.7.5-.3.1-.5.2-.8.2s-.8,0-1.1-.3c-.3-.2-.6-.4-.8-.8-.2-.3-.3-.7-.3-1.2s0-.8.3-1.2c.2-.3.4-.6.8-.8Z" style="fill:#fff; stroke-width:0px;"/><path d="M547.3,49c-3.1,0-5.6,2.5-5.6,5.6s2.5,5.6,5.6,5.6,5.6-2.5,5.6-5.6-2.5-5.6-5.6-5.6ZM547.3,59.5c-2.7,0-4.8-2.2-4.8-4.8s2.2-4.8,4.8-4.8,4.8,2.2,4.8,4.8-2.2,4.8-4.8,4.8Z" style="fill:#fff; stroke-width:0px;"/><path d="M500.1,59l3.6-3.2c.5-.5.9-.9,1.2-1.2s.5-.6.7-1c.2-.3.3-.6.3-1s0-.6-.2-.9c-.2-.3-.4-.5-.6-.6-.3-.1-.6-.2-.9-.2s-.7,0-1,.2c-.3.2-.5.4-.7.8-.2.4-.3.8-.3,1.4h-2c0-.8.1-1.4.4-2.1s.7-1.2,1.3-1.6c.6-.4,1.3-.6,2.2-.6s1.5.2,2,.5c.6.3,1,.7,1.3,1.3.3.5.5,1.1.5,1.8s0,.9-.2,1.3-.4.8-.7,1.2c-.3.4-.7.8-1.2,1.2l-2.7,2.4.9-.2h4.1v1.7h-8v-1.1Z" style="fill:#fff; stroke-width:0px;"/><path d="M513.8,60.4c-1,0-1.9-.3-2.6-.8s-1.2-1.2-1.6-2c-.4-.9-.5-1.8-.5-2.9s.2-2.1.5-2.9c.4-.9.9-1.6,1.6-2.1.7-.5,1.5-.8,2.5-.8s2,.3,2.7.8,1.2,1.2,1.5,2.1.5,1.8.5,2.8-.2,2-.5,2.9-.9,1.5-1.6,2.1-1.6.8-2.6.8ZM513.8,58.5c.5,0,1-.2,1.4-.5.4-.3.7-.8.9-1.4.2-.6.3-1.3.3-2s-.1-1.4-.3-2c-.2-.6-.5-1-.9-1.4s-.9-.5-1.5-.5-1,.2-1.4.5c-.4.3-.7.8-.9,1.4-.2.6-.3,1.3-.3,2s.1,1.4.3,2c.2.6.5,1,.9,1.4.4.3.9.5,1.4.5Z" style="fill:#fff; stroke-width:0px;"/><path d="M519.6,59l3.6-3.2c.5-.5.9-.9,1.2-1.2s.5-.6.7-1c.2-.3.3-.6.3-1s0-.6-.2-.9c-.2-.3-.4-.5-.6-.6-.3-.1-.6-.2-.9-.2s-.7,0-1,.2c-.3.2-.5.4-.7.8-.2.4-.3.8-.3,1.4h-2c0-.8.1-1.4.4-2.1s.7-1.2,1.3-1.6c.6-.4,1.3-.6,2.2-.6s1.5.2,2,.5c.6.3,1,.7,1.3,1.3.3.5.5,1.1.5,1.8s0,.9-.2,1.3-.4.8-.7,1.2c-.3.4-.7.8-1.2,1.2l-2.7,2.4.9-.2h4.1v1.7h-8v-1.1Z" style="fill:#fff; stroke-width:0px;"/><path d="M532.8,60.4c-.7,0-1.3-.1-1.9-.4-.6-.2-1.1-.6-1.5-1.2s-.6-1.2-.7-2.1h1.9c0,.4.2.8.4,1,.2.3.5.5.8.6.3.1.6.2.9.2s.7,0,1.1-.3c.3-.2.6-.4.7-.7.2-.3.3-.6.3-1s0-.7-.3-1-.5-.5-.8-.6c-.4-.1-.8-.2-1.3-.2h-2.2s-.9-.7-.9-.7l.7-4.8h6v1.6h-4.3l-.3,2.5h1.6c.8,0,1.5.1,2,.4.6.3,1,.6,1.3,1.1.3.5.5,1.1.5,1.8s-.2,1.3-.5,1.9c-.3.6-.8,1-1.4,1.4-.6.4-1.3.5-2.1.5Z" style="fill:#fff; stroke-width:0px;"/><rect x="261.8" y="100.6" width="290.2" height="54" style="fill:#fff; stroke-width:0px;"/><path d="M394.2,117.7v10.5c0,4.8-2.7,7.3-8.2,7.4h-9.2c-5.8,0-8.8-2.6-8.8-8s.2-3.5.7-5.7l4.7.6c-.2,1.7-.4,2.7-.4,3.5,0,2.7,1.6,3.8,5.1,3.8h7.7c2,0,3-1.1,3-3.6v-7.8s5.5-.7,5.5-.7ZM378.1,119.7l-3.7-3.7,3.6-3.6,2.8,2.7,2.7-2.7,3.7,3.6-3.6,3.7-2.8-2.7-2.8,2.7Z" style="fill:#171a23; stroke-width:0px;"/><path d="M398.5,128.1v-17.6s5.5-.6,5.5-.6v16.3c0,2.5,1,3.6,3,3.6s.4.1.4.4v5.1c0,.2-.1.4-.3.4-5.7,0-8.5-2.5-8.5-7.5Z" style="fill:#171a23; stroke-width:0px;"/><path d="M419.5,130.1v5.1c0,.2-.1.4-.4.4-2.1,0-3.9-.8-5.4-2.3-1.4,1.5-3.7,2.3-6.8,2.3s-.4-.2-.4-.4v-5.1c0-.2.2-.4.4-.4,2,0,2.9-1.1,2.9-3.6v-4.2s5.5-.6,5.5-.6v7.4c1.1.6,2.2,1,3.7,1s.4.1.4.4ZM412.8,119.1l-3.7-3.6,3.7-3.6,3.7,3.6-3.6,3.6Z" style="fill:#171a23; stroke-width:0px;"/><path d="M441.7,130.1v5.1c0,.2-.1.4-.4.4h-.6c-2.7,0-4.7-1.3-5.6-3.6-5.4,2.6-9.8,3.6-16.1,3.6s-.4-.2-.4-.4v-5.1c0-.2.2-.4.4-.4,6.7,0,10.3-.6,14.6-2.2-4.7-3.2-6.6-4.2-9-4.2s-1.9.2-3.4.5l-1-4.9c2-.8,3.6-1.2,5.1-1.2,3.1,0,5.8,1.3,13.9,7l-.9,4.6c.6.2,1.3.4,2.4.4h.6c.2,0,.4.1.4.4ZM430.7,136.9l3.7,3.6-3.6,3.6-3.7-3.6,3.7-3.6Z" style="fill:#171a23; stroke-width:0px;"/><path d="M462.7,130.1v5.1c0,.2-.1.4-.4.4-3.9,0-6.8-.7-9.5-2.3-3.5,1.7-6.2,2.3-11.5,2.3-.2,0-.4-.2-.4-.4v-5.1c0-.2.1-.4.4-.4,1.9,0,3.4,0,4.8-.2-1.3-1.8-2.6-3.7-3.9-6.3l1.8-4.3c3.4-1.7,6.1-2.4,8.7-2.4,4.9,0,8.3,2.7,8.3,6.8s-.8,4.2-3,6.2c1.2.2,2.5.2,4.2.2s.4.1.4.4ZM447.3,122.9c1.4,3,2.6,4.8,4.4,6.5,2.9-1.1,4.4-2.8,4.4-4.4s-1.6-3.2-4-3.2c-1.4,0-2.9.3-4.8,1Z" style="fill:#171a23; stroke-width:0px;"/><path d="M480.7,125.9c0,5.9-3.9,9.6-10.1,9.6h-8.1c-.2,0-.4-.1-.4-.4v-5.1c0-.2.1-.4.4-.4h2.2c-.7-1.4-1.1-2.7-1.1-4.1,0-4.8,3.6-8.2,8.4-8.2s8.7,3.6,8.7,8.5ZM475.2,125.9c0-1.9-1.4-3.2-3.3-3.2s-3.4,1.5-3.4,3.5.4,2.3,1,3.6h1.1c2.9,0,4.5-1.5,4.5-3.8Z" style="fill:#171a23; stroke-width:0px;"/><rect x="46.5" y="100.6" width="246.2" height="54" style="fill:#ee304c; stroke-width:0px;"/><path d="M98.1,113.2h12.1c3.7,0,6.5.7,8.5,2.2s3,3.6,3,6.4-1,4.9-3,6.4-4.8,2.2-8.5,2.2h-5.3v7.2h-6.7v-24.5ZM113.3,124.6c.8-.7,1.2-1.6,1.2-2.7s-.4-2.1-1.2-2.8c-.8-.7-2-1-3.5-1h-5v7.4h5c1.5,0,2.7-.3,3.5-1Z" style="fill:#fff; stroke-width:0px;"/><path d="M134.2,131.8h-.2c0,.9-.2,1.9-.7,2.8-.4,1-1.1,1.8-2.1,2.5-1,.7-2.3,1.1-3.9,1.1s-3.4-.5-4.5-1.4-1.6-2.2-1.6-3.8.7-3.2,2-4c1.3-.9,3.1-1.3,5.2-1.3s3.9.2,5.5.5v-.3c0-2-1.3-3-3.8-3s-4.2.4-6.4,1.3l-.5-5c1-.4,2.2-.8,3.5-1,1.3-.3,2.6-.4,3.9-.4,3.2,0,5.6.7,7.1,2,1.5,1.3,2.3,3.2,2.3,5.6v10.4h-4.2l-1.6-5.9ZM128.1,133.1c.5.3,1.1.5,1.8.5s1.9-.3,2.7-.8c.8-.5,1.3-1.4,1.4-2.6v-.4c-1.1-.1-2.1-.2-3-.2s-2.1.2-2.7.5c-.6.3-.9.9-.9,1.5s.2,1,.7,1.4Z" style="fill:#fff; stroke-width:0px;"/><path d="M144.8,121.1c1.5-.9,3.6-1.4,6.4-1.4s2.8.1,4.1.3c1.3.2,2.4.5,3.3,1l-.3,4.9c-1-.4-2-.8-3.2-1-1.2-.2-2.4-.4-3.5-.4s-1.4,0-1.8.3-.6.5-.6.9.2.7.6.9c.4.2,1.2.4,2.4.6,2.6.4,4.4,1,5.6,1.8,1.2.9,1.7,2,1.7,3.5s-.8,3.1-2.4,4.1c-1.6,1-3.8,1.5-6.8,1.5s-2.9-.1-4.3-.4c-1.4-.2-2.5-.6-3.6-1l.3-5.2c1.2.6,2.4,1,3.7,1.3,1.3.3,2.5.5,3.7.5s1.6-.1,2-.3c.4-.2.7-.6.7-1s-.2-.8-.7-1.1c-.5-.3-1.2-.5-2.3-.7-2.7-.4-4.5-1-5.6-1.8-1.1-.8-1.7-2-1.7-3.5s.8-3,2.3-3.9Z" style="fill:#fff; stroke-width:0px;"/><path d="M171.5,138.2c-2.7,0-4.7-.6-6.2-1.8-1.5-1.2-2.2-3.1-2.2-5.7v-5.7h-3v-4.8h3.6l-.7-5.1h7l-2.2,5.1h7.8v4.8h-6.4v5.5c0,1,.3,1.7.9,2.1s1.4.6,2.5.6,2-.1,3-.4l.2,4.9c-1,.3-2.4.5-4.2.5Z" style="fill:#fff; stroke-width:0px;"/><path d="M182.2,120.2l1.7,7.3h.2c0-2.2.5-4.1,1.2-5.6.8-1.5,2-2.3,3.8-2.3s1.7.2,2.7.5l-.3,5.9c-1.2-.5-2.3-.7-3.3-.7-2.7,0-4.1,2-4.1,6v6.3h-6.1v-17.4h4.2Z" style="fill:#fff; stroke-width:0px;"/><path d="M200.8,137.7h-6.1v-12.5h-1.7v-4.9h7.8v17.4ZM194.6,117.4c-.6-.5-.9-1.1-.9-2s.3-1.5.9-2c.6-.5,1.5-.7,2.5-.7s1.9.2,2.5.7c.6.5.9,1.1.9,2s-.3,1.5-.9,2c-.6.5-1.5.7-2.5.7s-1.9-.2-2.5-.7Z" style="fill:#fff; stroke-width:0px;"/><path d="M208.9,137.2c-1.6-.7-2.9-1.7-3.9-3.1-1-1.4-1.4-3.1-1.4-5.2s.4-3.6,1.2-5c.8-1.4,2-2.5,3.5-3.2,1.5-.7,3.3-1.1,5.4-1.1,3.1,0,5.5.7,7.2,2.2,1.7,1.5,2.6,3.6,2.6,6.2s0,1.4-.2,1.9h-13.6c.2,1.2.8,2,1.6,2.6.9.5,2,.8,3.4.8s1.8-.1,2.8-.3c1-.2,1.8-.6,2.6-1l.3,4.9c-.8.3-1.7.6-2.8.8s-2.2.3-3.3.3c-2,0-3.9-.3-5.5-1ZM217.7,127.9c0-1-.5-1.9-1.2-2.5-.7-.6-1.6-.9-2.7-.9s-2,.3-2.8,1c-.7.7-1.2,1.6-1.4,2.8l8-.5Z" style="fill:#fff; stroke-width:0px;"/><path d="M227,121.1c1.5-.9,3.6-1.4,6.4-1.4s2.8.1,4.1.3c1.3.2,2.4.5,3.3,1l-.3,4.9c-1-.4-2-.8-3.2-1-1.2-.2-2.4-.4-3.5-.4s-1.4,0-1.8.3-.6.5-.6.9.2.7.6.9c.4.2,1.2.4,2.4.6,2.6.4,4.4,1,5.6,1.8,1.2.9,1.7,2,1.7,3.5s-.8,3.1-2.4,4.1c-1.6,1-3.8,1.5-6.8,1.5s-2.9-.1-4.3-.4c-1.4-.2-2.5-.6-3.6-1l.3-5.2c1.2.6,2.4,1,3.7,1.3,1.3.3,2.5.5,3.7.5s1.6-.1,2-.3c.4-.2.7-.6.7-1s-.2-.8-.7-1.1c-.5-.3-1.2-.5-2.3-.7-2.7-.4-4.5-1-5.6-1.8-1.1-.8-1.7-2-1.7-3.5s.8-3,2.3-3.9Z" style="fill:#fff; stroke-width:0px;"/><polygon points="338.7 100 323.5 114.7 329.2 91.1 338.7 100" style="fill:#171a23; stroke-width:0px;"/><polygon points="529.4 157.4 514.2 142.8 519.9 166.3 529.4 157.4" style="fill:#171a23; stroke-width:0px;"/><path d="M272.5,764.2h-3.5l-4.5-8.9h4.2l3.9,8.4h.1l4-8.4h4.2l-7,13.7h-3.7l2.3-4.8Z" style="fill:#fff; stroke-width:0px;"/><path d="M282.6,755.4h7.3l4.6,13.7h-4.1l-.8-2.8h-6.5l-.8,2.8h-4.1l4.6-13.7ZM288.7,763.6l-2.4-7.9h0l-2.4,7.9h4.9Z" style="fill:#fff; stroke-width:0px;"/><path d="M299.2,755.4v10.6h7.6v3h-11.4v-13.7h3.8Z" style="fill:#fff; stroke-width:0px;"/><path d="M311.8,755.4v10.6h7.6v3h-11.4v-13.7h3.8Z" style="fill:#fff; stroke-width:0px;"/><path d="M324.5,755.4h7.3l4.6,13.7h-4.1l-.8-2.8h-6.5l-.8,2.8h-4.1l4.6-13.7ZM330.6,763.6l-2.4-7.9h0l-2.4,7.9h4.9Z" style="fill:#fff; stroke-width:0px;"/><path d="M242.3,774.1l4.4,13.4h0v-13.4h3.7v13.7h-7.4l-4.4-13.5h0v13.5h-3.7v-13.7h7.4Z" style="fill:#fff; stroke-width:0px;"/><path d="M264.4,774.1v3h-8.1v2.5h6.2v2.6h-6.2v2.5h8.3v3h-12.1v-13.7h11.8Z" style="fill:#fff; stroke-width:0px;"/><path d="M273.5,780.9l-4,6.9h-4.3l4.6-7-4.3-6.7h4.3l3.8,6.5,3.8-6.5h4.3l-4.3,6.7,4.6,7h-4.3l-4-6.9Z" style="fill:#fff; stroke-width:0px;"/><path d="M286.6,777.1h-4.6v-3h12.9v3h-4.6v10.6h-3.8v-10.6Z" style="fill:#fff; stroke-width:0px;"/><path d="M303.8,774.1v10.6h7.6v3h-11.4v-13.7h3.8Z" style="fill:#fff; stroke-width:0px;"/><path d="M324.3,774.1v3h-8.1v2.5h6.2v2.6h-6.2v2.5h8.3v3h-12.1v-13.7h11.8Z" style="fill:#fff; stroke-width:0px;"/><path d="M336.9,787.7h-7.6l-4.4-13.7h4.1l4.1,13.4h0l4-13.4h4.1l-4.4,13.7Z" style="fill:#fff; stroke-width:0px;"/><path d="M354.2,774.1v3h-8.1v2.5h6.2v2.6h-6.2v2.5h8.3v3h-12.1v-13.7h11.8Z" style="fill:#fff; stroke-width:0px;"/><path d="M359.4,774.1v10.6h7.6v3h-11.4v-13.7h3.8Z" style="fill:#fff; stroke-width:0px;"/><path d="M339.1,756.1h-1.3v-.7h3.5v.7h-1.3v3.8h-.8v-3.8Z" style="fill:#fff; stroke-width:0px;"/><path d="M341.9,755.4h.7l1.5,2.1h0s1.6-2.1,1.6-2.1h.7v4.5h-.8v-3.2l-1.3,1.8h-.2l-1.3-1.8v3.2h-.8v-4.5Z" style="fill:#fff; stroke-width:0px;"/></svg>