<?xml version="1.0" encoding="UTF-8"?><svg id="Layer_1" xmlns="http://www.w3.org/2000/svg" xmlns:xlink="http://www.w3.org/1999/xlink" viewBox="0 0 597.1 841.3"><defs><clipPath id="clippath"><rect x="-.4" y="-1.5" width="597.1" height="841.3" style="fill:none; stroke-width:0px;"/></clipPath></defs><rect x="-.6" y="-3.5" width="597.3" height="844.7" style="fill:#171a23; stroke-width:0px;"/><path d="M150.5,423.8c.4-.3.9-.4,1.5-.4s.8,0,1.1.2c.3.1.6.3.9.6.2.3.4.6.5,1.1h1.6c-.1-.7-.4-1.3-.8-1.8-.4-.5-.9-.9-1.5-1.1s-1.2-.4-1.8-.4-1.6.2-2.2.6-1.2.9-1.6,1.6c-.4.7-.6,1.4-.6,2.2s.2,1.5.6,2.2c.4.7.9,1.2,1.6,1.6s1.4.6,2.2.6,1.2-.1,1.8-.4c.6-.2,1.1-.6,1.5-1.1.4-.5.7-1.1.8-1.8h-1.6c-.1.4-.3.8-.5,1.1-.2.3-.5.5-.9.6-.3.1-.7.2-1.1.2s-1-.1-1.5-.4c-.4-.2-.8-.6-1-1-.3-.5-.4-1-.4-1.6s.1-1.1.4-1.6c.3-.5.6-.8,1-1.1Z" style="fill:#ee304c; stroke-width:0px;"/><path d="M151.9,418.9c-4.2,0-7.6,3.4-7.6,7.6s3.4,7.6,7.6,7.6,7.6-3.4,7.6-7.6-3.4-7.6-7.6-7.6ZM151.9,432.9c-3.6,0-6.5-2.9-6.5-6.5s2.9-6.5,6.5-6.5,6.5,2.9,6.5,6.5-2.9,6.5-6.5,6.5Z" style="fill:#ee304c; stroke-width:0px;"/><path d="M88.7,432.3l4.8-4.3c.7-.6,1.2-1.2,1.7-1.6.4-.4.7-.9,1-1.3.2-.4.3-.9.3-1.3s-.1-.8-.3-1.2c-.2-.4-.5-.6-.9-.8-.4-.2-.8-.3-1.2-.3s-.9.1-1.3.3c-.4.2-.7.6-1,1-.2.5-.4,1.1-.4,1.8h-2.7c0-1,.2-1.9.6-2.8.4-.9.9-1.5,1.7-2.1.8-.5,1.8-.8,2.9-.8s2,.2,2.7.6c.8.4,1.4,1,1.8,1.7.4.7.6,1.5.6,2.4s-.1,1.2-.3,1.8c-.2.6-.5,1.1-.9,1.6-.4.5-.9,1-1.5,1.6l-3.6,3.1,1.2-.3h5.5v2.3h-10.7v-1.5Z" style="fill:#ee304c; stroke-width:0px;"/><path d="M107.1,434.2c-1.4,0-2.5-.3-3.5-1-.9-.7-1.6-1.6-2.1-2.7-.5-1.1-.7-2.4-.7-3.8s.2-2.8.7-3.9c.5-1.2,1.2-2.1,2.2-2.8.9-.7,2.1-1,3.4-1s2.6.4,3.6,1.1c.9.7,1.6,1.6,2.1,2.8.4,1.2.7,2.4.7,3.8s-.2,2.7-.7,3.9c-.5,1.2-1.2,2.1-2.1,2.8s-2.1,1-3.4,1ZM107.1,431.7c.7,0,1.4-.2,1.9-.7s1-1,1.2-1.8c.3-.8.4-1.7.4-2.7s-.1-1.9-.4-2.7c-.3-.8-.7-1.4-1.2-1.8-.5-.4-1.2-.7-2-.7s-1.3.2-1.9.7c-.5.4-1,1.1-1.3,1.8-.3.8-.4,1.7-.4,2.7s.1,1.9.4,2.7.7,1.4,1.3,1.8c.5.4,1.2.7,1.9.7Z" style="fill:#ee304c; stroke-width:0px;"/><path d="M114.8,432.3l4.8-4.3c.7-.6,1.2-1.2,1.7-1.6.4-.4.7-.9,1-1.3.2-.4.3-.9.3-1.3s-.1-.8-.3-1.2c-.2-.4-.5-.6-.9-.8-.4-.2-.8-.3-1.2-.3s-.9.1-1.3.3c-.4.2-.7.6-1,1-.2.5-.4,1.1-.4,1.8h-2.7c0-1,.2-1.9.6-2.8.4-.9.9-1.5,1.7-2.1.8-.5,1.8-.8,2.9-.8s2,.2,2.7.6c.8.4,1.4,1,1.8,1.7.4.7.6,1.5.6,2.4s-.1,1.2-.3,1.8c-.2.6-.5,1.1-.9,1.6-.4.5-.9,1-1.5,1.6l-3.6,3.1,1.2-.3h5.5v2.3h-10.7v-1.5Z" style="fill:#ee304c; stroke-width:0px;"/><path d="M132.6,434.2c-.9,0-1.7-.2-2.5-.5-.8-.3-1.5-.9-2-1.6-.5-.7-.9-1.7-1-2.8h2.6c0,.6.3,1,.6,1.4.3.4.7.6,1.1.8.4.2.8.3,1.2.3s1-.1,1.4-.4c.4-.2.7-.6,1-1,.2-.4.3-.9.3-1.4s-.1-1-.4-1.3c-.3-.4-.6-.6-1.1-.8s-1-.3-1.7-.3h-3s-1.2-.9-1.2-.9l.9-6.4h8.1v2.2h-5.8l-.4,3.3h2.1c1.1,0,2,.2,2.7.5.8.4,1.4.9,1.8,1.5.4.7.6,1.4.6,2.4s-.2,1.7-.7,2.5c-.4.8-1.1,1.4-1.9,1.9-.8.5-1.8.7-2.8.7Z" style="fill:#ee304c; stroke-width:0px;"/><g style="clip-path:url(#clippath);"><g style="opacity:.7;"><path d="M411.5,976.6h-131.9v-.4c.2-1.5-.6-2.5-1.5-3.5-.3-.4-.6-.7-.8-1.1-28.6-42.5-59.2-88.2-99.5-148-1.5-2.2-2.5-4.2-2.7-6.9-2.5-44-4.9-83.4-7.2-120.4-.2-3.9.9-6.1,4.1-8.2,19.4-12.6,39.1-25.4,58.2-37.8,18.6-12.1,37.9-24.7,56.9-37,2.8-1.8,3.5-3.5,2.6-6.7-6.4-24.3-12.8-49-19-72.9-2.2-8.5-4.4-17.1-6.7-25.6-.5-2.1-.9-3.6-1.4-3.7-.5-.2-1.6.9-3.1,2.3l-70.5,66c-44.5,41.6-89,83.2-133.5,124.8-13.8,12.9-27.8,25.9-41.3,38.5-6.3,5.9-12.6,11.8-19,17.6l-.6.5v-.8c0-8.2,0-16.5,0-24.7,0-18.1,0-36.8,0-55.2,0-18.5,0-37.3,0-55.5,0-8,0-16,0-24v-.2s.1,0,.1,0l48.6-33.7c36.8-25.5,73.7-51.1,110.5-76.6l9.9-6.8c48.8-33.8,99.2-68.8,148.8-103.4,1.7-1.2,3.1-1.9,4.2-1.6,1.1.3,1.8,1.7,2.6,3.6,32.6,84.2,65.1,168,96.7,248.9,1.7,4.2,1,6.6-2.6,9.5-21.4,17.5-43,35.4-64,52.6-21.6,17.8-43.8,36.1-65.8,54.1-3,2.4-2.9,4-1,7.2,45.1,79.3,89.5,157.4,126.9,223.4.2.4.5.7.7,1.1.8,1.1,1.7,2.4,1.2,4.1v.2ZM280.2,976h130.7c.3-1.3-.5-2.3-1.2-3.3-.3-.4-.5-.8-.8-1.1-37.4-66-81.8-144.1-126.9-223.4-1.9-3.3-2.2-5.3,1.2-8,22-18,44.3-36.4,65.8-54.1,21-17.3,42.6-35.1,64-52.6,3.4-2.8,3.9-4.8,2.4-8.8-31.6-81-64.1-164.7-96.7-248.9-.8-2.1-1.4-3-2.2-3.2-.7-.2-1.8.2-3.6,1.5-49.5,34.5-100,69.5-148.8,103.4l-9.9,6.8c-36.8,25.5-73.7,51.1-110.5,76.6l-48.5,33.6c0,7.9,0,15.9,0,23.8,0,18.2,0,37,0,55.5,0,18.4,0,37.1,0,55.2,0,8,0,16,0,23.9,6.1-5.7,12.3-11.4,18.4-17.1,13.6-12.6,27.6-25.7,41.3-38.5,44.5-41.6,89-83.2,133.5-124.8l70.5-66c1.9-1.8,2.9-2.7,3.7-2.5.8.2,1.2,1.6,1.9,4.2,2.2,8.5,4.4,17.1,6.7,25.6,6.2,23.9,12.6,48.6,19,72.9.9,3.6.2,5.4-2.9,7.4-19,12.3-38.3,24.8-56.9,37-19.1,12.4-38.8,25.2-58.2,37.8-3,1.9-4,3.9-3.8,7.6,2.3,37,4.6,76.4,7.2,120.4.1,2.5,1.1,4.5,2.6,6.6,40.2,59.8,70.9,105.4,99.5,148,.2.4.5.7.8,1,.8,1,1.7,2.1,1.7,3.6Z" style="fill:#ee304c; stroke-width:0px;"/></g><g style="opacity:.7;"><path d="M465.4,569.6c-.3,0-.5,0-.7-.2-.9-.5-1.3-1.9-1.9-4.7l-91.9-397.8-16.6-72c-7.4-32-14.8-64-22.2-96-.1-.6-.2-1.3-.3-1.9,0-.3,0-.6-.1-.9v-.4c0,0,85.2,0,85.2,0v.3c1.4,7.2,2.8,14.5,4.2,21.7,3,15.6,6.1,31.8,9.2,47.7,8.6,44.5,17.2,88.9,25.9,133.4l14.6,75.3c4.4,22.5,8.7,45.1,13.1,67.6,5.8,29.7,11.5,59.4,17.3,89,1.4,7.4,2.9,14.7,4.4,22.2.7,3.3,1.3,6.7,2,10.1.5-.3,1-.5,1.4-.8,1.1-.6,2.1-1.1,3-1.7l21.2-12.2c22.1-12.8,44.2-25.5,66.3-38.3.3-.2.7-.4,1-.7,1-.7,2.2-1.6,3.8-1.2h.2v96.5h-.2c-6.9,2.6-13.5,5.9-20,9-2.4,1.2-4.9,2.4-7.4,3.6-24.9,11.6-50.1,23.6-74.5,35.1-10.9,5.2-21.8,10.3-32.8,15.4-2,.9-3.2,1.5-4.1,1.5ZM332.3-3.6c0,.2,0,.3,0,.5,0,.6.2,1.2.3,1.8,7.4,32,14.8,64,22.2,96l56.2,243.4,52.3,226.4c.6,2.4.9,3.9,1.6,4.2.7.3,2-.3,4.2-1.4,10.9-5.1,21.8-10.3,32.8-15.4,24.4-11.5,49.7-23.4,74.5-35.1,2.5-1.2,5-2.4,7.4-3.6,6.4-3.1,13-6.3,19.8-8.9v-95.5c-1.2-.2-2.1.4-3,1.1-.3.2-.7.5-1.1.7-22.1,12.7-44.2,25.5-66.3,38.3l-21.2,12.2c-1,.6-1.9,1.1-3,1.7-.6.3-1.1.6-1.8,1l-.4.2v-.4c-.8-3.6-1.5-7.1-2.2-10.6-1.5-7.5-2.9-14.9-4.4-22.2-5.8-29.7-11.5-59.4-17.3-89-4.4-22.5-8.7-45.1-13.1-67.6l-14.6-75.3c-8.6-44.5-17.3-88.9-25.9-133.4-3.1-15.9-6.2-32.1-9.2-47.7-1.4-7.2-2.7-14.3-4.1-21.5h-83.9Z" style="fill:#ee304c; stroke-width:0px;"/></g><path d="M484.8,976.3c.2-12.9-1.5-25.7-2.2-38.5-1.2-20.1-2.8-40.2-4.2-60.3-2.1-30.3-4.2-60.7-6.3-91-1.6-23.5-3.2-47-4.9-70.6-1.5-21.5-2.9-43-4.6-64.5-.3-3.4.4-5.2,3.8-6.6,45.9-19.5,91.8-39.2,137.6-58.9v92.3c-.5,0-1,0-1.4.1-21.1,9-42.2,18-63.3,26.9-2,.8-2.4,2-2.2,3.9,2,20.2,3.9,40.5,5.8,60.7,2.7,28.1,5.3,56.2,8,84.3,2.4,25.2,4.8,50.3,7.1,75.5,1.4,15.6,2.7,31.2,4.1,46.8h-77.3Z" style="fill:#ee304c; stroke-width:0px;"/><path d="M-5,822.7c15.4-12.6,30.8-25.1,46.2-37.7,26.3-21.6,52.5-43.2,78.7-64.8.8-.7,1.7-1.3,2.9-2.1.9,2,.5,3.8.4,5.6-1.8,34.7-3.6,69.5-5.5,104.2-.4,8.2-.8,16.4-1.6,24.6-.4,4.5.8,7.9,3.5,11.4,28.4,36.1,56.6,72.4,84.9,108.6.9,1.2,1.8,2.5,2.7,3.8H78.7c0-1.8-1.1-3.2-1.8-4.7-9.4-19.7-18.8-39.4-28.3-59.1-1.1-2.2-1.3-4.2-.7-6.6,2.2-8.7,4.3-17.4,6.2-26.2,2.9-13.1,6.7-26.1,8.9-39.4,0-.2.2-.4.3-.6-.2,0-.4.2-.7.2-9.9,6.6-18.8,14.6-28.2,21.8-13.2,10.2-26.3,20.5-39.4,30.8,0-23.3,0-46.6,0-69.9Z" style="fill:#ee304c; stroke-width:0px;"/><path d="M604,281.1c-8.5,5.7-15.6,13.1-23.5,19.5-3.1,2.5-6.1,5.2-9.9,8.5-1.3-8.2-2.6-15.7-3.8-23.2-6.1-38.6-12.1-77.1-18.2-115.7-6.1-38.6-12.1-77.1-18.2-115.7-3.1-19.4-6.1-38.9-9.2-58.3,27.6,0,55.2-.1,82.8-.2v285.2Z" style="fill:#ee304c; stroke-width:0px;"/><g style="opacity:.7;"><path d="M-5.3,533v-101s.1,0,.1,0c.4-.2.7-.5,1.1-.7.8-.5,1.6-1,2.3-1.6l47.5-35.7c59.5-44.6,121-90.8,181.5-136.1,2.9-2.2,3.6-3.9,2.7-7.3-9.7-39.2-19.5-79-28.9-117.6l-1.3-5.3c-7.6-31.1-15.2-62.3-22.8-93.4l-9.4-38.5h91.6s0,.3,0,.3l5.1,26.2c3.8,19.6,7.7,39.1,11.5,58.7,15.1,76.6,28.7,145.6,42.5,214.9.5,2.7.3,4.6-2.4,6.5-91.9,65.9-185.3,133-275.6,197.9l-45,32.3c-.1,0-.2.1-.3.2l-.6.3ZM-4.7,432.4v99.6s44.9-32.3,44.9-32.3c90.3-64.9,183.7-132,275.6-197.9,2.4-1.7,2.6-3.3,2.1-5.9-13.8-69.3-27.4-138.3-42.5-214.9-3.9-19.6-7.7-39.1-11.5-58.7l-5.1-25.9h-90.3s9.2,37.7,9.2,37.7c7.6,31.1,15.2,62.3,22.8,93.4l1.3,5.3c9.4,38.5,19.2,78.4,28.9,117.6.9,3.6.1,5.6-3,8-60.5,45.3-122.1,91.5-181.5,136.1L-1.3,430.2c-.8.6-1.6,1.1-2.4,1.6-.3.2-.6.4-1,.6Z" style="fill:#ee304c; stroke-width:0px;"/></g><g style="opacity:.7;"><path d="M429.6,887.5l-38.3-62.3c-12.7-20.7-25.8-42.1-38.8-63.1-1.6-2.5-1.9-4.3.8-6.6,15.9-13.7,32-27.7,47.6-41.3,5.9-5.1,11.8-10.3,17.8-15.4.4-.3.8-.6,1.3-1,.3-.2.7-.5,1.2-.8l.5-.3,9.3,190.4-1.4.4ZM421.2,697.9c-.3.2-.5.4-.8.5-.6.4-.9.6-1.3.9-5.9,5.1-11.8,10.3-17.8,15.4-15.6,13.6-31.7,27.6-47.6,41.3-2.4,2-2.1,3.4-.7,5.7,13,21,26.1,42.4,38.8,63.1l38,61.9h.5c0-.1-9.2-188.8-9.2-188.8Z" style="fill:#ee304c; stroke-width:0px;"/></g><path d="M62.6,840c.2,0,.4-.2.7-.2,0,.2-.2.4-.3.6-.1-.1-.3-.2-.4-.4Z" style="fill:#35bebc; stroke-width:0px;"/><path d="M70.4-3.9c19.7,74.1,39.4,148.3,59.3,222.4,1,3.8.3,5.6-3.2,7.6-41.7,23.6-83.3,47.4-124.9,71.1-2.2,1.2-4.3,2.4-6.5,3.5,0-28.9,0-57.9,0-86.8,14.8-13,29.6-26,44.5-38.9,2.2-1.9,1.3-3.4.5-5.2-9.1-21.1-18.1-42.2-27.1-63.3-5.9-13.7-11.9-27.3-17.8-40.9,0-22.3,0-44.6-.2-67,0-2.5,1.1-2.7,3.1-2.7,24.2,0,48.3.1,72.5.2Z" style="fill:#ee304c; stroke-width:0px;"/></g><g id="f"><path d="M134,595.5v-3.9h1.3l.2-1.5h-1.5v-1c0-.4.1-.7.8-.7h.8v-1.4c-.1,0-.6,0-1.2,0-1.2,0-2,.7-2,2v1.1h-1.3v1.5h1.3v3.9h1.6Z" style="fill:#ee2e4b; stroke-width:0px;"/></g><path d="M125.6,589.3c0-.5-.1-.8-.2-1.1-.1-.3-.3-.6-.5-.8-.2-.2-.5-.4-.8-.5-.3-.1-.6-.2-1.1-.2-.5,0-.7,0-1.9,0s-1.4,0-1.9,0c-.5,0-.8.1-1.1.2-.3.1-.6.3-.8.5-.2.2-.4.5-.5.8-.1.3-.2.6-.2,1.1,0,.5,0,.7,0,1.9s0,1.4,0,1.9c0,.5.1.8.2,1.1.1.3.3.6.5.8.2.2.5.4.8.5.3.1.6.2,1.1.2.5,0,.7,0,1.9,0s1.4,0,1.9,0c.5,0,.8-.1,1.1-.2.6-.2,1.1-.7,1.4-1.4.1-.3.2-.6.2-1.1,0-.5,0-.7,0-1.9s0-1.4,0-1.9ZM124.7,593.2c0,.5,0,.7-.2.9-.2.4-.5.7-.9.9-.2,0-.4.1-.9.2-.5,0-.6,0-1.9,0s-1.4,0-1.9,0c-.5,0-.7,0-.9-.2-.2,0-.4-.2-.5-.3-.2-.2-.3-.3-.3-.5,0-.2-.1-.4-.2-.9,0-.5,0-.6,0-1.9s0-1.4,0-1.9c0-.5,0-.7.2-.9,0-.2.2-.4.4-.5.2-.2.3-.3.5-.3.2,0,.4-.1.9-.2.5,0,.6,0,1.9,0s1.4,0,1.9,0c.5,0,.7,0,.9.2.2,0,.4.2.5.3.2.2.3.3.3.5,0,.2.1.4.2.9,0,.5,0,.6,0,1.9s0,1.4,0,1.9Z" style="fill:#ee2e4b; stroke-width:0px;"/><path d="M120.9,588.8c-1.3,0-2.4,1.1-2.4,2.4s1.1,2.4,2.4,2.4,2.4-1.1,2.4-2.4-1.1-2.4-2.4-2.4ZM120.9,592.8c-.9,0-1.6-.7-1.6-1.6s.7-1.6,1.6-1.6,1.6.7,1.6,1.6-.7,1.6-1.6,1.6Z" style="fill:#ee2e4b; stroke-width:0px;"/><path d="M123.4,588.2c-.3,0-.6.3-.6.6s.3.6.6.6.6-.3.6-.6-.3-.6-.6-.6Z" style="fill:#ee2e4b; stroke-width:0px;"/><path d="M146.7,595.4h0c-.3,0-3.4,0-4.3-.3-.6-.2-1.1-.6-1.2-1.2-.2-.8-.2-2.5-.2-2.6,0-.1,0-1.8.2-2.6,0,0,0,0,0,0,.2-.6.6-1.1,1.2-1.3,0,0,0,0,0,0,.9-.2,3.9-.3,4.3-.3h0c.3,0,3.4,0,4.3.3.6.2,1.1.6,1.2,1.2.2.9.2,2.5.2,2.7,0,.1,0,1.8-.2,2.6,0,0,0,0,0,0-.2.6-.6,1.1-1.2,1.2,0,0,0,0,0,0-.9.2-3.9.3-4.3.3h0ZM142.1,588.9c-.2.8-.2,2.4-.2,2.4h0c0,.5,0,1.8.2,2.4,0,.3.3.5.6.6.6.2,3.1.2,4,.2.9,0,3.4,0,4-.2.3,0,.5-.3.6-.6.2-.6.2-1.9.2-2.4,0,0,0,0,0,0,0-.5,0-1.8-.2-2.4,0,0,0,0,0,0,0-.3-.3-.5-.6-.6-.6-.2-3.1-.2-4-.2-.9,0-3.4,0-4,.2-.3,0-.5.3-.6.6ZM151.8,593.8h0,0ZM145.6,593.1v-3.6l3.1,1.8-3.1,1.8Z" style="fill:#ee2e4b; stroke-width:0px;"/><path d="M165.1,589.2c-.5,0-.9-.2-1.3-.4-.4-.3-.7-.8-.8-1.3,0-.1,0-.3,0-.4h-1.4v5.8c0,.5-.4,1-.9,1.2-.1,0-.3,0-.5,0-.2,0-.4,0-.6-.2-.4-.2-.6-.6-.6-1,0-.7.6-1.3,1.2-1.3s.3,0,.4,0v-1.4c-.1,0-.3,0-.4,0-.8,0-1.5.3-2,.9-.4.4-.6,1-.6,1.6,0,.8.2,1.5.8,2,0,0,.2.2.2.2.5.4,1,.5,1.6.5s.3,0,.4,0c.6,0,1.1-.3,1.5-.7.5-.5.8-1.1.8-1.8v-3.1c.2.2.5.3.8.4.4.2.9.3,1.4.3v-1.4s0,0,0,0h0Z" style="fill:#ee2e4b; stroke-width:0px;"/><path d="M173.3,587l4,7.5h0v-7.5h1.2v7.6h-2.5l-4-7.5h0v7.5h-1.2v-7.6h2.5Z" style="fill:#fff; stroke-width:0px;"/><path d="M186.1,587v1h-4.8v2.3h3.9v.9h-3.9v2.4h4.9v1h-6.2v-7.6h6Z" style="fill:#fff; stroke-width:0px;"/><path d="M190.8,590.7l-2.7,3.9h-1.4l2.9-3.9-2.7-3.7h1.4l2.5,3.7,2.5-3.7h1.4l-2.7,3.7,2.9,3.9h-1.4l-2.7-3.9Z" style="fill:#fff; stroke-width:0px;"/><path d="M197.8,588h-2.7v-1h6.7v1h-2.7v6.6h-1.3v-6.6Z" style="fill:#fff; stroke-width:0px;"/><path d="M206.1,587v6.6h4.5v1h-5.8v-7.6h1.3Z" style="fill:#fff; stroke-width:0px;"/><path d="M217.6,587v1h-4.8v2.3h3.9v.9h-3.9v2.4h4.9v1h-6.2v-7.6h6Z" style="fill:#fff; stroke-width:0px;"/><path d="M223.4,594.6h-2.5l-3-7.6h1.4l2.8,7.5h0l2.8-7.5h1.4l-3,7.6Z" style="fill:#fff; stroke-width:0px;"/><path d="M233.4,587v1h-4.8v2.3h3.9v.9h-3.9v2.4h4.9v1h-6.2v-7.6h6Z" style="fill:#fff; stroke-width:0px;"/><path d="M235.7,587v6.6h4.5v1h-5.8v-7.6h1.3Z" style="fill:#fff; stroke-width:0px;"/><path d="M244.8,593c.4.5,1,.8,1.8.8s1.2-.2,1.7-.6.6-.9.7-1.6h-2.1v-.9h3.4v4h-.8l-.4-3.1h0c0,1-.3,1.8-.8,2.4-.5.6-1.2.8-2.1.8s-1.2-.2-1.7-.5-.9-.8-1.1-1.3c-.3-.6-.4-1.3-.4-2.1,0-1.3.4-2.3,1.2-3,.8-.7,1.9-1.1,3.3-1.1s.9,0,1.4.1.9.2,1.3.4v1.1c-.4-.2-.8-.3-1.3-.4-.5-.1-.9-.2-1.4-.2-1,0-1.8.3-2.3.8s-.8,1.3-.8,2.2.2,1.6.6,2.1Z" style="fill:#fff; stroke-width:0px;"/><path d="M253.8,587h2.4l3.1,7.6h-1.4l-.7-1.8h-4.4l-.7,1.8h-1.4l3.1-7.6ZM256.9,591.8l-1.9-4.7h0l-1.9,4.7h3.7Z" style="fill:#fff; stroke-width:0px;"/><path d="M261.4,587.3h0v7.3h-1.2v-7.6h2.3l2.5,7.5h0l2.5-7.5h2.3v7.6h-1.2v-7.3h0l-2.5,7.3h-2.1l-2.5-7.3Z" style="fill:#fff; stroke-width:0px;"/><path d="M272.7,587v7.6h-1.3v-7.6h1.3Z" style="fill:#fff; stroke-width:0px;"/><path d="M276.7,587l4,7.5h0v-7.5h1.2v7.6h-2.5l-4-7.5h0v7.5h-1.2v-7.6h2.5Z" style="fill:#fff; stroke-width:0px;"/><path d="M285.1,593c.4.5,1,.8,1.8.8s1.2-.2,1.7-.6.6-.9.7-1.6h-2.1v-.9h3.4v4h-.8l-.4-3.1h0c0,1-.3,1.8-.8,2.4-.5.6-1.2.8-2.1.8s-1.2-.2-1.7-.5-.9-.8-1.1-1.3c-.3-.6-.4-1.3-.4-2.1,0-1.3.4-2.3,1.2-3,.8-.7,1.9-1.1,3.3-1.1s.9,0,1.4.1.9.2,1.3.4v1.1c-.4-.2-.8-.3-1.3-.4-.5-.1-.9-.2-1.4-.2-1,0-1.8.3-2.3.8s-.8,1.3-.8,2.2.2,1.6.6,2.1Z" style="fill:#fff; stroke-width:0px;"/><path d="M295.8,592.9c.5.5,1.3.8,2.3.8s.9,0,1.3-.2.9-.3,1.3-.4v1.1c-.3.2-.8.3-1.2.4-.5,0-.9.1-1.3.1-1.4,0-2.5-.3-3.3-1-.8-.7-1.2-1.7-1.2-2.9s.4-2.2,1.2-2.9c.8-.7,1.9-1,3.3-1s.9,0,1.3.1c.5,0,.9.2,1.3.4v1.1c-.5-.2-.9-.3-1.3-.4-.5,0-.9-.1-1.3-.1-1,0-1.8.3-2.3.8-.5.5-.8,1.2-.8,2.2s.3,1.6.8,2.1Z" style="fill:#fff; stroke-width:0px;"/><path d="M308,587v1h-4.8v2.3h3.9v.9h-3.9v2.4h4.9v1h-6.2v-7.6h6Z" style="fill:#fff; stroke-width:0px;"/><path d="M311.5,587l4,7.5h0v-7.5h1.2v7.6h-2.5l-4-7.5h0v7.5h-1.2v-7.6h2.5Z" style="fill:#fff; stroke-width:0px;"/><path d="M320.3,588h-2.7v-1h6.7v1h-2.7v6.6h-1.3v-6.6Z" style="fill:#fff; stroke-width:0px;"/><path d="M331.2,587v1h-4.8v2.3h3.9v.9h-3.9v2.4h4.9v1h-6.2v-7.6h6Z" style="fill:#fff; stroke-width:0px;"/><path d="M332.3,587h3.3c1,0,1.8.2,2.3.6.5.4.8,1,.8,1.7s-.2,1.2-.7,1.6c-.5.4-1.1.6-2,.7l2.9,3h-1.4l-3.7-3.8h1.8c.6,0,1.1-.1,1.4-.4.3-.2.5-.6.5-1.1s-.2-.8-.5-1.1c-.3-.2-.8-.4-1.4-.4h-2.1v6.7h-1.3v-7.6Z" style="fill:#fff; stroke-width:0px;"/><path d="M174.5,610.7c-.8,0-1.5-.2-2-.6-.6-.4-1-1-1.3-1.7s-.4-1.5-.4-2.4.2-1.7.5-2.4.7-1.3,1.3-1.7c.6-.4,1.2-.6,2-.6s1.5.2,2.1.7,1,1,1.3,1.7.4,1.5.4,2.4-.1,1.7-.4,2.4-.7,1.3-1.3,1.7c-.6.4-1.2.6-2,.6ZM174.5,609.7c.6,0,1-.2,1.4-.5s.7-.8.9-1.3.3-1.2.3-1.9-.1-1.3-.3-1.9c-.2-.6-.5-1-.9-1.4-.4-.3-.9-.5-1.5-.5s-1,.2-1.4.5c-.4.3-.7.8-1,1.4-.2.6-.3,1.2-.3,2s.1,1.3.3,1.9.5,1,.9,1.3.9.5,1.4.5Z" style="fill:#fff; stroke-width:0px;"/><path d="M184,602.3h-4.8v-.9h6.1v.6l-4.1,8.5h-1.1l4-8.2Z" style="fill:#fff; stroke-width:0px;"/><path d="M189.4,610.7c-.6,0-1.2-.1-1.7-.4-.5-.2-.9-.6-1.1-1s-.4-.9-.4-1.4,0-.8.2-1.1c.2-.3.4-.6.7-.9.3-.2.6-.4.9-.5-.3,0-.5-.2-.7-.4-.2-.2-.4-.4-.5-.7s-.2-.5-.2-.8c0-.5.1-.9.4-1.2.2-.4.6-.6,1-.8.4-.2.9-.3,1.4-.3s1,0,1.4.3c.4.2.7.5,1,.8.2.4.4.8.4,1.2s0,.6-.2.8c-.1.3-.3.5-.5.7-.2.2-.4.3-.7.4.4,0,.7.3,1,.5.3.2.5.5.7.9.2.3.2.7.2,1.1s-.1,1-.4,1.4c-.3.4-.7.7-1.1,1-.5.2-1,.4-1.7.4ZM189.4,609.8c.4,0,.8,0,1.1-.2.3-.2.6-.4.8-.7.2-.3.3-.6.3-1s0-.7-.3-1c-.2-.3-.5-.5-.8-.7-.3-.2-.7-.3-1.1-.3s-.8,0-1.1.3c-.3.2-.6.4-.8.7-.2.3-.3.6-.3,1s0,.7.3,1c.2.3.5.5.8.7.3.2.7.2,1.1.2ZM189.4,605.1c.3,0,.6,0,.8-.2.3-.1.5-.3.6-.5.1-.2.2-.5.2-.8s0-.5-.2-.7c-.1-.2-.3-.4-.6-.5s-.5-.2-.8-.2-.6,0-.9.2-.5.3-.6.5c-.1.2-.2.5-.2.7s0,.5.2.8c.1.2.3.4.6.5s.5.2.9.2Z" style="fill:#fff; stroke-width:0px;"/><path d="M198.1,608.4h-4.8v-.8c0,0,4.8-6.2,4.8-6.2h1.1v6.1h1.6v.9h-1.6v2.1h-1v-2.1ZM198.1,607.5v-4.8l-3.7,4.8h3.7Z" style="fill:#fff; stroke-width:0px;"/><path d="M205.3,610.7c-.8,0-1.5-.2-2-.6-.6-.4-1-1-1.3-1.7s-.4-1.5-.4-2.4.2-1.7.5-2.4.7-1.3,1.3-1.7c.6-.4,1.2-.6,2-.6s1.5.2,2.1.7,1,1,1.3,1.7.4,1.5.4,2.4-.1,1.7-.4,2.4-.7,1.3-1.3,1.7c-.6.4-1.2.6-2,.6ZM205.3,609.7c.6,0,1-.2,1.4-.5s.7-.8.9-1.3.3-1.2.3-1.9-.1-1.3-.3-1.9c-.2-.6-.5-1-.9-1.4-.4-.3-.9-.5-1.5-.5s-1,.2-1.4.5c-.4.3-.7.8-1,1.4-.2.6-.3,1.2-.3,2s.1,1.3.3,1.9.5,1,.9,1.3.9.5,1.4.5Z" style="fill:#fff; stroke-width:0px;"/><path d="M213.4,610.7c-.6,0-1.1-.1-1.6-.4-.5-.3-.9-.6-1.1-1.1s-.4-1-.4-1.5,0-.6.1-.9c0-.3.2-.6.4-.9s.4-.7.7-1.2l2.1-3.3h1.2l-2.4,3.7c.2-.1.4-.2.6-.3.2,0,.4-.1.6-.1.5,0,1,.1,1.4.4s.8.6,1.1,1.1.4.9.4,1.5-.1,1.1-.4,1.5-.6.8-1.1,1.1c-.5.3-1,.4-1.6.4ZM213.4,609.7c.4,0,.7,0,1-.3.3-.2.6-.4.7-.7.2-.3.3-.7.3-1s0-.7-.3-1c-.2-.3-.4-.6-.7-.7-.3-.2-.7-.3-1-.3s-.8.1-1.1.3c-.3.2-.5.5-.7.8s-.2.6-.2.9,0,.7.3,1c.2.3.4.5.7.7.3.2.7.3,1,.3Z" style="fill:#fff; stroke-width:0px;"/><path d="M220.8,610.7c-.6,0-1.1-.1-1.6-.4-.5-.3-.9-.6-1.1-1.1s-.4-1-.4-1.5,0-.6.1-.9c0-.3.2-.6.4-.9s.4-.7.7-1.2l2.1-3.3h1.2l-2.4,3.7c.2-.1.4-.2.6-.3.2,0,.4-.1.6-.1.5,0,1,.1,1.4.4s.8.6,1.1,1.1.4.9.4,1.5-.1,1.1-.4,1.5-.6.8-1.1,1.1c-.5.3-1,.4-1.6.4ZM220.8,609.7c.4,0,.7,0,1-.3.3-.2.6-.4.7-.7.2-.3.3-.7.3-1s0-.7-.3-1c-.2-.3-.4-.6-.7-.7-.3-.2-.7-.3-1-.3s-.8.1-1.1.3c-.3.2-.5.5-.7.8s-.2.6-.2.9,0,.7.3,1c.2.3.4.5.7.7.3.2.7.3,1,.3Z" style="fill:#fff; stroke-width:0px;"/><path d="M228.2,610.7c-.6,0-1.1-.1-1.6-.4-.5-.3-.9-.6-1.1-1.1s-.4-1-.4-1.5,0-.6.1-.9c0-.3.2-.6.4-.9s.4-.7.7-1.2l2.1-3.3h1.2l-2.4,3.7c.2-.1.4-.2.6-.3.2,0,.4-.1.6-.1.5,0,1,.1,1.4.4s.8.6,1.1,1.1.4.9.4,1.5-.1,1.1-.4,1.5-.6.8-1.1,1.1c-.5.3-1,.4-1.6.4ZM228.2,609.7c.4,0,.7,0,1-.3.3-.2.6-.4.7-.7.2-.3.3-.7.3-1s0-.7-.3-1c-.2-.3-.4-.6-.7-.7-.3-.2-.7-.3-1-.3s-.8.1-1.1.3c-.3.2-.5.5-.7.8s-.2.6-.2.9,0,.7.3,1c.2.3.4.5.7.7.3.2.7.3,1,.3Z" style="fill:#fff; stroke-width:0px;"/><path d="M235.6,610.7c-.6,0-1.1-.1-1.6-.4-.5-.3-.9-.6-1.1-1.1s-.4-1-.4-1.5,0-.6.1-.9c0-.3.2-.6.4-.9s.4-.7.7-1.2l2.1-3.3h1.2l-2.4,3.7c.2-.1.4-.2.6-.3.2,0,.4-.1.6-.1.5,0,1,.1,1.4.4s.8.6,1.1,1.1.4.9.4,1.5-.1,1.1-.4,1.5-.6.8-1.1,1.1c-.5.3-1,.4-1.6.4ZM235.6,609.7c.4,0,.7,0,1-.3.3-.2.6-.4.7-.7.2-.3.3-.7.3-1s0-.7-.3-1c-.2-.3-.4-.6-.7-.7-.3-.2-.7-.3-1-.3s-.8.1-1.1.3c-.3.2-.5.5-.7.8s-.2.6-.2.9,0,.7.3,1c.2.3.4.5.7.7.3.2.7.3,1,.3Z" style="fill:#fff; stroke-width:0px;"/><path d="M244.5,602.3h-4.8v-.9h6.1v.6l-4.1,8.5h-1.1l4-8.2Z" style="fill:#fff; stroke-width:0px;"/><path d="M249.9,610.7c-.6,0-1.1-.1-1.6-.4-.5-.3-.9-.6-1.1-1.1s-.4-1-.4-1.5,0-.6.1-.9c0-.3.2-.6.4-.9s.4-.7.7-1.2l2.1-3.3h1.2l-2.4,3.7c.2-.1.4-.2.6-.3.2,0,.4-.1.6-.1.5,0,1,.1,1.4.4s.8.6,1.1,1.1.4.9.4,1.5-.1,1.1-.4,1.5-.6.8-1.1,1.1c-.5.3-1,.4-1.6.4ZM249.9,609.7c.4,0,.7,0,1-.3.3-.2.6-.4.7-.7.2-.3.3-.7.3-1s0-.7-.3-1c-.2-.3-.4-.6-.7-.7-.3-.2-.7-.3-1-.3s-.8.1-1.1.3c-.3.2-.5.5-.7.8s-.2.6-.2.9,0,.7.3,1c.2.3.4.5.7.7.3.2.7.3,1,.3Z" style="fill:#fff; stroke-width:0px;"/><path d="M257.3,610.7c-.6,0-1.1-.1-1.6-.4-.5-.3-.9-.6-1.1-1.1s-.4-1-.4-1.5,0-.6.1-.9c0-.3.2-.6.4-.9s.4-.7.7-1.2l2.1-3.3h1.2l-2.4,3.7c.2-.1.4-.2.6-.3.2,0,.4-.1.6-.1.5,0,1,.1,1.4.4s.8.6,1.1,1.1.4.9.4,1.5-.1,1.1-.4,1.5-.6.8-1.1,1.1c-.5.3-1,.4-1.6.4ZM257.3,609.7c.4,0,.7,0,1-.3.3-.2.6-.4.7-.7.2-.3.3-.7.3-1s0-.7-.3-1c-.2-.3-.4-.6-.7-.7-.3-.2-.7-.3-1-.3s-.8.1-1.1.3c-.3.2-.5.5-.7.8s-.2.6-.2.9,0,.7.3,1c.2.3.4.5.7.7.3.2.7.3,1,.3Z" style="fill:#fff; stroke-width:0px;"/><path d="M107.2,453.2l11.6,35.5h.3v-35.5h9.7v36.3h-19.7l-11.7-35.7h-.2v35.7h-9.7v-36.3h19.6Z" style="fill:#fff; stroke-width:0px;"/><path d="M165.8,453.2v8.1h-21.5v6.5h16.4v6.9h-16.4v6.6h22.1v8.1h-32v-36.3h31.4Z" style="fill:#fff; stroke-width:0px;"/><path d="M189.8,471.2l-10.6,18.2h-11.5l12.1-18.6-11.5-17.7h11.5l10,17.3,10-17.3h11.5l-11.5,17.7,12.1,18.6h-11.5l-10.6-18.2Z" style="fill:#fff; stroke-width:0px;"/><path d="M224.5,461.3h-12.1v-8.1h34.3v8.1h-12.2v28.2h-10v-28.2Z" style="fill:#fff; stroke-width:0px;"/><path d="M270.1,453.2v28.2h20.2v8.1h-30.1v-36.3h10Z" style="fill:#fff; stroke-width:0px;"/><path d="M324.7,453.2v8.1h-21.5v6.5h16.4v6.9h-16.4v6.6h22.1v8.1h-32v-36.3h31.4Z" style="fill:#fff; stroke-width:0px;"/><path d="M358,489.5h-20.1l-11.8-36.3h10.9l10.8,35.6h.2l10.7-35.6h10.9l-11.8,36.3Z" style="fill:#fff; stroke-width:0px;"/><path d="M403.8,453.2v8.1h-21.5v6.5h16.4v6.9h-16.4v6.6h22.1v8.1h-32v-36.3h31.4Z" style="fill:#fff; stroke-width:0px;"/><path d="M417.7,453.2v28.2h20.2v8.1h-30.1v-36.3h10Z" style="fill:#fff; stroke-width:0px;"/><path d="M107.2,511.2l11.6,35.5h.3v-35.5h9.7v36.3h-19.7l-11.7-35.7h-.2v35.7h-9.7v-36.3h19.6Z" style="fill:#fff; stroke-width:0px;"/><path d="M142.9,546.1c-3.2-1.5-5.7-3.6-7.4-6.4-1.7-2.8-2.5-6.2-2.5-10.2s.8-7.4,2.5-10.3c1.7-2.9,4.2-5.1,7.4-6.6s7.1-2.3,11.7-2.3,8.4.8,11.6,2.3,5.7,3.7,7.4,6.6c1.7,2.9,2.5,6.3,2.5,10.3s-.8,7.4-2.5,10.2c-1.7,2.8-4.2,5-7.4,6.4-3.2,1.5-7.1,2.2-11.6,2.2s-8.4-.7-11.7-2.2ZM146.3,537.1c2,1.8,4.7,2.7,8.3,2.7s6.3-.9,8.2-2.7,2.9-4.4,2.9-7.6-1-5.9-2.9-7.7-4.7-2.8-8.2-2.8-6.3.9-8.3,2.8c-2,1.8-2.9,4.4-2.9,7.7s1,5.8,2.9,7.6Z" style="fill:#fff; stroke-width:0px;"/><path d="M200.6,511.2v28.2h20.2v8.1h-30.1v-36.3h10Z" style="fill:#fff; stroke-width:0px;"/><path d="M233.8,511.2v36.3h-10v-36.3h10Z" style="fill:#fff; stroke-width:0px;"/><path d="M249.6,513.6h-.3v33.9h-9.9v-36.3h18.5l6.6,35.6h.3l6.6-35.6h18.5v36.3h-9.9v-33.9h-.3l-6.6,33.9h-17l-6.6-33.9Z" style="fill:#fff; stroke-width:0px;"/><path d="M305.4,511.2v36.3h-10v-36.3h10Z" style="fill:#fff; stroke-width:0px;"/><path d="M320.6,519.3h-12.1v-8.1h34.3v8.1h-12.2v28.2h-10v-28.2Z" style="fill:#fff; stroke-width:0px;"/><path d="M368.8,519.4c-2.4-.4-5-.7-7.7-.7s-3.6.2-4.6.6c-.9.4-1.4,1.1-1.4,2.1s.5,1.6,1.6,2.2,3,1.2,5.7,1.8c3.8.8,6.8,1.7,9,2.6,2.3,1,4,2.1,5.1,3.6,1.1,1.4,1.7,3.2,1.7,5.4,0,3.7-1.5,6.5-4.6,8.4-3.1,1.9-7.3,2.8-12.8,2.8s-12.6-.9-16.7-2.7l.5-8.7c2,.9,4.5,1.6,7.3,2.2s5.8.9,8.8.9,4.3-.3,5.4-.8c1.1-.5,1.7-1.2,1.7-2.2s-.3-1.2-.8-1.7-1.4-.9-2.6-1.2c-1.2-.4-2.9-.8-5.1-1.3-5.1-1.1-8.8-2.5-11.2-4.1-2.4-1.7-3.6-4.1-3.6-7.2s1.4-6.3,4.3-8.2c2.9-1.9,7-2.9,12.3-2.9s10.4.8,14.5,2.4l-.6,8.5c-1.8-.8-3.9-1.4-6.3-1.9Z" style="fill:#fff; stroke-width:0px;"/><path d="M381.8,547.2c-1-.8-1.5-1.9-1.5-3.3s.5-2.5,1.5-3.3c1-.8,2.4-1.2,4.1-1.2s3.1.4,4.1,1.2c1,.8,1.5,1.9,1.5,3.3s-.5,2.5-1.5,3.3c-1,.8-2.3,1.2-4.1,1.2s-3.1-.4-4.1-1.2Z" style="fill:#fff; stroke-width:0px;"/><path d="M156.7,603.6c0-.2,0-.4.1-.6.3-.8,1-1.3,1.9-1.2,0,0,.2,0,.2.1.3.6.7,1.1,1,1.7.1.2,0,.4,0,.6-.2.2-.4.3-.6.5,0,0-.1.1-.2.2,0,.1-.1.2,0,.4.6,1.1,1.4,2,2.5,2.5.2,0,.3,0,.4,0,.1-.2.3-.3.4-.5,0-.1.2-.2.3-.3.2-.1.4-.1.6,0,.5.3,1,.6,1.5.8.2.1.3.3.3.5v.3s0,0,0,.1c-.1.5-.4.9-.9,1.1-.8.3-1.7.4-2.5,0-1.3-.5-2.3-1.3-3.2-2.3-.6-.7-1.1-1.5-1.4-2.4-.1-.3-.2-.7-.2-1,0-.2,0-.4,0-.6Z" style="fill:#ee304c; stroke-width:0px;"/></svg>