<?xml version="1.0" encoding="UTF-8"?><svg id="Layer_1" xmlns="http://www.w3.org/2000/svg" viewBox="0 0 595.3 841.9"><rect x="-1190.6" y="-1.4" width="7740.4" height="845.9" style="fill:#171a23; stroke-width:0px;"/><path d="M48.8,50h0v9.8h-2.9v-10.5h5.3l1.9,10.3h0l1.9-10.3h5.3v10.5h-2.9v-9.8h0l-1.9,9.8h-4.9l-1.9-9.8Z" style="fill:#fff; stroke-width:0px;"/><path d="M71.1,49.3v2.3h-6.2v1.9h4.7v2h-4.7v1.9h6.4v2.3h-9.2v-10.5h9.1Z" style="fill:#fff; stroke-width:0px;"/><path d="M77.9,49.3l3.4,10.2h0v-10.2h2.8v10.5h-5.7l-3.4-10.3h0v10.3h-2.8v-10.5h5.7Z" style="fill:#fff; stroke-width:0px;"/><path d="M95.2,58.8c-1,.8-2.4,1.2-4.2,1.2s-3.2-.4-4.2-1.2c-1-.8-1.5-2-1.5-3.5v-6h2.9v6c0,.8.2,1.4.7,1.8.5.4,1.1.6,2,.6s1.6-.2,2-.6c.5-.4.7-1,.7-1.8v-6h2.9v6c0,1.5-.5,2.7-1.5,3.5Z" style="fill:#fff; stroke-width:0px;"/><path d="M106.6,49.3l3.4,10.2h0v-10.2h2.8v10.5h-5.7l-3.4-10.3h0v10.3h-2.8v-10.5h5.7Z" style="fill:#fff; stroke-width:0px;"/><path d="M123.5,49.3v2.3h-6.2v1.9h4.7v2h-4.7v1.9h6.4v2.3h-9.2v-10.5h9.1Z" style="fill:#fff; stroke-width:0px;"/><path d="M130.5,54.5l-3.1,5.3h-3.3l3.5-5.4-3.3-5.1h3.3l2.9,5,2.9-5h3.3l-3.3,5.1,3.5,5.4h-3.3l-3.1-5.3Z" style="fill:#fff; stroke-width:0px;"/><path d="M140.5,51.6h-3.5v-2.3h9.9v2.3h-3.5v8.1h-2.9v-8.1Z" style="fill:#fff; stroke-width:0px;"/><path d="M153.7,49.3v8.1h5.8v2.3h-8.7v-10.5h2.9Z" style="fill:#fff; stroke-width:0px;"/><path d="M169.4,49.3v2.3h-6.2v1.9h4.7v2h-4.7v1.9h6.4v2.3h-9.2v-10.5h9.1Z" style="fill:#fff; stroke-width:0px;"/><path d="M179,59.8h-5.8l-3.4-10.5h3.2l3.1,10.3h0l3.1-10.3h3.2l-3.4,10.5Z" style="fill:#fff; stroke-width:0px;"/><path d="M192.3,49.3v2.3h-6.2v1.9h4.7v2h-4.7v1.9h6.4v2.3h-9.2v-10.5h9.1Z" style="fill:#fff; stroke-width:0px;"/><path d="M196.3,49.3v8.1h5.8v2.3h-8.7v-10.5h2.9Z" style="fill:#fff; stroke-width:0px;"/><path d="M542.6,53.4c.3-.2.7-.3,1.1-.3s.6,0,.8.2c.3.1.5.3.7.5.2.2.3.5.4.8h1.2c0-.5-.3-1-.6-1.4-.3-.4-.7-.6-1.1-.8s-.9-.3-1.3-.3-1.2.1-1.7.4-.9.7-1.2,1.2c-.3.5-.4,1.1-.4,1.7s.1,1.2.4,1.7c.3.5.7.9,1.2,1.2s1.1.4,1.7.4.9,0,1.3-.3c.4-.2.8-.5,1.1-.8.3-.4.5-.8.6-1.4h-1.2c0,.3-.2.6-.4.8-.2.2-.4.4-.7.5-.3.1-.5.2-.8.2s-.8,0-1.1-.3c-.3-.2-.6-.4-.8-.8-.2-.3-.3-.7-.3-1.2s0-.8.3-1.2c.2-.3.4-.6.8-.8Z" style="fill:#fff; stroke-width:0px;"/><path d="M543.7,49.8c-3.1,0-5.6,2.5-5.6,5.6s2.5,5.6,5.6,5.6,5.6-2.5,5.6-5.6-2.5-5.6-5.6-5.6ZM543.7,60.3c-2.7,0-4.8-2.2-4.8-4.8s2.2-4.8,4.8-4.8,4.8,2.2,4.8,4.8-2.2,4.8-4.8,4.8Z" style="fill:#fff; stroke-width:0px;"/><path d="M496.5,59.8l3.6-3.2c.5-.5.9-.9,1.2-1.2s.5-.6.7-1c.2-.3.3-.6.3-1s0-.6-.2-.9c-.2-.3-.4-.5-.6-.6-.3-.1-.6-.2-.9-.2s-.7,0-1,.2c-.3.2-.5.4-.7.8-.2.4-.3.8-.3,1.4h-2c0-.8.1-1.4.4-2.1s.7-1.2,1.3-1.6c.6-.4,1.3-.6,2.2-.6s1.5.2,2,.5c.6.3,1,.7,1.3,1.3.3.5.5,1.1.5,1.8s0,.9-.2,1.3-.4.8-.7,1.2c-.3.4-.7.8-1.2,1.2l-2.7,2.4.9-.2h4.1v1.7h-8v-1.1Z" style="fill:#fff; stroke-width:0px;"/><path d="M510.2,61.2c-1,0-1.9-.3-2.6-.8s-1.2-1.2-1.6-2c-.4-.9-.5-1.8-.5-2.9s.2-2.1.5-2.9c.4-.9.9-1.6,1.6-2.1.7-.5,1.5-.8,2.5-.8s2,.3,2.7.8,1.2,1.2,1.5,2.1.5,1.8.5,2.8-.2,2-.5,2.9-.9,1.5-1.6,2.1-1.6.8-2.6.8ZM510.2,59.4c.5,0,1-.2,1.4-.5.4-.3.7-.8.9-1.4.2-.6.3-1.3.3-2s-.1-1.4-.3-2c-.2-.6-.5-1-.9-1.4s-.9-.5-1.5-.5-1,.2-1.4.5c-.4.3-.7.8-.9,1.4-.2.6-.3,1.3-.3,2s.1,1.4.3,2c.2.6.5,1,.9,1.4.4.3.9.5,1.4.5Z" style="fill:#fff; stroke-width:0px;"/><path d="M515.9,59.8l3.6-3.2c.5-.5.9-.9,1.2-1.2s.5-.6.7-1c.2-.3.3-.6.3-1s0-.6-.2-.9c-.2-.3-.4-.5-.6-.6-.3-.1-.6-.2-.9-.2s-.7,0-1,.2c-.3.2-.5.4-.7.8-.2.4-.3.8-.3,1.4h-2c0-.8.1-1.4.4-2.1s.7-1.2,1.3-1.6c.6-.4,1.3-.6,2.2-.6s1.5.2,2,.5c.6.3,1,.7,1.3,1.3.3.5.5,1.1.5,1.8s0,.9-.2,1.3-.4.8-.7,1.2c-.3.4-.7.8-1.2,1.2l-2.7,2.4.9-.2h4.1v1.7h-8v-1.1Z" style="fill:#fff; stroke-width:0px;"/><path d="M529.2,61.2c-.7,0-1.3-.1-1.9-.4-.6-.2-1.1-.6-1.5-1.2s-.6-1.2-.7-2.1h1.9c0,.4.2.8.4,1,.2.3.5.5.8.6.3.1.6.2.9.2s.7,0,1.1-.3c.3-.2.6-.4.7-.7.2-.3.3-.6.3-1s0-.7-.3-1-.5-.5-.8-.6c-.4-.1-.8-.2-1.3-.2h-2.2s-.9-.7-.9-.7l.7-4.8h6v1.6h-4.3l-.3,2.5h1.6c.8,0,1.5.1,2,.4.6.3,1,.6,1.3,1.1.3.5.5,1.1.5,1.8s-.2,1.3-.5,1.9c-.3.6-.8,1-1.4,1.4-.6.4-1.3.5-2.1.5Z" style="fill:#fff; stroke-width:0px;"/><rect x="260.2" y="101.4" width="290.2" height="54" style="fill:#fff; stroke-width:0px;"/><path d="M338.4,133.4v4c0,.2-.1.3-.3.3-1.7,0-3.1-.3-4-1-1.7.9-3.1,1.3-4.7,1.3-3.9,0-6.7-3.1-6.7-7s2.8-7.3,6.7-7.3,1.8.2,2.8.5v-1.5l4.3-.5v9.2c0,1.2.6,1.7,1.6,1.7s.3.1.3.3ZM327.4,121.8l-2.9-2.9,2.9-2.9,2.2,2.1,2.2-2.1,2.9,2.9-2.8,2.9-2.2-2.2-2.2,2.2ZM332.3,133.2c0-.4,0-.8,0-1.2v-3.6c-.9-.3-1.7-.5-2.6-.5-1.8,0-2.9,1.2-2.9,2.9s1.1,2.7,2.7,2.8c1,0,2-.1,2.9-.5Z" style="fill:#171a23; stroke-width:0px;"/><path d="M349.1,133.4v4c0,.2-.1.3-.3.3-1.5,0-3.1-.7-4.4-2.1-1.3,1.4-3.5,2.1-6.4,2.1s-.3-.1-.3-.3v-4c0-.2.2-.3.3-.3,2.2,0,3.3-.8,3.3-2.8v-3.3s4.3-.5,4.3-.5v5.8c.9.6,2,.9,3.1.9s.3.1.3.3ZM345.4,139.1l2.9,2.9-2.9,2.9-2-2-2,2-2.9-2.9,2.9-2.9,2,2,2-2Z" style="fill:#171a23; stroke-width:0px;"/><path d="M365.6,133.4v4c0,.2-.1.3-.3.3-3.1,0-5.3-.6-7.5-1.8-2.7,1.4-4.9,1.8-9,1.8-.2,0-.3-.1-.3-.3v-4c0-.2.1-.3.3-.3,1.5,0,2.7,0,3.8-.2-1.1-1.4-2-2.9-3.1-5l1.4-3.4c2.7-1.3,4.8-1.9,6.8-1.9,3.9,0,6.5,2.1,6.5,5.3s-.7,3.3-2.3,4.9c.9.1,2,.2,3.3.2s.3.1.3.3ZM353.5,127.8c1.1,2.3,2.1,3.7,3.4,5.1,2.3-.8,3.5-2.2,3.5-3.4s-1.2-2.5-3.2-2.5c-1.1,0-2.3.2-3.7.8Z" style="fill:#171a23; stroke-width:0px;"/><path d="M376.4,133.4v4c0,.2-.1.3-.3.3-1.5,0-3.1-.7-4.4-2.1-1.3,1.4-3.5,2.1-6.4,2.1s-.3-.1-.3-.3v-4c0-.2.2-.3.3-.3,2.2,0,3.3-.8,3.3-2.8v-3.3s4.3-.5,4.3-.5v5.8c.9.6,2,.9,3.1.9s.3.1.3.3ZM372.8,139.1l2.9,2.9-2.9,2.9-2-2-2,2-2.9-2.9,2.9-2.9,2,2,2-2Z" style="fill:#171a23; stroke-width:0px;"/><path d="M386,133.4v4c0,.2-.1.3-.3.3-1.6,0-3.1-.6-4.2-1.8-1.1,1.2-2.9,1.8-5.3,1.8s-.3-.1-.3-.3v-4c0-.2.2-.3.3-.3,1.6,0,2.3-.9,2.3-2.8v-3.3s4.3-.5,4.3-.5v5.9c.8.5,1.7.8,2.9.8s.3.1.3.3ZM380.9,139.2l2.9,2.9-2.9,2.9-2.9-2.9,2.9-2.9Z" style="fill:#171a23; stroke-width:0px;"/><path d="M412.3,133.4v4c0,.2-.1.3-.3.3-1.7,0-3.2-.7-4.3-1.9-1.1,1.2-2.9,1.9-5.3,1.9h-16.6c-.2,0-.3-.1-.3-.3v-4c0-.2.2-.3.3-.3h2.1v-15.2l4.4-.5v8.7c5.2-2.5,7.8-3.3,10.5-3.3s6.5,2.6,6.4,6.5v2.5c0,0,0,.4,0,.4.9.6,1.8.9,3,.9s.3.1.3.3ZM404.7,129.8c0-1.5-1.2-2.5-3-2.5s-3.5.4-9.5,2.3v3.5h10.2c1.5,0,2.3-.8,2.3-2.3v-1Z" style="fill:#171a23; stroke-width:0px;"/><path d="M411.7,137.4v-4c0-.2.1-.3.3-.3,1.6,0,2.3-.9,2.3-2.9v-12.3s4.4-.5,4.4-.5v14.4c0,3.9-2.2,5.9-6.7,5.9s-.3-.1-.3-.3Z" style="fill:#171a23; stroke-width:0px;"/><path d="M422.6,118l4.3-.5v20.3h-4.3v-19.8Z" style="fill:#171a23; stroke-width:0px;"/><path d="M445.6,133.4v4c0,.2-.1.3-.3.3-1.2,0-2.2-.4-2.9-1.1v.5c0,4.8-2.6,6.6-7.9,6.6l-.3-3.5c2.2,0,3.9-.9,3.9-3.3v-12.7s4.3-.5,4.3-.5v7.5c.2,1.3,1.4,2,2.9,2s.3.1.3.3Z" style="fill:#171a23; stroke-width:0px;"/><path d="M450,124.2l4.3-.5v8.2c0,3.8-2.2,5.8-6.7,5.8h-2.3c-.2,0-.3-.1-.3-.3v-4c0-.2.2-.3.3-.3h2.3c1.6,0,2.3-.9,2.3-2.8v-6.1ZM456.1,119.1l-.9,2.8h-6.5v-2.8h1.4c-.3-.5-.4-.9-.4-1.5,0-1.8,1.4-2.9,3.2-2.9s1.4.2,2.2.6v2.5c-.8-.3-1.4-.4-1.9-.4-.8,0-1.2.3-1.2.9s.1.6.3.9h3.8Z" style="fill:#171a23; stroke-width:0px;"/><path d="M457.7,131.8v-13.9s4.3-.5,4.3-.5v12.8c0,2,.7,2.9,2.3,2.9s.3.1.3.3v4c0,.2,0,.3-.2.3-4.5,0-6.7-2-6.7-5.9Z" style="fill:#171a23; stroke-width:0px;"/><path d="M470,133.4v4c0,.2-.1.3-.3.3h-5.4c-.2,0-.3-.1-.3-.3v-4c0-.2.1-.3.3-.3h5.4c.2,0,.3.1.3.3Z" style="fill:#171a23; stroke-width:0px;"/><path d="M496.3,133.4v4c0,.2-.1.3-.3.3-1.7,0-3.2-.7-4.3-1.9-1.1,1.2-2.9,1.9-5.3,1.9h-16.6c-.2,0-.3-.1-.3-.3v-4c0-.2.2-.3.3-.3h2.2v-9s4.3-.5,4.3-.5v2.5c5.2-2.5,7.8-3.3,10.5-3.3s6.5,2.6,6.4,6.5v2.5c0,0,0,.4,0,.4.9.6,1.8.9,3,.9s.3.1.3.3ZM488.8,129.8c0-1.5-1.2-2.5-3-2.5s-3.5.4-9.5,2.3v3.5h10.2c1.5,0,2.3-.8,2.3-2.3v-1Z" style="fill:#171a23; stroke-width:0px;"/><path d="M512.8,133.4v4c0,.2-.1.3-.3.3-3.1,0-5.3-.6-7.5-1.8-2.7,1.4-4.9,1.8-9,1.8-.2,0-.3-.1-.3-.3v-4c0-.2.1-.3.3-.3,1.5,0,2.7,0,3.8-.2-1.1-1.4-2-2.9-3.1-5l1.4-3.4c2.7-1.3,4.8-1.9,6.8-1.9,3.9,0,6.5,2.1,6.5,5.3s-.7,3.3-2.3,4.9c.9.1,2,.2,3.3.2s.3.1.3.3ZM500.7,127.8c1.1,2.3,2.1,3.7,3.4,5.1,2.3-.8,3.5-2.2,3.5-3.4s-1.2-2.5-3.2-2.5c-1.1,0-2.3.2-3.7.8Z" style="fill:#171a23; stroke-width:0px;"/><path d="M512.3,137.4v-4c0-.2.1-.3.3-.3,1.6,0,2.3-.9,2.3-2.9v-12.3s4.4-.5,4.4-.5v14.4c0,3.9-2.2,5.9-6.7,5.9s-.3-.1-.3-.3Z" style="fill:#171a23; stroke-width:0px;"/><path d="M523.2,118l4.3-.5v20.3h-4.3v-19.8Z" style="fill:#171a23; stroke-width:0px;"/><path d="M414.8,224.6v11.8c0,3.5-2,5.6-5.6,5.6s-5.5-1.6-5.5-4.9.3-2.6.8-4.3l2.3.6c-.3,1-.5,1.9-.5,2.8,0,1.8,1,2.7,2.9,2.7s2.8-1,2.8-3v-11l2.8-.3Z" style="fill:#fff; stroke-width:0px;"/><path d="M417.1,234.2v-9.1s2.8-.3,2.8-.3v8.4c0,1.3.5,1.9,1.5,1.9s.2,0,.2.2v2.6c0,.1,0,.2-.2.2-2.9,0-4.4-1.3-4.4-3.9Z" style="fill:#fff; stroke-width:0px;"/><path d="M425.2,235.3v2.6c0,.1,0,.2-.2.2h-3.5c-.1,0-.2,0-.2-.2v-2.6c0-.1,0-.2.2-.2h3.5c.1,0,.2,0,.2.2Z" style="fill:#fff; stroke-width:0px;"/><path d="M428.8,235.3v2.6c0,.1,0,.2-.2.2h-3.5c-.1,0-.2,0-.2-.2v-2.6c0-.1,0-.2.2-.2h3.5c.1,0,.2,0,.2.2Z" style="fill:#fff; stroke-width:0px;"/><path d="M432.3,235.3v2.6c0,.1,0,.2-.2.2h-3.5c-.1,0-.2,0-.2-.2v-2.6c0-.1,0-.2.2-.2h3.5c.1,0,.2,0,.2.2Z" style="fill:#fff; stroke-width:0px;"/><path d="M435.9,235.3v2.6c0,.1,0,.2-.2.2h-3.5c-.1,0-.2,0-.2-.2v-2.6c0-.1,0-.2.2-.2h3.5c.1,0,.2,0,.2.2Z" style="fill:#fff; stroke-width:0px;"/><path d="M439.4,235.3v2.6c0,.1,0,.2-.2.2h-3.5c-.1,0-.2,0-.2-.2v-2.6c0-.1,0-.2.2-.2h3.5c.1,0,.2,0,.2.2Z" style="fill:#fff; stroke-width:0px;"/><path d="M443,235.3v2.6c0,.1,0,.2-.2.2h-3.5c-.1,0-.2,0-.2-.2v-2.6c0-.1,0-.2.2-.2h3.5c.1,0,.2,0,.2.2Z" style="fill:#fff; stroke-width:0px;"/><path d="M446.5,235.3v2.6c0,.1,0,.2-.2.2h-3.5c-.1,0-.2,0-.2-.2v-2.6c0-.1,0-.2.2-.2h3.5c.1,0,.2,0,.2.2Z" style="fill:#fff; stroke-width:0px;"/><path d="M450.1,235.3v2.6c0,.1,0,.2-.2.2h-3.5c-.1,0-.2,0-.2-.2v-2.6c0-.1,0-.2.2-.2h3.5c.1,0,.2,0,.2.2Z" style="fill:#fff; stroke-width:0px;"/><path d="M453.6,235.3v2.6c0,.1,0,.2-.2.2h-3.5c-.1,0-.2,0-.2-.2v-2.6c0-.1,0-.2.2-.2h3.5c.1,0,.2,0,.2.2Z" style="fill:#fff; stroke-width:0px;"/><path d="M463.7,235.3v2.6c0,.1,0,.2-.2.2-1.4,0-3.1-.3-4.8-.9-1.6.6-3.5.9-5.3.9-.1,0-.2,0-.2-.2v-2.6c0-.1,0-.2.2-.2.6,0,1.2,0,1.8,0-.5-.7-.8-1.5-.8-2.4,0-2.2,1.6-3.9,4.1-3.9s4.2,1.9,4.2,3.9-.3,1.7-.9,2.3c.5,0,1.1.1,1.7.1s.2,0,.2.2ZM456.9,227.5l-1.9-1.9,1.9-1.9,1.4,1.4,1.4-1.4,1.9,1.9-1.9,1.9-1.5-1.4-1.4,1.4ZM456.8,233c0,.8.6,1.6,1.6,2,1-.4,1.6-1.2,1.6-2s-.8-1.6-1.6-1.6-1.6.7-1.6,1.6Z" style="fill:#fff; stroke-width:0px;"/><path d="M467.3,235.3v2.6c0,.1,0,.2-.2.2h-3.5c-.1,0-.2,0-.2-.2v-2.6c0-.1,0-.2.2-.2h3.5c.1,0,.2,0,.2.2Z" style="fill:#fff; stroke-width:0px;"/><path d="M470.8,235.3v2.6c0,.1,0,.2-.2.2h-3.5c-.1,0-.2,0-.2-.2v-2.6c0-.1,0-.2.2-.2h3.5c.1,0,.2,0,.2.2Z" style="fill:#fff; stroke-width:0px;"/><path d="M474.3,235.3v2.6c0,.1,0,.2-.2.2h-3.5c-.1,0-.2,0-.2-.2v-2.6c0-.1,0-.2.2-.2h3.5c.1,0,.2,0,.2.2Z" style="fill:#fff; stroke-width:0px;"/><path d="M477.9,235.3v2.6c0,.1,0,.2-.2.2h-3.5c-.1,0-.2,0-.2-.2v-2.6c0-.1,0-.2.2-.2h3.5c.1,0,.2,0,.2.2Z" style="fill:#fff; stroke-width:0px;"/><path d="M481.4,235.3v2.6c0,.1,0,.2-.2.2h-3.5c-.1,0-.2,0-.2-.2v-2.6c0-.1,0-.2.2-.2h3.5c.1,0,.2,0,.2.2Z" style="fill:#fff; stroke-width:0px;"/><path d="M485,235.3v2.6c0,.1,0,.2-.2.2h-3.5c-.1,0-.2,0-.2-.2v-2.6c0-.1,0-.2.2-.2h3.5c.1,0,.2,0,.2.2Z" style="fill:#fff; stroke-width:0px;"/><path d="M488.5,235.3v2.6c0,.1,0,.2-.2.2h-3.5c-.1,0-.2,0-.2-.2v-2.6c0-.1,0-.2.2-.2h3.5c.1,0,.2,0,.2.2Z" style="fill:#fff; stroke-width:0px;"/><path d="M492.1,235.3v2.6c0,.1,0,.2-.2.2h-3.5c-.1,0-.2,0-.2-.2v-2.6c0-.1,0-.2.2-.2h3.5c.1,0,.2,0,.2.2Z" style="fill:#fff; stroke-width:0px;"/><path d="M495.6,235.3v2.6c0,.1,0,.2-.2.2h-3.5c-.1,0-.2,0-.2-.2v-2.6c0-.1,0-.2.2-.2h3.5c.1,0,.2,0,.2.2Z" style="fill:#fff; stroke-width:0px;"/><path d="M499.2,235.3v2.6c0,.1,0,.2-.2.2h-3.5c-.1,0-.2,0-.2-.2v-2.6c0-.1,0-.2.2-.2h3.5c.1,0,.2,0,.2.2Z" style="fill:#fff; stroke-width:0px;"/><path d="M502.7,235.3v2.6c0,.1,0,.2-.2.2h-3.5c-.1,0-.2,0-.2-.2v-2.6c0-.1,0-.2.2-.2h3.5c.1,0,.2,0,.2.2Z" style="fill:#fff; stroke-width:0px;"/><path d="M505.6,229.2l2.8-.3v5.4c0,2.5-1.4,3.8-4.4,3.8h-1.5c-.1,0-.2,0-.2-.2v-2.6c0-.1.1-.2.2-.2h1.5c1,0,1.5-.6,1.5-1.9v-4ZM505.5,227.8l-1.9-1.9,1.9-1.9,1.4,1.4,1.4-1.4,1.9,1.9-1.9,1.9-1.4-1.4-1.4,1.4Z" style="fill:#fff; stroke-width:0px;"/><path d="M517,235.3v2.6c0,.1,0,.2-.2.2-.8,0-1.4-.3-1.9-.7v.3c0,3.2-1.7,4.3-5.2,4.3l-.2-2.3c1.5,0,2.6-.6,2.6-2.2v-8.4s2.8-.3,2.8-.3v4.9c.1.9.9,1.3,1.9,1.3s.2,0,.2.2Z" style="fill:#fff; stroke-width:0px;"/><path d="M520.6,235.3v2.6c0,.1,0,.2-.2.2h-3.5c-.1,0-.2,0-.2-.2v-2.6c0-.1,0-.2.2-.2h3.5c.1,0,.2,0,.2.2Z" style="fill:#fff; stroke-width:0px;"/><path d="M524.1,235.3v2.6c0,.1,0,.2-.2.2h-3.5c-.1,0-.2,0-.2-.2v-2.6c0-.1,0-.2.2-.2h3.5c.1,0,.2,0,.2.2Z" style="fill:#fff; stroke-width:0px;"/><path d="M527.6,235.3v2.6c0,.1,0,.2-.2.2h-3.5c-.1,0-.2,0-.2-.2v-2.6c0-.1,0-.2.2-.2h3.5c.1,0,.2,0,.2.2Z" style="fill:#fff; stroke-width:0px;"/><path d="M531.2,235.3v2.6c0,.1,0,.2-.2.2h-3.5c-.1,0-.2,0-.2-.2v-2.6c0-.1,0-.2.2-.2h3.5c.1,0,.2,0,.2.2Z" style="fill:#fff; stroke-width:0px;"/><path d="M534.7,235.3v2.6c0,.1,0,.2-.2.2h-3.5c-.1,0-.2,0-.2-.2v-2.6c0-.1,0-.2.2-.2h3.5c.1,0,.2,0,.2.2Z" style="fill:#fff; stroke-width:0px;"/><path d="M538.3,235.3v2.6c0,.1,0,.2-.2.2h-3.5c-.1,0-.2,0-.2-.2v-2.6c0-.1,0-.2.2-.2h3.5c.1,0,.2,0,.2.2Z" style="fill:#fff; stroke-width:0px;"/><path d="M541.8,235.3v2.6c0,.1,0,.2-.2.2h-3.5c-.1,0-.2,0-.2-.2v-2.6c0-.1,0-.2.2-.2h3.5c.1,0,.2,0,.2.2Z" style="fill:#fff; stroke-width:0px;"/><path d="M545.4,235.3v2.6c0,.1,0,.2-.2.2h-3.5c-.1,0-.2,0-.2-.2v-2.6c0-.1,0-.2.2-.2h3.5c.1,0,.2,0,.2.2Z" style="fill:#fff; stroke-width:0px;"/><path d="M545,237.9v-2.6c0-.1.1-.2.2-.2,1,0,1.5-.6,1.5-1.9v-4s2.8-.3,2.8-.3v5.4c0,2.5-1.4,3.8-4.4,3.8s-.2,0-.2-.2ZM545.5,241l1.9-1.9,1.9,1.9-1.9,1.9-1.9-1.9Z" style="fill:#fff; stroke-width:0px;"/><path d="M448.3,264.8c-.8-.4-1.4-.9-1.8-1.7s-.6-1.6-.6-2.7.2-1.9.6-2.7,1-1.3,1.8-1.7,1.7-.6,2.8-.6,2.1.2,2.8.6c.8.4,1.4,1,1.8,1.7s.6,1.6.6,2.7-.2,1.9-.6,2.7-1,1.3-1.8,1.7c-.8.4-1.7.6-2.8.6s-2.1-.2-2.8-.6ZM448.4,263.1c.6.6,1.5.9,2.7.9s2-.3,2.7-.9c.6-.6,1-1.5,1-2.6s-.3-2-1-2.7-1.5-1-2.7-1-2,.3-2.7,1-1,1.5-1,2.7.3,2,1,2.6Z" style="fill:#ee304c; stroke-width:0px;"/><path d="M457.9,255.7h4.1c1.2,0,2.2.2,2.9.7.7.5,1,1.2,1,2.1s-.3,1.5-.9,2-1.4.8-2.5.9l3.6,3.8h-1.8l-4.6-4.8h2.2c.7,0,1.3-.2,1.7-.5s.6-.7.6-1.3-.2-1-.6-1.3c-.4-.3-1-.5-1.7-.5h-2.6v8.4h-1.6v-9.5Z" style="fill:#ee304c; stroke-width:0px;"/><path d="M470.2,255.7h3l3.9,9.5h-1.7l-.9-2.3h-5.5l-.9,2.3h-1.7l3.9-9.5ZM474,261.8l-2.3-5.9h0l-2.3,5.9h4.7Z" style="fill:#ee304c; stroke-width:0px;"/><path d="M481.1,255.7l5,9.3h0v-9.3h1.5v9.5h-3.1l-5-9.4h0v9.4h-1.5v-9.5h3.1Z" style="fill:#ee304c; stroke-width:0px;"/><path d="M491.5,263.2c.5.6,1.3.9,2.2.9s1.6-.2,2.1-.7.8-1.2.8-2h-2.6v-1.1h4.3v5h-.9l-.5-3.9h0c0,1.3-.4,2.3-1,3-.6.7-1.5,1.1-2.7,1.1s-1.6-.2-2.2-.6c-.6-.4-1.1-.9-1.4-1.7-.3-.7-.5-1.6-.5-2.6,0-1.6.5-2.9,1.5-3.7,1-.9,2.3-1.3,4.1-1.3s1.2,0,1.8.2,1.1.3,1.6.5v1.4c-.5-.2-1.1-.4-1.6-.5-.6-.1-1.2-.2-1.8-.2-1.3,0-2.2.3-2.9,1-.7.6-1,1.6-1,2.8s.3,2,.8,2.6Z" style="fill:#ee304c; stroke-width:0px;"/><path d="M507.5,255.7v1.3h-6v2.9h4.9v1.1h-4.9v3h6.2v1.3h-7.7v-9.5h7.5Z" style="fill:#ee304c; stroke-width:0px;"/><path d="M512.8,264c.8,0,1.4-.2,1.8-.6.4-.4.6-.9.6-1.7v-6.1h1.6v6.1c0,1.2-.3,2-1,2.7-.7.6-1.6.9-2.9.9s-1.5-.1-1.9-.3v-1.4c.6.2,1.1.3,1.9.3Z" style="fill:#ee304c; stroke-width:0px;"/><path d="M526.1,264.3c-.8.7-2,1.1-3.5,1.1s-2.7-.4-3.5-1.1c-.8-.7-1.2-1.7-1.2-3.1v-5.6h1.6v5.6c0,.9.3,1.6.8,2.1.5.5,1.3.7,2.3.7s1.8-.2,2.3-.7c.5-.5.8-1.2.8-2.1v-5.6h1.6v5.6c0,1.3-.4,2.3-1.2,3.1Z" style="fill:#ee304c; stroke-width:0px;"/><path d="M530.5,255.7v9.5h-1.6v-9.5h1.6Z" style="fill:#ee304c; stroke-width:0px;"/><path d="M534.6,263.1c.7.6,1.6,1,2.9,1s1.1,0,1.7-.2c.6-.1,1.1-.3,1.6-.6v1.4c-.4.2-.9.4-1.5.5s-1.1.2-1.7.2c-1.8,0-3.2-.4-4.1-1.3s-1.5-2.1-1.5-3.6.5-2.8,1.5-3.7c1-.9,2.4-1.3,4.1-1.3s1.1,0,1.7.2,1.1.3,1.6.5v1.4c-.6-.2-1.1-.4-1.7-.5-.6-.1-1.1-.2-1.7-.2-1.2,0-2.2.3-2.9,1-.7.6-1,1.5-1,2.7s.3,2,1,2.7Z" style="fill:#ee304c; stroke-width:0px;"/><path d="M549.9,255.7v1.3h-6v2.9h4.9v1.1h-4.9v3h6.2v1.3h-7.7v-9.5h7.5Z" style="fill:#ee304c; stroke-width:0px;"/><path d="M413,310.3v2.6c0,.1,0,.2-.2.2-1.2,0-2-.2-2.7-.7-1.1.6-2.1.8-3.1.8-2.6,0-4.4-2-4.4-4.6s1.8-4.8,4.4-4.8,1.2.1,1.8.3v-1l2.8-.3v6.1c0,.8.4,1.1,1,1.1s.2,0,.2.2ZM405.8,302.6l-1.9-1.9,1.9-1.9,1.4,1.4,1.4-1.4,1.9,1.9-1.9,1.9-1.5-1.4-1.4,1.4ZM409,310.1c0-.2,0-.5,0-.8v-2.4c-.6-.2-1.2-.3-1.7-.3-1.2,0-1.9.8-1.9,1.9s.7,1.8,1.8,1.8c.7,0,1.3,0,1.9-.3Z" style="fill:#fff; stroke-width:0px;"/><path d="M416.6,310.3v2.6c0,.1,0,.2-.2.2h-3.5c-.1,0-.2,0-.2-.2v-2.6c0-.1,0-.2.2-.2h3.5c.1,0,.2,0,.2.2Z" style="fill:#fff; stroke-width:0px;"/><path d="M420.1,310.3v2.6c0,.1,0,.2-.2.2h-3.5c-.1,0-.2,0-.2-.2v-2.6c0-.1,0-.2.2-.2h3.5c.1,0,.2,0,.2.2Z" style="fill:#fff; stroke-width:0px;"/><path d="M423.7,310.3v2.6c0,.1,0,.2-.2.2h-3.5c-.1,0-.2,0-.2-.2v-2.6c0-.1,0-.2.2-.2h3.5c.1,0,.2,0,.2.2Z" style="fill:#fff; stroke-width:0px;"/><path d="M427.2,310.3v2.6c0,.1,0,.2-.2.2h-3.5c-.1,0-.2,0-.2-.2v-2.6c0-.1,0-.2.2-.2h3.5c.1,0,.2,0,.2.2Z" style="fill:#fff; stroke-width:0px;"/><path d="M430.7,310.3v2.6c0,.1,0,.2-.2.2h-3.5c-.1,0-.2,0-.2-.2v-2.6c0-.1,0-.2.2-.2h3.5c.1,0,.2,0,.2.2Z" style="fill:#fff; stroke-width:0px;"/><path d="M434.3,310.3v2.6c0,.1,0,.2-.2.2h-3.5c-.1,0-.2,0-.2-.2v-2.6c0-.1,0-.2.2-.2h3.5c.1,0,.2,0,.2.2Z" style="fill:#fff; stroke-width:0px;"/><path d="M437.8,310.3v2.6c0,.1,0,.2-.2.2h-3.5c-.1,0-.2,0-.2-.2v-2.6c0-.1,0-.2.2-.2h3.5c.1,0,.2,0,.2.2Z" style="fill:#fff; stroke-width:0px;"/><path d="M441.4,310.3v2.6c0,.1,0,.2-.2.2h-3.5c-.1,0-.2,0-.2-.2v-2.6c0-.1,0-.2.2-.2h3.5c.1,0,.2,0,.2.2Z" style="fill:#fff; stroke-width:0px;"/><path d="M444.9,310.3v2.6c0,.1,0,.2-.2.2h-3.5c-.1,0-.2,0-.2-.2v-2.6c0-.1,0-.2.2-.2h3.5c.1,0,.2,0,.2.2Z" style="fill:#fff; stroke-width:0px;"/><path d="M448.5,310.3v2.6c0,.1,0,.2-.2.2h-3.5c-.1,0-.2,0-.2-.2v-2.6c0-.1,0-.2.2-.2h3.5c.1,0,.2,0,.2.2Z" style="fill:#fff; stroke-width:0px;"/><path d="M452,310.3v2.6c0,.1,0,.2-.2.2h-3.5c-.1,0-.2,0-.2-.2v-2.6c0-.1,0-.2.2-.2h3.5c.1,0,.2,0,.2.2Z" style="fill:#fff; stroke-width:0px;"/><path d="M455.6,310.3v2.6c0,.1,0,.2-.2.2h-3.5c-.1,0-.2,0-.2-.2v-2.6c0-.1,0-.2.2-.2h3.5c.1,0,.2,0,.2.2Z" style="fill:#fff; stroke-width:0px;"/><path d="M459.1,310.3v2.6c0,.1,0,.2-.2.2h-3.5c-.1,0-.2,0-.2-.2v-2.6c0-.1,0-.2.2-.2h3.5c.1,0,.2,0,.2.2Z" style="fill:#fff; stroke-width:0px;"/><path d="M462.6,310.3v2.6c0,.1,0,.2-.2.2h-3.5c-.1,0-.2,0-.2-.2v-2.6c0-.1,0-.2.2-.2h3.5c.1,0,.2,0,.2.2Z" style="fill:#fff; stroke-width:0px;"/><path d="M462.3,312.9v-2.6c0-.1,0-.2.2-.2,1,0,1.5-.6,1.5-1.9v-8.1s2.9-.3,2.9-.3v9.5c0,2.6-1.5,3.9-4.4,3.9s-.2,0-.2-.2Z" style="fill:#fff; stroke-width:0px;"/><path d="M477.6,308.4v4.3c0,3.2-3.1,4.3-7.5,4.3l-.3-2.3c3.4,0,4.9-.5,5-2-.6.2-1.1.4-1.7.4-2.5,0-4.2-1.8-4.2-4.5s2-4.7,4.5-4.7,4.3,1.7,4.3,4.6ZM473.3,310.2c.4,0,.9,0,1.4-.2v-1.5c0-1.2-.7-1.9-1.7-1.9s-1.7.7-1.7,1.7.8,1.8,1.9,1.8Z" style="fill:#fff; stroke-width:0px;"/><path d="M479.6,300.1l2.8-.3v13.3h-2.8v-13Z" style="fill:#fff; stroke-width:0px;"/><path d="M491,310.3v2.6c0,.1,0,.2-.2.2-.8,0-1.4-.3-1.9-.7v.3c0,3.2-1.7,4.3-5.2,4.3l-.2-2.3c1.5,0,2.6-.6,2.6-2.2v-8.4s2.8-.3,2.8-.3v4.9c.1.9.9,1.3,1.9,1.3s.2,0,.2.2Z" style="fill:#fff; stroke-width:0px;"/><path d="M494.5,310.3v2.6c0,.1,0,.2-.2.2h-3.5c-.1,0-.2,0-.2-.2v-2.6c0-.1,0-.2.2-.2h3.5c.1,0,.2,0,.2.2Z" style="fill:#fff; stroke-width:0px;"/><path d="M498,310.3v2.6c0,.1,0,.2-.2.2h-3.5c-.1,0-.2,0-.2-.2v-2.6c0-.1,0-.2.2-.2h3.5c.1,0,.2,0,.2.2Z" style="fill:#fff; stroke-width:0px;"/><path d="M501.6,310.3v2.6c0,.1,0,.2-.2.2h-3.5c-.1,0-.2,0-.2-.2v-2.6c0-.1,0-.2.2-.2h3.5c.1,0,.2,0,.2.2Z" style="fill:#fff; stroke-width:0px;"/><path d="M505.1,310.3v2.6c0,.1,0,.2-.2.2h-3.5c-.1,0-.2,0-.2-.2v-2.6c0-.1,0-.2.2-.2h3.5c.1,0,.2,0,.2.2Z" style="fill:#fff; stroke-width:0px;"/><path d="M508.7,310.3v2.6c0,.1,0,.2-.2.2h-3.5c-.1,0-.2,0-.2-.2v-2.6c0-.1,0-.2.2-.2h3.5c.1,0,.2,0,.2.2Z" style="fill:#fff; stroke-width:0px;"/><path d="M512.2,310.3v2.6c0,.1,0,.2-.2.2h-3.5c-.1,0-.2,0-.2-.2v-2.6c0-.1,0-.2.2-.2h3.5c.1,0,.2,0,.2.2Z" style="fill:#fff; stroke-width:0px;"/><path d="M515.8,310.3v2.6c0,.1,0,.2-.2.2h-3.5c-.1,0-.2,0-.2-.2v-2.6c0-.1,0-.2.2-.2h3.5c.1,0,.2,0,.2.2Z" style="fill:#fff; stroke-width:0px;"/><path d="M519.3,310.3v2.6c0,.1,0,.2-.2.2h-3.5c-.1,0-.2,0-.2-.2v-2.6c0-.1,0-.2.2-.2h3.5c.1,0,.2,0,.2.2Z" style="fill:#fff; stroke-width:0px;"/><path d="M522.8,310.3v2.6c0,.1,0,.2-.2.2h-3.5c-.1,0-.2,0-.2-.2v-2.6c0-.1,0-.2.2-.2h3.5c.1,0,.2,0,.2.2Z" style="fill:#fff; stroke-width:0px;"/><path d="M526.4,310.3v2.6c0,.1,0,.2-.2.2h-3.5c-.1,0-.2,0-.2-.2v-2.6c0-.1,0-.2.2-.2h3.5c.1,0,.2,0,.2.2Z" style="fill:#fff; stroke-width:0px;"/><path d="M529.9,310.3v2.6c0,.1,0,.2-.2.2h-3.5c-.1,0-.2,0-.2-.2v-2.6c0-.1,0-.2.2-.2h3.5c.1,0,.2,0,.2.2Z" style="fill:#fff; stroke-width:0px;"/><path d="M533.5,310.3v2.6c0,.1,0,.2-.2.2h-3.5c-.1,0-.2,0-.2-.2v-2.6c0-.1,0-.2.2-.2h3.5c.1,0,.2,0,.2.2Z" style="fill:#fff; stroke-width:0px;"/><path d="M537,310.3v2.6c0,.1,0,.2-.2.2h-3.5c-.1,0-.2,0-.2-.2v-2.6c0-.1,0-.2.2-.2h3.5c.1,0,.2,0,.2.2Z" style="fill:#fff; stroke-width:0px;"/><path d="M540.6,310.3v2.6c0,.1,0,.2-.2.2h-3.5c-.1,0-.2,0-.2-.2v-2.6c0-.1,0-.2.2-.2h3.5c.1,0,.2,0,.2.2Z" style="fill:#fff; stroke-width:0px;"/><path d="M549.8,308.1c0,3-2,5-5.2,5h-4.2c-.1,0-.2,0-.2-.2v-2.6c0-.1,0-.2.2-.2h1.1c-.3-.7-.5-1.4-.5-2.1,0-2.5,1.9-4.3,4.3-4.3s4.5,1.9,4.5,4.4ZM545.2,302.5l-1.9-1.9,1.9-1.9,1.9,1.9-1.9,1.9ZM547,308.1c0-1-.7-1.7-1.7-1.7s-1.8.8-1.8,1.8.2,1.2.5,1.9h.6c1.5,0,2.4-.8,2.4-2Z" style="fill:#fff; stroke-width:0px;"/><path d="M455.7,331.1c-.6-.1-1.2-.2-1.9-.2s-1.3.1-1.7.3-.6.5-.6,1,0,.5.3.7c.2.2.4.4.8.5.4.1.9.3,1.5.4.9.2,1.7.4,2.3.7.6.2,1,.5,1.3.9.3.4.4.8.4,1.3,0,.9-.4,1.6-1.2,2.1-.8.5-1.9.7-3.2.7s-2.9-.2-3.9-.7v-1.4c.6.2,1.2.4,1.8.6.7.1,1.3.2,2.1.2s1.6-.1,2.1-.4c.5-.2.7-.6.7-1.1s0-.6-.3-.8c-.2-.2-.5-.4-.9-.5-.4-.1-.9-.3-1.6-.4-.9-.2-1.6-.4-2.1-.6-.5-.2-.9-.5-1.2-.9-.3-.3-.4-.8-.4-1.3,0-.8.3-1.5,1-1.9s1.7-.7,2.9-.7,2.5.2,3.6.7v1.3c-.6-.2-1.1-.4-1.7-.5Z" style="fill:#ee304c; stroke-width:0px;"/><path d="M461.8,331.1h-3.4v-1.3h8.4v1.3h-3.4v8.3h-1.6v-8.3Z" style="fill:#ee304c; stroke-width:0px;"/><path d="M467.9,329.8h4.1c1.2,0,2.2.2,2.9.7.7.5,1,1.2,1,2.1s-.3,1.5-.9,2-1.4.8-2.5.9l3.6,3.8h-1.8l-4.6-4.8h2.2c.7,0,1.3-.2,1.7-.5s.6-.7.6-1.3-.2-1-.6-1.3c-.4-.3-1-.5-1.7-.5h-2.6v8.4h-1.6v-9.5Z" style="fill:#ee304c; stroke-width:0px;"/><path d="M480.1,329.8h3l3.9,9.5h-1.7l-.9-2.3h-5.5l-.9,2.3h-1.7l3.9-9.5ZM484,335.9l-2.3-5.9h0l-2.3,5.9h4.7Z" style="fill:#ee304c; stroke-width:0px;"/><path d="M486,329.8h1.7l2.7,9.3h0l2.6-9.3h2.6l2.6,9.3h0l2.7-9.3h1.7l-2.9,9.5h-2.8l-2.6-9.3h0l-2.6,9.3h-2.8l-2.9-9.5Z" style="fill:#ee304c; stroke-width:0px;"/><path d="M503.6,329.8h4.2c1.2,0,2.1.2,2.7.6.6.4,1,1,1,1.7s-.3,1.1-.8,1.5c-.5.4-1.3.6-2.3.7h0c1.1,0,2,.3,2.7.7.6.4.9,1,.9,1.8s-.3,1.4-1,1.9c-.7.5-1.6.7-2.9.7h-4.5v-9.5ZM507.2,334.2c1.7,0,2.6-.5,2.6-1.6s-.2-.9-.6-1.1c-.4-.3-1-.4-1.8-.4h-2.3v3.1h2.1ZM507.8,338.1c.8,0,1.5-.1,1.9-.4.4-.3.7-.7.7-1.2s-.2-1-.7-1.2c-.4-.3-1.1-.4-1.9-.4h-2.7v3.3h2.6Z" style="fill:#ee304c; stroke-width:0px;"/><path d="M521,329.8v1.3h-6v2.9h4.9v1.1h-4.9v3h6.2v1.3h-7.7v-9.5h7.5Z" style="fill:#ee304c; stroke-width:0px;"/><path d="M522.3,329.8h4.1c1.2,0,2.2.2,2.9.7.7.5,1,1.2,1,2.1s-.3,1.5-.9,2-1.4.8-2.5.9l3.6,3.8h-1.8l-4.6-4.8h2.2c.7,0,1.3-.2,1.7-.5s.6-.7.6-1.3-.2-1-.6-1.3c-.4-.3-1-.5-1.7-.5h-2.6v8.4h-1.6v-9.5Z" style="fill:#ee304c; stroke-width:0px;"/><path d="M531.7,329.8h4.1c1.2,0,2.2.2,2.9.7.7.5,1,1.2,1,2.1s-.3,1.5-.9,2-1.4.8-2.5.9l3.6,3.8h-1.8l-4.6-4.8h2.2c.7,0,1.3-.2,1.7-.5s.6-.7.6-1.3-.2-1-.6-1.3c-.4-.3-1-.5-1.7-.5h-2.6v8.4h-1.6v-9.5Z" style="fill:#ee304c; stroke-width:0px;"/><path d="M545.2,336.1h-1.5l-3.5-6.3h1.7l3.3,6.1h0l3.3-6.1h1.7l-5.4,9.5h-1.6l1.8-3.2Z" style="fill:#ee304c; stroke-width:0px;"/><path d="M402.1,388.1c0-1.2.3-2.6.8-4.3l2.3.6c-.3,1-.5,1.9-.5,2.8,0,1.8,1,2.7,2.9,2.7s2.8-1,2.8-3v-6.8l2.8-.3v7.6c0,3.5-2,5.6-5.6,5.6s-5.5-1.6-5.5-4.9ZM405.2,379.8l1.9-1.9,1.9,1.9-1.9,1.9-1.9-1.9Z" style="fill:#fff; stroke-width:0px;"/><path d="M424.5,386.2v2.6c0,.1,0,.2-.2.2h-.9c-.3,2.8-3.2,3.9-7.5,3.9l-.3-2.3c3.1,0,4.6-.4,4.9-1.6h-1.5c-2.6,0-4.3-1.8-4.3-4.5s2-4.7,4.5-4.7,4.3,1.7,4.3,4.6v1.7h.9c.1,0,.2,0,.2.2ZM419.3,386.2c.4,0,.9,0,1.4,0v-1.6c0-1.2-.7-1.9-1.7-1.9s-1.7.7-1.7,1.7.9,1.8,2,1.8Z" style="fill:#fff; stroke-width:0px;"/><path d="M428.1,386.2v2.6c0,.1,0,.2-.2.2h-3.5c-.1,0-.2,0-.2-.2v-2.6c0-.1,0-.2.2-.2h3.5c.1,0,.2,0,.2.2Z" style="fill:#fff; stroke-width:0px;"/><path d="M431.6,386.2v2.6c0,.1,0,.2-.2.2h-3.5c-.1,0-.2,0-.2-.2v-2.6c0-.1,0-.2.2-.2h3.5c.1,0,.2,0,.2.2Z" style="fill:#fff; stroke-width:0px;"/><path d="M435.2,386.2v2.6c0,.1,0,.2-.2.2h-3.5c-.1,0-.2,0-.2-.2v-2.6c0-.1,0-.2.2-.2h3.5c.1,0,.2,0,.2.2Z" style="fill:#fff; stroke-width:0px;"/><path d="M438.7,386.2v2.6c0,.1,0,.2-.2.2h-3.5c-.1,0-.2,0-.2-.2v-2.6c0-.1,0-.2.2-.2h3.5c.1,0,.2,0,.2.2Z" style="fill:#fff; stroke-width:0px;"/><path d="M442.3,386.2v2.6c0,.1,0,.2-.2.2h-3.5c-.1,0-.2,0-.2-.2v-2.6c0-.1,0-.2.2-.2h3.5c.1,0,.2,0,.2.2Z" style="fill:#fff; stroke-width:0px;"/><path d="M445.8,386.2v2.6c0,.1,0,.2-.2.2h-3.5c-.1,0-.2,0-.2-.2v-2.6c0-.1,0-.2.2-.2h3.5c.1,0,.2,0,.2.2Z" style="fill:#fff; stroke-width:0px;"/><path d="M449.3,386.2v2.6c0,.1,0,.2-.2.2h-3.5c-.1,0-.2,0-.2-.2v-2.6c0-.1,0-.2.2-.2h3.5c.1,0,.2,0,.2.2Z" style="fill:#fff; stroke-width:0px;"/><path d="M452.9,386.2v2.6c0,.1,0,.2-.2.2h-3.5c-.1,0-.2,0-.2-.2v-2.6c0-.1,0-.2.2-.2h3.5c.1,0,.2,0,.2.2Z" style="fill:#fff; stroke-width:0px;"/><path d="M456.4,386.2v2.6c0,.1,0,.2-.2.2h-3.5c-.1,0-.2,0-.2-.2v-2.6c0-.1,0-.2.2-.2h3.5c.1,0,.2,0,.2.2Z" style="fill:#fff; stroke-width:0px;"/><path d="M460,386.2v2.6c0,.1,0,.2-.2.2h-3.5c-.1,0-.2,0-.2-.2v-2.6c0-.1,0-.2.2-.2h3.5c.1,0,.2,0,.2.2Z" style="fill:#fff; stroke-width:0px;"/><path d="M463.5,386.2v2.6c0,.1,0,.2-.2.2h-3.5c-.1,0-.2,0-.2-.2v-2.6c0-.1,0-.2.2-.2h3.5c.1,0,.2,0,.2.2Z" style="fill:#fff; stroke-width:0px;"/><path d="M467.1,386.2v2.6c0,.1,0,.2-.2.2h-3.5c-.1,0-.2,0-.2-.2v-2.6c0-.1,0-.2.2-.2h3.5c.1,0,.2,0,.2.2Z" style="fill:#fff; stroke-width:0px;"/><path d="M470.6,386.2v2.6c0,.1,0,.2-.2.2h-3.5c-.1,0-.2,0-.2-.2v-2.6c0-.1,0-.2.2-.2h3.5c.1,0,.2,0,.2.2Z" style="fill:#fff; stroke-width:0px;"/><path d="M481.1,386.2v2.6c0,.1,0,.2-.2.2h-4.3c-1.3,0-2.4-.3-3.2-.9-.9.6-2,.9-3,.9s-.2,0-.2-.2v-2.6c0-.1,0-.2.2-.2.5,0,.9,0,1.3-.2-.2-.5-.3-1.1-.3-1.8,0-2.5,1.9-4.4,4.5-4.4s4.3,1.8,4.3,4.1-.1,1.4-.4,2.2h1c.1,0,.2,0,.2.2ZM477.5,386c.2-.7.3-1.4.3-1.9,0-1-.8-1.8-1.7-1.8s-1.7.7-1.7,1.7.8,2,2.3,2h.9Z" style="fill:#fff; stroke-width:0px;"/><path d="M484.6,386.2v2.6c0,.1,0,.2-.2.2h-3.5c-.1,0-.2,0-.2-.2v-2.6c0-.1,0-.2.2-.2h3.5c.1,0,.2,0,.2.2Z" style="fill:#fff; stroke-width:0px;"/><path d="M488.2,386.2v2.6c0,.1,0,.2-.2.2h-3.5c-.1,0-.2,0-.2-.2v-2.6c0-.1,0-.2.2-.2h3.5c.1,0,.2,0,.2.2Z" style="fill:#fff; stroke-width:0px;"/><path d="M491.7,386.2v2.6c0,.1,0,.2-.2.2h-3.5c-.1,0-.2,0-.2-.2v-2.6c0-.1,0-.2.2-.2h3.5c.1,0,.2,0,.2.2Z" style="fill:#fff; stroke-width:0px;"/><path d="M495.3,386.2v2.6c0,.1,0,.2-.2.2h-3.5c-.1,0-.2,0-.2-.2v-2.6c0-.1,0-.2.2-.2h3.5c.1,0,.2,0,.2.2Z" style="fill:#fff; stroke-width:0px;"/><path d="M498.8,386.2v2.6c0,.1,0,.2-.2.2h-3.5c-.1,0-.2,0-.2-.2v-2.6c0-.1,0-.2.2-.2h3.5c.1,0,.2,0,.2.2Z" style="fill:#fff; stroke-width:0px;"/><path d="M502.3,386.2v2.6c0,.1,0,.2-.2.2h-3.5c-.1,0-.2,0-.2-.2v-2.6c0-.1,0-.2.2-.2h3.5c.1,0,.2,0,.2.2Z" style="fill:#fff; stroke-width:0px;"/><path d="M505.9,386.2v2.6c0,.1,0,.2-.2.2h-3.5c-.1,0-.2,0-.2-.2v-2.6c0-.1,0-.2.2-.2h3.5c.1,0,.2,0,.2.2Z" style="fill:#fff; stroke-width:0px;"/><path d="M509.4,386.2v2.6c0,.1,0,.2-.2.2h-3.5c-.1,0-.2,0-.2-.2v-2.6c0-.1,0-.2.2-.2h3.5c.1,0,.2,0,.2.2Z" style="fill:#fff; stroke-width:0px;"/><path d="M513,386.2v2.6c0,.1,0,.2-.2.2h-3.5c-.1,0-.2,0-.2-.2v-2.6c0-.1,0-.2.2-.2h3.5c.1,0,.2,0,.2.2Z" style="fill:#fff; stroke-width:0px;"/><path d="M516.5,386.2v2.6c0,.1,0,.2-.2.2h-3.5c-.1,0-.2,0-.2-.2v-2.6c0-.1,0-.2.2-.2h3.5c.1,0,.2,0,.2.2Z" style="fill:#fff; stroke-width:0px;"/><path d="M520.1,386.2v2.6c0,.1,0,.2-.2.2h-3.5c-.1,0-.2,0-.2-.2v-2.6c0-.1,0-.2.2-.2h3.5c.1,0,.2,0,.2.2Z" style="fill:#fff; stroke-width:0px;"/><path d="M523.6,386.2v2.6c0,.1,0,.2-.2.2h-3.5c-.1,0-.2,0-.2-.2v-2.6c0-.1,0-.2.2-.2h3.5c.1,0,.2,0,.2.2Z" style="fill:#fff; stroke-width:0px;"/><path d="M527.2,386.2v2.6c0,.1,0,.2-.2.2h-3.5c-.1,0-.2,0-.2-.2v-2.6c0-.1,0-.2.2-.2h3.5c.1,0,.2,0,.2.2Z" style="fill:#fff; stroke-width:0px;"/><path d="M530.7,386.2v2.6c0,.1,0,.2-.2.2h-3.5c-.1,0-.2,0-.2-.2v-2.6c0-.1,0-.2.2-.2h3.5c.1,0,.2,0,.2.2Z" style="fill:#fff; stroke-width:0px;"/><path d="M534.2,386.2v2.6c0,.1,0,.2-.2.2h-3.5c-.1,0-.2,0-.2-.2v-2.6c0-.1,0-.2.2-.2h3.5c.1,0,.2,0,.2.2Z" style="fill:#fff; stroke-width:0px;"/><path d="M537.8,386.2v2.6c0,.1,0,.2-.2.2h-3.5c-.1,0-.2,0-.2-.2v-2.6c0-.1,0-.2.2-.2h3.5c.1,0,.2,0,.2.2Z" style="fill:#fff; stroke-width:0px;"/><path d="M544.9,386.2v2.6c0,.1,0,.2-.2.2-1,0-2-.5-2.9-1.4-.8.9-2.3,1.4-4.2,1.4s-.2,0-.2-.2v-2.6c0-.1.1-.2.2-.2,1.4,0,2.2-.5,2.2-1.9v-2.2s2.8-.3,2.8-.3v3.8c.6.4,1.3.6,2,.6s.2,0,.2.2ZM542.4,389.9l1.9,1.9-1.9,1.9-1.3-1.3-1.3,1.3-1.9-1.9,1.9-1.9,1.3,1.3,1.3-1.3Z" style="fill:#fff; stroke-width:0px;"/><path d="M544.5,388.8v-2.6c0-.1,0-.2.2-.2,1,0,1.5-.6,1.5-1.9v-8.1s2.9-.3,2.9-.3v9.5c0,2.6-1.5,3.9-4.4,3.9s-.2,0-.2-.2Z" style="fill:#fff; stroke-width:0px;"/><path d="M501.9,404v7.7h5.3v1.2h-6.7v-8.9h1.5Z" style="fill:#ee304c; stroke-width:0px;"/><path d="M515.2,404v1.2h-5.6v2.7h4.6v1h-4.6v2.8h5.8v1.2h-7.2v-8.9h7.1Z" style="fill:#ee304c; stroke-width:0px;"/><path d="M517.9,404.4h0v8.5h-1.5v-8.9h2.7l3,8.8h0l2.9-8.8h2.7v8.9h-1.5v-8.5h0l-2.9,8.5h-2.5l-3-8.5Z" style="fill:#ee304c; stroke-width:0px;"/><path d="M531.5,412.6c-.7-.4-1.3-.9-1.7-1.6-.4-.7-.6-1.5-.6-2.5s.2-1.8.6-2.5c.4-.7,1-1.2,1.7-1.6s1.6-.6,2.7-.6,1.9.2,2.7.6,1.3.9,1.7,1.6.6,1.5.6,2.5-.2,1.8-.6,2.5c-.4.7-1,1.2-1.7,1.6-.7.4-1.6.5-2.7.5s-1.9-.2-2.7-.5ZM531.6,411c.6.6,1.4.9,2.5.9s1.9-.3,2.5-.9.9-1.4.9-2.5-.3-1.9-.9-2.5-1.4-.9-2.5-.9-1.9.3-2.5.9-.9,1.4-.9,2.5.3,1.9.9,2.5Z" style="fill:#ee304c; stroke-width:0px;"/><path d="M543.4,404l4.6,8.7h0v-8.7h1.4v8.9h-2.9l-4.6-8.8h0v8.8h-1.4v-8.9h2.9Z" style="fill:#ee304c; stroke-width:0px;"/><path d="M51.5,238.7h-5.3v-1.4c-.1,0,5.1-7,5.1-7h2.2v6.8h1.7v1.6h-1.7v2.3h-1.9v-2.3ZM51.5,237.1v-4.4l-3.3,4.4h3.3Z" style="fill:#fff; stroke-width:0px;"/><path d="M56.9,239.2h1.8l-1.4,3.2h-1.4l.9-3.2Z" style="fill:#fff; stroke-width:0px;"/><path d="M64.5,241.2c-1,0-1.8-.2-2.5-.7s-1.2-1.2-1.5-2c-.3-.8-.5-1.8-.5-2.8s.2-2,.5-2.8c.4-.8.9-1.5,1.6-2,.7-.5,1.5-.7,2.4-.7s1.9.3,2.6.8c.7.5,1.2,1.2,1.5,2,.3.8.5,1.8.5,2.8s-.2,2-.5,2.8c-.3.8-.9,1.5-1.5,2-.7.5-1.5.7-2.5.7ZM64.5,239.4c.5,0,1-.2,1.4-.5.4-.3.7-.8.9-1.3s.3-1.2.3-2-.1-1.4-.3-1.9-.5-1-.9-1.3c-.4-.3-.9-.5-1.4-.5s-1,.2-1.4.5c-.4.3-.7.8-.9,1.3-.2.6-.3,1.2-.3,2s.1,1.4.3,1.9c.2.6.5,1,.9,1.3.4.3.9.5,1.4.5Z" style="fill:#fff; stroke-width:0px;"/><path d="M74.6,241.2c-1,0-1.8-.2-2.5-.7s-1.2-1.2-1.5-2c-.3-.8-.5-1.8-.5-2.8s.2-2,.5-2.8c.4-.8.9-1.5,1.6-2,.7-.5,1.5-.7,2.4-.7s1.9.3,2.6.8c.7.5,1.2,1.2,1.5,2,.3.8.5,1.8.5,2.8s-.2,2-.5,2.8c-.3.8-.9,1.5-1.5,2-.7.5-1.5.7-2.5.7ZM74.6,239.4c.5,0,1-.2,1.4-.5.4-.3.7-.8.9-1.3s.3-1.2.3-2-.1-1.4-.3-1.9-.5-1-.9-1.3c-.4-.3-.9-.5-1.4-.5s-1,.2-1.4.5c-.4.3-.7.8-.9,1.3-.2.6-.3,1.2-.3,2s.1,1.4.3,1.9c.2.6.5,1,.9,1.3.4.3.9.5,1.4.5Z" style="fill:#fff; stroke-width:0px;"/><path d="M84.8,241.2c-1,0-1.8-.2-2.5-.7s-1.2-1.2-1.5-2c-.3-.8-.5-1.8-.5-2.8s.2-2,.5-2.8c.4-.8.9-1.5,1.6-2,.7-.5,1.5-.7,2.4-.7s1.9.3,2.6.8c.7.5,1.2,1.2,1.5,2,.3.8.5,1.8.5,2.8s-.2,2-.5,2.8c-.3.8-.9,1.5-1.5,2-.7.5-1.5.7-2.5.7ZM84.8,239.4c.5,0,1-.2,1.4-.5.4-.3.7-.8.9-1.3s.3-1.2.3-2-.1-1.4-.3-1.9-.5-1-.9-1.3c-.4-.3-.9-.5-1.4-.5s-1,.2-1.4.5c-.4.3-.7.8-.9,1.3-.2.6-.3,1.2-.3,2s.1,1.4.3,1.9c.2.6.5,1,.9,1.3.4.3.9.5,1.4.5Z" style="fill:#fff; stroke-width:0px;"/><path d="M95,230.4h1.9v10.6h-1.9v-10.6Z" style="fill:#fff; stroke-width:0px;"/><path d="M104.5,241.2c-1,0-2-.2-2.9-.7-.9-.5-1.6-1.2-2.1-2s-.8-1.8-.8-2.8.3-1.9.8-2.8c.5-.8,1.2-1.5,2.1-2,.9-.5,1.8-.7,2.9-.7s2,.2,2.9.7c.9.5,1.6,1.2,2.1,2,.5.8.8,1.8.8,2.8s-.3,1.9-.8,2.8-1.2,1.5-2.1,2c-.9.5-1.8.7-2.9.7ZM104.5,239.4c.7,0,1.3-.2,1.9-.5.6-.3,1-.8,1.4-1.3.3-.6.5-1.2.5-1.9s-.2-1.4-.5-1.9c-.3-.6-.8-1-1.4-1.4s-1.2-.5-1.9-.5-1.3.2-1.9.5-1,.8-1.4,1.4c-.3.6-.5,1.2-.5,1.9s.2,1.3.5,1.9.8,1,1.4,1.3,1.2.5,1.9.5ZM106.1,240.4l1.7-.8,1.9,2.7-1.8,1-1.8-2.9Z" style="fill:#fff; stroke-width:0px;"/><path d="M112.1,230.4h4.1c1.1,0,2.1.2,3,.7.9.4,1.5,1.1,2,1.9.5.8.7,1.7.7,2.8s-.2,2-.7,2.8-1.1,1.4-2,1.9c-.9.4-1.8.7-2.9.7h-4.1v-10.6ZM116.2,239.3c.8,0,1.4-.1,2-.4.6-.3,1-.7,1.3-1.2.3-.5.4-1.2.4-1.9s-.1-1.4-.4-1.9c-.3-.5-.7-1-1.3-1.3-.6-.3-1.2-.4-2-.4h-2.1v7.2h2.1Z" style="fill:#fff; stroke-width:0px;"/><path d="M51.5,311.1h-5.3v-1.4c-.1,0,5.1-7,5.1-7h2.2v6.8h1.7v1.6h-1.7v2.3h-1.9v-2.3ZM51.5,309.5v-4.4l-3.3,4.4h3.3Z" style="fill:#fff; stroke-width:0px;"/><path d="M56.9,311.6h1.8l-1.4,3.2h-1.4l.9-3.2Z" style="fill:#fff; stroke-width:0px;"/><path d="M64.5,313.6c-1,0-1.8-.2-2.5-.7s-1.2-1.2-1.5-2c-.3-.8-.5-1.8-.5-2.8s.2-2,.5-2.8c.4-.8.9-1.5,1.6-2,.7-.5,1.5-.7,2.4-.7s1.9.3,2.6.8c.7.5,1.2,1.2,1.5,2,.3.8.5,1.8.5,2.8s-.2,2-.5,2.8c-.3.8-.9,1.5-1.5,2-.7.5-1.5.7-2.5.7ZM64.5,311.8c.5,0,1-.2,1.4-.5.4-.3.7-.8.9-1.3s.3-1.2.3-2-.1-1.4-.3-1.9-.5-1-.9-1.3c-.4-.3-.9-.5-1.4-.5s-1,.2-1.4.5c-.4.3-.7.8-.9,1.3-.2.6-.3,1.2-.3,2s.1,1.4.3,1.9c.2.6.5,1,.9,1.3.4.3.9.5,1.4.5Z" style="fill:#fff; stroke-width:0px;"/><path d="M74.6,313.6c-1,0-1.8-.2-2.5-.7s-1.2-1.2-1.5-2c-.3-.8-.5-1.8-.5-2.8s.2-2,.5-2.8c.4-.8.9-1.5,1.6-2,.7-.5,1.5-.7,2.4-.7s1.9.3,2.6.8c.7.5,1.2,1.2,1.5,2,.3.8.5,1.8.5,2.8s-.2,2-.5,2.8c-.3.8-.9,1.5-1.5,2-.7.5-1.5.7-2.5.7ZM74.6,311.8c.5,0,1-.2,1.4-.5.4-.3.7-.8.9-1.3s.3-1.2.3-2-.1-1.4-.3-1.9-.5-1-.9-1.3c-.4-.3-.9-.5-1.4-.5s-1,.2-1.4.5c-.4.3-.7.8-.9,1.3-.2.6-.3,1.2-.3,2s.1,1.4.3,1.9c.2.6.5,1,.9,1.3.4.3.9.5,1.4.5Z" style="fill:#fff; stroke-width:0px;"/><path d="M84.8,313.6c-1,0-1.8-.2-2.5-.7s-1.2-1.2-1.5-2c-.3-.8-.5-1.8-.5-2.8s.2-2,.5-2.8c.4-.8.9-1.5,1.6-2,.7-.5,1.5-.7,2.4-.7s1.9.3,2.6.8c.7.5,1.2,1.2,1.5,2,.3.8.5,1.8.5,2.8s-.2,2-.5,2.8c-.3.8-.9,1.5-1.5,2-.7.5-1.5.7-2.5.7ZM84.8,311.8c.5,0,1-.2,1.4-.5.4-.3.7-.8.9-1.3s.3-1.2.3-2-.1-1.4-.3-1.9-.5-1-.9-1.3c-.4-.3-.9-.5-1.4-.5s-1,.2-1.4.5c-.4.3-.7.8-.9,1.3-.2.6-.3,1.2-.3,2s.1,1.4.3,1.9c.2.6.5,1,.9,1.3.4.3.9.5,1.4.5Z" style="fill:#fff; stroke-width:0px;"/><path d="M95,302.7h1.9v10.6h-1.9v-10.6Z" style="fill:#fff; stroke-width:0px;"/><path d="M104.5,313.6c-1,0-2-.2-2.9-.7-.9-.5-1.6-1.2-2.1-2s-.8-1.8-.8-2.8.3-1.9.8-2.8c.5-.8,1.2-1.5,2.1-2,.9-.5,1.8-.7,2.9-.7s2,.2,2.9.7c.9.5,1.6,1.2,2.1,2,.5.8.8,1.8.8,2.8s-.3,1.9-.8,2.8-1.2,1.5-2.1,2c-.9.5-1.8.7-2.9.7ZM104.5,311.8c.7,0,1.3-.2,1.9-.5.6-.3,1-.8,1.4-1.3.3-.6.5-1.2.5-1.9s-.2-1.4-.5-1.9c-.3-.6-.8-1-1.4-1.4s-1.2-.5-1.9-.5-1.3.2-1.9.5-1,.8-1.4,1.4c-.3.6-.5,1.2-.5,1.9s.2,1.3.5,1.9.8,1,1.4,1.3,1.2.5,1.9.5ZM106.1,312.8l1.7-.8,1.9,2.7-1.8,1-1.8-2.9Z" style="fill:#fff; stroke-width:0px;"/><path d="M112.1,302.7h4.1c1.1,0,2.1.2,3,.7.9.4,1.5,1.1,2,1.9.5.8.7,1.7.7,2.8s-.2,2-.7,2.8-1.1,1.4-2,1.9c-.9.4-1.8.7-2.9.7h-4.1v-10.6ZM116.2,311.6c.8,0,1.4-.1,2-.4.6-.3,1-.7,1.3-1.2.3-.5.4-1.2.4-1.9s-.1-1.4-.4-1.9c-.3-.5-.7-1-1.3-1.3-.6-.3-1.2-.4-2-.4h-2.1v7.2h2.1Z" style="fill:#fff; stroke-width:0px;"/><path d="M51.5,385.1h-5.3v-1.4c-.1,0,5.1-7,5.1-7h2.2v6.8h1.7v1.6h-1.7v2.3h-1.9v-2.3ZM51.5,383.5v-4.4l-3.3,4.4h3.3Z" style="fill:#fff; stroke-width:0px;"/><path d="M56.9,385.7h1.8l-1.4,3.2h-1.4l.9-3.2Z" style="fill:#fff; stroke-width:0px;"/><path d="M64.5,387.6c-1,0-1.8-.2-2.5-.7s-1.2-1.2-1.5-2c-.3-.8-.5-1.8-.5-2.8s.2-2,.5-2.8c.4-.8.9-1.5,1.6-2,.7-.5,1.5-.7,2.4-.7s1.9.3,2.6.8c.7.5,1.2,1.2,1.5,2,.3.8.5,1.8.5,2.8s-.2,2-.5,2.8c-.3.8-.9,1.5-1.5,2-.7.5-1.5.7-2.5.7ZM64.5,385.9c.5,0,1-.2,1.4-.5.4-.3.7-.8.9-1.3s.3-1.2.3-2-.1-1.4-.3-1.9-.5-1-.9-1.3c-.4-.3-.9-.5-1.4-.5s-1,.2-1.4.5c-.4.3-.7.8-.9,1.3-.2.6-.3,1.2-.3,2s.1,1.4.3,1.9c.2.6.5,1,.9,1.3.4.3.9.5,1.4.5Z" style="fill:#fff; stroke-width:0px;"/><path d="M74.6,387.6c-1,0-1.8-.2-2.5-.7s-1.2-1.2-1.5-2c-.3-.8-.5-1.8-.5-2.8s.2-2,.5-2.8c.4-.8.9-1.5,1.6-2,.7-.5,1.5-.7,2.4-.7s1.9.3,2.6.8c.7.5,1.2,1.2,1.5,2,.3.8.5,1.8.5,2.8s-.2,2-.5,2.8c-.3.8-.9,1.5-1.5,2-.7.5-1.5.7-2.5.7ZM74.6,385.9c.5,0,1-.2,1.4-.5.4-.3.7-.8.9-1.3s.3-1.2.3-2-.1-1.4-.3-1.9-.5-1-.9-1.3c-.4-.3-.9-.5-1.4-.5s-1,.2-1.4.5c-.4.3-.7.8-.9,1.3-.2.6-.3,1.2-.3,2s.1,1.4.3,1.9c.2.6.5,1,.9,1.3.4.3.9.5,1.4.5Z" style="fill:#fff; stroke-width:0px;"/><path d="M84.8,387.6c-1,0-1.8-.2-2.5-.7s-1.2-1.2-1.5-2c-.3-.8-.5-1.8-.5-2.8s.2-2,.5-2.8c.4-.8.9-1.5,1.6-2,.7-.5,1.5-.7,2.4-.7s1.9.3,2.6.8c.7.5,1.2,1.2,1.5,2,.3.8.5,1.8.5,2.8s-.2,2-.5,2.8c-.3.8-.9,1.5-1.5,2-.7.5-1.5.7-2.5.7ZM84.8,385.9c.5,0,1-.2,1.4-.5.4-.3.7-.8.9-1.3s.3-1.2.3-2-.1-1.4-.3-1.9-.5-1-.9-1.3c-.4-.3-.9-.5-1.4-.5s-1,.2-1.4.5c-.4.3-.7.8-.9,1.3-.2.6-.3,1.2-.3,2s.1,1.4.3,1.9c.2.6.5,1,.9,1.3.4.3.9.5,1.4.5Z" style="fill:#fff; stroke-width:0px;"/><path d="M95,376.8h1.9v10.6h-1.9v-10.6Z" style="fill:#fff; stroke-width:0px;"/><path d="M104.5,387.6c-1,0-2-.2-2.9-.7-.9-.5-1.6-1.2-2.1-2s-.8-1.8-.8-2.8.3-1.9.8-2.8c.5-.8,1.2-1.5,2.1-2,.9-.5,1.8-.7,2.9-.7s2,.2,2.9.7c.9.5,1.6,1.2,2.1,2,.5.8.8,1.8.8,2.8s-.3,1.9-.8,2.8-1.2,1.5-2.1,2c-.9.5-1.8.7-2.9.7ZM104.5,385.8c.7,0,1.3-.2,1.9-.5.6-.3,1-.8,1.4-1.3.3-.6.5-1.2.5-1.9s-.2-1.4-.5-1.9c-.3-.6-.8-1-1.4-1.4s-1.2-.5-1.9-.5-1.3.2-1.9.5-1,.8-1.4,1.4c-.3.6-.5,1.2-.5,1.9s.2,1.3.5,1.9.8,1,1.4,1.3,1.2.5,1.9.5ZM106.1,386.9l1.7-.8,1.9,2.7-1.8,1-1.8-2.9Z" style="fill:#fff; stroke-width:0px;"/><path d="M112.1,376.8h4.1c1.1,0,2.1.2,3,.7.9.4,1.5,1.1,2,1.9.5.8.7,1.7.7,2.8s-.2,2-.7,2.8-1.1,1.4-2,1.9c-.9.4-1.8.7-2.9.7h-4.1v-10.6ZM116.2,385.7c.8,0,1.4-.1,2-.4.6-.3,1-.7,1.3-1.2.3-.5.4-1.2.4-1.9s-.1-1.4-.4-1.9c-.3-.5-.7-1-1.3-1.3-.6-.3-1.2-.4-2-.4h-2.1v7.2h2.1Z" style="fill:#fff; stroke-width:0px;"/><path d="M166.5,241.2c-.7,0-1.3-.1-1.8-.4s-1.1-.6-1.5-1.2-.6-1.2-.7-2.1h1.9c0,.4.2.8.4,1s.5.5.8.6.6.2.9.2.7,0,1-.3.5-.4.7-.7c.2-.3.2-.6.2-1s0-.7-.3-1c-.2-.3-.5-.5-.8-.6-.3-.1-.8-.2-1.2-.2h-2.1s-.8-.7-.8-.7l.6-4.7h5.9v1.6h-4.2l-.3,2.4h1.5c.8,0,1.4.1,2,.4.6.3,1,.6,1.3,1.1.3.5.5,1,.5,1.7s-.2,1.3-.5,1.8c-.3.6-.8,1-1.4,1.4s-1.3.5-2.1.5Z" style="fill:#fff; stroke-width:0px;"/><path d="M172.5,239.2h1.8l-1.4,3.2h-1.4l.9-3.2Z" style="fill:#fff; stroke-width:0px;"/><path d="M179.6,241.2c-.7,0-1.3-.1-1.8-.4s-1.1-.6-1.5-1.2-.6-1.2-.7-2.1h1.9c0,.4.2.8.4,1s.5.5.8.6.6.2.9.2.7,0,1-.3.5-.4.7-.7c.2-.3.2-.6.2-1s0-.7-.3-1c-.2-.3-.5-.5-.8-.6-.3-.1-.8-.2-1.2-.2h-2.1s-.8-.7-.8-.7l.6-4.7h5.9v1.6h-4.2l-.3,2.4h1.5c.8,0,1.4.1,2,.4.6.3,1,.6,1.3,1.1.3.5.5,1,.5,1.7s-.2,1.3-.5,1.8c-.3.6-.8,1-1.4,1.4s-1.3.5-2.1.5Z" style="fill:#fff; stroke-width:0px;"/><path d="M189.2,241.2c-1,0-1.8-.2-2.5-.7s-1.2-1.2-1.5-2c-.3-.8-.5-1.8-.5-2.8s.2-2,.5-2.8c.4-.8.9-1.5,1.6-2,.7-.5,1.5-.7,2.4-.7s1.9.3,2.6.8c.7.5,1.2,1.2,1.5,2,.3.8.5,1.8.5,2.8s-.2,2-.5,2.8c-.3.8-.9,1.5-1.5,2-.7.5-1.5.7-2.5.7ZM189.2,239.4c.5,0,1-.2,1.4-.5.4-.3.7-.8.9-1.3s.3-1.2.3-2-.1-1.4-.3-1.9-.5-1-.9-1.3c-.4-.3-.9-.5-1.4-.5s-1,.2-1.4.5c-.4.3-.7.8-.9,1.3-.2.6-.3,1.2-.3,2s.1,1.4.3,1.9c.2.6.5,1,.9,1.3.4.3.9.5,1.4.5Z" style="fill:#fff; stroke-width:0px;"/><path d="M199.3,241.2c-1,0-1.8-.2-2.5-.7s-1.2-1.2-1.5-2c-.3-.8-.5-1.8-.5-2.8s.2-2,.5-2.8c.4-.8.9-1.5,1.6-2,.7-.5,1.5-.7,2.4-.7s1.9.3,2.6.8c.7.5,1.2,1.2,1.5,2,.3.8.5,1.8.5,2.8s-.2,2-.5,2.8c-.3.8-.9,1.5-1.5,2-.7.5-1.5.7-2.5.7ZM199.3,239.4c.5,0,1-.2,1.4-.5.4-.3.7-.8.9-1.3s.3-1.2.3-2-.1-1.4-.3-1.9-.5-1-.9-1.3c-.4-.3-.9-.5-1.4-.5s-1,.2-1.4.5c-.4.3-.7.8-.9,1.3-.2.6-.3,1.2-.3,2s.1,1.4.3,1.9c.2.6.5,1,.9,1.3.4.3.9.5,1.4.5Z" style="fill:#fff; stroke-width:0px;"/><path d="M209.5,230.4h1.9v10.6h-1.9v-10.6Z" style="fill:#fff; stroke-width:0px;"/><path d="M219,241.2c-1,0-2-.2-2.9-.7-.9-.5-1.6-1.2-2.1-2s-.8-1.8-.8-2.8.3-1.9.8-2.8c.5-.8,1.2-1.5,2.1-2,.9-.5,1.8-.7,2.9-.7s2,.2,2.9.7c.9.5,1.6,1.2,2.1,2,.5.8.8,1.8.8,2.8s-.3,1.9-.8,2.8-1.2,1.5-2.1,2c-.9.5-1.8.7-2.9.7ZM219,239.4c.7,0,1.3-.2,1.9-.5.6-.3,1-.8,1.4-1.3.3-.6.5-1.2.5-1.9s-.2-1.4-.5-1.9c-.3-.6-.8-1-1.4-1.4s-1.2-.5-1.9-.5-1.3.2-1.9.5-1,.8-1.4,1.4c-.3.6-.5,1.2-.5,1.9s.2,1.3.5,1.9.8,1,1.4,1.3,1.2.5,1.9.5ZM220.7,240.4l1.7-.8,1.9,2.7-1.8,1-1.8-2.9Z" style="fill:#fff; stroke-width:0px;"/><path d="M226.7,230.4h4.1c1.1,0,2.1.2,3,.7.9.4,1.5,1.1,2,1.9.5.8.7,1.7.7,2.8s-.2,2-.7,2.8-1.1,1.4-2,1.9c-.9.4-1.8.7-2.9.7h-4.1v-10.6ZM230.7,239.3c.8,0,1.4-.1,2-.4.6-.3,1-.7,1.3-1.2.3-.5.4-1.2.4-1.9s-.1-1.4-.4-1.9c-.3-.5-.7-1-1.3-1.3-.6-.3-1.2-.4-2-.4h-2.1v7.2h2.1Z" style="fill:#fff; stroke-width:0px;"/><path d="M166.5,313.6c-.7,0-1.3-.1-1.8-.4s-1.1-.6-1.5-1.2-.6-1.2-.7-2.1h1.9c0,.4.2.8.4,1s.5.5.8.6.6.2.9.2.7,0,1-.3.5-.4.7-.7c.2-.3.2-.6.2-1s0-.7-.3-1c-.2-.3-.5-.5-.8-.6-.3-.1-.8-.2-1.2-.2h-2.1s-.8-.7-.8-.7l.6-4.7h5.9v1.6h-4.2l-.3,2.4h1.5c.8,0,1.4.1,2,.4.6.3,1,.6,1.3,1.1.3.5.5,1,.5,1.7s-.2,1.3-.5,1.8c-.3.6-.8,1-1.4,1.4s-1.3.5-2.1.5Z" style="fill:#fff; stroke-width:0px;"/><path d="M172.5,311.6h1.8l-1.4,3.2h-1.4l.9-3.2Z" style="fill:#fff; stroke-width:0px;"/><path d="M179.6,313.6c-.7,0-1.3-.1-1.8-.4s-1.1-.6-1.5-1.2-.6-1.2-.7-2.1h1.9c0,.4.2.8.4,1s.5.5.8.6.6.2.9.2.7,0,1-.3.5-.4.7-.7c.2-.3.2-.6.2-1s0-.7-.3-1c-.2-.3-.5-.5-.8-.6-.3-.1-.8-.2-1.2-.2h-2.1s-.8-.7-.8-.7l.6-4.7h5.9v1.6h-4.2l-.3,2.4h1.5c.8,0,1.4.1,2,.4.6.3,1,.6,1.3,1.1.3.5.5,1,.5,1.7s-.2,1.3-.5,1.8c-.3.6-.8,1-1.4,1.4s-1.3.5-2.1.5Z" style="fill:#fff; stroke-width:0px;"/><path d="M189.2,313.6c-1,0-1.8-.2-2.5-.7s-1.2-1.2-1.5-2c-.3-.8-.5-1.8-.5-2.8s.2-2,.5-2.8c.4-.8.9-1.5,1.6-2,.7-.5,1.5-.7,2.4-.7s1.9.3,2.6.8c.7.5,1.2,1.2,1.5,2,.3.8.5,1.8.5,2.8s-.2,2-.5,2.8c-.3.8-.9,1.5-1.5,2-.7.5-1.5.7-2.5.7ZM189.2,311.8c.5,0,1-.2,1.4-.5.4-.3.7-.8.9-1.3s.3-1.2.3-2-.1-1.4-.3-1.9-.5-1-.9-1.3c-.4-.3-.9-.5-1.4-.5s-1,.2-1.4.5c-.4.3-.7.8-.9,1.3-.2.6-.3,1.2-.3,2s.1,1.4.3,1.9c.2.6.5,1,.9,1.3.4.3.9.5,1.4.5Z" style="fill:#fff; stroke-width:0px;"/><path d="M199.3,313.6c-1,0-1.8-.2-2.5-.7s-1.2-1.2-1.5-2c-.3-.8-.5-1.8-.5-2.8s.2-2,.5-2.8c.4-.8.9-1.5,1.6-2,.7-.5,1.5-.7,2.4-.7s1.9.3,2.6.8c.7.5,1.2,1.2,1.5,2,.3.8.5,1.8.5,2.8s-.2,2-.5,2.8c-.3.8-.9,1.5-1.5,2-.7.5-1.5.7-2.5.7ZM199.3,311.8c.5,0,1-.2,1.4-.5.4-.3.7-.8.9-1.3s.3-1.2.3-2-.1-1.4-.3-1.9-.5-1-.9-1.3c-.4-.3-.9-.5-1.4-.5s-1,.2-1.4.5c-.4.3-.7.8-.9,1.3-.2.6-.3,1.2-.3,2s.1,1.4.3,1.9c.2.6.5,1,.9,1.3.4.3.9.5,1.4.5Z" style="fill:#fff; stroke-width:0px;"/><path d="M209.5,302.7h1.9v10.6h-1.9v-10.6Z" style="fill:#fff; stroke-width:0px;"/><path d="M219,313.6c-1,0-2-.2-2.9-.7-.9-.5-1.6-1.2-2.1-2s-.8-1.8-.8-2.8.3-1.9.8-2.8c.5-.8,1.2-1.5,2.1-2,.9-.5,1.8-.7,2.9-.7s2,.2,2.9.7c.9.5,1.6,1.2,2.1,2,.5.8.8,1.8.8,2.8s-.3,1.9-.8,2.8-1.2,1.5-2.1,2c-.9.5-1.8.7-2.9.7ZM219,311.8c.7,0,1.3-.2,1.9-.5.6-.3,1-.8,1.4-1.3.3-.6.5-1.2.5-1.9s-.2-1.4-.5-1.9c-.3-.6-.8-1-1.4-1.4s-1.2-.5-1.9-.5-1.3.2-1.9.5-1,.8-1.4,1.4c-.3.6-.5,1.2-.5,1.9s.2,1.3.5,1.9.8,1,1.4,1.3,1.2.5,1.9.5ZM220.7,312.8l1.7-.8,1.9,2.7-1.8,1-1.8-2.9Z" style="fill:#fff; stroke-width:0px;"/><path d="M226.7,302.7h4.1c1.1,0,2.1.2,3,.7.9.4,1.5,1.1,2,1.9.5.8.7,1.7.7,2.8s-.2,2-.7,2.8-1.1,1.4-2,1.9c-.9.4-1.8.7-2.9.7h-4.1v-10.6ZM230.7,311.6c.8,0,1.4-.1,2-.4.6-.3,1-.7,1.3-1.2.3-.5.4-1.2.4-1.9s-.1-1.4-.4-1.9c-.3-.5-.7-1-1.3-1.3-.6-.3-1.2-.4-2-.4h-2.1v7.2h2.1Z" style="fill:#fff; stroke-width:0px;"/><path d="M166.5,387.6c-.7,0-1.3-.1-1.8-.4s-1.1-.6-1.5-1.2-.6-1.2-.7-2.1h1.9c0,.4.2.8.4,1s.5.5.8.6.6.2.9.2.7,0,1-.3.5-.4.7-.7c.2-.3.2-.6.2-1s0-.7-.3-1c-.2-.3-.5-.5-.8-.6-.3-.1-.8-.2-1.2-.2h-2.1s-.8-.7-.8-.7l.6-4.7h5.9v1.6h-4.2l-.3,2.4h1.5c.8,0,1.4.1,2,.4.6.3,1,.6,1.3,1.1.3.5.5,1,.5,1.7s-.2,1.3-.5,1.8c-.3.6-.8,1-1.4,1.4s-1.3.5-2.1.5Z" style="fill:#fff; stroke-width:0px;"/><path d="M172.5,385.7h1.8l-1.4,3.2h-1.4l.9-3.2Z" style="fill:#fff; stroke-width:0px;"/><path d="M179.6,387.6c-.7,0-1.3-.1-1.8-.4s-1.1-.6-1.5-1.2-.6-1.2-.7-2.1h1.9c0,.4.2.8.4,1s.5.5.8.6.6.2.9.2.7,0,1-.3.5-.4.7-.7c.2-.3.2-.6.2-1s0-.7-.3-1c-.2-.3-.5-.5-.8-.6-.3-.1-.8-.2-1.2-.2h-2.1s-.8-.7-.8-.7l.6-4.7h5.9v1.6h-4.2l-.3,2.4h1.5c.8,0,1.4.1,2,.4.6.3,1,.6,1.3,1.1.3.5.5,1,.5,1.7s-.2,1.3-.5,1.8c-.3.6-.8,1-1.4,1.4s-1.3.5-2.1.5Z" style="fill:#fff; stroke-width:0px;"/><path d="M189.2,387.6c-1,0-1.8-.2-2.5-.7s-1.2-1.2-1.5-2c-.3-.8-.5-1.8-.5-2.8s.2-2,.5-2.8c.4-.8.9-1.5,1.6-2,.7-.5,1.5-.7,2.4-.7s1.9.3,2.6.8c.7.5,1.2,1.2,1.5,2,.3.8.5,1.8.5,2.8s-.2,2-.5,2.8c-.3.8-.9,1.5-1.5,2-.7.5-1.5.7-2.5.7ZM189.2,385.9c.5,0,1-.2,1.4-.5.4-.3.7-.8.9-1.3s.3-1.2.3-2-.1-1.4-.3-1.9-.5-1-.9-1.3c-.4-.3-.9-.5-1.4-.5s-1,.2-1.4.5c-.4.3-.7.8-.9,1.3-.2.6-.3,1.2-.3,2s.1,1.4.3,1.9c.2.6.5,1,.9,1.3.4.3.9.5,1.4.5Z" style="fill:#fff; stroke-width:0px;"/><path d="M199.3,387.6c-1,0-1.8-.2-2.5-.7s-1.2-1.2-1.5-2c-.3-.8-.5-1.8-.5-2.8s.2-2,.5-2.8c.4-.8.9-1.5,1.6-2,.7-.5,1.5-.7,2.4-.7s1.9.3,2.6.8c.7.5,1.2,1.2,1.5,2,.3.8.5,1.8.5,2.8s-.2,2-.5,2.8c-.3.8-.9,1.5-1.5,2-.7.5-1.5.7-2.5.7ZM199.3,385.9c.5,0,1-.2,1.4-.5.4-.3.7-.8.9-1.3s.3-1.2.3-2-.1-1.4-.3-1.9-.5-1-.9-1.3c-.4-.3-.9-.5-1.4-.5s-1,.2-1.4.5c-.4.3-.7.8-.9,1.3-.2.6-.3,1.2-.3,2s.1,1.4.3,1.9c.2.6.5,1,.9,1.3.4.3.9.5,1.4.5Z" style="fill:#fff; stroke-width:0px;"/><path d="M209.5,376.8h1.9v10.6h-1.9v-10.6Z" style="fill:#fff; stroke-width:0px;"/><path d="M219,387.6c-1,0-2-.2-2.9-.7-.9-.5-1.6-1.2-2.1-2s-.8-1.8-.8-2.8.3-1.9.8-2.8c.5-.8,1.2-1.5,2.1-2,.9-.5,1.8-.7,2.9-.7s2,.2,2.9.7c.9.5,1.6,1.2,2.1,2,.5.8.8,1.8.8,2.8s-.3,1.9-.8,2.8-1.2,1.5-2.1,2c-.9.5-1.8.7-2.9.7ZM219,385.8c.7,0,1.3-.2,1.9-.5.6-.3,1-.8,1.4-1.3.3-.6.5-1.2.5-1.9s-.2-1.4-.5-1.9c-.3-.6-.8-1-1.4-1.4s-1.2-.5-1.9-.5-1.3.2-1.9.5-1,.8-1.4,1.4c-.3.6-.5,1.2-.5,1.9s.2,1.3.5,1.9.8,1,1.4,1.3,1.2.5,1.9.5ZM220.7,386.9l1.7-.8,1.9,2.7-1.8,1-1.8-2.9Z" style="fill:#fff; stroke-width:0px;"/><path d="M226.7,376.8h4.1c1.1,0,2.1.2,3,.7.9.4,1.5,1.1,2,1.9.5.8.7,1.7.7,2.8s-.2,2-.7,2.8-1.1,1.4-2,1.9c-.9.4-1.8.7-2.9.7h-4.1v-10.6ZM230.7,385.7c.8,0,1.4-.1,2-.4.6-.3,1-.7,1.3-1.2.3-.5.4-1.2.4-1.9s-.1-1.4-.4-1.9c-.3-.5-.7-1-1.3-1.3-.6-.3-1.2-.4-2-.4h-2.1v7.2h2.1Z" style="fill:#fff; stroke-width:0px;"/><rect x="266.3" y="235.5" width="105.9" height=".5" style="fill:#fff; stroke-width:0px;"/><rect x="266.3" y="308.9" width="105.9" height=".5" style="fill:#fff; stroke-width:0px;"/><rect x="266.3" y="383.6" width="105.9" height=".5" style="fill:#fff; stroke-width:0px;"/><path d="M404.4,626.7v-9.1s2.8-.3,2.8-.3v8.4c0,1.3.5,1.9,1.5,1.9s.2,0,.2.2v2.6c0,.1,0,.2-.2.2-2.9,0-4.4-1.3-4.4-3.9Z" style="fill:#fff; stroke-width:0px;"/><path d="M412.5,627.7v2.6c0,.1,0,.2-.2.2h-3.5c-.1,0-.2,0-.2-.2v-2.6c0-.1,0-.2.2-.2h3.5c.1,0,.2,0,.2.2Z" style="fill:#fff; stroke-width:0px;"/><path d="M416,627.7v2.6c0,.1,0,.2-.2.2h-3.5c-.1,0-.2,0-.2-.2v-2.6c0-.1,0-.2.2-.2h3.5c.1,0,.2,0,.2.2Z" style="fill:#fff; stroke-width:0px;"/><path d="M419.6,627.7v2.6c0,.1,0,.2-.2.2h-3.5c-.1,0-.2,0-.2-.2v-2.6c0-.1,0-.2.2-.2h3.5c.1,0,.2,0,.2.2Z" style="fill:#fff; stroke-width:0px;"/><path d="M423.1,627.7v2.6c0,.1,0,.2-.2.2h-3.5c-.1,0-.2,0-.2-.2v-2.6c0-.1,0-.2.2-.2h3.5c.1,0,.2,0,.2.2Z" style="fill:#fff; stroke-width:0px;"/><path d="M426.7,627.7v2.6c0,.1,0,.2-.2.2h-3.5c-.1,0-.2,0-.2-.2v-2.6c0-.1,0-.2.2-.2h3.5c.1,0,.2,0,.2.2Z" style="fill:#fff; stroke-width:0px;"/><path d="M430.2,627.7v2.6c0,.1,0,.2-.2.2h-3.5c-.1,0-.2,0-.2-.2v-2.6c0-.1,0-.2.2-.2h3.5c.1,0,.2,0,.2.2Z" style="fill:#fff; stroke-width:0px;"/><path d="M433.7,627.7v2.6c0,.1,0,.2-.2.2h-3.5c-.1,0-.2,0-.2-.2v-2.6c0-.1,0-.2.2-.2h3.5c.1,0,.2,0,.2.2Z" style="fill:#fff; stroke-width:0px;"/><path d="M437.3,627.7v2.6c0,.1,0,.2-.2.2h-3.5c-.1,0-.2,0-.2-.2v-2.6c0-.1,0-.2.2-.2h3.5c.1,0,.2,0,.2.2Z" style="fill:#fff; stroke-width:0px;"/><path d="M440.8,627.7v2.6c0,.1,0,.2-.2.2h-3.5c-.1,0-.2,0-.2-.2v-2.6c0-.1,0-.2.2-.2h3.5c.1,0,.2,0,.2.2Z" style="fill:#fff; stroke-width:0px;"/><path d="M444.4,627.7v2.6c0,.1,0,.2-.2.2h-3.5c-.1,0-.2,0-.2-.2v-2.6c0-.1,0-.2.2-.2h3.5c.1,0,.2,0,.2.2Z" style="fill:#fff; stroke-width:0px;"/><path d="M447.9,627.7v2.6c0,.1,0,.2-.2.2h-3.5c-.1,0-.2,0-.2-.2v-2.6c0-.1,0-.2.2-.2h3.5c.1,0,.2,0,.2.2Z" style="fill:#fff; stroke-width:0px;"/><path d="M451.5,627.7v2.6c0,.1,0,.2-.2.2h-3.5c-.1,0-.2,0-.2-.2v-2.6c0-.1,0-.2.2-.2h3.5c.1,0,.2,0,.2.2Z" style="fill:#fff; stroke-width:0px;"/><path d="M451.1,630.4v-2.6c0-.1.1-.2.2-.2,1,0,1.5-.6,1.5-1.9v-4s2.8-.3,2.8-.3v5.4c0,2.5-1.4,3.8-4.4,3.8s-.2,0-.2-.2ZM452.3,618.1l1.9-1.9,1.9,1.9-1.9,1.9-1.9-1.9Z" style="fill:#fff; stroke-width:0px;"/><path d="M457.9,626.7v-9.1s2.8-.3,2.8-.3v8.4c0,1.3.5,1.9,1.5,1.9s.2,0,.2.2v2.6c0,.1,0,.2-.2.2-2.9,0-4.4-1.3-4.4-3.9Z" style="fill:#fff; stroke-width:0px;"/><path d="M462.1,630.4v-2.6c0-.1.1-.2.2-.2,1,0,1.5-.6,1.5-1.9v-4s2.8-.3,2.8-.3v5.4c0,2.5-1.4,3.8-4.4,3.8s-.2,0-.2-.2ZM462.6,633.4l1.9-1.9,1.9,1.9-1.9,1.9-1.9-1.9Z" style="fill:#fff; stroke-width:0px;"/><path d="M478.5,627.7v2.6c0,.1,0,.2-.2.2-.8,0-1.4-.3-1.9-.7v.3c0,3.2-1.7,4.3-5.2,4.3l-.2-2.3c1.5,0,2.6-.6,2.6-2.2v-8.4s2.8-.3,2.8-.3v4.9c.1.9.9,1.3,1.9,1.3s.2,0,.2.2ZM475,620.4l-1.9-1.9,1.9-1.9,1.9,1.9-1.9,1.9Z" style="fill:#fff; stroke-width:0px;"/><path d="M482.1,627.7v2.6c0,.1,0,.2-.2.2h-3.5c-.1,0-.2,0-.2-.2v-2.6c0-.1,0-.2.2-.2h3.5c.1,0,.2,0,.2.2Z" style="fill:#fff; stroke-width:0px;"/><path d="M485.6,627.7v2.6c0,.1,0,.2-.2.2h-3.5c-.1,0-.2,0-.2-.2v-2.6c0-.1,0-.2.2-.2h3.5c.1,0,.2,0,.2.2Z" style="fill:#fff; stroke-width:0px;"/><path d="M489.2,627.7v2.6c0,.1,0,.2-.2.2h-3.5c-.1,0-.2,0-.2-.2v-2.6c0-.1,0-.2.2-.2h3.5c.1,0,.2,0,.2.2Z" style="fill:#fff; stroke-width:0px;"/><path d="M492.7,627.7v2.6c0,.1,0,.2-.2.2h-3.5c-.1,0-.2,0-.2-.2v-2.6c0-.1,0-.2.2-.2h3.5c.1,0,.2,0,.2.2Z" style="fill:#fff; stroke-width:0px;"/><path d="M496.3,627.7v2.6c0,.1,0,.2-.2.2h-3.5c-.1,0-.2,0-.2-.2v-2.6c0-.1,0-.2.2-.2h3.5c.1,0,.2,0,.2.2Z" style="fill:#fff; stroke-width:0px;"/><path d="M499.8,627.7v2.6c0,.1,0,.2-.2.2h-3.5c-.1,0-.2,0-.2-.2v-2.6c0-.1,0-.2.2-.2h3.5c.1,0,.2,0,.2.2Z" style="fill:#fff; stroke-width:0px;"/><path d="M503.4,627.7v2.6c0,.1,0,.2-.2.2h-3.5c-.1,0-.2,0-.2-.2v-2.6c0-.1,0-.2.2-.2h3.5c.1,0,.2,0,.2.2Z" style="fill:#fff; stroke-width:0px;"/><path d="M506.9,627.7v2.6c0,.1,0,.2-.2.2h-3.5c-.1,0-.2,0-.2-.2v-2.6c0-.1,0-.2.2-.2h3.5c.1,0,.2,0,.2.2Z" style="fill:#fff; stroke-width:0px;"/><path d="M510.4,627.7v2.6c0,.1,0,.2-.2.2h-3.5c-.1,0-.2,0-.2-.2v-2.6c0-.1,0-.2.2-.2h3.5c.1,0,.2,0,.2.2Z" style="fill:#fff; stroke-width:0px;"/><path d="M514,627.7v2.6c0,.1,0,.2-.2.2h-3.5c-.1,0-.2,0-.2-.2v-2.6c0-.1,0-.2.2-.2h3.5c.1,0,.2,0,.2.2Z" style="fill:#fff; stroke-width:0px;"/><path d="M517.5,627.7v2.6c0,.1,0,.2-.2.2h-3.5c-.1,0-.2,0-.2-.2v-2.6c0-.1,0-.2.2-.2h3.5c.1,0,.2,0,.2.2Z" style="fill:#fff; stroke-width:0px;"/><path d="M521.1,627.7v2.6c0,.1,0,.2-.2.2h-3.5c-.1,0-.2,0-.2-.2v-2.6c0-.1,0-.2.2-.2h3.5c.1,0,.2,0,.2.2Z" style="fill:#fff; stroke-width:0px;"/><path d="M524.6,627.7v2.6c0,.1,0,.2-.2.2h-3.5c-.1,0-.2,0-.2-.2v-2.6c0-.1,0-.2.2-.2h3.5c.1,0,.2,0,.2.2Z" style="fill:#fff; stroke-width:0px;"/><path d="M528.7,635.3l-1.3-1.3-1.3,1.3-1.9-1.9,1.9-1.9,1.3,1.3,1.3-1.3,1.9,1.9-1.9,1.9ZM524.3,630.4v-2.6c0-.1.1-.2.2-.2h1.5c1,0,1.5-.6,1.5-1.9v-4s2.8-.3,2.8-.3v5.4c0,2.5-1.4,3.8-4.4,3.8h-1.5c-.1,0-.2,0-.2-.2Z" style="fill:#fff; stroke-width:0px;"/><path d="M538.4,627.7v2.6c0,.1,0,.2-.2.2-.8,0-1.4-.3-1.9-.7v.3c0,3.2-1.7,4.3-5.2,4.3l-.2-2.3c1.5,0,2.6-.6,2.6-2.2v-8.4s2.8-.3,2.8-.3v4.9c.1.9.9,1.3,1.9,1.3s.2,0,.2.2Z" style="fill:#fff; stroke-width:0px;"/><path d="M547.7,625.6c0,3-2,5-5.2,5h-4.2c-.1,0-.2,0-.2-.2v-2.6c0-.1,0-.2.2-.2h1.1c-.3-.7-.5-1.4-.5-2.1,0-2.5,1.9-4.3,4.3-4.3s4.5,1.9,4.5,4.4ZM543,620l-1.9-1.9,1.9-1.9,1.9,1.9-1.9,1.9ZM544.8,625.6c0-1-.7-1.7-1.7-1.7s-1.8.8-1.8,1.8.2,1.2.5,1.9h.6c1.5,0,2.4-.8,2.4-2Z" style="fill:#fff; stroke-width:0px;"/><path d="M405.7,648.9c-.4,0-.8-.1-1.3-.1s-.9,0-1.1.2c-.3.1-.4.4-.4.7s0,.4.2.5c.1.1.3.2.5.3s.6.2,1,.3c.6.1,1.1.3,1.5.4s.7.4.8.6c.2.2.3.5.3.9,0,.6-.3,1.1-.8,1.4s-1.2.5-2.1.5-1.9-.2-2.6-.5v-.9c.4.1.8.3,1.2.4.4,0,.9.1,1.4.1s1.1,0,1.4-.2c.3-.2.5-.4.5-.7s0-.4-.2-.5-.3-.3-.6-.4c-.3,0-.6-.2-1.1-.3-.6-.1-1-.3-1.4-.4-.4-.2-.6-.3-.8-.6-.2-.2-.3-.5-.3-.9,0-.6.2-1,.7-1.3.5-.3,1.1-.4,1.9-.4s1.7.1,2.4.4v.9c-.4-.1-.7-.3-1.1-.3Z" style="fill:#ee304c; stroke-width:0px;"/><path d="M409.7,648.8h-2.2v-.8h5.5v.8h-2.3v5.5h-1v-5.5Z" style="fill:#ee304c; stroke-width:0px;"/><path d="M413.7,648h2.7c.8,0,1.5.2,1.9.5s.7.8.7,1.4-.2,1-.6,1.3c-.4.3-.9.5-1.7.6l2.4,2.5h-1.2l-3-3.2h1.5c.5,0,.9-.1,1.1-.3.3-.2.4-.5.4-.9s-.1-.7-.4-.9c-.3-.2-.6-.3-1.1-.3h-1.7v5.5h-1v-6.3Z" style="fill:#ee304c; stroke-width:0px;"/><path d="M421.9,648h2l2.6,6.3h-1.1l-.6-1.5h-3.7l-.6,1.5h-1.1l2.6-6.3ZM424.4,652l-1.5-3.9h0l-1.5,3.9h3.1Z" style="fill:#ee304c; stroke-width:0px;"/><path d="M425.7,648h1.1l1.8,6.2h0l1.7-6.2h1.7l1.7,6.2h0l1.8-6.2h1.1l-1.9,6.3h-1.9l-1.7-6.2h0l-1.7,6.2h-1.9l-1.9-6.3Z" style="fill:#ee304c; stroke-width:0px;"/><path d="M437.4,648h2.8c.8,0,1.4.1,1.8.4.4.3.6.7.6,1.1s-.2.7-.5,1c-.4.2-.9.4-1.5.4h0c.8,0,1.3.2,1.8.5.4.3.6.7.6,1.2s-.2,1-.7,1.3c-.5.3-1.1.5-1.9.5h-3v-6.3ZM439.8,650.9c1.1,0,1.7-.3,1.7-1s-.1-.6-.4-.8c-.3-.2-.7-.3-1.2-.3h-1.5v2.1h1.4ZM440.1,653.5c.6,0,1,0,1.3-.3.3-.2.4-.4.4-.8s-.1-.6-.4-.8-.7-.3-1.2-.3h-1.8v2.2h1.7Z" style="fill:#ee304c; stroke-width:0px;"/><path d="M448.9,648v.8h-4v1.9h3.2v.7h-3.2v2h4.1v.8h-5.1v-6.3h5Z" style="fill:#ee304c; stroke-width:0px;"/><path d="M449.7,648h2.7c.8,0,1.5.2,1.9.5s.7.8.7,1.4-.2,1-.6,1.3c-.4.3-.9.5-1.7.6l2.4,2.5h-1.2l-3-3.2h1.5c.5,0,.9-.1,1.1-.3.3-.2.4-.5.4-.9s-.1-.7-.4-.9c-.3-.2-.6-.3-1.1-.3h-1.7v5.5h-1v-6.3Z" style="fill:#ee304c; stroke-width:0px;"/><path d="M456,648h2.7c.8,0,1.5.2,1.9.5s.7.8.7,1.4-.2,1-.6,1.3c-.4.3-.9.5-1.7.6l2.4,2.5h-1.2l-3-3.2h1.5c.5,0,.9-.1,1.1-.3.3-.2.4-.5.4-.9s-.1-.7-.4-.9c-.3-.2-.6-.3-1.1-.3h-1.7v5.5h-1v-6.3Z" style="fill:#ee304c; stroke-width:0px;"/><path d="M463.3,648v6.3h-1v-6.3h1Z" style="fill:#ee304c; stroke-width:0px;"/><path d="M469.6,648v.8h-4v1.9h3.2v.7h-3.2v2h4.1v.8h-5.1v-6.3h5Z" style="fill:#ee304c; stroke-width:0px;"/><path d="M474.2,648.9c-.4,0-.8-.1-1.3-.1s-.9,0-1.1.2c-.3.1-.4.4-.4.7s0,.4.2.5c.1.1.3.2.5.3s.6.2,1,.3c.6.1,1.1.3,1.5.4s.7.4.8.6c.2.2.3.5.3.9,0,.6-.3,1.1-.8,1.4s-1.2.5-2.1.5-1.9-.2-2.6-.5v-.9c.4.1.8.3,1.2.4.4,0,.9.1,1.4.1s1.1,0,1.4-.2c.3-.2.5-.4.5-.7s0-.4-.2-.5-.3-.3-.6-.4c-.3,0-.6-.2-1.1-.3-.6-.1-1-.3-1.4-.4-.4-.2-.6-.3-.8-.6-.2-.2-.3-.5-.3-.9,0-.6.2-1,.7-1.3.5-.3,1.1-.4,1.9-.4s1.7.1,2.4.4v.9c-.4-.1-.7-.3-1.1-.3Z" style="fill:#ee304c; stroke-width:0px;"/><path d="M480.2,648h2l2.6,6.3h-1.1l-.6-1.5h-3.7l-.6,1.5h-1.1l2.6-6.3ZM482.8,652l-1.5-3.9h0l-1.5,3.9h3.1Z" style="fill:#ee304c; stroke-width:0px;"/><path d="M487.4,648l3.3,6.2h0v-6.2h1v6.3h-2l-3.3-6.2h0v6.2h-1v-6.3h2Z" style="fill:#ee304c; stroke-width:0px;"/><path d="M497.7,648.4c.5.3,1,.6,1.2,1.1.3.5.4,1,.4,1.7s-.1,1.2-.4,1.7c-.3.5-.7.8-1.2,1.1-.5.3-1.2.4-1.9.4h-2.7v-6.3h2.7c.7,0,1.4.1,1.9.4ZM495.8,653.5c.5,0,1,0,1.3-.3s.7-.5.9-.8c.2-.3.3-.8.3-1.2s-.1-.9-.3-1.2c-.2-.3-.5-.6-.9-.8-.4-.2-.8-.3-1.3-.3h-1.6v4.6h1.6Z" style="fill:#ee304c; stroke-width:0px;"/><path d="M502.2,648h2.8c.8,0,1.4.1,1.8.4.4.3.6.7.6,1.1s-.2.7-.5,1c-.4.2-.9.4-1.5.4h0c.8,0,1.3.2,1.8.5.4.3.6.7.6,1.2s-.2,1-.7,1.3c-.5.3-1.1.5-1.9.5h-3v-6.3ZM504.6,650.9c1.1,0,1.7-.3,1.7-1s-.1-.6-.4-.8c-.3-.2-.7-.3-1.2-.3h-1.5v2.1h1.4ZM505,653.5c.6,0,1,0,1.3-.3.3-.2.4-.4.4-.8s-.1-.6-.4-.8-.7-.3-1.2-.3h-1.8v2.2h1.7Z" style="fill:#ee304c; stroke-width:0px;"/><path d="M510.6,648h2l2.6,6.3h-1.1l-.6-1.5h-3.7l-.6,1.5h-1.1l2.6-6.3ZM513.1,652l-1.5-3.9h0l-1.5,3.9h3.1Z" style="fill:#ee304c; stroke-width:0px;"/><path d="M517.8,648l3.3,6.2h0v-6.2h1v6.3h-2l-3.3-6.2h0v6.2h-1v-6.3h2Z" style="fill:#ee304c; stroke-width:0px;"/><path d="M525.3,648h2l2.6,6.3h-1.1l-.6-1.5h-3.7l-.6,1.5h-1.1l2.6-6.3ZM527.8,652l-1.5-3.9h0l-1.5,3.9h3.1Z" style="fill:#ee304c; stroke-width:0px;"/><path d="M532.5,648l3.3,6.2h0v-6.2h1v6.3h-2l-3.3-6.2h0v6.2h-1v-6.3h2Z" style="fill:#ee304c; stroke-width:0px;"/><path d="M540,648h2l2.6,6.3h-1.1l-.6-1.5h-3.7l-.6,1.5h-1.1l2.6-6.3ZM542.5,652l-1.5-3.9h0l-1.5,3.9h3.1Z" style="fill:#ee304c; stroke-width:0px;"/><path d="M548.7,648.9c-.4,0-.8-.1-1.3-.1s-.9,0-1.1.2c-.3.1-.4.4-.4.7s0,.4.2.5c.1.1.3.2.5.3s.6.2,1,.3c.6.1,1.1.3,1.5.4s.7.4.8.6c.2.2.3.5.3.9,0,.6-.3,1.1-.8,1.4s-1.2.5-2.1.5-1.9-.2-2.6-.5v-.9c.4.1.8.3,1.2.4.4,0,.9.1,1.4.1s1.1,0,1.4-.2c.3-.2.5-.4.5-.7s0-.4-.2-.5-.3-.3-.6-.4c-.3,0-.6-.2-1.1-.3-.6-.1-1-.3-1.4-.4-.4-.2-.6-.3-.8-.6-.2-.2-.3-.5-.3-.9,0-.6.2-1,.7-1.3.5-.3,1.1-.4,1.9-.4s1.7.1,2.4.4v.9c-.4-.1-.7-.3-1.1-.3Z" style="fill:#ee304c; stroke-width:0px;"/><path d="M49,632c-.7,0-1.3-.1-1.8-.4-.6-.2-1.1-.6-1.5-1.2s-.6-1.2-.7-2.1h1.9c0,.4.2.8.4,1s.5.5.8.6.6.2.9.2.7,0,1-.3.5-.4.7-.7c.2-.3.2-.6.2-1s0-.7-.3-1c-.2-.3-.5-.5-.8-.6-.3-.1-.8-.2-1.2-.2h-2.1s-.8-.7-.8-.7l.6-4.7h5.9v1.6h-4.2l-.3,2.4h1.5c.8,0,1.4.1,2,.4.6.3,1,.6,1.3,1.1.3.5.5,1.1.5,1.7s-.2,1.3-.5,1.8c-.3.6-.8,1-1.4,1.4-.6.3-1.3.5-2.1.5Z" style="fill:#fff; stroke-width:0px;"/><path d="M54.9,630h1.8l-1.4,3.2h-1.4l.9-3.2Z" style="fill:#fff; stroke-width:0px;"/><path d="M62.5,632c-1,0-1.8-.2-2.5-.7s-1.2-1.2-1.5-2c-.3-.8-.5-1.8-.5-2.8s.2-2,.5-2.8c.4-.8.9-1.5,1.6-2,.7-.5,1.5-.7,2.4-.7s1.9.3,2.6.8c.7.5,1.2,1.2,1.5,2,.3.8.5,1.8.5,2.8s-.2,2-.5,2.8c-.3.8-.9,1.5-1.5,2-.7.5-1.5.7-2.5.7ZM62.5,630.2c.5,0,1-.2,1.4-.5.4-.3.7-.8.9-1.3s.3-1.2.3-2-.1-1.4-.3-1.9-.5-1-.9-1.3c-.4-.3-.9-.5-1.4-.5s-1,.2-1.4.5c-.4.3-.7.8-.9,1.3-.2.6-.3,1.2-.3,2s.1,1.4.3,1.9c.2.6.5,1,.9,1.3.4.3.9.5,1.4.5Z" style="fill:#fff; stroke-width:0px;"/><path d="M72.6,632c-1,0-1.8-.2-2.5-.7s-1.2-1.2-1.5-2c-.3-.8-.5-1.8-.5-2.8s.2-2,.5-2.8c.4-.8.9-1.5,1.6-2,.7-.5,1.5-.7,2.4-.7s1.9.3,2.6.8c.7.5,1.2,1.2,1.5,2,.3.8.5,1.8.5,2.8s-.2,2-.5,2.8c-.3.8-.9,1.5-1.5,2-.7.5-1.5.7-2.5.7ZM72.6,630.2c.5,0,1-.2,1.4-.5.4-.3.7-.8.9-1.3s.3-1.2.3-2-.1-1.4-.3-1.9-.5-1-.9-1.3c-.4-.3-.9-.5-1.4-.5s-1,.2-1.4.5c-.4.3-.7.8-.9,1.3-.2.6-.3,1.2-.3,2s.1,1.4.3,1.9c.2.6.5,1,.9,1.3.4.3.9.5,1.4.5Z" style="fill:#fff; stroke-width:0px;"/><path d="M82.8,632c-1,0-1.8-.2-2.5-.7s-1.2-1.2-1.5-2c-.3-.8-.5-1.8-.5-2.8s.2-2,.5-2.8c.4-.8.9-1.5,1.6-2,.7-.5,1.5-.7,2.4-.7s1.9.3,2.6.8c.7.5,1.2,1.2,1.5,2,.3.8.5,1.8.5,2.8s-.2,2-.5,2.8c-.3.8-.9,1.5-1.5,2-.7.5-1.5.7-2.5.7ZM82.8,630.2c.5,0,1-.2,1.4-.5.4-.3.7-.8.9-1.3s.3-1.2.3-2-.1-1.4-.3-1.9-.5-1-.9-1.3c-.4-.3-.9-.5-1.4-.5s-1,.2-1.4.5c-.4.3-.7.8-.9,1.3-.2.6-.3,1.2-.3,2s.1,1.4.3,1.9c.2.6.5,1,.9,1.3.4.3.9.5,1.4.5Z" style="fill:#fff; stroke-width:0px;"/><path d="M93,621.1h1.9v10.6h-1.9v-10.6Z" style="fill:#fff; stroke-width:0px;"/><path d="M102.5,632c-1,0-2-.2-2.9-.7-.9-.5-1.6-1.2-2.1-2s-.8-1.8-.8-2.8.3-1.9.8-2.8c.5-.8,1.2-1.5,2.1-2,.9-.5,1.8-.7,2.9-.7s2,.2,2.9.7c.9.5,1.6,1.2,2.1,2,.5.8.8,1.8.8,2.8s-.3,1.9-.8,2.8-1.2,1.5-2.1,2c-.9.5-1.8.7-2.9.7ZM102.5,630.2c.7,0,1.3-.2,1.9-.5.6-.3,1-.8,1.4-1.3.3-.6.5-1.2.5-1.9s-.2-1.3-.5-1.9c-.3-.6-.8-1-1.4-1.4s-1.2-.5-1.9-.5-1.3.2-1.9.5-1,.8-1.4,1.4c-.3.6-.5,1.2-.5,1.9s.2,1.3.5,1.9.8,1,1.4,1.3,1.2.5,1.9.5ZM104.1,631.2l1.7-.8,1.9,2.7-1.8,1-1.8-2.9Z" style="fill:#fff; stroke-width:0px;"/><path d="M110.2,621.1h4.1c1.1,0,2.1.2,3,.7.9.4,1.5,1.1,2,1.9.5.8.7,1.7.7,2.8s-.2,2-.7,2.8-1.1,1.4-2,1.9c-.9.4-1.8.7-2.9.7h-4.1v-10.6ZM114.2,630c.8,0,1.4-.1,2-.4.6-.3,1-.7,1.3-1.2.3-.5.4-1.2.4-1.9s-.1-1.4-.4-1.9c-.3-.5-.7-1-1.3-1.3-.6-.3-1.2-.4-2-.4h-2.1v7.2h2.1Z" style="fill:#fff; stroke-width:0px;"/><path d="M164.6,632c-.8,0-1.4-.2-2-.5s-1-.8-1.4-1.3c-.3-.5-.5-1.2-.5-1.8s0-.7.1-1c0-.3.2-.7.4-1,.2-.4.5-.8.8-1.4l2.4-3.8h2.2l-2.7,4.1c.2,0,.3-.2.5-.2.2,0,.4,0,.5,0,.6,0,1.1.2,1.7.4.5.3.9.7,1.2,1.2.3.5.5,1.1.5,1.8s-.2,1.3-.5,1.8c-.3.6-.8,1-1.4,1.3s-1.3.5-2,.5ZM164.6,630.2c.3,0,.7,0,.9-.2.3-.2.5-.4.6-.6.2-.3.2-.6.2-.9s0-.7-.2-.9-.4-.5-.6-.7c-.3-.2-.6-.2-.9-.2s-.7,0-1,.3c-.3.2-.5.4-.6.7-.1.3-.2.6-.2.9s0,.7.2.9c.2.3.4.5.7.6.3.2.6.2.9.2Z" style="fill:#fff; stroke-width:0px;"/><path d="M170.5,630h1.8l-1.4,3.2h-1.4l.9-3.2Z" style="fill:#fff; stroke-width:0px;"/><path d="M177.6,632c-.7,0-1.3-.1-1.8-.4-.6-.2-1.1-.6-1.5-1.2s-.6-1.2-.7-2.1h1.9c0,.4.2.8.4,1s.5.5.8.6.6.2.9.2.7,0,1-.3.5-.4.7-.7c.2-.3.2-.6.2-1s0-.7-.3-1c-.2-.3-.5-.5-.8-.6-.3-.1-.8-.2-1.2-.2h-2.1s-.8-.7-.8-.7l.6-4.7h5.9v1.6h-4.2l-.3,2.4h1.5c.8,0,1.4.1,2,.4.6.3,1,.6,1.3,1.1.3.5.5,1.1.5,1.7s-.2,1.3-.5,1.8c-.3.6-.8,1-1.4,1.4-.6.3-1.3.5-2.1.5Z" style="fill:#fff; stroke-width:0px;"/><path d="M187.1,632c-1,0-1.8-.2-2.5-.7s-1.2-1.2-1.5-2c-.3-.8-.5-1.8-.5-2.8s.2-2,.5-2.8c.4-.8.9-1.5,1.6-2,.7-.5,1.5-.7,2.4-.7s1.9.3,2.6.8c.7.5,1.2,1.2,1.5,2,.3.8.5,1.8.5,2.8s-.2,2-.5,2.8c-.3.8-.9,1.5-1.5,2-.7.5-1.5.7-2.5.7ZM187.1,630.2c.5,0,1-.2,1.4-.5.4-.3.7-.8.9-1.3s.3-1.2.3-2-.1-1.4-.3-1.9-.5-1-.9-1.3c-.4-.3-.9-.5-1.4-.5s-1,.2-1.4.5c-.4.3-.7.8-.9,1.3-.2.6-.3,1.2-.3,2s.1,1.4.3,1.9c.2.6.5,1,.9,1.3.4.3.9.5,1.4.5Z" style="fill:#fff; stroke-width:0px;"/><path d="M197.3,632c-1,0-1.8-.2-2.5-.7s-1.2-1.2-1.5-2c-.3-.8-.5-1.8-.5-2.8s.2-2,.5-2.8c.4-.8.9-1.5,1.6-2,.7-.5,1.5-.7,2.4-.7s1.9.3,2.6.8c.7.5,1.2,1.2,1.5,2,.3.8.5,1.8.5,2.8s-.2,2-.5,2.8c-.3.8-.9,1.5-1.5,2-.7.5-1.5.7-2.5.7ZM197.3,630.2c.5,0,1-.2,1.4-.5.4-.3.7-.8.9-1.3s.3-1.2.3-2-.1-1.4-.3-1.9-.5-1-.9-1.3c-.4-.3-.9-.5-1.4-.5s-1,.2-1.4.5c-.4.3-.7.8-.9,1.3-.2.6-.3,1.2-.3,2s.1,1.4.3,1.9c.2.6.5,1,.9,1.3.4.3.9.5,1.4.5Z" style="fill:#fff; stroke-width:0px;"/><path d="M207.5,621.1h1.9v10.6h-1.9v-10.6Z" style="fill:#fff; stroke-width:0px;"/><path d="M217,632c-1,0-2-.2-2.9-.7-.9-.5-1.6-1.2-2.1-2s-.8-1.8-.8-2.8.3-1.9.8-2.8c.5-.8,1.2-1.5,2.1-2,.9-.5,1.8-.7,2.9-.7s2,.2,2.9.7c.9.5,1.6,1.2,2.1,2,.5.8.8,1.8.8,2.8s-.3,1.9-.8,2.8-1.2,1.5-2.1,2c-.9.5-1.8.7-2.9.7ZM217,630.2c.7,0,1.3-.2,1.9-.5.6-.3,1-.8,1.4-1.3.3-.6.5-1.2.5-1.9s-.2-1.3-.5-1.9c-.3-.6-.8-1-1.4-1.4s-1.2-.5-1.9-.5-1.3.2-1.9.5-1,.8-1.4,1.4c-.3.6-.5,1.2-.5,1.9s.2,1.3.5,1.9.8,1,1.4,1.3,1.2.5,1.9.5ZM218.6,631.2l1.7-.8,1.9,2.7-1.8,1-1.8-2.9Z" style="fill:#fff; stroke-width:0px;"/><path d="M224.7,621.1h4.1c1.1,0,2.1.2,3,.7.9.4,1.5,1.1,2,1.9.5.8.7,1.7.7,2.8s-.2,2-.7,2.8-1.1,1.4-2,1.9c-.9.4-1.8.7-2.9.7h-4.1v-10.6ZM228.7,630c.8,0,1.4-.1,2-.4.6-.3,1-.7,1.3-1.2.3-.5.4-1.2.4-1.9s-.1-1.4-.4-1.9c-.3-.5-.7-1-1.3-1.3-.6-.3-1.2-.4-2-.4h-2.1v7.2h2.1Z" style="fill:#fff; stroke-width:0px;"/><rect x="266.3" y="626.9" width="105.9" height=".5" style="fill:#fff; stroke-width:0px;"/><path d="M412.4,471.5c-1.9.7-3.3,1.1-4.8,1.1-3,0-5-1.4-5-4s.6-2.7,2.2-3.7c-1-1.1-1.4-2.2-1.4-3.5,0-2.1,1.7-3.7,4.2-3.7s2,.2,3.5.8l-.8,2.4c-1.1-.3-1.7-.4-2.3-.4-1.3,0-2.1.7-2.1,1.7s.3,1.3.9,1.9c.2,0,.5-.1.7-.2l3.5-.9v2.7c.1,0-3.1.7-3.1.7-2.2.5-2.8,1.2-2.8,1.9s1,1.5,2.7,1.5,2.4-.2,3.6-.6l.8,2.4Z" style="fill:#fff; stroke-width:0px;"/><path d="M413.9,463.6v-9.1s2.8-.3,2.8-.3v8.4c0,1.3.5,1.9,1.5,1.9s.2,0,.2.2v2.6c0,.1,0,.2-.2.2-2.9,0-4.4-1.3-4.4-3.9Z" style="fill:#fff; stroke-width:0px;"/><path d="M424.7,464.7v2.6c0,.1,0,.2-.2.2-1.1,0-2-.4-2.8-1.2-.7.8-1.9,1.2-3.5,1.2s-.2,0-.2-.2v-2.6c0-.1.1-.2.2-.2,1,0,1.5-.6,1.5-1.9v-2.2s2.8-.3,2.8-.3v3.9c.5.3,1.2.5,1.9.5s.2,0,.2.2ZM421.3,459l-1.9-1.9,1.9-1.9,1.9,1.9-1.9,1.9Z" style="fill:#fff; stroke-width:0px;"/><path d="M428.3,464.7v2.6c0,.1,0,.2-.2.2h-3.5c-.1,0-.2,0-.2-.2v-2.6c0-.1,0-.2.2-.2h3.5c.1,0,.2,0,.2.2Z" style="fill:#fff; stroke-width:0px;"/><path d="M431.8,464.7v2.6c0,.1,0,.2-.2.2h-3.5c-.1,0-.2,0-.2-.2v-2.6c0-.1,0-.2.2-.2h3.5c.1,0,.2,0,.2.2Z" style="fill:#fff; stroke-width:0px;"/><path d="M435.4,464.7v2.6c0,.1,0,.2-.2.2h-3.5c-.1,0-.2,0-.2-.2v-2.6c0-.1,0-.2.2-.2h3.5c.1,0,.2,0,.2.2Z" style="fill:#fff; stroke-width:0px;"/><path d="M438.9,464.7v2.6c0,.1,0,.2-.2.2h-3.5c-.1,0-.2,0-.2-.2v-2.6c0-.1,0-.2.2-.2h3.5c.1,0,.2,0,.2.2Z" style="fill:#fff; stroke-width:0px;"/><path d="M442.5,464.7v2.6c0,.1,0,.2-.2.2h-3.5c-.1,0-.2,0-.2-.2v-2.6c0-.1,0-.2.2-.2h3.5c.1,0,.2,0,.2.2Z" style="fill:#fff; stroke-width:0px;"/><path d="M453.3,464.7v2.6c0,.1,0,.2-.2.2-2,0-3.5-.4-4.9-1.2-1.8.9-3.2,1.2-5.9,1.2-.1,0-.2,0-.2-.2v-2.6c0-.1,0-.2.2-.2,1,0,1.8,0,2.5-.1-.7-.9-1.3-1.9-2-3.3l.9-2.2c1.8-.9,3.1-1.2,4.5-1.2,2.5,0,4.3,1.4,4.3,3.5s-.4,2.2-1.5,3.2c.6,0,1.3.1,2.2.1s.2,0,.2.2ZM445.3,461c.7,1.5,1.4,2.5,2.3,3.4,1.5-.5,2.3-1.5,2.3-2.3s-.8-1.6-2.1-1.6c-.7,0-1.5.1-2.5.5Z" style="fill:#fff; stroke-width:0px;"/><path d="M453,467.3v-2.6c0-.1.1-.2.2-.2,1,0,1.5-.6,1.5-1.9v-4s2.8-.3,2.8-.3v5.4c0,2.5-1.4,3.8-4.4,3.8s-.2,0-.2-.2ZM454.2,455l1.9-1.9,1.9,1.9-1.9,1.9-1.9-1.9Z" style="fill:#fff; stroke-width:0px;"/><path d="M467.8,462.8v4.3c0,3.2-3.1,4.3-7.5,4.3l-.3-2.3c3.4,0,4.9-.5,5-2-.6.2-1.1.4-1.7.4-2.5,0-4.2-1.8-4.2-4.5s2-4.7,4.5-4.7,4.3,1.7,4.3,4.6ZM463.5,464.7c.4,0,.9,0,1.4-.2v-1.5c0-1.2-.7-1.9-1.7-1.9s-1.7.7-1.7,1.7.8,1.8,1.9,1.8Z" style="fill:#fff; stroke-width:0px;"/><path d="M473,466.6c0-1.2.3-2.6.8-4.3l2.3.6c-.3,1-.5,1.9-.5,2.8,0,1.8,1,2.7,2.9,2.7s2.8-1,2.8-3v-6.8l2.8-.3v7.6c0,3.5-2,5.6-5.6,5.6s-5.5-1.6-5.5-4.9ZM476.1,458.3l1.9-1.9,1.9,1.9-1.9,1.9-1.9-1.9Z" style="fill:#fff; stroke-width:0px;"/><path d="M495.4,464.7v2.6c0,.1,0,.2-.2.2h-.9c-.3,2.8-3.2,3.9-7.5,3.9l-.3-2.3c3.1,0,4.6-.4,4.9-1.6h-1.5c-2.6,0-4.3-1.8-4.3-4.5s2-4.7,4.5-4.7,4.3,1.7,4.3,4.6v1.7h.9c.1,0,.2,0,.2.2ZM490.2,464.7c.4,0,.9,0,1.4,0v-1.6c0-1.2-.7-1.9-1.7-1.9s-1.7.7-1.7,1.7.9,1.8,2,1.8Z" style="fill:#fff; stroke-width:0px;"/><path d="M499,464.7v2.6c0,.1,0,.2-.2.2h-3.5c-.1,0-.2,0-.2-.2v-2.6c0-.1,0-.2.2-.2h3.5c.1,0,.2,0,.2.2Z" style="fill:#fff; stroke-width:0px;"/><path d="M502.5,464.7v2.6c0,.1,0,.2-.2.2h-3.5c-.1,0-.2,0-.2-.2v-2.6c0-.1,0-.2.2-.2h3.5c.1,0,.2,0,.2.2Z" style="fill:#fff; stroke-width:0px;"/><path d="M506,464.7v2.6c0,.1,0,.2-.2.2h-3.5c-.1,0-.2,0-.2-.2v-2.6c0-.1,0-.2.2-.2h3.5c.1,0,.2,0,.2.2Z" style="fill:#fff; stroke-width:0px;"/><path d="M509.6,464.7v2.6c0,.1,0,.2-.2.2h-3.5c-.1,0-.2,0-.2-.2v-2.6c0-.1,0-.2.2-.2h3.5c.1,0,.2,0,.2.2Z" style="fill:#fff; stroke-width:0px;"/><path d="M513.1,464.7v2.6c0,.1,0,.2-.2.2h-3.5c-.1,0-.2,0-.2-.2v-2.6c0-.1,0-.2.2-.2h3.5c.1,0,.2,0,.2.2Z" style="fill:#fff; stroke-width:0px;"/><path d="M516.7,464.7v2.6c0,.1,0,.2-.2.2h-3.5c-.1,0-.2,0-.2-.2v-2.6c0-.1,0-.2.2-.2h3.5c.1,0,.2,0,.2.2Z" style="fill:#fff; stroke-width:0px;"/><path d="M527.2,464.7v2.6c0,.1,0,.2-.2.2h-4.3c-1.3,0-2.4-.3-3.2-.9-.9.6-2,.9-3,.9s-.2,0-.2-.2v-2.6c0-.1,0-.2.2-.2.5,0,.9,0,1.3-.2-.2-.5-.3-1.1-.3-1.8,0-2.5,1.9-4.4,4.5-4.4s4.3,1.8,4.3,4.1-.1,1.4-.4,2.2h1c.1,0,.2,0,.2.2ZM523.6,464.5c.2-.7.3-1.4.3-1.9,0-1-.8-1.8-1.7-1.8s-1.7.7-1.7,1.7.8,2,2.3,2h.9Z" style="fill:#fff; stroke-width:0px;"/><path d="M530.7,464.7v2.6c0,.1,0,.2-.2.2h-3.5c-.1,0-.2,0-.2-.2v-2.6c0-.1,0-.2.2-.2h3.5c.1,0,.2,0,.2.2Z" style="fill:#fff; stroke-width:0px;"/><path d="M534.2,464.7v2.6c0,.1,0,.2-.2.2h-3.5c-.1,0-.2,0-.2-.2v-2.6c0-.1,0-.2.2-.2h3.5c.1,0,.2,0,.2.2Z" style="fill:#fff; stroke-width:0px;"/><path d="M537.8,464.7v2.6c0,.1,0,.2-.2.2h-3.5c-.1,0-.2,0-.2-.2v-2.6c0-.1,0-.2.2-.2h3.5c.1,0,.2,0,.2.2Z" style="fill:#fff; stroke-width:0px;"/><path d="M544.9,464.7v2.6c0,.1,0,.2-.2.2-1,0-2-.5-2.9-1.4-.8.9-2.3,1.4-4.2,1.4s-.2,0-.2-.2v-2.6c0-.1.1-.2.2-.2,1.4,0,2.2-.5,2.2-1.9v-2.2s2.8-.3,2.8-.3v3.8c.6.4,1.3.6,2,.6s.2,0,.2.2ZM542.4,468.4l1.9,1.9-1.9,1.9-1.3-1.3-1.3,1.3-1.9-1.9,1.9-1.9,1.3,1.3,1.3-1.3Z" style="fill:#fff; stroke-width:0px;"/><path d="M544.5,467.3v-2.6c0-.1,0-.2.2-.2,1,0,1.5-.6,1.5-1.9v-8.1s2.9-.3,2.9-.3v9.5c0,2.6-1.5,3.9-4.4,3.9s-.2,0-.2-.2Z" style="fill:#fff; stroke-width:0px;"/><path d="M422,485v8.2h5.6v1.3h-7.2v-9.5h1.6Z" style="fill:#ee304c; stroke-width:0px;"/><path d="M436.3,485v1.3h-6v2.9h4.9v1.1h-4.9v3h6.2v1.3h-7.7v-9.5h7.5Z" style="fill:#ee304c; stroke-width:0px;"/><path d="M439.2,485.4h0v9.1h-1.5v-9.5h2.9l3.2,9.4h0l3.1-9.4h2.9v9.5h-1.5v-9.1h0l-3.1,9.1h-2.7l-3.2-9.1Z" style="fill:#ee304c; stroke-width:0px;"/><path d="M453.7,494.1c-.8-.4-1.4-.9-1.8-1.7s-.6-1.6-.6-2.7.2-1.9.6-2.7,1-1.3,1.8-1.7,1.7-.6,2.8-.6,2.1.2,2.8.6c.8.4,1.4,1,1.8,1.7s.6,1.6.6,2.7-.2,1.9-.6,2.7-1,1.3-1.8,1.7c-.8.4-1.7.6-2.8.6s-2.1-.2-2.8-.6ZM453.9,492.5c.6.6,1.5.9,2.7.9s2-.3,2.7-.9c.6-.6,1-1.5,1-2.6s-.3-2-1-2.7c-.6-.6-1.5-1-2.7-1s-2,.3-2.7,1c-.6.6-1,1.5-1,2.7s.3,2,1,2.6Z" style="fill:#ee304c; stroke-width:0px;"/><path d="M466.4,485l5,9.3h0v-9.3h1.5v9.5h-3.1l-5-9.4h0v9.4h-1.5v-9.5h3.1Z" style="fill:#ee304c; stroke-width:0px;"/><path d="M480.5,485h3l3.9,9.5h-1.7l-.9-2.3h-5.5l-.9,2.3h-1.7l3.9-9.5ZM484.3,491.1l-2.3-5.9h0l-2.3,5.9h4.7Z" style="fill:#ee304c; stroke-width:0px;"/><path d="M491.3,485l5,9.3h0v-9.3h1.5v9.5h-3.1l-5-9.4h0v9.4h-1.5v-9.5h3.1Z" style="fill:#ee304c; stroke-width:0px;"/><path d="M506.8,485.6c.8.4,1.4.9,1.9,1.7.4.7.7,1.6.7,2.5s-.2,1.8-.7,2.5c-.4.7-1.1,1.3-1.9,1.7-.8.4-1.8.6-2.9.6h-4.1v-9.5h4.1c1.1,0,2.1.2,2.9.6ZM503.9,493.3c.8,0,1.5-.1,2-.4.6-.3,1-.7,1.3-1.2.3-.5.5-1.1.5-1.8s-.2-1.3-.5-1.8c-.3-.5-.8-.9-1.3-1.2-.6-.3-1.3-.4-2-.4h-2.5v7h2.5Z" style="fill:#ee304c; stroke-width:0px;"/><path d="M515.2,485.4h0v9.1h-1.5v-9.5h2.9l3.2,9.4h0l3.1-9.4h2.9v9.5h-1.5v-9.1h0l-3.1,9.1h-2.7l-3.2-9.1Z" style="fill:#ee304c; stroke-width:0px;"/><path d="M529.3,485v9.5h-1.6v-9.5h1.6Z" style="fill:#ee304c; stroke-width:0px;"/><path d="M534.4,485l5,9.3h0v-9.3h1.5v9.5h-3.1l-5-9.4h0v9.4h-1.5v-9.5h3.1Z" style="fill:#ee304c; stroke-width:0px;"/><path d="M545.4,486.3h-3.4v-1.3h8.4v1.3h-3.4v8.3h-1.6v-8.3Z" style="fill:#ee304c; stroke-width:0px;"/><path d="M50.2,468h-5.3v-1.4c-.1,0,5.1-7,5.1-7h2.2v6.8h1.7v1.6h-1.7v2.3h-1.9v-2.3ZM50.2,466.4v-4.4l-3.3,4.4h3.3Z" style="fill:#fff; stroke-width:0px;"/><path d="M55.6,468.5h1.8l-1.4,3.2h-1.4l.9-3.2Z" style="fill:#fff; stroke-width:0px;"/><path d="M62.7,470.5c-.7,0-1.3-.1-1.8-.4-.6-.2-1.1-.6-1.5-1.2s-.6-1.2-.7-2.1h1.9c0,.4.2.8.4,1s.5.5.8.6.6.2.9.2.7,0,1-.3.5-.4.7-.7c.2-.3.2-.6.2-1s0-.7-.3-1c-.2-.3-.5-.5-.8-.6-.3-.1-.8-.2-1.2-.2h-2.1s-.8-.7-.8-.7l.6-4.7h5.9v1.6h-4.2l-.3,2.4h1.5c.8,0,1.4.1,2,.4.6.3,1,.6,1.3,1.1.3.5.5,1,.5,1.7s-.2,1.3-.5,1.8c-.3.6-.8,1-1.4,1.4s-1.3.5-2.1.5Z" style="fill:#fff; stroke-width:0px;"/><path d="M72.3,470.5c-1,0-1.8-.2-2.5-.7s-1.2-1.2-1.5-2c-.3-.8-.5-1.8-.5-2.8s.2-2,.5-2.8c.4-.8.9-1.5,1.6-2,.7-.5,1.5-.7,2.4-.7s1.9.3,2.6.8c.7.5,1.2,1.2,1.5,2,.3.8.5,1.8.5,2.8s-.2,2-.5,2.8c-.3.8-.9,1.5-1.5,2-.7.5-1.5.7-2.5.7ZM72.3,468.7c.5,0,1-.2,1.4-.5.4-.3.7-.8.9-1.3s.3-1.2.3-2-.1-1.4-.3-1.9-.5-1-.9-1.3c-.4-.3-.9-.5-1.4-.5s-1,.2-1.4.5c-.4.3-.7.8-.9,1.3-.2.6-.3,1.2-.3,2s.1,1.4.3,1.9c.2.6.5,1,.9,1.3.4.3.9.5,1.4.5Z" style="fill:#fff; stroke-width:0px;"/><path d="M82.4,470.5c-1,0-1.8-.2-2.5-.7s-1.2-1.2-1.5-2c-.3-.8-.5-1.8-.5-2.8s.2-2,.5-2.8c.4-.8.9-1.5,1.6-2,.7-.5,1.5-.7,2.4-.7s1.9.3,2.6.8c.7.5,1.2,1.2,1.5,2,.3.8.5,1.8.5,2.8s-.2,2-.5,2.8c-.3.8-.9,1.5-1.5,2-.7.5-1.5.7-2.5.7ZM82.4,468.7c.5,0,1-.2,1.4-.5.4-.3.7-.8.9-1.3s.3-1.2.3-2-.1-1.4-.3-1.9-.5-1-.9-1.3c-.4-.3-.9-.5-1.4-.5s-1,.2-1.4.5c-.4.3-.7.8-.9,1.3-.2.6-.3,1.2-.3,2s.1,1.4.3,1.9c.2.6.5,1,.9,1.3.4.3.9.5,1.4.5Z" style="fill:#fff; stroke-width:0px;"/><path d="M92.7,459.6h1.9v10.6h-1.9v-10.6Z" style="fill:#fff; stroke-width:0px;"/><path d="M102.1,470.5c-1,0-2-.2-2.9-.7-.9-.5-1.6-1.2-2.1-2s-.8-1.8-.8-2.8.3-1.9.8-2.8c.5-.8,1.2-1.5,2.1-2,.9-.5,1.8-.7,2.9-.7s2,.2,2.9.7c.9.5,1.6,1.2,2.1,2,.5.8.8,1.8.8,2.8s-.3,1.9-.8,2.8-1.2,1.5-2.1,2c-.9.5-1.8.7-2.9.7ZM102.1,468.7c.7,0,1.3-.2,1.9-.5.6-.3,1-.8,1.4-1.3.3-.6.5-1.2.5-1.9s-.2-1.3-.5-1.9c-.3-.6-.8-1-1.4-1.4s-1.2-.5-1.9-.5-1.3.2-1.9.5-1,.8-1.4,1.4c-.3.6-.5,1.2-.5,1.9s.2,1.3.5,1.9.8,1,1.4,1.3,1.2.5,1.9.5ZM103.8,469.7l1.7-.8,1.9,2.7-1.8,1-1.8-2.9Z" style="fill:#fff; stroke-width:0px;"/><path d="M109.8,459.6h4.1c1.1,0,2.1.2,3,.7.9.4,1.5,1.1,2,1.9.5.8.7,1.7.7,2.8s-.2,2-.7,2.8-1.1,1.4-2,1.9c-.9.4-1.8.7-2.9.7h-4.1v-10.6ZM113.8,468.5c.8,0,1.4-.1,2-.4.6-.3,1-.7,1.3-1.2.3-.5.4-1.2.4-1.9s-.1-1.4-.4-1.9c-.3-.5-.7-1-1.3-1.3-.6-.3-1.2-.4-2-.4h-2.1v7.2h2.1Z" style="fill:#fff; stroke-width:0px;"/><path d="M164.7,470.5c-.7,0-1.3-.1-1.8-.4-.6-.2-1.1-.6-1.5-1.2s-.6-1.2-.7-2.1h1.9c0,.4.2.8.4,1s.5.5.8.6.6.2.9.2.7,0,1-.3.5-.4.7-.7c.2-.3.2-.6.2-1s0-.7-.3-1c-.2-.3-.5-.5-.8-.6-.3-.1-.8-.2-1.2-.2h-2.1s-.8-.7-.8-.7l.6-4.7h5.9v1.6h-4.2l-.3,2.4h1.5c.8,0,1.4.1,2,.4.6.3,1,.6,1.3,1.1.3.5.5,1,.5,1.7s-.2,1.3-.5,1.8c-.3.6-.8,1-1.4,1.4s-1.3.5-2.1.5Z" style="fill:#fff; stroke-width:0px;"/><path d="M170.6,468.5h1.8l-1.4,3.2h-1.4l.9-3.2Z" style="fill:#fff; stroke-width:0px;"/><path d="M177.8,470.5c-.7,0-1.3-.1-1.8-.4-.6-.2-1.1-.6-1.5-1.2s-.6-1.2-.7-2.1h1.9c0,.4.2.8.4,1s.5.5.8.6.6.2.9.2.7,0,1-.3.5-.4.7-.7c.2-.3.2-.6.2-1s0-.7-.3-1c-.2-.3-.5-.5-.8-.6-.3-.1-.8-.2-1.2-.2h-2.1s-.8-.7-.8-.7l.6-4.7h5.9v1.6h-4.2l-.3,2.4h1.5c.8,0,1.4.1,2,.4.6.3,1,.6,1.3,1.1.3.5.5,1,.5,1.7s-.2,1.3-.5,1.8c-.3.6-.8,1-1.4,1.4s-1.3.5-2.1.5Z" style="fill:#fff; stroke-width:0px;"/><path d="M187.3,470.5c-1,0-1.8-.2-2.5-.7s-1.2-1.2-1.5-2c-.3-.8-.5-1.8-.5-2.8s.2-2,.5-2.8c.4-.8.9-1.5,1.6-2,.7-.5,1.5-.7,2.4-.7s1.9.3,2.6.8c.7.5,1.2,1.2,1.5,2,.3.8.5,1.8.5,2.8s-.2,2-.5,2.8c-.3.8-.9,1.5-1.5,2-.7.5-1.5.7-2.5.7ZM187.3,468.7c.5,0,1-.2,1.4-.5.4-.3.7-.8.9-1.3s.3-1.2.3-2-.1-1.4-.3-1.9-.5-1-.9-1.3c-.4-.3-.9-.5-1.4-.5s-1,.2-1.4.5c-.4.3-.7.8-.9,1.3-.2.6-.3,1.2-.3,2s.1,1.4.3,1.9c.2.6.5,1,.9,1.3.4.3.9.5,1.4.5Z" style="fill:#fff; stroke-width:0px;"/><path d="M197.5,470.5c-1,0-1.8-.2-2.5-.7s-1.2-1.2-1.5-2c-.3-.8-.5-1.8-.5-2.8s.2-2,.5-2.8c.4-.8.9-1.5,1.6-2,.7-.5,1.5-.7,2.4-.7s1.9.3,2.6.8c.7.5,1.2,1.2,1.5,2,.3.8.5,1.8.5,2.8s-.2,2-.5,2.8c-.3.8-.9,1.5-1.5,2-.7.5-1.5.7-2.5.7ZM197.5,468.7c.5,0,1-.2,1.4-.5.4-.3.7-.8.9-1.3s.3-1.2.3-2-.1-1.4-.3-1.9-.5-1-.9-1.3c-.4-.3-.9-.5-1.4-.5s-1,.2-1.4.5c-.4.3-.7.8-.9,1.3-.2.6-.3,1.2-.3,2s.1,1.4.3,1.9c.2.6.5,1,.9,1.3.4.3.9.5,1.4.5Z" style="fill:#fff; stroke-width:0px;"/><path d="M207.7,459.6h1.9v10.6h-1.9v-10.6Z" style="fill:#fff; stroke-width:0px;"/><path d="M217.1,470.5c-1,0-2-.2-2.9-.7-.9-.5-1.6-1.2-2.1-2s-.8-1.8-.8-2.8.3-1.9.8-2.8c.5-.8,1.2-1.5,2.1-2,.9-.5,1.8-.7,2.9-.7s2,.2,2.9.7c.9.5,1.6,1.2,2.1,2,.5.8.8,1.8.8,2.8s-.3,1.9-.8,2.8-1.2,1.5-2.1,2c-.9.5-1.8.7-2.9.7ZM217.1,468.7c.7,0,1.3-.2,1.9-.5.6-.3,1-.8,1.4-1.3.3-.6.5-1.2.5-1.9s-.2-1.3-.5-1.9c-.3-.6-.8-1-1.4-1.4s-1.2-.5-1.9-.5-1.3.2-1.9.5-1,.8-1.4,1.4c-.3.6-.5,1.2-.5,1.9s.2,1.3.5,1.9.8,1,1.4,1.3,1.2.5,1.9.5ZM218.8,469.7l1.7-.8,1.9,2.7-1.8,1-1.8-2.9Z" style="fill:#fff; stroke-width:0px;"/><path d="M224.8,459.6h4.1c1.1,0,2.1.2,3,.7.9.4,1.5,1.1,2,1.9.5.8.7,1.7.7,2.8s-.2,2-.7,2.8-1.1,1.4-2,1.9c-.9.4-1.8.7-2.9.7h-4.1v-10.6ZM228.9,468.5c.8,0,1.4-.1,2-.4.6-.3,1-.7,1.3-1.2.3-.5.4-1.2.4-1.9s-.1-1.4-.4-1.9c-.3-.5-.7-1-1.3-1.3-.6-.3-1.2-.4-2-.4h-2.1v7.2h2.1Z" style="fill:#fff; stroke-width:0px;"/><rect x="266.3" y="464.1" width="105.9" height=".5" style="fill:#fff; stroke-width:0px;"/><path d="M403.5,546.2v-9.1s2.8-.3,2.8-.3v8.4c0,1.3.5,1.9,1.5,1.9s.2,0,.2.2v2.6c0,.1,0,.2-.2.2-2.9,0-4.4-1.3-4.4-3.9Z" style="fill:#fff; stroke-width:0px;"/><path d="M411.6,547.3v2.6c0,.1,0,.2-.2.2h-3.5c-.1,0-.2,0-.2-.2v-2.6c0-.1,0-.2.2-.2h3.5c.1,0,.2,0,.2.2Z" style="fill:#fff; stroke-width:0px;"/><path d="M415.2,547.3v2.6c0,.1,0,.2-.2.2h-3.5c-.1,0-.2,0-.2-.2v-2.6c0-.1,0-.2.2-.2h3.5c.1,0,.2,0,.2.2Z" style="fill:#fff; stroke-width:0px;"/><path d="M418.7,547.3v2.6c0,.1,0,.2-.2.2h-3.5c-.1,0-.2,0-.2-.2v-2.6c0-.1,0-.2.2-.2h3.5c.1,0,.2,0,.2.2Z" style="fill:#fff; stroke-width:0px;"/><path d="M422.3,547.3v2.6c0,.1,0,.2-.2.2h-3.5c-.1,0-.2,0-.2-.2v-2.6c0-.1,0-.2.2-.2h3.5c.1,0,.2,0,.2.2Z" style="fill:#fff; stroke-width:0px;"/><path d="M425.8,547.3v2.6c0,.1,0,.2-.2.2h-3.5c-.1,0-.2,0-.2-.2v-2.6c0-.1,0-.2.2-.2h3.5c.1,0,.2,0,.2.2Z" style="fill:#fff; stroke-width:0px;"/><path d="M429.4,547.3v2.6c0,.1,0,.2-.2.2h-3.5c-.1,0-.2,0-.2-.2v-2.6c0-.1,0-.2.2-.2h3.5c.1,0,.2,0,.2.2Z" style="fill:#fff; stroke-width:0px;"/><path d="M432.9,547.3v2.6c0,.1,0,.2-.2.2h-3.5c-.1,0-.2,0-.2-.2v-2.6c0-.1,0-.2.2-.2h3.5c.1,0,.2,0,.2.2Z" style="fill:#fff; stroke-width:0px;"/><path d="M436.4,547.3v2.6c0,.1,0,.2-.2.2h-3.5c-.1,0-.2,0-.2-.2v-2.6c0-.1,0-.2.2-.2h3.5c.1,0,.2,0,.2.2Z" style="fill:#fff; stroke-width:0px;"/><path d="M440,547.3v2.6c0,.1,0,.2-.2.2h-3.5c-.1,0-.2,0-.2-.2v-2.6c0-.1,0-.2.2-.2h3.5c.1,0,.2,0,.2.2Z" style="fill:#fff; stroke-width:0px;"/><path d="M443.5,547.3v2.6c0,.1,0,.2-.2.2h-3.5c-.1,0-.2,0-.2-.2v-2.6c0-.1,0-.2.2-.2h3.5c.1,0,.2,0,.2.2Z" style="fill:#fff; stroke-width:0px;"/><path d="M447.1,547.3v2.6c0,.1,0,.2-.2.2h-3.5c-.1,0-.2,0-.2-.2v-2.6c0-.1,0-.2.2-.2h3.5c.1,0,.2,0,.2.2Z" style="fill:#fff; stroke-width:0px;"/><path d="M450.6,547.3v2.6c0,.1,0,.2-.2.2h-3.5c-.1,0-.2,0-.2-.2v-2.6c0-.1,0-.2.2-.2h3.5c.1,0,.2,0,.2.2Z" style="fill:#fff; stroke-width:0px;"/><path d="M450.2,549.9v-2.6c0-.1.1-.2.2-.2,1,0,1.5-.6,1.5-1.9v-4s2.8-.3,2.8-.3v5.4c0,2.5-1.4,3.8-4.4,3.8s-.2,0-.2-.2ZM451.4,537.6l1.9-1.9,1.9,1.9-1.9,1.9-1.9-1.9Z" style="fill:#fff; stroke-width:0px;"/><path d="M457,546.2v-9.1s2.8-.3,2.8-.3v8.4c0,1.3.5,1.9,1.5,1.9s.2,0,.2.2v2.6c0,.1,0,.2-.2.2-2.9,0-4.4-1.3-4.4-3.9Z" style="fill:#fff; stroke-width:0px;"/><path d="M461.2,549.9v-2.6c0-.1.1-.2.2-.2,1,0,1.5-.6,1.5-1.9v-4s2.8-.3,2.8-.3v5.4c0,2.5-1.4,3.8-4.4,3.8s-.2,0-.2-.2ZM461.7,552.9l1.9-1.9,1.9,1.9-1.9,1.9-1.9-1.9Z" style="fill:#fff; stroke-width:0px;"/><path d="M480.9,547.3v2.6c0,.1,0,.2-.2.2h-.9c-.3,2.8-3.2,3.9-7.5,3.9l-.3-2.3c3.1,0,4.6-.4,4.9-1.6h-1.5c-2.6,0-4.3-1.8-4.3-4.5s2-4.7,4.5-4.7,4.3,1.7,4.3,4.6v1.7h.9c.1,0,.2,0,.2.2ZM475.7,547.2c.4,0,.9,0,1.4,0v-1.6c0-1.2-.7-1.9-1.7-1.9s-1.7.7-1.7,1.7.9,1.8,2,1.8Z" style="fill:#fff; stroke-width:0px;"/><path d="M484.5,547.3v2.6c0,.1,0,.2-.2.2h-3.5c-.1,0-.2,0-.2-.2v-2.6c0-.1,0-.2.2-.2h3.5c.1,0,.2,0,.2.2Z" style="fill:#fff; stroke-width:0px;"/><path d="M488,547.3v2.6c0,.1,0,.2-.2.2h-3.5c-.1,0-.2,0-.2-.2v-2.6c0-.1,0-.2.2-.2h3.5c.1,0,.2,0,.2.2Z" style="fill:#fff; stroke-width:0px;"/><path d="M491.6,547.3v2.6c0,.1,0,.2-.2.2h-3.5c-.1,0-.2,0-.2-.2v-2.6c0-.1,0-.2.2-.2h3.5c.1,0,.2,0,.2.2Z" style="fill:#fff; stroke-width:0px;"/><path d="M495.1,547.3v2.6c0,.1,0,.2-.2.2h-3.5c-.1,0-.2,0-.2-.2v-2.6c0-.1,0-.2.2-.2h3.5c.1,0,.2,0,.2.2Z" style="fill:#fff; stroke-width:0px;"/><path d="M498.7,547.3v2.6c0,.1,0,.2-.2.2h-3.5c-.1,0-.2,0-.2-.2v-2.6c0-.1,0-.2.2-.2h3.5c.1,0,.2,0,.2.2Z" style="fill:#fff; stroke-width:0px;"/><path d="M502.2,547.3v2.6c0,.1,0,.2-.2.2h-3.5c-.1,0-.2,0-.2-.2v-2.6c0-.1,0-.2.2-.2h3.5c.1,0,.2,0,.2.2Z" style="fill:#fff; stroke-width:0px;"/><path d="M505.7,547.3v2.6c0,.1,0,.2-.2.2h-3.5c-.1,0-.2,0-.2-.2v-2.6c0-.1,0-.2.2-.2h3.5c.1,0,.2,0,.2.2Z" style="fill:#fff; stroke-width:0px;"/><path d="M509.3,547.3v2.6c0,.1,0,.2-.2.2h-3.5c-.1,0-.2,0-.2-.2v-2.6c0-.1,0-.2.2-.2h3.5c.1,0,.2,0,.2.2Z" style="fill:#fff; stroke-width:0px;"/><path d="M512.8,547.3v2.6c0,.1,0,.2-.2.2h-3.5c-.1,0-.2,0-.2-.2v-2.6c0-.1,0-.2.2-.2h3.5c.1,0,.2,0,.2.2Z" style="fill:#fff; stroke-width:0px;"/><path d="M522.8,545.8c0,2.7-1.7,4.3-4.5,4.3h-5.7c-.1,0-.2,0-.2-.2v-2.6c0-.1,0-.2.2-.2h5.7c1,0,1.6-.5,1.6-1.3s-.6-1.3-1.6-1.3h-4.1l-1.5-2.6,5.2-6.4,2.5,1.4-4.8,5h2.5c2.8,0,4.6,1.5,4.6,3.9Z" style="fill:#fff; stroke-width:0px;"/><path d="M533.8,547.3v2.6c0,.1,0,.2-.2.2h-.9c-.3,2.8-3.2,3.9-7.5,3.9l-.3-2.3c3.1,0,4.6-.4,4.9-1.6h-1.5c-2.6,0-4.3-1.8-4.3-4.5s2-4.7,4.5-4.7,4.3,1.7,4.3,4.6v1.7h.9c.1,0,.2,0,.2.2ZM528.5,547.2c.4,0,.9,0,1.4,0v-1.6c0-1.2-.7-1.9-1.7-1.9s-1.7.7-1.7,1.7.9,1.8,2,1.8Z" style="fill:#fff; stroke-width:0px;"/><path d="M549.4,540.8v5.4c0,2.5-1.3,3.8-3.8,3.8s-2-.3-3-1c-.7.6-1.7,1-2.9,1s-1.8-.3-2.7-1.1c-.7.7-1.8,1.1-3.3,1.1s-.2,0-.2-.2v-2.6c0-.1,0-.2.2-.2,1,0,1.5-.6,1.5-1.9v-2.2s2.8-.3,2.8-.3v3.6c0,.2,0,.4,0,.5.5.2.9.3,1.4.3,1,0,1.5-.6,1.5-1.9v-2.2s2.8-.3,2.8-.3v3.6c0,.2,0,.4,0,.6.5.1.9.2,1.4.2,1,0,1.5-.6,1.5-1.9v-4.1l2.8-.3ZM540.8,540.9l-1.9-1.9,1.9-1.9,1.4,1.4,1.4-1.4,1.9,1.9-1.9,1.9-1.5-1.4-1.4,1.4ZM542.2,537.6l-1.2-1.2,1.2-1.2,1.2,1.2-1.2,1.2Z" style="fill:#fff; stroke-width:0px;"/><path d="M403.4,564.7h3.2c.9,0,1.6.1,2.1.5.5.3.7.7.7,1.3s-.2.8-.6,1.1c-.4.3-1,.4-1.7.5h0c.9,0,1.5.2,2,.5.5.3.7.8.7,1.3s-.3,1.1-.8,1.4c-.5.3-1.2.5-2.2.5h-3.4v-7.2ZM406.1,568c1.3,0,2-.4,2-1.2s-.2-.7-.5-.9c-.3-.2-.8-.3-1.4-.3h-1.7v2.4h1.6ZM406.5,570.9c.6,0,1.1-.1,1.5-.3.3-.2.5-.5.5-.9s-.2-.7-.5-.9c-.3-.2-.8-.3-1.4-.3h-2.1v2.5h2Z" style="fill:#ee304c; stroke-width:0px;"/><path d="M412.9,564.7h2.3l2.9,7.2h-1.3l-.7-1.7h-4.2l-.7,1.7h-1.3l2.9-7.2ZM415.9,569.3l-1.8-4.5h0l-1.8,4.5h3.5Z" style="fill:#ee304c; stroke-width:0px;"/><path d="M421.2,564.7l3.8,7.1h0v-7.1h1.2v7.2h-2.3l-3.8-7.1h0v7.1h-1.2v-7.2h2.3Z" style="fill:#ee304c; stroke-width:0px;"/><path d="M429.8,564.7h2.3l2.9,7.2h-1.3l-.7-1.7h-4.2l-.7,1.7h-1.3l2.9-7.2ZM432.7,569.3l-1.8-4.5h0l-1.8,4.5h3.5Z" style="fill:#ee304c; stroke-width:0px;"/><path d="M438,564.7l3.8,7.1h0v-7.1h1.2v7.2h-2.3l-3.8-7.1h0v7.1h-1.2v-7.2h2.3Z" style="fill:#ee304c; stroke-width:0px;"/><path d="M446.6,564.7h2.3l2.9,7.2h-1.3l-.7-1.7h-4.2l-.7,1.7h-1.3l2.9-7.2ZM449.5,569.3l-1.8-4.5h0l-1.8,4.5h3.5Z" style="fill:#ee304c; stroke-width:0px;"/><path d="M456.7,564.7h2.3l2.9,7.2h-1.3l-.7-1.7h-4.2l-.7,1.7h-1.3l2.9-7.2ZM459.6,569.3l-1.8-4.5h0l-1.8,4.5h3.5Z" style="fill:#ee304c; stroke-width:0px;"/><path d="M465,564.7l3.8,7.1h0v-7.1h1.2v7.2h-2.3l-3.8-7.1h0v7.1h-1.2v-7.2h2.3Z" style="fill:#ee304c; stroke-width:0px;"/><path d="M476.7,565.1c.6.3,1.1.7,1.4,1.3.3.5.5,1.2.5,1.9s-.2,1.4-.5,1.9c-.3.5-.8,1-1.4,1.3s-1.3.4-2.2.4h-3.1v-7.2h3.1c.8,0,1.6.1,2.2.4ZM474.5,570.9c.6,0,1.1-.1,1.5-.3.4-.2.8-.5,1-.9.2-.4.4-.9.4-1.4s-.1-1-.4-1.4c-.2-.4-.6-.7-1-.9-.4-.2-1-.3-1.5-.3h-1.9v5.3h1.9Z" style="fill:#ee304c; stroke-width:0px;"/><path d="M483.4,570.3c.5.5,1.2.7,2.2.7s.8,0,1.3-.1c.4,0,.8-.2,1.2-.4v1c-.3.2-.7.3-1.1.4-.4,0-.9.1-1.3.1-1.3,0-2.4-.3-3.1-1-.7-.7-1.1-1.6-1.1-2.8s.4-2.1,1.1-2.8,1.8-1,3.1-1,.8,0,1.3.1c.4,0,.8.2,1.2.4v1c-.4-.2-.8-.3-1.3-.4s-.8-.1-1.3-.1c-.9,0-1.7.2-2.2.7-.5.5-.8,1.2-.8,2s.3,1.5.8,2Z" style="fill:#ee304c; stroke-width:0px;"/><path d="M496.1,564.7v7.2h-1.2v-3.1h-4.5v3.1h-1.2v-7.2h1.2v3.1h4.5v-3.1h1.2Z" style="fill:#ee304c; stroke-width:0px;"/><path d="M499.1,571.6c-.6-.3-1.1-.7-1.4-1.3-.3-.6-.5-1.2-.5-2s.2-1.5.5-2c.3-.6.8-1,1.4-1.3s1.3-.4,2.2-.4,1.6.1,2.2.4,1.1.7,1.4,1.3c.3.6.5,1.2.5,2s-.2,1.5-.5,2c-.3.6-.8,1-1.4,1.3s-1.3.4-2.2.4-1.6-.1-2.2-.4ZM499.2,570.3c.5.5,1.2.7,2,.7s1.6-.2,2-.7c.5-.5.7-1.1.7-2s-.2-1.6-.7-2c-.5-.5-1.2-.7-2-.7s-1.6.2-2,.7c-.5.5-.7,1.2-.7,2s.2,1.5.7,2Z" style="fill:#ee304c; stroke-width:0px;"/><path d="M508,570.3c.5.5,1.2.7,2.2.7s.8,0,1.3-.1c.4,0,.8-.2,1.2-.4v1c-.3.2-.7.3-1.1.4-.4,0-.9.1-1.3.1-1.3,0-2.4-.3-3.1-1-.7-.7-1.1-1.6-1.1-2.8s.4-2.1,1.1-2.8,1.8-1,3.1-1,.8,0,1.3.1c.4,0,.8.2,1.2.4v1c-.4-.2-.8-.3-1.3-.4s-.8-.1-1.3-.1c-.9,0-1.7.2-2.2.7-.5.5-.8,1.2-.8,2s.3,1.5.8,2Z" style="fill:#ee304c; stroke-width:0px;"/><path d="M515.3,571.6c-.6-.3-1.1-.7-1.4-1.3-.3-.6-.5-1.2-.5-2s.2-1.5.5-2c.3-.6.8-1,1.4-1.3s1.3-.4,2.2-.4,1.6.1,2.2.4,1.1.7,1.4,1.3c.3.6.5,1.2.5,2s-.2,1.5-.5,2c-.3.6-.8,1-1.4,1.3s-1.3.4-2.2.4-1.6-.1-2.2-.4ZM515.4,570.3c.5.5,1.2.7,2,.7s1.6-.2,2-.7c.5-.5.7-1.1.7-2s-.2-1.6-.7-2c-.5-.5-1.2-.7-2-.7s-1.6.2-2,.7c-.5.5-.7,1.2-.7,2s.2,1.5.7,2Z" style="fill:#ee304c; stroke-width:0px;"/><path d="M523.8,564.7v6.2h4.3v1h-5.5v-7.2h1.2Z" style="fill:#ee304c; stroke-width:0px;"/><path d="M531.4,564.7h2.3l2.9,7.2h-1.3l-.7-1.7h-4.2l-.7,1.7h-1.3l2.9-7.2ZM534.3,569.3l-1.8-4.5h0l-1.8,4.5h3.5Z" style="fill:#ee304c; stroke-width:0px;"/><path d="M538.4,565.7h-2.6v-1h6.3v1h-2.6v6.3h-1.2v-6.3Z" style="fill:#ee304c; stroke-width:0px;"/><path d="M548.7,564.7v1h-4.5v2.2h3.7v.8h-3.7v2.3h4.7v1h-5.9v-7.2h5.7Z" style="fill:#ee304c; stroke-width:0px;"/><path d="M49,549.6c-.7,0-1.3-.1-1.8-.4-.6-.2-1.1-.6-1.5-1.2s-.6-1.2-.7-2.1h1.9c0,.4.2.8.4,1s.5.5.8.6.6.2.9.2.7,0,1-.3.5-.4.7-.7.2-.6.2-1,0-.7-.3-1-.5-.5-.8-.6-.8-.2-1.2-.2h-2.1s-.8-.7-.8-.7l.6-4.7h5.9v1.6h-4.2l-.3,2.4h1.5c.8,0,1.4.1,2,.4s1,.6,1.3,1.1.5,1,.5,1.7-.2,1.3-.5,1.8-.8,1-1.4,1.4-1.3.5-2.1.5Z" style="fill:#fff; stroke-width:0px;"/><path d="M54.9,547.6h1.8l-1.4,3.2h-1.4l.9-3.2Z" style="fill:#fff; stroke-width:0px;"/><path d="M62.5,549.6c-1,0-1.8-.2-2.5-.7s-1.2-1.2-1.5-2-.5-1.8-.5-2.8.2-2,.5-2.8.9-1.5,1.6-2,1.5-.7,2.4-.7,1.9.3,2.6.8,1.2,1.2,1.5,2,.5,1.8.5,2.8-.2,2-.5,2.8-.9,1.5-1.5,2-1.5.7-2.5.7ZM62.5,547.8c.5,0,1-.2,1.4-.5s.7-.8.9-1.3.3-1.2.3-2-.1-1.4-.3-1.9-.5-1-.9-1.3-.9-.5-1.4-.5-1,.2-1.4.5-.7.8-.9,1.3-.3,1.2-.3,2,.1,1.4.3,1.9.5,1,.9,1.3.9.5,1.4.5Z" style="fill:#fff; stroke-width:0px;"/><path d="M72.6,549.6c-1,0-1.8-.2-2.5-.7s-1.2-1.2-1.5-2-.5-1.8-.5-2.8.2-2,.5-2.8.9-1.5,1.6-2,1.5-.7,2.4-.7,1.9.3,2.6.8,1.2,1.2,1.5,2,.5,1.8.5,2.8-.2,2-.5,2.8-.9,1.5-1.5,2-1.5.7-2.5.7ZM72.6,547.8c.5,0,1-.2,1.4-.5s.7-.8.9-1.3.3-1.2.3-2-.1-1.4-.3-1.9-.5-1-.9-1.3-.9-.5-1.4-.5-1,.2-1.4.5-.7.8-.9,1.3-.3,1.2-.3,2,.1,1.4.3,1.9.5,1,.9,1.3.9.5,1.4.5Z" style="fill:#fff; stroke-width:0px;"/><path d="M82.8,549.6c-1,0-1.8-.2-2.5-.7s-1.2-1.2-1.5-2-.5-1.8-.5-2.8.2-2,.5-2.8.9-1.5,1.6-2,1.5-.7,2.4-.7,1.9.3,2.6.8,1.2,1.2,1.5,2,.5,1.8.5,2.8-.2,2-.5,2.8-.9,1.5-1.5,2-1.5.7-2.5.7ZM82.8,547.8c.5,0,1-.2,1.4-.5s.7-.8.9-1.3.3-1.2.3-2-.1-1.4-.3-1.9-.5-1-.9-1.3-.9-.5-1.4-.5-1,.2-1.4.5-.7.8-.9,1.3-.3,1.2-.3,2,.1,1.4.3,1.9.5,1,.9,1.3.9.5,1.4.5Z" style="fill:#fff; stroke-width:0px;"/><path d="M93,538.7h1.9v10.6h-1.9v-10.6Z" style="fill:#fff; stroke-width:0px;"/><path d="M102.5,549.6c-1,0-2-.2-2.9-.7s-1.6-1.2-2.1-2-.8-1.8-.8-2.8.3-1.9.8-2.8,1.2-1.5,2.1-2,1.8-.7,2.9-.7,2,.2,2.9.7,1.6,1.2,2.1,2,.8,1.8.8,2.8-.3,1.9-.8,2.8-1.2,1.5-2.1,2-1.8.7-2.9.7ZM102.5,547.8c.7,0,1.3-.2,1.9-.5s1-.8,1.4-1.3.5-1.2.5-1.9-.2-1.4-.5-1.9-.8-1-1.4-1.4-1.2-.5-1.9-.5-1.3.2-1.9.5-1,.8-1.4,1.4-.5,1.2-.5,1.9.2,1.3.5,1.9.8,1,1.4,1.3,1.2.5,1.9.5ZM104.1,548.8l1.7-.8,1.9,2.7-1.8,1-1.8-2.9Z" style="fill:#fff; stroke-width:0px;"/><path d="M110.2,538.7h4.1c1.1,0,2.1.2,3,.7s1.5,1.1,2,1.9.7,1.7.7,2.8-.2,2-.7,2.8-1.1,1.4-2,1.9-1.8.7-2.9.7h-4.1v-10.6ZM114.2,547.6c.8,0,1.4-.1,2-.4s1-.7,1.3-1.2.4-1.2.4-1.9-.1-1.4-.4-1.9-.7-1-1.3-1.3-1.2-.4-2-.4h-2.1v7.2h2.1Z" style="fill:#fff; stroke-width:0px;"/><path d="M164.1,549.6c-.8,0-1.4-.2-2-.5s-1-.8-1.4-1.3-.5-1.2-.5-1.8,0-.7.1-1,.2-.7.4-1,.5-.8.8-1.4l2.4-3.8h2.2l-2.7,4.1c.2,0,.3-.2.5-.2s.4,0,.5,0c.6,0,1.1.1,1.7.4s.9.7,1.2,1.2.5,1.1.5,1.8-.2,1.3-.5,1.8-.8,1-1.4,1.3-1.3.5-2,.5ZM164.1,547.8c.3,0,.7,0,.9-.2s.5-.4.6-.6.2-.6.2-.9,0-.7-.2-.9-.4-.5-.6-.7-.6-.2-.9-.2-.7,0-1,.3-.5.4-.6.7-.2.6-.2.9,0,.7.2.9.4.5.7.6.6.2.9.2Z" style="fill:#fff; stroke-width:0px;"/><path d="M170,547.6h1.8l-1.4,3.2h-1.4l.9-3.2Z" style="fill:#fff; stroke-width:0px;"/><path d="M177.5,549.6c-1,0-1.8-.2-2.5-.7s-1.2-1.2-1.5-2-.5-1.8-.5-2.8.2-2,.5-2.8.9-1.5,1.6-2,1.5-.7,2.4-.7,1.9.3,2.6.8,1.2,1.2,1.5,2,.5,1.8.5,2.8-.2,2-.5,2.8-.9,1.5-1.5,2-1.5.7-2.5.7ZM177.5,547.8c.5,0,1-.2,1.4-.5s.7-.8.9-1.3.3-1.2.3-2-.1-1.4-.3-1.9-.5-1-.9-1.3-.9-.5-1.4-.5-1,.2-1.4.5-.7.8-.9,1.3-.3,1.2-.3,2,.1,1.4.3,1.9.5,1,.9,1.3.9.5,1.4.5Z" style="fill:#fff; stroke-width:0px;"/><path d="M187.7,549.6c-1,0-1.8-.2-2.5-.7s-1.2-1.2-1.5-2-.5-1.8-.5-2.8.2-2,.5-2.8.9-1.5,1.6-2,1.5-.7,2.4-.7,1.9.3,2.6.8,1.2,1.2,1.5,2,.5,1.8.5,2.8-.2,2-.5,2.8-.9,1.5-1.5,2-1.5.7-2.5.7ZM187.7,547.8c.5,0,1-.2,1.4-.5s.7-.8.9-1.3.3-1.2.3-2-.1-1.4-.3-1.9-.5-1-.9-1.3-.9-.5-1.4-.5-1,.2-1.4.5-.7.8-.9,1.3-.3,1.2-.3,2,.1,1.4.3,1.9.5,1,.9,1.3.9.5,1.4.5Z" style="fill:#fff; stroke-width:0px;"/><path d="M197.8,549.6c-1,0-1.8-.2-2.5-.7s-1.2-1.2-1.5-2-.5-1.8-.5-2.8.2-2,.5-2.8.9-1.5,1.6-2,1.5-.7,2.4-.7,1.9.3,2.6.8,1.2,1.2,1.5,2,.5,1.8.5,2.8-.2,2-.5,2.8-.9,1.5-1.5,2-1.5.7-2.5.7ZM197.8,547.8c.5,0,1-.2,1.4-.5s.7-.8.9-1.3.3-1.2.3-2-.1-1.4-.3-1.9-.5-1-.9-1.3-.9-.5-1.4-.5-1,.2-1.4.5-.7.8-.9,1.3-.3,1.2-.3,2,.1,1.4.3,1.9.5,1,.9,1.3.9.5,1.4.5Z" style="fill:#fff; stroke-width:0px;"/><path d="M208,538.7h1.9v10.6h-1.9v-10.6Z" style="fill:#fff; stroke-width:0px;"/><path d="M217.5,549.6c-1,0-2-.2-2.9-.7s-1.6-1.2-2.1-2-.8-1.8-.8-2.8.3-1.9.8-2.8,1.2-1.5,2.1-2,1.8-.7,2.9-.7,2,.2,2.9.7,1.6,1.2,2.1,2,.8,1.8.8,2.8-.3,1.9-.8,2.8-1.2,1.5-2.1,2-1.8.7-2.9.7ZM217.5,547.8c.7,0,1.3-.2,1.9-.5s1-.8,1.4-1.3.5-1.2.5-1.9-.2-1.4-.5-1.9-.8-1-1.4-1.4-1.2-.5-1.9-.5-1.3.2-1.9.5-1,.8-1.4,1.4-.5,1.2-.5,1.9.2,1.3.5,1.9.8,1,1.4,1.3,1.2.5,1.9.5ZM219.2,548.8l1.7-.8,1.9,2.7-1.8,1-1.8-2.9Z" style="fill:#fff; stroke-width:0px;"/><path d="M225.2,538.7h4.1c1.1,0,2.1.2,3,.7s1.5,1.1,2,1.9.7,1.7.7,2.8-.2,2-.7,2.8-1.1,1.4-2,1.9-1.8.7-2.9.7h-4.1v-10.6ZM229.2,547.6c.8,0,1.4-.1,2-.4s1-.7,1.3-1.2.4-1.2.4-1.9-.1-1.4-.4-1.9-.7-1-1.3-1.3-1.2-.4-2-.4h-2.1v7.2h2.1Z" style="fill:#fff; stroke-width:0px;"/><rect x="266.3" y="542.5" width="105.9" height=".5" style="fill:#fff; stroke-width:0px;"/><rect x="44.9" y="101.4" width="246.2" height="54" style="fill:#ee304c; stroke-width:0px;"/><path d="M71.4,119.2h15.3v4.1h-10.4v3.9h8v3.8h-8v6.2h-4.9v-18Z" style="fill:#fff; stroke-width:0px;"/><path d="M88.7,119.2h8.8c1.7,0,3.1.2,4.4.7,1.2.5,2.2,1.2,2.9,2.1.7.9,1,2,1,3.3s-.4,2.5-1.2,3.4-1.9,1.6-3.3,2.1l5.1,6.5h-5.5l-7.2-9.1v9.1h-4.9v-18ZM97.5,128c.9,0,1.7-.2,2.3-.7.6-.5.8-1.1.8-1.9s-.3-1.5-.8-1.9c-.6-.5-1.3-.7-2.3-.7h-3.9v5.2h3.9Z" style="fill:#fff; stroke-width:0px;"/><path d="M123.7,119.2v4h-10.7v3.2h8.2v3.5h-8.2v3.3h11v4h-15.9v-18h15.6Z" style="fill:#fff; stroke-width:0px;"/><path d="M137.3,123.2c-1.2-.2-2.5-.3-3.9-.3s-1.8.1-2.3.3c-.5.2-.7.6-.7,1s.3.8.8,1.1c.5.3,1.5.6,2.8.9,1.9.4,3.4.8,4.5,1.3,1.1.5,2,1.1,2.5,1.8.6.7.8,1.6.8,2.7,0,1.8-.8,3.2-2.3,4.2-1.5.9-3.6,1.4-6.4,1.4s-6.3-.5-8.3-1.4l.3-4.3c1,.4,2.2.8,3.6,1.1,1.4.3,2.9.5,4.4.5s2.2-.1,2.7-.4c.5-.2.8-.6.8-1.1s-.1-.6-.4-.8c-.3-.2-.7-.4-1.3-.6-.6-.2-1.4-.4-2.5-.6-2.5-.5-4.4-1.2-5.6-2.1-1.2-.8-1.8-2-1.8-3.6s.7-3.1,2.1-4.1c1.4-1,3.5-1.4,6.1-1.4s5.2.4,7.2,1.2l-.3,4.2c-.9-.4-1.9-.7-3.1-.9Z" style="fill:#fff; stroke-width:0px;"/><path d="M162.3,119.2v18h-4.9v-6.8h-8.6v6.8h-4.9v-18h4.9v7.1h8.6v-7.1h4.9Z" style="fill:#fff; stroke-width:0px;"/><path d="M172.6,133.3c1.3,0,2.3-.3,3-1,.7-.6,1-1.6,1-2.7v-10.4h5v10.5c0,2.5-.8,4.5-2.3,5.9-1.5,1.4-3.7,2-6.5,2s-2.9-.1-3.9-.4l.3-4.3c.8.3,1.9.4,3.4.4Z" style="fill:#fff; stroke-width:0px;"/><path d="M200.1,135.5c-1.7,1.4-4.1,2.1-7.1,2.1s-5.5-.7-7.2-2.1c-1.7-1.4-2.5-3.4-2.5-6v-10.3h5v10.3c0,1.4.4,2.4,1.2,3.2.8.7,2,1.1,3.5,1.1s2.7-.4,3.5-1.1c.8-.7,1.2-1.8,1.2-3.2v-10.3h5v10.3c0,2.6-.8,4.6-2.5,6Z" style="fill:#fff; stroke-width:0px;"/><path d="M209.8,119.2v18h-4.9v-18h4.9Z" style="fill:#fff; stroke-width:0px;"/><path d="M218.6,132.1c1,.9,2.5,1.4,4.4,1.4s2-.1,3-.4c1-.2,2-.6,2.9-1l.3,4.3c-.9.4-1.9.7-3,.9s-2.1.3-3.1.3c-2.4,0-4.5-.4-6.2-1.1-1.7-.7-3-1.8-3.9-3.2-.9-1.4-1.3-3.1-1.3-5.1s.4-3.7,1.3-5.1c.9-1.4,2.2-2.5,3.9-3.2,1.7-.7,3.8-1.1,6.2-1.1s2,.1,3.1.3c1.1.2,2.1.5,3,.9l-.3,4.3c-.9-.4-1.9-.8-2.9-1-1-.2-2.1-.4-3.1-.4-1.9,0-3.4.5-4.4,1.4-1,.9-1.6,2.2-1.6,3.9s.5,3,1.6,3.9Z" style="fill:#fff; stroke-width:0px;"/><path d="M247,119.2v4h-10.7v3.2h8.2v3.5h-8.2v3.3h11v4h-15.9v-18h15.6Z" style="fill:#fff; stroke-width:0px;"/><path d="M260.7,123.2c-1.2-.2-2.5-.3-3.9-.3s-1.8.1-2.3.3c-.5.2-.7.6-.7,1s.3.8.8,1.1c.5.3,1.5.6,2.8.9,1.9.4,3.4.8,4.5,1.3,1.1.5,2,1.1,2.5,1.8.6.7.8,1.6.8,2.7,0,1.8-.8,3.2-2.3,4.2-1.5.9-3.6,1.4-6.4,1.4s-6.3-.5-8.3-1.4l.3-4.3c1,.4,2.2.8,3.6,1.1,1.4.3,2.9.5,4.4.5s2.2-.1,2.7-.4c.5-.2.8-.6.8-1.1s-.1-.6-.4-.8c-.3-.2-.7-.4-1.3-.6-.6-.2-1.4-.4-2.5-.6-2.5-.5-4.4-1.2-5.6-2.1-1.2-.8-1.8-2-1.8-3.6s.7-3.1,2.1-4.1c1.4-1,3.5-1.4,6.1-1.4s5.2.4,7.2,1.2l-.3,4.2c-.9-.4-1.9-.7-3.1-.9Z" style="fill:#fff; stroke-width:0px;"/><polygon points="327.3 98.3 312.1 112.9 317.8 89.4 327.3 98.3" style="fill:#171a23; stroke-width:0px;"/><polygon points="117 158.3 132.2 143.6 126.5 167.2 117 158.3" style="fill:#171a23; stroke-width:0px;"/><polygon points="517.3 158.3 532.6 143.6 526.8 167.2 517.3 158.3" style="fill:#171a23; stroke-width:0px;"/><path d="M165.8,199.8v7.9h5.4v1.2h-6.9v-9.1h1.5Z" style="fill:#fff; stroke-width:0px;"/><path d="M176.8,206.6h0c0,.4-.2.8-.4,1.2s-.5.7-.9.9c-.4.2-.9.4-1.5.4s-1.3-.2-1.7-.5-.6-.8-.6-1.4.2-1.1.7-1.4c.5-.3,1.1-.5,2-.5s1.6,0,2.3.2v-.3c0-.5-.2-1-.5-1.2-.3-.3-.8-.4-1.4-.4s-.8,0-1.2.1c-.4,0-.8.2-1.1.4v-1.1c.2-.2.7-.3,1.1-.4.4,0,.9-.1,1.3-.1,1,0,1.8.2,2.3.7.5.5.8,1.1.8,2v3.9h-.9l-.3-2.3ZM173.4,207.7c.3.2.6.3,1.1.3s1.1-.2,1.5-.5c.4-.4.7-.9.7-1.6h0c-.6-.1-1.2-.2-1.8-.2s-1.1.1-1.4.3c-.3.2-.5.5-.5.9s.1.6.4.8Z" style="fill:#fff; stroke-width:0px;"/><path d="M180.7,202.5l.4,2.6h0c0-.8.2-1.5.6-2,.3-.5.8-.8,1.4-.8s.6,0,.9.2v1.3c-.4-.1-.8-.2-1.1-.2-.6,0-1.1.3-1.4.8s-.4,1.3-.4,2.3v2.2h-1.4v-6.4h.9Z" style="fill:#fff; stroke-width:0px;"/><path d="M187.5,207.5c-.6,0-1.1,0-1.3.1s-.4.2-.4.4,0,.3.2.3.4.1.7.2l2.7.3c.7,0,1.2.2,1.5.4s.5.6.5,1-.1.9-.4,1.3h-1.4c.2-.2.3-.4.4-.5,0-.2.1-.3.1-.5,0-.2,0-.4-.3-.5-.2,0-.4-.2-.8-.2l-2.8-.3c-.7,0-1.1-.2-1.4-.4-.3-.2-.4-.4-.4-.7s.2-.6.6-.8c.4-.2,1-.2,1.9-.3h0c-.9-.1-1.5-.4-1.9-.8s-.6-1-.6-1.7.2-1.4.7-1.9c.5-.5,1.2-.7,2.1-.7s1.4.2,1.8.6c.4.4.6.9.7,1.4h0l.3-2.6h.9v3.3h0c0,.8-.3,1.4-.8,1.8-.6.4-1.4.7-2.4.7h-.1ZM186.2,206.1c.3.3.8.4,1.5.4s1.1-.1,1.5-.4c.3-.3.5-.7.5-1.2s-.2-.9-.5-1.2-.8-.4-1.4-.4-1.1.1-1.5.4c-.3.3-.5.7-.5,1.2s.2.9.5,1.2Z" style="fill:#fff; stroke-width:0px;"/><path d="M192.9,208.2c-.7-.6-1-1.4-1-2.5s.3-1.9.9-2.5,1.5-.9,2.5-.9,1.9.3,2.5.8.9,1.3.9,2.4c0,.2,0,.3,0,.5h-5.4c0,.7.3,1.2.7,1.5.4.3,1,.5,1.7.5s.7,0,1-.1c.4,0,.7-.2.9-.4v1.1c-.2.1-.5.3-.9.3-.4,0-.8.1-1.1.1-1.1,0-2-.3-2.7-.9ZM197.4,205.4c0-.6-.2-1.1-.6-1.5s-.9-.5-1.5-.5-1.1.2-1.5.6c-.4.4-.6.9-.6,1.6l4.2-.2Z" style="fill:#fff; stroke-width:0px;"/><path d="M49.6,199h0v8.7h-1.5v-9.1h2.8l3,8.9h0l3-8.9h2.8v9.1h-1.5v-8.7h0l-3,8.7h-2.5l-3-8.7Z" style="fill:#fff; stroke-width:0px;"/><path d="M62.1,207c-.7-.6-1-1.4-1-2.5s.3-1.9.9-2.5,1.5-.9,2.5-.9,1.9.3,2.5.8.9,1.3.9,2.4c0,.2,0,.3,0,.5h-5.4c0,.7.3,1.2.7,1.5.4.3,1,.5,1.7.5s.7,0,1-.1c.4,0,.7-.2.9-.4v1.1c-.2.1-.5.3-.9.3-.4,0-.8.1-1.1.1-1.1,0-2-.3-2.7-.9ZM66.6,204.2c0-.6-.2-1.1-.6-1.5s-.9-.5-1.5-.5-1.1.2-1.5.6c-.4.4-.6.9-.6,1.6l4.2-.2Z" style="fill:#fff; stroke-width:0px;"/><path d="M75.8,207.7h-.9l-.4-2.4h0c0,.8-.4,1.4-.9,1.9-.5.5-1.1.7-1.9.7s-1.7-.3-2.2-.9c-.5-.6-.8-1.4-.8-2.5s.3-1.9.8-2.5,1.2-.9,2.2-.9,1.5.2,2,.7c.5.4.8,1.1.9,1.9h0v-2.1c0,0,0-3.5,0-3.5h1.4v9.6ZM70.6,206.2c.4.4.9.6,1.6.6s1.3-.2,1.7-.6c.4-.4.6-1,.6-1.7s-.2-1.2-.6-1.6c-.4-.4-1-.6-1.7-.6s-1.2.2-1.6.6c-.4.4-.6,1-.6,1.7s.2,1.3.6,1.7Z" style="fill:#fff; stroke-width:0px;"/><path d="M79.2,207.7h-1.4v-5.3h-.6v-1.1h2v6.4ZM77.6,200c-.2-.1-.2-.3-.2-.5s0-.4.2-.5c.2-.1.4-.2.6-.2s.5,0,.6.2c.2.1.2.3.2.5s0,.4-.2.5c-.1.1-.4.2-.6.2s-.5,0-.6-.2Z" style="fill:#fff; stroke-width:0px;"/><path d="M86.7,207.7l-.4-2.5h0c0,.8-.4,1.4-.8,1.9s-1.1.7-1.9.7-1.5-.2-1.9-.7-.7-1.2-.7-2.1v-3.7h1.4v3.6c0,.6.2,1,.5,1.4.3.3.8.5,1.4.5s1.2-.2,1.6-.7c.4-.5.6-1.1.6-1.9v-2.8h1.4v6.4h-.9Z" style="fill:#fff; stroke-width:0px;"/><path d="M98.6,202.7c-.3-.3-.6-.5-1.1-.5s-1.1.2-1.4.7c-.3.5-.5,1.1-.5,1.9v2.8h-1.4v-3.6c0-.6-.1-1.1-.4-1.4s-.6-.5-1.1-.5-1.1.2-1.4.7c-.3.5-.5,1.1-.5,1.9v2.8h-1.4v-6.4h.9l.4,2.5h0c0-.5.1-.9.3-1.3s.5-.7.8-1c.4-.2.8-.4,1.3-.4.7,0,1.3.2,1.7.7.4.5.6,1.1.7,2h0c0-.8.3-1.4.7-1.9s1-.8,1.7-.8,1.4.2,1.8.7.6,1.2.6,2.1v3.8h-1.4v-3.6c0-.6-.1-1.1-.4-1.4Z" style="fill:#fff; stroke-width:0px;"/><path d="M261.1,764.2h-3.5l-4.5-8.9h4.2l3.9,8.4h.1l4-8.4h4.2l-7,13.7h-3.7l2.3-4.8Z" style="fill:#fff; stroke-width:0px;"/><path d="M271.2,755.4h7.3l4.6,13.7h-4.1l-.8-2.8h-6.5l-.8,2.8h-4.1l4.6-13.7ZM277.3,763.6l-2.4-7.9h0l-2.4,7.9h4.9Z" style="fill:#fff; stroke-width:0px;"/><path d="M287.9,755.4v10.6h7.6v3h-11.4v-13.7h3.8Z" style="fill:#fff; stroke-width:0px;"/><path d="M300.4,755.4v10.6h7.6v3h-11.4v-13.7h3.8Z" style="fill:#fff; stroke-width:0px;"/><path d="M313.1,755.4h7.3l4.6,13.7h-4.1l-.8-2.8h-6.5l-.8,2.8h-4.1l4.6-13.7ZM319.2,763.6l-2.4-7.9h0l-2.4,7.9h4.9Z" style="fill:#fff; stroke-width:0px;"/><path d="M231,774.1l4.4,13.4h0v-13.4h3.7v13.7h-7.4l-4.4-13.5h0v13.5h-3.7v-13.7h7.4Z" style="fill:#fff; stroke-width:0px;"/><path d="M253,774.1v3h-8.1v2.5h6.2v2.6h-6.2v2.5h8.3v3h-12.1v-13.7h11.8Z" style="fill:#fff; stroke-width:0px;"/><path d="M262.1,780.9l-4,6.9h-4.3l4.6-7-4.3-6.7h4.3l3.8,6.5,3.8-6.5h4.3l-4.3,6.7,4.6,7h-4.3l-4-6.9Z" style="fill:#fff; stroke-width:0px;"/><path d="M275.2,777.1h-4.6v-3h12.9v3h-4.6v10.6h-3.8v-10.6Z" style="fill:#fff; stroke-width:0px;"/><path d="M292.4,774.1v10.6h7.6v3h-11.4v-13.7h3.8Z" style="fill:#fff; stroke-width:0px;"/><path d="M313,774.1v3h-8.1v2.5h6.2v2.6h-6.2v2.5h8.3v3h-12.1v-13.7h11.8Z" style="fill:#fff; stroke-width:0px;"/><path d="M325.5,787.7h-7.6l-4.4-13.7h4.1l4.1,13.4h0l4-13.4h4.1l-4.4,13.7Z" style="fill:#fff; stroke-width:0px;"/><path d="M342.8,774.1v3h-8.1v2.5h6.2v2.6h-6.2v2.5h8.3v3h-12.1v-13.7h11.8Z" style="fill:#fff; stroke-width:0px;"/><path d="M348,774.1v10.6h7.6v3h-11.4v-13.7h3.8Z" style="fill:#fff; stroke-width:0px;"/><path d="M327.7,756.1h-1.3v-.7h3.5v.7h-1.3v3.8h-.8v-3.8Z" style="fill:#fff; stroke-width:0px;"/><path d="M330.5,755.4h.7l1.5,2.1h0s1.6-2.1,1.6-2.1h.7v4.5h-.8v-3.2l-1.3,1.8h-.2l-1.3-1.8v3.2h-.8v-4.5Z" style="fill:#fff; stroke-width:0px;"/></svg>