<?xml version="1.0" encoding="UTF-8"?><svg id="Layer_1" xmlns="http://www.w3.org/2000/svg" viewBox="0 0 595.3 841.9"><rect x="-2381.1" y="-1.4" width="7740.4" height="845.9" style="fill:#171a23; stroke-width:0px;"/><path d="M48.8,50h0v9.8h-2.9v-10.5h5.3l1.9,10.3h0l1.9-10.3h5.3v10.5h-2.9v-9.8h0l-1.9,9.8h-4.9l-1.9-9.8Z" style="fill:#fff; stroke-width:0px;"/><path d="M71.1,49.3v2.3h-6.2v1.9h4.7v2h-4.7v1.9h6.4v2.3h-9.2v-10.5h9.1Z" style="fill:#fff; stroke-width:0px;"/><path d="M77.9,49.3l3.4,10.2h0v-10.2h2.8v10.5h-5.7l-3.4-10.3h0v10.3h-2.8v-10.5h5.7Z" style="fill:#fff; stroke-width:0px;"/><path d="M95.2,58.8c-1,.8-2.4,1.2-4.2,1.2s-3.2-.4-4.2-1.2c-1-.8-1.5-2-1.5-3.5v-6h2.9v6c0,.8.2,1.4.7,1.8.5.4,1.1.6,2,.6s1.6-.2,2-.6c.5-.4.7-1,.7-1.8v-6h2.9v6c0,1.5-.5,2.7-1.5,3.5Z" style="fill:#fff; stroke-width:0px;"/><path d="M106.6,49.3l3.4,10.2h0v-10.2h2.8v10.5h-5.7l-3.4-10.3h0v10.3h-2.8v-10.5h5.7Z" style="fill:#fff; stroke-width:0px;"/><path d="M123.5,49.3v2.3h-6.2v1.9h4.7v2h-4.7v1.9h6.4v2.3h-9.2v-10.5h9.1Z" style="fill:#fff; stroke-width:0px;"/><path d="M130.5,54.5l-3.1,5.3h-3.3l3.5-5.4-3.3-5.1h3.3l2.9,5,2.9-5h3.3l-3.3,5.1,3.5,5.4h-3.3l-3.1-5.3Z" style="fill:#fff; stroke-width:0px;"/><path d="M140.5,51.6h-3.5v-2.3h9.9v2.3h-3.5v8.1h-2.9v-8.1Z" style="fill:#fff; stroke-width:0px;"/><path d="M153.7,49.3v8.1h5.8v2.3h-8.7v-10.5h2.9Z" style="fill:#fff; stroke-width:0px;"/><path d="M169.4,49.3v2.3h-6.2v1.9h4.7v2h-4.7v1.9h6.4v2.3h-9.2v-10.5h9.1Z" style="fill:#fff; stroke-width:0px;"/><path d="M179,59.8h-5.8l-3.4-10.5h3.2l3.1,10.3h0l3.1-10.3h3.2l-3.4,10.5Z" style="fill:#fff; stroke-width:0px;"/><path d="M192.3,49.3v2.3h-6.2v1.9h4.7v2h-4.7v1.9h6.4v2.3h-9.2v-10.5h9.1Z" style="fill:#fff; stroke-width:0px;"/><path d="M196.3,49.3v8.1h5.8v2.3h-8.7v-10.5h2.9Z" style="fill:#fff; stroke-width:0px;"/><path d="M542.6,53.4c.3-.2.7-.3,1.1-.3s.6,0,.8.2c.3.1.5.3.7.5.2.2.3.5.4.8h1.2c0-.5-.3-1-.6-1.4-.3-.4-.7-.6-1.1-.8s-.9-.3-1.3-.3-1.2.1-1.7.4-.9.7-1.2,1.2c-.3.5-.4,1.1-.4,1.7s.1,1.2.4,1.7c.3.5.7.9,1.2,1.2s1.1.4,1.7.4.9,0,1.3-.3c.4-.2.8-.5,1.1-.8.3-.4.5-.8.6-1.4h-1.2c0,.3-.2.6-.4.8-.2.2-.4.4-.7.5-.3.1-.5.2-.8.2s-.8,0-1.1-.3c-.3-.2-.6-.4-.8-.8-.2-.3-.3-.7-.3-1.2s0-.8.3-1.2c.2-.3.4-.6.8-.8Z" style="fill:#fff; stroke-width:0px;"/><path d="M543.7,49.8c-3.1,0-5.6,2.5-5.6,5.6s2.5,5.6,5.6,5.6,5.6-2.5,5.6-5.6-2.5-5.6-5.6-5.6ZM543.7,60.3c-2.7,0-4.8-2.2-4.8-4.8s2.2-4.8,4.8-4.8,4.8,2.2,4.8,4.8-2.2,4.8-4.8,4.8Z" style="fill:#fff; stroke-width:0px;"/><path d="M496.5,59.8l3.6-3.2c.5-.5.9-.9,1.2-1.2s.5-.6.7-1c.2-.3.3-.6.3-1s0-.6-.2-.9c-.2-.3-.4-.5-.6-.6-.3-.1-.6-.2-.9-.2s-.7,0-1,.2c-.3.2-.5.4-.7.8-.2.4-.3.8-.3,1.4h-2c0-.8.1-1.4.4-2.1s.7-1.2,1.3-1.6c.6-.4,1.3-.6,2.2-.6s1.5.2,2,.5c.6.3,1,.7,1.3,1.3.3.5.5,1.1.5,1.8s0,.9-.2,1.3-.4.8-.7,1.2c-.3.4-.7.8-1.2,1.2l-2.7,2.4.9-.2h4.1v1.7h-8v-1.1Z" style="fill:#fff; stroke-width:0px;"/><path d="M510.2,61.2c-1,0-1.9-.3-2.6-.8s-1.2-1.2-1.6-2c-.4-.9-.5-1.8-.5-2.9s.2-2.1.5-2.9c.4-.9.9-1.6,1.6-2.1.7-.5,1.5-.8,2.5-.8s2,.3,2.7.8,1.2,1.2,1.5,2.1.5,1.8.5,2.8-.2,2-.5,2.9-.9,1.5-1.6,2.1-1.6.8-2.6.8ZM510.2,59.4c.5,0,1-.2,1.4-.5.4-.3.7-.8.9-1.4.2-.6.3-1.3.3-2s-.1-1.4-.3-2c-.2-.6-.5-1-.9-1.4s-.9-.5-1.5-.5-1,.2-1.4.5c-.4.3-.7.8-.9,1.4-.2.6-.3,1.3-.3,2s.1,1.4.3,2c.2.6.5,1,.9,1.4.4.3.9.5,1.4.5Z" style="fill:#fff; stroke-width:0px;"/><path d="M515.9,59.8l3.6-3.2c.5-.5.9-.9,1.2-1.2s.5-.6.7-1c.2-.3.3-.6.3-1s0-.6-.2-.9c-.2-.3-.4-.5-.6-.6-.3-.1-.6-.2-.9-.2s-.7,0-1,.2c-.3.2-.5.4-.7.8-.2.4-.3.8-.3,1.4h-2c0-.8.1-1.4.4-2.1s.7-1.2,1.3-1.6c.6-.4,1.3-.6,2.2-.6s1.5.2,2,.5c.6.3,1,.7,1.3,1.3.3.5.5,1.1.5,1.8s0,.9-.2,1.3-.4.8-.7,1.2c-.3.4-.7.8-1.2,1.2l-2.7,2.4.9-.2h4.1v1.7h-8v-1.1Z" style="fill:#fff; stroke-width:0px;"/><path d="M529.2,61.2c-.7,0-1.3-.1-1.9-.4-.6-.2-1.1-.6-1.5-1.2s-.6-1.2-.7-2.1h1.9c0,.4.2.8.4,1,.2.3.5.5.8.6.3.1.6.2.9.2s.7,0,1.1-.3c.3-.2.6-.4.7-.7.2-.3.3-.6.3-1s0-.7-.3-1-.5-.5-.8-.6c-.4-.1-.8-.2-1.3-.2h-2.2s-.9-.7-.9-.7l.7-4.8h6v1.6h-4.3l-.3,2.5h1.6c.8,0,1.5.1,2,.4.6.3,1,.6,1.3,1.1.3.5.5,1.1.5,1.8s-.2,1.3-.5,1.9c-.3.6-.8,1-1.4,1.4-.6.4-1.3.5-2.1.5Z" style="fill:#fff; stroke-width:0px;"/><rect x="260.2" y="101.4" width="290.2" height="54" style="fill:#fff; stroke-width:0px;"/><path d="M372.6,131.2v4.2c0,.2-.1.3-.3.3h-1.4c-.4,4.5-5.1,6.2-11.8,6.2l-.5-3.7c4.8,0,7.2-.7,7.7-2.5h-2.4c-4.1,0-6.8-2.9-6.8-7.2s3.1-7.5,7.1-7.5,6.8,2.7,6.8,7.2v2.7h1.4c.2,0,.3.1.3.3ZM364.3,131.2c.7,0,1.4,0,2.1-.1v-2.5c0-1.9-1.1-3-2.6-3s-2.7,1.1-2.7,2.7,1.4,2.8,3.2,2.8Z" style="fill:#171a23; stroke-width:0px;"/><path d="M378.2,131.2v4.2c0,.2-.1.3-.3.3h-5.6c-.2,0-.3-.1-.3-.3v-4.2c0-.2.1-.3.3-.3h5.6c.2,0,.3.1.3.3Z" style="fill:#171a23; stroke-width:0px;"/><path d="M383.8,131.2v4.2c0,.2-.1.3-.3.3h-5.6c-.2,0-.3-.1-.3-.3v-4.2c0-.2.1-.3.3-.3h5.6c.2,0,.3.1.3.3Z" style="fill:#171a23; stroke-width:0px;"/><path d="M389.4,131.2v4.2c0,.2-.1.3-.3.3h-5.6c-.2,0-.3-.1-.3-.3v-4.2c0-.2.1-.3.3-.3h5.6c.2,0,.3.1.3.3Z" style="fill:#171a23; stroke-width:0px;"/><path d="M400.6,131.2v4.2c0,.2-.1.3-.3.3-1.5,0-3.2-.8-4.5-2.2-1.3,1.4-3.6,2.2-6.6,2.2s-.3-.1-.3-.3v-4.2c0-.2.2-.3.3-.3,2.3,0,3.5-.9,3.5-2.9v-3.5s4.5-.5,4.5-.5v6c1,.6,2.1.9,3.2.9s.3.1.3.3ZM392.5,122.5l-3-3,3-3,2.3,2.2,2.3-2.2,3,3-2.9,3-2.3-2.3-2.3,2.3Z" style="fill:#171a23; stroke-width:0px;"/><path d="M411.8,131.2v4.2c0,.2-.1.3-.3.3-1.5,0-3.2-.8-4.5-2.2-1.3,1.4-3.6,2.2-6.6,2.2s-.3-.1-.3-.3v-4.2c0-.2.2-.3.3-.3,2.3,0,3.5-.9,3.5-2.9v-3.5s4.5-.5,4.5-.5v6c1,.6,2.1.9,3.2.9s.3.1.3.3ZM408,137.1l3,3-3,3-2.1-2.1-2.1,2.1-3-3,3-3,2.1,2.1,2.1-2.1Z" style="fill:#171a23; stroke-width:0px;"/><path d="M434.1,126.5c0,1.6-.3,3.5-.8,5.3l-3.3,3.8h-8.7c-2,0-3.7-.5-5-1.4-1.5.9-3.3,1.4-4.8,1.4s-.3-.1-.3-.3v-4.2c0-.2.1-.3.3-.3.8,0,1.5-.1,2.1-.3-.3-.8-.4-1.8-.4-2.8,0-4,3-7,7.1-7s6.8,2.9,6.8,6.6-.2,2.3-.6,3.6h2.6c.4-1.5.6-3,.6-4.2,0-3.4-2.6-7.5-10.1-7.5l.3-4c9.2,0,14,4.1,14,11.4ZM422.7,130.9c.3-1.2.4-2.2.4-3,0-1.6-1.2-2.9-2.7-2.9s-2.7,1.2-2.7,2.7,1.3,3.1,3.6,3.1h1.4Z" style="fill:#171a23; stroke-width:0px;"/><path d="M451.5,131.2v4.2c0,.2-.1.3-.3.3h-1.4c-.4,4.5-5.1,6.2-11.8,6.2l-.5-3.7c4.8,0,7.2-.7,7.7-2.5h-2.4c-4.1,0-6.8-2.9-6.8-7.2s3.1-7.5,7.1-7.5,6.8,2.7,6.8,7.2v2.7h1.4c.2,0,.3.1.3.3ZM443.2,131.2c.7,0,1.4,0,2.1-.1v-2.5c0-1.9-1.1-3-2.6-3s-2.7,1.1-2.7,2.7,1.4,2.8,3.2,2.8Z" style="fill:#171a23; stroke-width:0px;"/><path d="M457.1,131.2v4.2c0,.2-.1.3-.3.3h-5.6c-.2,0-.3-.1-.3-.3v-4.2c0-.2.1-.3.3-.3h5.6c.2,0,.3.1.3.3Z" style="fill:#171a23; stroke-width:0px;"/><path d="M462.7,131.2v4.2c0,.2-.1.3-.3.3h-5.6c-.2,0-.3-.1-.3-.3v-4.2c0-.2.1-.3.3-.3h5.6c.2,0,.3.1.3.3Z" style="fill:#171a23; stroke-width:0px;"/><path d="M479.3,131.2v4.2c0,.2,0,.3-.3.3h-6.8c-2,0-3.7-.5-5.1-1.4-1.5.9-3.2,1.4-4.7,1.4s-.3-.1-.3-.3v-4.2c0-.2.1-.3.3-.3.8,0,1.5-.1,2.1-.3-.3-.9-.4-1.8-.4-2.8,0-4,3-7,7.1-7s6.8,2.9,6.8,6.6-.2,2.3-.6,3.6h1.6c.2,0,.3.1.3.3ZM473.6,130.9c.3-1.2.4-2.2.4-3,0-1.6-1.2-2.9-2.7-2.9s-2.7,1.2-2.7,2.7,1.3,3.1,3.6,3.1h1.4Z" style="fill:#171a23; stroke-width:0px;"/><path d="M478.7,135.4v-4.2c0-.2.1-.3.3-.3,1.6,0,2.4-.9,2.4-3v-12.8s4.5-.5,4.5-.5v15c0,4.1-2.3,6.1-7,6.1s-.3-.1-.3-.3Z" style="fill:#171a23; stroke-width:0px;"/><path d="M490.1,115.1l4.5-.5v21.1h-4.5v-20.6Z" style="fill:#171a23; stroke-width:0px;"/><path d="M454.1,241.7c0,.1,0,.2-.2.2-1.8,0-3-.5-3.7-1.4-1.4.9-2.9,1.4-4.9,1.4h-2.5c-3,0-4.5-1.4-4.5-4.1s0-1.8.3-3l2.4.3c-.1.9-.2,1.4-.2,1.8,0,1.4.8,2,2.6,2h1.8c2,0,3.3-.2,4.2-.7v-9.3s2.8-.3,2.8-.3v8.4c0,1.3.5,1.9,1.5,1.9s.2,0,.2.2v2.6ZM447.4,235.5h-4.3v-1.9h.9c-.2-.3-.3-.6-.3-1,0-1.2.9-1.9,2.1-1.9s.9.1,1.4.4v1.6c-.5-.2-.9-.3-1.2-.3-.5,0-.8.2-.8.6s0,.4.2.5h2.5l-.6,1.9Z" style="fill:#fff; stroke-width:0px;"/><path d="M457.7,239.1v2.6c0,.1,0,.2-.2.2h-3.5c-.1,0-.2,0-.2-.2v-2.6c0-.1,0-.2.2-.2h3.5c.1,0,.2,0,.2.2Z" style="fill:#fff; stroke-width:0px;"/><path d="M461.2,239.1v2.6c0,.1,0,.2-.2.2h-3.5c-.1,0-.2,0-.2-.2v-2.6c0-.1,0-.2.2-.2h3.5c.1,0,.2,0,.2.2Z" style="fill:#fff; stroke-width:0px;"/><path d="M464.7,239.1v2.6c0,.1,0,.2-.2.2h-3.5c-.1,0-.2,0-.2-.2v-2.6c0-.1,0-.2.2-.2h3.5c.1,0,.2,0,.2.2Z" style="fill:#fff; stroke-width:0px;"/><path d="M468.3,239.1v2.6c0,.1,0,.2-.2.2h-3.5c-.1,0-.2,0-.2-.2v-2.6c0-.1,0-.2.2-.2h3.5c.1,0,.2,0,.2.2Z" style="fill:#fff; stroke-width:0px;"/><path d="M471.8,239.1v2.6c0,.1,0,.2-.2.2h-3.5c-.1,0-.2,0-.2-.2v-2.6c0-.1,0-.2.2-.2h3.5c.1,0,.2,0,.2.2Z" style="fill:#fff; stroke-width:0px;"/><path d="M475.4,239.1v2.6c0,.1,0,.2-.2.2h-3.5c-.1,0-.2,0-.2-.2v-2.6c0-.1,0-.2.2-.2h3.5c.1,0,.2,0,.2.2Z" style="fill:#fff; stroke-width:0px;"/><path d="M482.4,239.1v2.6c0,.1,0,.2-.2.2-1,0-2-.5-2.9-1.4-.8.9-2.3,1.4-4.2,1.4s-.2,0-.2-.2v-2.6c0-.1.1-.2.2-.2,1.4,0,2.2-.5,2.2-1.9v-2.2s2.8-.3,2.8-.3v3.8c.6.4,1.3.6,2,.6s.2,0,.2.2ZM480,242.8l1.9,1.9-1.9,1.9-1.3-1.3-1.3,1.3-1.9-1.9,1.9-1.9,1.3,1.3,1.3-1.3Z" style="fill:#fff; stroke-width:0px;"/><path d="M498.1,232.6v5.4c0,2.5-1.3,3.8-3.8,3.8s-2-.3-3-1c-.7.6-1.7,1-2.9,1s-1.8-.3-2.7-1.1c-.7.7-1.8,1.1-3.3,1.1s-.2,0-.2-.2v-2.6c0-.1,0-.2.2-.2,1,0,1.5-.6,1.5-1.9v-2.2s2.8-.3,2.8-.3v3.6c0,.2,0,.4,0,.5.5.2.9.3,1.4.3,1,0,1.5-.6,1.5-1.9v-2.2s2.8-.3,2.8-.3v3.6c0,.2,0,.4,0,.6.5.1.9.2,1.4.2,1,0,1.5-.6,1.5-1.9v-4.1l2.8-.3Z" style="fill:#fff; stroke-width:0px;"/><path d="M511.5,241.7c0,.1,0,.2-.2.2-1.5,0-2.6-.3-3.3-1-1.1.5-3.3,1-4.5,1h-3.9l-.4-3h3.1l-1.4-7.2,2.8-.7,1.2,7.8c.7,0,1.4-.2,2-.3,0-.2,0-.3,0-.5v-9.1s2.8-.3,2.8-.3v8.4c0,1.3.5,1.9,1.5,1.9s.2,0,.2.2v2.6Z" style="fill:#fff; stroke-width:0px;"/><path d="M515.1,239.1v2.6c0,.1,0,.2-.2.2h-3.5c-.1,0-.2,0-.2-.2v-2.6c0-.1,0-.2.2-.2h3.5c.1,0,.2,0,.2.2Z" style="fill:#fff; stroke-width:0px;"/><path d="M518.6,239.1v2.6c0,.1,0,.2-.2.2h-3.5c-.1,0-.2,0-.2-.2v-2.6c0-.1,0-.2.2-.2h3.5c.1,0,.2,0,.2.2Z" style="fill:#fff; stroke-width:0px;"/><path d="M522.1,239.1v2.6c0,.1,0,.2-.2.2h-3.5c-.1,0-.2,0-.2-.2v-2.6c0-.1,0-.2.2-.2h3.5c.1,0,.2,0,.2.2Z" style="fill:#fff; stroke-width:0px;"/><path d="M525.7,239.1v2.6c0,.1,0,.2-.2.2h-3.5c-.1,0-.2,0-.2-.2v-2.6c0-.1,0-.2.2-.2h3.5c.1,0,.2,0,.2.2Z" style="fill:#fff; stroke-width:0px;"/><path d="M529.2,239.1v2.6c0,.1,0,.2-.2.2h-3.5c-.1,0-.2,0-.2-.2v-2.6c0-.1,0-.2.2-.2h3.5c.1,0,.2,0,.2.2Z" style="fill:#fff; stroke-width:0px;"/><path d="M539.2,237.6c0,2.7-1.7,4.3-4.5,4.3h-5.7c-.1,0-.2,0-.2-.2v-2.6c0-.1,0-.2.2-.2h5.7c1,0,1.6-.5,1.6-1.3s-.6-1.3-1.6-1.3h-4.1l-1.5-2.6,5.2-6.4,2.5,1.4-4.8,5h2.5c2.8,0,4.6,1.5,4.6,3.9Z" style="fill:#fff; stroke-width:0px;"/><path d="M490.2,266.1c.6.5,1.4.8,2.5.8s.9,0,1.4-.2c.5-.1.9-.3,1.4-.5v1.2c-.3.2-.8.3-1.3.4s-1,.2-1.4.2c-1.5,0-2.7-.4-3.6-1.1-.8-.7-1.3-1.8-1.3-3.1s.4-2.4,1.3-3.2c.8-.7,2-1.1,3.6-1.1s.9,0,1.4.1c.5,0,1,.2,1.4.4v1.2c-.5-.2-1-.3-1.4-.5-.5-.1-1-.2-1.4-.2-1.1,0-1.9.3-2.5.8-.6.5-.9,1.3-.9,2.3s.3,1.8.9,2.3Z" style="fill:#ee304c; stroke-width:0px;"/><path d="M498.2,259.7v7.1h4.9v1.1h-6.2v-8.2h1.3Z" style="fill:#ee304c; stroke-width:0px;"/><path d="M506.8,259.7h2.6l3.3,8.2h-1.5l-.8-2h-4.8l-.8,2h-1.5l3.3-8.2ZM510.2,264.9l-2-5.1h0l-2,5.1h4Z" style="fill:#ee304c; stroke-width:0px;"/><path d="M518.2,260.8c-.5-.1-1.1-.2-1.6-.2s-1.2,0-1.5.3c-.3.2-.5.5-.5.8s0,.5.2.6c.2.2.4.3.7.4.3.1.7.2,1.3.4.8.2,1.4.4,1.9.6.5.2.9.5,1.1.8.2.3.4.7.4,1.2,0,.8-.3,1.4-1,1.8-.7.4-1.6.6-2.8.6s-2.5-.2-3.3-.6v-1.2c.5.2,1,.4,1.6.5.6.1,1.2.2,1.8.2s1.4-.1,1.8-.3c.4-.2.6-.5.6-.9s0-.5-.3-.6c-.2-.2-.4-.3-.8-.5-.3-.1-.8-.3-1.4-.4-.7-.2-1.3-.3-1.8-.5-.5-.2-.8-.4-1-.7-.2-.3-.4-.7-.4-1.1,0-.7.3-1.3.9-1.7s1.4-.6,2.5-.6,2.2.2,3.1.6v1.2c-.5-.2-1-.3-1.5-.4Z" style="fill:#ee304c; stroke-width:0px;"/><path d="M525.9,260.8c-.5-.1-1.1-.2-1.6-.2s-1.2,0-1.5.3c-.3.2-.5.5-.5.8s0,.5.2.6c.2.2.4.3.7.4.3.1.7.2,1.3.4.8.2,1.4.4,1.9.6.5.2.9.5,1.1.8.2.3.4.7.4,1.2,0,.8-.3,1.4-1,1.8-.7.4-1.6.6-2.8.6s-2.5-.2-3.3-.6v-1.2c.5.2,1,.4,1.6.5.6.1,1.2.2,1.8.2s1.4-.1,1.8-.3c.4-.2.6-.5.6-.9s0-.5-.3-.6c-.2-.2-.4-.3-.8-.5-.3-.1-.8-.3-1.4-.4-.7-.2-1.3-.3-1.8-.5-.5-.2-.8-.4-1-.7-.2-.3-.4-.7-.4-1.1,0-.7.3-1.3.9-1.7s1.4-.6,2.5-.6,2.2.2,3.1.6v1.2c-.5-.2-1-.3-1.5-.4Z" style="fill:#ee304c; stroke-width:0px;"/><path d="M530.4,259.7v8.2h-1.3v-8.2h1.3Z" style="fill:#ee304c; stroke-width:0px;"/><path d="M533.9,266.1c.6.5,1.4.8,2.5.8s.9,0,1.4-.2c.5-.1.9-.3,1.4-.5v1.2c-.3.2-.8.3-1.3.4s-1,.2-1.4.2c-1.5,0-2.7-.4-3.6-1.1-.8-.7-1.3-1.8-1.3-3.1s.4-2.4,1.3-3.2c.8-.7,2-1.1,3.6-1.1s.9,0,1.4.1c.5,0,1,.2,1.4.4v1.2c-.5-.2-1-.3-1.4-.5-.5-.1-1-.2-1.4-.2-1.1,0-1.9.3-2.5.8-.6.5-.9,1.3-.9,2.3s.3,1.8.9,2.3Z" style="fill:#ee304c; stroke-width:0px;"/><path d="M451.9,317.1v2.6c0,.1,0,.2-.2.2-1.2,0-2-.2-2.7-.7-1.1.6-2.1.8-3.1.8-2.6,0-4.4-2-4.4-4.6s1.8-4.8,4.4-4.8,1.2.1,1.8.3v-1l2.8-.3v6.1c0,.8.4,1.1,1,1.1s.2,0,.2.2ZM444.7,309.4l-1.9-1.9,1.9-1.9,1.4,1.4,1.4-1.4,1.9,1.9-1.9,1.9-1.5-1.4-1.4,1.4ZM447.9,316.9c0-.2,0-.5,0-.8v-2.4c-.6-.2-1.2-.3-1.7-.3-1.2,0-1.9.8-1.9,1.9s.7,1.8,1.8,1.8c.7,0,1.3,0,1.9-.3Z" style="fill:#fff; stroke-width:0px;"/><path d="M455.5,317.1v2.6c0,.1,0,.2-.2.2h-3.5c-.1,0-.2,0-.2-.2v-2.6c0-.1,0-.2.2-.2h3.5c.1,0,.2,0,.2.2Z" style="fill:#fff; stroke-width:0px;"/><path d="M459,317.1v2.6c0,.1,0,.2-.2.2h-3.5c-.1,0-.2,0-.2-.2v-2.6c0-.1,0-.2.2-.2h3.5c.1,0,.2,0,.2.2Z" style="fill:#fff; stroke-width:0px;"/><path d="M462.6,317.1v2.6c0,.1,0,.2-.2.2h-3.5c-.1,0-.2,0-.2-.2v-2.6c0-.1,0-.2.2-.2h3.5c.1,0,.2,0,.2.2Z" style="fill:#fff; stroke-width:0px;"/><path d="M466.1,317.1v2.6c0,.1,0,.2-.2.2h-3.5c-.1,0-.2,0-.2-.2v-2.6c0-.1,0-.2.2-.2h3.5c.1,0,.2,0,.2.2Z" style="fill:#fff; stroke-width:0px;"/><path d="M469.7,317.1v2.6c0,.1,0,.2-.2.2h-3.5c-.1,0-.2,0-.2-.2v-2.6c0-.1,0-.2.2-.2h3.5c.1,0,.2,0,.2.2Z" style="fill:#fff; stroke-width:0px;"/><path d="M473.2,317.1v2.6c0,.1,0,.2-.2.2h-3.5c-.1,0-.2,0-.2-.2v-2.6c0-.1,0-.2.2-.2h3.5c.1,0,.2,0,.2.2Z" style="fill:#fff; stroke-width:0px;"/><path d="M476.7,317.1v2.6c0,.1,0,.2-.2.2h-3.5c-.1,0-.2,0-.2-.2v-2.6c0-.1,0-.2.2-.2h3.5c.1,0,.2,0,.2.2Z" style="fill:#fff; stroke-width:0px;"/><path d="M476.4,319.7v-2.6c0-.1,0-.2.2-.2,1,0,1.5-.6,1.5-1.9v-8.1s2.9-.3,2.9-.3v9.5c0,2.6-1.5,3.9-4.4,3.9s-.2,0-.2-.2Z" style="fill:#fff; stroke-width:0px;"/><path d="M491.7,315.2v4.3c0,3.2-3.1,4.3-7.5,4.3l-.3-2.3c3.4,0,4.9-.5,5-2-.6.2-1.1.4-1.7.4-2.5,0-4.2-1.8-4.2-4.5s2-4.7,4.5-4.7,4.3,1.7,4.3,4.6ZM487.4,317c.4,0,.9,0,1.4-.2v-1.5c0-1.2-.7-1.9-1.7-1.9s-1.7.7-1.7,1.7.8,1.8,1.9,1.8Z" style="fill:#fff; stroke-width:0px;"/><path d="M493.8,306.9l2.8-.3v13.3h-2.8v-13Z" style="fill:#fff; stroke-width:0px;"/><path d="M505.1,317.1v2.6c0,.1,0,.2-.2.2-.8,0-1.4-.3-1.9-.7v.3c0,3.2-1.7,4.3-5.2,4.3l-.2-2.3c1.5,0,2.6-.6,2.6-2.2v-8.4s2.8-.3,2.8-.3v4.9c.1.9.9,1.3,1.9,1.3s.2,0,.2.2Z" style="fill:#fff; stroke-width:0px;"/><path d="M508.6,317.1v2.6c0,.1,0,.2-.2.2h-3.5c-.1,0-.2,0-.2-.2v-2.6c0-.1,0-.2.2-.2h3.5c.1,0,.2,0,.2.2Z" style="fill:#fff; stroke-width:0px;"/><path d="M512.1,317.1v2.6c0,.1,0,.2-.2.2h-3.5c-.1,0-.2,0-.2-.2v-2.6c0-.1,0-.2.2-.2h3.5c.1,0,.2,0,.2.2Z" style="fill:#fff; stroke-width:0px;"/><path d="M515.7,317.1v2.6c0,.1,0,.2-.2.2h-3.5c-.1,0-.2,0-.2-.2v-2.6c0-.1,0-.2.2-.2h3.5c.1,0,.2,0,.2.2Z" style="fill:#fff; stroke-width:0px;"/><path d="M519.2,317.1v2.6c0,.1,0,.2-.2.2h-3.5c-.1,0-.2,0-.2-.2v-2.6c0-.1,0-.2.2-.2h3.5c.1,0,.2,0,.2.2Z" style="fill:#fff; stroke-width:0px;"/><path d="M522.8,317.1v2.6c0,.1,0,.2-.2.2h-3.5c-.1,0-.2,0-.2-.2v-2.6c0-.1,0-.2.2-.2h3.5c.1,0,.2,0,.2.2Z" style="fill:#fff; stroke-width:0px;"/><path d="M526.3,317.1v2.6c0,.1,0,.2-.2.2h-3.5c-.1,0-.2,0-.2-.2v-2.6c0-.1,0-.2.2-.2h3.5c.1,0,.2,0,.2.2Z" style="fill:#fff; stroke-width:0px;"/><path d="M529.9,317.1v2.6c0,.1,0,.2-.2.2h-3.5c-.1,0-.2,0-.2-.2v-2.6c0-.1,0-.2.2-.2h3.5c.1,0,.2,0,.2.2Z" style="fill:#fff; stroke-width:0px;"/><path d="M539.1,314.9c0,3-2,5-5.2,5h-4.2c-.1,0-.2,0-.2-.2v-2.6c0-.1,0-.2.2-.2h1.1c-.3-.7-.5-1.4-.5-2.1,0-2.5,1.9-4.3,4.3-4.3s4.5,1.9,4.5,4.4ZM534.5,309.3l-1.9-1.9,1.9-1.9,1.9,1.9-1.9,1.9ZM536.3,314.9c0-1-.7-1.7-1.7-1.7s-1.8.8-1.8,1.8.2,1.2.5,1.9h.6c1.5,0,2.4-.8,2.4-2Z" style="fill:#fff; stroke-width:0px;"/><path d="M455.8,338.9c-.5-.1-1.1-.2-1.7-.2s-1.2,0-1.5.3c-.3.2-.5.5-.5.9s0,.5.2.6c.2.2.4.3.7.4.3.1.8.2,1.3.4.8.2,1.5.4,2,.6.5.2.9.5,1.1.8.3.3.4.7.4,1.2,0,.8-.3,1.4-1,1.8s-1.6.6-2.9.6-2.5-.2-3.4-.6v-1.2c.5.2,1,.4,1.6.5.6.1,1.2.2,1.8.2s1.4-.1,1.8-.3c.4-.2.6-.5.6-1s0-.5-.3-.7c-.2-.2-.4-.3-.8-.5-.3-.1-.8-.3-1.4-.4-.8-.2-1.4-.3-1.9-.5-.5-.2-.8-.5-1.1-.8s-.4-.7-.4-1.2c0-.7.3-1.3.9-1.7s1.5-.6,2.6-.6,2.3.2,3.2.6v1.2c-.5-.2-1-.3-1.5-.4Z" style="fill:#ee304c; stroke-width:0px;"/><path d="M461.2,338.8h-3v-1.1h7.4v1.1h-3v7.3h-1.4v-7.3Z" style="fill:#ee304c; stroke-width:0px;"/><path d="M466.6,337.7h3.7c1.1,0,2,.2,2.6.7.6.4.9,1.1.9,1.9s-.3,1.3-.8,1.8c-.5.4-1.3.7-2.2.8l3.2,3.3h-1.6l-4.1-4.3h2c.7,0,1.2-.1,1.5-.4.3-.3.5-.7.5-1.2s-.2-.9-.5-1.2c-.3-.3-.9-.4-1.5-.4h-2.3v7.4h-1.4v-8.4Z" style="fill:#ee304c; stroke-width:0px;"/><path d="M477.5,337.7h2.7l3.4,8.4h-1.5l-.8-2h-4.9l-.8,2h-1.5l3.4-8.4ZM480.9,343.1l-2-5.2h0l-2,5.2h4.1Z" style="fill:#ee304c; stroke-width:0px;"/><path d="M482.7,337.7h1.5l2.4,8.3h0l2.3-8.3h2.3l2.3,8.3h0l2.4-8.3h1.5l-2.6,8.4h-2.5l-2.3-8.2h0l-2.3,8.2h-2.5l-2.6-8.4Z" style="fill:#ee304c; stroke-width:0px;"/><path d="M498.2,337.7h3.7c1,0,1.8.2,2.4.5.6.4.8.9.8,1.5s-.2,1-.7,1.3c-.5.3-1.1.5-2,.6h0c1,0,1.8.2,2.4.6.6.4.8.9.8,1.6s-.3,1.3-.9,1.7c-.6.4-1.4.6-2.5.6h-4v-8.4ZM501.5,341.6c1.5,0,2.3-.5,2.3-1.4s-.2-.8-.5-1c-.4-.2-.9-.4-1.6-.4h-2v2.8h1.8ZM502,345c.7,0,1.3-.1,1.7-.4.4-.2.6-.6.6-1.1s-.2-.8-.6-1.1-.9-.4-1.7-.4h-2.4v2.9h2.3Z" style="fill:#ee304c; stroke-width:0px;"/><path d="M513.6,337.7v1.1h-5.3v2.6h4.3v1h-4.3v2.7h5.5v1.1h-6.8v-8.4h6.7Z" style="fill:#ee304c; stroke-width:0px;"/><path d="M514.8,337.7h3.7c1.1,0,2,.2,2.6.7.6.4.9,1.1.9,1.9s-.3,1.3-.8,1.8c-.5.4-1.3.7-2.2.8l3.2,3.3h-1.6l-4.1-4.3h2c.7,0,1.2-.1,1.5-.4.3-.3.5-.7.5-1.2s-.2-.9-.5-1.2c-.3-.3-.9-.4-1.5-.4h-2.3v7.4h-1.4v-8.4Z" style="fill:#ee304c; stroke-width:0px;"/><path d="M523.2,337.7h3.7c1.1,0,2,.2,2.6.7.6.4.9,1.1.9,1.9s-.3,1.3-.8,1.8c-.5.4-1.3.7-2.2.8l3.2,3.3h-1.6l-4.1-4.3h2c.7,0,1.2-.1,1.5-.4.3-.3.5-.7.5-1.2s-.2-.9-.5-1.2c-.3-.3-.9-.4-1.5-.4h-2.3v7.4h-1.4v-8.4Z" style="fill:#ee304c; stroke-width:0px;"/><path d="M535.1,343.3h-1.3l-3.1-5.6h1.5l2.9,5.4h0l3-5.4h1.5l-4.8,8.4h-1.4l1.6-2.9Z" style="fill:#ee304c; stroke-width:0px;"/><path d="M451.4,396v2.6c0,.1,0,.2-.2.2h-.9c-.3,2.8-3.2,3.9-7.5,3.9l-.3-2.3c3.1,0,4.6-.4,4.9-1.6h-1.5c-2.6,0-4.3-1.8-4.3-4.5s2-4.7,4.5-4.7,4.3,1.7,4.3,4.6v1.7h.9c.1,0,.2,0,.2.2ZM446.1,395.9c.4,0,.9,0,1.4,0v-1.6c0-1.2-.7-1.9-1.7-1.9s-1.7.7-1.7,1.7.9,1.8,2,1.8Z" style="fill:#fff; stroke-width:0px;"/><path d="M454.9,396v2.6c0,.1,0,.2-.2.2h-3.5c-.1,0-.2,0-.2-.2v-2.6c0-.1,0-.2.2-.2h3.5c.1,0,.2,0,.2.2Z" style="fill:#fff; stroke-width:0px;"/><path d="M458.4,396v2.6c0,.1,0,.2-.2.2h-3.5c-.1,0-.2,0-.2-.2v-2.6c0-.1,0-.2.2-.2h3.5c.1,0,.2,0,.2.2Z" style="fill:#fff; stroke-width:0px;"/><path d="M462,396v2.6c0,.1,0,.2-.2.2h-3.5c-.1,0-.2,0-.2-.2v-2.6c0-.1,0-.2.2-.2h3.5c.1,0,.2,0,.2.2Z" style="fill:#fff; stroke-width:0px;"/><path d="M465.5,396v2.6c0,.1,0,.2-.2.2h-3.5c-.1,0-.2,0-.2-.2v-2.6c0-.1,0-.2.2-.2h3.5c.1,0,.2,0,.2.2Z" style="fill:#fff; stroke-width:0px;"/><path d="M469.1,396v2.6c0,.1,0,.2-.2.2h-3.5c-.1,0-.2,0-.2-.2v-2.6c0-.1,0-.2.2-.2h3.5c.1,0,.2,0,.2.2Z" style="fill:#fff; stroke-width:0px;"/><path d="M484.7,389.5v5.4c0,2.5-1.3,3.8-3.8,3.8s-2-.3-3-1c-.7.6-1.7,1-2.9,1s-1.8-.3-2.7-1.1c-.7.7-1.8,1.1-3.3,1.1s-.2,0-.2-.2v-2.6c0-.1,0-.2.2-.2,1,0,1.5-.6,1.5-1.9v-2.2s2.8-.3,2.8-.3v3.6c0,.2,0,.4,0,.5.5.2.9.3,1.4.3,1,0,1.5-.6,1.5-1.9v-2.2s2.8-.3,2.8-.3v3.6c0,.2,0,.4,0,.6.5.1.9.2,1.4.2,1,0,1.5-.6,1.5-1.9v-4.1l2.8-.3Z" style="fill:#fff; stroke-width:0px;"/><path d="M494.9,394.1v4.3c0,3.2-3.1,4.3-7.5,4.3l-.3-2.3c3.4,0,4.9-.5,5-2-.6.2-1.1.4-1.7.4-2.5,0-4.2-1.8-4.2-4.5s2-4.7,4.5-4.7,4.3,1.7,4.3,4.6ZM490.7,395.9c.4,0,.9,0,1.4-.2v-1.5c0-1.2-.7-1.9-1.7-1.9s-1.7.7-1.7,1.7.8,1.8,1.9,1.8Z" style="fill:#fff; stroke-width:0px;"/><path d="M503,396v2.6c0,.1,0,.2-.2.2-.8,0-1.4-.3-1.9-.7v.3c0,3.2-1.7,4.3-5.2,4.3l-.2-2.3c1.5,0,2.6-.6,2.6-2.2v-8.4s2.8-.3,2.8-.3v4.9c.1.9.9,1.3,1.9,1.3s.2,0,.2.2Z" style="fill:#fff; stroke-width:0px;"/><path d="M513,394.5c0,2.7-1.7,4.3-4.5,4.3h-5.7c-.1,0-.2,0-.2-.2v-2.6c0-.1,0-.2.2-.2h5.7c1,0,1.6-.5,1.6-1.3s-.6-1.3-1.6-1.3h-4.1l-1.5-2.6,5.2-6.4,2.5,1.4-4.8,5h2.5c2.8,0,4.6,1.5,4.6,3.9Z" style="fill:#fff; stroke-width:0px;"/><path d="M527.7,396v2.6c0,.1,0,.2-.2.2h-.9c-.3,2.8-3.2,3.9-7.5,3.9l-.3-2.3c3.1,0,4.6-.4,4.9-1.6h-1.5c-2.6,0-4.3-1.8-4.3-4.5s2-4.7,4.5-4.7,4.3,1.7,4.3,4.6v1.7h.9c.1,0,.2,0,.2.2ZM522.5,395.9c.4,0,.9,0,1.4,0v-1.6c0-1.2-.7-1.9-1.7-1.9s-1.7.7-1.7,1.7.9,1.8,2,1.8Z" style="fill:#fff; stroke-width:0px;"/><path d="M531.3,396v2.6c0,.1,0,.2-.2.2h-3.5c-.1,0-.2,0-.2-.2v-2.6c0-.1,0-.2.2-.2h3.5c.1,0,.2,0,.2.2Z" style="fill:#fff; stroke-width:0px;"/><path d="M537.3,398.6c0,.1,0,.2-.2.2-1.6,0-2.8-.4-3.5-1.2-.8.8-1.6,1.2-2.5,1.2s-.2,0-.2-.2v-2.6c0-.1,0-.2.2-.2.7,0,1.2-.2,1.6-.5,0-.1,0-.3,0-.4v-9.1s2.8-.3,2.8-.3v8.4c0,1.3.5,1.9,1.5,1.9s.2,0,.2.2v2.6Z" style="fill:#fff; stroke-width:0px;"/><path d="M537,398.6v-2.6c0-.1.1-.2.2-.2,1,0,1.5-.6,1.5-1.9v-4s2.8-.3,2.8-.3v5.4c0,2.5-1.4,3.8-4.4,3.8s-.2,0-.2-.2ZM537.4,401.6l1.9-1.9,1.9,1.9-1.9,1.9-1.9-1.9Z" style="fill:#fff; stroke-width:0px;"/><path d="M455.6,415.9h3.2c.9,0,1.6.1,2.1.5.5.3.7.8.7,1.3s-.2.9-.6,1.1c-.4.3-1,.5-1.8.5h0c.9,0,1.6.2,2,.5.5.3.7.8.7,1.4s-.3,1.1-.8,1.5c-.5.3-1.3.5-2.2.5h-3.5v-7.3ZM458.4,419.3c1.3,0,2-.4,2-1.2s-.2-.7-.5-.9c-.3-.2-.8-.3-1.4-.3h-1.7v2.4h1.6ZM458.8,422.3c.7,0,1.1-.1,1.5-.3.3-.2.5-.5.5-.9s-.2-.7-.5-1c-.3-.2-.8-.3-1.4-.3h-2.1v2.5h2Z" style="fill:#ee304c; stroke-width:0px;"/><path d="M464.4,415.9v6.4h4.4v1h-5.6v-7.3h1.2Z" style="fill:#ee304c; stroke-width:0px;"/><path d="M475.6,422.6c-.6.5-1.5.8-2.7.8s-2.1-.3-2.7-.8-.9-1.3-.9-2.4v-4.3h1.2v4.3c0,.7.2,1.3.6,1.7.4.4,1,.6,1.8.6s1.4-.2,1.8-.6c.4-.4.6-.9.6-1.7v-4.3h1.2v4.3c0,1-.3,1.8-.9,2.4Z" style="fill:#ee304c; stroke-width:0px;"/><path d="M483.5,415.9v1h-4.6v2.2h3.8v.8h-3.8v2.3h4.7v1h-6v-7.3h5.8Z" style="fill:#ee304c; stroke-width:0px;"/><path d="M488.5,421.7c.5.5,1.3.7,2.2.7s.8,0,1.3-.1c.4,0,.8-.2,1.2-.4v1.1c-.3.2-.7.3-1.2.4-.4,0-.9.1-1.3.1-1.4,0-2.4-.3-3.2-1-.8-.7-1.1-1.6-1.1-2.8s.4-2.2,1.1-2.8c.8-.7,1.8-1,3.2-1s.8,0,1.3.1c.4,0,.9.2,1.2.4v1.1c-.4-.2-.9-.3-1.3-.4-.4,0-.9-.1-1.3-.1-1,0-1.7.2-2.2.7s-.8,1.2-.8,2.1.3,1.6.8,2.1Z" style="fill:#ee304c; stroke-width:0px;"/><path d="M500.4,422.6c-.6.5-1.5.8-2.7.8s-2.1-.3-2.7-.8-.9-1.3-.9-2.4v-4.3h1.2v4.3c0,.7.2,1.3.6,1.7.4.4,1,.6,1.8.6s1.4-.2,1.8-.6c.4-.4.6-.9.6-1.7v-4.3h1.2v4.3c0,1-.3,1.8-.9,2.4Z" style="fill:#ee304c; stroke-width:0px;"/><path d="M502.6,415.9h3.2c1,0,1.7.2,2.2.6.5.4.8.9.8,1.6s-.2,1.2-.7,1.5c-.5.4-1.1.6-1.9.7l2.8,2.9h-1.4l-3.5-3.7h1.7c.6,0,1-.1,1.3-.4.3-.2.5-.6.5-1s-.2-.8-.5-1c-.3-.2-.7-.4-1.3-.4h-2v6.4h-1.2v-7.3Z" style="fill:#ee304c; stroke-width:0px;"/><path d="M512.1,415.9h2.3l3,7.3h-1.3l-.7-1.8h-4.3l-.7,1.8h-1.3l3-7.3ZM515,420.6l-1.8-4.6h0l-1.8,4.6h3.6Z" style="fill:#ee304c; stroke-width:0px;"/><path d="M519.4,421.7c.5.5,1.3.7,2.2.7s.8,0,1.3-.1c.4,0,.8-.2,1.2-.4v1.1c-.3.2-.7.3-1.2.4-.4,0-.9.1-1.3.1-1.4,0-2.4-.3-3.2-1-.8-.7-1.1-1.6-1.1-2.8s.4-2.2,1.1-2.8c.8-.7,1.8-1,3.2-1s.8,0,1.3.1c.4,0,.9.2,1.2.4v1.1c-.4-.2-.9-.3-1.3-.4-.4,0-.9-.1-1.3-.1-1,0-1.7.2-2.2.7s-.8,1.2-.8,2.1.3,1.6.8,2.1Z" style="fill:#ee304c; stroke-width:0px;"/><path d="M527.5,415.9h2.3l3,7.3h-1.3l-.7-1.8h-4.3l-.7,1.8h-1.3l3-7.3ZM530.4,420.6l-1.8-4.6h0l-1.8,4.6h3.6Z" style="fill:#ee304c; stroke-width:0px;"/><path d="M534.6,423c-.6-.3-1.1-.7-1.4-1.3-.3-.6-.5-1.2-.5-2s.2-1.5.5-2.1.8-1,1.4-1.3,1.3-.5,2.2-.5,1.6.2,2.2.5,1.1.7,1.4,1.3.5,1.3.5,2.1-.2,1.5-.5,2c-.3.6-.8,1-1.4,1.3s-1.3.4-2.2.4-1.6-.1-2.2-.4ZM534.7,421.7c.5.5,1.2.7,2.1.7s1.6-.2,2.1-.7c.5-.5.7-1.2.7-2s-.2-1.6-.7-2.1c-.5-.5-1.2-.7-2.1-.7s-1.6.2-2.1.7c-.5.5-.7,1.2-.7,2.1s.2,1.6.7,2Z" style="fill:#ee304c; stroke-width:0px;"/><path d="M454.2,470.5v2.6c0,.1,0,.2-.2.2h-.9c-.3,2.8-3.2,3.9-7.5,3.9l-.3-2.3c3.1,0,4.6-.4,4.9-1.6h-1.5c-2.6,0-4.3-1.8-4.3-4.5s2-4.7,4.5-4.7,4.3,1.7,4.3,4.6v1.7h.9c.1,0,.2,0,.2.2ZM448.9,470.5c.4,0,.9,0,1.4,0v-1.6c0-1.2-.7-1.9-1.7-1.9s-1.7.7-1.7,1.7.9,1.8,2,1.8Z" style="fill:#fff; stroke-width:0px;"/><path d="M457.7,470.5v2.6c0,.1,0,.2-.2.2h-3.5c-.1,0-.2,0-.2-.2v-2.6c0-.1,0-.2.2-.2h3.5c.1,0,.2,0,.2.2Z" style="fill:#fff; stroke-width:0px;"/><path d="M461.3,470.5v2.6c0,.1,0,.2-.2.2h-3.5c-.1,0-.2,0-.2-.2v-2.6c0-.1,0-.2.2-.2h3.5c.1,0,.2,0,.2.2Z" style="fill:#fff; stroke-width:0px;"/><path d="M464.8,470.5v2.6c0,.1,0,.2-.2.2h-3.5c-.1,0-.2,0-.2-.2v-2.6c0-.1,0-.2.2-.2h3.5c.1,0,.2,0,.2.2Z" style="fill:#fff; stroke-width:0px;"/><path d="M468.3,470.5v2.6c0,.1,0,.2-.2.2h-3.5c-.1,0-.2,0-.2-.2v-2.6c0-.1,0-.2.2-.2h3.5c.1,0,.2,0,.2.2Z" style="fill:#fff; stroke-width:0px;"/><path d="M471.9,470.5v2.6c0,.1,0,.2-.2.2h-3.5c-.1,0-.2,0-.2-.2v-2.6c0-.1,0-.2.2-.2h3.5c.1,0,.2,0,.2.2Z" style="fill:#fff; stroke-width:0px;"/><path d="M475.4,470.5v2.6c0,.1,0,.2-.2.2h-3.5c-.1,0-.2,0-.2-.2v-2.6c0-.1,0-.2.2-.2h3.5c.1,0,.2,0,.2.2Z" style="fill:#fff; stroke-width:0px;"/><path d="M479,470.5v2.6c0,.1,0,.2-.2.2h-3.5c-.1,0-.2,0-.2-.2v-2.6c0-.1,0-.2.2-.2h3.5c.1,0,.2,0,.2.2Z" style="fill:#fff; stroke-width:0px;"/><path d="M482.5,470.5v2.6c0,.1,0,.2-.2.2h-3.5c-.1,0-.2,0-.2-.2v-2.6c0-.1,0-.2.2-.2h3.5c.1,0,.2,0,.2.2Z" style="fill:#fff; stroke-width:0px;"/><path d="M494.1,470.5v2.6c0,.1,0,.2-.2.2h-.3c-1.4,0-2.4-.7-2.9-1.9-2.8,1.4-5.1,1.9-8.3,1.9s-.2,0-.2-.2v-2.6c0-.1,0-.2.2-.2,3.5,0,5.4-.3,7.5-1.2-2.4-1.7-3.4-2.2-4.6-2.2s-1,.1-1.8.3l-.5-2.5c1-.4,1.8-.6,2.6-.6,1.6,0,3,.7,7.2,3.6l-.5,2.4c.3.1.7.2,1.2.2h.3c.1,0,.2,0,.2.2ZM488.4,474l1.9,1.9-1.9,1.9-1.9-1.9,1.9-1.9Z" style="fill:#fff; stroke-width:0px;"/><path d="M493.7,473.1v-2.6c0-.1.1-.2.2-.2,1,0,1.5-.6,1.5-1.9v-4s2.8-.3,2.8-.3v5.4c0,2.5-1.4,3.8-4.4,3.8s-.2,0-.2-.2ZM494.9,460.9l1.9-1.9,1.9,1.9-1.9,1.9-1.9-1.9Z" style="fill:#fff; stroke-width:0px;"/><path d="M500.5,469.5v-9.1s2.8-.3,2.8-.3v8.4c0,1.3.5,1.9,1.5,1.9s.2,0,.2.2v2.6c0,.1,0,.2-.2.2-2.9,0-4.4-1.3-4.4-3.9Z" style="fill:#fff; stroke-width:0px;"/><path d="M508.6,470.5v2.6c0,.1,0,.2-.2.2h-3.5c-.1,0-.2,0-.2-.2v-2.6c0-.1,0-.2.2-.2h3.5c.1,0,.2,0,.2.2Z" style="fill:#fff; stroke-width:0px;"/><path d="M512.2,470.5v2.6c0,.1,0,.2-.2.2h-3.5c-.1,0-.2,0-.2-.2v-2.6c0-.1,0-.2.2-.2h3.5c.1,0,.2,0,.2.2Z" style="fill:#fff; stroke-width:0px;"/><path d="M515.7,470.5v2.6c0,.1,0,.2-.2.2h-3.5c-.1,0-.2,0-.2-.2v-2.6c0-.1,0-.2.2-.2h3.5c.1,0,.2,0,.2.2Z" style="fill:#fff; stroke-width:0px;"/><path d="M519.2,470.5v2.6c0,.1,0,.2-.2.2h-3.5c-.1,0-.2,0-.2-.2v-2.6c0-.1,0-.2.2-.2h3.5c.1,0,.2,0,.2.2Z" style="fill:#fff; stroke-width:0px;"/><path d="M522.8,470.5v2.6c0,.1,0,.2-.2.2h-3.5c-.1,0-.2,0-.2-.2v-2.6c0-.1,0-.2.2-.2h3.5c.1,0,.2,0,.2.2Z" style="fill:#fff; stroke-width:0px;"/><path d="M526.3,470.5v2.6c0,.1,0,.2-.2.2h-3.5c-.1,0-.2,0-.2-.2v-2.6c0-.1,0-.2.2-.2h3.5c.1,0,.2,0,.2.2Z" style="fill:#fff; stroke-width:0px;"/><path d="M529.9,470.5v2.6c0,.1,0,.2-.2.2h-3.5c-.1,0-.2,0-.2-.2v-2.6c0-.1,0-.2.2-.2h3.5c.1,0,.2,0,.2.2Z" style="fill:#fff; stroke-width:0px;"/><path d="M539.1,468.4c0,3-2,5-5.2,5h-4.2c-.1,0-.2,0-.2-.2v-2.6c0-.1,0-.2.2-.2h1.1c-.3-.7-.5-1.4-.5-2.1,0-2.5,1.9-4.3,4.3-4.3s4.5,1.9,4.5,4.4ZM536.3,468.3c0-1-.7-1.7-1.7-1.7s-1.8.8-1.8,1.8.2,1.2.5,1.9h.6c1.5,0,2.4-.8,2.4-2Z" style="fill:#fff; stroke-width:0px;"/><path d="M488.8,493.5h0v8.3h-1.4v-8.7h2.6l2.9,8.6h0l2.9-8.6h2.6v8.7h-1.4v-8.3h0l-2.9,8.3h-2.4l-2.9-8.3Z" style="fill:#ee304c; stroke-width:0px;"/><path d="M502.8,493.2h2.7l3.6,8.7h-1.6l-.8-2.1h-5.1l-.8,2.1h-1.6l3.5-8.7ZM506.3,498.7l-2.1-5.4h0l-2.1,5.4h4.3Z" style="fill:#ee304c; stroke-width:0px;"/><path d="M512.8,493.2l4.5,8.5h0v-8.5h1.4v8.7h-2.8l-4.5-8.6h0v8.6h-1.4v-8.7h2.8Z" style="fill:#ee304c; stroke-width:0px;"/><path d="M522.3,500c.5.6,1.2.9,2,.9s1.4-.2,1.9-.7c.5-.4.7-1.1.8-1.9h-2.4v-1h3.9v4.6h-.9l-.5-3.5h0c0,1.2-.3,2.1-.9,2.7-.6.6-1.4,1-2.4,1s-1.4-.2-2-.5-1-.9-1.3-1.5c-.3-.7-.5-1.5-.5-2.4,0-1.5.4-2.6,1.3-3.4.9-.8,2.1-1.2,3.8-1.2s1.1,0,1.6.2c.5.1,1,.3,1.5.4v1.3c-.5-.2-1-.4-1.5-.5-.5-.1-1.1-.2-1.6-.2-1.1,0-2,.3-2.6.9-.6.6-.9,1.4-.9,2.5s.2,1.8.7,2.4Z" style="fill:#ee304c; stroke-width:0px;"/><path d="M531.8,501.5c-.7-.4-1.3-.9-1.7-1.5-.4-.7-.6-1.5-.6-2.4s.2-1.8.6-2.5c.4-.7.9-1.2,1.7-1.6.7-.4,1.6-.5,2.6-.5s1.9.2,2.6.5,1.3.9,1.7,1.6c.4.7.6,1.5.6,2.5s-.2,1.8-.6,2.4c-.4.7-.9,1.2-1.7,1.5s-1.6.5-2.6.5-1.9-.2-2.6-.5ZM532,500c.6.6,1.4.9,2.5.9s1.9-.3,2.5-.9.9-1.4.9-2.4-.3-1.9-.9-2.5c-.6-.6-1.4-.9-2.5-.9s-1.9.3-2.5.9c-.6.6-.9,1.4-.9,2.5s.3,1.8.9,2.4Z" style="fill:#ee304c; stroke-width:0px;"/><path d="M47.3,245c-.7,0-1.4-.1-2-.4s-1.1-.7-1.4-1.2c-.4-.6-.6-1.3-.6-2.2h1.9c0,.5.1.9.3,1.2s.5.5.8.7.6.2,1,.2.7,0,1-.2.5-.4.7-.7c.2-.3.3-.6.3-1s0-.7-.3-.9-.4-.5-.8-.7c-.3-.2-.7-.2-1.2-.2h-1.4v-1l2.2-2.8h0s-4.1,0-4.1,0v-1.6h6.4v1l-2.5,2.9h0c.7.1,1.3.3,1.8.5s.9.6,1.2,1.1c.3.5.4,1,.4,1.8s-.2,1.3-.5,1.8c-.3.5-.8,1-1.4,1.3s-1.3.5-2,.5Z" style="fill:#fff; stroke-width:0px;"/><path d="M53.1,243h1.8l-1.4,3.2h-1.4l.9-3.2Z" style="fill:#fff; stroke-width:0px;"/><path d="M60.2,245c-.7,0-1.3-.1-1.8-.4s-1.1-.6-1.5-1.2-.6-1.2-.7-2.1h1.9c0,.4.2.8.4,1s.5.5.8.6.6.2.9.2.7,0,1-.3.5-.4.7-.7c.2-.3.2-.6.2-1s0-.7-.3-1c-.2-.3-.5-.5-.8-.6-.3-.1-.8-.2-1.2-.2h-2.1s-.8-.7-.8-.7l.6-4.7h5.9v1.6h-4.2l-.3,2.4h1.5c.8,0,1.4.1,2,.4.6.3,1,.6,1.3,1.1.3.5.5,1,.5,1.7s-.2,1.3-.5,1.8c-.3.6-.8,1-1.4,1.4s-1.3.5-2.1.5Z" style="fill:#fff; stroke-width:0px;"/><path d="M69.8,245c-1,0-1.8-.2-2.5-.7s-1.2-1.2-1.5-2c-.3-.8-.5-1.8-.5-2.8s.2-2,.5-2.8c.4-.8.9-1.5,1.6-2,.7-.5,1.5-.7,2.4-.7s1.9.3,2.6.8c.7.5,1.2,1.2,1.5,2,.3.8.5,1.8.5,2.8s-.2,2-.5,2.8c-.3.8-.9,1.5-1.5,2-.7.5-1.5.7-2.5.7ZM69.8,243.2c.5,0,1-.2,1.4-.5.4-.3.7-.8.9-1.3s.3-1.2.3-2-.1-1.4-.3-1.9-.5-1-.9-1.3c-.4-.3-.9-.5-1.4-.5s-1,.2-1.4.5c-.4.3-.7.8-.9,1.3-.2.6-.3,1.2-.3,2s.1,1.4.3,1.9c.2.6.5,1,.9,1.3.4.3.9.5,1.4.5Z" style="fill:#fff; stroke-width:0px;"/><path d="M79.9,245c-1,0-1.8-.2-2.5-.7s-1.2-1.2-1.5-2c-.3-.8-.5-1.8-.5-2.8s.2-2,.5-2.8c.4-.8.9-1.5,1.6-2,.7-.5,1.5-.7,2.4-.7s1.9.3,2.6.8c.7.5,1.2,1.2,1.5,2,.3.8.5,1.8.5,2.8s-.2,2-.5,2.8c-.3.8-.9,1.5-1.5,2-.7.5-1.5.7-2.5.7ZM79.9,243.2c.5,0,1-.2,1.4-.5.4-.3.7-.8.9-1.3s.3-1.2.3-2-.1-1.4-.3-1.9-.5-1-.9-1.3c-.4-.3-.9-.5-1.4-.5s-1,.2-1.4.5c-.4.3-.7.8-.9,1.3-.2.6-.3,1.2-.3,2s.1,1.4.3,1.9c.2.6.5,1,.9,1.3.4.3.9.5,1.4.5Z" style="fill:#fff; stroke-width:0px;"/><path d="M90.2,234.2h1.9v10.6h-1.9v-10.6Z" style="fill:#fff; stroke-width:0px;"/><path d="M99.6,245c-1,0-2-.2-2.9-.7-.9-.5-1.6-1.2-2.1-2s-.8-1.8-.8-2.8.3-1.9.8-2.8c.5-.8,1.2-1.5,2.1-2,.9-.5,1.8-.7,2.9-.7s2,.2,2.9.7c.9.5,1.6,1.2,2.1,2,.5.8.8,1.8.8,2.8s-.3,1.9-.8,2.8-1.2,1.5-2.1,2c-.9.5-1.8.7-2.9.7ZM99.6,243.2c.7,0,1.3-.2,1.9-.5.6-.3,1-.8,1.4-1.3.3-.6.5-1.2.5-1.9s-.2-1.4-.5-1.9c-.3-.6-.8-1-1.4-1.4s-1.2-.5-1.9-.5-1.3.2-1.9.5-1,.8-1.4,1.4c-.3.6-.5,1.2-.5,1.9s.2,1.3.5,1.9.8,1,1.4,1.3,1.2.5,1.9.5ZM101.3,244.2l1.7-.8,1.9,2.7-1.8,1-1.8-2.9Z" style="fill:#fff; stroke-width:0px;"/><path d="M107.3,234.2h4.1c1.1,0,2.1.2,3,.7.9.4,1.5,1.1,2,1.9.5.8.7,1.7.7,2.8s-.2,2-.7,2.8-1.1,1.4-2,1.9c-.9.4-1.8.7-2.9.7h-4.1v-10.6ZM111.3,243.1c.8,0,1.4-.1,2-.4.6-.3,1-.7,1.3-1.2.3-.5.4-1.2.4-1.9s-.1-1.4-.4-1.9c-.3-.5-.7-1-1.3-1.3-.6-.3-1.2-.4-2-.4h-2.1v7.2h2.1Z" style="fill:#fff; stroke-width:0px;"/><path d="M47.3,320.4c-.7,0-1.4-.1-2-.4s-1.1-.7-1.4-1.2c-.4-.6-.6-1.3-.6-2.2h1.9c0,.5.1.9.3,1.2s.5.5.8.7.6.2,1,.2.7,0,1-.2.5-.4.7-.7c.2-.3.3-.6.3-1s0-.7-.3-.9-.4-.5-.8-.7c-.3-.2-.7-.2-1.2-.2h-1.4v-1l2.2-2.8h0s-4.1,0-4.1,0v-1.6h6.4v1l-2.5,2.9h0c.7.1,1.3.3,1.8.5s.9.6,1.2,1.1c.3.5.4,1,.4,1.8s-.2,1.3-.5,1.8c-.3.5-.8,1-1.4,1.3s-1.3.5-2,.5Z" style="fill:#fff; stroke-width:0px;"/><path d="M53.1,318.4h1.8l-1.4,3.2h-1.4l.9-3.2Z" style="fill:#fff; stroke-width:0px;"/><path d="M60.2,320.4c-.7,0-1.3-.1-1.8-.4s-1.1-.6-1.5-1.2-.6-1.2-.7-2.1h1.9c0,.4.2.8.4,1s.5.5.8.6.6.2.9.2.7,0,1-.3.5-.4.7-.7c.2-.3.2-.6.2-1s0-.7-.3-1c-.2-.3-.5-.5-.8-.6-.3-.1-.8-.2-1.2-.2h-2.1s-.8-.7-.8-.7l.6-4.7h5.9v1.6h-4.2l-.3,2.4h1.5c.8,0,1.4.1,2,.4.6.3,1,.6,1.3,1.1.3.5.5,1,.5,1.7s-.2,1.3-.5,1.8c-.3.6-.8,1-1.4,1.4s-1.3.5-2.1.5Z" style="fill:#fff; stroke-width:0px;"/><path d="M69.8,320.4c-1,0-1.8-.2-2.5-.7s-1.2-1.2-1.5-2c-.3-.8-.5-1.8-.5-2.8s.2-2,.5-2.8c.4-.8.9-1.5,1.6-2,.7-.5,1.5-.7,2.4-.7s1.9.3,2.6.8c.7.5,1.2,1.2,1.5,2,.3.8.5,1.8.5,2.8s-.2,2-.5,2.8c-.3.8-.9,1.5-1.5,2-.7.5-1.5.7-2.5.7ZM69.8,318.6c.5,0,1-.2,1.4-.5.4-.3.7-.8.9-1.3s.3-1.2.3-2-.1-1.4-.3-1.9-.5-1-.9-1.3c-.4-.3-.9-.5-1.4-.5s-1,.2-1.4.5c-.4.3-.7.8-.9,1.3-.2.6-.3,1.2-.3,2s.1,1.4.3,1.9c.2.6.5,1,.9,1.3.4.3.9.5,1.4.5Z" style="fill:#fff; stroke-width:0px;"/><path d="M79.9,320.4c-1,0-1.8-.2-2.5-.7s-1.2-1.2-1.5-2c-.3-.8-.5-1.8-.5-2.8s.2-2,.5-2.8c.4-.8.9-1.5,1.6-2,.7-.5,1.5-.7,2.4-.7s1.9.3,2.6.8c.7.5,1.2,1.2,1.5,2,.3.8.5,1.8.5,2.8s-.2,2-.5,2.8c-.3.8-.9,1.5-1.5,2-.7.5-1.5.7-2.5.7ZM79.9,318.6c.5,0,1-.2,1.4-.5.4-.3.7-.8.9-1.3s.3-1.2.3-2-.1-1.4-.3-1.9-.5-1-.9-1.3c-.4-.3-.9-.5-1.4-.5s-1,.2-1.4.5c-.4.3-.7.8-.9,1.3-.2.6-.3,1.2-.3,2s.1,1.4.3,1.9c.2.6.5,1,.9,1.3.4.3.9.5,1.4.5Z" style="fill:#fff; stroke-width:0px;"/><path d="M90.2,309.5h1.9v10.6h-1.9v-10.6Z" style="fill:#fff; stroke-width:0px;"/><path d="M99.6,320.4c-1,0-2-.2-2.9-.7-.9-.5-1.6-1.2-2.1-2s-.8-1.8-.8-2.8.3-1.9.8-2.8c.5-.8,1.2-1.5,2.1-2,.9-.5,1.8-.7,2.9-.7s2,.2,2.9.7c.9.5,1.6,1.2,2.1,2,.5.8.8,1.8.8,2.8s-.3,1.9-.8,2.8-1.2,1.5-2.1,2c-.9.5-1.8.7-2.9.7ZM99.6,318.6c.7,0,1.3-.2,1.9-.5.6-.3,1-.8,1.4-1.3.3-.6.5-1.2.5-1.9s-.2-1.4-.5-1.9c-.3-.6-.8-1-1.4-1.4s-1.2-.5-1.9-.5-1.3.2-1.9.5-1,.8-1.4,1.4c-.3.6-.5,1.2-.5,1.9s.2,1.3.5,1.9.8,1,1.4,1.3,1.2.5,1.9.5ZM101.3,319.6l1.7-.8,1.9,2.7-1.8,1-1.8-2.9Z" style="fill:#fff; stroke-width:0px;"/><path d="M107.3,309.5h4.1c1.1,0,2.1.2,3,.7.9.4,1.5,1.1,2,1.9.5.8.7,1.7.7,2.8s-.2,2-.7,2.8-1.1,1.4-2,1.9c-.9.4-1.8.7-2.9.7h-4.1v-10.6ZM111.3,318.4c.8,0,1.4-.1,2-.4.6-.3,1-.7,1.3-1.2.3-.5.4-1.2.4-1.9s-.1-1.4-.4-1.9c-.3-.5-.7-1-1.3-1.3-.6-.3-1.2-.4-2-.4h-2.1v7.2h2.1Z" style="fill:#fff; stroke-width:0px;"/><path d="M47.3,397.4c-.7,0-1.4-.1-2-.4s-1.1-.7-1.4-1.2c-.4-.6-.6-1.3-.6-2.2h1.9c0,.5.1.9.3,1.2s.5.5.8.7.6.2,1,.2.7,0,1-.2.5-.4.7-.7c.2-.3.3-.6.3-1s0-.7-.3-.9-.4-.5-.8-.7c-.3-.2-.7-.2-1.2-.2h-1.4v-1l2.2-2.8h0s-4.1,0-4.1,0v-1.6h6.4v1l-2.5,2.9h0c.7.1,1.3.3,1.8.5s.9.6,1.2,1.1c.3.5.4,1,.4,1.8s-.2,1.3-.5,1.8c-.3.5-.8,1-1.4,1.3s-1.3.5-2,.5Z" style="fill:#fff; stroke-width:0px;"/><path d="M53.1,395.4h1.8l-1.4,3.2h-1.4l.9-3.2Z" style="fill:#fff; stroke-width:0px;"/><path d="M60.2,397.4c-.7,0-1.3-.1-1.8-.4s-1.1-.6-1.5-1.2-.6-1.2-.7-2.1h1.9c0,.4.2.8.4,1s.5.5.8.6.6.2.9.2.7,0,1-.3.5-.4.7-.7c.2-.3.2-.6.2-1s0-.7-.3-1c-.2-.3-.5-.5-.8-.6-.3-.1-.8-.2-1.2-.2h-2.1s-.8-.7-.8-.7l.6-4.7h5.9v1.6h-4.2l-.3,2.4h1.5c.8,0,1.4.1,2,.4.6.3,1,.6,1.3,1.1.3.5.5,1,.5,1.7s-.2,1.3-.5,1.8c-.3.6-.8,1-1.4,1.4s-1.3.5-2.1.5Z" style="fill:#fff; stroke-width:0px;"/><path d="M69.8,397.4c-1,0-1.8-.2-2.5-.7s-1.2-1.2-1.5-2c-.3-.8-.5-1.8-.5-2.8s.2-2,.5-2.8c.4-.8.9-1.5,1.6-2,.7-.5,1.5-.7,2.4-.7s1.9.3,2.6.8c.7.5,1.2,1.2,1.5,2,.3.8.5,1.8.5,2.8s-.2,2-.5,2.8c-.3.8-.9,1.5-1.5,2-.7.5-1.5.7-2.5.7ZM69.8,395.6c.5,0,1-.2,1.4-.5.4-.3.7-.8.9-1.3s.3-1.2.3-2-.1-1.4-.3-1.9-.5-1-.9-1.3c-.4-.3-.9-.5-1.4-.5s-1,.2-1.4.5c-.4.3-.7.8-.9,1.3-.2.6-.3,1.2-.3,2s.1,1.4.3,1.9c.2.6.5,1,.9,1.3.4.3.9.5,1.4.5Z" style="fill:#fff; stroke-width:0px;"/><path d="M79.9,397.4c-1,0-1.8-.2-2.5-.7s-1.2-1.2-1.5-2c-.3-.8-.5-1.8-.5-2.8s.2-2,.5-2.8c.4-.8.9-1.5,1.6-2,.7-.5,1.5-.7,2.4-.7s1.9.3,2.6.8c.7.5,1.2,1.2,1.5,2,.3.8.5,1.8.5,2.8s-.2,2-.5,2.8c-.3.8-.9,1.5-1.5,2-.7.5-1.5.7-2.5.7ZM79.9,395.6c.5,0,1-.2,1.4-.5.4-.3.7-.8.9-1.3s.3-1.2.3-2-.1-1.4-.3-1.9-.5-1-.9-1.3c-.4-.3-.9-.5-1.4-.5s-1,.2-1.4.5c-.4.3-.7.8-.9,1.3-.2.6-.3,1.2-.3,2s.1,1.4.3,1.9c.2.6.5,1,.9,1.3.4.3.9.5,1.4.5Z" style="fill:#fff; stroke-width:0px;"/><path d="M90.2,386.6h1.9v10.6h-1.9v-10.6Z" style="fill:#fff; stroke-width:0px;"/><path d="M99.6,397.4c-1,0-2-.2-2.9-.7-.9-.5-1.6-1.2-2.1-2s-.8-1.8-.8-2.8.3-1.9.8-2.8c.5-.8,1.2-1.5,2.1-2,.9-.5,1.8-.7,2.9-.7s2,.2,2.9.7c.9.5,1.6,1.2,2.1,2,.5.8.8,1.8.8,2.8s-.3,1.9-.8,2.8-1.2,1.5-2.1,2c-.9.5-1.8.7-2.9.7ZM99.6,395.6c.7,0,1.3-.2,1.9-.5.6-.3,1-.8,1.4-1.3.3-.6.5-1.2.5-1.9s-.2-1.4-.5-1.9c-.3-.6-.8-1-1.4-1.4s-1.2-.5-1.9-.5-1.3.2-1.9.5-1,.8-1.4,1.4c-.3.6-.5,1.2-.5,1.9s.2,1.3.5,1.9.8,1,1.4,1.3,1.2.5,1.9.5ZM101.3,396.6l1.7-.8,1.9,2.7-1.8,1-1.8-2.9Z" style="fill:#fff; stroke-width:0px;"/><path d="M107.3,386.6h4.1c1.1,0,2.1.2,3,.7.9.4,1.5,1.1,2,1.9.5.8.7,1.7.7,2.8s-.2,2-.7,2.8-1.1,1.4-2,1.9c-.9.4-1.8.7-2.9.7h-4.1v-10.6ZM111.3,395.5c.8,0,1.4-.1,2-.4.6-.3,1-.7,1.3-1.2.3-.5.4-1.2.4-1.9s-.1-1.4-.4-1.9c-.3-.5-.7-1-1.3-1.3-.6-.3-1.2-.4-2-.4h-2.1v7.2h2.1Z" style="fill:#fff; stroke-width:0px;"/><path d="M47.3,476.5c-.7,0-1.4-.1-2-.4s-1.1-.7-1.4-1.2-.6-1.3-.6-2.2h1.9c0,.5.1.9.3,1.2s.5.5.8.7.6.2,1,.2.7,0,1-.2.5-.4.7-.7.3-.6.3-1,0-.7-.3-.9-.4-.5-.8-.7-.7-.2-1.2-.2h-1.4v-1l2.2-2.8h0s-4.1,0-4.1,0v-1.6h6.4v1l-2.5,2.9h0c.7.1,1.3.3,1.8.5s.9.6,1.2,1.1.4,1,.4,1.8-.2,1.3-.5,1.8-.8,1-1.4,1.3-1.3.5-2,.5Z" style="fill:#fff; stroke-width:0px;"/><path d="M53.1,474.5h1.8l-1.4,3.2h-1.4l.9-3.2Z" style="fill:#fff; stroke-width:0px;"/><path d="M60.2,476.5c-.7,0-1.3-.1-1.8-.4s-1.1-.6-1.5-1.2-.6-1.2-.7-2.1h1.9c0,.4.2.8.4,1s.5.5.8.6.6.2.9.2.7,0,1-.3.5-.4.7-.7.2-.6.2-1,0-.7-.3-1-.5-.5-.8-.6-.8-.2-1.2-.2h-2.1s-.8-.7-.8-.7l.6-4.7h5.9v1.6h-4.2l-.3,2.4h1.5c.8,0,1.4.1,2,.4s1,.6,1.3,1.1.5,1,.5,1.7-.2,1.3-.5,1.8-.8,1-1.4,1.4-1.3.5-2.1.5Z" style="fill:#fff; stroke-width:0px;"/><path d="M69.8,476.5c-1,0-1.8-.2-2.5-.7s-1.2-1.2-1.5-2-.5-1.8-.5-2.8.2-2,.5-2.8.9-1.5,1.6-2,1.5-.7,2.4-.7,1.9.3,2.6.8,1.2,1.2,1.5,2,.5,1.8.5,2.8-.2,2-.5,2.8-.9,1.5-1.5,2-1.5.7-2.5.7ZM69.8,474.7c.5,0,1-.2,1.4-.5s.7-.8.9-1.3.3-1.2.3-2-.1-1.4-.3-1.9-.5-1-.9-1.3-.9-.5-1.4-.5-1,.2-1.4.5-.7.8-.9,1.3-.3,1.2-.3,2,.1,1.4.3,1.9.5,1,.9,1.3.9.5,1.4.5Z" style="fill:#fff; stroke-width:0px;"/><path d="M79.9,476.5c-1,0-1.8-.2-2.5-.7s-1.2-1.2-1.5-2-.5-1.8-.5-2.8.2-2,.5-2.8.9-1.5,1.6-2,1.5-.7,2.4-.7,1.9.3,2.6.8,1.2,1.2,1.5,2,.5,1.8.5,2.8-.2,2-.5,2.8-.9,1.5-1.5,2-1.5.7-2.5.7ZM79.9,474.7c.5,0,1-.2,1.4-.5s.7-.8.9-1.3.3-1.2.3-2-.1-1.4-.3-1.9-.5-1-.9-1.3-.9-.5-1.4-.5-1,.2-1.4.5-.7.8-.9,1.3-.3,1.2-.3,2,.1,1.4.3,1.9.5,1,.9,1.3.9.5,1.4.5Z" style="fill:#fff; stroke-width:0px;"/><path d="M90.2,465.6h1.9v10.6h-1.9v-10.6Z" style="fill:#fff; stroke-width:0px;"/><path d="M99.6,476.5c-1,0-2-.2-2.9-.7s-1.6-1.2-2.1-2-.8-1.8-.8-2.8.3-1.9.8-2.8,1.2-1.5,2.1-2,1.8-.7,2.9-.7,2,.2,2.9.7,1.6,1.2,2.1,2,.8,1.8.8,2.8-.3,1.9-.8,2.8-1.2,1.5-2.1,2-1.8.7-2.9.7ZM99.6,474.7c.7,0,1.3-.2,1.9-.5s1-.8,1.4-1.3.5-1.2.5-1.9-.2-1.4-.5-1.9-.8-1-1.4-1.4-1.2-.5-1.9-.5-1.3.2-1.9.5-1,.8-1.4,1.4-.5,1.2-.5,1.9.2,1.3.5,1.9.8,1,1.4,1.3,1.2.5,1.9.5ZM101.3,475.7l1.7-.8,1.9,2.7-1.8,1-1.8-2.9Z" style="fill:#fff; stroke-width:0px;"/><path d="M107.3,465.6h4.1c1.1,0,2.1.2,3,.7s1.5,1.1,2,1.9.7,1.7.7,2.8-.2,2-.7,2.8-1.1,1.4-2,1.9-1.8.7-2.9.7h-4.1v-10.6ZM111.3,474.5c.8,0,1.4-.1,2-.4s1-.7,1.3-1.2.4-1.2.4-1.9-.1-1.4-.4-1.9-.7-1-1.3-1.3-1.2-.4-2-.4h-2.1v7.2h2.1Z" style="fill:#fff; stroke-width:0px;"/><rect x="262.6" y="239.2" width="140.5" height=".6" style="fill:#fff; stroke-width:0px;"/><rect x="262.6" y="315.6" width="140.5" height=".6" style="fill:#fff; stroke-width:0px;"/><rect x="262.6" y="393.3" width="140.5" height=".6" style="fill:#fff; stroke-width:0px;"/><rect x="262.6" y="470" width="140.5" height=".6" style="fill:#fff; stroke-width:0px;"/><path d="M459.5,541.7v5.4c0,2.5-1.4,3.8-4.3,3.8h-4.8c-3,0-4.5-1.4-4.5-4.1s0-1.8.3-3l2.4.3c-.1.9-.2,1.4-.2,1.8,0,1.4.8,2,2.6,2h4c1,0,1.5-.6,1.5-1.9v-4s2.8-.3,2.8-.3ZM451.2,542.8l-1.9-1.9,1.9-1.9,1.4,1.4,1.4-1.4,1.9,1.9-1.9,1.9-1.5-1.4-1.4,1.4Z" style="fill:#fff; stroke-width:0px;"/><path d="M469.8,546.3v4.3c0,3.2-3.1,4.3-7.5,4.3l-.3-2.3c3.4,0,4.9-.5,5-2-.6.2-1.1.4-1.7.4-2.5,0-4.2-1.8-4.2-4.5s2-4.7,4.5-4.7,4.3,1.7,4.3,4.6ZM465.5,548.2c.4,0,.9,0,1.4-.2v-1.5c0-1.2-.7-1.9-1.7-1.9s-1.7.7-1.7,1.7.8,1.8,1.9,1.8Z" style="fill:#fff; stroke-width:0px;"/><path d="M477.8,548.2v2.6c0,.1,0,.2-.2.2-.8,0-1.4-.3-1.9-.7v.3c0,3.2-1.7,4.3-5.2,4.3l-.2-2.3c1.5,0,2.6-.6,2.6-2.2v-8.4s2.8-.3,2.8-.3v4.9c.1.9.9,1.3,1.9,1.3s.2,0,.2.2Z" style="fill:#fff; stroke-width:0px;"/><path d="M481.3,548.2v2.6c0,.1,0,.2-.2.2h-3.5c-.1,0-.2,0-.2-.2v-2.6c0-.1,0-.2.2-.2h3.5c.1,0,.2,0,.2.2Z" style="fill:#fff; stroke-width:0px;"/><path d="M484.9,548.2v2.6c0,.1,0,.2-.2.2h-3.5c-.1,0-.2,0-.2-.2v-2.6c0-.1,0-.2.2-.2h3.5c.1,0,.2,0,.2.2Z" style="fill:#fff; stroke-width:0px;"/><path d="M494.1,546c0,3-2,5-5.2,5h-4.2c-.1,0-.2,0-.2-.2v-2.6c0-.1,0-.2.2-.2h1.1c-.3-.7-.5-1.4-.5-2.1,0-2.5,1.9-4.3,4.3-4.3s4.5,1.9,4.5,4.4ZM489.5,540.4l-1.9-1.9,1.9-1.9,1.9,1.9-1.9,1.9ZM491.3,546c0-1-.7-1.7-1.7-1.7s-1.8.8-1.8,1.8.2,1.2.5,1.9h.6c1.5,0,2.4-.8,2.4-2Z" style="fill:#fff; stroke-width:0px;"/><path d="M512.2,548.2v2.6c0,.1,0,.2-.2.2-.8,0-1.5-.3-2-.8-.3,3-2.2,4.7-5.6,4.7s-5.5-1.6-5.5-4.9.3-2.6.8-4.3l2.3.6c-.3,1-.5,1.9-.5,2.8,0,1.8,1,2.7,2.9,2.7s2.8-1,2.8-3v-6.8l2.8-.3v4.6c0,1.1.8,1.7,1.9,1.7s.2,0,.2.2ZM504.1,543.7l-1.9-1.9,1.9-1.9,1.9,1.9-1.9,1.9Z" style="fill:#fff; stroke-width:0px;"/><path d="M527.9,541.7v5.4c0,2.5-1.3,3.8-3.8,3.8s-2-.3-3-1c-.7.6-1.7,1-2.9,1s-1.8-.3-2.7-1.1c-.7.7-1.8,1.1-3.3,1.1s-.2,0-.2-.2v-2.6c0-.1,0-.2.2-.2,1,0,1.5-.6,1.5-1.9v-2.2s2.8-.3,2.8-.3v3.6c0,.2,0,.4,0,.5.5.2.9.3,1.4.3,1,0,1.5-.6,1.5-1.9v-2.2s2.8-.3,2.8-.3v3.6c0,.2,0,.4,0,.6.5.1.9.2,1.4.2,1,0,1.5-.6,1.5-1.9v-4.1l2.8-.3ZM519.2,541.8l-1.9-1.9,1.9-1.9,1.4,1.4,1.4-1.4,1.9,1.9-1.9,1.9-1.5-1.4-1.4,1.4ZM520.7,538.5l-1.2-1.2,1.2-1.2,1.2,1.2-1.2,1.2Z" style="fill:#fff; stroke-width:0px;"/><path d="M530.1,547.1v-9.1s2.8-.3,2.8-.3v8.4c0,1.3.5,1.9,1.5,1.9s.2,0,.2.2v2.6c0,.1,0,.2-.2.2-2.9,0-4.4-1.3-4.4-3.9Z" style="fill:#fff; stroke-width:0px;"/><path d="M534.3,550.8v-2.6c0-.1.1-.2.2-.2,1,0,1.5-.6,1.5-1.9v-4s2.8-.3,2.8-.3v5.4c0,2.5-1.4,3.8-4.4,3.8s-.2,0-.2-.2ZM534.8,553.9l1.9-1.9,1.9,1.9-1.9,1.9-1.9-1.9Z" style="fill:#fff; stroke-width:0px;"/><path d="M446.8,568.9h3.5c1.2,0,2.1.2,2.8.7s1,1.1,1,2-.3,1.6-1,2-1.6.7-2.8.7h-2.2v2.8h-1.4v-8.3ZM452,572.9c.4-.3.6-.7.6-1.3s-.2-1-.6-1.3-1-.4-1.7-.4h-2.1v3.5h2.1c.8,0,1.3-.1,1.7-.4Z" style="fill:#ee304c; stroke-width:0px;"/><path d="M456.6,568.9h2.6l3.4,8.3h-1.5l-.8-2h-4.8l-.8,2h-1.5l3.4-8.3ZM460,574.2l-2-5.2h0l-2,5.2h4.1Z" style="fill:#ee304c; stroke-width:0px;"/><path d="M468.1,570c-.5-.1-1.1-.2-1.7-.2s-1.2,0-1.5.3c-.3.2-.5.5-.5.9s0,.5.2.6.4.3.7.4c.3.1.7.2,1.3.4.8.2,1.5.4,2,.6.5.2.9.5,1.1.8.2.3.4.7.4,1.2,0,.8-.3,1.4-1,1.8-.7.4-1.6.6-2.8.6s-2.5-.2-3.4-.6v-1.2c.5.2,1,.4,1.6.5.6.1,1.2.2,1.8.2s1.4-.1,1.8-.3.6-.5.6-1,0-.5-.3-.7c-.2-.2-.4-.3-.8-.5-.3-.1-.8-.3-1.4-.4-.8-.2-1.4-.3-1.8-.5-.5-.2-.8-.4-1.1-.8-.2-.3-.4-.7-.4-1.1,0-.7.3-1.3.9-1.7.6-.4,1.4-.6,2.6-.6s2.2.2,3.1.6v1.2c-.5-.2-1-.3-1.5-.4Z" style="fill:#ee304c; stroke-width:0px;"/><path d="M475.9,570c-.5-.1-1.1-.2-1.7-.2s-1.2,0-1.5.3c-.3.2-.5.5-.5.9s0,.5.2.6.4.3.7.4c.3.1.7.2,1.3.4.8.2,1.5.4,2,.6.5.2.9.5,1.1.8.2.3.4.7.4,1.2,0,.8-.3,1.4-1,1.8-.7.4-1.6.6-2.8.6s-2.5-.2-3.4-.6v-1.2c.5.2,1,.4,1.6.5.6.1,1.2.2,1.8.2s1.4-.1,1.8-.3.6-.5.6-1,0-.5-.3-.7c-.2-.2-.4-.3-.8-.5-.3-.1-.8-.3-1.4-.4-.8-.2-1.4-.3-1.8-.5-.5-.2-.8-.4-1.1-.8-.2-.3-.4-.7-.4-1.1,0-.7.3-1.3.9-1.7.6-.4,1.4-.6,2.6-.6s2.2.2,3.1.6v1.2c-.5-.2-1-.3-1.5-.4Z" style="fill:#ee304c; stroke-width:0px;"/><path d="M480.5,568.9v8.3h-1.4v-8.3h1.4Z" style="fill:#ee304c; stroke-width:0px;"/><path d="M483.9,576.9c-.7-.3-1.2-.8-1.6-1.5-.4-.6-.5-1.4-.5-2.3s.2-1.7.5-2.3c.4-.7.9-1.2,1.6-1.5.7-.3,1.5-.5,2.5-.5s1.8.2,2.5.5c.7.3,1.2.8,1.6,1.5.4.7.5,1.4.5,2.3s-.2,1.7-.5,2.3c-.4.6-.9,1.1-1.6,1.5-.7.3-1.5.5-2.5.5s-1.8-.2-2.5-.5ZM484.1,575.4c.6.6,1.3.8,2.4.8s1.8-.3,2.3-.8c.6-.5.8-1.3.8-2.3s-.3-1.8-.8-2.3c-.6-.6-1.3-.8-2.3-.8s-1.8.3-2.4.8-.8,1.3-.8,2.3.3,1.8.8,2.3Z" style="fill:#ee304c; stroke-width:0px;"/><path d="M495,568.9l4.3,8.2h0v-8.2h1.3v8.3h-2.7l-4.3-8.2h0v8.2h-1.3v-8.3h2.7Z" style="fill:#ee304c; stroke-width:0px;"/><path d="M504.8,568.9h6.6v1.1h-5.2v2.8h4.2v1h-4.2v3.3h-1.4v-8.3Z" style="fill:#ee304c; stroke-width:0px;"/><path d="M512.5,568.9h3.6c1.1,0,1.9.2,2.5.7.6.4.9,1.1.9,1.9s-.3,1.3-.8,1.8c-.5.4-1.2.7-2.2.7l3.2,3.3h-1.5l-4-4.2h1.9c.6,0,1.1-.1,1.5-.4.3-.3.5-.7.5-1.2s-.2-.9-.5-1.2c-.3-.3-.8-.4-1.5-.4h-2.2v7.3h-1.4v-8.3Z" style="fill:#ee304c; stroke-width:0px;"/><path d="M527.6,576.4c-.7.6-1.7.9-3,.9s-2.3-.3-3-.9c-.7-.6-1.1-1.5-1.1-2.7v-4.9h1.4v4.9c0,.8.2,1.4.7,1.9.5.4,1.1.6,2,.6s1.6-.2,2-.6c.5-.4.7-1.1.7-1.9v-4.9h1.4v4.9c0,1.2-.4,2-1.1,2.7Z" style="fill:#ee304c; stroke-width:0px;"/><path d="M531.4,568.9v8.3h-1.4v-8.3h1.4Z" style="fill:#ee304c; stroke-width:0px;"/><path d="M535.3,570h-3v-1.1h7.3v1.1h-3v7.2h-1.4v-7.2Z" style="fill:#ee304c; stroke-width:0px;"/><path d="M47.3,551.5c-.7,0-1.4-.1-2-.4s-1.1-.7-1.4-1.2c-.4-.6-.6-1.3-.6-2.2h1.9c0,.5.1.9.3,1.2s.5.5.8.7.6.2,1,.2.7,0,1-.2.5-.4.7-.7c.2-.3.3-.6.3-1s0-.7-.3-.9-.4-.5-.8-.7c-.3-.2-.7-.2-1.2-.2h-1.4v-1l2.2-2.8h0s-4.1,0-4.1,0v-1.6h6.4v1l-2.5,2.9h0c.7.1,1.3.3,1.8.5s.9.6,1.2,1.1c.3.5.4,1,.4,1.8s-.2,1.3-.5,1.8c-.3.5-.8,1-1.4,1.3s-1.3.5-2,.5Z" style="fill:#fff; stroke-width:0px;"/><path d="M53.1,549.5h1.8l-1.4,3.2h-1.4l.9-3.2Z" style="fill:#fff; stroke-width:0px;"/><path d="M60.2,551.5c-.7,0-1.3-.1-1.8-.4s-1.1-.6-1.5-1.2-.6-1.2-.7-2.1h1.9c0,.4.2.8.4,1s.5.5.8.6.6.2.9.2.7,0,1-.3.5-.4.7-.7c.2-.3.2-.6.2-1s0-.7-.3-1c-.2-.3-.5-.5-.8-.6-.3-.1-.8-.2-1.2-.2h-2.1s-.8-.7-.8-.7l.6-4.7h5.9v1.6h-4.2l-.3,2.4h1.5c.8,0,1.4.1,2,.4.6.3,1,.6,1.3,1.1.3.5.5,1,.5,1.7s-.2,1.3-.5,1.8c-.3.6-.8,1-1.4,1.4s-1.3.5-2.1.5Z" style="fill:#fff; stroke-width:0px;"/><path d="M69.8,551.5c-1,0-1.8-.2-2.5-.7s-1.2-1.2-1.5-2c-.3-.8-.5-1.8-.5-2.8s.2-2,.5-2.8c.4-.8.9-1.5,1.6-2,.7-.5,1.5-.7,2.4-.7s1.9.3,2.6.8c.7.5,1.2,1.2,1.5,2,.3.8.5,1.8.5,2.8s-.2,2-.5,2.8c-.3.8-.9,1.5-1.5,2-.7.5-1.5.7-2.5.7ZM69.8,549.7c.5,0,1-.2,1.4-.5.4-.3.7-.8.9-1.3s.3-1.2.3-2-.1-1.4-.3-1.9-.5-1-.9-1.3c-.4-.3-.9-.5-1.4-.5s-1,.2-1.4.5c-.4.3-.7.8-.9,1.3-.2.6-.3,1.2-.3,2s.1,1.4.3,1.9c.2.6.5,1,.9,1.3.4.3.9.5,1.4.5Z" style="fill:#fff; stroke-width:0px;"/><path d="M79.9,551.5c-1,0-1.8-.2-2.5-.7s-1.2-1.2-1.5-2c-.3-.8-.5-1.8-.5-2.8s.2-2,.5-2.8c.4-.8.9-1.5,1.6-2,.7-.5,1.5-.7,2.4-.7s1.9.3,2.6.8c.7.5,1.2,1.2,1.5,2,.3.8.5,1.8.5,2.8s-.2,2-.5,2.8c-.3.8-.9,1.5-1.5,2-.7.5-1.5.7-2.5.7ZM79.9,549.7c.5,0,1-.2,1.4-.5.4-.3.7-.8.9-1.3s.3-1.2.3-2-.1-1.4-.3-1.9-.5-1-.9-1.3c-.4-.3-.9-.5-1.4-.5s-1,.2-1.4.5c-.4.3-.7.8-.9,1.3-.2.6-.3,1.2-.3,2s.1,1.4.3,1.9c.2.6.5,1,.9,1.3.4.3.9.5,1.4.5Z" style="fill:#fff; stroke-width:0px;"/><path d="M90.2,540.6h1.9v10.6h-1.9v-10.6Z" style="fill:#fff; stroke-width:0px;"/><path d="M99.6,551.5c-1,0-2-.2-2.9-.7-.9-.5-1.6-1.2-2.1-2s-.8-1.8-.8-2.8.3-1.9.8-2.8c.5-.8,1.2-1.5,2.1-2,.9-.5,1.8-.7,2.9-.7s2,.2,2.9.7c.9.5,1.6,1.2,2.1,2,.5.8.8,1.8.8,2.8s-.3,1.9-.8,2.8-1.2,1.5-2.1,2c-.9.5-1.8.7-2.9.7ZM99.6,549.7c.7,0,1.3-.2,1.9-.5.6-.3,1-.8,1.4-1.3.3-.6.5-1.2.5-1.9s-.2-1.3-.5-1.9c-.3-.6-.8-1-1.4-1.4s-1.2-.5-1.9-.5-1.3.2-1.9.5-1,.8-1.4,1.4c-.3.6-.5,1.2-.5,1.9s.2,1.3.5,1.9.8,1,1.4,1.3,1.2.5,1.9.5ZM101.3,550.7l1.7-.8,1.9,2.7-1.8,1-1.8-2.9Z" style="fill:#fff; stroke-width:0px;"/><path d="M107.3,540.6h4.1c1.1,0,2.1.2,3,.7.9.4,1.5,1.1,2,1.9.5.8.7,1.7.7,2.8s-.2,2-.7,2.8-1.1,1.4-2,1.9c-.9.4-1.8.7-2.9.7h-4.1v-10.6ZM111.3,549.5c.8,0,1.4-.1,2-.4.6-.3,1-.7,1.3-1.2.3-.5.4-1.2.4-1.9s-.1-1.4-.4-1.9c-.3-.5-.7-1-1.3-1.3-.6-.3-1.2-.4-2-.4h-2.1v7.2h2.1Z" style="fill:#fff; stroke-width:0px;"/><path d="M161.4,242.5h-5.3v-1.4c-.1,0,5.1-7,5.1-7h2.2v6.8h1.7v1.6h-1.7v2.3h-1.9v-2.3ZM161.4,240.9v-4.4l-3.3,4.4h3.3Z" style="fill:#fff; stroke-width:0px;"/><path d="M166.8,243h1.8l-1.4,3.2h-1.4l.9-3.2Z" style="fill:#fff; stroke-width:0px;"/><path d="M173.9,245c-.7,0-1.3-.1-1.8-.4s-1.1-.6-1.5-1.2-.6-1.2-.7-2.1h1.9c0,.4.2.8.4,1s.5.5.8.6.6.2.9.2.7,0,1-.3.5-.4.7-.7c.2-.3.2-.6.2-1s0-.7-.3-1c-.2-.3-.5-.5-.8-.6-.3-.1-.8-.2-1.2-.2h-2.1s-.8-.7-.8-.7l.6-4.7h5.9v1.6h-4.2l-.3,2.4h1.5c.8,0,1.4.1,2,.4.6.3,1,.6,1.3,1.1.3.5.5,1,.5,1.7s-.2,1.3-.5,1.8c-.3.6-.8,1-1.4,1.4s-1.3.5-2.1.5Z" style="fill:#fff; stroke-width:0px;"/><path d="M183.5,245c-1,0-1.8-.2-2.5-.7s-1.2-1.2-1.5-2c-.3-.8-.5-1.8-.5-2.8s.2-2,.5-2.8c.4-.8.9-1.5,1.6-2,.7-.5,1.5-.7,2.4-.7s1.9.3,2.6.8c.7.5,1.2,1.2,1.5,2,.3.8.5,1.8.5,2.8s-.2,2-.5,2.8c-.3.8-.9,1.5-1.5,2-.7.5-1.5.7-2.5.7ZM183.5,243.2c.5,0,1-.2,1.4-.5.4-.3.7-.8.9-1.3s.3-1.2.3-2-.1-1.4-.3-1.9-.5-1-.9-1.3c-.4-.3-.9-.5-1.4-.5s-1,.2-1.4.5c-.4.3-.7.8-.9,1.3-.2.6-.3,1.2-.3,2s.1,1.4.3,1.9c.2.6.5,1,.9,1.3.4.3.9.5,1.4.5Z" style="fill:#fff; stroke-width:0px;"/><path d="M193.6,245c-1,0-1.8-.2-2.5-.7s-1.2-1.2-1.5-2c-.3-.8-.5-1.8-.5-2.8s.2-2,.5-2.8c.4-.8.9-1.5,1.6-2,.7-.5,1.5-.7,2.4-.7s1.9.3,2.6.8c.7.5,1.2,1.2,1.5,2,.3.8.5,1.8.5,2.8s-.2,2-.5,2.8c-.3.8-.9,1.5-1.5,2-.7.5-1.5.7-2.5.7ZM193.6,243.2c.5,0,1-.2,1.4-.5.4-.3.7-.8.9-1.3s.3-1.2.3-2-.1-1.4-.3-1.9-.5-1-.9-1.3c-.4-.3-.9-.5-1.4-.5s-1,.2-1.4.5c-.4.3-.7.8-.9,1.3-.2.6-.3,1.2-.3,2s.1,1.4.3,1.9c.2.6.5,1,.9,1.3.4.3.9.5,1.4.5Z" style="fill:#fff; stroke-width:0px;"/><path d="M203.8,234.2h1.9v10.6h-1.9v-10.6Z" style="fill:#fff; stroke-width:0px;"/><path d="M213.3,245c-1,0-2-.2-2.9-.7-.9-.5-1.6-1.2-2.1-2s-.8-1.8-.8-2.8.3-1.9.8-2.8c.5-.8,1.2-1.5,2.1-2,.9-.5,1.8-.7,2.9-.7s2,.2,2.9.7c.9.5,1.6,1.2,2.1,2,.5.8.8,1.8.8,2.8s-.3,1.9-.8,2.8-1.2,1.5-2.1,2c-.9.5-1.8.7-2.9.7ZM213.3,243.2c.7,0,1.3-.2,1.9-.5.6-.3,1-.8,1.4-1.3.3-.6.5-1.2.5-1.9s-.2-1.4-.5-1.9c-.3-.6-.8-1-1.4-1.4s-1.2-.5-1.9-.5-1.3.2-1.9.5-1,.8-1.4,1.4c-.3.6-.5,1.2-.5,1.9s.2,1.3.5,1.9.8,1,1.4,1.3,1.2.5,1.9.5ZM215,244.2l1.7-.8,1.9,2.7-1.8,1-1.8-2.9Z" style="fill:#fff; stroke-width:0px;"/><path d="M221,234.2h4.1c1.1,0,2.1.2,3,.7.9.4,1.5,1.1,2,1.9.5.8.7,1.7.7,2.8s-.2,2-.7,2.8-1.1,1.4-2,1.9c-.9.4-1.8.7-2.9.7h-4.1v-10.6ZM225,243.1c.8,0,1.4-.1,2-.4.6-.3,1-.7,1.3-1.2.3-.5.4-1.2.4-1.9s-.1-1.4-.4-1.9c-.3-.5-.7-1-1.3-1.3-.6-.3-1.2-.4-2-.4h-2.1v7.2h2.1Z" style="fill:#fff; stroke-width:0px;"/><path d="M161.4,317.9h-5.3v-1.4c-.1,0,5.1-7,5.1-7h2.2v6.8h1.7v1.6h-1.7v2.3h-1.9v-2.3ZM161.4,316.3v-4.4l-3.3,4.4h3.3Z" style="fill:#fff; stroke-width:0px;"/><path d="M166.8,318.4h1.8l-1.4,3.2h-1.4l.9-3.2Z" style="fill:#fff; stroke-width:0px;"/><path d="M173.9,320.4c-.7,0-1.3-.1-1.8-.4s-1.1-.6-1.5-1.2-.6-1.2-.7-2.1h1.9c0,.4.2.8.4,1s.5.5.8.6.6.2.9.2.7,0,1-.3.5-.4.7-.7c.2-.3.2-.6.2-1s0-.7-.3-1c-.2-.3-.5-.5-.8-.6-.3-.1-.8-.2-1.2-.2h-2.1s-.8-.7-.8-.7l.6-4.7h5.9v1.6h-4.2l-.3,2.4h1.5c.8,0,1.4.1,2,.4.6.3,1,.6,1.3,1.1.3.5.5,1,.5,1.7s-.2,1.3-.5,1.8c-.3.6-.8,1-1.4,1.4s-1.3.5-2.1.5Z" style="fill:#fff; stroke-width:0px;"/><path d="M183.5,320.4c-1,0-1.8-.2-2.5-.7s-1.2-1.2-1.5-2c-.3-.8-.5-1.8-.5-2.8s.2-2,.5-2.8c.4-.8.9-1.5,1.6-2,.7-.5,1.5-.7,2.4-.7s1.9.3,2.6.8c.7.5,1.2,1.2,1.5,2,.3.8.5,1.8.5,2.8s-.2,2-.5,2.8c-.3.8-.9,1.5-1.5,2-.7.5-1.5.7-2.5.7ZM183.5,318.6c.5,0,1-.2,1.4-.5.4-.3.7-.8.9-1.3s.3-1.2.3-2-.1-1.4-.3-1.9-.5-1-.9-1.3c-.4-.3-.9-.5-1.4-.5s-1,.2-1.4.5c-.4.3-.7.8-.9,1.3-.2.6-.3,1.2-.3,2s.1,1.4.3,1.9c.2.6.5,1,.9,1.3.4.3.9.5,1.4.5Z" style="fill:#fff; stroke-width:0px;"/><path d="M193.6,320.4c-1,0-1.8-.2-2.5-.7s-1.2-1.2-1.5-2c-.3-.8-.5-1.8-.5-2.8s.2-2,.5-2.8c.4-.8.9-1.5,1.6-2,.7-.5,1.5-.7,2.4-.7s1.9.3,2.6.8c.7.5,1.2,1.2,1.5,2,.3.8.5,1.8.5,2.8s-.2,2-.5,2.8c-.3.8-.9,1.5-1.5,2-.7.5-1.5.7-2.5.7ZM193.6,318.6c.5,0,1-.2,1.4-.5.4-.3.7-.8.9-1.3s.3-1.2.3-2-.1-1.4-.3-1.9-.5-1-.9-1.3c-.4-.3-.9-.5-1.4-.5s-1,.2-1.4.5c-.4.3-.7.8-.9,1.3-.2.6-.3,1.2-.3,2s.1,1.4.3,1.9c.2.6.5,1,.9,1.3.4.3.9.5,1.4.5Z" style="fill:#fff; stroke-width:0px;"/><path d="M203.8,309.5h1.9v10.6h-1.9v-10.6Z" style="fill:#fff; stroke-width:0px;"/><path d="M213.3,320.4c-1,0-2-.2-2.9-.7-.9-.5-1.6-1.2-2.1-2s-.8-1.8-.8-2.8.3-1.9.8-2.8c.5-.8,1.2-1.5,2.1-2,.9-.5,1.8-.7,2.9-.7s2,.2,2.9.7c.9.5,1.6,1.2,2.1,2,.5.8.8,1.8.8,2.8s-.3,1.9-.8,2.8-1.2,1.5-2.1,2c-.9.5-1.8.7-2.9.7ZM213.3,318.6c.7,0,1.3-.2,1.9-.5.6-.3,1-.8,1.4-1.3.3-.6.5-1.2.5-1.9s-.2-1.4-.5-1.9c-.3-.6-.8-1-1.4-1.4s-1.2-.5-1.9-.5-1.3.2-1.9.5-1,.8-1.4,1.4c-.3.6-.5,1.2-.5,1.9s.2,1.3.5,1.9.8,1,1.4,1.3,1.2.5,1.9.5ZM215,319.6l1.7-.8,1.9,2.7-1.8,1-1.8-2.9Z" style="fill:#fff; stroke-width:0px;"/><path d="M221,309.5h4.1c1.1,0,2.1.2,3,.7.9.4,1.5,1.1,2,1.9.5.8.7,1.7.7,2.8s-.2,2-.7,2.8-1.1,1.4-2,1.9c-.9.4-1.8.7-2.9.7h-4.1v-10.6ZM225,318.4c.8,0,1.4-.1,2-.4.6-.3,1-.7,1.3-1.2.3-.5.4-1.2.4-1.9s-.1-1.4-.4-1.9c-.3-.5-.7-1-1.3-1.3-.6-.3-1.2-.4-2-.4h-2.1v7.2h2.1Z" style="fill:#fff; stroke-width:0px;"/><path d="M161.4,394.9h-5.3v-1.4c-.1,0,5.1-7,5.1-7h2.2v6.8h1.7v1.6h-1.7v2.3h-1.9v-2.3ZM161.4,393.3v-4.4l-3.3,4.4h3.3Z" style="fill:#fff; stroke-width:0px;"/><path d="M166.8,395.4h1.8l-1.4,3.2h-1.4l.9-3.2Z" style="fill:#fff; stroke-width:0px;"/><path d="M173.9,397.4c-.7,0-1.3-.1-1.8-.4s-1.1-.6-1.5-1.2-.6-1.2-.7-2.1h1.9c0,.4.2.8.4,1s.5.5.8.6.6.2.9.2.7,0,1-.3.5-.4.7-.7c.2-.3.2-.6.2-1s0-.7-.3-1c-.2-.3-.5-.5-.8-.6-.3-.1-.8-.2-1.2-.2h-2.1s-.8-.7-.8-.7l.6-4.7h5.9v1.6h-4.2l-.3,2.4h1.5c.8,0,1.4.1,2,.4.6.3,1,.6,1.3,1.1.3.5.5,1,.5,1.7s-.2,1.3-.5,1.8c-.3.6-.8,1-1.4,1.4s-1.3.5-2.1.5Z" style="fill:#fff; stroke-width:0px;"/><path d="M183.5,397.4c-1,0-1.8-.2-2.5-.7s-1.2-1.2-1.5-2c-.3-.8-.5-1.8-.5-2.8s.2-2,.5-2.8c.4-.8.9-1.5,1.6-2,.7-.5,1.5-.7,2.4-.7s1.9.3,2.6.8c.7.5,1.2,1.2,1.5,2,.3.8.5,1.8.5,2.8s-.2,2-.5,2.8c-.3.8-.9,1.5-1.5,2-.7.5-1.5.7-2.5.7ZM183.5,395.6c.5,0,1-.2,1.4-.5.4-.3.7-.8.9-1.3s.3-1.2.3-2-.1-1.4-.3-1.9-.5-1-.9-1.3c-.4-.3-.9-.5-1.4-.5s-1,.2-1.4.5c-.4.3-.7.8-.9,1.3-.2.6-.3,1.2-.3,2s.1,1.4.3,1.9c.2.6.5,1,.9,1.3.4.3.9.5,1.4.5Z" style="fill:#fff; stroke-width:0px;"/><path d="M193.6,397.4c-1,0-1.8-.2-2.5-.7s-1.2-1.2-1.5-2c-.3-.8-.5-1.8-.5-2.8s.2-2,.5-2.8c.4-.8.9-1.5,1.6-2,.7-.5,1.5-.7,2.4-.7s1.9.3,2.6.8c.7.5,1.2,1.2,1.5,2,.3.8.5,1.8.5,2.8s-.2,2-.5,2.8c-.3.8-.9,1.5-1.5,2-.7.5-1.5.7-2.5.7ZM193.6,395.6c.5,0,1-.2,1.4-.5.4-.3.7-.8.9-1.3s.3-1.2.3-2-.1-1.4-.3-1.9-.5-1-.9-1.3c-.4-.3-.9-.5-1.4-.5s-1,.2-1.4.5c-.4.3-.7.8-.9,1.3-.2.6-.3,1.2-.3,2s.1,1.4.3,1.9c.2.6.5,1,.9,1.3.4.3.9.5,1.4.5Z" style="fill:#fff; stroke-width:0px;"/><path d="M203.8,386.6h1.9v10.6h-1.9v-10.6Z" style="fill:#fff; stroke-width:0px;"/><path d="M213.3,397.4c-1,0-2-.2-2.9-.7-.9-.5-1.6-1.2-2.1-2s-.8-1.8-.8-2.8.3-1.9.8-2.8c.5-.8,1.2-1.5,2.1-2,.9-.5,1.8-.7,2.9-.7s2,.2,2.9.7c.9.5,1.6,1.2,2.1,2,.5.8.8,1.8.8,2.8s-.3,1.9-.8,2.8-1.2,1.5-2.1,2c-.9.5-1.8.7-2.9.7ZM213.3,395.6c.7,0,1.3-.2,1.9-.5.6-.3,1-.8,1.4-1.3.3-.6.5-1.2.5-1.9s-.2-1.4-.5-1.9c-.3-.6-.8-1-1.4-1.4s-1.2-.5-1.9-.5-1.3.2-1.9.5-1,.8-1.4,1.4c-.3.6-.5,1.2-.5,1.9s.2,1.3.5,1.9.8,1,1.4,1.3,1.2.5,1.9.5ZM215,396.6l1.7-.8,1.9,2.7-1.8,1-1.8-2.9Z" style="fill:#fff; stroke-width:0px;"/><path d="M221,386.6h4.1c1.1,0,2.1.2,3,.7.9.4,1.5,1.1,2,1.9.5.8.7,1.7.7,2.8s-.2,2-.7,2.8-1.1,1.4-2,1.9c-.9.4-1.8.7-2.9.7h-4.1v-10.6ZM225,395.5c.8,0,1.4-.1,2-.4.6-.3,1-.7,1.3-1.2.3-.5.4-1.2.4-1.9s-.1-1.4-.4-1.9c-.3-.5-.7-1-1.3-1.3-.6-.3-1.2-.4-2-.4h-2.1v7.2h2.1Z" style="fill:#fff; stroke-width:0px;"/><path d="M161.4,474h-5.3v-1.4c-.1,0,5.1-7,5.1-7h2.2v6.8h1.7v1.6h-1.7v2.3h-1.9v-2.3ZM161.4,472.4v-4.4l-3.3,4.4h3.3Z" style="fill:#fff; stroke-width:0px;"/><path d="M166.8,474.5h1.8l-1.4,3.2h-1.4l.9-3.2Z" style="fill:#fff; stroke-width:0px;"/><path d="M173.9,476.5c-.7,0-1.3-.1-1.8-.4s-1.1-.6-1.5-1.2-.6-1.2-.7-2.1h1.9c0,.4.2.8.4,1s.5.5.8.6.6.2.9.2.7,0,1-.3.5-.4.7-.7.2-.6.2-1,0-.7-.3-1-.5-.5-.8-.6-.8-.2-1.2-.2h-2.1s-.8-.7-.8-.7l.6-4.7h5.9v1.6h-4.2l-.3,2.4h1.5c.8,0,1.4.1,2,.4s1,.6,1.3,1.1.5,1,.5,1.7-.2,1.3-.5,1.8-.8,1-1.4,1.4-1.3.5-2.1.5Z" style="fill:#fff; stroke-width:0px;"/><path d="M183.5,476.5c-1,0-1.8-.2-2.5-.7s-1.2-1.2-1.5-2-.5-1.8-.5-2.8.2-2,.5-2.8.9-1.5,1.6-2,1.5-.7,2.4-.7,1.9.3,2.6.8,1.2,1.2,1.5,2,.5,1.8.5,2.8-.2,2-.5,2.8-.9,1.5-1.5,2-1.5.7-2.5.7ZM183.5,474.7c.5,0,1-.2,1.4-.5s.7-.8.9-1.3.3-1.2.3-2-.1-1.4-.3-1.9-.5-1-.9-1.3-.9-.5-1.4-.5-1,.2-1.4.5-.7.8-.9,1.3-.3,1.2-.3,2,.1,1.4.3,1.9.5,1,.9,1.3.9.5,1.4.5Z" style="fill:#fff; stroke-width:0px;"/><path d="M193.6,476.5c-1,0-1.8-.2-2.5-.7s-1.2-1.2-1.5-2-.5-1.8-.5-2.8.2-2,.5-2.8.9-1.5,1.6-2,1.5-.7,2.4-.7,1.9.3,2.6.8,1.2,1.2,1.5,2,.5,1.8.5,2.8-.2,2-.5,2.8-.9,1.5-1.5,2-1.5.7-2.5.7ZM193.6,474.7c.5,0,1-.2,1.4-.5s.7-.8.9-1.3.3-1.2.3-2-.1-1.4-.3-1.9-.5-1-.9-1.3-.9-.5-1.4-.5-1,.2-1.4.5-.7.8-.9,1.3-.3,1.2-.3,2,.1,1.4.3,1.9.5,1,.9,1.3.9.5,1.4.5Z" style="fill:#fff; stroke-width:0px;"/><path d="M203.8,465.6h1.9v10.6h-1.9v-10.6Z" style="fill:#fff; stroke-width:0px;"/><path d="M213.3,476.5c-1,0-2-.2-2.9-.7s-1.6-1.2-2.1-2-.8-1.8-.8-2.8.3-1.9.8-2.8,1.2-1.5,2.1-2,1.8-.7,2.9-.7,2,.2,2.9.7,1.6,1.2,2.1,2,.8,1.8.8,2.8-.3,1.9-.8,2.8-1.2,1.5-2.1,2-1.8.7-2.9.7ZM213.3,474.7c.7,0,1.3-.2,1.9-.5s1-.8,1.4-1.3.5-1.2.5-1.9-.2-1.4-.5-1.9-.8-1-1.4-1.4-1.2-.5-1.9-.5-1.3.2-1.9.5-1,.8-1.4,1.4-.5,1.2-.5,1.9.2,1.3.5,1.9.8,1,1.4,1.3,1.2.5,1.9.5ZM215,475.7l1.7-.8,1.9,2.7-1.8,1-1.8-2.9Z" style="fill:#fff; stroke-width:0px;"/><path d="M221,465.6h4.1c1.1,0,2.1.2,3,.7s1.5,1.1,2,1.9.7,1.7.7,2.8-.2,2-.7,2.8-1.1,1.4-2,1.9-1.8.7-2.9.7h-4.1v-10.6ZM225,474.5c.8,0,1.4-.1,2-.4s1-.7,1.3-1.2.4-1.2.4-1.9-.1-1.4-.4-1.9-.7-1-1.3-1.3-1.2-.4-2-.4h-2.1v7.2h2.1Z" style="fill:#fff; stroke-width:0px;"/><path d="M161.4,549h-5.3v-1.4c-.1,0,5.1-7,5.1-7h2.2v6.8h1.7v1.6h-1.7v2.3h-1.9v-2.3ZM161.4,547.4v-4.4l-3.3,4.4h3.3Z" style="fill:#fff; stroke-width:0px;"/><path d="M166.8,549.5h1.8l-1.4,3.2h-1.4l.9-3.2Z" style="fill:#fff; stroke-width:0px;"/><path d="M173.9,551.5c-.7,0-1.3-.1-1.8-.4s-1.1-.6-1.5-1.2-.6-1.2-.7-2.1h1.9c0,.4.2.8.4,1s.5.5.8.6.6.2.9.2.7,0,1-.3.5-.4.7-.7c.2-.3.2-.6.2-1s0-.7-.3-1c-.2-.3-.5-.5-.8-.6-.3-.1-.8-.2-1.2-.2h-2.1s-.8-.7-.8-.7l.6-4.7h5.9v1.6h-4.2l-.3,2.4h1.5c.8,0,1.4.1,2,.4.6.3,1,.6,1.3,1.1.3.5.5,1,.5,1.7s-.2,1.3-.5,1.8c-.3.6-.8,1-1.4,1.4s-1.3.5-2.1.5Z" style="fill:#fff; stroke-width:0px;"/><path d="M183.5,551.5c-1,0-1.8-.2-2.5-.7s-1.2-1.2-1.5-2c-.3-.8-.5-1.8-.5-2.8s.2-2,.5-2.8c.4-.8.9-1.5,1.6-2,.7-.5,1.5-.7,2.4-.7s1.9.3,2.6.8c.7.5,1.2,1.2,1.5,2,.3.8.5,1.8.5,2.8s-.2,2-.5,2.8c-.3.8-.9,1.5-1.5,2-.7.5-1.5.7-2.5.7ZM183.5,549.7c.5,0,1-.2,1.4-.5.4-.3.7-.8.9-1.3s.3-1.2.3-2-.1-1.4-.3-1.9-.5-1-.9-1.3c-.4-.3-.9-.5-1.4-.5s-1,.2-1.4.5c-.4.3-.7.8-.9,1.3-.2.6-.3,1.2-.3,2s.1,1.4.3,1.9c.2.6.5,1,.9,1.3.4.3.9.5,1.4.5Z" style="fill:#fff; stroke-width:0px;"/><path d="M193.6,551.5c-1,0-1.8-.2-2.5-.7s-1.2-1.2-1.5-2c-.3-.8-.5-1.8-.5-2.8s.2-2,.5-2.8c.4-.8.9-1.5,1.6-2,.7-.5,1.5-.7,2.4-.7s1.9.3,2.6.8c.7.5,1.2,1.2,1.5,2,.3.8.5,1.8.5,2.8s-.2,2-.5,2.8c-.3.8-.9,1.5-1.5,2-.7.5-1.5.7-2.5.7ZM193.6,549.7c.5,0,1-.2,1.4-.5.4-.3.7-.8.9-1.3s.3-1.2.3-2-.1-1.4-.3-1.9-.5-1-.9-1.3c-.4-.3-.9-.5-1.4-.5s-1,.2-1.4.5c-.4.3-.7.8-.9,1.3-.2.6-.3,1.2-.3,2s.1,1.4.3,1.9c.2.6.5,1,.9,1.3.4.3.9.5,1.4.5Z" style="fill:#fff; stroke-width:0px;"/><path d="M203.8,540.6h1.9v10.6h-1.9v-10.6Z" style="fill:#fff; stroke-width:0px;"/><path d="M213.3,551.5c-1,0-2-.2-2.9-.7-.9-.5-1.6-1.2-2.1-2s-.8-1.8-.8-2.8.3-1.9.8-2.8c.5-.8,1.2-1.5,2.1-2,.9-.5,1.8-.7,2.9-.7s2,.2,2.9.7c.9.5,1.6,1.2,2.1,2,.5.8.8,1.8.8,2.8s-.3,1.9-.8,2.8-1.2,1.5-2.1,2c-.9.5-1.8.7-2.9.7ZM213.3,549.7c.7,0,1.3-.2,1.9-.5.6-.3,1-.8,1.4-1.3.3-.6.5-1.2.5-1.9s-.2-1.3-.5-1.9c-.3-.6-.8-1-1.4-1.4s-1.2-.5-1.9-.5-1.3.2-1.9.5-1,.8-1.4,1.4c-.3.6-.5,1.2-.5,1.9s.2,1.3.5,1.9.8,1,1.4,1.3,1.2.5,1.9.5ZM215,550.7l1.7-.8,1.9,2.7-1.8,1-1.8-2.9Z" style="fill:#fff; stroke-width:0px;"/><path d="M221,540.6h4.1c1.1,0,2.1.2,3,.7.9.4,1.5,1.1,2,1.9.5.8.7,1.7.7,2.8s-.2,2-.7,2.8-1.1,1.4-2,1.9c-.9.4-1.8.7-2.9.7h-4.1v-10.6ZM225,549.5c.8,0,1.4-.1,2-.4.6-.3,1-.7,1.3-1.2.3-.5.4-1.2.4-1.9s-.1-1.4-.4-1.9c-.3-.5-.7-1-1.3-1.3-.6-.3-1.2-.4-2-.4h-2.1v7.2h2.1Z" style="fill:#fff; stroke-width:0px;"/><rect x="262.6" y="546.8" width="140.5" height=".6" style="fill:#fff; stroke-width:0px;"/><rect x="44.9" y="101.4" width="246.2" height="54" style="fill:#ee304c; stroke-width:0px;"/><path d="M124.4,119.5h-.1v18.4h-5.4v-19.7h10.1l3.6,19.3h.1l3.6-19.3h10.1v19.7h-5.4v-18.4h-.1l-3.6,18.4h-9.2l-3.6-18.4Z" style="fill:#fff; stroke-width:0px;"/><path d="M154,137.2c-1.8-.8-3.1-2-4-3.5-.9-1.5-1.4-3.4-1.4-5.5s.5-4,1.4-5.6c.9-1.6,2.3-2.7,4-3.6,1.8-.8,3.9-1.2,6.3-1.2s4.5.4,6.3,1.2c1.8.8,3.1,2,4,3.6.9,1.6,1.4,3.4,1.4,5.6s-.5,4-1.4,5.5c-.9,1.5-2.3,2.7-4,3.5-1.8.8-3.9,1.2-6.3,1.2s-4.6-.4-6.3-1.2ZM155.9,132.3c1.1,1,2.6,1.5,4.5,1.5s3.4-.5,4.5-1.5c1.1-1,1.6-2.4,1.6-4.2s-.5-3.2-1.6-4.2c-1.1-1-2.6-1.5-4.5-1.5s-3.4.5-4.5,1.5c-1.1,1-1.6,2.4-1.6,4.2s.5,3.2,1.6,4.2Z" style="fill:#fff; stroke-width:0px;"/><path d="M176.3,133.7c1.4,0,2.5-.4,3.3-1.1.8-.7,1.1-1.7,1.1-3v-11.4h5.4v11.5c0,2.8-.8,4.9-2.5,6.4-1.7,1.5-4,2.2-7.1,2.2s-3.1-.2-4.3-.5l.3-4.7c.9.3,2.1.5,3.7.5Z" style="fill:#fff; stroke-width:0px;"/><path d="M193.9,118.2v19.7h-5.4v-19.7h5.4Z" style="fill:#fff; stroke-width:0px;"/><path d="M202.2,122.6h-6.6v-4.4h18.6v4.4h-6.6v15.3h-5.4v-15.3Z" style="fill:#fff; stroke-width:0px;"/><path d="M219.9,137.2c-1.8-.8-3.1-2-4-3.5-.9-1.5-1.4-3.4-1.4-5.5s.5-4,1.4-5.6c.9-1.6,2.3-2.7,4-3.6,1.8-.8,3.9-1.2,6.3-1.2s4.5.4,6.3,1.2c1.8.8,3.1,2,4,3.6.9,1.6,1.4,3.4,1.4,5.6s-.5,4-1.4,5.5c-.9,1.5-2.3,2.7-4,3.5-1.8.8-3.9,1.2-6.3,1.2s-4.6-.4-6.3-1.2ZM221.8,132.3c1.1,1,2.6,1.5,4.5,1.5s3.4-.5,4.5-1.5c1.1-1,1.6-2.4,1.6-4.2s-.5-3.2-1.6-4.2c-1.1-1-2.6-1.5-4.5-1.5s-3.4.5-4.5,1.5c-1.1,1-1.6,2.4-1.6,4.2s.5,3.2,1.6,4.2Z" style="fill:#fff; stroke-width:0px;"/><polygon points="238 98.2 253.2 112.8 247.5 89.2 238 98.2" style="fill:#171a23; stroke-width:0px;"/><polygon points="494.9 158.3 510.2 143.6 504.4 167.2 494.9 158.3" style="fill:#171a23; stroke-width:0px;"/><polygon points="87.2 157.7 102.4 143.1 96.7 166.7 87.2 157.7" style="fill:#171a23; stroke-width:0px;"/><path d="M159.7,201.8v7.9h5.4v1.2h-6.9v-9.1h1.5Z" style="fill:#fff; stroke-width:0px;"/><path d="M170.6,208.6h0c0,.4-.2.8-.4,1.2s-.5.7-.9.9c-.4.2-.9.4-1.5.4s-1.3-.2-1.7-.5-.6-.8-.6-1.4.2-1.1.7-1.4c.5-.3,1.1-.5,2-.5s1.6,0,2.3.2v-.3c0-.5-.2-1-.5-1.2-.3-.3-.8-.4-1.4-.4s-.8,0-1.2.1c-.4,0-.8.2-1.1.4v-1.1c.2-.2.7-.3,1.1-.4.4,0,.9-.1,1.3-.1,1,0,1.8.2,2.3.7.5.5.8,1.1.8,2v3.9h-.9l-.3-2.3ZM167.3,209.7c.3.2.6.3,1.1.3s1.1-.2,1.5-.5c.4-.4.7-.9.7-1.6h0c-.6-.1-1.2-.2-1.8-.2s-1.1.1-1.4.3c-.3.2-.5.5-.5.9s.1.6.4.8Z" style="fill:#fff; stroke-width:0px;"/><path d="M174.5,204.5l.4,2.6h0c0-.8.2-1.5.6-2,.3-.5.8-.8,1.4-.8s.6,0,.9.2v1.3c-.4-.1-.8-.2-1.1-.2-.6,0-1.1.3-1.4.8s-.4,1.3-.4,2.3v2.2h-1.4v-6.4h.9Z" style="fill:#fff; stroke-width:0px;"/><path d="M181.3,209.5c-.6,0-1.1,0-1.3.1s-.4.2-.4.4,0,.3.2.3.4.1.7.2l2.7.3c.7,0,1.2.2,1.5.4s.5.6.5,1-.1.9-.4,1.3h-1.4c.2-.2.3-.4.4-.5,0-.2.1-.3.1-.5,0-.2,0-.4-.3-.5-.2,0-.4-.2-.8-.2l-2.8-.3c-.7,0-1.1-.2-1.4-.4-.3-.2-.4-.4-.4-.7s.2-.6.6-.8c.4-.2,1-.2,1.9-.3h0c-.9-.1-1.5-.4-1.9-.8s-.6-1-.6-1.7.2-1.4.7-1.9c.5-.5,1.2-.7,2.1-.7s1.4.2,1.8.6c.4.4.6.9.7,1.4h0l.3-2.6h.9v3.3h0c0,.8-.3,1.4-.8,1.8-.6.4-1.4.7-2.4.7h-.1ZM180,208.1c.3.3.8.4,1.5.4s1.1-.1,1.5-.4c.3-.3.5-.7.5-1.2s-.2-.9-.5-1.2-.8-.4-1.4-.4-1.1.1-1.5.4c-.3.3-.5.7-.5,1.2s.2.9.5,1.2Z" style="fill:#fff; stroke-width:0px;"/><path d="M186.7,210.2c-.7-.6-1-1.4-1-2.5s.3-1.9.9-2.5,1.5-.9,2.5-.9,1.9.3,2.5.8.9,1.3.9,2.4c0,.2,0,.3,0,.5h-5.4c0,.7.3,1.2.7,1.5.4.3,1,.5,1.7.5s.7,0,1-.1c.4,0,.7-.2.9-.4v1.1c-.2.1-.5.3-.9.3-.4,0-.8.1-1.1.1-1.1,0-2-.3-2.7-.9ZM191.2,207.4c0-.6-.2-1.1-.6-1.5s-.9-.5-1.5-.5-1.1.2-1.5.6c-.4.4-.6.9-.6,1.6l4.2-.2Z" style="fill:#fff; stroke-width:0px;"/><path d="M46.4,201h0v8.7h-1.5v-9.1h2.8l3,8.9h0l3-8.9h2.8v9.1h-1.5v-8.7h0l-3,8.7h-2.5l-3-8.7Z" style="fill:#fff; stroke-width:0px;"/><path d="M58.9,209c-.7-.6-1-1.4-1-2.5s.3-1.9.9-2.5,1.5-.9,2.5-.9,1.9.3,2.5.8.9,1.3.9,2.4c0,.2,0,.3,0,.5h-5.4c0,.7.3,1.2.7,1.5.4.3,1,.5,1.7.5s.7,0,1-.1c.4,0,.7-.2.9-.4v1.1c-.2.1-.5.3-.9.3-.4,0-.8.1-1.1.1-1.1,0-2-.3-2.7-.9ZM63.4,206.2c0-.6-.2-1.1-.6-1.5s-.9-.5-1.5-.5-1.1.2-1.5.6c-.4.4-.6.9-.6,1.6l4.2-.2Z" style="fill:#fff; stroke-width:0px;"/><path d="M72.7,209.7h-.9l-.4-2.4h0c0,.8-.4,1.4-.9,1.9-.5.5-1.1.7-1.9.7s-1.7-.3-2.2-.9c-.5-.6-.8-1.4-.8-2.5s.3-1.9.8-2.5,1.2-.9,2.2-.9,1.5.2,2,.7c.5.4.8,1.1.9,1.9h0v-2.1c0,0,0-3.5,0-3.5h1.4v9.6ZM67.4,208.2c.4.4.9.6,1.6.6s1.3-.2,1.7-.6c.4-.4.6-1,.6-1.7s-.2-1.2-.6-1.6c-.4-.4-1-.6-1.7-.6s-1.2.2-1.6.6c-.4.4-.6,1-.6,1.7s.2,1.3.6,1.7Z" style="fill:#fff; stroke-width:0px;"/><path d="M76,209.7h-1.4v-5.3h-.6v-1.1h2v6.4ZM74.5,202c-.2-.1-.2-.3-.2-.5s0-.4.2-.5c.2-.1.4-.2.6-.2s.5,0,.6.2c.2.1.2.3.2.5s0,.4-.2.5c-.1.1-.4.2-.6.2s-.5,0-.6-.2Z" style="fill:#fff; stroke-width:0px;"/><path d="M83.5,209.7l-.4-2.5h0c0,.8-.4,1.4-.8,1.9s-1.1.7-1.9.7-1.5-.2-1.9-.7-.7-1.2-.7-2.1v-3.7h1.4v3.6c0,.6.2,1,.5,1.4.3.3.8.5,1.4.5s1.2-.2,1.6-.7c.4-.5.6-1.1.6-1.9v-2.8h1.4v6.4h-.9Z" style="fill:#fff; stroke-width:0px;"/><path d="M95.5,204.7c-.3-.3-.6-.5-1.1-.5s-1.1.2-1.4.7c-.3.5-.5,1.1-.5,1.9v2.8h-1.4v-3.6c0-.6-.1-1.1-.4-1.4s-.6-.5-1.1-.5-1.1.2-1.4.7c-.3.5-.5,1.1-.5,1.9v2.8h-1.4v-6.4h.9l.4,2.5h0c0-.5.1-.9.3-1.3s.5-.7.8-1c.4-.2.8-.4,1.3-.4.7,0,1.3.2,1.7.7.4.5.6,1.1.7,2h0c0-.8.3-1.4.7-1.9s1-.8,1.7-.8,1.4.2,1.8.7.6,1.2.6,2.1v3.8h-1.4v-3.6c0-.6-.1-1.1-.4-1.4Z" style="fill:#fff; stroke-width:0px;"/><path d="M281.9,764.2h-3.5l-4.5-8.9h4.2l3.9,8.4h.1l4-8.4h4.2l-7,13.7h-3.7l2.3-4.8Z" style="fill:#fff; stroke-width:0px;"/><path d="M292,755.4h7.3l4.6,13.7h-4.1l-.8-2.8h-6.5l-.8,2.8h-4.1l4.6-13.7ZM298.1,763.6l-2.4-7.9h0l-2.4,7.9h4.9Z" style="fill:#fff; stroke-width:0px;"/><path d="M308.6,755.4v10.6h7.6v3h-11.4v-13.7h3.8Z" style="fill:#fff; stroke-width:0px;"/><path d="M321.1,755.4v10.6h7.6v3h-11.4v-13.7h3.8Z" style="fill:#fff; stroke-width:0px;"/><path d="M333.9,755.4h7.3l4.6,13.7h-4.1l-.8-2.8h-6.5l-.8,2.8h-4.1l4.6-13.7ZM340,763.6l-2.4-7.9h0l-2.4,7.9h4.9Z" style="fill:#fff; stroke-width:0px;"/><path d="M251.7,774.1l4.4,13.4h0v-13.4h3.7v13.7h-7.4l-4.4-13.5h0v13.5h-3.7v-13.7h7.4Z" style="fill:#fff; stroke-width:0px;"/><path d="M273.8,774.1v3h-8.1v2.5h6.2v2.6h-6.2v2.5h8.3v3h-12.1v-13.7h11.8Z" style="fill:#fff; stroke-width:0px;"/><path d="M282.8,780.9l-4,6.9h-4.3l4.6-7-4.3-6.7h4.3l3.8,6.5,3.8-6.5h4.3l-4.3,6.7,4.6,7h-4.3l-4-6.9Z" style="fill:#fff; stroke-width:0px;"/><path d="M295.9,777.1h-4.6v-3h12.9v3h-4.6v10.6h-3.8v-10.6Z" style="fill:#fff; stroke-width:0px;"/><path d="M313.1,774.1v10.6h7.6v3h-11.4v-13.7h3.8Z" style="fill:#fff; stroke-width:0px;"/><path d="M333.7,774.1v3h-8.1v2.5h6.2v2.6h-6.2v2.5h8.3v3h-12.1v-13.7h11.8Z" style="fill:#fff; stroke-width:0px;"/><path d="M346.2,787.7h-7.6l-4.4-13.7h4.1l4.1,13.4h0l4-13.4h4.1l-4.4,13.7Z" style="fill:#fff; stroke-width:0px;"/><path d="M363.5,774.1v3h-8.1v2.5h6.2v2.6h-6.2v2.5h8.3v3h-12.1v-13.7h11.8Z" style="fill:#fff; stroke-width:0px;"/><path d="M368.8,774.1v10.6h7.6v3h-11.4v-13.7h3.8Z" style="fill:#fff; stroke-width:0px;"/><path d="M348.4,756.1h-1.3v-.7h3.5v.7h-1.3v3.8h-.8v-3.8Z" style="fill:#fff; stroke-width:0px;"/><path d="M351.2,755.4h.7l1.5,2.1h0s1.6-2.1,1.6-2.1h.7v4.5h-.8v-3.2l-1.3,1.8h-.2l-1.3-1.8v3.2h-.8v-4.5Z" style="fill:#fff; stroke-width:0px;"/></svg>