<?xml version="1.0" encoding="UTF-8"?><svg id="Layer_1" xmlns="http://www.w3.org/2000/svg" viewBox="0 0 595.3 841.9"><rect x="-2976.4" y="-1.4" width="7740.4" height="845.9" style="fill:#171a23; stroke-width:0px;"/><path d="M48.8,50h0v9.8h-2.9v-10.5h5.3l1.9,10.3h0l1.9-10.3h5.3v10.5h-2.9v-9.8h0l-1.9,9.8h-4.9l-1.9-9.8Z" style="fill:#fff; stroke-width:0px;"/><path d="M71.1,49.3v2.3h-6.2v1.9h4.7v2h-4.7v1.9h6.4v2.3h-9.2v-10.5h9.1Z" style="fill:#fff; stroke-width:0px;"/><path d="M77.9,49.3l3.4,10.2h0v-10.2h2.8v10.5h-5.7l-3.4-10.3h0v10.3h-2.8v-10.5h5.7Z" style="fill:#fff; stroke-width:0px;"/><path d="M95.2,58.8c-1,.8-2.4,1.2-4.2,1.2s-3.2-.4-4.2-1.2c-1-.8-1.5-2-1.5-3.5v-6h2.9v6c0,.8.2,1.4.7,1.8.5.4,1.2.6,2,.6s1.6-.2,2-.6c.5-.4.7-1,.7-1.8v-6h2.9v6c0,1.5-.5,2.7-1.5,3.5Z" style="fill:#fff; stroke-width:0px;"/><path d="M106.6,49.3l3.4,10.2h0v-10.2h2.8v10.5h-5.7l-3.4-10.3h0v10.3h-2.8v-10.5h5.7Z" style="fill:#fff; stroke-width:0px;"/><path d="M123.5,49.3v2.3h-6.2v1.9h4.7v2h-4.7v1.9h6.4v2.3h-9.2v-10.5h9.1Z" style="fill:#fff; stroke-width:0px;"/><path d="M130.5,54.5l-3.1,5.3h-3.3l3.5-5.4-3.3-5.1h3.3l2.9,5,2.9-5h3.3l-3.3,5.1,3.5,5.4h-3.3l-3.1-5.3Z" style="fill:#fff; stroke-width:0px;"/><path d="M140.5,51.6h-3.5v-2.3h9.9v2.3h-3.5v8.1h-2.9v-8.1Z" style="fill:#fff; stroke-width:0px;"/><path d="M153.7,49.3v8.1h5.8v2.3h-8.7v-10.5h2.9Z" style="fill:#fff; stroke-width:0px;"/><path d="M169.4,49.3v2.3h-6.2v1.9h4.7v2h-4.7v1.9h6.4v2.3h-9.2v-10.5h9.1Z" style="fill:#fff; stroke-width:0px;"/><path d="M179,59.8h-5.8l-3.4-10.5h3.2l3.1,10.3h0l3.1-10.3h3.2l-3.4,10.5Z" style="fill:#fff; stroke-width:0px;"/><path d="M192.3,49.3v2.3h-6.2v1.9h4.7v2h-4.7v1.9h6.4v2.3h-9.2v-10.5h9.1Z" style="fill:#fff; stroke-width:0px;"/><path d="M196.3,49.3v8.1h5.8v2.3h-8.7v-10.5h2.9Z" style="fill:#fff; stroke-width:0px;"/><path d="M542.6,53.4c.3-.2.7-.3,1.1-.3s.6,0,.8.2c.3.1.5.3.7.5.2.2.3.5.4.8h1.2c0-.5-.3-1-.6-1.4-.3-.4-.7-.6-1.1-.8s-.9-.3-1.3-.3-1.2.1-1.7.4-.9.7-1.2,1.2c-.3.5-.4,1.1-.4,1.7s.1,1.2.4,1.7c.3.5.7.9,1.2,1.2s1.1.4,1.7.4.9,0,1.3-.3c.4-.2.8-.5,1.1-.8.3-.4.5-.8.6-1.4h-1.2c0,.3-.2.6-.4.8-.2.2-.4.4-.7.5-.3.1-.5.2-.8.2s-.8,0-1.1-.3c-.3-.2-.6-.4-.8-.8-.2-.3-.3-.7-.3-1.2s0-.8.3-1.2c.2-.3.4-.6.8-.8Z" style="fill:#fff; stroke-width:0px;"/><path d="M543.7,49.8c-3.1,0-5.6,2.5-5.6,5.6s2.5,5.6,5.6,5.6,5.6-2.5,5.6-5.6-2.5-5.6-5.6-5.6ZM543.7,60.3c-2.7,0-4.8-2.2-4.8-4.8s2.2-4.8,4.8-4.8,4.8,2.2,4.8,4.8-2.2,4.8-4.8,4.8Z" style="fill:#fff; stroke-width:0px;"/><path d="M496.5,59.8l3.6-3.2c.5-.5.9-.9,1.2-1.2s.5-.6.7-1c.2-.3.3-.6.3-1s0-.6-.2-.9c-.2-.3-.4-.5-.6-.6-.3-.1-.6-.2-.9-.2s-.7,0-1,.2c-.3.2-.5.4-.7.8-.2.4-.3.8-.3,1.4h-2c0-.8.1-1.4.4-2.1s.7-1.2,1.3-1.6c.6-.4,1.3-.6,2.2-.6s1.5.2,2,.5c.6.3,1,.7,1.3,1.3.3.5.5,1.1.5,1.8s0,.9-.2,1.3-.4.8-.7,1.2c-.3.4-.7.8-1.2,1.2l-2.7,2.4.9-.2h4.1v1.7h-8v-1.1Z" style="fill:#fff; stroke-width:0px;"/><path d="M510.2,61.2c-1,0-1.9-.3-2.6-.8s-1.2-1.2-1.6-2c-.4-.9-.5-1.8-.5-2.9s.2-2.1.5-2.9c.4-.9.9-1.6,1.6-2.1.7-.5,1.5-.8,2.5-.8s2,.3,2.7.8,1.2,1.2,1.5,2.1.5,1.8.5,2.8-.2,2-.5,2.9-.9,1.5-1.6,2.1-1.6.8-2.6.8ZM510.2,59.4c.5,0,1-.2,1.4-.5.4-.3.7-.8.9-1.4.2-.6.3-1.3.3-2s-.1-1.4-.3-2c-.2-.6-.5-1-.9-1.4s-.9-.5-1.5-.5-1,.2-1.4.5c-.4.3-.7.8-.9,1.4-.2.6-.3,1.3-.3,2s.1,1.4.3,2c.2.6.5,1,.9,1.4.4.3.9.5,1.4.5Z" style="fill:#fff; stroke-width:0px;"/><path d="M515.9,59.8l3.6-3.2c.5-.5.9-.9,1.2-1.2s.5-.6.7-1c.2-.3.3-.6.3-1s0-.6-.2-.9c-.2-.3-.4-.5-.6-.6-.3-.1-.6-.2-.9-.2s-.7,0-1,.2c-.3.2-.5.4-.7.8-.2.4-.3.8-.3,1.4h-2c0-.8.1-1.4.4-2.1s.7-1.2,1.3-1.6c.6-.4,1.3-.6,2.2-.6s1.5.2,2,.5c.6.3,1,.7,1.3,1.3.3.5.5,1.1.5,1.8s0,.9-.2,1.3-.4.8-.7,1.2c-.3.4-.7.8-1.2,1.2l-2.7,2.4.9-.2h4.1v1.7h-8v-1.1Z" style="fill:#fff; stroke-width:0px;"/><path d="M529.2,61.2c-.7,0-1.3-.1-1.9-.4-.6-.2-1.1-.6-1.5-1.2s-.6-1.2-.7-2.1h1.9c0,.4.2.8.4,1,.2.3.5.5.8.6.3.1.6.2.9.2s.7,0,1.1-.3c.3-.2.6-.4.7-.7.2-.3.3-.6.3-1s0-.7-.3-1-.5-.5-.8-.6c-.4-.1-.8-.2-1.3-.2h-2.2s-.9-.7-.9-.7l.7-4.8h6v1.6h-4.3l-.3,2.5h1.6c.8,0,1.5.1,2,.4.6.3,1,.6,1.3,1.1.3.5.5,1.1.5,1.8s-.2,1.3-.5,1.9c-.3.6-.8,1-1.4,1.4-.6.4-1.3.5-2.1.5Z" style="fill:#fff; stroke-width:0px;"/><rect x="260.2" y="101.4" width="290.2" height="54" style="fill:#fff; stroke-width:0px;"/><path d="M358.8,137.4c0,.2-.1.3-.3.3-2.8,0-4.7-.8-5.8-2.2-2.1,1.4-4.6,2.2-7.8,2.2h-4c-4.8,0-7.2-2.2-7.2-6.5s.1-2.8.5-4.7l3.9.5c-.2,1.4-.3,2.2-.3,2.8,0,2.2,1.3,3.1,4.2,3.1h2.9c3.1,0,5.2-.3,6.7-1.1v-14.7s4.5-.5,4.5-.5v13.3c0,2.1.8,3,2.4,3s.3.1.3.3v4.2ZM348.2,127.5h-6.8v-2.9h1.4c-.3-.5-.4-1-.4-1.5,0-1.8,1.4-3.1,3.3-3.1s1.4.2,2.3.6v2.6c-.9-.3-1.5-.4-2-.4-.8,0-1.3.3-1.3,1s.1.6.3.9h4l-.9,2.9Z" style="fill:#171a23; stroke-width:0px;"/><path d="M364.4,133.2v4.2c0,.2-.1.3-.3.3h-5.6c-.2,0-.3-.1-.3-.3v-4.2c0-.2.1-.3.3-.3h5.6c.2,0,.3.1.3.3Z" style="fill:#171a23; stroke-width:0px;"/><path d="M370,133.2v4.2c0,.2-.1.3-.3.3h-5.6c-.2,0-.3-.1-.3-.3v-4.2c0-.2.1-.3.3-.3h5.6c.2,0,.3.1.3.3Z" style="fill:#171a23; stroke-width:0px;"/><path d="M375.6,133.2v4.2c0,.2-.1.3-.3.3h-5.6c-.2,0-.3-.1-.3-.3v-4.2c0-.2.1-.3.3-.3h5.6c.2,0,.3.1.3.3Z" style="fill:#171a23; stroke-width:0px;"/><path d="M381.2,133.2v4.2c0,.2-.1.3-.3.3h-5.6c-.2,0-.3-.1-.3-.3v-4.2c0-.2.1-.3.3-.3h5.6c.2,0,.3.1.3.3Z" style="fill:#171a23; stroke-width:0px;"/><path d="M392.4,133.2v4.2c0,.2-.1.3-.3.3-1.5,0-3.2-.8-4.5-2.2-1.3,1.4-3.6,2.2-6.6,2.2s-.3-.1-.3-.3v-4.2c0-.2.2-.3.3-.3,2.3,0,3.5-.9,3.5-2.9v-3.5s4.5-.5,4.5-.5v6c1,.6,2.1.9,3.2.9s.3.1.3.3ZM388.6,139.1l3,3-3,3-2.1-2.1-2.1,2.1-3-3,3-3,2.1,2.1,2.1-2.1Z" style="fill:#171a23; stroke-width:0px;"/><path d="M417.1,123v8.6c0,3.9-2.1,6.1-6.1,6.1s-3.2-.5-4.8-1.6c-1.1,1-2.7,1.6-4.7,1.6s-2.9-.5-4.3-1.7c-1.2,1.1-2.9,1.7-5.2,1.7s-.3-.1-.3-.3v-4.2c0-.2.1-.3.3-.3,1.6,0,2.4-.9,2.4-2.9v-3.5s4.5-.5,4.5-.5v5.6c0,.3,0,.6,0,.9.7.3,1.4.4,2.2.4,1.6,0,2.4-.9,2.4-2.9v-3.5s4.5-.5,4.5-.5v5.6c0,.3,0,.6,0,1,.7.2,1.4.3,2.2.3,1.6,0,2.4-1,2.4-2.9v-6.4l4.5-.5ZM403.5,123.1l-3-3,3-3,2.3,2.2,2.3-2.2,3,3-2.9,3-2.3-2.3-2.3,2.3ZM405.8,117.9l-1.9-1.9,1.9-1.9,2,1.9-1.9,1.9Z" style="fill:#171a23; stroke-width:0px;"/><path d="M450.4,137.4c0,.2-.1.3-.3.3-2.8,0-4.7-.8-5.8-2.2-2.1,1.4-4.6,2.2-7.8,2.2h-4c-4.8,0-7.2-2.2-7.2-6.5s.1-2.8.5-4.7l3.9.5c-.2,1.4-.3,2.2-.3,2.8,0,2.2,1.3,3.1,4.2,3.1h2.9c3.1,0,5.2-.3,6.7-1.1v-14.7s4.5-.5,4.5-.5v13.3c0,2.1.8,3,2.4,3s.3.1.3.3v4.2ZM439.8,127.5h-6.8v-2.9h1.4c-.3-.5-.4-1-.4-1.5,0-1.8,1.4-3.1,3.3-3.1s1.4.2,2.3.6v2.6c-.9-.3-1.5-.4-2-.4-.8,0-1.3.3-1.3,1s.1.6.3.9h4l-.9,2.9Z" style="fill:#171a23; stroke-width:0px;"/><path d="M456,133.2v4.2c0,.2-.1.3-.3.3h-5.6c-.2,0-.3-.1-.3-.3v-4.2c0-.2.1-.3.3-.3h5.6c.2,0,.3.1.3.3Z" style="fill:#171a23; stroke-width:0px;"/><path d="M461.6,133.2v4.2c0,.2-.1.3-.3.3h-5.6c-.2,0-.3-.1-.3-.3v-4.2c0-.2.1-.3.3-.3h5.6c.2,0,.3.1.3.3Z" style="fill:#171a23; stroke-width:0px;"/><path d="M467.2,133.2v4.2c0,.2-.1.3-.3.3h-5.6c-.2,0-.3-.1-.3-.3v-4.2c0-.2.1-.3.3-.3h5.6c.2,0,.3.1.3.3Z" style="fill:#171a23; stroke-width:0px;"/><path d="M476.7,137.4c0,.2-.1.3-.3.3-2.5,0-4.4-.6-5.5-1.8-1.3,1.2-2.5,1.8-4,1.8s-.3-.1-.3-.3v-4.2c0-.2.1-.3.3-.3,1.1,0,1.9-.3,2.6-.8,0-.2,0-.4,0-.6v-14.4s4.5-.5,4.5-.5v13.3c0,2.1.8,3,2.4,3s.3.1.3.3v4.2Z" style="fill:#171a23; stroke-width:0px;"/><path d="M487.9,133.2v4.2c0,.2-.1.3-.3.3-1.5,0-3.2-.8-4.5-2.2-1.3,1.4-3.6,2.2-6.6,2.2s-.3-.1-.3-.3v-4.2c0-.2.2-.3.3-.3,2.3,0,3.5-.9,3.5-2.9v-3.5s4.5-.5,4.5-.5v6c1,.6,2.1.9,3.2.9s.3.1.3.3ZM484.1,139.1l3,3-3,3-2.1-2.1-2.1,2.1-3-3,3-3,2.1,2.1,2.1-2.1Z" style="fill:#171a23; stroke-width:0px;"/><path d="M504.5,133.2v4.2c0,.2,0,.3-.3.3h-6.8c-2,0-3.7-.5-5.1-1.4-1.5.9-3.2,1.4-4.7,1.4s-.3-.1-.3-.3v-4.2c0-.2.1-.3.3-.3.8,0,1.5-.1,2.1-.3-.3-.9-.4-1.8-.4-2.8,0-4,3-7,7.1-7s6.8,2.9,6.8,6.6-.2,2.3-.6,3.6h1.6c.2,0,.3.1.3.3ZM498.9,132.9c.3-1.2.4-2.2.4-3,0-1.6-1.2-2.9-2.7-2.9s-2.7,1.2-2.7,2.7,1.3,3.1,3.6,3.1h1.4Z" style="fill:#171a23; stroke-width:0px;"/><path d="M503.9,137.4v-4.2c0-.2.1-.3.3-.3,1.6,0,2.4-.9,2.4-3v-12.8s4.5-.5,4.5-.5v15c0,4.1-2.3,6.1-7,6.1s-.3-.1-.3-.3Z" style="fill:#171a23; stroke-width:0px;"/><path d="M515.3,117.1l4.5-.5v21.1h-4.5v-20.6Z" style="fill:#171a23; stroke-width:0px;"/><path d="M452.4,236.8v2.6c0,.1,0,.2-.2.2-1.2,0-2-.2-2.7-.7-1.1.6-2.1.8-3.1.8-2.6,0-4.4-2-4.4-4.6s1.8-4.8,4.4-4.8,1.2.1,1.8.3v-1l2.8-.3v6.1c0,.8.4,1.1,1,1.1s.2,0,.2.2ZM445.2,229.2l-1.9-1.9,1.9-1.9,1.4,1.4,1.4-1.4,1.9,1.9-1.9,1.9-1.5-1.4-1.4,1.4ZM448.4,236.7c0-.2,0-.5,0-.8v-2.4c-.6-.2-1.2-.3-1.7-.3-1.2,0-1.9.8-1.9,1.9s.8,1.8,1.8,1.8c.7,0,1.3,0,1.9-.3Z" style="fill:#fff; stroke-width:0px;"/><path d="M455.3,230.8l2.8-.3v5.4c0,2.5-1.4,3.8-4.4,3.8h-1.5c-.1,0-.2,0-.2-.2v-2.6c0-.1.1-.2.2-.2h1.5c1,0,1.5-.6,1.5-1.9v-4ZM455.2,229.3l-1.9-1.9,1.9-1.9,1.4,1.4,1.4-1.4,1.9,1.9-1.9,1.9-1.4-1.4-1.4,1.4Z" style="fill:#fff; stroke-width:0px;"/><path d="M472.1,239.5c0,.1,0,.2-.2.2-1.5,0-2.6-.3-3.3-1-1.1.5-3.3,1-4.5,1h-3.9l-.4-3h3.1l-1.4-7.2,2.8-.7,1.2,7.8c.7,0,1.4-.2,2-.3,0-.2,0-.3,0-.5v-9.1s2.8-.3,2.8-.3v8.4c0,1.3.5,1.9,1.5,1.9s.2,0,.2.2v2.6Z" style="fill:#fff; stroke-width:0px;"/><path d="M475.7,236.8v2.6c0,.1,0,.2-.2.2h-3.5c-.1,0-.2,0-.2-.2v-2.6c0-.1,0-.2.2-.2h3.5c.1,0,.2,0,.2.2Z" style="fill:#fff; stroke-width:0px;"/><path d="M479.2,236.8v2.6c0,.1,0,.2-.2.2h-3.5c-.1,0-.2,0-.2-.2v-2.6c0-.1,0-.2.2-.2h3.5c.1,0,.2,0,.2.2Z" style="fill:#fff; stroke-width:0px;"/><path d="M482.7,236.8v2.6c0,.1,0,.2-.2.2h-3.5c-.1,0-.2,0-.2-.2v-2.6c0-.1,0-.2.2-.2h3.5c.1,0,.2,0,.2.2Z" style="fill:#fff; stroke-width:0px;"/><path d="M486.3,236.8v2.6c0,.1,0,.2-.2.2h-3.5c-.1,0-.2,0-.2-.2v-2.6c0-.1,0-.2.2-.2h3.5c.1,0,.2,0,.2.2Z" style="fill:#fff; stroke-width:0px;"/><path d="M489.8,236.8v2.6c0,.1,0,.2-.2.2h-3.5c-.1,0-.2,0-.2-.2v-2.6c0-.1,0-.2.2-.2h3.5c.1,0,.2,0,.2.2Z" style="fill:#fff; stroke-width:0px;"/><path d="M493.4,236.8v2.6c0,.1,0,.2-.2.2h-3.5c-.1,0-.2,0-.2-.2v-2.6c0-.1,0-.2.2-.2h3.5c.1,0,.2,0,.2.2Z" style="fill:#fff; stroke-width:0px;"/><path d="M496.9,236.8v2.6c0,.1,0,.2-.2.2h-3.5c-.1,0-.2,0-.2-.2v-2.6c0-.1,0-.2.2-.2h3.5c.1,0,.2,0,.2.2Z" style="fill:#fff; stroke-width:0px;"/><path d="M500.5,236.8v2.6c0,.1,0,.2-.2.2h-3.5c-.1,0-.2,0-.2-.2v-2.6c0-.1,0-.2.2-.2h3.5c.1,0,.2,0,.2.2Z" style="fill:#fff; stroke-width:0px;"/><path d="M504,236.8v2.6c0,.1,0,.2-.2.2h-3.5c-.1,0-.2,0-.2-.2v-2.6c0-.1,0-.2.2-.2h3.5c.1,0,.2,0,.2.2Z" style="fill:#fff; stroke-width:0px;"/><path d="M507.5,236.8v2.6c0,.1,0,.2-.2.2h-3.5c-.1,0-.2,0-.2-.2v-2.6c0-.1,0-.2.2-.2h3.5c.1,0,.2,0,.2.2Z" style="fill:#fff; stroke-width:0px;"/><path d="M517.5,235.4c0,2.7-1.7,4.3-4.5,4.3h-5.7c-.1,0-.2,0-.2-.2v-2.6c0-.1,0-.2.2-.2h5.7c1,0,1.6-.5,1.6-1.3s-.6-1.3-1.6-1.3h-4.1l-1.5-2.6,5.2-6.4,2.5,1.4-4.8,5h2.5c2.8,0,4.6,1.5,4.6,3.9Z" style="fill:#fff; stroke-width:0px;"/><path d="M528.5,236.8v2.6c0,.1,0,.2-.2.2h-.9c-.3,2.8-3.2,3.9-7.5,3.9l-.3-2.3c3.1,0,4.6-.4,4.9-1.6h-1.5c-2.6,0-4.3-1.8-4.3-4.5s2-4.7,4.5-4.7,4.3,1.7,4.3,4.6v1.7h.9c.1,0,.2,0,.2.2ZM523.2,236.8c.4,0,.9,0,1.4,0v-1.6c0-1.2-.7-1.9-1.7-1.9s-1.7.7-1.7,1.7.9,1.8,2,1.8Z" style="fill:#fff; stroke-width:0px;"/><path d="M544.1,230.4v5.4c0,2.5-1.3,3.8-3.8,3.8s-2-.3-3-1c-.7.6-1.7,1-2.9,1s-1.8-.3-2.7-1.1c-.7.7-1.8,1.1-3.3,1.1s-.2,0-.2-.2v-2.6c0-.1,0-.2.2-.2,1,0,1.5-.6,1.5-1.9v-2.2s2.8-.3,2.8-.3v3.6c0,.2,0,.4,0,.5.5.2.9.3,1.4.3,1,0,1.5-.6,1.5-1.9v-2.2s2.8-.3,2.8-.3v3.6c0,.2,0,.4,0,.6.5.1.9.2,1.4.2,1,0,1.5-.6,1.5-1.9v-4.1l2.8-.3ZM535.5,230.4l-1.9-1.9,1.9-1.9,1.4,1.4,1.4-1.4,1.9,1.9-1.9,1.9-1.5-1.4-1.4,1.4ZM536.9,227.2l-1.2-1.2,1.2-1.2,1.2,1.2-1.2,1.2Z" style="fill:#fff; stroke-width:0px;"/><path d="M448.4,265.6c.7.7,1.8,1.1,3.2,1.1s1.2,0,1.8-.2,1.2-.3,1.7-.6v1.5c-.4.2-1,.4-1.7.6-.6.1-1.2.2-1.9.2-2,0-3.5-.5-4.6-1.4-1.1-1-1.6-2.3-1.6-4s.5-3.1,1.6-4c1.1-1,2.6-1.4,4.6-1.4s1.2,0,1.8.2c.6.1,1.2.3,1.8.5v1.5c-.6-.2-1.2-.4-1.8-.6-.6-.1-1.2-.2-1.8-.2-1.4,0-2.4.4-3.2,1.1-.7.7-1.1,1.7-1.1,3s.4,2.3,1.1,3Z" style="fill:#ee304c; stroke-width:0px;"/><path d="M466.8,257.3v10.5h-1.7v-4.5h-6.5v4.5h-1.7v-10.5h1.7v4.6h6.5v-4.6h1.7Z" style="fill:#ee304c; stroke-width:0px;"/><path d="M471.2,267.4c-.9-.4-1.5-1-2-1.9s-.7-1.8-.7-2.9.2-2.1.7-3,1.1-1.5,2-1.9,1.9-.7,3.1-.7,2.3.2,3.1.7c.9.4,1.5,1.1,2,1.9.5.8.7,1.8.7,3s-.2,2.1-.7,2.9c-.5.8-1.1,1.4-2,1.9-.9.4-1.9.6-3.1.6s-2.3-.2-3.1-.6ZM471.3,265.6c.7.7,1.7,1,3,1s2.3-.3,3-1c.7-.7,1.1-1.7,1.1-2.9s-.4-2.3-1.1-3c-.7-.7-1.7-1.1-3-1.1s-2.3.4-3,1.1c-.7.7-1.1,1.7-1.1,3s.4,2.2,1.1,2.9Z" style="fill:#ee304c; stroke-width:0px;"/><path d="M484.2,265.6c.7.7,1.8,1.1,3.2,1.1s1.2,0,1.8-.2,1.2-.3,1.7-.6v1.5c-.4.2-1,.4-1.7.6-.6.1-1.2.2-1.9.2-2,0-3.5-.5-4.6-1.4-1.1-1-1.6-2.3-1.6-4s.5-3.1,1.6-4c1.1-1,2.6-1.4,4.6-1.4s1.2,0,1.8.2c.6.1,1.2.3,1.8.5v1.5c-.6-.2-1.2-.4-1.8-.6-.6-.1-1.2-.2-1.8-.2-1.4,0-2.4.4-3.2,1.1-.7.7-1.1,1.7-1.1,3s.4,2.3,1.1,3Z" style="fill:#ee304c; stroke-width:0px;"/><path d="M494.8,267.4c-.9-.4-1.5-1-2-1.9s-.7-1.8-.7-2.9.2-2.1.7-3,1.1-1.5,2-1.9,1.9-.7,3.1-.7,2.3.2,3.1.7c.9.4,1.5,1.1,2,1.9.5.8.7,1.8.7,3s-.2,2.1-.7,2.9c-.5.8-1.1,1.4-2,1.9-.9.4-1.9.6-3.1.6s-2.3-.2-3.1-.6ZM495,265.6c.7.7,1.7,1,3,1s2.3-.3,3-1c.7-.7,1.1-1.7,1.1-2.9s-.4-2.3-1.1-3c-.7-.7-1.7-1.1-3-1.1s-2.3.4-3,1.1c-.7.7-1.1,1.7-1.1,3s.4,2.2,1.1,2.9Z" style="fill:#ee304c; stroke-width:0px;"/><path d="M507.2,257.3v9.1h6.2v1.4h-8v-10.5h1.7Z" style="fill:#ee304c; stroke-width:0px;"/><path d="M518.2,257.3h3.3l4.3,10.5h-1.9l-1-2.5h-6.1l-1,2.5h-1.9l4.3-10.5ZM522.5,264.1l-2.6-6.5h0l-2.6,6.5h5.1Z" style="fill:#ee304c; stroke-width:0px;"/><path d="M528.4,258.7h-3.7v-1.4h9.2v1.4h-3.8v9.1h-1.7v-9.1Z" style="fill:#ee304c; stroke-width:0px;"/><path d="M543.4,257.3v1.4h-6.6v3.2h5.4v1.2h-5.4v3.3h6.8v1.4h-8.5v-10.5h8.3Z" style="fill:#ee304c; stroke-width:0px;"/><path d="M440.7,323.3c1.5,0,2.6-.6,2.6-2.2v-8.4s2.8-.3,2.8-.3v8.8c0,3.2-1.7,4.3-5.2,4.3l-.2-2.3Z" style="fill:#fff; stroke-width:0px;"/><path d="M458.1,318.8v2.6c0,.1,0,.2-.2.2-1.1,0-2-.4-2.7-1.1-.7.7-1.9,1.1-3.4,1.1h-4.1l-.4-3h4.6c1,0,1.5-.6,1.5-1.4v-.6c0-1-.8-1.6-2-1.6h-1.2v-2.9h1.9c2.5,0,4.2,1.5,4.2,4.3v1.4c0,.1,0,.3,0,.4.5.3,1,.4,1.8.4s.2,0,.2.2Z" style="fill:#fff; stroke-width:0px;"/><path d="M461.6,318.8v2.6c0,.1,0,.2-.2.2h-3.5c-.1,0-.2,0-.2-.2v-2.6c0-.1,0-.2.2-.2h3.5c.1,0,.2,0,.2.2Z" style="fill:#fff; stroke-width:0px;"/><path d="M465.2,318.8v2.6c0,.1,0,.2-.2.2h-3.5c-.1,0-.2,0-.2-.2v-2.6c0-.1,0-.2.2-.2h3.5c.1,0,.2,0,.2.2Z" style="fill:#fff; stroke-width:0px;"/><path d="M468.7,318.8v2.6c0,.1,0,.2-.2.2h-3.5c-.1,0-.2,0-.2-.2v-2.6c0-.1,0-.2.2-.2h3.5c.1,0,.2,0,.2.2Z" style="fill:#fff; stroke-width:0px;"/><path d="M472.2,318.8v2.6c0,.1,0,.2-.2.2h-3.5c-.1,0-.2,0-.2-.2v-2.6c0-.1,0-.2.2-.2h3.5c.1,0,.2,0,.2.2Z" style="fill:#fff; stroke-width:0px;"/><path d="M475.8,318.8v2.6c0,.1,0,.2-.2.2h-3.5c-.1,0-.2,0-.2-.2v-2.6c0-.1,0-.2.2-.2h3.5c.1,0,.2,0,.2.2Z" style="fill:#fff; stroke-width:0px;"/><path d="M479.3,318.8v2.6c0,.1,0,.2-.2.2h-3.5c-.1,0-.2,0-.2-.2v-2.6c0-.1,0-.2.2-.2h3.5c.1,0,.2,0,.2.2Z" style="fill:#fff; stroke-width:0px;"/><path d="M482.9,318.8v2.6c0,.1,0,.2-.2.2h-3.5c-.1,0-.2,0-.2-.2v-2.6c0-.1,0-.2.2-.2h3.5c.1,0,.2,0,.2.2Z" style="fill:#fff; stroke-width:0px;"/><path d="M486.4,318.8v2.6c0,.1,0,.2-.2.2h-3.5c-.1,0-.2,0-.2-.2v-2.6c0-.1,0-.2.2-.2h3.5c.1,0,.2,0,.2.2Z" style="fill:#fff; stroke-width:0px;"/><path d="M490,318.8v2.6c0,.1,0,.2-.2.2h-3.5c-.1,0-.2,0-.2-.2v-2.6c0-.1,0-.2.2-.2h3.5c.1,0,.2,0,.2.2Z" style="fill:#fff; stroke-width:0px;"/><path d="M493.5,318.8v2.6c0,.1,0,.2-.2.2h-3.5c-.1,0-.2,0-.2-.2v-2.6c0-.1,0-.2.2-.2h3.5c.1,0,.2,0,.2.2Z" style="fill:#fff; stroke-width:0px;"/><path d="M499.8,318.8v2.6c0,.1,0,.2-.2.2-1.1,0-2-.4-2.8-1.2-.7.8-1.9,1.2-3.5,1.2s-.2,0-.2-.2v-2.6c0-.1.1-.2.2-.2,1,0,1.5-.6,1.5-1.9v-2.2s2.8-.3,2.8-.3v3.9c.5.3,1.2.5,1.9.5s.2,0,.2.2ZM496.3,313.2l-1.9-1.9,1.9-1.9,1.9,1.9-1.9,1.9Z" style="fill:#fff; stroke-width:0px;"/><path d="M503.4,318.8v2.6c0,.1,0,.2-.2.2h-3.5c-.1,0-.2,0-.2-.2v-2.6c0-.1,0-.2.2-.2h3.5c.1,0,.2,0,.2.2Z" style="fill:#fff; stroke-width:0px;"/><path d="M506.9,318.8v2.6c0,.1,0,.2-.2.2h-3.5c-.1,0-.2,0-.2-.2v-2.6c0-.1,0-.2.2-.2h3.5c.1,0,.2,0,.2.2Z" style="fill:#fff; stroke-width:0px;"/><path d="M510.4,318.8v2.6c0,.1,0,.2-.2.2h-3.5c-.1,0-.2,0-.2-.2v-2.6c0-.1,0-.2.2-.2h3.5c.1,0,.2,0,.2.2Z" style="fill:#fff; stroke-width:0px;"/><path d="M514,318.8v2.6c0,.1,0,.2-.2.2h-3.5c-.1,0-.2,0-.2-.2v-2.6c0-.1,0-.2.2-.2h3.5c.1,0,.2,0,.2.2Z" style="fill:#fff; stroke-width:0px;"/><path d="M517.5,318.8v2.6c0,.1,0,.2-.2.2h-3.5c-.1,0-.2,0-.2-.2v-2.6c0-.1,0-.2.2-.2h3.5c.1,0,.2,0,.2.2Z" style="fill:#fff; stroke-width:0px;"/><path d="M521.1,318.8v2.6c0,.1,0,.2-.2.2h-3.5c-.1,0-.2,0-.2-.2v-2.6c0-.1,0-.2.2-.2h3.5c.1,0,.2,0,.2.2Z" style="fill:#fff; stroke-width:0px;"/><path d="M524.6,318.8v2.6c0,.1,0,.2-.2.2h-3.5c-.1,0-.2,0-.2-.2v-2.6c0-.1,0-.2.2-.2h3.5c.1,0,.2,0,.2.2Z" style="fill:#fff; stroke-width:0px;"/><path d="M528.2,318.8v2.6c0,.1,0,.2-.2.2h-3.5c-.1,0-.2,0-.2-.2v-2.6c0-.1,0-.2.2-.2h3.5c.1,0,.2,0,.2.2Z" style="fill:#fff; stroke-width:0px;"/><path d="M531.7,318.8v2.6c0,.1,0,.2-.2.2h-3.5c-.1,0-.2,0-.2-.2v-2.6c0-.1,0-.2.2-.2h3.5c.1,0,.2,0,.2.2Z" style="fill:#fff; stroke-width:0px;"/><path d="M535.2,318.8v2.6c0,.1,0,.2-.2.2h-3.5c-.1,0-.2,0-.2-.2v-2.6c0-.1,0-.2.2-.2h3.5c.1,0,.2,0,.2.2Z" style="fill:#fff; stroke-width:0px;"/><path d="M545.2,317.4c0,2.7-1.7,4.3-4.5,4.3h-5.7c-.1,0-.2,0-.2-.2v-2.6c0-.1,0-.2.2-.2h5.7c1,0,1.6-.5,1.6-1.3s-.6-1.3-1.6-1.3h-4.1l-1.5-2.6,5.2-6.4,2.5,1.4-4.8,5h2.5c2.8,0,4.6,1.5,4.6,3.9Z" style="fill:#fff; stroke-width:0px;"/><path d="M497,339.2v8.7h-1.4v-8.7h1.4ZM501.5,339.2h1.8l-4.3,4.1,4.4,4.7h-1.6l-4.4-4.7,4.2-4Z" style="fill:#ee304c; stroke-width:0px;"/><path d="M505.7,339.2v8.7h-1.4v-8.7h1.4Z" style="fill:#ee304c; stroke-width:0px;"/><path d="M510.3,339.2l4.5,8.5h0v-8.5h1.4v8.7h-2.8l-4.5-8.6h0v8.6h-1.4v-8.7h2.8Z" style="fill:#ee304c; stroke-width:0px;"/><path d="M524.5,339.7c.7.4,1.3.9,1.7,1.5s.6,1.4.6,2.3-.2,1.7-.6,2.3-1,1.2-1.7,1.5-1.6.5-2.6.5h-3.7v-8.7h3.7c1,0,1.9.2,2.6.5ZM521.8,346.8c.7,0,1.3-.1,1.9-.4.5-.3.9-.6,1.2-1.1.3-.5.4-1,.4-1.7s-.1-1.2-.4-1.7c-.3-.5-.7-.9-1.2-1.1s-1.1-.4-1.9-.4h-2.3v6.4h2.3Z" style="fill:#ee304c; stroke-width:0px;"/><path d="M535.1,339.2v1.2h-5.5v2.6h4.5v1h-4.5v2.7h5.6v1.2h-7.1v-8.7h6.9Z" style="fill:#ee304c; stroke-width:0px;"/><path d="M536.2,339.2h3.8c1.1,0,2,.2,2.6.7.6.5.9,1.1.9,2s-.3,1.4-.8,1.8c-.5.5-1.3.7-2.3.8l3.3,3.5h-1.6l-4.2-4.4h2c.7,0,1.2-.1,1.6-.4.4-.3.5-.7.5-1.2s-.2-.9-.5-1.2-.9-.4-1.6-.4h-2.3v7.6h-1.4v-8.7Z" style="fill:#ee304c; stroke-width:0px;"/><path d="M450.9,395.7v2.6c0,.1,0,.2-.2.2-1.2,0-2-.2-2.7-.7-1.1.6-2.1.8-3.1.8-2.6,0-4.4-2-4.4-4.6s1.8-4.8,4.4-4.8,1.2.1,1.8.3v-1l2.8-.3v6.1c0,.8.4,1.1,1,1.1s.2,0,.2.2ZM443.7,388.1l-1.9-1.9,1.9-1.9,1.4,1.4,1.4-1.4,1.9,1.9-1.9,1.9-1.5-1.4-1.4,1.4ZM446.9,395.6c0-.2,0-.5,0-.8v-2.4c-.6-.2-1.2-.3-1.7-.3-1.2,0-1.9.8-1.9,1.9s.7,1.8,1.8,1.8c.7,0,1.3,0,1.9-.3Z" style="fill:#fff; stroke-width:0px;"/><path d="M454.4,395.7v2.6c0,.1,0,.2-.2.2h-3.5c-.1,0-.2,0-.2-.2v-2.6c0-.1,0-.2.2-.2h3.5c.1,0,.2,0,.2.2Z" style="fill:#fff; stroke-width:0px;"/><path d="M458,395.7v2.6c0,.1,0,.2-.2.2h-3.5c-.1,0-.2,0-.2-.2v-2.6c0-.1,0-.2.2-.2h3.5c.1,0,.2,0,.2.2Z" style="fill:#fff; stroke-width:0px;"/><path d="M461.5,395.7v2.6c0,.1,0,.2-.2.2h-3.5c-.1,0-.2,0-.2-.2v-2.6c0-.1,0-.2.2-.2h3.5c.1,0,.2,0,.2.2Z" style="fill:#fff; stroke-width:0px;"/><path d="M465,395.7v2.6c0,.1,0,.2-.2.2h-3.5c-.1,0-.2,0-.2-.2v-2.6c0-.1,0-.2.2-.2h3.5c.1,0,.2,0,.2.2Z" style="fill:#fff; stroke-width:0px;"/><path d="M468.6,395.7v2.6c0,.1,0,.2-.2.2h-3.5c-.1,0-.2,0-.2-.2v-2.6c0-.1,0-.2.2-.2h3.5c.1,0,.2,0,.2.2Z" style="fill:#fff; stroke-width:0px;"/><path d="M472.1,395.7v2.6c0,.1,0,.2-.2.2h-3.5c-.1,0-.2,0-.2-.2v-2.6c0-.1,0-.2.2-.2h3.5c.1,0,.2,0,.2.2Z" style="fill:#fff; stroke-width:0px;"/><path d="M475.7,395.7v2.6c0,.1,0,.2-.2.2h-3.5c-.1,0-.2,0-.2-.2v-2.6c0-.1,0-.2.2-.2h3.5c.1,0,.2,0,.2.2Z" style="fill:#fff; stroke-width:0px;"/><path d="M479.2,395.7v2.6c0,.1,0,.2-.2.2h-3.5c-.1,0-.2,0-.2-.2v-2.6c0-.1,0-.2.2-.2h3.5c.1,0,.2,0,.2.2Z" style="fill:#fff; stroke-width:0px;"/><path d="M482.8,395.7v2.6c0,.1,0,.2-.2.2h-3.5c-.1,0-.2,0-.2-.2v-2.6c0-.1,0-.2.2-.2h3.5c.1,0,.2,0,.2.2Z" style="fill:#fff; stroke-width:0px;"/><path d="M486.3,395.7v2.6c0,.1,0,.2-.2.2h-3.5c-.1,0-.2,0-.2-.2v-2.6c0-.1,0-.2.2-.2h3.5c.1,0,.2,0,.2.2Z" style="fill:#fff; stroke-width:0px;"/><path d="M485.9,398.4v-2.6c0-.1,0-.2.2-.2,1,0,1.5-.6,1.5-1.9v-8.1s2.9-.3,2.9-.3v9.5c0,2.6-1.5,3.9-4.4,3.9s-.2,0-.2-.2Z" style="fill:#fff; stroke-width:0px;"/><path d="M501.3,393.9v4.3c0,3.2-3.1,4.3-7.5,4.3l-.3-2.3c3.4,0,4.9-.5,5-2-.6.2-1.1.4-1.7.4-2.5,0-4.2-1.8-4.2-4.5s2-4.7,4.5-4.7,4.3,1.7,4.3,4.6ZM497,395.7c.4,0,.9,0,1.4-.2v-1.5c0-1.2-.7-1.9-1.7-1.9s-1.7.7-1.7,1.7.8,1.8,1.9,1.8Z" style="fill:#fff; stroke-width:0px;"/><path d="M503.3,385.6l2.8-.3v13.3h-2.8v-13Z" style="fill:#fff; stroke-width:0px;"/><path d="M514.6,395.7v2.6c0,.1,0,.2-.2.2-.8,0-1.4-.3-1.9-.7v.3c0,3.2-1.7,4.3-5.2,4.3l-.2-2.3c1.5,0,2.6-.6,2.6-2.2v-8.4s2.8-.3,2.8-.3v4.9c.1.9.9,1.3,1.9,1.3s.2,0,.2.2Z" style="fill:#fff; stroke-width:0px;"/><path d="M518.2,395.7v2.6c0,.1,0,.2-.2.2h-3.5c-.1,0-.2,0-.2-.2v-2.6c0-.1,0-.2.2-.2h3.5c.1,0,.2,0,.2.2Z" style="fill:#fff; stroke-width:0px;"/><path d="M521.7,395.7v2.6c0,.1,0,.2-.2.2h-3.5c-.1,0-.2,0-.2-.2v-2.6c0-.1,0-.2.2-.2h3.5c.1,0,.2,0,.2.2Z" style="fill:#fff; stroke-width:0px;"/><path d="M525.3,395.7v2.6c0,.1,0,.2-.2.2h-3.5c-.1,0-.2,0-.2-.2v-2.6c0-.1,0-.2.2-.2h3.5c.1,0,.2,0,.2.2Z" style="fill:#fff; stroke-width:0px;"/><path d="M528.8,395.7v2.6c0,.1,0,.2-.2.2h-3.5c-.1,0-.2,0-.2-.2v-2.6c0-.1,0-.2.2-.2h3.5c.1,0,.2,0,.2.2Z" style="fill:#fff; stroke-width:0px;"/><path d="M532.3,395.7v2.6c0,.1,0,.2-.2.2h-3.5c-.1,0-.2,0-.2-.2v-2.6c0-.1,0-.2.2-.2h3.5c.1,0,.2,0,.2.2Z" style="fill:#fff; stroke-width:0px;"/><path d="M535.9,395.7v2.6c0,.1,0,.2-.2.2h-3.5c-.1,0-.2,0-.2-.2v-2.6c0-.1,0-.2.2-.2h3.5c.1,0,.2,0,.2.2Z" style="fill:#fff; stroke-width:0px;"/><path d="M545.1,393.6c0,3-2,5-5.2,5h-4.2c-.1,0-.2,0-.2-.2v-2.6c0-.1,0-.2.2-.2h1.1c-.3-.7-.5-1.4-.5-2.1,0-2.5,1.9-4.3,4.3-4.3s4.5,1.9,4.5,4.4ZM540.5,388l-1.9-1.9,1.9-1.9,1.9,1.9-1.9,1.9ZM542.3,393.6c0-1-.7-1.7-1.7-1.7s-1.8.8-1.8,1.8.2,1.2.5,1.9h.6c1.5,0,2.4-.8,2.4-2Z" style="fill:#fff; stroke-width:0px;"/><path d="M448.2,416.1c-.6-.1-1.3-.2-1.9-.2s-1.4.1-1.8.3c-.4.2-.6.6-.6,1s0,.5.3.7c.2.2.5.4.8.5.4.1.9.3,1.5.4,1,.2,1.7.4,2.3.7.6.2,1,.5,1.3.9.3.4.4.8.4,1.4,0,.9-.4,1.6-1.2,2.1-.8.5-1.9.7-3.3.7s-2.9-.2-4-.7v-1.4c.6.2,1.2.4,1.9.6s1.4.2,2.1.2,1.7-.1,2.1-.4.7-.6.7-1.1,0-.6-.3-.8-.5-.4-.9-.5c-.4-.2-1-.3-1.7-.5-.9-.2-1.6-.4-2.1-.6s-1-.5-1.2-.9c-.3-.4-.4-.8-.4-1.3,0-.9.3-1.5,1-2s1.7-.7,3-.7,2.6.2,3.7.7v1.4c-.6-.2-1.1-.4-1.8-.5Z" style="fill:#ee304c; stroke-width:0px;"/><path d="M454.4,416h-3.5v-1.3h8.5v1.3h-3.5v8.4h-1.6v-8.4Z" style="fill:#ee304c; stroke-width:0px;"/><path d="M460.6,414.8h4.2c1.3,0,2.3.2,3,.8.7.5,1,1.2,1,2.2s-.3,1.5-.9,2c-.6.5-1.5.8-2.6.9l3.7,3.9h-1.8l-4.7-4.9h2.3c.8,0,1.3-.2,1.7-.5.4-.3.6-.8.6-1.3s-.2-1-.6-1.3c-.4-.3-1-.5-1.7-.5h-2.6v8.5h-1.6v-9.7Z" style="fill:#ee304c; stroke-width:0px;"/><path d="M473.2,414.8h3.1l4,9.7h-1.8l-.9-2.3h-5.7l-.9,2.3h-1.8l4-9.7ZM477.1,421l-2.4-6h0l-2.4,6h4.8Z" style="fill:#ee304c; stroke-width:0px;"/><path d="M479.2,414.8h1.7l2.8,9.5h0l2.7-9.5h2.6l2.7,9.5h0l2.8-9.5h1.7l-3,9.7h-2.9l-2.6-9.5h0l-2.6,9.5h-2.9l-3-9.7Z" style="fill:#ee304c; stroke-width:0px;"/><path d="M497.1,414.8h4.3c1.2,0,2.1.2,2.8.6.7.4,1,1,1,1.8s-.3,1.1-.8,1.5c-.5.4-1.3.6-2.3.7h0c1.2,0,2.1.3,2.7.7.6.4,1,1,1,1.8s-.3,1.5-1,1.9c-.7.5-1.7.7-2.9.7h-4.6v-9.7ZM500.8,419.2c1.8,0,2.6-.5,2.6-1.6s-.2-.9-.6-1.2c-.4-.3-1-.4-1.8-.4h-2.3v3.2h2.1ZM501.4,423.2c.9,0,1.5-.1,2-.4s.7-.7.7-1.2-.2-1-.7-1.3c-.4-.3-1.1-.4-1.9-.4h-2.8v3.3h2.7Z" style="fill:#ee304c; stroke-width:0px;"/><path d="M514.9,414.8v1.3h-6.1v2.9h5v1.1h-5v3.1h6.3v1.3h-7.9v-9.7h7.7Z" style="fill:#ee304c; stroke-width:0px;"/><path d="M516.2,414.8h4.2c1.3,0,2.3.2,3,.8.7.5,1,1.2,1,2.2s-.3,1.5-.9,2c-.6.5-1.5.8-2.6.9l3.7,3.9h-1.8l-4.7-4.9h2.3c.8,0,1.3-.2,1.7-.5.4-.3.6-.8.6-1.3s-.2-1-.6-1.3c-.4-.3-1-.5-1.7-.5h-2.6v8.5h-1.6v-9.7Z" style="fill:#ee304c; stroke-width:0px;"/><path d="M525.9,414.8h4.2c1.3,0,2.3.2,3,.8.7.5,1,1.2,1,2.2s-.3,1.5-.9,2c-.6.5-1.5.8-2.6.9l3.7,3.9h-1.8l-4.7-4.9h2.3c.8,0,1.3-.2,1.7-.5.4-.3.6-.8.6-1.3s-.2-1-.6-1.3c-.4-.3-1-.5-1.7-.5h-2.6v8.5h-1.6v-9.7Z" style="fill:#ee304c; stroke-width:0px;"/><path d="M539.7,421.2h-1.5l-3.6-6.4h1.8l3.4,6.2h0l3.4-6.2h1.8l-5.5,9.7h-1.6l1.8-3.3Z" style="fill:#ee304c; stroke-width:0px;"/><path d="M450.3,470.3v2.6c0,.1,0,.2-.2.2h-.9c-.3,2.8-3.2,3.9-7.5,3.9l-.3-2.3c3.1,0,4.6-.4,4.9-1.6h-1.5c-2.6,0-4.3-1.8-4.3-4.5s2-4.7,4.5-4.7,4.3,1.7,4.3,4.6v1.7h.9c.1,0,.2,0,.2.2ZM445,470.3c.4,0,.9,0,1.4,0v-1.6c0-1.2-.7-1.9-1.7-1.9s-1.7.7-1.7,1.7.9,1.8,2,1.8Z" style="fill:#fff; stroke-width:0px;"/><path d="M453.8,470.3v2.6c0,.1,0,.2-.2.2h-3.5c-.1,0-.2,0-.2-.2v-2.6c0-.1,0-.2.2-.2h3.5c.1,0,.2,0,.2.2Z" style="fill:#fff; stroke-width:0px;"/><path d="M457.3,470.3v2.6c0,.1,0,.2-.2.2h-3.5c-.1,0-.2,0-.2-.2v-2.6c0-.1,0-.2.2-.2h3.5c.1,0,.2,0,.2.2Z" style="fill:#fff; stroke-width:0px;"/><path d="M460.9,470.3v2.6c0,.1,0,.2-.2.2h-3.5c-.1,0-.2,0-.2-.2v-2.6c0-.1,0-.2.2-.2h3.5c.1,0,.2,0,.2.2Z" style="fill:#fff; stroke-width:0px;"/><path d="M464.4,470.3v2.6c0,.1,0,.2-.2.2h-3.5c-.1,0-.2,0-.2-.2v-2.6c0-.1,0-.2.2-.2h3.5c.1,0,.2,0,.2.2Z" style="fill:#fff; stroke-width:0px;"/><path d="M468,470.3v2.6c0,.1,0,.2-.2.2h-3.5c-.1,0-.2,0-.2-.2v-2.6c0-.1,0-.2.2-.2h3.5c.1,0,.2,0,.2.2Z" style="fill:#fff; stroke-width:0px;"/><path d="M471.5,470.3v2.6c0,.1,0,.2-.2.2h-3.5c-.1,0-.2,0-.2-.2v-2.6c0-.1,0-.2.2-.2h3.5c.1,0,.2,0,.2.2Z" style="fill:#fff; stroke-width:0px;"/><path d="M475.1,470.3v2.6c0,.1,0,.2-.2.2h-3.5c-.1,0-.2,0-.2-.2v-2.6c0-.1,0-.2.2-.2h3.5c.1,0,.2,0,.2.2Z" style="fill:#fff; stroke-width:0px;"/><path d="M478.6,470.3v2.6c0,.1,0,.2-.2.2h-3.5c-.1,0-.2,0-.2-.2v-2.6c0-.1,0-.2.2-.2h3.5c.1,0,.2,0,.2.2Z" style="fill:#fff; stroke-width:0px;"/><path d="M482.1,470.3v2.6c0,.1,0,.2-.2.2h-3.5c-.1,0-.2,0-.2-.2v-2.6c0-.1,0-.2.2-.2h3.5c.1,0,.2,0,.2.2Z" style="fill:#fff; stroke-width:0px;"/><path d="M485.7,470.3v2.6c0,.1,0,.2-.2.2h-3.5c-.1,0-.2,0-.2-.2v-2.6c0-.1,0-.2.2-.2h3.5c.1,0,.2,0,.2.2Z" style="fill:#fff; stroke-width:0px;"/><path d="M489.2,470.3v2.6c0,.1,0,.2-.2.2h-3.5c-.1,0-.2,0-.2-.2v-2.6c0-.1,0-.2.2-.2h3.5c.1,0,.2,0,.2.2Z" style="fill:#fff; stroke-width:0px;"/><path d="M492.8,470.3v2.6c0,.1,0,.2-.2.2h-3.5c-.1,0-.2,0-.2-.2v-2.6c0-.1,0-.2.2-.2h3.5c.1,0,.2,0,.2.2Z" style="fill:#fff; stroke-width:0px;"/><path d="M496.3,470.3v2.6c0,.1,0,.2-.2.2h-3.5c-.1,0-.2,0-.2-.2v-2.6c0-.1,0-.2.2-.2h3.5c.1,0,.2,0,.2.2Z" style="fill:#fff; stroke-width:0px;"/><path d="M499.9,470.3v2.6c0,.1,0,.2-.2.2h-3.5c-.1,0-.2,0-.2-.2v-2.6c0-.1,0-.2.2-.2h3.5c.1,0,.2,0,.2.2Z" style="fill:#fff; stroke-width:0px;"/><path d="M503.4,470.3v2.6c0,.1,0,.2-.2.2h-3.5c-.1,0-.2,0-.2-.2v-2.6c0-.1,0-.2.2-.2h3.5c.1,0,.2,0,.2.2Z" style="fill:#fff; stroke-width:0px;"/><path d="M507,470.3v2.6c0,.1,0,.2-.2.2h-3.5c-.1,0-.2,0-.2-.2v-2.6c0-.1,0-.2.2-.2h3.5c.1,0,.2,0,.2.2Z" style="fill:#fff; stroke-width:0px;"/><path d="M510.5,470.3v2.6c0,.1,0,.2-.2.2h-3.5c-.1,0-.2,0-.2-.2v-2.6c0-.1,0-.2.2-.2h3.5c.1,0,.2,0,.2.2Z" style="fill:#fff; stroke-width:0px;"/><path d="M514,470.3v2.6c0,.1,0,.2-.2.2h-3.5c-.1,0-.2,0-.2-.2v-2.6c0-.1,0-.2.2-.2h3.5c.1,0,.2,0,.2.2Z" style="fill:#fff; stroke-width:0px;"/><path d="M517.6,470.3v2.6c0,.1,0,.2-.2.2h-3.5c-.1,0-.2,0-.2-.2v-2.6c0-.1,0-.2.2-.2h3.5c.1,0,.2,0,.2.2Z" style="fill:#fff; stroke-width:0px;"/><path d="M521.7,477.8l-1.3-1.3-1.3,1.3-1.9-1.9,1.9-1.9,1.3,1.3,1.3-1.3,1.9,1.9-1.9,1.9ZM517.2,472.9v-2.6c0-.1.1-.2.2-.2h1.5c1,0,1.5-.6,1.5-1.9v-4s2.8-.3,2.8-.3v5.4c0,2.5-1.4,3.8-4.4,3.8h-1.5c-.1,0-.2,0-.2-.2Z" style="fill:#fff; stroke-width:0px;"/><path d="M523.9,474.7c1.5,0,2.6-.6,2.6-2.2v-8.4s2.8-.3,2.8-.3v8.8c0,3.2-1.7,4.3-5.2,4.3l-.2-2.3Z" style="fill:#fff; stroke-width:0px;"/><path d="M539.6,468.4v4.3c0,3.2-3.1,4.3-7.5,4.3l-.3-2.3c3.4,0,4.9-.5,5-2-.6.2-1.1.4-1.7.4-2.5,0-4.2-1.8-4.2-4.5s2-4.7,4.5-4.7,4.3,1.7,4.3,4.6ZM535.3,470.3c.4,0,.9,0,1.4-.2v-1.5c0-1.2-.7-1.9-1.7-1.9s-1.7.7-1.7,1.7.8,1.8,1.9,1.8Z" style="fill:#fff; stroke-width:0px;"/><path d="M541.6,460.1l2.8-.3v13.3h-2.8v-13Z" style="fill:#fff; stroke-width:0px;"/><path d="M508.6,501.3c-.7-.4-1.3-.9-1.7-1.5-.4-.7-.6-1.5-.6-2.4s.2-1.8.6-2.5c.4-.7.9-1.2,1.7-1.6.7-.4,1.6-.5,2.6-.5s1.9.2,2.6.5,1.3.9,1.7,1.6c.4.7.6,1.5.6,2.5s-.2,1.8-.6,2.4c-.4.7-.9,1.2-1.7,1.5s-1.6.5-2.6.5-1.9-.2-2.6-.5ZM508.7,499.7c.6.6,1.4.9,2.5.9s1.9-.3,2.5-.9.9-1.4.9-2.4-.3-1.9-.9-2.5c-.6-.6-1.4-.9-2.5-.9s-1.9.3-2.5.9c-.6.6-.9,1.4-.9,2.5s.3,1.8.9,2.4Z" style="fill:#ee304c; stroke-width:0px;"/><path d="M517.4,492.9h3.8c1.1,0,2,.2,2.6.7.6.5.9,1.1.9,2s-.3,1.4-.8,1.8c-.5.5-1.3.7-2.3.8l3.3,3.5h-1.6l-4.2-4.4h2c.7,0,1.2-.1,1.6-.4.4-.3.5-.7.5-1.2s-.2-.9-.5-1.2c-.4-.3-.9-.4-1.6-.4h-2.3v7.6h-1.4v-8.7Z" style="fill:#ee304c; stroke-width:0px;"/><path d="M532.9,492.9v1.2h-5.5v2.6h4.5v1h-4.5v2.7h5.6v1.2h-7.1v-8.7h6.9Z" style="fill:#ee304c; stroke-width:0px;"/><path d="M536.1,501.3c-.7-.4-1.3-.9-1.7-1.5-.4-.7-.6-1.5-.6-2.4s.2-1.8.6-2.5c.4-.7.9-1.2,1.7-1.6.7-.4,1.6-.5,2.6-.5s1.9.2,2.6.5,1.3.9,1.7,1.6c.4.7.6,1.5.6,2.5s-.2,1.8-.6,2.4c-.4.7-.9,1.2-1.7,1.5s-1.6.5-2.6.5-1.9-.2-2.6-.5ZM536.2,499.7c.6.6,1.4.9,2.5.9s1.9-.3,2.5-.9.9-1.4.9-2.4-.3-1.9-.9-2.5c-.6-.6-1.4-.9-2.5-.9s-1.9.3-2.5.9c-.6.6-.9,1.4-.9,2.5s.3,1.8.9,2.4Z" style="fill:#ee304c; stroke-width:0px;"/><path d="M49.8,242.8c-.7,0-1.3-.1-1.8-.4s-1.1-.6-1.5-1.2c-.4-.5-.6-1.2-.7-2.1h1.9c0,.4.2.8.4,1s.5.5.8.6c.3.1.6.2.9.2s.7,0,1-.3c.3-.2.5-.4.7-.7.2-.3.2-.6.2-1s0-.7-.3-1c-.2-.3-.5-.5-.8-.6-.3-.1-.8-.2-1.2-.2h-2.1s-.8-.7-.8-.7l.6-4.7h5.9v1.6h-4.2l-.3,2.4h1.5c.8,0,1.4.1,2,.4.6.3,1,.6,1.3,1.1.3.5.5,1,.5,1.7s-.2,1.3-.5,1.8c-.3.6-.8,1-1.4,1.4-.6.3-1.3.5-2.1.5Z" style="fill:#fff; stroke-width:0px;"/><path d="M55.8,240.8h1.8l-1.4,3.2h-1.4l.9-3.2Z" style="fill:#fff; stroke-width:0px;"/><path d="M63.3,242.8c-1,0-1.8-.2-2.5-.7-.7-.5-1.2-1.2-1.5-2-.3-.8-.5-1.8-.5-2.8s.2-2,.5-2.8c.4-.8.9-1.5,1.6-2,.7-.5,1.5-.7,2.4-.7s1.9.3,2.6.8c.7.5,1.2,1.2,1.5,2,.3.8.5,1.8.5,2.8s-.2,2-.5,2.8c-.3.8-.9,1.5-1.5,2-.7.5-1.5.7-2.5.7ZM63.3,241c.5,0,1-.2,1.4-.5.4-.3.7-.8.9-1.3s.3-1.2.3-2-.1-1.4-.3-1.9-.5-1-.9-1.3c-.4-.3-.9-.5-1.4-.5s-1,.2-1.4.5c-.4.3-.7.8-.9,1.3-.2.6-.3,1.2-.3,2s.1,1.4.3,1.9c.2.6.5,1,.9,1.3.4.3.9.5,1.4.5Z" style="fill:#fff; stroke-width:0px;"/><path d="M73.5,242.8c-1,0-1.8-.2-2.5-.7-.7-.5-1.2-1.2-1.5-2-.3-.8-.5-1.8-.5-2.8s.2-2,.5-2.8c.4-.8.9-1.5,1.6-2,.7-.5,1.5-.7,2.4-.7s1.9.3,2.6.8c.7.5,1.2,1.2,1.5,2,.3.8.5,1.8.5,2.8s-.2,2-.5,2.8c-.3.8-.9,1.5-1.5,2-.7.5-1.5.7-2.5.7ZM73.5,241c.5,0,1-.2,1.4-.5.4-.3.7-.8.9-1.3s.3-1.2.3-2-.1-1.4-.3-1.9-.5-1-.9-1.3c-.4-.3-.9-.5-1.4-.5s-1,.2-1.4.5c-.4.3-.7.8-.9,1.3-.2.6-.3,1.2-.3,2s.1,1.4.3,1.9c.2.6.5,1,.9,1.3.4.3.9.5,1.4.5Z" style="fill:#fff; stroke-width:0px;"/><path d="M83.6,242.8c-1,0-1.8-.2-2.5-.7-.7-.5-1.2-1.2-1.5-2-.3-.8-.5-1.8-.5-2.8s.2-2,.5-2.8c.4-.8.9-1.5,1.6-2,.7-.5,1.5-.7,2.4-.7s1.9.3,2.6.8c.7.5,1.2,1.2,1.5,2,.3.8.5,1.8.5,2.8s-.2,2-.5,2.8c-.3.8-.9,1.5-1.5,2-.7.5-1.5.7-2.5.7ZM83.6,241c.5,0,1-.2,1.4-.5.4-.3.7-.8.9-1.3s.3-1.2.3-2-.1-1.4-.3-1.9-.5-1-.9-1.3c-.4-.3-.9-.5-1.4-.5s-1,.2-1.4.5c-.4.3-.7.8-.9,1.3-.2.6-.3,1.2-.3,2s.1,1.4.3,1.9c.2.6.5,1,.9,1.3.4.3.9.5,1.4.5Z" style="fill:#fff; stroke-width:0px;"/><path d="M93.9,231.9h1.9v10.6h-1.9v-10.6Z" style="fill:#fff; stroke-width:0px;"/><path d="M103.3,242.8c-1,0-2-.2-2.9-.7-.9-.5-1.6-1.2-2.1-2-.5-.9-.8-1.8-.8-2.8s.3-1.9.8-2.8c.5-.8,1.2-1.5,2.1-2,.9-.5,1.8-.7,2.9-.7s2,.2,2.9.7c.9.5,1.6,1.2,2.1,2,.5.8.8,1.8.8,2.8s-.3,1.9-.8,2.8-1.2,1.5-2.1,2c-.9.5-1.8.7-2.9.7ZM103.3,241c.7,0,1.3-.2,1.9-.5.6-.3,1-.8,1.4-1.3.3-.6.5-1.2.5-1.9s-.2-1.4-.5-1.9c-.3-.6-.8-1-1.4-1.4-.6-.3-1.2-.5-1.9-.5s-1.3.2-1.9.5-1,.8-1.4,1.4c-.3.6-.5,1.2-.5,1.9s.2,1.3.5,1.9c.3.6.8,1,1.4,1.3s1.2.5,1.9.5ZM105,242l1.7-.8,1.9,2.7-1.8,1-1.8-2.9Z" style="fill:#fff; stroke-width:0px;"/><path d="M111,231.9h4.1c1.1,0,2.1.2,3,.7.9.4,1.5,1.1,2,1.9.5.8.7,1.7.7,2.8s-.2,2-.7,2.8c-.5.8-1.1,1.4-2,1.9-.9.4-1.8.7-2.9.7h-4.1v-10.6ZM115.1,240.8c.8,0,1.4-.1,2-.4.6-.3,1-.7,1.3-1.2.3-.5.4-1.2.4-1.9s-.1-1.4-.4-1.9c-.3-.5-.7-1-1.3-1.3-.6-.3-1.2-.4-2-.4h-2.1v7.2h2.1Z" style="fill:#fff; stroke-width:0px;"/><path d="M49.8,322.1c-.7,0-1.3-.1-1.8-.4s-1.1-.6-1.5-1.2c-.4-.5-.6-1.2-.7-2.1h1.9c0,.4.2.8.4,1s.5.5.8.6c.3.1.6.2.9.2s.7,0,1-.3c.3-.2.5-.4.7-.7.2-.3.2-.6.2-1s0-.7-.3-1c-.2-.3-.5-.5-.8-.6-.3-.1-.8-.2-1.2-.2h-2.1s-.8-.7-.8-.7l.6-4.7h5.9v1.6h-4.2l-.3,2.4h1.5c.8,0,1.4.1,2,.4.6.3,1,.6,1.3,1.1.3.5.5,1,.5,1.7s-.2,1.3-.5,1.8c-.3.6-.8,1-1.4,1.4-.6.3-1.3.5-2.1.5Z" style="fill:#fff; stroke-width:0px;"/><path d="M55.8,320.1h1.8l-1.4,3.2h-1.4l.9-3.2Z" style="fill:#fff; stroke-width:0px;"/><path d="M63.3,322.1c-1,0-1.8-.2-2.5-.7-.7-.5-1.2-1.2-1.5-2-.3-.8-.5-1.8-.5-2.8s.2-2,.5-2.8c.4-.8.9-1.5,1.6-2,.7-.5,1.5-.7,2.4-.7s1.9.3,2.6.8c.7.5,1.2,1.2,1.5,2,.3.8.5,1.8.5,2.8s-.2,2-.5,2.8c-.3.8-.9,1.5-1.5,2-.7.5-1.5.7-2.5.7ZM63.3,320.3c.5,0,1-.2,1.4-.5.4-.3.7-.8.9-1.3s.3-1.2.3-2-.1-1.4-.3-1.9-.5-1-.9-1.3c-.4-.3-.9-.5-1.4-.5s-1,.2-1.4.5c-.4.3-.7.8-.9,1.3-.2.6-.3,1.2-.3,2s.1,1.4.3,1.9c.2.6.5,1,.9,1.3.4.3.9.5,1.4.5Z" style="fill:#fff; stroke-width:0px;"/><path d="M73.5,322.1c-1,0-1.8-.2-2.5-.7-.7-.5-1.2-1.2-1.5-2-.3-.8-.5-1.8-.5-2.8s.2-2,.5-2.8c.4-.8.9-1.5,1.6-2,.7-.5,1.5-.7,2.4-.7s1.9.3,2.6.8c.7.5,1.2,1.2,1.5,2,.3.8.5,1.8.5,2.8s-.2,2-.5,2.8c-.3.8-.9,1.5-1.5,2-.7.5-1.5.7-2.5.7ZM73.5,320.3c.5,0,1-.2,1.4-.5.4-.3.7-.8.9-1.3s.3-1.2.3-2-.1-1.4-.3-1.9-.5-1-.9-1.3c-.4-.3-.9-.5-1.4-.5s-1,.2-1.4.5c-.4.3-.7.8-.9,1.3-.2.6-.3,1.2-.3,2s.1,1.4.3,1.9c.2.6.5,1,.9,1.3.4.3.9.5,1.4.5Z" style="fill:#fff; stroke-width:0px;"/><path d="M83.6,322.1c-1,0-1.8-.2-2.5-.7-.7-.5-1.2-1.2-1.5-2-.3-.8-.5-1.8-.5-2.8s.2-2,.5-2.8c.4-.8.9-1.5,1.6-2,.7-.5,1.5-.7,2.4-.7s1.9.3,2.6.8c.7.5,1.2,1.2,1.5,2,.3.8.5,1.8.5,2.8s-.2,2-.5,2.8c-.3.8-.9,1.5-1.5,2-.7.5-1.5.7-2.5.7ZM83.6,320.3c.5,0,1-.2,1.4-.5.4-.3.7-.8.9-1.3s.3-1.2.3-2-.1-1.4-.3-1.9-.5-1-.9-1.3c-.4-.3-.9-.5-1.4-.5s-1,.2-1.4.5c-.4.3-.7.8-.9,1.3-.2.6-.3,1.2-.3,2s.1,1.4.3,1.9c.2.6.5,1,.9,1.3.4.3.9.5,1.4.5Z" style="fill:#fff; stroke-width:0px;"/><path d="M93.9,311.3h1.9v10.6h-1.9v-10.6Z" style="fill:#fff; stroke-width:0px;"/><path d="M103.3,322.1c-1,0-2-.2-2.9-.7-.9-.5-1.6-1.2-2.1-2-.5-.9-.8-1.8-.8-2.8s.3-1.9.8-2.8c.5-.8,1.2-1.5,2.1-2,.9-.5,1.8-.7,2.9-.7s2,.2,2.9.7c.9.5,1.6,1.2,2.1,2,.5.8.8,1.8.8,2.8s-.3,1.9-.8,2.8-1.2,1.5-2.1,2c-.9.5-1.8.7-2.9.7ZM103.3,320.3c.7,0,1.3-.2,1.9-.5.6-.3,1-.8,1.4-1.3.3-.6.5-1.2.5-1.9s-.2-1.4-.5-1.9c-.3-.6-.8-1-1.4-1.4-.6-.3-1.2-.5-1.9-.5s-1.3.2-1.9.5-1,.8-1.4,1.4c-.3.6-.5,1.2-.5,1.9s.2,1.3.5,1.9c.3.6.8,1,1.4,1.3s1.2.5,1.9.5ZM105,321.3l1.7-.8,1.9,2.7-1.8,1-1.8-2.9Z" style="fill:#fff; stroke-width:0px;"/><path d="M111,311.3h4.1c1.1,0,2.1.2,3,.7.9.4,1.5,1.1,2,1.9.5.8.7,1.7.7,2.8s-.2,2-.7,2.8c-.5.8-1.1,1.4-2,1.9-.9.4-1.8.7-2.9.7h-4.1v-10.6ZM115.1,320.2c.8,0,1.4-.1,2-.4.6-.3,1-.7,1.3-1.2.3-.5.4-1.2.4-1.9s-.1-1.4-.4-1.9c-.3-.5-.7-1-1.3-1.3-.6-.3-1.2-.4-2-.4h-2.1v7.2h2.1Z" style="fill:#fff; stroke-width:0px;"/><path d="M49.8,397.2c-.7,0-1.3-.1-1.8-.4s-1.1-.6-1.5-1.2c-.4-.5-.6-1.2-.7-2.1h1.9c0,.4.2.8.4,1s.5.5.8.6c.3.1.6.2.9.2s.7,0,1-.3c.3-.2.5-.4.7-.7.2-.3.2-.6.2-1s0-.7-.3-1c-.2-.3-.5-.5-.8-.6-.3-.1-.8-.2-1.2-.2h-2.1s-.8-.7-.8-.7l.6-4.7h5.9v1.6h-4.2l-.3,2.4h1.5c.8,0,1.4.1,2,.4.6.3,1,.6,1.3,1.1.3.5.5,1,.5,1.7s-.2,1.3-.5,1.8c-.3.6-.8,1-1.4,1.4-.6.3-1.3.5-2.1.5Z" style="fill:#fff; stroke-width:0px;"/><path d="M55.8,395.2h1.8l-1.4,3.2h-1.4l.9-3.2Z" style="fill:#fff; stroke-width:0px;"/><path d="M63.3,397.2c-1,0-1.8-.2-2.5-.7-.7-.5-1.2-1.2-1.5-2-.3-.8-.5-1.8-.5-2.8s.2-2,.5-2.8c.4-.8.9-1.5,1.6-2,.7-.5,1.5-.7,2.4-.7s1.9.3,2.6.8c.7.5,1.2,1.2,1.5,2,.3.8.5,1.8.5,2.8s-.2,2-.5,2.8c-.3.8-.9,1.5-1.5,2-.7.5-1.5.7-2.5.7ZM63.3,395.4c.5,0,1-.2,1.4-.5.4-.3.7-.8.9-1.3s.3-1.2.3-2-.1-1.4-.3-1.9-.5-1-.9-1.3c-.4-.3-.9-.5-1.4-.5s-1,.2-1.4.5c-.4.3-.7.8-.9,1.3-.2.6-.3,1.2-.3,2s.1,1.4.3,1.9c.2.6.5,1,.9,1.3.4.3.9.5,1.4.5Z" style="fill:#fff; stroke-width:0px;"/><path d="M73.5,397.2c-1,0-1.8-.2-2.5-.7-.7-.5-1.2-1.2-1.5-2-.3-.8-.5-1.8-.5-2.8s.2-2,.5-2.8c.4-.8.9-1.5,1.6-2,.7-.5,1.5-.7,2.4-.7s1.9.3,2.6.8c.7.5,1.2,1.2,1.5,2,.3.8.5,1.8.5,2.8s-.2,2-.5,2.8c-.3.8-.9,1.5-1.5,2-.7.5-1.5.7-2.5.7ZM73.5,395.4c.5,0,1-.2,1.4-.5.4-.3.7-.8.9-1.3s.3-1.2.3-2-.1-1.4-.3-1.9-.5-1-.9-1.3c-.4-.3-.9-.5-1.4-.5s-1,.2-1.4.5c-.4.3-.7.8-.9,1.3-.2.6-.3,1.2-.3,2s.1,1.4.3,1.9c.2.6.5,1,.9,1.3.4.3.9.5,1.4.5Z" style="fill:#fff; stroke-width:0px;"/><path d="M83.6,397.2c-1,0-1.8-.2-2.5-.7-.7-.5-1.2-1.2-1.5-2-.3-.8-.5-1.8-.5-2.8s.2-2,.5-2.8c.4-.8.9-1.5,1.6-2,.7-.5,1.5-.7,2.4-.7s1.9.3,2.6.8c.7.5,1.2,1.2,1.5,2,.3.8.5,1.8.5,2.8s-.2,2-.5,2.8c-.3.8-.9,1.5-1.5,2-.7.5-1.5.7-2.5.7ZM83.6,395.4c.5,0,1-.2,1.4-.5.4-.3.7-.8.9-1.3s.3-1.2.3-2-.1-1.4-.3-1.9-.5-1-.9-1.3c-.4-.3-.9-.5-1.4-.5s-1,.2-1.4.5c-.4.3-.7.8-.9,1.3-.2.6-.3,1.2-.3,2s.1,1.4.3,1.9c.2.6.5,1,.9,1.3.4.3.9.5,1.4.5Z" style="fill:#fff; stroke-width:0px;"/><path d="M93.9,386.3h1.9v10.6h-1.9v-10.6Z" style="fill:#fff; stroke-width:0px;"/><path d="M103.3,397.2c-1,0-2-.2-2.9-.7-.9-.5-1.6-1.2-2.1-2-.5-.9-.8-1.8-.8-2.8s.3-1.9.8-2.8c.5-.8,1.2-1.5,2.1-2,.9-.5,1.8-.7,2.9-.7s2,.2,2.9.7c.9.5,1.6,1.2,2.1,2,.5.8.8,1.8.8,2.8s-.3,1.9-.8,2.8-1.2,1.5-2.1,2c-.9.5-1.8.7-2.9.7ZM103.3,395.4c.7,0,1.3-.2,1.9-.5.6-.3,1-.8,1.4-1.3.3-.6.5-1.2.5-1.9s-.2-1.4-.5-1.9c-.3-.6-.8-1-1.4-1.4-.6-.3-1.2-.5-1.9-.5s-1.3.2-1.9.5-1,.8-1.4,1.4c-.3.6-.5,1.2-.5,1.9s.2,1.3.5,1.9c.3.6.8,1,1.4,1.3s1.2.5,1.9.5ZM105,396.4l1.7-.8,1.9,2.7-1.8,1-1.8-2.9Z" style="fill:#fff; stroke-width:0px;"/><path d="M111,386.3h4.1c1.1,0,2.1.2,3,.7.9.4,1.5,1.1,2,1.9.5.8.7,1.7.7,2.8s-.2,2-.7,2.8c-.5.8-1.1,1.4-2,1.9-.9.4-1.8.7-2.9.7h-4.1v-10.6ZM115.1,395.2c.8,0,1.4-.1,2-.4.6-.3,1-.7,1.3-1.2.3-.5.4-1.2.4-1.9s-.1-1.4-.4-1.9c-.3-.5-.7-1-1.3-1.3-.6-.3-1.2-.4-2-.4h-2.1v7.2h2.1Z" style="fill:#fff; stroke-width:0px;"/><path d="M49.8,476.3c-.7,0-1.3-.1-1.8-.4s-1.1-.6-1.5-1.2c-.4-.5-.6-1.2-.7-2.1h1.9c0,.4.2.8.4,1s.5.5.8.6c.3.1.6.2.9.2s.7,0,1-.3c.3-.2.5-.4.7-.7.2-.3.2-.6.2-1s0-.7-.3-1-.5-.5-.8-.6-.8-.2-1.2-.2h-2.1s-.8-.7-.8-.7l.6-4.7h5.9v1.6h-4.2l-.3,2.4h1.5c.8,0,1.4.1,2,.4s1,.6,1.3,1.1.5,1,.5,1.7-.2,1.3-.5,1.8c-.3.6-.8,1-1.4,1.4-.6.3-1.3.5-2.1.5Z" style="fill:#fff; stroke-width:0px;"/><path d="M55.8,474.3h1.8l-1.4,3.2h-1.4l.9-3.2Z" style="fill:#fff; stroke-width:0px;"/><path d="M63.3,476.3c-1,0-1.8-.2-2.5-.7-.7-.5-1.2-1.2-1.5-2-.3-.8-.5-1.8-.5-2.8s.2-2,.5-2.8c.4-.8.9-1.5,1.6-2,.7-.5,1.5-.7,2.4-.7s1.9.3,2.6.8c.7.5,1.2,1.2,1.5,2s.5,1.8.5,2.8-.2,2-.5,2.8-.9,1.5-1.5,2c-.7.5-1.5.7-2.5.7ZM63.3,474.5c.5,0,1-.2,1.4-.5.4-.3.7-.8.9-1.3s.3-1.2.3-2-.1-1.4-.3-1.9-.5-1-.9-1.3c-.4-.3-.9-.5-1.4-.5s-1,.2-1.4.5c-.4.3-.7.8-.9,1.3-.2.6-.3,1.2-.3,2s.1,1.4.3,1.9.5,1,.9,1.3c.4.3.9.5,1.4.5Z" style="fill:#fff; stroke-width:0px;"/><path d="M73.5,476.3c-1,0-1.8-.2-2.5-.7-.7-.5-1.2-1.2-1.5-2-.3-.8-.5-1.8-.5-2.8s.2-2,.5-2.8c.4-.8.9-1.5,1.6-2,.7-.5,1.5-.7,2.4-.7s1.9.3,2.6.8c.7.5,1.2,1.2,1.5,2s.5,1.8.5,2.8-.2,2-.5,2.8-.9,1.5-1.5,2c-.7.5-1.5.7-2.5.7ZM73.5,474.5c.5,0,1-.2,1.4-.5.4-.3.7-.8.9-1.3s.3-1.2.3-2-.1-1.4-.3-1.9-.5-1-.9-1.3c-.4-.3-.9-.5-1.4-.5s-1,.2-1.4.5c-.4.3-.7.8-.9,1.3-.2.6-.3,1.2-.3,2s.1,1.4.3,1.9.5,1,.9,1.3c.4.3.9.5,1.4.5Z" style="fill:#fff; stroke-width:0px;"/><path d="M83.6,476.3c-1,0-1.8-.2-2.5-.7-.7-.5-1.2-1.2-1.5-2-.3-.8-.5-1.8-.5-2.8s.2-2,.5-2.8c.4-.8.9-1.5,1.6-2,.7-.5,1.5-.7,2.4-.7s1.9.3,2.6.8c.7.5,1.2,1.2,1.5,2s.5,1.8.5,2.8-.2,2-.5,2.8-.9,1.5-1.5,2c-.7.5-1.5.7-2.5.7ZM83.6,474.5c.5,0,1-.2,1.4-.5.4-.3.7-.8.9-1.3s.3-1.2.3-2-.1-1.4-.3-1.9-.5-1-.9-1.3c-.4-.3-.9-.5-1.4-.5s-1,.2-1.4.5c-.4.3-.7.8-.9,1.3-.2.6-.3,1.2-.3,2s.1,1.4.3,1.9.5,1,.9,1.3c.4.3.9.5,1.4.5Z" style="fill:#fff; stroke-width:0px;"/><path d="M93.9,465.4h1.9v10.6h-1.9v-10.6Z" style="fill:#fff; stroke-width:0px;"/><path d="M103.3,476.2c-1,0-2-.2-2.9-.7-.9-.5-1.6-1.2-2.1-2-.5-.9-.8-1.8-.8-2.8s.3-1.9.8-2.8c.5-.8,1.2-1.5,2.1-2,.9-.5,1.8-.7,2.9-.7s2,.2,2.9.7,1.6,1.2,2.1,2,.8,1.8.8,2.8-.3,1.9-.8,2.8-1.2,1.5-2.1,2-1.8.7-2.9.7ZM103.3,474.4c.7,0,1.3-.2,1.9-.5.6-.3,1-.8,1.4-1.3.3-.6.5-1.2.5-1.9s-.2-1.4-.5-1.9c-.3-.6-.8-1-1.4-1.4-.6-.3-1.2-.5-1.9-.5s-1.3.2-1.9.5-1,.8-1.4,1.4c-.3.6-.5,1.2-.5,1.9s.2,1.3.5,1.9c.3.6.8,1,1.4,1.3s1.2.5,1.9.5ZM105,475.5l1.7-.8,1.9,2.7-1.8,1-1.8-2.9Z" style="fill:#fff; stroke-width:0px;"/><path d="M111,465.4h4.1c1.1,0,2.1.2,3,.7.9.4,1.5,1.1,2,1.9s.7,1.7.7,2.8-.2,2-.7,2.8c-.5.8-1.1,1.4-2,1.9s-1.8.7-2.9.7h-4.1v-10.6ZM115.1,474.3c.8,0,1.4-.1,2-.4.6-.3,1-.7,1.3-1.2s.4-1.2.4-1.9-.1-1.4-.4-1.9c-.3-.5-.7-1-1.3-1.3s-1.2-.4-2-.4h-2.1v7.2h2.1Z" style="fill:#fff; stroke-width:0px;"/><rect x="282.4" y="237" width="122.6" height=".6" style="fill:#fff; stroke-width:0px;"/><rect x="282.4" y="317.4" width="122.6" height=".6" style="fill:#fff; stroke-width:0px;"/><rect x="282.4" y="393.1" width="122.6" height=".6" style="fill:#fff; stroke-width:0px;"/><rect x="282.4" y="469.8" width="122.6" height=".6" style="fill:#fff; stroke-width:0px;"/><path d="M469.5,547.9v2.6c0,.1,0,.2-.2.2-1,0-1.8-.3-2.5-.9-.6.6-1.6.9-2.8.9s-2-.3-3-1c-.7.7-1.7,1-2.9,1s-1.5-.2-2.2-.7c-.3,2.9-2.3,4.6-5.6,4.6s-5.5-1.6-5.5-4.9.3-2.6.8-4.3l2.3.6c-.3,1-.5,1.9-.5,2.8,0,1.8,1,2.7,2.9,2.7s2.8-1,2.8-3v-6.8l2.8-.3v5.8c.6.3,1.2.5,1.8.5,1,0,1.5-.6,1.5-1.9v-2.2s2.8-.3,2.8-.3v3.6c0,.2,0,.4,0,.6.5.1.9.2,1.4.2,1,0,1.5-.6,1.5-1.9v-4l2.8-.3v5.4c0,.2,0,.4,0,.5.4.2.9.3,1.4.3s.2,0,.2.2Z" style="fill:#fff; stroke-width:0px;"/><path d="M473,547.9v2.6c0,.1,0,.2-.2.2h-3.5c-.1,0-.2,0-.2-.2v-2.6c0-.1,0-.2.2-.2h3.5c.1,0,.2,0,.2.2Z" style="fill:#fff; stroke-width:0px;"/><path d="M476.6,547.9v2.6c0,.1,0,.2-.2.2h-3.5c-.1,0-.2,0-.2-.2v-2.6c0-.1,0-.2.2-.2h3.5c.1,0,.2,0,.2.2Z" style="fill:#fff; stroke-width:0px;"/><path d="M480.1,547.9v2.6c0,.1,0,.2-.2.2h-3.5c-.1,0-.2,0-.2-.2v-2.6c0-.1,0-.2.2-.2h3.5c.1,0,.2,0,.2.2Z" style="fill:#fff; stroke-width:0px;"/><path d="M483.6,547.9v2.6c0,.1,0,.2-.2.2h-3.5c-.1,0-.2,0-.2-.2v-2.6c0-.1,0-.2.2-.2h3.5c.1,0,.2,0,.2.2Z" style="fill:#fff; stroke-width:0px;"/><path d="M487.2,547.9v2.6c0,.1,0,.2-.2.2h-3.5c-.1,0-.2,0-.2-.2v-2.6c0-.1,0-.2.2-.2h3.5c.1,0,.2,0,.2.2Z" style="fill:#fff; stroke-width:0px;"/><path d="M490.7,547.9v2.6c0,.1,0,.2-.2.2h-3.5c-.1,0-.2,0-.2-.2v-2.6c0-.1,0-.2.2-.2h3.5c.1,0,.2,0,.2.2Z" style="fill:#fff; stroke-width:0px;"/><path d="M494.3,547.9v2.6c0,.1,0,.2-.2.2h-3.5c-.1,0-.2,0-.2-.2v-2.6c0-.1,0-.2.2-.2h3.5c.1,0,.2,0,.2.2Z" style="fill:#fff; stroke-width:0px;"/><path d="M497.8,547.9v2.6c0,.1,0,.2-.2.2h-3.5c-.1,0-.2,0-.2-.2v-2.6c0-.1,0-.2.2-.2h3.5c.1,0,.2,0,.2.2Z" style="fill:#fff; stroke-width:0px;"/><path d="M500.7,541.9l2.8-.3v5.4c0,2.5-1.4,3.8-4.4,3.8h-1.5c-.1,0-.2,0-.2-.2v-2.6c0-.1.1-.2.2-.2h1.5c1,0,1.5-.6,1.5-1.9v-4ZM500.6,540.5l-1.9-1.9,1.9-1.9,1.4,1.4,1.4-1.4,1.9,1.9-1.9,1.9-1.4-1.4-1.4,1.4Z" style="fill:#fff; stroke-width:0px;"/><path d="M515.4,547.9v2.6c0,.1,0,.2-.2.2h-.9c-.3,2.8-3.2,3.9-7.5,3.9l-.3-2.3c3.1,0,4.6-.4,4.9-1.6h-1.5c-2.6,0-4.3-1.8-4.3-4.5s2-4.7,4.5-4.7,4.3,1.7,4.3,4.6v1.7h.9c.1,0,.2,0,.2.2ZM510.1,547.9c.4,0,.9,0,1.4,0v-1.6c0-1.2-.7-1.9-1.7-1.9s-1.7.7-1.7,1.7.9,1.8,2,1.8Z" style="fill:#fff; stroke-width:0px;"/><path d="M518.9,547.9v2.6c0,.1,0,.2-.2.2h-3.5c-.1,0-.2,0-.2-.2v-2.6c0-.1,0-.2.2-.2h3.5c.1,0,.2,0,.2.2Z" style="fill:#fff; stroke-width:0px;"/><path d="M522.5,547.9v2.6c0,.1,0,.2-.2.2h-3.5c-.1,0-.2,0-.2-.2v-2.6c0-.1,0-.2.2-.2h3.5c.1,0,.2,0,.2.2Z" style="fill:#fff; stroke-width:0px;"/><path d="M526,547.9v2.6c0,.1,0,.2-.2.2h-3.5c-.1,0-.2,0-.2-.2v-2.6c0-.1,0-.2.2-.2h3.5c.1,0,.2,0,.2.2Z" style="fill:#fff; stroke-width:0px;"/><path d="M529.5,547.9v2.6c0,.1,0,.2-.2.2h-3.5c-.1,0-.2,0-.2-.2v-2.6c0-.1,0-.2.2-.2h3.5c.1,0,.2,0,.2.2Z" style="fill:#fff; stroke-width:0px;"/><path d="M533.1,547.9v2.6c0,.1,0,.2-.2.2h-3.5c-.1,0-.2,0-.2-.2v-2.6c0-.1,0-.2.2-.2h3.5c.1,0,.2,0,.2.2Z" style="fill:#fff; stroke-width:0px;"/><path d="M536.6,547.9v2.6c0,.1,0,.2-.2.2h-3.5c-.1,0-.2,0-.2-.2v-2.6c0-.1,0-.2.2-.2h3.5c.1,0,.2,0,.2.2Z" style="fill:#fff; stroke-width:0px;"/><path d="M540.2,547.9v2.6c0,.1,0,.2-.2.2h-3.5c-.1,0-.2,0-.2-.2v-2.6c0-.1,0-.2.2-.2h3.5c.1,0,.2,0,.2.2Z" style="fill:#fff; stroke-width:0px;"/><path d="M539.8,550.6v-2.6c0-.1,0-.2.2-.2,1,0,1.5-.6,1.5-1.9v-8.1s2.9-.3,2.9-.3v9.5c0,2.6-1.5,3.9-4.4,3.9s-.2,0-.2-.2Z" style="fill:#fff; stroke-width:0px;"/><path d="M503.2,568.3v7.5h5.2v1.2h-6.6v-8.7h1.4Z" style="fill:#ee304c; stroke-width:0px;"/><path d="M510.9,576.6c-.7-.4-1.3-.9-1.7-1.5-.4-.7-.6-1.5-.6-2.4s.2-1.8.6-2.5c.4-.7.9-1.2,1.7-1.6.7-.4,1.6-.5,2.6-.5s1.9.2,2.6.5,1.3.9,1.7,1.6c.4.7.6,1.5.6,2.5s-.2,1.8-.6,2.4c-.4.7-.9,1.2-1.7,1.5s-1.6.5-2.6.5-1.9-.2-2.6-.5ZM511,575.1c.6.6,1.4.9,2.5.9s1.9-.3,2.5-.9.9-1.4.9-2.4-.3-1.9-.9-2.5c-.6-.6-1.4-.9-2.5-.9s-1.9.3-2.5.9c-.6.6-.9,1.4-.9,2.5s.3,1.8.9,2.4Z" style="fill:#ee304c; stroke-width:0px;"/><path d="M521.5,569.4h-3.1v-1.2h7.6v1.2h-3.1v7.5h-1.4v-7.5Z" style="fill:#ee304c; stroke-width:0px;"/><path d="M534.1,576.2c-.7.7-1.8,1-3.2,1s-2.4-.3-3.2-1c-.7-.7-1.1-1.6-1.1-2.8v-5.1h1.4v5.1c0,.9.2,1.5.7,2,.5.5,1.2.7,2.1.7s1.6-.2,2.1-.7c.5-.5.7-1.1.7-2v-5.1h1.4v5.1c0,1.2-.4,2.1-1.1,2.8Z" style="fill:#ee304c; stroke-width:0px;"/><path d="M541.6,569.5c-.6-.1-1.1-.2-1.7-.2s-1.2,0-1.6.3c-.3.2-.5.5-.5.9s0,.5.2.7c.2.2.4.3.7.4.3.1.8.2,1.4.4.9.2,1.5.4,2.1.6.5.2.9.5,1.2.8.3.3.4.7.4,1.2,0,.8-.4,1.5-1.1,1.9s-1.7.6-3,.6-2.6-.2-3.6-.6v-1.3c.5.2,1.1.4,1.7.5.6.1,1.2.2,1.9.2s1.5-.1,1.9-.3c.4-.2.6-.6.6-1s0-.5-.3-.7c-.2-.2-.4-.3-.8-.5s-.9-.3-1.5-.4c-.8-.2-1.4-.4-1.9-.6-.5-.2-.9-.5-1.1-.8-.3-.3-.4-.7-.4-1.2,0-.8.3-1.4.9-1.8.6-.4,1.5-.6,2.7-.6s2.3.2,3.3.6v1.2c-.5-.2-1-.4-1.6-.5Z" style="fill:#ee304c; stroke-width:0px;"/><path d="M49.8,551.2c-.7,0-1.3-.1-1.8-.4-.6-.2-1.1-.6-1.5-1.2-.4-.5-.6-1.2-.7-2.1h1.9c0,.4.2.8.4,1s.5.5.8.6c.3.1.6.2.9.2s.7,0,1-.3c.3-.2.5-.4.7-.7.2-.3.2-.6.2-1s0-.7-.3-1-.5-.5-.8-.6-.8-.2-1.2-.2h-2.1s-.8-.7-.8-.7l.6-4.7h5.9v1.6h-4.2l-.3,2.4h1.5c.8,0,1.4.1,2,.4s1,.6,1.3,1.1.5,1,.5,1.7-.2,1.3-.5,1.8c-.3.6-.8,1-1.4,1.4-.6.3-1.3.5-2.1.5Z" style="fill:#fff; stroke-width:0px;"/><path d="M55.8,549.3h1.8l-1.4,3.2h-1.4l.9-3.2Z" style="fill:#fff; stroke-width:0px;"/><path d="M63.3,551.2c-1,0-1.8-.2-2.5-.7-.7-.5-1.2-1.2-1.5-2-.3-.8-.5-1.8-.5-2.8s.2-2,.5-2.8c.4-.8.9-1.5,1.6-2,.7-.5,1.5-.7,2.4-.7s1.9.3,2.6.8c.7.5,1.2,1.2,1.5,2s.5,1.8.5,2.8-.2,2-.5,2.8-.9,1.5-1.5,2c-.7.5-1.5.7-2.5.7ZM63.3,549.5c.5,0,1-.2,1.4-.5.4-.3.7-.8.9-1.3s.3-1.2.3-2-.1-1.4-.3-1.9-.5-1-.9-1.3c-.4-.3-.9-.5-1.4-.5s-1,.2-1.4.5c-.4.3-.7.8-.9,1.3-.2.6-.3,1.2-.3,2s.1,1.4.3,1.9.5,1,.9,1.3c.4.3.9.5,1.4.5Z" style="fill:#fff; stroke-width:0px;"/><path d="M73.5,551.2c-1,0-1.8-.2-2.5-.7-.7-.5-1.2-1.2-1.5-2-.3-.8-.5-1.8-.5-2.8s.2-2,.5-2.8c.4-.8.9-1.5,1.6-2,.7-.5,1.5-.7,2.4-.7s1.9.3,2.6.8c.7.5,1.2,1.2,1.5,2s.5,1.8.5,2.8-.2,2-.5,2.8-.9,1.5-1.5,2c-.7.5-1.5.7-2.5.7ZM73.5,549.5c.5,0,1-.2,1.4-.5.4-.3.7-.8.9-1.3s.3-1.2.3-2-.1-1.4-.3-1.9-.5-1-.9-1.3c-.4-.3-.9-.5-1.4-.5s-1,.2-1.4.5c-.4.3-.7.8-.9,1.3-.2.6-.3,1.2-.3,2s.1,1.4.3,1.9.5,1,.9,1.3c.4.3.9.5,1.4.5Z" style="fill:#fff; stroke-width:0px;"/><path d="M83.6,551.2c-1,0-1.8-.2-2.5-.7-.7-.5-1.2-1.2-1.5-2-.3-.8-.5-1.8-.5-2.8s.2-2,.5-2.8c.4-.8.9-1.5,1.6-2,.7-.5,1.5-.7,2.4-.7s1.9.3,2.6.8c.7.5,1.2,1.2,1.5,2s.5,1.8.5,2.8-.2,2-.5,2.8-.9,1.5-1.5,2c-.7.5-1.5.7-2.5.7ZM83.6,549.5c.5,0,1-.2,1.4-.5.4-.3.7-.8.9-1.3s.3-1.2.3-2-.1-1.4-.3-1.9-.5-1-.9-1.3c-.4-.3-.9-.5-1.4-.5s-1,.2-1.4.5c-.4.3-.7.8-.9,1.3-.2.6-.3,1.2-.3,2s.1,1.4.3,1.9.5,1,.9,1.3c.4.3.9.5,1.4.5Z" style="fill:#fff; stroke-width:0px;"/><path d="M93.9,540.4h1.9v10.6h-1.9v-10.6Z" style="fill:#fff; stroke-width:0px;"/><path d="M103.3,551.2c-1,0-2-.2-2.9-.7-.9-.5-1.6-1.2-2.1-2-.5-.9-.8-1.8-.8-2.8s.3-1.9.8-2.8c.5-.8,1.2-1.5,2.1-2,.9-.5,1.8-.7,2.9-.7s2,.2,2.9.7,1.6,1.2,2.1,2,.8,1.8.8,2.8-.3,1.9-.8,2.8-1.2,1.5-2.1,2-1.8.7-2.9.7ZM103.3,549.4c.7,0,1.3-.2,1.9-.5.6-.3,1-.8,1.4-1.3.3-.6.5-1.2.5-1.9s-.2-1.4-.5-1.9c-.3-.6-.8-1-1.4-1.4-.6-.3-1.2-.5-1.9-.5s-1.3.2-1.9.5-1,.8-1.4,1.4c-.3.6-.5,1.2-.5,1.9s.2,1.3.5,1.9c.3.6.8,1,1.4,1.3s1.2.5,1.9.5ZM105,550.5l1.7-.8,1.9,2.7-1.8,1-1.8-2.9Z" style="fill:#fff; stroke-width:0px;"/><path d="M111,540.4h4.1c1.1,0,2.1.2,3,.7.9.4,1.5,1.1,2,1.9s.7,1.7.7,2.8-.2,2-.7,2.8c-.5.8-1.1,1.4-2,1.9s-1.8.7-2.9.7h-4.1v-10.6ZM115.1,549.3c.8,0,1.4-.1,2-.4.6-.3,1-.7,1.3-1.2s.4-1.2.4-1.9-.1-1.4-.4-1.9c-.3-.5-.7-1-1.3-1.3s-1.2-.4-2-.4h-2.1v7.2h2.1Z" style="fill:#fff; stroke-width:0px;"/><rect x="282.4" y="546.5" width="122.6" height=".6" style="fill:#fff; stroke-width:0px;"/><path d="M458.5,623.7v2.6c0,.1,0,.2-.2.2h-.9c-.3,2.8-3.2,3.9-7.5,3.9l-.3-2.3c3.1,0,4.6-.4,4.9-1.6h-1.5c-2.6,0-4.3-1.8-4.3-4.5s2-4.7,4.5-4.7,4.3,1.7,4.3,4.6v1.7h.9c.1,0,.2,0,.2.2ZM453.2,623.6c.4,0,.9,0,1.4,0v-1.6c0-1.2-.7-1.9-1.7-1.9s-1.7.7-1.7,1.7.9,1.8,2,1.8Z" style="fill:#fff; stroke-width:0px;"/><path d="M465.5,623.7v2.6c0,.1,0,.2-.2.2-1,0-2-.5-2.9-1.4-.8.9-2.3,1.4-4.2,1.4s-.2,0-.2-.2v-2.6c0-.1.1-.2.2-.2,1.4,0,2.2-.5,2.2-1.9v-2.2s2.8-.3,2.8-.3v3.8c.6.4,1.3.6,2,.6s.2,0,.2.2ZM463.1,627.4l1.9,1.9-1.9,1.9-1.3-1.3-1.3,1.3-1.9-1.9,1.9-1.9,1.3,1.3,1.3-1.3Z" style="fill:#fff; stroke-width:0px;"/><path d="M469.1,623.7v2.6c0,.1,0,.2-.2.2h-3.5c-.1,0-.2,0-.2-.2v-2.6c0-.1,0-.2.2-.2h3.5c.1,0,.2,0,.2.2Z" style="fill:#fff; stroke-width:0px;"/><path d="M472.6,623.7v2.6c0,.1,0,.2-.2.2h-3.5c-.1,0-.2,0-.2-.2v-2.6c0-.1,0-.2.2-.2h3.5c.1,0,.2,0,.2.2Z" style="fill:#fff; stroke-width:0px;"/><path d="M476.2,623.7v2.6c0,.1,0,.2-.2.2h-3.5c-.1,0-.2,0-.2-.2v-2.6c0-.1,0-.2.2-.2h3.5c.1,0,.2,0,.2.2Z" style="fill:#fff; stroke-width:0px;"/><path d="M479.7,623.7v2.6c0,.1,0,.2-.2.2h-3.5c-.1,0-.2,0-.2-.2v-2.6c0-.1,0-.2.2-.2h3.5c.1,0,.2,0,.2.2Z" style="fill:#fff; stroke-width:0px;"/><path d="M483.2,623.7v2.6c0,.1,0,.2-.2.2h-3.5c-.1,0-.2,0-.2-.2v-2.6c0-.1,0-.2.2-.2h3.5c.1,0,.2,0,.2.2Z" style="fill:#fff; stroke-width:0px;"/><path d="M486.8,623.7v2.6c0,.1,0,.2-.2.2h-3.5c-.1,0-.2,0-.2-.2v-2.6c0-.1,0-.2.2-.2h3.5c.1,0,.2,0,.2.2Z" style="fill:#fff; stroke-width:0px;"/><path d="M502.4,617.2v5.4c0,2.5-1.3,3.8-3.8,3.8s-2-.3-3-1c-.7.6-1.7,1-2.9,1s-1.8-.3-2.7-1.1c-.7.7-1.8,1.1-3.3,1.1s-.2,0-.2-.2v-2.6c0-.1,0-.2.2-.2,1,0,1.5-.6,1.5-1.9v-2.2s2.8-.3,2.8-.3v3.6c0,.2,0,.4,0,.5.5.2.9.3,1.4.3,1,0,1.5-.6,1.5-1.9v-2.2s2.8-.3,2.8-.3v3.6c0,.2,0,.4,0,.6.5.1.9.2,1.4.2,1,0,1.5-.6,1.5-1.9v-4.1l2.8-.3ZM493.8,617.3l-1.9-1.9,1.9-1.9,1.4,1.4,1.4-1.4,1.9,1.9-1.9,1.9-1.5-1.4-1.4,1.4ZM495.2,614l-1.2-1.2,1.2-1.2,1.2,1.2-1.2,1.2Z" style="fill:#fff; stroke-width:0px;"/><path d="M504.7,622.6v-9.1s2.8-.3,2.8-.3v8.4c0,1.3.5,1.9,1.5,1.9s.2,0,.2.2v2.6c0,.1,0,.2-.2.2-2.9,0-4.4-1.3-4.4-3.9Z" style="fill:#fff; stroke-width:0px;"/><path d="M516.3,623.7v2.6c0,.1,0,.2-.2.2-1,0-2-.5-2.9-1.4-.8.9-2.3,1.4-4.2,1.4s-.2,0-.2-.2v-2.6c0-.1.1-.2.2-.2,1.4,0,2.2-.5,2.2-1.9v-2.2s2.8-.3,2.8-.3v3.8c.6.4,1.3.6,2,.6s.2,0,.2.2ZM511.2,618.1l-1.9-1.9,1.9-1.9,1.4,1.4,1.4-1.4,1.9,1.9-1.9,1.9-1.5-1.4-1.4,1.4Z" style="fill:#fff; stroke-width:0px;"/><path d="M533.6,623.7v2.6c0,.1,0,.2-.2.2-1,0-1.8-.3-2.6-.9-.6.6-1.6.9-2.8.9s-2-.3-3-1c-.7.6-1.7,1-2.9,1s-1.8-.3-2.7-1.1c-.7.7-1.8,1.1-3.3,1.1s-.2,0-.2-.2v-2.6c0-.1,0-.2.2-.2,1,0,1.5-.6,1.5-1.9v-2.2s2.8-.3,2.8-.3v3.6c0,.2,0,.4,0,.5.5.2.9.3,1.4.3,1,0,1.5-.6,1.5-1.9v-2.2s2.8-.3,2.8-.3v3.6c0,.2,0,.4,0,.6.5.1.9.2,1.4.2,1,0,1.5-.6,1.5-1.9v-4.1l2.8-.3v5.4c0,.2,0,.3,0,.5.4.2,1,.3,1.6.3s.2,0,.2.2Z" style="fill:#fff; stroke-width:0px;"/><path d="M540.7,623.7v2.6c0,.1,0,.2-.2.2-1,0-2-.5-2.9-1.4-.8.9-2.3,1.4-4.2,1.4s-.2,0-.2-.2v-2.6c0-.1.1-.2.2-.2,1.4,0,2.2-.5,2.2-1.9v-2.2s2.8-.3,2.8-.3v3.8c.6.4,1.3.6,2,.6s.2,0,.2.2ZM538.3,627.4l1.9,1.9-1.9,1.9-1.3-1.3-1.3,1.3-1.9-1.9,1.9-1.9,1.3,1.3,1.3-1.3Z" style="fill:#fff; stroke-width:0px;"/><path d="M540.3,626.3v-2.6c0-.1.1-.2.2-.2,1,0,1.5-.6,1.5-1.9v-4s2.8-.3,2.8-.3v5.4c0,2.5-1.4,3.8-4.4,3.8s-.2,0-.2-.2ZM540.8,629.3l1.9-1.9,1.9,1.9-1.9,1.9-1.9-1.9Z" style="fill:#fff; stroke-width:0px;"/><path d="M463.7,644.3h4.3c1.5,0,2.6.3,3.4.9.8.6,1.2,1.4,1.2,2.5s-.4,1.9-1.2,2.5c-.8.6-1.9.9-3.4.9h-2.7v3.5h-1.7v-10.2ZM470.1,649.3c.5-.4.7-.9.7-1.6s-.2-1.2-.7-1.6-1.2-.5-2.2-.5h-2.6v4.3h2.6c.9,0,1.7-.2,2.2-.5Z" style="fill:#ee304c; stroke-width:0px;"/><path d="M475.6,644.3v10.2h-1.7v-10.2h1.7Z" style="fill:#ee304c; stroke-width:0px;"/><path d="M483.5,645.7c-.7-.1-1.3-.2-2-.2s-1.4.1-1.9.3c-.4.2-.6.6-.6,1.1s0,.6.3.8.5.4.9.5c.4.1.9.3,1.6.4,1,.2,1.8.5,2.4.7.6.3,1.1.6,1.4,1,.3.4.5.9.5,1.4,0,1-.4,1.7-1.3,2.2-.8.5-2,.7-3.5.7s-3.1-.2-4.2-.7v-1.5c.6.2,1.3.4,2,.6s1.4.2,2.2.2,1.7-.1,2.2-.4c.5-.3.7-.7.7-1.2s-.1-.6-.3-.8c-.2-.2-.5-.4-1-.6s-1-.3-1.8-.5c-.9-.2-1.7-.4-2.3-.7-.6-.2-1-.6-1.3-.9s-.4-.8-.4-1.4c0-.9.4-1.6,1.1-2.1.7-.5,1.8-.7,3.2-.7s2.7.2,3.9.7v1.5c-.6-.2-1.2-.4-1.8-.5Z" style="fill:#ee304c; stroke-width:0px;"/><path d="M490.1,645.7h-3.6v-1.4h9v1.4h-3.7v8.9h-1.7v-8.9Z" style="fill:#ee304c; stroke-width:0px;"/><path d="M498.4,644.3h3.2l4.2,10.2h-1.8l-1-2.5h-6l-1,2.5h-1.8l4.2-10.2ZM502.6,650.9l-2.5-6.4h0l-2.5,6.4h5Z" style="fill:#ee304c; stroke-width:0px;"/><path d="M508.6,652.3c.7.7,1.8,1,3.1,1s1.2,0,1.8-.2c.6-.1,1.2-.3,1.7-.6v1.5c-.4.2-1,.4-1.6.5-.6.1-1.2.2-1.8.2-1.9,0-3.4-.5-4.4-1.4-1-.9-1.6-2.2-1.6-3.9s.5-3,1.6-3.9c1-.9,2.5-1.4,4.4-1.4s1.2,0,1.8.2c.6.1,1.2.3,1.7.5v1.5c-.6-.2-1.2-.4-1.8-.6-.6-.1-1.2-.2-1.8-.2-1.3,0-2.4.3-3.1,1-.7.7-1.1,1.7-1.1,2.9s.4,2.2,1.1,2.9Z" style="fill:#ee304c; stroke-width:0px;"/><path d="M526.6,644.3v10.2h-1.7v-4.4h-6.3v4.4h-1.7v-10.2h1.7v4.5h6.3v-4.5h1.7Z" style="fill:#ee304c; stroke-width:0px;"/><path d="M530.4,644.3v10.2h-1.7v-10.2h1.7Z" style="fill:#ee304c; stroke-width:0px;"/><path d="M534.7,654.2c-.8-.4-1.5-1-1.9-1.8-.4-.8-.7-1.7-.7-2.9s.2-2.1.7-2.9c.4-.8,1.1-1.4,1.9-1.8.8-.4,1.9-.6,3.1-.6s2.2.2,3.1.6c.8.4,1.5,1,1.9,1.8.4.8.7,1.8.7,2.9s-.2,2.1-.7,2.9c-.4.8-1.1,1.4-1.9,1.8-.8.4-1.9.6-3.1.6s-2.2-.2-3.1-.6ZM534.9,652.3c.7.7,1.7,1,2.9,1s2.2-.3,2.9-1c.7-.7,1-1.6,1-2.8s-.3-2.2-1-2.9c-.7-.7-1.7-1-2.9-1s-2.2.3-2.9,1-1,1.7-1,2.9.3,2.2,1,2.8Z" style="fill:#ee304c; stroke-width:0px;"/><path d="M50.3,627c-.7,0-1.3-.1-1.8-.4-.6-.2-1.1-.6-1.5-1.2-.4-.5-.6-1.2-.7-2.1h1.9c0,.4.2.8.4,1s.5.5.8.6c.3.1.6.2.9.2s.7,0,1-.3c.3-.2.5-.4.7-.7.2-.3.2-.6.2-1s0-.7-.3-1-.5-.5-.8-.6-.8-.2-1.2-.2h-2.1s-.8-.7-.8-.7l.6-4.7h5.9v1.6h-4.2l-.3,2.4h1.5c.8,0,1.4.1,2,.4s1,.6,1.3,1.1.5,1,.5,1.7-.2,1.3-.5,1.8c-.3.6-.8,1-1.4,1.4-.6.3-1.3.5-2.1.5Z" style="fill:#fff; stroke-width:0px;"/><path d="M56.3,625h1.8l-1.4,3.2h-1.4l.9-3.2Z" style="fill:#fff; stroke-width:0px;"/><path d="M63.4,627c-.7,0-1.3-.1-1.8-.4-.6-.2-1.1-.6-1.5-1.2-.4-.5-.6-1.2-.7-2.1h1.9c0,.4.2.8.4,1s.5.5.8.6c.3.1.6.2.9.2s.7,0,1-.3c.3-.2.5-.4.7-.7.2-.3.2-.6.2-1s0-.7-.3-1-.5-.5-.8-.6-.8-.2-1.2-.2h-2.1s-.8-.7-.8-.7l.6-4.7h5.9v1.6h-4.2l-.3,2.4h1.5c.8,0,1.4.1,2,.4s1,.6,1.3,1.1.5,1,.5,1.7-.2,1.3-.5,1.8c-.3.6-.8,1-1.4,1.4-.6.3-1.3.5-2.1.5Z" style="fill:#fff; stroke-width:0px;"/><path d="M73,627c-1,0-1.8-.2-2.5-.7-.7-.5-1.2-1.2-1.5-2-.3-.8-.5-1.8-.5-2.8s.2-2,.5-2.8c.4-.8.9-1.5,1.6-2,.7-.5,1.5-.7,2.4-.7s1.9.3,2.6.8c.7.5,1.2,1.2,1.5,2s.5,1.8.5,2.8-.2,2-.5,2.8-.9,1.5-1.5,2c-.7.5-1.5.7-2.5.7ZM73,625.2c.5,0,1-.2,1.4-.5.4-.3.7-.8.9-1.3s.3-1.2.3-2-.1-1.4-.3-1.9-.5-1-.9-1.3c-.4-.3-.9-.5-1.4-.5s-1,.2-1.4.5c-.4.3-.7.8-.9,1.3-.2.6-.3,1.2-.3,2s.1,1.4.3,1.9.5,1,.9,1.3c.4.3.9.5,1.4.5Z" style="fill:#fff; stroke-width:0px;"/><path d="M83.1,627c-1,0-1.8-.2-2.5-.7-.7-.5-1.2-1.2-1.5-2-.3-.8-.5-1.8-.5-2.8s.2-2,.5-2.8c.4-.8.9-1.5,1.6-2,.7-.5,1.5-.7,2.4-.7s1.9.3,2.6.8c.7.5,1.2,1.2,1.5,2s.5,1.8.5,2.8-.2,2-.5,2.8-.9,1.5-1.5,2c-.7.5-1.5.7-2.5.7ZM83.1,625.2c.5,0,1-.2,1.4-.5.4-.3.7-.8.9-1.3s.3-1.2.3-2-.1-1.4-.3-1.9-.5-1-.9-1.3c-.4-.3-.9-.5-1.4-.5s-1,.2-1.4.5c-.4.3-.7.8-.9,1.3-.2.6-.3,1.2-.3,2s.1,1.4.3,1.9.5,1,.9,1.3c.4.3.9.5,1.4.5Z" style="fill:#fff; stroke-width:0px;"/><path d="M93.4,616.1h1.9v10.6h-1.9v-10.6Z" style="fill:#fff; stroke-width:0px;"/><path d="M102.8,627c-1,0-2-.2-2.9-.7-.9-.5-1.6-1.2-2.1-2-.5-.9-.8-1.8-.8-2.8s.3-1.9.8-2.8c.5-.8,1.2-1.5,2.1-2,.9-.5,1.8-.7,2.9-.7s2,.2,2.9.7,1.6,1.2,2.1,2,.8,1.8.8,2.8-.3,1.9-.8,2.8-1.2,1.5-2.1,2-1.8.7-2.9.7ZM102.8,625.2c.7,0,1.3-.2,1.9-.5.6-.3,1-.8,1.4-1.3.3-.6.5-1.2.5-1.9s-.2-1.4-.5-1.9c-.3-.6-.8-1-1.4-1.4-.6-.3-1.2-.5-1.9-.5s-1.3.2-1.9.5-1,.8-1.4,1.4c-.3.6-.5,1.2-.5,1.9s.2,1.3.5,1.9c.3.6.8,1,1.4,1.3s1.2.5,1.9.5ZM104.5,626.2l1.7-.8,1.9,2.7-1.8,1-1.8-2.9Z" style="fill:#fff; stroke-width:0px;"/><path d="M110.5,616.1h4.1c1.1,0,2.1.2,3,.7.9.4,1.5,1.1,2,1.9s.7,1.7.7,2.8-.2,2-.7,2.8c-.5.8-1.1,1.4-2,1.9s-1.8.7-2.9.7h-4.1v-10.6ZM114.5,625c.8,0,1.4-.1,2-.4.6-.3,1-.7,1.3-1.2s.4-1.2.4-1.9-.1-1.4-.4-1.9c-.3-.5-.7-1-1.3-1.3s-1.2-.4-2-.4h-2.1v7.2h2.1Z" style="fill:#fff; stroke-width:0px;"/><path d="M163.6,242.8c-.8,0-1.4-.2-2-.5s-1-.8-1.4-1.3c-.3-.5-.5-1.2-.5-1.8s0-.7.1-1c0-.3.2-.7.4-1,.2-.4.5-.8.8-1.4l2.4-3.8h2.2l-2.7,4.1c.2,0,.3-.2.5-.2.2,0,.4,0,.5,0,.6,0,1.1.1,1.7.4.5.3.9.7,1.2,1.2.3.5.5,1.1.5,1.8s-.2,1.3-.5,1.8c-.3.5-.8,1-1.4,1.3s-1.3.5-2,.5ZM163.6,241c.3,0,.7,0,.9-.2.3-.2.5-.4.6-.6.2-.3.2-.6.2-.9s0-.7-.2-.9-.4-.5-.6-.7c-.3-.2-.6-.2-.9-.2s-.7,0-1,.3c-.3.2-.5.4-.6.7-.1.3-.2.6-.2.9s0,.7.2.9c.2.3.4.5.7.6.3.2.6.2.9.2Z" style="fill:#fff; stroke-width:0px;"/><path d="M169.5,240.8h1.8l-1.4,3.2h-1.4l.9-3.2Z" style="fill:#fff; stroke-width:0px;"/><path d="M177.1,242.8c-1,0-1.8-.2-2.5-.7s-1.2-1.2-1.5-2c-.3-.8-.5-1.8-.5-2.8s.2-2,.5-2.8c.4-.8.9-1.5,1.6-2,.7-.5,1.5-.7,2.4-.7s1.9.3,2.6.8c.7.5,1.2,1.2,1.5,2,.3.8.5,1.8.5,2.8s-.2,2-.5,2.8c-.3.8-.9,1.5-1.5,2-.7.5-1.5.7-2.5.7ZM177.1,241c.5,0,1-.2,1.4-.5.4-.3.7-.8.9-1.3s.3-1.2.3-2-.1-1.4-.3-1.9-.5-1-.9-1.3c-.4-.3-.9-.5-1.4-.5s-1,.2-1.4.5c-.4.3-.7.8-.9,1.3-.2.6-.3,1.2-.3,2s.1,1.4.3,1.9c.2.6.5,1,.9,1.3.4.3.9.5,1.4.5Z" style="fill:#fff; stroke-width:0px;"/><path d="M187.2,242.8c-1,0-1.8-.2-2.5-.7s-1.2-1.2-1.5-2c-.3-.8-.5-1.8-.5-2.8s.2-2,.5-2.8c.4-.8.9-1.5,1.6-2,.7-.5,1.5-.7,2.4-.7s1.9.3,2.6.8c.7.5,1.2,1.2,1.5,2,.3.8.5,1.8.5,2.8s-.2,2-.5,2.8c-.3.8-.9,1.5-1.5,2-.7.5-1.5.7-2.5.7ZM187.2,241c.5,0,1-.2,1.4-.5.4-.3.7-.8.9-1.3s.3-1.2.3-2-.1-1.4-.3-1.9-.5-1-.9-1.3c-.4-.3-.9-.5-1.4-.5s-1,.2-1.4.5c-.4.3-.7.8-.9,1.3-.2.6-.3,1.2-.3,2s.1,1.4.3,1.9c.2.6.5,1,.9,1.3.4.3.9.5,1.4.5Z" style="fill:#fff; stroke-width:0px;"/><path d="M197.4,242.8c-1,0-1.8-.2-2.5-.7s-1.2-1.2-1.5-2c-.3-.8-.5-1.8-.5-2.8s.2-2,.5-2.8c.4-.8.9-1.5,1.6-2,.7-.5,1.5-.7,2.4-.7s1.9.3,2.6.8c.7.5,1.2,1.2,1.5,2,.3.8.5,1.8.5,2.8s-.2,2-.5,2.8c-.3.8-.9,1.5-1.5,2-.7.5-1.5.7-2.5.7ZM197.4,241c.5,0,1-.2,1.4-.5.4-.3.7-.8.9-1.3s.3-1.2.3-2-.1-1.4-.3-1.9-.5-1-.9-1.3c-.4-.3-.9-.5-1.4-.5s-1,.2-1.4.5c-.4.3-.7.8-.9,1.3-.2.6-.3,1.2-.3,2s.1,1.4.3,1.9c.2.6.5,1,.9,1.3.4.3.9.5,1.4.5Z" style="fill:#fff; stroke-width:0px;"/><path d="M207.6,231.9h1.9v10.6h-1.9v-10.6Z" style="fill:#fff; stroke-width:0px;"/><path d="M217,242.8c-1,0-2-.2-2.9-.7-.9-.5-1.6-1.2-2.1-2s-.8-1.8-.8-2.8.3-1.9.8-2.8c.5-.8,1.2-1.5,2.1-2,.9-.5,1.8-.7,2.9-.7s2,.2,2.9.7c.9.5,1.6,1.2,2.1,2,.5.8.8,1.8.8,2.8s-.3,1.9-.8,2.8-1.2,1.5-2.1,2c-.9.5-1.8.7-2.9.7ZM217,241c.7,0,1.3-.2,1.9-.5.6-.3,1-.8,1.4-1.3.3-.6.5-1.2.5-1.9s-.2-1.4-.5-1.9c-.3-.6-.8-1-1.4-1.4s-1.2-.5-1.9-.5-1.3.2-1.9.5-1,.8-1.4,1.4c-.3.6-.5,1.2-.5,1.9s.2,1.3.5,1.9.8,1,1.4,1.3,1.2.5,1.9.5ZM218.7,242l1.7-.8,1.9,2.7-1.8,1-1.8-2.9Z" style="fill:#fff; stroke-width:0px;"/><path d="M224.7,231.9h4.1c1.1,0,2.1.2,3,.7.9.4,1.5,1.1,2,1.9.5.8.7,1.7.7,2.8s-.2,2-.7,2.8-1.1,1.4-2,1.9c-.9.4-1.8.7-2.9.7h-4.1v-10.6ZM228.8,240.8c.8,0,1.4-.1,2-.4.6-.3,1-.7,1.3-1.2.3-.5.4-1.2.4-1.9s-.1-1.4-.4-1.9c-.3-.5-.7-1-1.3-1.3-.6-.3-1.2-.4-2-.4h-2.1v7.2h2.1Z" style="fill:#fff; stroke-width:0px;"/><path d="M163.6,322.1c-.8,0-1.4-.2-2-.5s-1-.8-1.4-1.3c-.3-.5-.5-1.2-.5-1.8s0-.7.1-1c0-.3.2-.7.4-1,.2-.4.5-.8.8-1.4l2.4-3.8h2.2l-2.7,4.1c.2,0,.3-.2.5-.2.2,0,.4,0,.5,0,.6,0,1.1.1,1.7.4.5.3.9.7,1.2,1.2.3.5.5,1.1.5,1.8s-.2,1.3-.5,1.8c-.3.5-.8,1-1.4,1.3s-1.3.5-2,.5ZM163.6,320.3c.3,0,.7,0,.9-.2.3-.2.5-.4.6-.6.2-.3.2-.6.2-.9s0-.7-.2-.9-.4-.5-.6-.7c-.3-.2-.6-.2-.9-.2s-.7,0-1,.3c-.3.2-.5.4-.6.7-.1.3-.2.6-.2.9s0,.7.2.9c.2.3.4.5.7.6.3.2.6.2.9.2Z" style="fill:#fff; stroke-width:0px;"/><path d="M169.5,320.1h1.8l-1.4,3.2h-1.4l.9-3.2Z" style="fill:#fff; stroke-width:0px;"/><path d="M177.1,322.1c-1,0-1.8-.2-2.5-.7s-1.2-1.2-1.5-2c-.3-.8-.5-1.8-.5-2.8s.2-2,.5-2.8c.4-.8.9-1.5,1.6-2,.7-.5,1.5-.7,2.4-.7s1.9.3,2.6.8c.7.5,1.2,1.2,1.5,2,.3.8.5,1.8.5,2.8s-.2,2-.5,2.8c-.3.8-.9,1.5-1.5,2-.7.5-1.5.7-2.5.7ZM177.1,320.3c.5,0,1-.2,1.4-.5.4-.3.7-.8.9-1.3s.3-1.2.3-2-.1-1.4-.3-1.9-.5-1-.9-1.3c-.4-.3-.9-.5-1.4-.5s-1,.2-1.4.5c-.4.3-.7.8-.9,1.3-.2.6-.3,1.2-.3,2s.1,1.4.3,1.9c.2.6.5,1,.9,1.3.4.3.9.5,1.4.5Z" style="fill:#fff; stroke-width:0px;"/><path d="M187.2,322.1c-1,0-1.8-.2-2.5-.7s-1.2-1.2-1.5-2c-.3-.8-.5-1.8-.5-2.8s.2-2,.5-2.8c.4-.8.9-1.5,1.6-2,.7-.5,1.5-.7,2.4-.7s1.9.3,2.6.8c.7.5,1.2,1.2,1.5,2,.3.8.5,1.8.5,2.8s-.2,2-.5,2.8c-.3.8-.9,1.5-1.5,2-.7.5-1.5.7-2.5.7ZM187.2,320.3c.5,0,1-.2,1.4-.5.4-.3.7-.8.9-1.3s.3-1.2.3-2-.1-1.4-.3-1.9-.5-1-.9-1.3c-.4-.3-.9-.5-1.4-.5s-1,.2-1.4.5c-.4.3-.7.8-.9,1.3-.2.6-.3,1.2-.3,2s.1,1.4.3,1.9c.2.6.5,1,.9,1.3.4.3.9.5,1.4.5Z" style="fill:#fff; stroke-width:0px;"/><path d="M197.4,322.1c-1,0-1.8-.2-2.5-.7s-1.2-1.2-1.5-2c-.3-.8-.5-1.8-.5-2.8s.2-2,.5-2.8c.4-.8.9-1.5,1.6-2,.7-.5,1.5-.7,2.4-.7s1.9.3,2.6.8c.7.5,1.2,1.2,1.5,2,.3.8.5,1.8.5,2.8s-.2,2-.5,2.8c-.3.8-.9,1.5-1.5,2-.7.5-1.5.7-2.5.7ZM197.4,320.3c.5,0,1-.2,1.4-.5.4-.3.7-.8.9-1.3s.3-1.2.3-2-.1-1.4-.3-1.9-.5-1-.9-1.3c-.4-.3-.9-.5-1.4-.5s-1,.2-1.4.5c-.4.3-.7.8-.9,1.3-.2.6-.3,1.2-.3,2s.1,1.4.3,1.9c.2.6.5,1,.9,1.3.4.3.9.5,1.4.5Z" style="fill:#fff; stroke-width:0px;"/><path d="M207.6,311.3h1.9v10.6h-1.9v-10.6Z" style="fill:#fff; stroke-width:0px;"/><path d="M217,322.1c-1,0-2-.2-2.9-.7-.9-.5-1.6-1.2-2.1-2s-.8-1.8-.8-2.8.3-1.9.8-2.8c.5-.8,1.2-1.5,2.1-2,.9-.5,1.8-.7,2.9-.7s2,.2,2.9.7c.9.5,1.6,1.2,2.1,2,.5.8.8,1.8.8,2.8s-.3,1.9-.8,2.8-1.2,1.5-2.1,2c-.9.5-1.8.7-2.9.7ZM217,320.3c.7,0,1.3-.2,1.9-.5.6-.3,1-.8,1.4-1.3.3-.6.5-1.2.5-1.9s-.2-1.4-.5-1.9c-.3-.6-.8-1-1.4-1.4s-1.2-.5-1.9-.5-1.3.2-1.9.5-1,.8-1.4,1.4c-.3.6-.5,1.2-.5,1.9s.2,1.3.5,1.9.8,1,1.4,1.3,1.2.5,1.9.5ZM218.7,321.3l1.7-.8,1.9,2.7-1.8,1-1.8-2.9Z" style="fill:#fff; stroke-width:0px;"/><path d="M224.7,311.3h4.1c1.1,0,2.1.2,3,.7.9.4,1.5,1.1,2,1.9.5.8.7,1.7.7,2.8s-.2,2-.7,2.8-1.1,1.4-2,1.9c-.9.4-1.8.7-2.9.7h-4.1v-10.6ZM228.8,320.2c.8,0,1.4-.1,2-.4.6-.3,1-.7,1.3-1.2.3-.5.4-1.2.4-1.9s-.1-1.4-.4-1.9c-.3-.5-.7-1-1.3-1.3-.6-.3-1.2-.4-2-.4h-2.1v7.2h2.1Z" style="fill:#fff; stroke-width:0px;"/><path d="M163.6,397.2c-.8,0-1.4-.2-2-.5s-1-.8-1.4-1.3c-.3-.5-.5-1.2-.5-1.8s0-.7.1-1c0-.3.2-.7.4-1,.2-.4.5-.8.8-1.4l2.4-3.8h2.2l-2.7,4.1c.2,0,.3-.2.5-.2.2,0,.4,0,.5,0,.6,0,1.1.1,1.7.4.5.3.9.7,1.2,1.2.3.5.5,1.1.5,1.8s-.2,1.3-.5,1.8c-.3.5-.8,1-1.4,1.3s-1.3.5-2,.5ZM163.6,395.4c.3,0,.7,0,.9-.2.3-.2.5-.4.6-.6.2-.3.2-.6.2-.9s0-.7-.2-.9-.4-.5-.6-.7c-.3-.2-.6-.2-.9-.2s-.7,0-1,.3c-.3.2-.5.4-.6.7-.1.3-.2.6-.2.9s0,.7.2.9c.2.3.4.5.7.6.3.2.6.2.9.2Z" style="fill:#fff; stroke-width:0px;"/><path d="M169.5,395.2h1.8l-1.4,3.2h-1.4l.9-3.2Z" style="fill:#fff; stroke-width:0px;"/><path d="M177.1,397.2c-1,0-1.8-.2-2.5-.7s-1.2-1.2-1.5-2c-.3-.8-.5-1.8-.5-2.8s.2-2,.5-2.8c.4-.8.9-1.5,1.6-2,.7-.5,1.5-.7,2.4-.7s1.9.3,2.6.8c.7.5,1.2,1.2,1.5,2,.3.8.5,1.8.5,2.8s-.2,2-.5,2.8c-.3.8-.9,1.5-1.5,2-.7.5-1.5.7-2.5.7ZM177.1,395.4c.5,0,1-.2,1.4-.5.4-.3.7-.8.9-1.3s.3-1.2.3-2-.1-1.4-.3-1.9-.5-1-.9-1.3c-.4-.3-.9-.5-1.4-.5s-1,.2-1.4.5c-.4.3-.7.8-.9,1.3-.2.6-.3,1.2-.3,2s.1,1.4.3,1.9c.2.6.5,1,.9,1.3.4.3.9.5,1.4.5Z" style="fill:#fff; stroke-width:0px;"/><path d="M187.2,397.2c-1,0-1.8-.2-2.5-.7s-1.2-1.2-1.5-2c-.3-.8-.5-1.8-.5-2.8s.2-2,.5-2.8c.4-.8.9-1.5,1.6-2,.7-.5,1.5-.7,2.4-.7s1.9.3,2.6.8c.7.5,1.2,1.2,1.5,2,.3.8.5,1.8.5,2.8s-.2,2-.5,2.8c-.3.8-.9,1.5-1.5,2-.7.5-1.5.7-2.5.7ZM187.2,395.4c.5,0,1-.2,1.4-.5.4-.3.7-.8.9-1.3s.3-1.2.3-2-.1-1.4-.3-1.9-.5-1-.9-1.3c-.4-.3-.9-.5-1.4-.5s-1,.2-1.4.5c-.4.3-.7.8-.9,1.3-.2.6-.3,1.2-.3,2s.1,1.4.3,1.9c.2.6.5,1,.9,1.3.4.3.9.5,1.4.5Z" style="fill:#fff; stroke-width:0px;"/><path d="M197.4,397.2c-1,0-1.8-.2-2.5-.7s-1.2-1.2-1.5-2c-.3-.8-.5-1.8-.5-2.8s.2-2,.5-2.8c.4-.8.9-1.5,1.6-2,.7-.5,1.5-.7,2.4-.7s1.9.3,2.6.8c.7.5,1.2,1.2,1.5,2,.3.8.5,1.8.5,2.8s-.2,2-.5,2.8c-.3.8-.9,1.5-1.5,2-.7.5-1.5.7-2.5.7ZM197.4,395.4c.5,0,1-.2,1.4-.5.4-.3.7-.8.9-1.3s.3-1.2.3-2-.1-1.4-.3-1.9-.5-1-.9-1.3c-.4-.3-.9-.5-1.4-.5s-1,.2-1.4.5c-.4.3-.7.8-.9,1.3-.2.6-.3,1.2-.3,2s.1,1.4.3,1.9c.2.6.5,1,.9,1.3.4.3.9.5,1.4.5Z" style="fill:#fff; stroke-width:0px;"/><path d="M207.6,386.3h1.9v10.6h-1.9v-10.6Z" style="fill:#fff; stroke-width:0px;"/><path d="M217,397.2c-1,0-2-.2-2.9-.7-.9-.5-1.6-1.2-2.1-2s-.8-1.8-.8-2.8.3-1.9.8-2.8c.5-.8,1.2-1.5,2.1-2,.9-.5,1.8-.7,2.9-.7s2,.2,2.9.7c.9.5,1.6,1.2,2.1,2,.5.8.8,1.8.8,2.8s-.3,1.9-.8,2.8-1.2,1.5-2.1,2c-.9.5-1.8.7-2.9.7ZM217,395.4c.7,0,1.3-.2,1.9-.5.6-.3,1-.8,1.4-1.3.3-.6.5-1.2.5-1.9s-.2-1.4-.5-1.9c-.3-.6-.8-1-1.4-1.4s-1.2-.5-1.9-.5-1.3.2-1.9.5-1,.8-1.4,1.4c-.3.6-.5,1.2-.5,1.9s.2,1.3.5,1.9.8,1,1.4,1.3,1.2.5,1.9.5ZM218.7,396.4l1.7-.8,1.9,2.7-1.8,1-1.8-2.9Z" style="fill:#fff; stroke-width:0px;"/><path d="M224.7,386.3h4.1c1.1,0,2.1.2,3,.7.9.4,1.5,1.1,2,1.9.5.8.7,1.7.7,2.8s-.2,2-.7,2.8-1.1,1.4-2,1.9c-.9.4-1.8.7-2.9.7h-4.1v-10.6ZM228.8,395.2c.8,0,1.4-.1,2-.4.6-.3,1-.7,1.3-1.2.3-.5.4-1.2.4-1.9s-.1-1.4-.4-1.9c-.3-.5-.7-1-1.3-1.3-.6-.3-1.2-.4-2-.4h-2.1v7.2h2.1Z" style="fill:#fff; stroke-width:0px;"/><path d="M163.6,476.2c-.8,0-1.4-.2-2-.5s-1-.8-1.4-1.3-.5-1.2-.5-1.8,0-.7.1-1,.2-.7.4-1,.5-.8.8-1.4l2.4-3.8h2.2l-2.7,4.1c.2,0,.3-.2.5-.2s.4,0,.5,0c.6,0,1.1.1,1.7.4s.9.7,1.2,1.2.5,1.1.5,1.8-.2,1.3-.5,1.8-.8,1-1.4,1.3-1.3.5-2,.5ZM163.6,474.5c.3,0,.7,0,.9-.2s.5-.4.6-.6.2-.6.2-.9,0-.7-.2-.9-.4-.5-.6-.7-.6-.2-.9-.2-.7,0-1,.3-.5.4-.6.7-.2.6-.2.9,0,.7.2.9.4.5.7.6.6.2.9.2Z" style="fill:#fff; stroke-width:0px;"/><path d="M169.5,474.3h1.8l-1.4,3.2h-1.4l.9-3.2Z" style="fill:#fff; stroke-width:0px;"/><path d="M177.1,476.3c-1,0-1.8-.2-2.5-.7s-1.2-1.2-1.5-2-.5-1.8-.5-2.8.2-2,.5-2.8.9-1.5,1.6-2,1.5-.7,2.4-.7,1.9.3,2.6.8,1.2,1.2,1.5,2,.5,1.8.5,2.8-.2,2-.5,2.8-.9,1.5-1.5,2-1.5.7-2.5.7ZM177.1,474.5c.5,0,1-.2,1.4-.5s.7-.8.9-1.3.3-1.2.3-2-.1-1.4-.3-1.9-.5-1-.9-1.3-.9-.5-1.4-.5-1,.2-1.4.5-.7.8-.9,1.3-.3,1.2-.3,2,.1,1.4.3,1.9.5,1,.9,1.3.9.5,1.4.5Z" style="fill:#fff; stroke-width:0px;"/><path d="M187.2,476.3c-1,0-1.8-.2-2.5-.7s-1.2-1.2-1.5-2-.5-1.8-.5-2.8.2-2,.5-2.8.9-1.5,1.6-2,1.5-.7,2.4-.7,1.9.3,2.6.8,1.2,1.2,1.5,2,.5,1.8.5,2.8-.2,2-.5,2.8-.9,1.5-1.5,2-1.5.7-2.5.7ZM187.2,474.5c.5,0,1-.2,1.4-.5s.7-.8.9-1.3.3-1.2.3-2-.1-1.4-.3-1.9-.5-1-.9-1.3-.9-.5-1.4-.5-1,.2-1.4.5-.7.8-.9,1.3-.3,1.2-.3,2,.1,1.4.3,1.9.5,1,.9,1.3.9.5,1.4.5Z" style="fill:#fff; stroke-width:0px;"/><path d="M197.4,476.3c-1,0-1.8-.2-2.5-.7s-1.2-1.2-1.5-2-.5-1.8-.5-2.8.2-2,.5-2.8.9-1.5,1.6-2,1.5-.7,2.4-.7,1.9.3,2.6.8,1.2,1.2,1.5,2,.5,1.8.5,2.8-.2,2-.5,2.8-.9,1.5-1.5,2-1.5.7-2.5.7ZM197.4,474.5c.5,0,1-.2,1.4-.5s.7-.8.9-1.3.3-1.2.3-2-.1-1.4-.3-1.9-.5-1-.9-1.3-.9-.5-1.4-.5-1,.2-1.4.5-.7.8-.9,1.3-.3,1.2-.3,2,.1,1.4.3,1.9.5,1,.9,1.3.9.5,1.4.5Z" style="fill:#fff; stroke-width:0px;"/><path d="M207.6,465.4h1.9v10.6h-1.9v-10.6Z" style="fill:#fff; stroke-width:0px;"/><path d="M217,476.2c-1,0-2-.2-2.9-.7s-1.6-1.2-2.1-2-.8-1.8-.8-2.8.3-1.9.8-2.8,1.2-1.5,2.1-2,1.8-.7,2.9-.7,2,.2,2.9.7,1.6,1.2,2.1,2,.8,1.8.8,2.8-.3,1.9-.8,2.8-1.2,1.5-2.1,2-1.8.7-2.9.7ZM217,474.4c.7,0,1.3-.2,1.9-.5s1-.8,1.4-1.3.5-1.2.5-1.9-.2-1.4-.5-1.9-.8-1-1.4-1.4-1.2-.5-1.9-.5-1.3.2-1.9.5-1,.8-1.4,1.4-.5,1.2-.5,1.9.2,1.3.5,1.9.8,1,1.4,1.3,1.2.5,1.9.5ZM218.7,475.5l1.7-.8,1.9,2.7-1.8,1-1.8-2.9Z" style="fill:#fff; stroke-width:0px;"/><path d="M224.7,465.4h4.1c1.1,0,2.1.2,3,.7s1.5,1.1,2,1.9.7,1.7.7,2.8-.2,2-.7,2.8-1.1,1.4-2,1.9-1.8.7-2.9.7h-4.1v-10.6ZM228.8,474.3c.8,0,1.4-.1,2-.4s1-.7,1.3-1.2.4-1.2.4-1.9-.1-1.4-.4-1.9-.7-1-1.3-1.3-1.2-.4-2-.4h-2.1v7.2h2.1Z" style="fill:#fff; stroke-width:0px;"/><path d="M163.6,551.2c-.8,0-1.4-.2-2-.5s-1-.8-1.4-1.3-.5-1.2-.5-1.8,0-.7.1-1,.2-.7.4-1,.5-.8.8-1.4l2.4-3.8h2.2l-2.7,4.1c.2,0,.3-.2.5-.2s.4,0,.5,0c.6,0,1.1.1,1.7.4s.9.7,1.2,1.2.5,1.1.5,1.8-.2,1.3-.5,1.8-.8,1-1.4,1.3-1.3.5-2,.5ZM163.6,549.5c.3,0,.7,0,.9-.2s.5-.4.6-.6.2-.6.2-.9,0-.7-.2-.9-.4-.5-.6-.7-.6-.2-.9-.2-.7,0-1,.3-.5.4-.6.7-.2.6-.2.9,0,.7.2.9.4.5.7.6.6.2.9.2Z" style="fill:#fff; stroke-width:0px;"/><path d="M169.5,549.3h1.8l-1.4,3.2h-1.4l.9-3.2Z" style="fill:#fff; stroke-width:0px;"/><path d="M177.1,551.2c-1,0-1.8-.2-2.5-.7s-1.2-1.2-1.5-2-.5-1.8-.5-2.8.2-2,.5-2.8.9-1.5,1.6-2,1.5-.7,2.4-.7,1.9.3,2.6.8,1.2,1.2,1.5,2,.5,1.8.5,2.8-.2,2-.5,2.8-.9,1.5-1.5,2-1.5.7-2.5.7ZM177.1,549.5c.5,0,1-.2,1.4-.5s.7-.8.9-1.3.3-1.2.3-2-.1-1.4-.3-1.9-.5-1-.9-1.3-.9-.5-1.4-.5-1,.2-1.4.5-.7.8-.9,1.3-.3,1.2-.3,2,.1,1.4.3,1.9.5,1,.9,1.3.9.5,1.4.5Z" style="fill:#fff; stroke-width:0px;"/><path d="M187.2,551.2c-1,0-1.8-.2-2.5-.7s-1.2-1.2-1.5-2-.5-1.8-.5-2.8.2-2,.5-2.8.9-1.5,1.6-2,1.5-.7,2.4-.7,1.9.3,2.6.8,1.2,1.2,1.5,2,.5,1.8.5,2.8-.2,2-.5,2.8-.9,1.5-1.5,2-1.5.7-2.5.7ZM187.2,549.5c.5,0,1-.2,1.4-.5s.7-.8.9-1.3.3-1.2.3-2-.1-1.4-.3-1.9-.5-1-.9-1.3-.9-.5-1.4-.5-1,.2-1.4.5-.7.8-.9,1.3-.3,1.2-.3,2,.1,1.4.3,1.9.5,1,.9,1.3.9.5,1.4.5Z" style="fill:#fff; stroke-width:0px;"/><path d="M197.4,551.2c-1,0-1.8-.2-2.5-.7s-1.2-1.2-1.5-2-.5-1.8-.5-2.8.2-2,.5-2.8.9-1.5,1.6-2,1.5-.7,2.4-.7,1.9.3,2.6.8,1.2,1.2,1.5,2,.5,1.8.5,2.8-.2,2-.5,2.8-.9,1.5-1.5,2-1.5.7-2.5.7ZM197.4,549.5c.5,0,1-.2,1.4-.5s.7-.8.9-1.3.3-1.2.3-2-.1-1.4-.3-1.9-.5-1-.9-1.3-.9-.5-1.4-.5-1,.2-1.4.5-.7.8-.9,1.3-.3,1.2-.3,2,.1,1.4.3,1.9.5,1,.9,1.3.9.5,1.4.5Z" style="fill:#fff; stroke-width:0px;"/><path d="M207.6,540.4h1.9v10.6h-1.9v-10.6Z" style="fill:#fff; stroke-width:0px;"/><path d="M217,551.2c-1,0-2-.2-2.9-.7s-1.6-1.2-2.1-2-.8-1.8-.8-2.8.3-1.9.8-2.8,1.2-1.5,2.1-2,1.8-.7,2.9-.7,2,.2,2.9.7,1.6,1.2,2.1,2,.8,1.8.8,2.8-.3,1.9-.8,2.8-1.2,1.5-2.1,2-1.8.7-2.9.7ZM217,549.4c.7,0,1.3-.2,1.9-.5s1-.8,1.4-1.3.5-1.2.5-1.9-.2-1.4-.5-1.9-.8-1-1.4-1.4-1.2-.5-1.9-.5-1.3.2-1.9.5-1,.8-1.4,1.4-.5,1.2-.5,1.9.2,1.3.5,1.9.8,1,1.4,1.3,1.2.5,1.9.5ZM218.7,550.5l1.7-.8,1.9,2.7-1.8,1-1.8-2.9Z" style="fill:#fff; stroke-width:0px;"/><path d="M224.7,540.4h4.1c1.1,0,2.1.2,3,.7s1.5,1.1,2,1.9.7,1.7.7,2.8-.2,2-.7,2.8-1.1,1.4-2,1.9-1.8.7-2.9.7h-4.1v-10.6ZM228.8,549.3c.8,0,1.4-.1,2-.4s1-.7,1.3-1.2.4-1.2.4-1.9-.1-1.4-.4-1.9-.7-1-1.3-1.3-1.2-.4-2-.4h-2.1v7.2h2.1Z" style="fill:#fff; stroke-width:0px;"/><path d="M164.2,627c-.8,0-1.4-.2-2-.5s-1-.8-1.4-1.3-.5-1.2-.5-1.8,0-.7.1-1,.2-.7.4-1,.5-.8.8-1.4l2.4-3.8h2.2l-2.7,4.1c.2,0,.3-.2.5-.2s.4,0,.5,0c.6,0,1.1.1,1.7.4s.9.7,1.2,1.2.5,1.1.5,1.8-.2,1.3-.5,1.8-.8,1-1.4,1.3-1.3.5-2,.5ZM164.2,625.2c.3,0,.7,0,.9-.2s.5-.4.6-.6.2-.6.2-.9,0-.7-.2-.9-.4-.5-.6-.7-.6-.2-.9-.2-.7,0-1,.3-.5.4-.6.7-.2.6-.2.9,0,.7.2.9.4.5.7.6.6.2.9.2Z" style="fill:#fff; stroke-width:0px;"/><path d="M170,625h1.8l-1.4,3.2h-1.4l.9-3.2Z" style="fill:#fff; stroke-width:0px;"/><path d="M177.2,627c-.7,0-1.3-.1-1.8-.4-.6-.2-1.1-.6-1.5-1.2s-.6-1.2-.7-2.1h1.9c0,.4.2.8.4,1s.5.5.8.6.6.2.9.2.7,0,1-.3.5-.4.7-.7.2-.6.2-1,0-.7-.3-1-.5-.5-.8-.6-.8-.2-1.2-.2h-2.1s-.8-.7-.8-.7l.6-4.7h5.9v1.6h-4.2l-.3,2.4h1.5c.8,0,1.4.1,2,.4s1,.6,1.3,1.1.5,1,.5,1.7-.2,1.3-.5,1.8-.8,1-1.4,1.4-1.3.5-2.1.5Z" style="fill:#fff; stroke-width:0px;"/><path d="M186.7,627c-1,0-1.8-.2-2.5-.7s-1.2-1.2-1.5-2-.5-1.8-.5-2.8.2-2,.5-2.8.9-1.5,1.6-2,1.5-.7,2.4-.7,1.9.3,2.6.8,1.2,1.2,1.5,2,.5,1.8.5,2.8-.2,2-.5,2.8-.9,1.5-1.5,2-1.5.7-2.5.7ZM186.7,625.2c.5,0,1-.2,1.4-.5s.7-.8.9-1.3.3-1.2.3-2-.1-1.4-.3-1.9-.5-1-.9-1.3-.9-.5-1.4-.5-1,.2-1.4.5-.7.8-.9,1.3-.3,1.2-.3,2,.1,1.4.3,1.9.5,1,.9,1.3.9.5,1.4.5Z" style="fill:#fff; stroke-width:0px;"/><path d="M196.8,627c-1,0-1.8-.2-2.5-.7s-1.2-1.2-1.5-2-.5-1.8-.5-2.8.2-2,.5-2.8.9-1.5,1.6-2,1.5-.7,2.4-.7,1.9.3,2.6.8,1.2,1.2,1.5,2,.5,1.8.5,2.8-.2,2-.5,2.8-.9,1.5-1.5,2-1.5.7-2.5.7ZM196.8,625.2c.5,0,1-.2,1.4-.5s.7-.8.9-1.3.3-1.2.3-2-.1-1.4-.3-1.9-.5-1-.9-1.3-.9-.5-1.4-.5-1,.2-1.4.5-.7.8-.9,1.3-.3,1.2-.3,2,.1,1.4.3,1.9.5,1,.9,1.3.9.5,1.4.5Z" style="fill:#fff; stroke-width:0px;"/><path d="M207.1,616.1h1.9v10.6h-1.9v-10.6Z" style="fill:#fff; stroke-width:0px;"/><path d="M216.5,627c-1,0-2-.2-2.9-.7s-1.6-1.2-2.1-2-.8-1.8-.8-2.8.3-1.9.8-2.8,1.2-1.5,2.1-2,1.8-.7,2.9-.7,2,.2,2.9.7,1.6,1.2,2.1,2,.8,1.8.8,2.8-.3,1.9-.8,2.8-1.2,1.5-2.1,2-1.8.7-2.9.7ZM216.5,625.2c.7,0,1.3-.2,1.9-.5s1-.8,1.4-1.3.5-1.2.5-1.9-.2-1.4-.5-1.9-.8-1-1.4-1.4-1.2-.5-1.9-.5-1.3.2-1.9.5-1,.8-1.4,1.4-.5,1.2-.5,1.9.2,1.3.5,1.9.8,1,1.4,1.3,1.2.5,1.9.5ZM218.2,626.2l1.7-.8,1.9,2.7-1.8,1-1.8-2.9Z" style="fill:#fff; stroke-width:0px;"/><path d="M224.2,616.1h4.1c1.1,0,2.1.2,3,.7s1.5,1.1,2,1.9.7,1.7.7,2.8-.2,2-.7,2.8-1.1,1.4-2,1.9-1.8.7-2.9.7h-4.1v-10.6ZM228.3,625c.8,0,1.4-.1,2-.4s1-.7,1.3-1.2.4-1.2.4-1.9-.1-1.4-.4-1.9-.7-1-1.3-1.3-1.2-.4-2-.4h-2.1v7.2h2.1Z" style="fill:#fff; stroke-width:0px;"/><rect x="282.4" y="622.3" width="122.6" height=".6" style="fill:#fff; stroke-width:0px;"/><rect x="44.9" y="101.4" width="246.2" height="54" style="fill:#ee304c; stroke-width:0px;"/><path d="M83,119.5h-.1v18.4h-5.4v-19.7h10.1l3.6,19.3h.1l3.6-19.3h10.1v19.7h-5.4v-18.4h-.1l-3.6,18.4h-9.2l-3.6-18.4Z" style="fill:#fff; stroke-width:0px;"/><path d="M113.4,118.2v19.7h-5.4v-19.7h5.4Z" style="fill:#fff; stroke-width:0px;"/><path d="M121.9,118.2v15.3h11v4.4h-16.4v-19.7h5.4Z" style="fill:#fff; stroke-width:0px;"/><path d="M139.9,118.2v19.7h-5.4v-19.7h5.4ZM147.6,118.2h6.6l-8.1,9.2,8.1,10.5h-6.1l-8.1-10.6,7.6-9.2Z" style="fill:#fff; stroke-width:0px;"/><path d="M168.4,122.7c-1.3-.2-2.7-.4-4.2-.4s-2,.1-2.5.4c-.5.2-.8.6-.8,1.1s.3.9.9,1.2,1.6.6,3.1,1c2,.4,3.7.9,4.9,1.4,1.2.5,2.2,1.2,2.8,1.9s.9,1.7.9,2.9c0,2-.8,3.5-2.5,4.6-1.7,1-4,1.5-7,1.5s-6.9-.5-9.1-1.5l.3-4.7c1.1.5,2.4.9,4,1.2,1.5.3,3.1.5,4.8.5s2.4-.1,3-.4c.6-.3.9-.7.9-1.2s-.1-.7-.4-.9c-.3-.2-.7-.5-1.4-.7-.6-.2-1.6-.4-2.8-.7-2.8-.6-4.8-1.3-6.1-2.3-1.3-.9-1.9-2.2-1.9-3.9s.8-3.4,2.3-4.5,3.8-1.6,6.7-1.6,5.7.4,7.9,1.3l-.3,4.6c-1-.4-2.1-.8-3.4-1Z" style="fill:#fff; stroke-width:0px;"/><path d="M195.7,118.2v19.7h-5.4v-7.5h-9.4v7.5h-5.4v-19.7h5.4v7.8h9.4v-7.8h5.4Z" style="fill:#fff; stroke-width:0px;"/><path d="M203.7,118.2h10.6l6.6,19.7h-5.9l-1.2-4h-9.4l-1.2,4h-5.9l6.6-19.7ZM212.5,130l-3.5-11.4h0l-3.5,11.4h7Z" style="fill:#fff; stroke-width:0px;"/><path d="M227.7,118.2v19.7h-5.4v-19.7h5.4ZM235.4,118.2h6.6l-8.1,9.2,8.1,10.5h-6.1l-8.1-10.6,7.6-9.2Z" style="fill:#fff; stroke-width:0px;"/><path d="M260.7,118.2v4.4h-11.7v3.6h8.9v3.8h-8.9v3.6h12v4.4h-17.4v-19.7h17.1Z" style="fill:#fff; stroke-width:0px;"/><polygon points="117 158.3 132.2 143.6 126.5 167.2 117 158.3" style="fill:#171a23; stroke-width:0px;"/><polygon points="333.7 158.3 318.5 143.6 324.2 167.2 333.7 158.3" style="fill:#171a23; stroke-width:0px;"/><polygon points="442.7 99.2 457.9 113.8 452.2 90.2 442.7 99.2" style="fill:#171a23; stroke-width:0px;"/><path d="M162.2,201.8v7.9h5.4v1.2h-6.9v-9.1h1.5Z" style="fill:#fff; stroke-width:0px;"/><path d="M173.2,208.6h0c0,.4-.2.8-.4,1.2-.2.4-.5.7-.9.9-.4.2-.9.4-1.5.4s-1.3-.2-1.7-.5c-.4-.3-.6-.8-.6-1.4s.2-1.1.7-1.4c.5-.3,1.1-.5,2-.5s1.6,0,2.3.2v-.3c0-.5-.2-1-.5-1.2-.3-.3-.8-.4-1.4-.4s-.8,0-1.2.1c-.4,0-.8.2-1.1.4v-1.1c.2-.2.7-.3,1.1-.4.4,0,.9-.1,1.3-.1,1,0,1.8.2,2.3.7.5.5.8,1.1.8,2v3.9h-.9l-.3-2.3ZM169.8,209.7c.3.2.6.3,1.1.3s1.1-.2,1.5-.5c.4-.4.7-.9.7-1.6h0c-.6-.1-1.2-.2-1.8-.2s-1.1.1-1.4.3c-.3.2-.5.5-.5.9s.1.6.4.8Z" style="fill:#fff; stroke-width:0px;"/><path d="M177.1,204.5l.3,2.6h0c0-.8.2-1.5.6-2,.3-.5.8-.8,1.4-.8s.6,0,.9.2v1.3c-.4-.1-.8-.2-1.1-.2-.6,0-1.1.3-1.4.8-.3.5-.4,1.3-.4,2.3v2.2h-1.4v-6.4h.9Z" style="fill:#fff; stroke-width:0px;"/><path d="M183.9,209.5c-.6,0-1.1,0-1.3.1-.3,0-.4.2-.4.4s0,.3.2.3.4.1.7.2l2.7.3c.7,0,1.2.2,1.5.4.3.2.5.6.5,1s-.1.9-.4,1.3h-1.4c.2-.2.3-.4.4-.5,0-.2.1-.3.1-.5,0-.2,0-.4-.3-.5-.2,0-.4-.2-.8-.2l-2.8-.3c-.7,0-1.1-.2-1.4-.4s-.4-.4-.4-.7.2-.6.6-.8c.4-.2,1-.2,1.9-.3h0c-.9-.1-1.5-.4-1.9-.8s-.6-1-.6-1.7.2-1.4.7-1.9c.5-.5,1.2-.7,2.1-.7s1.4.2,1.8.6c.4.4.7.9.7,1.4h0l.3-2.6h.9v3.3h0c0,.8-.3,1.4-.8,1.8s-1.4.7-2.4.7h-.1ZM182.6,208.1c.3.3.8.4,1.5.4s1.1-.1,1.5-.4c.3-.3.5-.7.5-1.2s-.2-.9-.5-1.2-.8-.4-1.4-.4-1.1.1-1.5.4c-.3.3-.5.7-.5,1.2s.2.9.5,1.2Z" style="fill:#fff; stroke-width:0px;"/><path d="M189.3,210.2c-.7-.6-1-1.4-1-2.5s.3-1.9.9-2.5,1.5-.9,2.5-.9,1.9.3,2.5.8c.6.6.9,1.3.9,2.4,0,.2,0,.3,0,.5h-5.4c0,.7.3,1.2.7,1.5.4.3,1,.5,1.7.5s.7,0,1-.1c.4,0,.7-.2.9-.4v1.1c-.2.1-.5.3-.9.3-.4,0-.8.1-1.1.1-1.1,0-2-.3-2.7-.9ZM193.8,207.4c0-.6-.2-1.1-.6-1.5s-.9-.5-1.5-.5-1.1.2-1.5.6c-.4.4-.6.9-.6,1.6l4.2-.2Z" style="fill:#fff; stroke-width:0px;"/><path d="M49,201h0v8.7h-1.5v-9.1h2.8l3,8.9h0l3-8.9h2.8v9.1h-1.5v-8.7h0l-3,8.7h-2.5l-3-8.7Z" style="fill:#fff; stroke-width:0px;"/><path d="M61.4,209c-.7-.6-1-1.4-1-2.5s.3-1.9.9-2.5,1.5-.9,2.5-.9,1.9.3,2.5.8.9,1.3.9,2.4c0,.2,0,.3,0,.5h-5.4c0,.7.3,1.2.7,1.5.4.3,1,.5,1.7.5s.7,0,1-.1c.4,0,.7-.2.9-.4v1.1c-.2.1-.5.3-.9.3-.4,0-.8.1-1.1.1-1.1,0-2-.3-2.7-.9ZM66,206.2c0-.6-.2-1.1-.6-1.5s-.9-.5-1.5-.5-1.1.2-1.5.6c-.4.4-.6.9-.6,1.6l4.2-.2Z" style="fill:#fff; stroke-width:0px;"/><path d="M75.2,209.7h-.9l-.4-2.4h0c0,.8-.4,1.4-.9,1.9-.5.5-1.1.7-1.9.7s-1.7-.3-2.2-.9c-.5-.6-.8-1.4-.8-2.5s.3-1.9.8-2.5,1.2-.9,2.2-.9,1.5.2,2,.7c.5.4.8,1.1.9,1.9h0v-2.1c0,0,0-3.5,0-3.5h1.4v9.6ZM70,208.2c.4.4.9.6,1.6.6s1.3-.2,1.7-.6c.4-.4.6-1,.6-1.7s-.2-1.2-.6-1.6c-.4-.4-1-.6-1.7-.6s-1.2.2-1.6.6c-.4.4-.6,1-.6,1.7s.2,1.3.6,1.7Z" style="fill:#fff; stroke-width:0px;"/><path d="M78.6,209.7h-1.4v-5.3h-.6v-1.1h2v6.4ZM77,202c-.2-.1-.2-.3-.2-.5s0-.4.2-.5c.2-.1.4-.2.6-.2s.5,0,.6.2c.2.1.2.3.2.5s0,.4-.2.5c-.1.1-.4.2-.6.2s-.5,0-.6-.2Z" style="fill:#fff; stroke-width:0px;"/><path d="M86.1,209.7l-.4-2.5h0c0,.8-.4,1.4-.8,1.9s-1.1.7-1.9.7-1.5-.2-1.9-.7-.7-1.2-.7-2.1v-3.7h1.4v3.6c0,.6.2,1,.5,1.4.3.3.8.5,1.4.5s1.2-.2,1.6-.7c.4-.5.6-1.1.6-1.9v-2.8h1.4v6.4h-.9Z" style="fill:#fff; stroke-width:0px;"/><path d="M98,204.7c-.3-.3-.6-.5-1.1-.5s-1.1.2-1.4.7c-.3.5-.5,1.1-.5,1.9v2.8h-1.4v-3.6c0-.6-.1-1.1-.4-1.4s-.6-.5-1.1-.5-1.1.2-1.4.7c-.3.5-.5,1.1-.5,1.9v2.8h-1.4v-6.4h.9l.4,2.5h0c0-.5.1-.9.3-1.3s.5-.7.8-1c.4-.2.8-.4,1.3-.4.7,0,1.3.2,1.7.7.4.5.6,1.1.7,2h0c0-.8.3-1.4.7-1.9s1-.8,1.7-.8,1.4.2,1.8.7.6,1.2.6,2.1v3.8h-1.4v-3.6c0-.6-.1-1.1-.4-1.4Z" style="fill:#fff; stroke-width:0px;"/><path d="M267.6,764.2h-3.5l-4.5-8.9h4.2l3.9,8.4h.1l4-8.4h4.2l-7,13.7h-3.7l2.3-4.8Z" style="fill:#fff; stroke-width:0px;"/><path d="M277.7,755.4h7.3l4.6,13.7h-4.1l-.8-2.8h-6.5l-.8,2.8h-4.1l4.6-13.7ZM283.8,763.6l-2.4-7.9h0l-2.4,7.9h4.9Z" style="fill:#fff; stroke-width:0px;"/><path d="M294.3,755.4v10.6h7.6v3h-11.4v-13.7h3.8Z" style="fill:#fff; stroke-width:0px;"/><path d="M306.8,755.4v10.6h7.6v3h-11.4v-13.7h3.8Z" style="fill:#fff; stroke-width:0px;"/><path d="M319.6,755.4h7.3l4.6,13.7h-4.1l-.8-2.8h-6.5l-.8,2.8h-4.1l4.6-13.7ZM325.7,763.6l-2.4-7.9h0l-2.4,7.9h4.9Z" style="fill:#fff; stroke-width:0px;"/><path d="M237.4,774.1l4.4,13.4h0v-13.4h3.7v13.7h-7.4l-4.4-13.5h0v13.5h-3.7v-13.7h7.4Z" style="fill:#fff; stroke-width:0px;"/><path d="M259.5,774.1v3h-8.1v2.5h6.2v2.6h-6.2v2.5h8.3v3h-12.1v-13.7h11.8Z" style="fill:#fff; stroke-width:0px;"/><path d="M268.5,780.9l-4,6.9h-4.3l4.6-7-4.3-6.7h4.3l3.8,6.5,3.8-6.5h4.3l-4.3,6.7,4.6,7h-4.3l-4-6.9Z" style="fill:#fff; stroke-width:0px;"/><path d="M281.6,777.1h-4.6v-3h12.9v3h-4.6v10.6h-3.8v-10.6Z" style="fill:#fff; stroke-width:0px;"/><path d="M298.8,774.1v10.6h7.6v3h-11.4v-13.7h3.8Z" style="fill:#fff; stroke-width:0px;"/><path d="M319.4,774.1v3h-8.1v2.5h6.2v2.6h-6.2v2.5h8.3v3h-12.1v-13.7h11.8Z" style="fill:#fff; stroke-width:0px;"/><path d="M331.9,787.7h-7.6l-4.4-13.7h4.1l4.1,13.4h0l4-13.4h4.1l-4.4,13.7Z" style="fill:#fff; stroke-width:0px;"/><path d="M349.2,774.1v3h-8.1v2.5h6.2v2.6h-6.2v2.5h8.3v3h-12.1v-13.7h11.8Z" style="fill:#fff; stroke-width:0px;"/><path d="M354.5,774.1v10.6h7.6v3h-11.4v-13.7h3.8Z" style="fill:#fff; stroke-width:0px;"/><path d="M334.1,756.1h-1.3v-.7h3.5v.7h-1.3v3.8h-.8v-3.8Z" style="fill:#fff; stroke-width:0px;"/><path d="M336.9,755.4h.7l1.5,2.1h0s1.6-2.1,1.6-2.1h.7v4.5h-.8v-3.2l-1.3,1.8h-.2l-1.3-1.8v3.2h-.8v-4.5Z" style="fill:#fff; stroke-width:0px;"/></svg>