<?xml version="1.0" encoding="UTF-8"?><svg id="Layer_1" xmlns="http://www.w3.org/2000/svg" viewBox="0 0 595.3 841.9"><rect x="-3571.7" y="-1.4" width="7740.4" height="845.9" style="fill:#171a23; stroke-width:0px;"/><path d="M48.8,50h0v9.8h-2.9v-10.5h5.3l1.9,10.3h0l1.9-10.3h5.3v10.5h-2.9v-9.8h0l-1.9,9.8h-4.9l-1.9-9.8Z" style="fill:#fff; stroke-width:0px;"/><path d="M71.1,49.3v2.3h-6.2v1.9h4.7v2h-4.7v1.9h6.4v2.3h-9.2v-10.5h9.1Z" style="fill:#fff; stroke-width:0px;"/><path d="M77.9,49.3l3.4,10.2h0v-10.2h2.8v10.5h-5.7l-3.4-10.3h0v10.3h-2.8v-10.5h5.7Z" style="fill:#fff; stroke-width:0px;"/><path d="M95.2,58.8c-1,.8-2.4,1.2-4.2,1.2s-3.2-.4-4.2-1.2c-1-.8-1.5-2-1.5-3.5v-6h2.9v6c0,.8.2,1.4.7,1.8.5.4,1.1.6,2,.6s1.6-.2,2-.6c.5-.4.7-1,.7-1.8v-6h2.9v6c0,1.5-.5,2.7-1.5,3.5Z" style="fill:#fff; stroke-width:0px;"/><path d="M106.6,49.3l3.4,10.2h0v-10.2h2.8v10.5h-5.7l-3.4-10.3h0v10.3h-2.8v-10.5h5.7Z" style="fill:#fff; stroke-width:0px;"/><path d="M123.5,49.3v2.3h-6.2v1.9h4.7v2h-4.7v1.9h6.4v2.3h-9.2v-10.5h9.1Z" style="fill:#fff; stroke-width:0px;"/><path d="M130.5,54.5l-3.1,5.3h-3.3l3.5-5.4-3.3-5.1h3.3l2.9,5,2.9-5h3.3l-3.3,5.1,3.5,5.4h-3.3l-3.1-5.3Z" style="fill:#fff; stroke-width:0px;"/><path d="M140.5,51.6h-3.5v-2.3h9.9v2.3h-3.5v8.1h-2.9v-8.1Z" style="fill:#fff; stroke-width:0px;"/><path d="M153.7,49.3v8.1h5.8v2.3h-8.7v-10.5h2.9Z" style="fill:#fff; stroke-width:0px;"/><path d="M169.4,49.3v2.3h-6.2v1.9h4.7v2h-4.7v1.9h6.4v2.3h-9.2v-10.5h9.1Z" style="fill:#fff; stroke-width:0px;"/><path d="M179,59.8h-5.8l-3.4-10.5h3.2l3.1,10.3h0l3.1-10.3h3.2l-3.4,10.5Z" style="fill:#fff; stroke-width:0px;"/><path d="M192.3,49.3v2.3h-6.2v1.9h4.7v2h-4.7v1.9h6.4v2.3h-9.2v-10.5h9.1Z" style="fill:#fff; stroke-width:0px;"/><path d="M196.3,49.3v8.1h5.8v2.3h-8.7v-10.5h2.9Z" style="fill:#fff; stroke-width:0px;"/><path d="M542.6,53.4c.3-.2.7-.3,1.1-.3s.6,0,.8.2c.3.1.5.3.7.5.2.2.3.5.4.8h1.2c0-.5-.3-1-.6-1.4-.3-.4-.7-.6-1.1-.8s-.9-.3-1.3-.3-1.2.1-1.7.4-.9.7-1.2,1.2c-.3.5-.4,1.1-.4,1.7s.1,1.2.4,1.7c.3.5.7.9,1.2,1.2s1.1.4,1.7.4.9,0,1.3-.3c.4-.2.8-.5,1.1-.8.3-.4.5-.8.6-1.4h-1.2c0,.3-.2.6-.4.8-.2.2-.4.4-.7.5-.3.1-.5.2-.8.2s-.8,0-1.1-.3c-.3-.2-.6-.4-.8-.8-.2-.3-.3-.7-.3-1.2s0-.8.3-1.2c.2-.3.4-.6.8-.8Z" style="fill:#fff; stroke-width:0px;"/><path d="M543.7,49.8c-3.1,0-5.6,2.5-5.6,5.6s2.5,5.6,5.6,5.6,5.6-2.5,5.6-5.6-2.5-5.6-5.6-5.6ZM543.7,60.3c-2.7,0-4.8-2.2-4.8-4.8s2.2-4.8,4.8-4.8,4.8,2.2,4.8,4.8-2.2,4.8-4.8,4.8Z" style="fill:#fff; stroke-width:0px;"/><path d="M496.5,59.8l3.6-3.2c.5-.5.9-.9,1.2-1.2s.5-.6.7-1c.2-.3.3-.6.3-1s0-.6-.2-.9c-.2-.3-.4-.5-.6-.6-.3-.1-.6-.2-.9-.2s-.7,0-1,.2c-.3.2-.5.4-.7.8-.2.4-.3.8-.3,1.4h-2c0-.8.1-1.4.4-2.1s.7-1.2,1.3-1.6c.6-.4,1.3-.6,2.2-.6s1.5.2,2,.5c.6.3,1,.7,1.3,1.3.3.5.5,1.1.5,1.8s0,.9-.2,1.3-.4.8-.7,1.2c-.3.4-.7.8-1.2,1.2l-2.7,2.4.9-.2h4.1v1.7h-8v-1.1Z" style="fill:#fff; stroke-width:0px;"/><path d="M510.2,61.2c-1,0-1.9-.3-2.6-.8s-1.2-1.2-1.6-2c-.4-.9-.5-1.8-.5-2.9s.2-2.1.5-2.9c.4-.9.9-1.6,1.6-2.1.7-.5,1.5-.8,2.5-.8s2,.3,2.7.8,1.2,1.2,1.5,2.1.5,1.8.5,2.8-.2,2-.5,2.9-.9,1.5-1.6,2.1-1.6.8-2.6.8ZM510.2,59.4c.5,0,1-.2,1.4-.5.4-.3.7-.8.9-1.4.2-.6.3-1.3.3-2s-.1-1.4-.3-2c-.2-.6-.5-1-.9-1.4s-.9-.5-1.5-.5-1,.2-1.4.5c-.4.3-.7.8-.9,1.4-.2.6-.3,1.3-.3,2s.1,1.4.3,2c.2.6.5,1,.9,1.4.4.3.9.5,1.4.5Z" style="fill:#fff; stroke-width:0px;"/><path d="M515.9,59.8l3.6-3.2c.5-.5.9-.9,1.2-1.2s.5-.6.7-1c.2-.3.3-.6.3-1s0-.6-.2-.9c-.2-.3-.4-.5-.6-.6-.3-.1-.6-.2-.9-.2s-.7,0-1,.2c-.3.2-.5.4-.7.8-.2.4-.3.8-.3,1.4h-2c0-.8.1-1.4.4-2.1s.7-1.2,1.3-1.6c.6-.4,1.3-.6,2.2-.6s1.5.2,2,.5c.6.3,1,.7,1.3,1.3.3.5.5,1.1.5,1.8s0,.9-.2,1.3-.4.8-.7,1.2c-.3.4-.7.8-1.2,1.2l-2.7,2.4.9-.2h4.1v1.7h-8v-1.1Z" style="fill:#fff; stroke-width:0px;"/><path d="M529.2,61.2c-.7,0-1.3-.1-1.9-.4-.6-.2-1.1-.6-1.5-1.2s-.6-1.2-.7-2.1h1.9c0,.4.2.8.4,1,.2.3.5.5.8.6.3.1.6.2.9.2s.7,0,1.1-.3c.3-.2.6-.4.7-.7.2-.3.3-.6.3-1s0-.7-.3-1-.5-.5-.8-.6c-.4-.1-.8-.2-1.3-.2h-2.2s-.9-.7-.9-.7l.7-4.8h6v1.6h-4.3l-.3,2.5h1.6c.8,0,1.5.1,2,.4.6.3,1,.6,1.3,1.1.3.5.5,1.1.5,1.8s-.2,1.3-.5,1.9c-.3.6-.8,1-1.4,1.4-.6.4-1.3.5-2.1.5Z" style="fill:#fff; stroke-width:0px;"/><rect x="260.2" y="101.4" width="290.2" height="54" style="fill:#fff; stroke-width:0px;"/><path d="M336,133.2v3.6c0,.1,0,.3-.2.3-1.6,0-2.8-.3-3.6-.9-1.5.8-2.8,1.1-4.2,1.1-3.5,0-6.1-2.7-6.1-6.3s2.5-6.6,6.1-6.6,1.6.2,2.5.5v-1.3l3.9-.5v8.3c0,1.1.5,1.5,1.4,1.5s.2,0,.2.2ZM326.2,122.7l-2.6-2.6,2.6-2.6,2,1.9,1.9-1.9,2.6,2.6-2.5,2.6-2-1.9-1.9,1.9ZM330.6,133.1c0-.3,0-.7,0-1.1v-3.2c-.8-.3-1.6-.4-2.3-.4-1.6,0-2.6,1.1-2.6,2.6s1,2.5,2.4,2.5c.9,0,1.8-.1,2.6-.4Z" style="fill:#171a23; stroke-width:0px;"/><path d="M340.9,133.2v3.6c0,.1-.1.3-.2.3h-4.8c-.1,0-.2-.1-.2-.3v-3.6c0-.1,0-.2.2-.2h4.8c.1,0,.2,0,.2.2Z" style="fill:#171a23; stroke-width:0px;"/><path d="M345.7,133.2v3.6c0,.1-.1.3-.2.3h-4.8c-.1,0-.2-.1-.2-.3v-3.6c0-.1,0-.2.2-.2h4.8c.1,0,.2,0,.2.2Z" style="fill:#171a23; stroke-width:0px;"/><path d="M350.6,133.2v3.6c0,.1-.1.3-.2.3h-4.8c-.1,0-.2-.1-.2-.3v-3.6c0-.1,0-.2.2-.2h4.8c.1,0,.2,0,.2.2Z" style="fill:#171a23; stroke-width:0px;"/><path d="M355.4,133.2v3.6c0,.1-.1.3-.2.3h-4.8c-.1,0-.2-.1-.2-.3v-3.6c0-.1,0-.2.2-.2h4.8c.1,0,.2,0,.2.2Z" style="fill:#171a23; stroke-width:0px;"/><path d="M368,130.3c0,4.1-2.7,6.8-7.1,6.8h-5.7c-.2,0-.2,0-.2-.3v-3.6c0-.1,0-.2.2-.2h1.5c-.5-1-.7-1.9-.7-2.9,0-3.4,2.6-5.8,5.9-5.8s6.2,2.5,6.2,6ZM359.8,122.6l-2.6-2.6,2.6-2.6,2,1.9,1.9-1.9,2.6,2.6-2.5,2.6-2-1.9-1.9,1.9ZM364.1,130.3c0-1.3-1-2.3-2.3-2.3s-2.4,1.1-2.4,2.4.2,1.6.7,2.6h.8c2,0,3.2-1.1,3.2-2.7Z" style="fill:#171a23; stroke-width:0px;"/><path d="M370.7,131.8v-12.5s3.9-.4,3.9-.4v11.5c0,1.8.7,2.6,2.1,2.6s.2,0,.2.2v3.6c0,.1,0,.3-.2.3-4,0-6-1.8-6-5.3Z" style="fill:#171a23; stroke-width:0px;"/><path d="M400.6,133.2v3.6c0,.1,0,.3-.2.3-1.5,0-2.8-.6-3.9-1.7-1,1.1-2.6,1.7-4.8,1.7h-14.9c-.1,0-.2-.1-.2-.3v-3.6c0-.1.1-.2.2-.2h1.9v-13.6l3.9-.4v7.8c4.7-2.2,7-2.9,9.4-2.9s5.8,2.4,5.7,5.9v2.2s0,.3,0,.3c.8.5,1.6.8,2.7.8s.2,0,.2.2ZM393.8,130c0-1.3-1.1-2.3-2.7-2.3s-3.1.3-8.6,2.1v3.2h9.2c1.3,0,2.1-.7,2.1-2.1v-.9Z" style="fill:#171a23; stroke-width:0px;"/><path d="M400.1,136.8v-3.6c0-.1.1-.2.3-.2,1.4,0,2.1-.8,2.1-2.6v-11.1s3.9-.4,3.9-.4v12.9c0,3.5-2,5.3-6,5.3s-.2-.1-.2-.3Z" style="fill:#171a23; stroke-width:0px;"/><path d="M409.9,119.3l3.9-.4v18.2h-3.9v-17.8Z" style="fill:#171a23; stroke-width:0px;"/><path d="M440,124.4v7.4c0,3.4-1.9,5.2-5.8,5.2h-6.5c-4.1,0-6.2-1.9-6.2-5.6s.1-2.4.5-4l3.3.4c-.2,1.2-.2,1.9-.2,2.4,0,1.9,1.1,2.7,3.6,2.7h5.4c1.4,0,2.1-.8,2.1-2.5v-5.5s3.9-.5,3.9-.5ZM428.6,125.9l-2.6-2.6,2.6-2.6,2,1.9,1.9-1.9,2.6,2.6-2.5,2.6-2-1.9-1.9,1.9Z" style="fill:#171a23; stroke-width:0px;"/><path d="M443,131.8v-12.5s3.9-.4,3.9-.4v11.5c0,1.8.7,2.6,2.1,2.6s.2,0,.2.2v3.6c0,.1,0,.3-.2.3-4,0-6-1.8-6-5.3Z" style="fill:#171a23; stroke-width:0px;"/><path d="M454.1,133.2v3.6c0,.1-.1.3-.2.3h-4.8c-.1,0-.2-.1-.2-.3v-3.6c0-.1,0-.2.2-.2h4.8c.1,0,.2,0,.2.2Z" style="fill:#171a23; stroke-width:0px;"/><path d="M458.9,133.2v3.6c0,.1-.1.3-.2.3h-4.8c-.1,0-.2-.1-.2-.3v-3.6c0-.1,0-.2.2-.2h4.8c.1,0,.2,0,.2.2Z" style="fill:#171a23; stroke-width:0px;"/><path d="M463.8,133.2v3.6c0,.1-.1.3-.2.3h-4.8c-.1,0-.2-.1-.2-.3v-3.6c0-.1,0-.2.2-.2h4.8c.1,0,.2,0,.2.2Z" style="fill:#171a23; stroke-width:0px;"/><path d="M468.6,133.2v3.6c0,.1-.1.3-.2.3h-4.8c-.1,0-.2-.1-.2-.3v-3.6c0-.1,0-.2.2-.2h4.8c.1,0,.2,0,.2.2Z" style="fill:#171a23; stroke-width:0px;"/><path d="M473.4,133.2v3.6c0,.1-.1.3-.2.3h-4.8c-.1,0-.2-.1-.2-.3v-3.6c0-.1,0-.2.2-.2h4.8c.1,0,.2,0,.2.2Z" style="fill:#171a23; stroke-width:0px;"/><path d="M497.1,133.2v3.6c0,.1,0,.3-.2.3-1.3,0-2.5-.4-3.5-1.3-.9.8-2.2,1.3-3.8,1.3s-2.7-.4-4.1-1.4c-1,.9-2.3,1.4-4,1.4s-2.5-.5-3.7-1.5c-1,.9-2.5,1.5-4.5,1.5s-.2-.1-.2-.3v-3.6c0-.1,0-.2.2-.2,1.4,0,2.1-.8,2.1-2.5v-3s3.9-.4,3.9-.4v4.9c0,.2,0,.5,0,.7.6.2,1.2.4,1.9.4,1.4,0,2.1-.8,2.1-2.5v-3s3.9-.4,3.9-.4v4.9c0,.3,0,.5,0,.8.6.2,1.2.3,1.9.3,1.3,0,2.1-.9,2.1-2.5v-5.5l3.9-.4v7.4c0,.2,0,.4,0,.7.6.3,1.3.4,2.1.4s.2,0,.2.2Z" style="fill:#171a23; stroke-width:0px;"/><path d="M513.2,133.2v3.6c0,.1,0,.3-.2.3-1.5,0-2.8-.5-3.8-1.5-1,1-2.6,1.5-4.5,1.5h-7.8c-.1,0-.2-.1-.2-.3v-3.6c0-.1,0-.2.2-.2h7.8c1.3,0,2.2-.7,2.2-1.8s-.8-1.7-2.1-1.7h-5.6l-2-3.5,7-8.8,3.5,2-6.6,6.8h3.4c3.8,0,6.3,2.1,6.3,5.3s0,.8-.1,1.2c.6.3,1.4.5,2.3.5s.2,0,.2.2Z" style="fill:#171a23; stroke-width:0px;"/><path d="M525.8,130.3c0,4.1-2.7,6.8-7.1,6.8h-5.7c-.2,0-.2,0-.2-.3v-3.6c0-.1,0-.2.2-.2h1.5c-.5-1-.7-1.9-.7-2.9,0-3.4,2.6-5.8,5.9-5.8s6.2,2.5,6.2,6ZM521.9,130.3c0-1.3-1-2.3-2.3-2.3s-2.4,1.1-2.4,2.4.2,1.6.7,2.6h.8c2,0,3.2-1.1,3.2-2.7Z" style="fill:#171a23; stroke-width:0px;"/><path d="M455.4,234.3v2.6c0,.1,0,.2-.2.2-1.2,0-2-.2-2.7-.7-1.1.6-2.1.8-3.1.8-2.6,0-4.4-2-4.4-4.6s1.8-4.8,4.4-4.8,1.2.1,1.8.3v-1l2.8-.3v6.1c0,.8.4,1.1,1,1.1s.2,0,.2.2ZM448.2,226.6l-1.9-1.9,1.9-1.9,1.4,1.4,1.4-1.4,1.9,1.9-1.9,1.9-1.5-1.4-1.4,1.4ZM451.4,234.2c0-.2,0-.5,0-.8v-2.4c-.6-.2-1.2-.3-1.7-.3-1.2,0-1.9.8-1.9,1.9s.7,1.8,1.8,1.8c.7,0,1.3,0,1.9-.3Z" style="fill:#fff; stroke-width:0px;"/><path d="M459,234.3v2.6c0,.1,0,.2-.2.2h-3.5c-.1,0-.2,0-.2-.2v-2.6c0-.1,0-.2.2-.2h3.5c.1,0,.2,0,.2.2Z" style="fill:#fff; stroke-width:0px;"/><path d="M462.5,234.3v2.6c0,.1,0,.2-.2.2h-3.5c-.1,0-.2,0-.2-.2v-2.6c0-.1,0-.2.2-.2h3.5c.1,0,.2,0,.2.2Z" style="fill:#fff; stroke-width:0px;"/><path d="M466.1,234.3v2.6c0,.1,0,.2-.2.2h-3.5c-.1,0-.2,0-.2-.2v-2.6c0-.1,0-.2.2-.2h3.5c.1,0,.2,0,.2.2Z" style="fill:#fff; stroke-width:0px;"/><path d="M469.6,234.3v2.6c0,.1,0,.2-.2.2h-3.5c-.1,0-.2,0-.2-.2v-2.6c0-.1,0-.2.2-.2h3.5c.1,0,.2,0,.2.2Z" style="fill:#fff; stroke-width:0px;"/><path d="M473.2,234.3v2.6c0,.1,0,.2-.2.2h-3.5c-.1,0-.2,0-.2-.2v-2.6c0-.1,0-.2.2-.2h3.5c.1,0,.2,0,.2.2Z" style="fill:#fff; stroke-width:0px;"/><path d="M476.7,234.3v2.6c0,.1,0,.2-.2.2h-3.5c-.1,0-.2,0-.2-.2v-2.6c0-.1,0-.2.2-.2h3.5c.1,0,.2,0,.2.2Z" style="fill:#fff; stroke-width:0px;"/><path d="M480.2,234.3v2.6c0,.1,0,.2-.2.2h-3.5c-.1,0-.2,0-.2-.2v-2.6c0-.1,0-.2.2-.2h3.5c.1,0,.2,0,.2.2Z" style="fill:#fff; stroke-width:0px;"/><path d="M483.8,234.3v2.6c0,.1,0,.2-.2.2h-3.5c-.1,0-.2,0-.2-.2v-2.6c0-.1,0-.2.2-.2h3.5c.1,0,.2,0,.2.2Z" style="fill:#fff; stroke-width:0px;"/><path d="M487.3,234.3v2.6c0,.1,0,.2-.2.2h-3.5c-.1,0-.2,0-.2-.2v-2.6c0-.1,0-.2.2-.2h3.5c.1,0,.2,0,.2.2Z" style="fill:#fff; stroke-width:0px;"/><path d="M487,236.9v-2.6c0-.1,0-.2.2-.2,1,0,1.5-.6,1.5-1.9v-8.1s2.9-.3,2.9-.3v9.5c0,2.6-1.5,3.9-4.4,3.9s-.2,0-.2-.2Z" style="fill:#fff; stroke-width:0px;"/><path d="M502.3,232.5v4.3c0,3.2-3.1,4.3-7.5,4.3l-.3-2.3c3.4,0,4.9-.5,5-2-.6.2-1.1.4-1.7.4-2.5,0-4.2-1.8-4.2-4.5s2-4.7,4.5-4.7,4.3,1.7,4.3,4.6ZM498,234.3c.4,0,.9,0,1.4-.2v-1.5c0-1.2-.7-1.9-1.7-1.9s-1.7.7-1.7,1.7.8,1.8,1.9,1.8Z" style="fill:#fff; stroke-width:0px;"/><path d="M504.3,224.1l2.8-.3v13.3h-2.8v-13Z" style="fill:#fff; stroke-width:0px;"/><path d="M515.6,234.3v2.6c0,.1,0,.2-.2.2-.8,0-1.4-.3-1.9-.7v.3c0,3.2-1.7,4.3-5.2,4.3l-.2-2.3c1.5,0,2.6-.6,2.6-2.2v-8.4s2.8-.3,2.8-.3v4.9c.1.9.9,1.3,1.9,1.3s.2,0,.2.2Z" style="fill:#fff; stroke-width:0px;"/><path d="M519.2,234.3v2.6c0,.1,0,.2-.2.2h-3.5c-.1,0-.2,0-.2-.2v-2.6c0-.1,0-.2.2-.2h3.5c.1,0,.2,0,.2.2Z" style="fill:#fff; stroke-width:0px;"/><path d="M522.7,234.3v2.6c0,.1,0,.2-.2.2h-3.5c-.1,0-.2,0-.2-.2v-2.6c0-.1,0-.2.2-.2h3.5c.1,0,.2,0,.2.2Z" style="fill:#fff; stroke-width:0px;"/><path d="M526.3,234.3v2.6c0,.1,0,.2-.2.2h-3.5c-.1,0-.2,0-.2-.2v-2.6c0-.1,0-.2.2-.2h3.5c.1,0,.2,0,.2.2Z" style="fill:#fff; stroke-width:0px;"/><path d="M529.8,234.3v2.6c0,.1,0,.2-.2.2h-3.5c-.1,0-.2,0-.2-.2v-2.6c0-.1,0-.2.2-.2h3.5c.1,0,.2,0,.2.2Z" style="fill:#fff; stroke-width:0px;"/><path d="M533.4,234.3v2.6c0,.1,0,.2-.2.2h-3.5c-.1,0-.2,0-.2-.2v-2.6c0-.1,0-.2.2-.2h3.5c.1,0,.2,0,.2.2Z" style="fill:#fff; stroke-width:0px;"/><path d="M536.9,234.3v2.6c0,.1,0,.2-.2.2h-3.5c-.1,0-.2,0-.2-.2v-2.6c0-.1,0-.2.2-.2h3.5c.1,0,.2,0,.2.2Z" style="fill:#fff; stroke-width:0px;"/><path d="M546.1,232.2c0,3-2,5-5.2,5h-4.2c-.1,0-.2,0-.2-.2v-2.6c0-.1,0-.2.2-.2h1.1c-.3-.7-.5-1.4-.5-2.1,0-2.5,1.9-4.3,4.3-4.3s4.5,1.9,4.5,4.4ZM541.5,226.6l-1.9-1.9,1.9-1.9,1.9,1.9-1.9,1.9ZM543.3,232.1c0-1-.7-1.7-1.7-1.7s-1.8.8-1.8,1.8.2,1.2.5,1.9h.6c1.5,0,2.4-.8,2.4-2Z" style="fill:#fff; stroke-width:0px;"/><path d="M453,254.4c-.6-.1-1.2-.2-1.8-.2s-1.3.1-1.7.3c-.4.2-.6.5-.6,1s0,.5.3.7c.2.2.4.3.8.5.4.1.8.3,1.4.4.9.2,1.6.4,2.2.6.5.2,1,.5,1.2.9s.4.8.4,1.3c0,.9-.4,1.6-1.1,2-.8.4-1.8.7-3.1.7s-2.8-.2-3.8-.7v-1.3c.6.2,1.1.4,1.8.5.6.1,1.3.2,2,.2s1.6-.1,2-.4c.4-.2.7-.6.7-1.1s0-.5-.3-.7c-.2-.2-.5-.4-.9-.5-.4-.1-.9-.3-1.6-.4-.8-.2-1.5-.4-2-.6-.5-.2-.9-.5-1.2-.8-.3-.3-.4-.8-.4-1.3,0-.8.3-1.4,1-1.9.7-.4,1.6-.7,2.8-.7s2.5.2,3.5.6v1.3c-.6-.2-1.1-.4-1.7-.5Z" style="fill:#ee304c; stroke-width:0px;"/><path d="M458.9,254.4h-3.3v-1.2h8.1v1.2h-3.3v8h-1.5v-8Z" style="fill:#ee304c; stroke-width:0px;"/><path d="M464.8,253.2h4c1.2,0,2.1.2,2.8.7.7.5,1,1.2,1,2.1s-.3,1.5-.9,1.9c-.6.5-1.4.8-2.4.8l3.5,3.7h-1.7l-4.4-4.6h2.1c.7,0,1.3-.1,1.7-.4.4-.3.6-.7.6-1.3s-.2-1-.6-1.3-.9-.4-1.7-.4h-2.5v8.1h-1.5v-9.2Z" style="fill:#ee304c; stroke-width:0px;"/><path d="M476.7,253.2h2.9l3.8,9.2h-1.7l-.9-2.2h-5.4l-.9,2.2h-1.7l3.8-9.2ZM480.4,259.1l-2.2-5.7h0l-2.2,5.7h4.5Z" style="fill:#ee304c; stroke-width:0px;"/><path d="M482.3,253.2h1.6l2.6,9h0l2.5-9h2.5l2.6,9h0l2.6-9h1.6l-2.8,9.2h-2.7l-2.5-9h0l-2.5,9h-2.7l-2.8-9.2Z" style="fill:#ee304c; stroke-width:0px;"/><path d="M499.4,253.2h4.1c1.1,0,2,.2,2.6.6.6.4.9,1,.9,1.7s-.3,1.1-.8,1.4-1.2.6-2.2.6h0c1.1,0,2,.3,2.6.7.6.4.9,1,.9,1.7s-.3,1.4-1,1.8-1.6.7-2.8.7h-4.4v-9.2ZM502.9,257.4c1.7,0,2.5-.5,2.5-1.5s-.2-.9-.6-1.1c-.4-.3-1-.4-1.7-.4h-2.2v3h2ZM503.4,261.1c.8,0,1.4-.1,1.9-.4.4-.3.6-.6.6-1.2s-.2-.9-.6-1.2c-.4-.3-1-.4-1.8-.4h-2.6v3.2h2.6Z" style="fill:#ee304c; stroke-width:0px;"/><path d="M516.2,253.2v1.2h-5.8v2.8h4.7v1.1h-4.7v2.9h6v1.2h-7.5v-9.2h7.3Z" style="fill:#ee304c; stroke-width:0px;"/><path d="M517.4,253.2h4c1.2,0,2.1.2,2.8.7.7.5,1,1.2,1,2.1s-.3,1.5-.9,1.9c-.6.5-1.4.8-2.4.8l3.5,3.7h-1.7l-4.4-4.6h2.1c.7,0,1.3-.1,1.7-.4.4-.3.6-.7.6-1.3s-.2-1-.6-1.3-.9-.4-1.7-.4h-2.5v8.1h-1.5v-9.2Z" style="fill:#ee304c; stroke-width:0px;"/><path d="M526.6,253.2h4c1.2,0,2.1.2,2.8.7.7.5,1,1.2,1,2.1s-.3,1.5-.9,1.9c-.6.5-1.4.8-2.4.8l3.5,3.7h-1.7l-4.4-4.6h2.1c.7,0,1.3-.1,1.7-.4.4-.3.6-.7.6-1.3s-.2-1-.6-1.3-.9-.4-1.7-.4h-2.5v8.1h-1.5v-9.2Z" style="fill:#ee304c; stroke-width:0px;"/><path d="M539.7,259.2h-1.4l-3.4-6.1h1.7l3.2,5.9h0l3.2-5.9h1.7l-5.3,9.2h-1.5l1.7-3.1Z" style="fill:#ee304c; stroke-width:0px;"/><path d="M452.9,316.3v2.6c0,.1,0,.2-.2.2h-.9c-.3,2.8-3.2,3.9-7.5,3.9l-.3-2.3c3.1,0,4.6-.4,4.9-1.6h-1.5c-2.6,0-4.3-1.8-4.3-4.5s2-4.7,4.5-4.7,4.3,1.7,4.3,4.6v1.7h.9c.1,0,.2,0,.2.2ZM447.6,316.3c.4,0,.9,0,1.4,0v-1.6c0-1.2-.7-1.9-1.7-1.9s-1.7.7-1.7,1.7.9,1.8,2,1.8Z" style="fill:#fff; stroke-width:0px;"/><path d="M456.4,316.3v2.6c0,.1,0,.2-.2.2h-3.5c-.1,0-.2,0-.2-.2v-2.6c0-.1,0-.2.2-.2h3.5c.1,0,.2,0,.2.2Z" style="fill:#fff; stroke-width:0px;"/><path d="M459.9,316.3v2.6c0,.1,0,.2-.2.2h-3.5c-.1,0-.2,0-.2-.2v-2.6c0-.1,0-.2.2-.2h3.5c.1,0,.2,0,.2.2Z" style="fill:#fff; stroke-width:0px;"/><path d="M463.5,316.3v2.6c0,.1,0,.2-.2.2h-3.5c-.1,0-.2,0-.2-.2v-2.6c0-.1,0-.2.2-.2h3.5c.1,0,.2,0,.2.2Z" style="fill:#fff; stroke-width:0px;"/><path d="M479.1,309.9v5.4c0,2.5-1.3,3.8-3.8,3.8s-2-.3-3-1c-.7.6-1.7,1-2.9,1s-1.8-.3-2.7-1.1c-.7.7-1.8,1.1-3.3,1.1s-.2,0-.2-.2v-2.6c0-.1,0-.2.2-.2,1,0,1.5-.6,1.5-1.9v-2.2s2.8-.3,2.8-.3v3.6c0,.2,0,.4,0,.5.5.2.9.3,1.4.3,1,0,1.5-.6,1.5-1.9v-2.2s2.8-.3,2.8-.3v3.6c0,.2,0,.4,0,.6.5.1.9.2,1.4.2,1,0,1.5-.6,1.5-1.9v-4.1l2.8-.3Z" style="fill:#fff; stroke-width:0px;"/><path d="M489.3,314.4v4.3c0,3.2-3.1,4.3-7.5,4.3l-.3-2.3c3.4,0,4.9-.5,5-2-.6.2-1.1.4-1.7.4-2.5,0-4.2-1.8-4.2-4.5s2-4.7,4.5-4.7,4.3,1.7,4.3,4.6ZM485.1,316.3c.4,0,.9,0,1.4-.2v-1.5c0-1.2-.7-1.9-1.7-1.9s-1.7.7-1.7,1.7.8,1.8,1.9,1.8Z" style="fill:#fff; stroke-width:0px;"/><path d="M497.4,316.3v2.6c0,.1,0,.2-.2.2-.8,0-1.4-.3-1.9-.7v.3c0,3.2-1.7,4.3-5.2,4.3l-.2-2.3c1.5,0,2.6-.6,2.6-2.2v-8.4s2.8-.3,2.8-.3v4.9c.1.9.9,1.3,1.9,1.3s.2,0,.2.2Z" style="fill:#fff; stroke-width:0px;"/><path d="M500.9,316.3v2.6c0,.1,0,.2-.2.2h-3.5c-.1,0-.2,0-.2-.2v-2.6c0-.1,0-.2.2-.2h3.5c.1,0,.2,0,.2.2Z" style="fill:#fff; stroke-width:0px;"/><path d="M504.5,316.3v2.6c0,.1,0,.2-.2.2h-3.5c-.1,0-.2,0-.2-.2v-2.6c0-.1,0-.2.2-.2h3.5c.1,0,.2,0,.2.2Z" style="fill:#fff; stroke-width:0px;"/><path d="M508,316.3v2.6c0,.1,0,.2-.2.2h-3.5c-.1,0-.2,0-.2-.2v-2.6c0-.1,0-.2.2-.2h3.5c.1,0,.2,0,.2.2Z" style="fill:#fff; stroke-width:0px;"/><path d="M518,314.9c0,2.7-1.7,4.3-4.5,4.3h-5.7c-.1,0-.2,0-.2-.2v-2.6c0-.1,0-.2.2-.2h5.7c1,0,1.6-.5,1.6-1.3s-.6-1.3-1.6-1.3h-4.1l-1.5-2.6,5.2-6.4,2.5,1.4-4.8,5h2.5c2.8,0,4.6,1.5,4.6,3.9Z" style="fill:#fff; stroke-width:0px;"/><path d="M532.8,316.3v2.6c0,.1,0,.2-.2.2h-.9c-.3,2.8-3.2,3.9-7.5,3.9l-.3-2.3c3.1,0,4.6-.4,4.9-1.6h-1.5c-2.6,0-4.3-1.8-4.3-4.5s2-4.7,4.5-4.7,4.3,1.7,4.3,4.6v1.7h.9c.1,0,.2,0,.2.2ZM527.5,316.3c.4,0,.9,0,1.4,0v-1.6c0-1.2-.7-1.9-1.7-1.9s-1.7.7-1.7,1.7.9,1.8,2,1.8Z" style="fill:#fff; stroke-width:0px;"/><path d="M536.3,316.3v2.6c0,.1,0,.2-.2.2h-3.5c-.1,0-.2,0-.2-.2v-2.6c0-.1,0-.2.2-.2h3.5c.1,0,.2,0,.2.2Z" style="fill:#fff; stroke-width:0px;"/><path d="M542.3,318.9c0,.1,0,.2-.2.2-1.6,0-2.8-.4-3.5-1.2-.8.8-1.6,1.2-2.5,1.2s-.2,0-.2-.2v-2.6c0-.1,0-.2.2-.2.7,0,1.2-.2,1.6-.5,0-.1,0-.3,0-.4v-9.1s2.8-.3,2.8-.3v8.4c0,1.3.5,1.9,1.5,1.9s.2,0,.2.2v2.6Z" style="fill:#fff; stroke-width:0px;"/><path d="M542,318.9v-2.6c0-.1.1-.2.2-.2,1,0,1.5-.6,1.5-1.9v-4s2.8-.3,2.8-.3v5.4c0,2.5-1.4,3.8-4.4,3.8s-.2,0-.2-.2ZM542.5,322l1.9-1.9,1.9,1.9-1.9,1.9-1.9-1.9Z" style="fill:#fff; stroke-width:0px;"/><path d="M446.8,337.5h3.8c1.1,0,1.9.2,2.5.6.6.4.9.9.9,1.6s-.2,1-.7,1.4-1.2.5-2.1.6h0c1,0,1.9.3,2.4.6.6.4.9.9.9,1.6s-.3,1.3-.9,1.7c-.6.4-1.5.6-2.6.6h-4.1v-8.7ZM450.1,341.5c1.6,0,2.4-.5,2.4-1.4s-.2-.8-.6-1.1c-.4-.2-.9-.4-1.6-.4h-2.1v2.8h1.9ZM450.6,345.1c.8,0,1.4-.1,1.8-.4.4-.2.6-.6.6-1.1s-.2-.9-.6-1.1c-.4-.3-1-.4-1.7-.4h-2.5v3h2.4Z" style="fill:#ee304c; stroke-width:0px;"/><path d="M457.2,337.5v7.5h5.2v1.2h-6.6v-8.7h1.4Z" style="fill:#ee304c; stroke-width:0px;"/><path d="M470.5,345.4c-.7.7-1.8,1-3.2,1s-2.4-.3-3.2-1c-.7-.7-1.1-1.6-1.1-2.8v-5.1h1.4v5.1c0,.9.2,1.5.7,2,.5.5,1.2.7,2.1.7s1.6-.2,2.1-.7.7-1.1.7-2v-5.1h1.4v5.1c0,1.2-.4,2.1-1.1,2.8Z" style="fill:#ee304c; stroke-width:0px;"/><path d="M480,337.5v1.2h-5.5v2.6h4.5v1h-4.5v2.8h5.6v1.2h-7.1v-8.7h6.9Z" style="fill:#ee304c; stroke-width:0px;"/><path d="M485.7,344.4c.6.6,1.4.8,2.5.8s1,0,1.5-.2c.5-.1,1-.3,1.4-.5v1.2c-.4.2-.8.3-1.3.4-.5.1-1,.2-1.5.2-1.6,0-2.8-.4-3.6-1.1-.9-.8-1.3-1.8-1.3-3.2s.4-2.5,1.3-3.2c.9-.8,2.1-1.1,3.6-1.1s1,0,1.5.1c.5.1,1,.2,1.4.4v1.2c-.5-.2-1-.4-1.5-.5s-1-.2-1.5-.2c-1.1,0-1.9.3-2.5.8-.6.6-.9,1.4-.9,2.4s.3,1.8.9,2.4Z" style="fill:#ee304c; stroke-width:0px;"/><path d="M499.4,345.5c-.7.6-1.7.9-3.1.9s-2.4-.3-3.1-.9c-.7-.6-1.1-1.5-1.1-2.7v-4.9h1.4v4.9c0,.8.2,1.5.7,1.9s1.2.7,2.1.7,1.6-.2,2.1-.7c.5-.4.7-1.1.7-1.9v-4.9h1.4v4.9c0,1.2-.4,2.1-1.1,2.7Z" style="fill:#ee304c; stroke-width:0px;"/><path d="M501.9,337.9h3.6c1.1,0,1.9.2,2.5.7.6.4.9,1.1.9,1.9s-.3,1.3-.8,1.8c-.5.4-1.3.7-2.2.7l3.2,3.3h-1.6l-4-4.2h2c.7,0,1.2-.1,1.5-.4.3-.3.5-.7.5-1.2s-.2-.9-.5-1.2c-.3-.3-.8-.4-1.5-.4h-2.3v7.4h-1.4v-8.4Z" style="fill:#ee304c; stroke-width:0px;"/><path d="M512.7,337.9h2.7l3.4,8.4h-1.5l-.8-2h-4.9l-.8,2h-1.5l3.4-8.4ZM516.1,343.2l-2-5.2h0l-2,5.2h4.1Z" style="fill:#ee304c; stroke-width:0px;"/><path d="M521,344.4c.6.6,1.4.8,2.5.8s1,0,1.5-.2c.5-.1,1-.3,1.4-.5v1.2c-.4.2-.8.3-1.3.4-.5.1-1,.2-1.5.2-1.6,0-2.8-.4-3.6-1.1-.9-.8-1.3-1.8-1.3-3.2s.4-2.5,1.3-3.2c.9-.8,2.1-1.1,3.6-1.1s1,0,1.5.1c.5.1,1,.2,1.4.4v1.2c-.5-.2-1-.4-1.5-.5s-1-.2-1.5-.2c-1.1,0-1.9.3-2.5.8-.6.6-.9,1.4-.9,2.4s.3,1.8.9,2.4Z" style="fill:#ee304c; stroke-width:0px;"/><path d="M530.3,337.9h2.7l3.4,8.4h-1.5l-.8-2h-4.9l-.8,2h-1.5l3.4-8.4ZM533.7,343.2l-2-5.2h0l-2,5.2h4.1Z" style="fill:#ee304c; stroke-width:0px;"/><path d="M538.5,345.9c-.7-.3-1.2-.8-1.6-1.5-.4-.6-.6-1.4-.6-2.3s.2-1.7.6-2.4c.4-.7.9-1.2,1.6-1.5.7-.3,1.5-.5,2.5-.5s1.8.2,2.5.5c.7.3,1.2.9,1.6,1.5.4.7.6,1.4.6,2.4s-.2,1.7-.6,2.3c-.4.6-.9,1.1-1.6,1.5s-1.5.5-2.5.5-1.8-.2-2.5-.5ZM538.6,344.4c.6.6,1.4.8,2.4.8s1.8-.3,2.4-.8c.6-.6.9-1.3.9-2.3s-.3-1.8-.9-2.4c-.6-.6-1.4-.8-2.4-.8s-1.8.3-2.4.8c-.6.6-.9,1.4-.9,2.4s.3,1.8.9,2.3Z" style="fill:#ee304c; stroke-width:0px;"/><path d="M457.7,399.2v2.6c0,.1,0,.2-.2.2h-.9c-.3,2.8-3.2,3.9-7.5,3.9l-.3-2.3c3.1,0,4.6-.4,4.9-1.6h-1.5c-2.6,0-4.3-1.8-4.3-4.5s2-4.7,4.5-4.7,4.3,1.7,4.3,4.6v1.7h.9c.1,0,.2,0,.2.2ZM452.4,399.2c.4,0,.9,0,1.4,0v-1.6c0-1.2-.7-1.9-1.7-1.9s-1.7.7-1.7,1.7.9,1.8,2,1.8Z" style="fill:#fff; stroke-width:0px;"/><path d="M461.2,399.2v2.6c0,.1,0,.2-.2.2h-3.5c-.1,0-.2,0-.2-.2v-2.6c0-.1,0-.2.2-.2h3.5c.1,0,.2,0,.2.2Z" style="fill:#fff; stroke-width:0px;"/><path d="M464.8,399.2v2.6c0,.1,0,.2-.2.2h-3.5c-.1,0-.2,0-.2-.2v-2.6c0-.1,0-.2.2-.2h3.5c.1,0,.2,0,.2.2Z" style="fill:#fff; stroke-width:0px;"/><path d="M468.3,399.2v2.6c0,.1,0,.2-.2.2h-3.5c-.1,0-.2,0-.2-.2v-2.6c0-.1,0-.2.2-.2h3.5c.1,0,.2,0,.2.2Z" style="fill:#fff; stroke-width:0px;"/><path d="M471.8,399.2v2.6c0,.1,0,.2-.2.2h-3.5c-.1,0-.2,0-.2-.2v-2.6c0-.1,0-.2.2-.2h3.5c.1,0,.2,0,.2.2Z" style="fill:#fff; stroke-width:0px;"/><path d="M475.4,399.2v2.6c0,.1,0,.2-.2.2h-3.5c-.1,0-.2,0-.2-.2v-2.6c0-.1,0-.2.2-.2h3.5c.1,0,.2,0,.2.2Z" style="fill:#fff; stroke-width:0px;"/><path d="M478.9,399.2v2.6c0,.1,0,.2-.2.2h-3.5c-.1,0-.2,0-.2-.2v-2.6c0-.1,0-.2.2-.2h3.5c.1,0,.2,0,.2.2Z" style="fill:#fff; stroke-width:0px;"/><path d="M482.5,399.2v2.6c0,.1,0,.2-.2.2h-3.5c-.1,0-.2,0-.2-.2v-2.6c0-.1,0-.2.2-.2h3.5c.1,0,.2,0,.2.2Z" style="fill:#fff; stroke-width:0px;"/><path d="M486,399.2v2.6c0,.1,0,.2-.2.2h-3.5c-.1,0-.2,0-.2-.2v-2.6c0-.1,0-.2.2-.2h3.5c.1,0,.2,0,.2.2Z" style="fill:#fff; stroke-width:0px;"/><path d="M497.6,399.2v2.6c0,.1,0,.2-.2.2h-.3c-1.4,0-2.4-.7-2.9-1.9-2.8,1.4-5.1,1.9-8.3,1.9s-.2,0-.2-.2v-2.6c0-.1,0-.2.2-.2,3.5,0,5.4-.3,7.5-1.2-2.4-1.7-3.4-2.2-4.6-2.2s-1,.1-1.8.3l-.5-2.5c1-.4,1.8-.6,2.6-.6,1.6,0,3,.7,7.2,3.6l-.5,2.4c.3.1.7.2,1.2.2h.3c.1,0,.2,0,.2.2ZM491.9,402.7l1.9,1.9-1.9,1.9-1.9-1.9,1.9-1.9Z" style="fill:#fff; stroke-width:0px;"/><path d="M497.2,401.8v-2.6c0-.1.1-.2.2-.2,1,0,1.5-.6,1.5-1.9v-4s2.8-.3,2.8-.3v5.4c0,2.5-1.4,3.8-4.4,3.8s-.2,0-.2-.2ZM498.4,389.6l1.9-1.9,1.9,1.9-1.9,1.9-1.9-1.9Z" style="fill:#fff; stroke-width:0px;"/><path d="M504,398.2v-9.1s2.8-.3,2.8-.3v8.4c0,1.3.5,1.9,1.5,1.9s.2,0,.2.2v2.6c0,.1,0,.2-.2.2-2.9,0-4.4-1.3-4.4-3.9Z" style="fill:#fff; stroke-width:0px;"/><path d="M512.1,399.2v2.6c0,.1,0,.2-.2.2h-3.5c-.1,0-.2,0-.2-.2v-2.6c0-.1,0-.2.2-.2h3.5c.1,0,.2,0,.2.2Z" style="fill:#fff; stroke-width:0px;"/><path d="M515.6,399.2v2.6c0,.1,0,.2-.2.2h-3.5c-.1,0-.2,0-.2-.2v-2.6c0-.1,0-.2.2-.2h3.5c.1,0,.2,0,.2.2Z" style="fill:#fff; stroke-width:0px;"/><path d="M519.2,399.2v2.6c0,.1,0,.2-.2.2h-3.5c-.1,0-.2,0-.2-.2v-2.6c0-.1,0-.2.2-.2h3.5c.1,0,.2,0,.2.2Z" style="fill:#fff; stroke-width:0px;"/><path d="M522.7,399.2v2.6c0,.1,0,.2-.2.2h-3.5c-.1,0-.2,0-.2-.2v-2.6c0-.1,0-.2.2-.2h3.5c.1,0,.2,0,.2.2Z" style="fill:#fff; stroke-width:0px;"/><path d="M526.3,399.2v2.6c0,.1,0,.2-.2.2h-3.5c-.1,0-.2,0-.2-.2v-2.6c0-.1,0-.2.2-.2h3.5c.1,0,.2,0,.2.2Z" style="fill:#fff; stroke-width:0px;"/><path d="M529.8,399.2v2.6c0,.1,0,.2-.2.2h-3.5c-.1,0-.2,0-.2-.2v-2.6c0-.1,0-.2.2-.2h3.5c.1,0,.2,0,.2.2Z" style="fill:#fff; stroke-width:0px;"/><path d="M533.4,399.2v2.6c0,.1,0,.2-.2.2h-3.5c-.1,0-.2,0-.2-.2v-2.6c0-.1,0-.2.2-.2h3.5c.1,0,.2,0,.2.2Z" style="fill:#fff; stroke-width:0px;"/><path d="M536.9,399.2v2.6c0,.1,0,.2-.2.2h-3.5c-.1,0-.2,0-.2-.2v-2.6c0-.1,0-.2.2-.2h3.5c.1,0,.2,0,.2.2Z" style="fill:#fff; stroke-width:0px;"/><path d="M546.2,397.1c0,3-2,5-5.2,5h-4.2c-.1,0-.2,0-.2-.2v-2.6c0-.1,0-.2.2-.2h1.1c-.3-.7-.5-1.4-.5-2.1,0-2.5,1.9-4.3,4.3-4.3s4.5,1.9,4.5,4.4ZM543.3,397c0-1-.7-1.7-1.7-1.7s-1.8.8-1.8,1.8.2,1.2.5,1.9h.6c1.5,0,2.4-.8,2.4-2Z" style="fill:#fff; stroke-width:0px;"/><path d="M495.8,420.2h0v8.3h-1.4v-8.7h2.6l2.9,8.6h0l2.9-8.6h2.6v8.7h-1.4v-8.3h0l-2.9,8.3h-2.4l-2.9-8.3Z" style="fill:#ee304c; stroke-width:0px;"/><path d="M509.9,419.8h2.7l3.6,8.7h-1.6l-.8-2.1h-5.1l-.8,2.1h-1.6l3.5-8.7ZM513.4,425.4l-2.1-5.4h0l-2.1,5.4h4.3Z" style="fill:#ee304c; stroke-width:0px;"/><path d="M519.8,419.8l4.5,8.5h0v-8.5h1.4v8.7h-2.8l-4.5-8.6h0v8.6h-1.4v-8.7h2.8Z" style="fill:#ee304c; stroke-width:0px;"/><path d="M529.4,426.6c.5.6,1.2.9,2,.9s1.4-.2,1.9-.7c.5-.4.7-1.1.8-1.9h-2.4v-1h3.9v4.6h-.9l-.5-3.5h0c0,1.2-.3,2.1-.9,2.7-.6.6-1.4,1-2.4,1s-1.4-.2-2-.5c-.6-.4-1-.9-1.3-1.5-.3-.7-.5-1.5-.5-2.4,0-1.5.4-2.6,1.3-3.4.9-.8,2.1-1.2,3.8-1.2s1.1,0,1.6.2c.5.1,1,.3,1.5.4v1.3c-.5-.2-1-.4-1.5-.5-.5-.1-1.1-.2-1.6-.2-1.1,0-2,.3-2.6.9-.6.6-.9,1.4-.9,2.5s.2,1.8.7,2.4Z" style="fill:#ee304c; stroke-width:0px;"/><path d="M538.9,428.1c-.7-.4-1.3-.9-1.7-1.5-.4-.7-.6-1.5-.6-2.4s.2-1.8.6-2.5c.4-.7.9-1.2,1.7-1.6s1.6-.5,2.6-.5,1.9.2,2.6.5c.7.4,1.3.9,1.7,1.6.4.7.6,1.5.6,2.5s-.2,1.8-.6,2.4c-.4.7-.9,1.2-1.7,1.5-.7.4-1.6.5-2.6.5s-1.9-.2-2.6-.5ZM539,426.6c.6.6,1.4.9,2.5.9s1.9-.3,2.5-.9.9-1.4.9-2.4-.3-1.9-.9-2.5c-.6-.6-1.4-.9-2.5-.9s-1.9.3-2.5.9c-.6.6-.9,1.4-.9,2.5s.3,1.8.9,2.4Z" style="fill:#ee304c; stroke-width:0px;"/><path d="M459.5,471.3v5.4c0,2.5-1.4,3.8-4.3,3.8h-4.8c-3,0-4.5-1.4-4.5-4.1s0-1.8.3-3l2.4.3c-.1.9-.2,1.4-.2,1.8,0,1.4.8,2,2.6,2h4c1,0,1.5-.6,1.5-1.9v-4s2.8-.3,2.8-.3ZM451.1,472.4l-1.9-1.9,1.9-1.9,1.4,1.4,1.4-1.4,1.9,1.9-1.9,1.9-1.5-1.4-1.4,1.4Z" style="fill:#fff; stroke-width:0px;"/><path d="M469.7,475.9v4.3c0,3.2-3.1,4.3-7.5,4.3l-.3-2.3c3.4,0,4.9-.5,5-2-.6.2-1.1.4-1.7.4-2.5,0-4.2-1.8-4.2-4.5s2-4.7,4.5-4.7,4.3,1.7,4.3,4.6ZM465.4,477.7c.4,0,.9,0,1.4-.2v-1.5c0-1.2-.7-1.9-1.7-1.9s-1.7.7-1.7,1.7.8,1.8,1.9,1.8Z" style="fill:#fff; stroke-width:0px;"/><path d="M477.7,477.8v2.6c0,.1,0,.2-.2.2-.8,0-1.4-.3-1.9-.7v.3c0,3.2-1.7,4.3-5.2,4.3l-.2-2.3c1.5,0,2.6-.6,2.6-2.2v-8.4s2.8-.3,2.8-.3v4.9c.1.9.9,1.3,1.9,1.3s.2,0,.2.2Z" style="fill:#fff; stroke-width:0px;"/><path d="M481.3,477.8v2.6c0,.1,0,.2-.2.2h-3.5c-.1,0-.2,0-.2-.2v-2.6c0-.1,0-.2.2-.2h3.5c.1,0,.2,0,.2.2Z" style="fill:#fff; stroke-width:0px;"/><path d="M490.5,475.6c0,3-2,5-5.2,5h-4.2c-.1,0-.2,0-.2-.2v-2.6c0-.1,0-.2.2-.2h1.1c-.3-.7-.5-1.4-.5-2.1,0-2.5,1.9-4.3,4.3-4.3s4.5,1.9,4.5,4.4ZM485.9,470l-1.9-1.9,1.9-1.9,1.9,1.9-1.9,1.9ZM487.7,475.6c0-1-.7-1.7-1.7-1.7s-1.8.8-1.8,1.8.2,1.2.5,1.9h.6c1.5,0,2.4-.8,2.4-2Z" style="fill:#fff; stroke-width:0px;"/><path d="M508.6,477.8v2.6c0,.1,0,.2-.2.2-.8,0-1.5-.3-2-.8-.3,3-2.2,4.7-5.6,4.7s-5.5-1.6-5.5-4.9.3-2.6.8-4.3l2.3.6c-.3,1-.5,1.9-.5,2.8,0,1.8,1,2.7,2.9,2.7s2.8-1,2.8-3v-6.8l2.8-.3v4.6c0,1.1.8,1.7,1.9,1.7s.2,0,.2.2ZM500.5,473.3l-1.9-1.9,1.9-1.9,1.9,1.9-1.9,1.9Z" style="fill:#fff; stroke-width:0px;"/><path d="M512.2,477.8v2.6c0,.1,0,.2-.2.2h-3.5c-.1,0-.2,0-.2-.2v-2.6c0-.1,0-.2.2-.2h3.5c.1,0,.2,0,.2.2Z" style="fill:#fff; stroke-width:0px;"/><path d="M515.7,477.8v2.6c0,.1,0,.2-.2.2h-3.5c-.1,0-.2,0-.2-.2v-2.6c0-.1,0-.2.2-.2h3.5c.1,0,.2,0,.2.2Z" style="fill:#fff; stroke-width:0px;"/><path d="M519.3,477.8v2.6c0,.1,0,.2-.2.2h-3.5c-.1,0-.2,0-.2-.2v-2.6c0-.1,0-.2.2-.2h3.5c.1,0,.2,0,.2.2Z" style="fill:#fff; stroke-width:0px;"/><path d="M534.9,471.3v5.4c0,2.5-1.3,3.8-3.8,3.8s-2-.3-3-1c-.7.6-1.7,1-2.9,1s-1.8-.3-2.7-1.1c-.7.7-1.8,1.1-3.3,1.1s-.2,0-.2-.2v-2.6c0-.1,0-.2.2-.2,1,0,1.5-.6,1.5-1.9v-2.2s2.8-.3,2.8-.3v3.6c0,.2,0,.4,0,.5.5.2.9.3,1.4.3,1,0,1.5-.6,1.5-1.9v-2.2s2.8-.3,2.8-.3v3.6c0,.2,0,.4,0,.6.5.1.9.2,1.4.2,1,0,1.5-.6,1.5-1.9v-4.1l2.8-.3ZM526.3,471.4l-1.9-1.9,1.9-1.9,1.4,1.4,1.4-1.4,1.9,1.9-1.9,1.9-1.5-1.4-1.4,1.4ZM527.7,468.1l-1.2-1.2,1.2-1.2,1.2,1.2-1.2,1.2Z" style="fill:#fff; stroke-width:0px;"/><path d="M537.1,476.7v-9.1s2.8-.3,2.8-.3v8.4c0,1.3.5,1.9,1.5,1.9s.2,0,.2.2v2.6c0,.1,0,.2-.2.2-2.9,0-4.4-1.3-4.4-3.9Z" style="fill:#fff; stroke-width:0px;"/><path d="M541.3,480.4v-2.6c0-.1.1-.2.2-.2,1,0,1.5-.6,1.5-1.9v-4s2.8-.3,2.8-.3v5.4c0,2.5-1.4,3.8-4.4,3.8s-.2,0-.2-.2ZM541.8,483.4l1.9-1.9,1.9,1.9-1.9,1.9-1.9-1.9Z" style="fill:#fff; stroke-width:0px;"/><path d="M447.7,499.3h3.8c1.3,0,2.3.3,2.9.8.7.5,1,1.2,1,2.2s-.3,1.7-1,2.2c-.7.5-1.7.8-2.9.8h-2.3v3h-1.5v-8.9ZM453.3,503.6c.4-.3.6-.8.6-1.4s-.2-1.1-.6-1.4c-.4-.3-1-.5-1.9-.5h-2.2v3.7h2.2c.8,0,1.4-.2,1.9-.5Z" style="fill:#ee304c; stroke-width:0px;"/><path d="M458.2,499.3h2.8l3.6,8.9h-1.6l-.8-2.1h-5.2l-.8,2.1h-1.6l3.6-8.9ZM461.8,505l-2.2-5.5h0l-2.2,5.5h4.3Z" style="fill:#ee304c; stroke-width:0px;"/><path d="M470.4,500.5c-.6-.1-1.2-.2-1.8-.2s-1.3,0-1.6.3c-.4.2-.5.5-.5.9s0,.5.2.7c.2.2.4.3.8.5.3.1.8.3,1.4.4.9.2,1.6.4,2.1.6.5.2.9.5,1.2.8.3.3.4.7.4,1.2,0,.9-.4,1.5-1.1,1.9-.7.4-1.7.6-3,.6s-2.7-.2-3.6-.6v-1.3c.6.2,1.1.4,1.7.5s1.2.2,1.9.2,1.5-.1,1.9-.3c.4-.2.6-.6.6-1s0-.5-.3-.7c-.2-.2-.5-.4-.8-.5-.4-.1-.9-.3-1.5-.4-.8-.2-1.5-.4-1.9-.6-.5-.2-.9-.5-1.1-.8-.3-.3-.4-.7-.4-1.2,0-.8.3-1.4,1-1.8.6-.4,1.5-.6,2.7-.6s2.4.2,3.3.6v1.3c-.5-.2-1-.4-1.6-.5Z" style="fill:#ee304c; stroke-width:0px;"/><path d="M478.8,500.5c-.6-.1-1.2-.2-1.8-.2s-1.3,0-1.6.3c-.4.2-.5.5-.5.9s0,.5.2.7c.2.2.4.3.8.5.3.1.8.3,1.4.4.9.2,1.6.4,2.1.6.5.2.9.5,1.2.8.3.3.4.7.4,1.2,0,.9-.4,1.5-1.1,1.9-.7.4-1.7.6-3,.6s-2.7-.2-3.6-.6v-1.3c.6.2,1.1.4,1.7.5s1.2.2,1.9.2,1.5-.1,1.9-.3c.4-.2.6-.6.6-1s0-.5-.3-.7c-.2-.2-.5-.4-.8-.5-.4-.1-.9-.3-1.5-.4-.8-.2-1.5-.4-1.9-.6-.5-.2-.9-.5-1.1-.8-.3-.3-.4-.7-.4-1.2,0-.8.3-1.4,1-1.8.6-.4,1.5-.6,2.7-.6s2.4.2,3.3.6v1.3c-.5-.2-1-.4-1.6-.5Z" style="fill:#ee304c; stroke-width:0px;"/><path d="M483.6,499.3v8.9h-1.5v-8.9h1.5Z" style="fill:#ee304c; stroke-width:0px;"/><path d="M487.3,507.8c-.7-.4-1.3-.9-1.7-1.6-.4-.7-.6-1.5-.6-2.5s.2-1.8.6-2.5c.4-.7.9-1.2,1.7-1.6.7-.4,1.6-.6,2.6-.6s1.9.2,2.6.6c.7.4,1.3.9,1.7,1.6.4.7.6,1.5.6,2.5s-.2,1.8-.6,2.5c-.4.7-.9,1.2-1.7,1.6-.7.4-1.6.5-2.6.5s-1.9-.2-2.6-.5ZM487.4,506.3c.6.6,1.4.9,2.5.9s1.9-.3,2.5-.9c.6-.6.9-1.4.9-2.5s-.3-1.9-.9-2.5c-.6-.6-1.4-.9-2.5-.9s-1.9.3-2.5.9c-.6.6-.9,1.4-.9,2.5s.3,1.9.9,2.5Z" style="fill:#ee304c; stroke-width:0px;"/><path d="M499.1,499.3l4.6,8.7h0v-8.7h1.4v8.9h-2.8l-4.6-8.7h0v8.7h-1.4v-8.9h2.8Z" style="fill:#ee304c; stroke-width:0px;"/><path d="M509.6,499.3h7v1.2h-5.6v3h4.4v1.1h-4.4v3.6h-1.5v-8.9Z" style="fill:#ee304c; stroke-width:0px;"/><path d="M517.8,499.3h3.8c1.2,0,2.1.2,2.7.7.6.5,1,1.1,1,2s-.3,1.4-.8,1.9c-.6.5-1.3.7-2.3.8l3.4,3.5h-1.6l-4.3-4.5h2.1c.7,0,1.2-.1,1.6-.4.4-.3.5-.7.5-1.2s-.2-.9-.5-1.2c-.4-.3-.9-.4-1.6-.4h-2.4v7.8h-1.5v-8.9Z" style="fill:#ee304c; stroke-width:0px;"/><path d="M533.8,507.4c-.8.7-1.8,1-3.2,1s-2.5-.3-3.2-1c-.8-.7-1.1-1.6-1.1-2.8v-5.2h1.5v5.2c0,.9.2,1.5.7,2,.5.5,1.2.7,2.2.7s1.7-.2,2.2-.7c.5-.5.7-1.1.7-2v-5.2h1.5v5.2c0,1.2-.4,2.2-1.1,2.8Z" style="fill:#ee304c; stroke-width:0px;"/><path d="M537.9,499.3v8.9h-1.5v-8.9h1.5Z" style="fill:#ee304c; stroke-width:0px;"/><path d="M542.1,500.5h-3.1v-1.2h7.8v1.2h-3.2v7.7h-1.5v-7.7Z" style="fill:#ee304c; stroke-width:0px;"/><path d="M54.5,237.8h-5.3v-1.4c-.1,0,5.1-7,5.1-7h2.2v6.8h1.7v1.6h-1.7v2.3h-1.9v-2.3ZM54.5,236.2v-4.4l-3.3,4.4h3.3Z" style="fill:#fff; stroke-width:0px;"/><path d="M59.9,238.3h1.8l-1.4,3.2h-1.4l.9-3.2Z" style="fill:#fff; stroke-width:0px;"/><path d="M67.5,240.3c-1,0-1.8-.2-2.5-.7s-1.2-1.2-1.5-2c-.3-.8-.5-1.8-.5-2.8s.2-2,.5-2.8c.4-.8.9-1.5,1.6-2,.7-.5,1.5-.7,2.4-.7s1.9.3,2.6.8c.7.5,1.2,1.2,1.5,2,.3.8.5,1.8.5,2.8s-.2,2-.5,2.8c-.3.8-.9,1.5-1.5,2-.7.5-1.5.7-2.5.7ZM67.5,238.5c.5,0,1-.2,1.4-.5.4-.3.7-.8.9-1.3s.3-1.2.3-2-.1-1.4-.3-1.9-.5-1-.9-1.3c-.4-.3-.9-.5-1.4-.5s-1,.2-1.4.5c-.4.3-.7.8-.9,1.3-.2.6-.3,1.2-.3,2s.1,1.4.3,1.9c.2.6.5,1,.9,1.3.4.3.9.5,1.4.5Z" style="fill:#fff; stroke-width:0px;"/><path d="M77.6,240.3c-1,0-1.8-.2-2.5-.7s-1.2-1.2-1.5-2c-.3-.8-.5-1.8-.5-2.8s.2-2,.5-2.8c.4-.8.9-1.5,1.6-2,.7-.5,1.5-.7,2.4-.7s1.9.3,2.6.8c.7.5,1.2,1.2,1.5,2,.3.8.5,1.8.5,2.8s-.2,2-.5,2.8c-.3.8-.9,1.5-1.5,2-.7.5-1.5.7-2.5.7ZM77.6,238.5c.5,0,1-.2,1.4-.5.4-.3.7-.8.9-1.3s.3-1.2.3-2-.1-1.4-.3-1.9-.5-1-.9-1.3c-.4-.3-.9-.5-1.4-.5s-1,.2-1.4.5c-.4.3-.7.8-.9,1.3-.2.6-.3,1.2-.3,2s.1,1.4.3,1.9c.2.6.5,1,.9,1.3.4.3.9.5,1.4.5Z" style="fill:#fff; stroke-width:0px;"/><path d="M87.8,240.3c-1,0-1.8-.2-2.5-.7s-1.2-1.2-1.5-2c-.3-.8-.5-1.8-.5-2.8s.2-2,.5-2.8c.4-.8.9-1.5,1.6-2,.7-.5,1.5-.7,2.4-.7s1.9.3,2.6.8c.7.5,1.2,1.2,1.5,2,.3.8.5,1.8.5,2.8s-.2,2-.5,2.8c-.3.8-.9,1.5-1.5,2-.7.5-1.5.7-2.5.7ZM87.8,238.5c.5,0,1-.2,1.4-.5.4-.3.7-.8.9-1.3s.3-1.2.3-2-.1-1.4-.3-1.9-.5-1-.9-1.3c-.4-.3-.9-.5-1.4-.5s-1,.2-1.4.5c-.4.3-.7.8-.9,1.3-.2.6-.3,1.2-.3,2s.1,1.4.3,1.9c.2.6.5,1,.9,1.3.4.3.9.5,1.4.5Z" style="fill:#fff; stroke-width:0px;"/><path d="M98,229.4h1.9v10.6h-1.9v-10.6Z" style="fill:#fff; stroke-width:0px;"/><path d="M107.5,240.3c-1,0-2-.2-2.9-.7-.9-.5-1.6-1.2-2.1-2s-.8-1.8-.8-2.8.3-1.9.8-2.8c.5-.8,1.2-1.5,2.1-2,.9-.5,1.8-.7,2.9-.7s2,.2,2.9.7c.9.5,1.6,1.2,2.1,2,.5.8.8,1.8.8,2.8s-.3,1.9-.8,2.8-1.2,1.5-2.1,2c-.9.5-1.8.7-2.9.7ZM107.5,238.5c.7,0,1.3-.2,1.9-.5.6-.3,1-.8,1.4-1.3.3-.6.5-1.2.5-1.9s-.2-1.4-.5-1.9c-.3-.6-.8-1-1.4-1.4s-1.2-.5-1.9-.5-1.3.2-1.9.5-1,.8-1.4,1.4c-.3.6-.5,1.2-.5,1.9s.2,1.3.5,1.9.8,1,1.4,1.3,1.2.5,1.9.5ZM109.1,239.5l1.7-.8,1.9,2.7-1.8,1-1.8-2.9Z" style="fill:#fff; stroke-width:0px;"/><path d="M115.1,229.4h4.1c1.1,0,2.1.2,3,.7.9.4,1.5,1.1,2,1.9.5.8.7,1.7.7,2.8s-.2,2-.7,2.8-1.1,1.4-2,1.9c-.9.4-1.8.7-2.9.7h-4.1v-10.6ZM119.2,238.3c.8,0,1.4-.1,2-.4.6-.3,1-.7,1.3-1.2.3-.5.4-1.2.4-1.9s-.1-1.4-.4-1.9c-.3-.5-.7-1-1.3-1.3-.6-.3-1.2-.4-2-.4h-2.1v7.2h2.1Z" style="fill:#fff; stroke-width:0px;"/><path d="M54.5,317.1h-5.3v-1.4c-.1,0,5.1-7,5.1-7h2.2v6.8h1.7v1.6h-1.7v2.3h-1.9v-2.3ZM54.5,315.5v-4.4l-3.3,4.4h3.3Z" style="fill:#fff; stroke-width:0px;"/><path d="M59.9,317.6h1.8l-1.4,3.2h-1.4l.9-3.2Z" style="fill:#fff; stroke-width:0px;"/><path d="M67.5,319.6c-1,0-1.8-.2-2.5-.7s-1.2-1.2-1.5-2c-.3-.8-.5-1.8-.5-2.8s.2-2,.5-2.8c.4-.8.9-1.5,1.6-2,.7-.5,1.5-.7,2.4-.7s1.9.3,2.6.8c.7.5,1.2,1.2,1.5,2,.3.8.5,1.8.5,2.8s-.2,2-.5,2.8c-.3.8-.9,1.5-1.5,2-.7.5-1.5.7-2.5.7ZM67.5,317.8c.5,0,1-.2,1.4-.5.4-.3.7-.8.9-1.3s.3-1.2.3-2-.1-1.4-.3-1.9-.5-1-.9-1.3c-.4-.3-.9-.5-1.4-.5s-1,.2-1.4.5c-.4.3-.7.8-.9,1.3-.2.6-.3,1.2-.3,2s.1,1.4.3,1.9c.2.6.5,1,.9,1.3.4.3.9.5,1.4.5Z" style="fill:#fff; stroke-width:0px;"/><path d="M77.6,319.6c-1,0-1.8-.2-2.5-.7s-1.2-1.2-1.5-2c-.3-.8-.5-1.8-.5-2.8s.2-2,.5-2.8c.4-.8.9-1.5,1.6-2,.7-.5,1.5-.7,2.4-.7s1.9.3,2.6.8c.7.5,1.2,1.2,1.5,2,.3.8.5,1.8.5,2.8s-.2,2-.5,2.8c-.3.8-.9,1.5-1.5,2-.7.5-1.5.7-2.5.7ZM77.6,317.8c.5,0,1-.2,1.4-.5.4-.3.7-.8.9-1.3s.3-1.2.3-2-.1-1.4-.3-1.9-.5-1-.9-1.3c-.4-.3-.9-.5-1.4-.5s-1,.2-1.4.5c-.4.3-.7.8-.9,1.3-.2.6-.3,1.2-.3,2s.1,1.4.3,1.9c.2.6.5,1,.9,1.3.4.3.9.5,1.4.5Z" style="fill:#fff; stroke-width:0px;"/><path d="M87.8,319.6c-1,0-1.8-.2-2.5-.7s-1.2-1.2-1.5-2c-.3-.8-.5-1.8-.5-2.8s.2-2,.5-2.8c.4-.8.9-1.5,1.6-2,.7-.5,1.5-.7,2.4-.7s1.9.3,2.6.8c.7.5,1.2,1.2,1.5,2,.3.8.5,1.8.5,2.8s-.2,2-.5,2.8c-.3.8-.9,1.5-1.5,2-.7.5-1.5.7-2.5.7ZM87.8,317.8c.5,0,1-.2,1.4-.5.4-.3.7-.8.9-1.3s.3-1.2.3-2-.1-1.4-.3-1.9-.5-1-.9-1.3c-.4-.3-.9-.5-1.4-.5s-1,.2-1.4.5c-.4.3-.7.8-.9,1.3-.2.6-.3,1.2-.3,2s.1,1.4.3,1.9c.2.6.5,1,.9,1.3.4.3.9.5,1.4.5Z" style="fill:#fff; stroke-width:0px;"/><path d="M98,308.8h1.9v10.6h-1.9v-10.6Z" style="fill:#fff; stroke-width:0px;"/><path d="M107.5,319.6c-1,0-2-.2-2.9-.7-.9-.5-1.6-1.2-2.1-2s-.8-1.8-.8-2.8.3-1.9.8-2.8c.5-.8,1.2-1.5,2.1-2,.9-.5,1.8-.7,2.9-.7s2,.2,2.9.7c.9.5,1.6,1.2,2.1,2,.5.8.8,1.8.8,2.8s-.3,1.9-.8,2.8-1.2,1.5-2.1,2c-.9.5-1.8.7-2.9.7ZM107.5,317.8c.7,0,1.3-.2,1.9-.5.6-.3,1-.8,1.4-1.3.3-.6.5-1.2.5-1.9s-.2-1.4-.5-1.9c-.3-.6-.8-1-1.4-1.4s-1.2-.5-1.9-.5-1.3.2-1.9.5-1,.8-1.4,1.4c-.3.6-.5,1.2-.5,1.9s.2,1.3.5,1.9.8,1,1.4,1.3,1.2.5,1.9.5ZM109.1,318.8l1.7-.8,1.9,2.7-1.8,1-1.8-2.9Z" style="fill:#fff; stroke-width:0px;"/><path d="M115.1,308.8h4.1c1.1,0,2.1.2,3,.7.9.4,1.5,1.1,2,1.9.5.8.7,1.7.7,2.8s-.2,2-.7,2.8-1.1,1.4-2,1.9c-.9.4-1.8.7-2.9.7h-4.1v-10.6ZM119.2,317.6c.8,0,1.4-.1,2-.4.6-.3,1-.7,1.3-1.2.3-.5.4-1.2.4-1.9s-.1-1.4-.4-1.9c-.3-.5-.7-1-1.3-1.3-.6-.3-1.2-.4-2-.4h-2.1v7.2h2.1Z" style="fill:#fff; stroke-width:0px;"/><path d="M54.5,398.2h-5.3v-1.4c-.1,0,5.1-7,5.1-7h2.2v6.8h1.7v1.6h-1.7v2.3h-1.9v-2.3ZM54.5,396.6v-4.4l-3.3,4.4h3.3Z" style="fill:#fff; stroke-width:0px;"/><path d="M59.9,398.7h1.8l-1.4,3.2h-1.4l.9-3.2Z" style="fill:#fff; stroke-width:0px;"/><path d="M67.5,400.7c-1,0-1.8-.2-2.5-.7s-1.2-1.2-1.5-2c-.3-.8-.5-1.8-.5-2.8s.2-2,.5-2.8c.4-.8.9-1.5,1.6-2,.7-.5,1.5-.7,2.4-.7s1.9.3,2.6.8c.7.5,1.2,1.2,1.5,2,.3.8.5,1.8.5,2.8s-.2,2-.5,2.8c-.3.8-.9,1.5-1.5,2-.7.5-1.5.7-2.5.7ZM67.5,398.9c.5,0,1-.2,1.4-.5.4-.3.7-.8.9-1.3s.3-1.2.3-2-.1-1.4-.3-1.9-.5-1-.9-1.3c-.4-.3-.9-.5-1.4-.5s-1,.2-1.4.5c-.4.3-.7.8-.9,1.3-.2.6-.3,1.2-.3,2s.1,1.4.3,1.9c.2.6.5,1,.9,1.3.4.3.9.5,1.4.5Z" style="fill:#fff; stroke-width:0px;"/><path d="M77.6,400.7c-1,0-1.8-.2-2.5-.7s-1.2-1.2-1.5-2c-.3-.8-.5-1.8-.5-2.8s.2-2,.5-2.8c.4-.8.9-1.5,1.6-2,.7-.5,1.5-.7,2.4-.7s1.9.3,2.6.8c.7.5,1.2,1.2,1.5,2,.3.8.5,1.8.5,2.8s-.2,2-.5,2.8c-.3.8-.9,1.5-1.5,2-.7.5-1.5.7-2.5.7ZM77.6,398.9c.5,0,1-.2,1.4-.5.4-.3.7-.8.9-1.3s.3-1.2.3-2-.1-1.4-.3-1.9-.5-1-.9-1.3c-.4-.3-.9-.5-1.4-.5s-1,.2-1.4.5c-.4.3-.7.8-.9,1.3-.2.6-.3,1.2-.3,2s.1,1.4.3,1.9c.2.6.5,1,.9,1.3.4.3.9.5,1.4.5Z" style="fill:#fff; stroke-width:0px;"/><path d="M87.8,400.7c-1,0-1.8-.2-2.5-.7s-1.2-1.2-1.5-2c-.3-.8-.5-1.8-.5-2.8s.2-2,.5-2.8c.4-.8.9-1.5,1.6-2,.7-.5,1.5-.7,2.4-.7s1.9.3,2.6.8c.7.5,1.2,1.2,1.5,2,.3.8.5,1.8.5,2.8s-.2,2-.5,2.8c-.3.8-.9,1.5-1.5,2-.7.5-1.5.7-2.5.7ZM87.8,398.9c.5,0,1-.2,1.4-.5.4-.3.7-.8.9-1.3s.3-1.2.3-2-.1-1.4-.3-1.9-.5-1-.9-1.3c-.4-.3-.9-.5-1.4-.5s-1,.2-1.4.5c-.4.3-.7.8-.9,1.3-.2.6-.3,1.2-.3,2s.1,1.4.3,1.9c.2.6.5,1,.9,1.3.4.3.9.5,1.4.5Z" style="fill:#fff; stroke-width:0px;"/><path d="M98,389.8h1.9v10.6h-1.9v-10.6Z" style="fill:#fff; stroke-width:0px;"/><path d="M107.5,400.7c-1,0-2-.2-2.9-.7-.9-.5-1.6-1.2-2.1-2s-.8-1.8-.8-2.8.3-1.9.8-2.8c.5-.8,1.2-1.5,2.1-2,.9-.5,1.8-.7,2.9-.7s2,.2,2.9.7c.9.5,1.6,1.2,2.1,2,.5.8.8,1.8.8,2.8s-.3,1.9-.8,2.8-1.2,1.5-2.1,2c-.9.5-1.8.7-2.9.7ZM107.5,398.9c.7,0,1.3-.2,1.9-.5.6-.3,1-.8,1.4-1.3.3-.6.5-1.2.5-1.9s-.2-1.4-.5-1.9c-.3-.6-.8-1-1.4-1.4s-1.2-.5-1.9-.5-1.3.2-1.9.5-1,.8-1.4,1.4c-.3.6-.5,1.2-.5,1.9s.2,1.3.5,1.9.8,1,1.4,1.3,1.2.5,1.9.5ZM109.1,399.9l1.7-.8,1.9,2.7-1.8,1-1.8-2.9Z" style="fill:#fff; stroke-width:0px;"/><path d="M115.1,389.8h4.1c1.1,0,2.1.2,3,.7.9.4,1.5,1.1,2,1.9.5.8.7,1.7.7,2.8s-.2,2-.7,2.8-1.1,1.4-2,1.9c-.9.4-1.8.7-2.9.7h-4.1v-10.6ZM119.2,398.7c.8,0,1.4-.1,2-.4.6-.3,1-.7,1.3-1.2.3-.5.4-1.2.4-1.9s-.1-1.4-.4-1.9c-.3-.5-.7-1-1.3-1.3-.6-.3-1.2-.4-2-.4h-2.1v7.2h2.1Z" style="fill:#fff; stroke-width:0px;"/><path d="M54.5,481.2h-5.3v-1.4c-.1,0,5.1-7,5.1-7h2.2v6.8h1.7v1.6h-1.7v2.3h-1.9v-2.3ZM54.5,479.6v-4.4l-3.3,4.4h3.3Z" style="fill:#fff; stroke-width:0px;"/><path d="M59.9,481.7h1.8l-1.4,3.2h-1.4l.9-3.2Z" style="fill:#fff; stroke-width:0px;"/><path d="M67.5,483.7c-1,0-1.8-.2-2.5-.7s-1.2-1.2-1.5-2-.5-1.8-.5-2.8.2-2,.5-2.8.9-1.5,1.6-2,1.5-.7,2.4-.7,1.9.3,2.6.8,1.2,1.2,1.5,2,.5,1.8.5,2.8-.2,2-.5,2.8-.9,1.5-1.5,2-1.5.7-2.5.7ZM67.5,481.9c.5,0,1-.2,1.4-.5s.7-.8.9-1.3.3-1.2.3-2-.1-1.4-.3-1.9-.5-1-.9-1.3-.9-.5-1.4-.5-1,.2-1.4.5-.7.8-.9,1.3-.3,1.2-.3,2,.1,1.4.3,1.9.5,1,.9,1.3.9.5,1.4.5Z" style="fill:#fff; stroke-width:0px;"/><path d="M77.6,483.7c-1,0-1.8-.2-2.5-.7s-1.2-1.2-1.5-2-.5-1.8-.5-2.8.2-2,.5-2.8.9-1.5,1.6-2,1.5-.7,2.4-.7,1.9.3,2.6.8,1.2,1.2,1.5,2,.5,1.8.5,2.8-.2,2-.5,2.8-.9,1.5-1.5,2-1.5.7-2.5.7ZM77.6,481.9c.5,0,1-.2,1.4-.5s.7-.8.9-1.3.3-1.2.3-2-.1-1.4-.3-1.9-.5-1-.9-1.3-.9-.5-1.4-.5-1,.2-1.4.5-.7.8-.9,1.3-.3,1.2-.3,2,.1,1.4.3,1.9.5,1,.9,1.3.9.5,1.4.5Z" style="fill:#fff; stroke-width:0px;"/><path d="M87.8,483.7c-1,0-1.8-.2-2.5-.7s-1.2-1.2-1.5-2-.5-1.8-.5-2.8.2-2,.5-2.8.9-1.5,1.6-2,1.5-.7,2.4-.7,1.9.3,2.6.8,1.2,1.2,1.5,2,.5,1.8.5,2.8-.2,2-.5,2.8-.9,1.5-1.5,2-1.5.7-2.5.7ZM87.8,481.9c.5,0,1-.2,1.4-.5s.7-.8.9-1.3.3-1.2.3-2-.1-1.4-.3-1.9-.5-1-.9-1.3-.9-.5-1.4-.5-1,.2-1.4.5-.7.8-.9,1.3-.3,1.2-.3,2,.1,1.4.3,1.9.5,1,.9,1.3.9.5,1.4.5Z" style="fill:#fff; stroke-width:0px;"/><path d="M98,472.9h1.9v10.6h-1.9v-10.6Z" style="fill:#fff; stroke-width:0px;"/><path d="M107.5,483.7c-1,0-2-.2-2.9-.7s-1.6-1.2-2.1-2-.8-1.8-.8-2.8.3-1.9.8-2.8,1.2-1.5,2.1-2,1.8-.7,2.9-.7,2,.2,2.9.7,1.6,1.2,2.1,2,.8,1.8.8,2.8-.3,1.9-.8,2.8-1.2,1.5-2.1,2-1.8.7-2.9.7ZM107.5,481.9c.7,0,1.3-.2,1.9-.5s1-.8,1.4-1.3.5-1.2.5-1.9-.2-1.4-.5-1.9-.8-1-1.4-1.4-1.2-.5-1.9-.5-1.3.2-1.9.5-1,.8-1.4,1.4-.5,1.2-.5,1.9.2,1.3.5,1.9.8,1,1.4,1.3,1.2.5,1.9.5ZM109.1,482.9l1.7-.8,1.9,2.7-1.8,1-1.8-2.9Z" style="fill:#fff; stroke-width:0px;"/><path d="M115.1,472.9h4.1c1.1,0,2.1.2,3,.7s1.5,1.1,2,1.9.7,1.7.7,2.8-.2,2-.7,2.8-1.1,1.4-2,1.9-1.8.7-2.9.7h-4.1v-10.6ZM119.2,481.8c.8,0,1.4-.1,2-.4s1-.7,1.3-1.2.4-1.2.4-1.9-.1-1.4-.4-1.9-.7-1-1.3-1.3-1.2-.4-2-.4h-2.1v7.2h2.1Z" style="fill:#fff; stroke-width:0px;"/><rect x="163.9" y="234.4" width="245.1" height=".8" style="fill:#fff; stroke-width:0px;"/><rect x="163.9" y="314.8" width="245.1" height=".8" style="fill:#fff; stroke-width:0px;"/><rect x="163.9" y="396.5" width="245.1" height=".8" style="fill:#fff; stroke-width:0px;"/><rect x="163.9" y="477.2" width="245.1" height=".8" style="fill:#fff; stroke-width:0px;"/><path d="M466.1,554.5v2.6c0,.1,0,.2-.2.2h-4.9v-6h-1c-1,0-1.5.6-1.5,1.8v2.7c0,3.5-1.6,5.4-5.6,5.4s-5.5-1.6-5.5-4.9.3-2.6.8-4.3l2.3.6c-.3,1-.5,1.9-.5,2.8,0,1.8,1,2.7,2.9,2.7s2.8-.8,2.8-2.8v-3c0-2.5,1.3-4.1,3.8-4.1h2.8l1.7,1.5v4.5h2c.1,0,.2,0,.2.2ZM455.7,562l1.9,1.9-1.9,1.9-1.3-1.3-1.3,1.3-1.9-1.9,1.9-1.9,1.3,1.3,1.3-1.3Z" style="fill:#fff; stroke-width:0px;"/><path d="M469.7,554.5v2.6c0,.1,0,.2-.2.2h-3.5c-.1,0-.2,0-.2-.2v-2.6c0-.1,0-.2.2-.2h3.5c.1,0,.2,0,.2.2Z" style="fill:#fff; stroke-width:0px;"/><path d="M473.2,554.5v2.6c0,.1,0,.2-.2.2h-3.5c-.1,0-.2,0-.2-.2v-2.6c0-.1,0-.2.2-.2h3.5c.1,0,.2,0,.2.2Z" style="fill:#fff; stroke-width:0px;"/><path d="M485,554.5v2.6c0,.1,0,.2-.2.2-1.1,0-2-.4-2.8-1.1-.8.7-1.9,1.1-3.3,1.1h-5.7c-.1,0-.2,0-.2-.2v-2.6c0-.1,0-.2.2-.2h5.7c1,0,1.6-.5,1.6-1.3s-.6-1.3-1.6-1.3h-4.1l-1.5-2.6,5.2-6.4,2.5,1.4-4.8,5h2.5c2.8,0,4.6,1.5,4.6,3.9s0,.6,0,.9c.5.3,1,.4,1.7.4s.2,0,.2.2Z" style="fill:#fff; stroke-width:0px;"/><path d="M488.5,554.5v2.6c0,.1,0,.2-.2.2h-3.5c-.1,0-.2,0-.2-.2v-2.6c0-.1,0-.2.2-.2h3.5c.1,0,.2,0,.2.2Z" style="fill:#fff; stroke-width:0px;"/><path d="M492.1,554.5v2.6c0,.1,0,.2-.2.2h-3.5c-.1,0-.2,0-.2-.2v-2.6c0-.1,0-.2.2-.2h3.5c.1,0,.2,0,.2.2Z" style="fill:#fff; stroke-width:0px;"/><path d="M495.6,554.5v2.6c0,.1,0,.2-.2.2h-3.5c-.1,0-.2,0-.2-.2v-2.6c0-.1,0-.2.2-.2h3.5c.1,0,.2,0,.2.2Z" style="fill:#fff; stroke-width:0px;"/><path d="M499.2,554.5v2.6c0,.1,0,.2-.2.2h-3.5c-.1,0-.2,0-.2-.2v-2.6c0-.1,0-.2.2-.2h3.5c.1,0,.2,0,.2.2Z" style="fill:#fff; stroke-width:0px;"/><path d="M506.2,554.5v2.6c0,.1,0,.2-.2.2-1,0-2-.5-2.9-1.4-.8.9-2.3,1.4-4.2,1.4s-.2,0-.2-.2v-2.6c0-.1.1-.2.2-.2,1.4,0,2.2-.5,2.2-1.9v-2.2s2.8-.3,2.8-.3v3.8c.6.4,1.3.6,2,.6s.2,0,.2.2ZM503.8,558.3l1.9,1.9-1.9,1.9-1.3-1.3-1.3,1.3-1.9-1.9,1.9-1.9,1.3,1.3,1.3-1.3Z" style="fill:#fff; stroke-width:0px;"/><path d="M523.6,554.5v2.6c0,.1,0,.2-.2.2-1,0-1.8-.3-2.6-.9-.6.6-1.6.9-2.8.9s-2-.3-3-1c-.7.6-1.7,1-2.9,1s-1.8-.3-2.7-1.1c-.7.7-1.8,1.1-3.3,1.1s-.2,0-.2-.2v-2.6c0-.1,0-.2.2-.2,1,0,1.5-.6,1.5-1.9v-2.2s2.8-.3,2.8-.3v3.6c0,.2,0,.4,0,.5.5.2.9.3,1.4.3,1,0,1.5-.6,1.5-1.9v-2.2s2.8-.3,2.8-.3v3.6c0,.2,0,.4,0,.6.5.1.9.2,1.4.2,1,0,1.5-.6,1.5-1.9v-4.1l2.8-.3v5.4c0,.2,0,.3,0,.5.4.2.9.3,1.6.3s.2,0,.2.2Z" style="fill:#fff; stroke-width:0px;"/><path d="M535.4,554.5v2.6c0,.1,0,.2-.2.2-1.1,0-2-.4-2.8-1.1-.8.7-1.9,1.1-3.3,1.1h-5.7c-.1,0-.2,0-.2-.2v-2.6c0-.1,0-.2.2-.2h5.7c1,0,1.6-.5,1.6-1.3s-.6-1.3-1.6-1.3h-4.1l-1.5-2.6,5.2-6.4,2.5,1.4-4.8,5h2.5c2.8,0,4.6,1.5,4.6,3.9s0,.6,0,.9c.5.3,1,.4,1.7.4s.2,0,.2.2Z" style="fill:#fff; stroke-width:0px;"/><path d="M544.6,552.3c0,3-2,5-5.2,5h-4.2c-.1,0-.2,0-.2-.2v-2.6c0-.1,0-.2.2-.2h1.1c-.3-.7-.5-1.4-.5-2.1,0-2.5,1.9-4.3,4.3-4.3s4.5,1.9,4.5,4.4ZM541.7,552.3c0-1-.7-1.7-1.7-1.7s-1.8.8-1.8,1.8.2,1.2.5,1.9h.6c1.5,0,2.4-.8,2.4-2Z" style="fill:#fff; stroke-width:0px;"/><path d="M475.5,576.6h0v9.1h-1.5v-9.5h2.9l3.2,9.3h0l3.1-9.3h2.9v9.5h-1.5v-9.1h0l-3.1,9.1h-2.6l-3.2-9.1Z" style="fill:#ee304c; stroke-width:0px;"/><path d="M495.5,576.2v1.3h-6v2.9h4.9v1.1h-4.9v3h6.2v1.3h-7.7v-9.5h7.5Z" style="fill:#ee304c; stroke-width:0px;"/><path d="M501.4,580.9l-3.4,4.8h-1.8l3.6-4.9-3.4-4.6h1.8l3.2,4.5,3.2-4.5h1.8l-3.4,4.6,3.6,4.9h-1.8l-3.4-4.8Z" style="fill:#ee304c; stroke-width:0px;"/><path d="M509.1,576.2v9.5h-1.6v-9.5h1.6Z" style="fill:#ee304c; stroke-width:0px;"/><path d="M513.3,583.6c.7.6,1.6,1,2.9,1s1.1,0,1.7-.2c.6-.1,1.1-.3,1.6-.6v1.4c-.4.2-.9.4-1.5.5-.6.1-1.1.2-1.7.2-1.8,0-3.1-.4-4.1-1.3-1-.9-1.5-2.1-1.5-3.6s.5-2.8,1.5-3.7c1-.9,2.3-1.3,4.1-1.3s1.1,0,1.7.2c.6.1,1.1.3,1.6.5v1.4c-.6-.2-1.1-.4-1.7-.5s-1.1-.2-1.7-.2c-1.2,0-2.2.3-2.9,1-.7.6-1,1.5-1,2.7s.3,2,1,2.7Z" style="fill:#ee304c; stroke-width:0px;"/><path d="M523.8,576.2h3l3.9,9.5h-1.7l-.9-2.3h-5.5l-.9,2.3h-1.7l3.9-9.5ZM527.7,582.3l-2.3-5.9h0l-2.3,5.9h4.7Z" style="fill:#ee304c; stroke-width:0px;"/><path d="M534.7,576.2l4.9,9.3h0v-9.3h1.5v9.5h-3.1l-5-9.4h0v9.4h-1.5v-9.5h3.1Z" style="fill:#ee304c; stroke-width:0px;"/><path d="M54.5,557.9h-5.3v-1.4c-.1,0,5.1-7,5.1-7h2.2v6.8h1.7v1.6h-1.7v2.3h-1.9v-2.3ZM54.5,556.4v-4.4l-3.3,4.4h3.3Z" style="fill:#fff; stroke-width:0px;"/><path d="M59.9,558.5h1.8l-1.4,3.2h-1.4l.9-3.2Z" style="fill:#fff; stroke-width:0px;"/><path d="M67.5,560.5c-1,0-1.8-.2-2.5-.7s-1.2-1.2-1.5-2-.5-1.8-.5-2.8.2-2,.5-2.8.9-1.5,1.6-2,1.5-.7,2.4-.7,1.9.3,2.6.8,1.2,1.2,1.5,2,.5,1.8.5,2.8-.2,2-.5,2.8-.9,1.5-1.5,2-1.5.7-2.5.7ZM67.5,558.7c.5,0,1-.2,1.4-.5s.7-.8.9-1.3.3-1.2.3-2-.1-1.4-.3-1.9-.5-1-.9-1.3-.9-.5-1.4-.5-1,.2-1.4.5-.7.8-.9,1.3-.3,1.2-.3,2,.1,1.4.3,1.9.5,1,.9,1.3.9.5,1.4.5Z" style="fill:#fff; stroke-width:0px;"/><path d="M77.6,560.5c-1,0-1.8-.2-2.5-.7s-1.2-1.2-1.5-2-.5-1.8-.5-2.8.2-2,.5-2.8.9-1.5,1.6-2,1.5-.7,2.4-.7,1.9.3,2.6.8,1.2,1.2,1.5,2,.5,1.8.5,2.8-.2,2-.5,2.8-.9,1.5-1.5,2-1.5.7-2.5.7ZM77.6,558.7c.5,0,1-.2,1.4-.5s.7-.8.9-1.3.3-1.2.3-2-.1-1.4-.3-1.9-.5-1-.9-1.3-.9-.5-1.4-.5-1,.2-1.4.5-.7.8-.9,1.3-.3,1.2-.3,2,.1,1.4.3,1.9.5,1,.9,1.3.9.5,1.4.5Z" style="fill:#fff; stroke-width:0px;"/><path d="M87.8,560.5c-1,0-1.8-.2-2.5-.7s-1.2-1.2-1.5-2-.5-1.8-.5-2.8.2-2,.5-2.8.9-1.5,1.6-2,1.5-.7,2.4-.7,1.9.3,2.6.8,1.2,1.2,1.5,2,.5,1.8.5,2.8-.2,2-.5,2.8-.9,1.5-1.5,2-1.5.7-2.5.7ZM87.8,558.7c.5,0,1-.2,1.4-.5s.7-.8.9-1.3.3-1.2.3-2-.1-1.4-.3-1.9-.5-1-.9-1.3-.9-.5-1.4-.5-1,.2-1.4.5-.7.8-.9,1.3-.3,1.2-.3,2,.1,1.4.3,1.9.5,1,.9,1.3.9.5,1.4.5Z" style="fill:#fff; stroke-width:0px;"/><path d="M98,549.6h1.9v10.6h-1.9v-10.6Z" style="fill:#fff; stroke-width:0px;"/><path d="M107.5,560.4c-1,0-2-.2-2.9-.7s-1.6-1.2-2.1-2-.8-1.8-.8-2.8.3-1.9.8-2.8,1.2-1.5,2.1-2,1.8-.7,2.9-.7,2,.2,2.9.7,1.6,1.2,2.1,2,.8,1.8.8,2.8-.3,1.9-.8,2.8-1.2,1.5-2.1,2-1.8.7-2.9.7ZM107.5,558.7c.7,0,1.3-.2,1.9-.5s1-.8,1.4-1.3.5-1.2.5-1.9-.2-1.4-.5-1.9-.8-1-1.4-1.4-1.2-.5-1.9-.5-1.3.2-1.9.5-1,.8-1.4,1.4-.5,1.2-.5,1.9.2,1.3.5,1.9.8,1,1.4,1.3,1.2.5,1.9.5ZM109.1,559.7l1.7-.8,1.9,2.7-1.8,1-1.8-2.9Z" style="fill:#fff; stroke-width:0px;"/><path d="M115.1,549.6h4.1c1.1,0,2.1.2,3,.7s1.5,1.1,2,1.9.7,1.7.7,2.8-.2,2-.7,2.8-1.1,1.4-2,1.9-1.8.7-2.9.7h-4.1v-10.6ZM119.2,558.5c.8,0,1.4-.1,2-.4s1-.7,1.3-1.2.4-1.2.4-1.9-.1-1.4-.4-1.9-.7-1-1.3-1.3-1.2-.4-2-.4h-2.1v7.2h2.1Z" style="fill:#fff; stroke-width:0px;"/><rect x="163.9" y="553.9" width="245.1" height=".8" style="fill:#fff; stroke-width:0px;"/><rect x="44.9" y="101.4" width="246.2" height="54" style="fill:#ee304c; stroke-width:0px;"/><path d="M93.1,120.2v4h-10.6v3.2h8.1v3.4h-8.1v3.3h10.9v4h-15.8v-18h15.5Z" style="fill:#fff; stroke-width:0px;"/><path d="M104.8,120.2l5.7,17.6h.1v-17.6h4.8v18h-9.7l-5.8-17.7h-.1v17.7h-4.8v-18h9.7Z" style="fill:#fff; stroke-width:0px;"/><path d="M133.7,120.2v4h-10.6v3.2h8.1v3.4h-8.1v3.3h10.9v4h-15.8v-18h15.5Z" style="fill:#fff; stroke-width:0px;"/><path d="M135.7,120.2h8.8c1.7,0,3.1.2,4.4.7,1.2.5,2.2,1.2,2.9,2.1.7.9,1,2,1,3.2s-.4,2.5-1.2,3.4c-.8.9-1.9,1.6-3.3,2.1l5.1,6.4h-5.5l-7.2-9.1v9.1h-4.9v-18ZM144.5,129c.9,0,1.7-.2,2.2-.7s.8-1.1.8-1.9-.3-1.5-.8-1.9c-.6-.5-1.3-.7-2.2-.7h-3.8v5.2h3.8Z" style="fill:#fff; stroke-width:0px;"/><path d="M160.6,133.1c.7.9,1.8,1.3,3.1,1.3s2-.3,2.6-.8c.7-.5,1.1-1.2,1.2-2.1h-3.4v-3.5h8.6v10h-2.9l-1.7-6.5h0c0,2.2-.6,3.9-1.6,5.1-1.1,1.2-2.6,1.8-4.6,1.8s-2.8-.4-3.9-1.1c-1.1-.7-2-1.8-2.6-3.1-.6-1.4-.9-3-.9-4.8,0-3.1,1-5.5,2.9-7.2s4.7-2.5,8.3-2.5,2.2.1,3.4.3c1.2.2,2.2.5,3.1.9l-.3,4.3c-.9-.4-1.8-.7-2.9-1s-2.2-.4-3.4-.4c-1.9,0-3.4.5-4.4,1.4-1,.9-1.5,2.3-1.5,4.1s.4,2.8,1.1,3.7Z" style="fill:#fff; stroke-width:0px;"/><path d="M183.9,131.8h-4.6l-5.8-11.6h5.5l5.1,11h.2l5.2-11h5.5l-9.1,18h-4.9l3-6.3Z" style="fill:#fff; stroke-width:0px;"/><path d="M206.3,121.4h-.1v16.8h-4.9v-18h9.2l3.3,17.6h.1l3.3-17.6h9.2v18h-4.9v-16.8h-.1l-3.3,16.8h-8.4l-3.3-16.8Z" style="fill:#fff; stroke-width:0px;"/><path d="M233.9,120.2v18h-4.9v-18h4.9Z" style="fill:#fff; stroke-width:0px;"/><path d="M246.3,129.1l-5.2,9h-5.7l6-9.2-5.7-8.7h5.7l4.9,8.6,4.9-8.6h5.7l-5.7,8.7,6,9.2h-5.7l-5.2-9Z" style="fill:#fff; stroke-width:0px;"/><polygon points="173.6 99.2 188.8 113.8 183.1 90.2 173.6 99.2" style="fill:#171a23; stroke-width:0px;"/><polygon points="492.8 99.2 477.6 113.8 483.3 90.2 492.8 99.2" style="fill:#171a23; stroke-width:0px;"/><polygon points="354.7 158.3 339.5 143.6 345.2 167.2 354.7 158.3" style="fill:#171a23; stroke-width:0px;"/><path d="M460.4,621.3v11.8c0,3.5-2,5.6-5.6,5.6s-5.5-1.6-5.5-4.9.3-2.6.8-4.3l2.3.6c-.3,1-.5,1.9-.5,2.8,0,1.8,1,2.7,2.9,2.7s2.8-1,2.8-3v-11l2.8-.3Z" style="fill:#fff; stroke-width:0px;"/><path d="M471.8,632v2.6c0,.1,0,.2-.2.2h-.9c-.3,2.8-3.2,3.9-7.5,3.9l-.3-2.3c3.1,0,4.6-.4,4.9-1.6h-1.5c-2.6,0-4.3-1.8-4.3-4.5s2-4.7,4.5-4.7,4.3,1.7,4.3,4.6v1.7h.9c.1,0,.2,0,.2.2ZM466.5,632c.4,0,.9,0,1.4,0v-1.6c0-1.2-.7-1.9-1.7-1.9s-1.7.7-1.7,1.7.9,1.8,2,1.8Z" style="fill:#fff; stroke-width:0px;"/><path d="M475.3,632v2.6c0,.1,0,.2-.2.2h-3.5c-.1,0-.2,0-.2-.2v-2.6c0-.1,0-.2.2-.2h3.5c.1,0,.2,0,.2.2Z" style="fill:#fff; stroke-width:0px;"/><path d="M478.9,632v2.6c0,.1,0,.2-.2.2h-3.5c-.1,0-.2,0-.2-.2v-2.6c0-.1,0-.2.2-.2h3.5c.1,0,.2,0,.2.2Z" style="fill:#fff; stroke-width:0px;"/><path d="M482.4,632v2.6c0,.1,0,.2-.2.2h-3.5c-.1,0-.2,0-.2-.2v-2.6c0-.1,0-.2.2-.2h3.5c.1,0,.2,0,.2.2Z" style="fill:#fff; stroke-width:0px;"/><path d="M485.9,632v2.6c0,.1,0,.2-.2.2h-3.5c-.1,0-.2,0-.2-.2v-2.6c0-.1,0-.2.2-.2h3.5c.1,0,.2,0,.2.2Z" style="fill:#fff; stroke-width:0px;"/><path d="M489.5,632v2.6c0,.1,0,.2-.2.2h-3.5c-.1,0-.2,0-.2-.2v-2.6c0-.1,0-.2.2-.2h3.5c.1,0,.2,0,.2.2Z" style="fill:#fff; stroke-width:0px;"/><path d="M493,632v2.6c0,.1,0,.2-.2.2h-3.5c-.1,0-.2,0-.2-.2v-2.6c0-.1,0-.2.2-.2h3.5c.1,0,.2,0,.2.2Z" style="fill:#fff; stroke-width:0px;"/><path d="M492.7,634.6v-2.6c0-.1.1-.2.2-.2,1,0,1.5-.6,1.5-1.9v-4s2.8-.3,2.8-.3v5.4c0,2.5-1.4,3.8-4.4,3.8s-.2,0-.2-.2ZM493.1,637.7l1.9-1.9,1.9,1.9-1.9,1.9-1.9-1.9Z" style="fill:#fff; stroke-width:0px;"/><path d="M513,632v2.6c0,.1,0,.2-.2.2-1.1,0-2-.4-2.7-1.1-.7.7-1.9,1.1-3.4,1.1h-4.1l-.4-3h4.6c1,0,1.5-.6,1.5-1.4v-.6c0-1-.8-1.6-2-1.6h-1.2v-2.9h1.9c2.5,0,4.2,1.5,4.2,4.3v1.4c0,.1,0,.3,0,.4.5.3,1,.4,1.8.4s.2,0,.2.2Z" style="fill:#fff; stroke-width:0px;"/><path d="M516.5,632v2.6c0,.1,0,.2-.2.2h-3.5c-.1,0-.2,0-.2-.2v-2.6c0-.1,0-.2.2-.2h3.5c.1,0,.2,0,.2.2Z" style="fill:#fff; stroke-width:0px;"/><path d="M520.1,632v2.6c0,.1,0,.2-.2.2h-3.5c-.1,0-.2,0-.2-.2v-2.6c0-.1,0-.2.2-.2h3.5c.1,0,.2,0,.2.2Z" style="fill:#fff; stroke-width:0px;"/><path d="M523.6,632v2.6c0,.1,0,.2-.2.2h-3.5c-.1,0-.2,0-.2-.2v-2.6c0-.1,0-.2.2-.2h3.5c.1,0,.2,0,.2.2Z" style="fill:#fff; stroke-width:0px;"/><path d="M527.2,632v2.6c0,.1,0,.2-.2.2h-3.5c-.1,0-.2,0-.2-.2v-2.6c0-.1,0-.2.2-.2h3.5c.1,0,.2,0,.2.2Z" style="fill:#fff; stroke-width:0px;"/><path d="M530.7,632v2.6c0,.1,0,.2-.2.2h-3.5c-.1,0-.2,0-.2-.2v-2.6c0-.1,0-.2.2-.2h3.5c.1,0,.2,0,.2.2Z" style="fill:#fff; stroke-width:0px;"/><path d="M534.8,639.5l-1.3-1.3-1.3,1.3-1.9-1.9,1.9-1.9,1.3,1.3,1.3-1.3,1.9,1.9-1.9,1.9ZM530.3,634.6v-2.6c0-.1.1-.2.2-.2h1.5c1,0,1.5-.6,1.5-1.9v-4s2.8-.3,2.8-.3v5.4c0,2.5-1.4,3.8-4.4,3.8h-1.5c-.1,0-.2,0-.2-.2Z" style="fill:#fff; stroke-width:0px;"/><path d="M537,636.4c1.5,0,2.6-.6,2.6-2.2v-8.4s2.8-.3,2.8-.3v8.8c0,3.2-1.7,4.3-5.2,4.3l-.2-2.3Z" style="fill:#fff; stroke-width:0px;"/><path d="M472.1,653h4.3c1.3,0,2.3.3,3,.8.7.5,1.1,1.3,1.1,2.2s-.3,1.6-.9,2.1c-.6.5-1.5.8-2.6.9l3.8,3.9h-1.8l-4.8-5h2.3c.8,0,1.4-.2,1.8-.5.4-.3.6-.8.6-1.4s-.2-1.1-.6-1.4c-.4-.3-1-.5-1.8-.5h-2.7v8.7h-1.6v-9.9Z" style="fill:#ee304c; stroke-width:0px;"/><path d="M489.8,653v1.3h-6.2v3h5.1v1.1h-5.1v3.1h6.4v1.3h-8.1v-9.9h7.9Z" style="fill:#ee304c; stroke-width:0px;"/><path d="M498.4,653.6c.9.4,1.5,1,2,1.7.5.7.7,1.6.7,2.6s-.2,1.9-.7,2.6c-.5.7-1.1,1.3-2,1.7-.9.4-1.9.6-3,.6h-4.2v-9.9h4.2c1.2,0,2.2.2,3,.6ZM495.4,661.6c.8,0,1.5-.1,2.1-.4.6-.3,1.1-.7,1.4-1.3s.5-1.2.5-1.9-.2-1.4-.5-1.9-.8-1-1.4-1.3c-.6-.3-1.3-.4-2.1-.4h-2.6v7.3h2.6Z" style="fill:#ee304c; stroke-width:0px;"/><path d="M505.5,653h4.4c1.2,0,2.2.2,2.8.6s1,1,1,1.8-.3,1.2-.8,1.6c-.6.4-1.3.6-2.4.7h0c1.2,0,2.1.3,2.8.7.7.4,1,1.1,1,1.9s-.4,1.5-1.1,2c-.7.5-1.7.7-3,.7h-4.7v-9.9ZM509.3,657.5c1.8,0,2.7-.5,2.7-1.6s-.2-.9-.6-1.2-1.1-.4-1.9-.4h-2.4v3.2h2.2ZM509.9,661.6c.9,0,1.6-.1,2-.4.5-.3.7-.7.7-1.2s-.2-1-.7-1.3-1.1-.4-1.9-.4h-2.8v3.4h2.8Z" style="fill:#ee304c; stroke-width:0px;"/><path d="M523.9,662c-.8.7-2.1,1.1-3.6,1.1s-2.8-.4-3.6-1.1c-.8-.7-1.3-1.8-1.3-3.2v-5.8h1.6v5.8c0,1,.3,1.7.8,2.2.6.5,1.4.8,2.4.8s1.9-.3,2.4-.8.8-1.3.8-2.2v-5.8h1.6v5.8c0,1.4-.4,2.4-1.3,3.2Z" style="fill:#ee304c; stroke-width:0px;"/><path d="M528.4,653v8.6h5.9v1.3h-7.5v-9.9h1.6Z" style="fill:#ee304c; stroke-width:0px;"/><path d="M537.1,653v8.6h5.9v1.3h-7.5v-9.9h1.6Z" style="fill:#ee304c; stroke-width:0px;"/><path d="M53.7,638c-.7,0-1.4-.1-2-.4s-1.1-.7-1.4-1.2c-.4-.6-.6-1.3-.6-2.2h1.9c0,.5.1.9.3,1.2s.5.5.8.7.6.2,1,.2.7,0,1-.2.5-.4.7-.7c.2-.3.3-.6.3-1s0-.7-.3-.9-.4-.5-.8-.7c-.3-.2-.7-.2-1.2-.2h-1.4v-1l2.2-2.8h0s-4.1,0-4.1,0v-1.6h6.4v1l-2.5,2.9h0c.7.1,1.3.3,1.8.5s.9.6,1.2,1.1c.3.5.4,1,.4,1.8s-.2,1.3-.5,1.8c-.3.6-.8,1-1.4,1.3-.6.3-1.3.5-2,.5Z" style="fill:#fff; stroke-width:0px;"/><path d="M59.6,636h1.8l-1.4,3.2h-1.4l.9-3.2Z" style="fill:#fff; stroke-width:0px;"/><path d="M67.1,638c-1,0-1.8-.2-2.5-.7s-1.2-1.2-1.5-2c-.3-.8-.5-1.8-.5-2.8s.2-2,.5-2.8c.4-.8.9-1.5,1.6-2,.7-.5,1.5-.7,2.4-.7s1.9.3,2.6.8c.7.5,1.2,1.2,1.5,2,.3.8.5,1.8.5,2.8s-.2,2-.5,2.8c-.3.8-.9,1.5-1.5,2-.7.5-1.5.7-2.5.7ZM67.1,636.2c.5,0,1-.2,1.4-.5.4-.3.7-.8.9-1.3s.3-1.2.3-2-.1-1.4-.3-1.9-.5-1-.9-1.3c-.4-.3-.9-.5-1.4-.5s-1,.2-1.4.5c-.4.3-.7.8-.9,1.3-.2.6-.3,1.2-.3,2s.1,1.4.3,1.9c.2.6.5,1,.9,1.3.4.3.9.5,1.4.5Z" style="fill:#fff; stroke-width:0px;"/><path d="M77.3,638c-1,0-1.8-.2-2.5-.7s-1.2-1.2-1.5-2c-.3-.8-.5-1.8-.5-2.8s.2-2,.5-2.8c.4-.8.9-1.5,1.6-2,.7-.5,1.5-.7,2.4-.7s1.9.3,2.6.8c.7.5,1.2,1.2,1.5,2,.3.8.5,1.8.5,2.8s-.2,2-.5,2.8c-.3.8-.9,1.5-1.5,2-.7.5-1.5.7-2.5.7ZM77.3,636.2c.5,0,1-.2,1.4-.5.4-.3.7-.8.9-1.3s.3-1.2.3-2-.1-1.4-.3-1.9-.5-1-.9-1.3c-.4-.3-.9-.5-1.4-.5s-1,.2-1.4.5c-.4.3-.7.8-.9,1.3-.2.6-.3,1.2-.3,2s.1,1.4.3,1.9c.2.6.5,1,.9,1.3.4.3.9.5,1.4.5Z" style="fill:#fff; stroke-width:0px;"/><path d="M87.4,638c-1,0-1.8-.2-2.5-.7s-1.2-1.2-1.5-2c-.3-.8-.5-1.8-.5-2.8s.2-2,.5-2.8c.4-.8.9-1.5,1.6-2,.7-.5,1.5-.7,2.4-.7s1.9.3,2.6.8c.7.5,1.2,1.2,1.5,2,.3.8.5,1.8.5,2.8s-.2,2-.5,2.8c-.3.8-.9,1.5-1.5,2-.7.5-1.5.7-2.5.7ZM87.4,636.2c.5,0,1-.2,1.4-.5.4-.3.7-.8.9-1.3s.3-1.2.3-2-.1-1.4-.3-1.9-.5-1-.9-1.3c-.4-.3-.9-.5-1.4-.5s-1,.2-1.4.5c-.4.3-.7.8-.9,1.3-.2.6-.3,1.2-.3,2s.1,1.4.3,1.9c.2.6.5,1,.9,1.3.4.3.9.5,1.4.5Z" style="fill:#fff; stroke-width:0px;"/><path d="M97.7,627.1h1.9v10.6h-1.9v-10.6Z" style="fill:#fff; stroke-width:0px;"/><path d="M107.1,637.9c-1,0-2-.2-2.9-.7-.9-.5-1.6-1.2-2.1-2s-.8-1.8-.8-2.8.3-1.9.8-2.8c.5-.8,1.2-1.5,2.1-2,.9-.5,1.8-.7,2.9-.7s2,.2,2.9.7c.9.5,1.6,1.2,2.1,2,.5.8.8,1.8.8,2.8s-.3,1.9-.8,2.8-1.2,1.5-2.1,2c-.9.5-1.8.7-2.9.7ZM107.1,636.2c.7,0,1.3-.2,1.9-.5.6-.3,1-.8,1.4-1.3.3-.6.5-1.2.5-1.9s-.2-1.3-.5-1.9c-.3-.6-.8-1-1.4-1.4s-1.2-.5-1.9-.5-1.3.2-1.9.5-1,.8-1.4,1.4c-.3.6-.5,1.2-.5,1.9s.2,1.3.5,1.9.8,1,1.4,1.3,1.2.5,1.9.5ZM108.8,637.2l1.7-.8,1.9,2.7-1.8,1-1.8-2.9Z" style="fill:#fff; stroke-width:0px;"/><path d="M114.8,627.1h4.1c1.1,0,2.1.2,3,.7.9.4,1.5,1.1,2,1.9.5.8.7,1.7.7,2.8s-.2,2-.7,2.8-1.1,1.4-2,1.9c-.9.4-1.8.7-2.9.7h-4.1v-10.6ZM118.9,636c.8,0,1.4-.1,2-.4.6-.3,1-.7,1.3-1.2.3-.5.4-1.2.4-1.9s-.1-1.4-.4-1.9c-.3-.5-.7-1-1.3-1.3-.6-.3-1.2-.4-2-.4h-2.1v7.2h2.1Z" style="fill:#fff; stroke-width:0px;"/><rect x="163.9" y="631.4" width="245.1" height=".8" style="fill:#fff; stroke-width:0px;"/><path d="M271,764.2h-3.5l-4.5-8.9h4.2l3.9,8.4h.1l4-8.4h4.2l-7,13.7h-3.7l2.3-4.8Z" style="fill:#fff; stroke-width:0px;"/><path d="M281,755.4h7.3l4.6,13.7h-4.1l-.8-2.8h-6.5l-.8,2.8h-4.1l4.6-13.7ZM287.2,763.6l-2.4-7.9h0l-2.4,7.9h4.9Z" style="fill:#fff; stroke-width:0px;"/><path d="M297.7,755.4v10.6h7.6v3h-11.4v-13.7h3.8Z" style="fill:#fff; stroke-width:0px;"/><path d="M310.2,755.4v10.6h7.6v3h-11.4v-13.7h3.8Z" style="fill:#fff; stroke-width:0px;"/><path d="M323,755.4h7.3l4.6,13.7h-4.1l-.8-2.8h-6.5l-.8,2.8h-4.1l4.6-13.7ZM329.1,763.6l-2.4-7.9h0l-2.4,7.9h4.9Z" style="fill:#fff; stroke-width:0px;"/><path d="M240.8,774.1l4.4,13.4h0v-13.4h3.7v13.7h-7.4l-4.4-13.5h0v13.5h-3.7v-13.7h7.4Z" style="fill:#fff; stroke-width:0px;"/><path d="M262.9,774.1v3h-8.1v2.5h6.2v2.6h-6.2v2.5h8.3v3h-12.1v-13.7h11.8Z" style="fill:#fff; stroke-width:0px;"/><path d="M271.9,780.9l-4,6.9h-4.3l4.6-7-4.3-6.7h4.3l3.8,6.5,3.8-6.5h4.3l-4.3,6.7,4.6,7h-4.3l-4-6.9Z" style="fill:#fff; stroke-width:0px;"/><path d="M285,777.1h-4.6v-3h12.9v3h-4.6v10.6h-3.8v-10.6Z" style="fill:#fff; stroke-width:0px;"/><path d="M302.2,774.1v10.6h7.6v3h-11.4v-13.7h3.8Z" style="fill:#fff; stroke-width:0px;"/><path d="M322.8,774.1v3h-8.1v2.5h6.2v2.6h-6.2v2.5h8.3v3h-12.1v-13.7h11.8Z" style="fill:#fff; stroke-width:0px;"/><path d="M335.3,787.7h-7.6l-4.4-13.7h4.1l4.1,13.4h0l4-13.4h4.1l-4.4,13.7Z" style="fill:#fff; stroke-width:0px;"/><path d="M352.6,774.1v3h-8.1v2.5h6.2v2.6h-6.2v2.5h8.3v3h-12.1v-13.7h11.8Z" style="fill:#fff; stroke-width:0px;"/><path d="M357.8,774.1v10.6h7.6v3h-11.4v-13.7h3.8Z" style="fill:#fff; stroke-width:0px;"/><path d="M337.5,756.1h-1.3v-.7h3.5v.7h-1.3v3.8h-.8v-3.8Z" style="fill:#fff; stroke-width:0px;"/><path d="M340.3,755.4h.7l1.5,2.1h0s1.6-2.1,1.6-2.1h.7v4.5h-.8v-3.2l-1.3,1.8h-.2l-1.3-1.8v3.2h-.8v-4.5Z" style="fill:#fff; stroke-width:0px;"/></svg>