<?xml version="1.0" encoding="UTF-8"?><svg id="Layer_1" xmlns="http://www.w3.org/2000/svg" viewBox="0 0 595.3 841.9"><rect x="-4166.9" y="-1.4" width="7740.4" height="845.9" style="fill:#171a23; stroke-width:0px;"/><path d="M48.8,50h0v9.8h-2.9v-10.5h5.3l1.9,10.3h0l1.9-10.3h5.3v10.5h-2.9v-9.8h0l-1.9,9.8h-4.9l-1.9-9.8Z" style="fill:#fff; stroke-width:0px;"/><path d="M71.1,49.3v2.3h-6.2v1.9h4.7v2h-4.7v1.9h6.4v2.3h-9.2v-10.5h9.1Z" style="fill:#fff; stroke-width:0px;"/><path d="M77.9,49.3l3.4,10.2h0v-10.2h2.8v10.5h-5.7l-3.4-10.3h0v10.3h-2.8v-10.5h5.7Z" style="fill:#fff; stroke-width:0px;"/><path d="M95.2,58.8c-1,.8-2.4,1.2-4.2,1.2s-3.2-.4-4.2-1.2c-1-.8-1.5-2-1.5-3.5v-6h2.9v6c0,.8.2,1.4.7,1.8.5.4,1.2.6,2,.6s1.6-.2,2-.6c.5-.4.7-1,.7-1.8v-6h2.9v6c0,1.5-.5,2.7-1.5,3.5Z" style="fill:#fff; stroke-width:0px;"/><path d="M106.6,49.3l3.4,10.2h0v-10.2h2.8v10.5h-5.7l-3.4-10.3h0v10.3h-2.8v-10.5h5.7Z" style="fill:#fff; stroke-width:0px;"/><path d="M123.5,49.3v2.3h-6.2v1.9h4.7v2h-4.7v1.9h6.4v2.3h-9.2v-10.5h9.1Z" style="fill:#fff; stroke-width:0px;"/><path d="M130.5,54.5l-3.1,5.3h-3.3l3.5-5.4-3.3-5.1h3.3l2.9,5,2.9-5h3.3l-3.3,5.1,3.5,5.4h-3.3l-3.1-5.3Z" style="fill:#fff; stroke-width:0px;"/><path d="M140.5,51.6h-3.5v-2.3h9.9v2.3h-3.5v8.1h-2.9v-8.1Z" style="fill:#fff; stroke-width:0px;"/><path d="M153.7,49.3v8.1h5.8v2.3h-8.7v-10.5h2.9Z" style="fill:#fff; stroke-width:0px;"/><path d="M169.4,49.3v2.3h-6.2v1.9h4.7v2h-4.7v1.9h6.4v2.3h-9.2v-10.5h9.1Z" style="fill:#fff; stroke-width:0px;"/><path d="M179,59.8h-5.8l-3.4-10.5h3.2l3.1,10.3h0l3.1-10.3h3.2l-3.4,10.5Z" style="fill:#fff; stroke-width:0px;"/><path d="M192.3,49.3v2.3h-6.2v1.9h4.7v2h-4.7v1.9h6.4v2.3h-9.2v-10.5h9.1Z" style="fill:#fff; stroke-width:0px;"/><path d="M196.3,49.3v8.1h5.8v2.3h-8.7v-10.5h2.9Z" style="fill:#fff; stroke-width:0px;"/><path d="M542.6,53.4c.3-.2.7-.3,1.1-.3s.6,0,.8.2c.3.1.5.3.7.5.2.2.3.5.4.8h1.2c0-.5-.3-1-.6-1.4-.3-.4-.7-.6-1.1-.8s-.9-.3-1.3-.3-1.2.1-1.7.4-.9.7-1.2,1.2c-.3.5-.4,1.1-.4,1.7s.1,1.2.4,1.7c.3.5.7.9,1.2,1.2s1.1.4,1.7.4.9,0,1.3-.3c.4-.2.8-.5,1.1-.8.3-.4.5-.8.6-1.4h-1.2c0,.3-.2.6-.4.8-.2.2-.4.4-.7.5-.3.1-.5.2-.8.2s-.8,0-1.1-.3c-.3-.2-.6-.4-.8-.8-.2-.3-.3-.7-.3-1.2s0-.8.3-1.2c.2-.3.4-.6.8-.8Z" style="fill:#fff; stroke-width:0px;"/><path d="M543.7,49.8c-3.1,0-5.6,2.5-5.6,5.6s2.5,5.6,5.6,5.6,5.6-2.5,5.6-5.6-2.5-5.6-5.6-5.6ZM543.7,60.3c-2.7,0-4.8-2.2-4.8-4.8s2.2-4.8,4.8-4.8,4.8,2.2,4.8,4.8-2.2,4.8-4.8,4.8Z" style="fill:#fff; stroke-width:0px;"/><path d="M496.5,59.8l3.6-3.2c.5-.5.9-.9,1.2-1.2s.5-.6.7-1c.2-.3.3-.6.3-1s0-.6-.2-.9c-.2-.3-.4-.5-.6-.6-.3-.1-.6-.2-.9-.2s-.7,0-1,.2c-.3.2-.5.4-.7.8-.2.4-.3.8-.3,1.4h-2c0-.8.1-1.4.4-2.1s.7-1.2,1.3-1.6c.6-.4,1.3-.6,2.2-.6s1.5.2,2,.5c.6.3,1,.7,1.3,1.3.3.5.5,1.1.5,1.8s0,.9-.2,1.3-.4.8-.7,1.2c-.3.4-.7.8-1.2,1.2l-2.7,2.4.9-.2h4.1v1.7h-8v-1.1Z" style="fill:#fff; stroke-width:0px;"/><path d="M510.2,61.2c-1,0-1.9-.3-2.6-.8s-1.2-1.2-1.6-2c-.4-.9-.5-1.8-.5-2.9s.2-2.1.5-2.9c.4-.9.9-1.6,1.6-2.1.7-.5,1.5-.8,2.5-.8s2,.3,2.7.8,1.2,1.2,1.5,2.1.5,1.8.5,2.8-.2,2-.5,2.9-.9,1.5-1.6,2.1-1.6.8-2.6.8ZM510.2,59.4c.5,0,1-.2,1.4-.5.4-.3.7-.8.9-1.4.2-.6.3-1.3.3-2s-.1-1.4-.3-2c-.2-.6-.5-1-.9-1.4s-.9-.5-1.5-.5-1,.2-1.4.5c-.4.3-.7.8-.9,1.4-.2.6-.3,1.3-.3,2s.1,1.4.3,2c.2.6.5,1,.9,1.4.4.3.9.5,1.4.5Z" style="fill:#fff; stroke-width:0px;"/><path d="M515.9,59.8l3.6-3.2c.5-.5.9-.9,1.2-1.2s.5-.6.7-1c.2-.3.3-.6.3-1s0-.6-.2-.9c-.2-.3-.4-.5-.6-.6-.3-.1-.6-.2-.9-.2s-.7,0-1,.2c-.3.2-.5.4-.7.8-.2.4-.3.8-.3,1.4h-2c0-.8.1-1.4.4-2.1s.7-1.2,1.3-1.6c.6-.4,1.3-.6,2.2-.6s1.5.2,2,.5c.6.3,1,.7,1.3,1.3.3.5.5,1.1.5,1.8s0,.9-.2,1.3-.4.8-.7,1.2c-.3.4-.7.8-1.2,1.2l-2.7,2.4.9-.2h4.1v1.7h-8v-1.1Z" style="fill:#fff; stroke-width:0px;"/><path d="M529.2,61.2c-.7,0-1.3-.1-1.9-.4-.6-.2-1.1-.6-1.5-1.2s-.6-1.2-.7-2.1h1.9c0,.4.2.8.4,1,.2.3.5.5.8.6.3.1.6.2.9.2s.7,0,1.1-.3c.3-.2.6-.4.7-.7.2-.3.3-.6.3-1s0-.7-.3-1-.5-.5-.8-.6c-.4-.1-.8-.2-1.3-.2h-2.2s-.9-.7-.9-.7l.7-4.8h6v1.6h-4.3l-.3,2.5h1.6c.8,0,1.5.1,2,.4.6.3,1,.6,1.3,1.1.3.5.5,1.1.5,1.8s-.2,1.3-.5,1.9c-.3.6-.8,1-1.4,1.4-.6.4-1.3.5-2.1.5Z" style="fill:#fff; stroke-width:0px;"/><rect x="260.2" y="101.4" width="290.2" height="54" style="fill:#fff; stroke-width:0px;"/><path d="M394.3,132.9v5.1c0,.2-.1.4-.4.4-2.1,0-3.9-.8-5.4-2.3-1.3,1.4-3.2,2.1-6,2.3h-9.3c-6,0-8.8-2.8-8.8-8.4s.3-4.4.9-7.1l4.7.6c-.3,2.2-.5,3.8-.5,4.9,0,2.8,1.5,4.2,5.1,4.2h7.2c2,0,2.9-1.1,2.9-3.6v-4.2s5.5-.6,5.5-.6v7.4c1.1.7,2.2,1.1,3.7,1.1s.4.1.4.4ZM378.1,140.2l3.7,3.6-3.6,3.6-3.7-3.6,3.7-3.6Z" style="fill:#171a23; stroke-width:0px;"/><path d="M401.1,132.9v5.1c0,.2-.1.4-.4.4h-6.8c-.2,0-.4-.2-.4-.4v-5.1c0-.2.1-.4.4-.4h6.8c.2,0,.4.1.4.4Z" style="fill:#171a23; stroke-width:0px;"/><path d="M407.9,132.9v5.1c0,.2-.1.4-.4.4h-6.8c-.2,0-.4-.2-.4-.4v-5.1c0-.2.1-.4.4-.4h6.8c.2,0,.4.1.4.4Z" style="fill:#171a23; stroke-width:0px;"/><path d="M414.8,132.9v5.1c0,.2-.1.4-.4.4h-6.8c-.2,0-.4-.2-.4-.4v-5.1c0-.2.1-.4.4-.4h6.8c.2,0,.4.1.4.4Z" style="fill:#171a23; stroke-width:0px;"/><path d="M422.7,147.4l-2.6-2.5-2.5,2.5-3.7-3.6,3.6-3.6,2.6,2.5,2.5-2.5,3.7,3.6-3.6,3.6ZM414.1,138v-5.1c0-.2.2-.4.4-.4h3c2,0,2.9-1.1,2.9-3.6v-7.8s5.5-.7,5.5-.7v10.5c0,4.9-2.8,7.4-8.5,7.4h-3c-.2,0-.4-.2-.4-.4Z" style="fill:#171a23; stroke-width:0px;"/><path d="M441.4,132.9v5.1c0,.2-.1.4-.4.4-1.5,0-2.7-.5-3.7-1.4v.6c0,6.1-3.3,8.4-10,8.4l-.4-4.5c2.9,0,4.9-1.1,4.9-4.2v-16.1s5.5-.7,5.5-.7v9.5c.3,1.7,1.8,2.6,3.7,2.6s.4.1.4.4Z" style="fill:#171a23; stroke-width:0px;"/><path d="M448.2,132.9v5.1c0,.2-.1.4-.4.4h-6.8c-.2,0-.4-.2-.4-.4v-5.1c0-.2.1-.4.4-.4h6.8c.2,0,.4.1.4.4Z" style="fill:#171a23; stroke-width:0px;"/><path d="M455.1,132.9v5.1c0,.2-.1.4-.4.4h-6.8c-.2,0-.4-.2-.4-.4v-5.1c0-.2.1-.4.4-.4h6.8c.2,0,.4.1.4.4Z" style="fill:#171a23; stroke-width:0px;"/><path d="M461.9,132.9v5.1c0,.2-.1.4-.4.4h-6.8c-.2,0-.4-.2-.4-.4v-5.1c0-.2.1-.4.4-.4h6.8c.2,0,.4.1.4.4Z" style="fill:#171a23; stroke-width:0px;"/><path d="M481.2,130.1c0,5.2-3.2,8.2-8.6,8.2h-11c-.2,0-.4-.2-.4-.4v-5.1c0-.2.1-.4.4-.4h11c1.9,0,3.1-1,3.1-2.5s-1.2-2.5-3-2.5h-7.9l-2.8-4.9,9.9-12.4,4.9,2.8-9.3,9.6h4.9c5.4,0,8.9,3,8.9,7.5Z" style="fill:#171a23; stroke-width:0px;"/><path d="M458.8,233.2c0,.1,0,.2-.2.2-1.8,0-3-.5-3.7-1.4-1.4.9-2.9,1.4-4.9,1.4h-2.5c-3,0-4.5-1.4-4.5-4.1s0-1.8.3-3l2.4.3c-.1.9-.2,1.4-.2,1.8,0,1.4.8,2,2.6,2h1.8c2,0,3.3-.2,4.2-.7v-9.3s2.8-.3,2.8-.3v8.4c0,1.3.5,1.9,1.5,1.9s.2,0,.2.2v2.6ZM452,227h-4.3v-1.9h.9c-.2-.3-.3-.6-.3-1,0-1.2.9-1.9,2.1-1.9s.9.1,1.4.4v1.6c-.5-.2-.9-.3-1.2-.3-.5,0-.8.2-.8.6s0,.4.2.5h2.5l-.6,1.9Z" style="fill:#fff; stroke-width:0px;"/><path d="M462.3,230.6v2.6c0,.1,0,.2-.2.2h-3.5c-.1,0-.2,0-.2-.2v-2.6c0-.1,0-.2.2-.2h3.5c.1,0,.2,0,.2.2Z" style="fill:#fff; stroke-width:0px;"/><path d="M465.9,230.6v2.6c0,.1,0,.2-.2.2h-3.5c-.1,0-.2,0-.2-.2v-2.6c0-.1,0-.2.2-.2h3.5c.1,0,.2,0,.2.2Z" style="fill:#fff; stroke-width:0px;"/><path d="M469.4,230.6v2.6c0,.1,0,.2-.2.2h-3.5c-.1,0-.2,0-.2-.2v-2.6c0-.1,0-.2.2-.2h3.5c.1,0,.2,0,.2.2Z" style="fill:#fff; stroke-width:0px;"/><path d="M472.9,230.6v2.6c0,.1,0,.2-.2.2h-3.5c-.1,0-.2,0-.2-.2v-2.6c0-.1,0-.2.2-.2h3.5c.1,0,.2,0,.2.2Z" style="fill:#fff; stroke-width:0px;"/><path d="M476.5,230.6v2.6c0,.1,0,.2-.2.2h-3.5c-.1,0-.2,0-.2-.2v-2.6c0-.1,0-.2.2-.2h3.5c.1,0,.2,0,.2.2Z" style="fill:#fff; stroke-width:0px;"/><path d="M480,230.6v2.6c0,.1,0,.2-.2.2h-3.5c-.1,0-.2,0-.2-.2v-2.6c0-.1,0-.2.2-.2h3.5c.1,0,.2,0,.2.2Z" style="fill:#fff; stroke-width:0px;"/><path d="M487.1,230.6v2.6c0,.1,0,.2-.2.2-1,0-2-.5-2.9-1.4-.8.9-2.3,1.4-4.2,1.4s-.2,0-.2-.2v-2.6c0-.1.1-.2.2-.2,1.4,0,2.2-.5,2.2-1.9v-2.2s2.8-.3,2.8-.3v3.8c.6.4,1.3.6,2,.6s.2,0,.2.2ZM484.7,234.4l1.9,1.9-1.9,1.9-1.3-1.3-1.3,1.3-1.9-1.9,1.9-1.9,1.3,1.3,1.3-1.3Z" style="fill:#fff; stroke-width:0px;"/><path d="M502.7,224.2v5.4c0,2.5-1.3,3.8-3.8,3.8s-2-.3-3-1c-.7.6-1.7,1-2.9,1s-1.8-.3-2.7-1.1c-.7.7-1.8,1.1-3.3,1.1s-.2,0-.2-.2v-2.6c0-.1,0-.2.2-.2,1,0,1.5-.6,1.5-1.9v-2.2s2.8-.3,2.8-.3v3.6c0,.2,0,.4,0,.5.5.2.9.3,1.4.3,1,0,1.5-.6,1.5-1.9v-2.2s2.8-.3,2.8-.3v3.6c0,.2,0,.4,0,.6.5.1.9.2,1.4.2,1,0,1.5-.6,1.5-1.9v-4.1l2.8-.3Z" style="fill:#fff; stroke-width:0px;"/><path d="M516.2,233.2c0,.1,0,.2-.2.2-1.5,0-2.6-.3-3.3-1-1.1.5-3.3,1-4.5,1h-3.9l-.4-3h3.1l-1.4-7.2,2.8-.7,1.2,7.8c.7,0,1.4-.2,2-.3,0-.2,0-.3,0-.5v-9.1s2.8-.3,2.8-.3v8.4c0,1.3.5,1.9,1.5,1.9s.2,0,.2.2v2.6Z" style="fill:#fff; stroke-width:0px;"/><path d="M519.7,230.6v2.6c0,.1,0,.2-.2.2h-3.5c-.1,0-.2,0-.2-.2v-2.6c0-.1,0-.2.2-.2h3.5c.1,0,.2,0,.2.2Z" style="fill:#fff; stroke-width:0px;"/><path d="M523.2,230.6v2.6c0,.1,0,.2-.2.2h-3.5c-.1,0-.2,0-.2-.2v-2.6c0-.1,0-.2.2-.2h3.5c.1,0,.2,0,.2.2Z" style="fill:#fff; stroke-width:0px;"/><path d="M526.8,230.6v2.6c0,.1,0,.2-.2.2h-3.5c-.1,0-.2,0-.2-.2v-2.6c0-.1,0-.2.2-.2h3.5c.1,0,.2,0,.2.2Z" style="fill:#fff; stroke-width:0px;"/><path d="M530.3,230.6v2.6c0,.1,0,.2-.2.2h-3.5c-.1,0-.2,0-.2-.2v-2.6c0-.1,0-.2.2-.2h3.5c.1,0,.2,0,.2.2Z" style="fill:#fff; stroke-width:0px;"/><path d="M533.9,230.6v2.6c0,.1,0,.2-.2.2h-3.5c-.1,0-.2,0-.2-.2v-2.6c0-.1,0-.2.2-.2h3.5c.1,0,.2,0,.2.2Z" style="fill:#fff; stroke-width:0px;"/><path d="M537.4,230.6v2.6c0,.1,0,.2-.2.2h-3.5c-.1,0-.2,0-.2-.2v-2.6c0-.1,0-.2.2-.2h3.5c.1,0,.2,0,.2.2Z" style="fill:#fff; stroke-width:0px;"/><path d="M547.4,229.2c0,2.7-1.7,4.3-4.5,4.3h-5.7c-.1,0-.2,0-.2-.2v-2.6c0-.1,0-.2.2-.2h5.7c1,0,1.6-.5,1.6-1.3s-.6-1.3-1.6-1.3h-4.1l-1.5-2.6,5.2-6.4,2.5,1.4-4.8,5h2.5c2.8,0,4.6,1.5,4.6,3.9Z" style="fill:#fff; stroke-width:0px;"/><path d="M482.4,257.1c.7.7,1.8,1,3.2,1s1.2,0,1.8-.2,1.2-.3,1.7-.6v1.5c-.4.2-1,.4-1.7.6-.6.1-1.2.2-1.9.2-2,0-3.5-.5-4.6-1.4s-1.6-2.3-1.6-4,.5-3.1,1.6-4,2.6-1.4,4.6-1.4,1.2,0,1.8.2,1.2.3,1.8.5v1.5c-.6-.2-1.2-.4-1.8-.6-.6-.1-1.2-.2-1.8-.2-1.4,0-2.4.4-3.2,1-.7.7-1.1,1.7-1.1,3s.4,2.3,1.1,3Z" style="fill:#ee304c; stroke-width:0px;"/><path d="M492.6,248.9v9.1h6.2v1.4h-8v-10.5h1.7Z" style="fill:#ee304c; stroke-width:0px;"/><path d="M503.7,248.9h3.3l4.3,10.5h-1.9l-1-2.5h-6.1l-1,2.5h-1.9l4.3-10.5ZM507.9,255.6l-2.6-6.5h0l-2.5,6.5h5.1Z" style="fill:#ee304c; stroke-width:0px;"/><path d="M518.2,250.4c-.7-.1-1.4-.2-2.1-.2s-1.5.1-1.9.4-.6.6-.6,1.1,0,.6.3.8c.2.2.5.4.9.5.4.1.9.3,1.6.5,1,.2,1.9.5,2.5.7.6.3,1.1.6,1.4,1,.3.4.5.9.5,1.5,0,1-.4,1.8-1.3,2.3-.9.5-2,.8-3.6.8s-3.2-.3-4.3-.8v-1.5c.7.2,1.3.5,2,.6.7.2,1.5.2,2.3.2s1.8-.1,2.3-.4c.5-.3.8-.7.8-1.2s-.1-.6-.3-.8-.5-.4-1-.6c-.4-.2-1-.3-1.8-.5-1-.2-1.7-.4-2.3-.7-.6-.2-1-.6-1.3-1-.3-.4-.5-.9-.5-1.4,0-.9.4-1.6,1.1-2.1.8-.5,1.8-.7,3.2-.7s2.8.2,3.9.7v1.5c-.6-.2-1.2-.4-1.9-.6Z" style="fill:#ee304c; stroke-width:0px;"/><path d="M528.1,250.4c-.7-.1-1.4-.2-2.1-.2s-1.5.1-1.9.4-.6.6-.6,1.1,0,.6.3.8c.2.2.5.4.9.5.4.1.9.3,1.6.5,1,.2,1.9.5,2.5.7.6.3,1.1.6,1.4,1,.3.4.5.9.5,1.5,0,1-.4,1.8-1.3,2.3-.9.5-2,.8-3.6.8s-3.2-.3-4.3-.8v-1.5c.7.2,1.3.5,2,.6.7.2,1.5.2,2.3.2s1.8-.1,2.3-.4c.5-.3.8-.7.8-1.2s-.1-.6-.3-.8-.5-.4-1-.6c-.4-.2-1-.3-1.8-.5-1-.2-1.7-.4-2.3-.7-.6-.2-1-.6-1.3-1-.3-.4-.5-.9-.5-1.4,0-.9.4-1.6,1.1-2.1.8-.5,1.8-.7,3.2-.7s2.8.2,3.9.7v1.5c-.6-.2-1.2-.4-1.9-.6Z" style="fill:#ee304c; stroke-width:0px;"/><path d="M533.8,248.9v10.5h-1.7v-10.5h1.7Z" style="fill:#ee304c; stroke-width:0px;"/><path d="M538.4,257.1c.7.7,1.8,1,3.2,1s1.2,0,1.8-.2,1.2-.3,1.7-.6v1.5c-.4.2-1,.4-1.7.6-.6.1-1.2.2-1.9.2-2,0-3.5-.5-4.6-1.4s-1.6-2.3-1.6-4,.5-3.1,1.6-4,2.6-1.4,4.6-1.4,1.2,0,1.8.2,1.2.3,1.8.5v1.5c-.6-.2-1.2-.4-1.8-.6-.6-.1-1.2-.2-1.8-.2-1.4,0-2.4.4-3.2,1-.7.7-1.1,1.7-1.1,3s.4,2.3,1.1,3Z" style="fill:#ee304c; stroke-width:0px;"/><path d="M453.9,318.6v2.6c0,.1,0,.2-.2.2-1.2,0-2-.2-2.7-.7-1.1.6-2.1.8-3.1.8-2.6,0-4.4-2-4.4-4.6s1.8-4.8,4.4-4.8,1.2.1,1.8.3v-1l2.8-.3v6.1c0,.8.4,1.1,1,1.1s.2,0,.2.2ZM446.7,310.9l-1.9-1.9,1.9-1.9,1.4,1.4,1.4-1.4,1.9,1.9-1.9,1.9-1.5-1.4-1.4,1.4ZM449.9,318.5c0-.2,0-.5,0-.8v-2.4c-.6-.2-1.2-.3-1.7-.3-1.2,0-1.9.8-1.9,1.9s.7,1.8,1.8,1.8c.7,0,1.3,0,1.9-.3Z" style="fill:#fff; stroke-width:0px;"/><path d="M457.4,318.6v2.6c0,.1,0,.2-.2.2h-3.5c-.1,0-.2,0-.2-.2v-2.6c0-.1,0-.2.2-.2h3.5c.1,0,.2,0,.2.2Z" style="fill:#fff; stroke-width:0px;"/><path d="M461,318.6v2.6c0,.1,0,.2-.2.2h-3.5c-.1,0-.2,0-.2-.2v-2.6c0-.1,0-.2.2-.2h3.5c.1,0,.2,0,.2.2Z" style="fill:#fff; stroke-width:0px;"/><path d="M464.5,318.6v2.6c0,.1,0,.2-.2.2h-3.5c-.1,0-.2,0-.2-.2v-2.6c0-.1,0-.2.2-.2h3.5c.1,0,.2,0,.2.2Z" style="fill:#fff; stroke-width:0px;"/><path d="M468.1,318.6v2.6c0,.1,0,.2-.2.2h-3.5c-.1,0-.2,0-.2-.2v-2.6c0-.1,0-.2.2-.2h3.5c.1,0,.2,0,.2.2Z" style="fill:#fff; stroke-width:0px;"/><path d="M471.6,318.6v2.6c0,.1,0,.2-.2.2h-3.5c-.1,0-.2,0-.2-.2v-2.6c0-.1,0-.2.2-.2h3.5c.1,0,.2,0,.2.2Z" style="fill:#fff; stroke-width:0px;"/><path d="M475.2,318.6v2.6c0,.1,0,.2-.2.2h-3.5c-.1,0-.2,0-.2-.2v-2.6c0-.1,0-.2.2-.2h3.5c.1,0,.2,0,.2.2Z" style="fill:#fff; stroke-width:0px;"/><path d="M478.7,318.6v2.6c0,.1,0,.2-.2.2h-3.5c-.1,0-.2,0-.2-.2v-2.6c0-.1,0-.2.2-.2h3.5c.1,0,.2,0,.2.2Z" style="fill:#fff; stroke-width:0px;"/><path d="M482.3,318.6v2.6c0,.1,0,.2-.2.2h-3.5c-.1,0-.2,0-.2-.2v-2.6c0-.1,0-.2.2-.2h3.5c.1,0,.2,0,.2.2Z" style="fill:#fff; stroke-width:0px;"/><path d="M485.8,318.6v2.6c0,.1,0,.2-.2.2h-3.5c-.1,0-.2,0-.2-.2v-2.6c0-.1,0-.2.2-.2h3.5c.1,0,.2,0,.2.2Z" style="fill:#fff; stroke-width:0px;"/><path d="M495.8,317.1c0,2.7-1.7,4.3-4.5,4.3h-5.7c-.1,0-.2,0-.2-.2v-2.6c0-.1,0-.2.2-.2h5.7c1,0,1.6-.5,1.6-1.3s-.6-1.3-1.6-1.3h-4.1l-1.5-2.6,5.2-6.4,2.5,1.4-4.8,5h2.5c2.8,0,4.6,1.5,4.6,3.9Z" style="fill:#fff; stroke-width:0px;"/><path d="M497.5,308.4l2.8-.3v13.3h-2.8v-13Z" style="fill:#fff; stroke-width:0px;"/><path d="M512.1,318.6v2.6c0,.1,0,.2-.2.2h-.9c-.3,2.8-3.2,3.9-7.5,3.9l-.3-2.3c3.1,0,4.6-.4,4.9-1.6h-1.5c-2.6,0-4.3-1.8-4.3-4.5s2-4.7,4.5-4.7,4.3,1.7,4.3,4.6v1.7h.9c.1,0,.2,0,.2.2ZM506.8,318.6c.4,0,.9,0,1.4,0v-1.6c0-1.2-.7-1.9-1.7-1.9s-1.7.7-1.7,1.7.9,1.8,2,1.8Z" style="fill:#fff; stroke-width:0px;"/><path d="M515.6,318.6v2.6c0,.1,0,.2-.2.2h-3.5c-.1,0-.2,0-.2-.2v-2.6c0-.1,0-.2.2-.2h3.5c.1,0,.2,0,.2.2Z" style="fill:#fff; stroke-width:0px;"/><path d="M519.2,318.6v2.6c0,.1,0,.2-.2.2h-3.5c-.1,0-.2,0-.2-.2v-2.6c0-.1,0-.2.2-.2h3.5c.1,0,.2,0,.2.2Z" style="fill:#fff; stroke-width:0px;"/><path d="M522.7,318.6v2.6c0,.1,0,.2-.2.2h-3.5c-.1,0-.2,0-.2-.2v-2.6c0-.1,0-.2.2-.2h3.5c.1,0,.2,0,.2.2Z" style="fill:#fff; stroke-width:0px;"/><path d="M526.2,318.6v2.6c0,.1,0,.2-.2.2h-3.5c-.1,0-.2,0-.2-.2v-2.6c0-.1,0-.2.2-.2h3.5c.1,0,.2,0,.2.2Z" style="fill:#fff; stroke-width:0px;"/><path d="M529.8,318.6v2.6c0,.1,0,.2-.2.2h-3.5c-.1,0-.2,0-.2-.2v-2.6c0-.1,0-.2.2-.2h3.5c.1,0,.2,0,.2.2Z" style="fill:#fff; stroke-width:0px;"/><path d="M533.3,318.6v2.6c0,.1,0,.2-.2.2h-3.5c-.1,0-.2,0-.2-.2v-2.6c0-.1,0-.2.2-.2h3.5c.1,0,.2,0,.2.2Z" style="fill:#fff; stroke-width:0px;"/><path d="M536.9,318.6v2.6c0,.1,0,.2-.2.2h-3.5c-.1,0-.2,0-.2-.2v-2.6c0-.1,0-.2.2-.2h3.5c.1,0,.2,0,.2.2Z" style="fill:#fff; stroke-width:0px;"/><path d="M546.1,316.4c0,3-2,5-5.2,5h-4.2c-.1,0-.2,0-.2-.2v-2.6c0-.1,0-.2.2-.2h1.1c-.3-.7-.5-1.4-.5-2.1,0-2.5,1.9-4.3,4.3-4.3s4.5,1.9,4.5,4.4ZM541.5,310.8l-1.9-1.9,1.9-1.9,1.9,1.9-1.9,1.9ZM543.3,316.4c0-1-.7-1.7-1.7-1.7s-1.8.8-1.8,1.8.2,1.2.5,1.9h.6c1.5,0,2.4-.8,2.4-2Z" style="fill:#fff; stroke-width:0px;"/><path d="M498.6,337.5h8.3v1.4h-6.6v3.5h5.2v1.3h-5.2v4.2h-1.7v-10.5Z" style="fill:#ee304c; stroke-width:0px;"/><path d="M508.4,337.5h4.6c1.4,0,2.4.3,3.2.8.8.6,1.1,1.3,1.1,2.4s-.3,1.7-1,2.2c-.7.5-1.6.9-2.8.9l4,4.2h-2l-5.1-5.3h2.4c.8,0,1.4-.2,1.9-.5.4-.3.7-.8.7-1.5s-.2-1.1-.7-1.5c-.4-.3-1.1-.5-1.9-.5h-2.8v9.2h-1.7v-10.5Z" style="fill:#ee304c; stroke-width:0px;"/><path d="M527.4,347.1c-.9.8-2.2,1.2-3.8,1.2s-3-.4-3.8-1.2c-.9-.8-1.3-1.9-1.3-3.4v-6.2h1.7v6.2c0,1,.3,1.8.9,2.4.6.5,1.4.8,2.6.8s2-.3,2.6-.8c.6-.5.9-1.3.9-2.4v-6.2h1.7v6.2c0,1.5-.4,2.6-1.3,3.4Z" style="fill:#ee304c; stroke-width:0px;"/><path d="M532.2,337.5v10.5h-1.7v-10.5h1.7Z" style="fill:#ee304c; stroke-width:0px;"/><path d="M537.2,338.9h-3.7v-1.4h9.2v1.4h-3.8v9.1h-1.7v-9.1Z" style="fill:#ee304c; stroke-width:0px;"/><path d="M442.9,412.9c1.5,0,2.6-.6,2.6-2.2v-8.4s2.8-.3,2.8-.3v8.8c0,3.2-1.7,4.3-5.2,4.3l-.2-2.3Z" style="fill:#fff; stroke-width:0px;"/><path d="M460.2,408.5v2.6c0,.1,0,.2-.2.2-1.1,0-2-.4-2.7-1.1-.7.7-1.9,1.1-3.4,1.1h-4.1l-.4-3h4.6c1,0,1.5-.6,1.5-1.4v-.6c0-1-.8-1.6-2-1.6h-1.2v-2.9h1.9c2.5,0,4.2,1.5,4.2,4.3v1.4c0,.1,0,.3,0,.4.5.3,1,.4,1.8.4s.2,0,.2.2Z" style="fill:#fff; stroke-width:0px;"/><path d="M463.8,408.5v2.6c0,.1,0,.2-.2.2h-3.5c-.1,0-.2,0-.2-.2v-2.6c0-.1,0-.2.2-.2h3.5c.1,0,.2,0,.2.2Z" style="fill:#fff; stroke-width:0px;"/><path d="M467.3,408.5v2.6c0,.1,0,.2-.2.2h-3.5c-.1,0-.2,0-.2-.2v-2.6c0-.1,0-.2.2-.2h3.5c.1,0,.2,0,.2.2Z" style="fill:#fff; stroke-width:0px;"/><path d="M470.9,408.5v2.6c0,.1,0,.2-.2.2h-3.5c-.1,0-.2,0-.2-.2v-2.6c0-.1,0-.2.2-.2h3.5c.1,0,.2,0,.2.2Z" style="fill:#fff; stroke-width:0px;"/><path d="M474.4,408.5v2.6c0,.1,0,.2-.2.2h-3.5c-.1,0-.2,0-.2-.2v-2.6c0-.1,0-.2.2-.2h3.5c.1,0,.2,0,.2.2Z" style="fill:#fff; stroke-width:0px;"/><path d="M478,408.5v2.6c0,.1,0,.2-.2.2h-3.5c-.1,0-.2,0-.2-.2v-2.6c0-.1,0-.2.2-.2h3.5c.1,0,.2,0,.2.2Z" style="fill:#fff; stroke-width:0px;"/><path d="M481.5,408.5v2.6c0,.1,0,.2-.2.2h-3.5c-.1,0-.2,0-.2-.2v-2.6c0-.1,0-.2.2-.2h3.5c.1,0,.2,0,.2.2Z" style="fill:#fff; stroke-width:0px;"/><path d="M485,408.5v2.6c0,.1,0,.2-.2.2h-3.5c-.1,0-.2,0-.2-.2v-2.6c0-.1,0-.2.2-.2h3.5c.1,0,.2,0,.2.2Z" style="fill:#fff; stroke-width:0px;"/><path d="M488.6,408.5v2.6c0,.1,0,.2-.2.2h-3.5c-.1,0-.2,0-.2-.2v-2.6c0-.1,0-.2.2-.2h3.5c.1,0,.2,0,.2.2Z" style="fill:#fff; stroke-width:0px;"/><path d="M492.1,408.5v2.6c0,.1,0,.2-.2.2h-3.5c-.1,0-.2,0-.2-.2v-2.6c0-.1,0-.2.2-.2h3.5c.1,0,.2,0,.2.2Z" style="fill:#fff; stroke-width:0px;"/><path d="M495.7,408.5v2.6c0,.1,0,.2-.2.2h-3.5c-.1,0-.2,0-.2-.2v-2.6c0-.1,0-.2.2-.2h3.5c.1,0,.2,0,.2.2Z" style="fill:#fff; stroke-width:0px;"/><path d="M499.2,408.5v2.6c0,.1,0,.2-.2.2h-3.5c-.1,0-.2,0-.2-.2v-2.6c0-.1,0-.2.2-.2h3.5c.1,0,.2,0,.2.2Z" style="fill:#fff; stroke-width:0px;"/><path d="M505.5,408.5v2.6c0,.1,0,.2-.2.2-1.1,0-2-.4-2.8-1.2-.7.8-1.9,1.2-3.5,1.2s-.2,0-.2-.2v-2.6c0-.1.1-.2.2-.2,1,0,1.5-.6,1.5-1.9v-2.2s2.8-.3,2.8-.3v3.9c.5.3,1.2.5,1.9.5s.2,0,.2.2ZM502.1,402.8l-1.9-1.9,1.9-1.9,1.9,1.9-1.9,1.9Z" style="fill:#fff; stroke-width:0px;"/><path d="M509.1,408.5v2.6c0,.1,0,.2-.2.2h-3.5c-.1,0-.2,0-.2-.2v-2.6c0-.1,0-.2.2-.2h3.5c.1,0,.2,0,.2.2Z" style="fill:#fff; stroke-width:0px;"/><path d="M512.6,408.5v2.6c0,.1,0,.2-.2.2h-3.5c-.1,0-.2,0-.2-.2v-2.6c0-.1,0-.2.2-.2h3.5c.1,0,.2,0,.2.2Z" style="fill:#fff; stroke-width:0px;"/><path d="M516.2,408.5v2.6c0,.1,0,.2-.2.2h-3.5c-.1,0-.2,0-.2-.2v-2.6c0-.1,0-.2.2-.2h3.5c.1,0,.2,0,.2.2Z" style="fill:#fff; stroke-width:0px;"/><path d="M519.7,408.5v2.6c0,.1,0,.2-.2.2h-3.5c-.1,0-.2,0-.2-.2v-2.6c0-.1,0-.2.2-.2h3.5c.1,0,.2,0,.2.2Z" style="fill:#fff; stroke-width:0px;"/><path d="M523.2,408.5v2.6c0,.1,0,.2-.2.2h-3.5c-.1,0-.2,0-.2-.2v-2.6c0-.1,0-.2.2-.2h3.5c.1,0,.2,0,.2.2Z" style="fill:#fff; stroke-width:0px;"/><path d="M526.8,408.5v2.6c0,.1,0,.2-.2.2h-3.5c-.1,0-.2,0-.2-.2v-2.6c0-.1,0-.2.2-.2h3.5c.1,0,.2,0,.2.2Z" style="fill:#fff; stroke-width:0px;"/><path d="M530.3,408.5v2.6c0,.1,0,.2-.2.2h-3.5c-.1,0-.2,0-.2-.2v-2.6c0-.1,0-.2.2-.2h3.5c.1,0,.2,0,.2.2Z" style="fill:#fff; stroke-width:0px;"/><path d="M533.9,408.5v2.6c0,.1,0,.2-.2.2h-3.5c-.1,0-.2,0-.2-.2v-2.6c0-.1,0-.2.2-.2h3.5c.1,0,.2,0,.2.2Z" style="fill:#fff; stroke-width:0px;"/><path d="M537.4,408.5v2.6c0,.1,0,.2-.2.2h-3.5c-.1,0-.2,0-.2-.2v-2.6c0-.1,0-.2.2-.2h3.5c.1,0,.2,0,.2.2Z" style="fill:#fff; stroke-width:0px;"/><path d="M547.4,407c0,2.7-1.7,4.3-4.5,4.3h-5.7c-.1,0-.2,0-.2-.2v-2.6c0-.1,0-.2.2-.2h5.7c1,0,1.6-.5,1.6-1.3s-.6-1.3-1.6-1.3h-4.1l-1.5-2.6,5.2-6.4,2.5,1.4-4.8,5h2.5c2.8,0,4.6,1.5,4.6,3.9Z" style="fill:#fff; stroke-width:0px;"/><path d="M489.1,429.3v10.5h-1.7v-10.5h1.7ZM494.5,429.3h2.1l-5.2,4.9,5.3,5.6h-2l-5.3-5.6,5.1-4.9Z" style="fill:#ee304c; stroke-width:0px;"/><path d="M499.6,429.3v10.5h-1.7v-10.5h1.7Z" style="fill:#ee304c; stroke-width:0px;"/><path d="M505.2,429.3l5.5,10.3h0v-10.3h1.7v10.5h-3.4l-5.5-10.3h0v10.3h-1.7v-10.5h3.4Z" style="fill:#ee304c; stroke-width:0px;"/><path d="M522.3,429.9c.9.4,1.6,1,2.1,1.8.5.8.7,1.7.7,2.8s-.2,2-.7,2.8c-.5.8-1.2,1.4-2.1,1.8-.9.4-2,.6-3.2.6h-4.5v-10.5h4.5c1.2,0,2.3.2,3.2.6ZM519,438.4c.9,0,1.6-.2,2.2-.5.6-.3,1.1-.8,1.5-1.3s.5-1.3.5-2-.2-1.5-.5-2c-.3-.6-.8-1-1.5-1.3-.6-.3-1.4-.5-2.2-.5h-2.7v7.7h2.7Z" style="fill:#ee304c; stroke-width:0px;"/><path d="M535.1,429.3v1.4h-6.6v3.2h5.4v1.2h-5.4v3.3h6.8v1.4h-8.5v-10.5h8.3Z" style="fill:#ee304c; stroke-width:0px;"/><path d="M536.5,429.3h4.6c1.4,0,2.4.3,3.2.8.8.6,1.1,1.3,1.1,2.4s-.3,1.7-1,2.2c-.7.5-1.6.9-2.8.9l4,4.2h-2l-5.1-5.3h2.4c.8,0,1.4-.2,1.9-.5.4-.3.7-.8.7-1.5s-.2-1.1-.7-1.5c-.4-.3-1.1-.5-1.9-.5h-2.8v9.2h-1.7v-10.5Z" style="fill:#ee304c; stroke-width:0px;"/><path d="M468.1,495v2.6c0,.1,0,.2-.2.2-1,0-1.8-.3-2.5-.9-.6.6-1.6.9-2.8.9s-2-.3-3-1c-.7.7-1.7,1-2.9,1s-1.5-.2-2.2-.7c-.3,2.9-2.3,4.6-5.6,4.6s-5.5-1.6-5.5-4.9.3-2.6.8-4.3l2.3.6c-.3,1-.5,1.9-.5,2.8,0,1.8,1,2.7,2.9,2.7s2.8-1,2.8-3v-6.8l2.8-.3v5.8c.6.3,1.2.5,1.8.5,1,0,1.5-.6,1.5-1.9v-2.2s2.8-.3,2.8-.3v3.6c0,.2,0,.4,0,.6.5.1.9.2,1.4.2,1,0,1.5-.6,1.5-1.9v-4l2.8-.3v5.4c0,.2,0,.4,0,.5.4.2.9.3,1.4.3s.2,0,.2.2Z" style="fill:#fff; stroke-width:0px;"/><path d="M471.6,495v2.6c0,.1,0,.2-.2.2h-3.5c-.1,0-.2,0-.2-.2v-2.6c0-.1,0-.2.2-.2h3.5c.1,0,.2,0,.2.2Z" style="fill:#fff; stroke-width:0px;"/><path d="M475.2,495v2.6c0,.1,0,.2-.2.2h-3.5c-.1,0-.2,0-.2-.2v-2.6c0-.1,0-.2.2-.2h3.5c.1,0,.2,0,.2.2Z" style="fill:#fff; stroke-width:0px;"/><path d="M478.7,495v2.6c0,.1,0,.2-.2.2h-3.5c-.1,0-.2,0-.2-.2v-2.6c0-.1,0-.2.2-.2h3.5c.1,0,.2,0,.2.2Z" style="fill:#fff; stroke-width:0px;"/><path d="M482.3,495v2.6c0,.1,0,.2-.2.2h-3.5c-.1,0-.2,0-.2-.2v-2.6c0-.1,0-.2.2-.2h3.5c.1,0,.2,0,.2.2Z" style="fill:#fff; stroke-width:0px;"/><path d="M485.8,495v2.6c0,.1,0,.2-.2.2h-3.5c-.1,0-.2,0-.2-.2v-2.6c0-.1,0-.2.2-.2h3.5c.1,0,.2,0,.2.2Z" style="fill:#fff; stroke-width:0px;"/><path d="M489.4,495v2.6c0,.1,0,.2-.2.2h-3.5c-.1,0-.2,0-.2-.2v-2.6c0-.1,0-.2.2-.2h3.5c.1,0,.2,0,.2.2Z" style="fill:#fff; stroke-width:0px;"/><path d="M492.9,495v2.6c0,.1,0,.2-.2.2h-3.5c-.1,0-.2,0-.2-.2v-2.6c0-.1,0-.2.2-.2h3.5c.1,0,.2,0,.2.2Z" style="fill:#fff; stroke-width:0px;"/><path d="M496.4,495v2.6c0,.1,0,.2-.2.2h-3.5c-.1,0-.2,0-.2-.2v-2.6c0-.1,0-.2.2-.2h3.5c.1,0,.2,0,.2.2Z" style="fill:#fff; stroke-width:0px;"/><path d="M500,495v2.6c0,.1,0,.2-.2.2h-3.5c-.1,0-.2,0-.2-.2v-2.6c0-.1,0-.2.2-.2h3.5c.1,0,.2,0,.2.2Z" style="fill:#fff; stroke-width:0px;"/><path d="M502.9,489l2.8-.3v5.4c0,2.5-1.4,3.8-4.4,3.8h-1.5c-.1,0-.2,0-.2-.2v-2.6c0-.1.1-.2.2-.2h1.5c1,0,1.5-.6,1.5-1.9v-4ZM502.8,487.6l-1.9-1.9,1.9-1.9,1.4,1.4,1.4-1.4,1.9,1.9-1.9,1.9-1.4-1.4-1.4,1.4Z" style="fill:#fff; stroke-width:0px;"/><path d="M517.5,495v2.6c0,.1,0,.2-.2.2h-.9c-.3,2.8-3.2,3.9-7.5,3.9l-.3-2.3c3.1,0,4.6-.4,4.9-1.6h-1.5c-2.6,0-4.3-1.8-4.3-4.5s2-4.7,4.5-4.7,4.3,1.7,4.3,4.6v1.7h.9c.1,0,.2,0,.2.2ZM512.3,495c.4,0,.9,0,1.4,0v-1.6c0-1.2-.7-1.9-1.7-1.9s-1.7.7-1.7,1.7.9,1.8,2,1.8Z" style="fill:#fff; stroke-width:0px;"/><path d="M521.1,495v2.6c0,.1,0,.2-.2.2h-3.5c-.1,0-.2,0-.2-.2v-2.6c0-.1,0-.2.2-.2h3.5c.1,0,.2,0,.2.2Z" style="fill:#fff; stroke-width:0px;"/><path d="M524.6,495v2.6c0,.1,0,.2-.2.2h-3.5c-.1,0-.2,0-.2-.2v-2.6c0-.1,0-.2.2-.2h3.5c.1,0,.2,0,.2.2Z" style="fill:#fff; stroke-width:0px;"/><path d="M528.2,495v2.6c0,.1,0,.2-.2.2h-3.5c-.1,0-.2,0-.2-.2v-2.6c0-.1,0-.2.2-.2h3.5c.1,0,.2,0,.2.2Z" style="fill:#fff; stroke-width:0px;"/><path d="M531.7,495v2.6c0,.1,0,.2-.2.2h-3.5c-.1,0-.2,0-.2-.2v-2.6c0-.1,0-.2.2-.2h3.5c.1,0,.2,0,.2.2Z" style="fill:#fff; stroke-width:0px;"/><path d="M535.3,495v2.6c0,.1,0,.2-.2.2h-3.5c-.1,0-.2,0-.2-.2v-2.6c0-.1,0-.2.2-.2h3.5c.1,0,.2,0,.2.2Z" style="fill:#fff; stroke-width:0px;"/><path d="M538.8,495v2.6c0,.1,0,.2-.2.2h-3.5c-.1,0-.2,0-.2-.2v-2.6c0-.1,0-.2.2-.2h3.5c.1,0,.2,0,.2.2Z" style="fill:#fff; stroke-width:0px;"/><path d="M542.4,495v2.6c0,.1,0,.2-.2.2h-3.5c-.1,0-.2,0-.2-.2v-2.6c0-.1,0-.2.2-.2h3.5c.1,0,.2,0,.2.2Z" style="fill:#fff; stroke-width:0px;"/><path d="M542,497.7v-2.6c0-.1,0-.2.2-.2,1,0,1.5-.6,1.5-1.9v-8.1s2.9-.3,2.9-.3v9.5c0,2.6-1.5,3.9-4.4,3.9s-.2,0-.2-.2Z" style="fill:#fff; stroke-width:0px;"/><path d="M496.6,517.7v9.1h6.2v1.4h-8v-10.5h1.7Z" style="fill:#ee304c; stroke-width:0px;"/><path d="M505.9,527.8c-.9-.4-1.5-1-2-1.9-.5-.8-.7-1.8-.7-2.9s.2-2.1.7-3c.5-.8,1.1-1.5,2-1.9.9-.4,1.9-.7,3.1-.7s2.3.2,3.1.7c.9.4,1.5,1.1,2,1.9.5.8.7,1.8.7,3s-.2,2.1-.7,2.9c-.5.8-1.1,1.4-2,1.9-.9.4-1.9.6-3.1.6s-2.3-.2-3.1-.6ZM506.1,526c.7.7,1.7,1,3,1s2.3-.3,3-1c.7-.7,1.1-1.7,1.1-2.9s-.4-2.3-1.1-3c-.7-.7-1.7-1.1-3-1.1s-2.3.4-3,1.1c-.7.7-1.1,1.7-1.1,3s.4,2.2,1.1,2.9Z" style="fill:#ee304c; stroke-width:0px;"/><path d="M518.7,519.1h-3.7v-1.4h9.2v1.4h-3.8v9.1h-1.7v-9.1Z" style="fill:#ee304c; stroke-width:0px;"/><path d="M533.9,527.3c-.9.8-2.2,1.2-3.8,1.2s-3-.4-3.8-1.2c-.9-.8-1.3-1.9-1.3-3.4v-6.2h1.7v6.2c0,1,.3,1.8.9,2.4.6.5,1.4.8,2.6.8s2-.3,2.6-.8c.6-.5.9-1.3.9-2.4v-6.2h1.7v6.2c0,1.5-.4,2.6-1.3,3.4Z" style="fill:#ee304c; stroke-width:0px;"/><path d="M542.9,519.2c-.7-.1-1.4-.2-2.1-.2s-1.5.1-1.9.4-.6.6-.6,1.1,0,.6.3.8c.2.2.5.4.9.5.4.2.9.3,1.6.5,1,.2,1.9.5,2.5.7.6.3,1.1.6,1.4,1,.3.4.5.9.5,1.5,0,1-.4,1.8-1.3,2.3-.9.5-2,.8-3.6.8s-3.2-.3-4.3-.8v-1.5c.7.2,1.3.5,2,.6.7.2,1.5.2,2.3.2s1.8-.1,2.3-.4c.5-.3.8-.7.8-1.2s-.1-.6-.3-.8c-.2-.2-.5-.4-1-.6-.4-.2-1-.3-1.8-.5-1-.2-1.7-.4-2.3-.7s-1-.6-1.3-1c-.3-.4-.5-.9-.5-1.4,0-.9.4-1.6,1.1-2.1s1.8-.7,3.2-.7,2.8.2,3.9.7v1.5c-.6-.2-1.2-.4-1.9-.6Z" style="fill:#ee304c; stroke-width:0px;"/><path d="M54.5,234h-5.3v-1.4c-.1,0,5.1-7,5.1-7h2.2v6.8h1.7v1.6h-1.7v2.3h-1.9v-2.3ZM54.5,232.5v-4.4l-3.3,4.4h3.3Z" style="fill:#fff; stroke-width:0px;"/><path d="M59.9,234.6h1.8l-1.4,3.2h-1.4l.9-3.2Z" style="fill:#fff; stroke-width:0px;"/><path d="M67.5,236.6c-1,0-1.8-.2-2.5-.7s-1.2-1.2-1.5-2c-.3-.8-.5-1.8-.5-2.8s.2-2,.5-2.8c.4-.8.9-1.5,1.6-2,.7-.5,1.5-.7,2.4-.7s1.9.3,2.6.8c.7.5,1.2,1.2,1.5,2,.3.8.5,1.8.5,2.8s-.2,2-.5,2.8c-.3.8-.9,1.5-1.5,2-.7.5-1.5.7-2.5.7ZM67.5,234.8c.5,0,1-.2,1.4-.5.4-.3.7-.8.9-1.3s.3-1.2.3-2-.1-1.4-.3-1.9-.5-1-.9-1.3c-.4-.3-.9-.5-1.4-.5s-1,.2-1.4.5c-.4.3-.7.8-.9,1.3-.2.6-.3,1.2-.3,2s.1,1.4.3,1.9c.2.6.5,1,.9,1.3.4.3.9.5,1.4.5Z" style="fill:#fff; stroke-width:0px;"/><path d="M77.6,236.6c-1,0-1.8-.2-2.5-.7s-1.2-1.2-1.5-2c-.3-.8-.5-1.8-.5-2.8s.2-2,.5-2.8c.4-.8.9-1.5,1.6-2,.7-.5,1.5-.7,2.4-.7s1.9.3,2.6.8c.7.5,1.2,1.2,1.5,2,.3.8.5,1.8.5,2.8s-.2,2-.5,2.8c-.3.8-.9,1.5-1.5,2-.7.5-1.5.7-2.5.7ZM77.6,234.8c.5,0,1-.2,1.4-.5.4-.3.7-.8.9-1.3s.3-1.2.3-2-.1-1.4-.3-1.9-.5-1-.9-1.3c-.4-.3-.9-.5-1.4-.5s-1,.2-1.4.5c-.4.3-.7.8-.9,1.3-.2.6-.3,1.2-.3,2s.1,1.4.3,1.9c.2.6.5,1,.9,1.3.4.3.9.5,1.4.5Z" style="fill:#fff; stroke-width:0px;"/><path d="M87.8,236.6c-1,0-1.8-.2-2.5-.7s-1.2-1.2-1.5-2c-.3-.8-.5-1.8-.5-2.8s.2-2,.5-2.8c.4-.8.9-1.5,1.6-2,.7-.5,1.5-.7,2.4-.7s1.9.3,2.6.8c.7.5,1.2,1.2,1.5,2,.3.8.5,1.8.5,2.8s-.2,2-.5,2.8c-.3.8-.9,1.5-1.5,2-.7.5-1.5.7-2.5.7ZM87.8,234.8c.5,0,1-.2,1.4-.5.4-.3.7-.8.9-1.3s.3-1.2.3-2-.1-1.4-.3-1.9-.5-1-.9-1.3c-.4-.3-.9-.5-1.4-.5s-1,.2-1.4.5c-.4.3-.7.8-.9,1.3-.2.6-.3,1.2-.3,2s.1,1.4.3,1.9c.2.6.5,1,.9,1.3.4.3.9.5,1.4.5Z" style="fill:#fff; stroke-width:0px;"/><path d="M98,225.7h1.9v10.6h-1.9v-10.6Z" style="fill:#fff; stroke-width:0px;"/><path d="M107.5,236.5c-1,0-2-.2-2.9-.7-.9-.5-1.6-1.2-2.1-2s-.8-1.8-.8-2.8.3-1.9.8-2.8c.5-.8,1.2-1.5,2.1-2,.9-.5,1.8-.7,2.9-.7s2,.2,2.9.7c.9.5,1.6,1.2,2.1,2,.5.8.8,1.8.8,2.8s-.3,1.9-.8,2.8-1.2,1.5-2.1,2c-.9.5-1.8.7-2.9.7ZM107.5,234.7c.7,0,1.3-.2,1.9-.5.6-.3,1-.8,1.4-1.3.3-.6.5-1.2.5-1.9s-.2-1.4-.5-1.9c-.3-.6-.8-1-1.4-1.4s-1.2-.5-1.9-.5-1.3.2-1.9.5-1,.8-1.4,1.4c-.3.6-.5,1.2-.5,1.9s.2,1.3.5,1.9.8,1,1.4,1.3,1.2.5,1.9.5ZM109.1,235.8l1.7-.8,1.9,2.7-1.8,1-1.8-2.9Z" style="fill:#fff; stroke-width:0px;"/><path d="M115.1,225.7h4.1c1.1,0,2.1.2,3,.7.9.4,1.5,1.1,2,1.9.5.8.7,1.7.7,2.8s-.2,2-.7,2.8-1.1,1.4-2,1.9c-.9.4-1.8.7-2.9.7h-4.1v-10.6ZM119.2,234.6c.8,0,1.4-.1,2-.4.6-.3,1-.7,1.3-1.2.3-.5.4-1.2.4-1.9s-.1-1.4-.4-1.9c-.3-.5-.7-1-1.3-1.3-.6-.3-1.2-.4-2-.4h-2.1v7.2h2.1Z" style="fill:#fff; stroke-width:0px;"/><path d="M53.8,321.9c-.7,0-1.3-.1-1.8-.4s-1.1-.6-1.5-1.2-.6-1.2-.7-2.1h1.9c0,.4.2.8.4,1s.5.5.8.6.6.2.9.2.7,0,1-.3.5-.4.7-.7c.2-.3.2-.6.2-1s0-.7-.3-1c-.2-.3-.5-.5-.8-.6-.3-.1-.8-.2-1.2-.2h-2.1s-.8-.7-.8-.7l.6-4.7h5.9v1.6h-4.2l-.3,2.4h1.5c.8,0,1.4.1,2,.4.6.3,1,.6,1.3,1.1.3.5.5,1,.5,1.7s-.2,1.3-.5,1.8c-.3.6-.8,1-1.4,1.4s-1.3.5-2.1.5Z" style="fill:#fff; stroke-width:0px;"/><path d="M59.8,319.9h1.8l-1.4,3.2h-1.4l.9-3.2Z" style="fill:#fff; stroke-width:0px;"/><path d="M67.3,321.9c-1,0-1.8-.2-2.5-.7s-1.2-1.2-1.5-2c-.3-.8-.5-1.8-.5-2.8s.2-2,.5-2.8c.4-.8.9-1.5,1.6-2,.7-.5,1.5-.7,2.4-.7s1.9.3,2.6.8c.7.5,1.2,1.2,1.5,2,.3.8.5,1.8.5,2.8s-.2,2-.5,2.8c-.3.8-.9,1.5-1.5,2-.7.5-1.5.7-2.5.7ZM67.3,320.1c.5,0,1-.2,1.4-.5.4-.3.7-.8.9-1.3s.3-1.2.3-2-.1-1.4-.3-1.9-.5-1-.9-1.3c-.4-.3-.9-.5-1.4-.5s-1,.2-1.4.5c-.4.3-.7.8-.9,1.3-.2.6-.3,1.2-.3,2s.1,1.4.3,1.9c.2.6.5,1,.9,1.3.4.3.9.5,1.4.5Z" style="fill:#fff; stroke-width:0px;"/><path d="M77.5,321.9c-1,0-1.8-.2-2.5-.7s-1.2-1.2-1.5-2c-.3-.8-.5-1.8-.5-2.8s.2-2,.5-2.8c.4-.8.9-1.5,1.6-2,.7-.5,1.5-.7,2.4-.7s1.9.3,2.6.8c.7.5,1.2,1.2,1.5,2,.3.8.5,1.8.5,2.8s-.2,2-.5,2.8c-.3.8-.9,1.5-1.5,2-.7.5-1.5.7-2.5.7ZM77.5,320.1c.5,0,1-.2,1.4-.5.4-.3.7-.8.9-1.3s.3-1.2.3-2-.1-1.4-.3-1.9-.5-1-.9-1.3c-.4-.3-.9-.5-1.4-.5s-1,.2-1.4.5c-.4.3-.7.8-.9,1.3-.2.6-.3,1.2-.3,2s.1,1.4.3,1.9c.2.6.5,1,.9,1.3.4.3.9.5,1.4.5Z" style="fill:#fff; stroke-width:0px;"/><path d="M87.6,321.9c-1,0-1.8-.2-2.5-.7s-1.2-1.2-1.5-2c-.3-.8-.5-1.8-.5-2.8s.2-2,.5-2.8c.4-.8.9-1.5,1.6-2,.7-.5,1.5-.7,2.4-.7s1.9.3,2.6.8c.7.5,1.2,1.2,1.5,2,.3.8.5,1.8.5,2.8s-.2,2-.5,2.8c-.3.8-.9,1.5-1.5,2-.7.5-1.5.7-2.5.7ZM87.6,320.1c.5,0,1-.2,1.4-.5.4-.3.7-.8.9-1.3s.3-1.2.3-2-.1-1.4-.3-1.9-.5-1-.9-1.3c-.4-.3-.9-.5-1.4-.5s-1,.2-1.4.5c-.4.3-.7.8-.9,1.3-.2.6-.3,1.2-.3,2s.1,1.4.3,1.9c.2.6.5,1,.9,1.3.4.3.9.5,1.4.5Z" style="fill:#fff; stroke-width:0px;"/><path d="M97.9,311h1.9v10.6h-1.9v-10.6Z" style="fill:#fff; stroke-width:0px;"/><path d="M107.3,321.9c-1,0-2-.2-2.9-.7-.9-.5-1.6-1.2-2.1-2s-.8-1.8-.8-2.8.3-1.9.8-2.8c.5-.8,1.2-1.5,2.1-2,.9-.5,1.8-.7,2.9-.7s2,.2,2.9.7c.9.5,1.6,1.2,2.1,2,.5.8.8,1.8.8,2.8s-.3,1.9-.8,2.8-1.2,1.5-2.1,2c-.9.5-1.8.7-2.9.7ZM107.3,320.1c.7,0,1.3-.2,1.9-.5.6-.3,1-.8,1.4-1.3.3-.6.5-1.2.5-1.9s-.2-1.4-.5-1.9c-.3-.6-.8-1-1.4-1.4s-1.2-.5-1.9-.5-1.3.2-1.9.5-1,.8-1.4,1.4c-.3.6-.5,1.2-.5,1.9s.2,1.3.5,1.9.8,1,1.4,1.3,1.2.5,1.9.5ZM109,321.1l1.7-.8,1.9,2.7-1.8,1-1.8-2.9Z" style="fill:#fff; stroke-width:0px;"/><path d="M115,311h4.1c1.1,0,2.1.2,3,.7.9.4,1.5,1.1,2,1.9.5.8.7,1.7.7,2.8s-.2,2-.7,2.8-1.1,1.4-2,1.9c-.9.4-1.8.7-2.9.7h-4.1v-10.6ZM119.1,319.9c.8,0,1.4-.1,2-.4.6-.3,1-.7,1.3-1.2.3-.5.4-1.2.4-1.9s-.1-1.4-.4-1.9c-.3-.5-.7-1-1.3-1.3-.6-.3-1.2-.4-2-.4h-2.1v7.2h2.1Z" style="fill:#fff; stroke-width:0px;"/><path d="M55,407.4h-5.3v-1.4c-.1,0,5.1-7,5.1-7h2.2v6.8h1.7v1.6h-1.7v2.3h-1.9v-2.3ZM55,405.9v-4.4l-3.3,4.4h3.3Z" style="fill:#fff; stroke-width:0px;"/><path d="M60.4,408h1.8l-1.4,3.2h-1.4l.9-3.2Z" style="fill:#fff; stroke-width:0px;"/><path d="M67.6,410c-.7,0-1.3-.1-1.8-.4s-1.1-.6-1.5-1.2-.6-1.2-.7-2.1h1.9c0,.4.2.8.4,1s.5.5.8.6.6.2.9.2.7,0,1-.3.5-.4.7-.7c.2-.3.2-.6.2-1s0-.7-.3-1c-.2-.3-.5-.5-.8-.6-.3-.1-.8-.2-1.2-.2h-2.1s-.8-.7-.8-.7l.6-4.7h5.9v1.6h-4.2l-.3,2.4h1.5c.8,0,1.4.1,2,.4.6.3,1,.6,1.3,1.1.3.5.5,1,.5,1.7s-.2,1.3-.5,1.8c-.3.6-.8,1-1.4,1.4s-1.3.5-2.1.5Z" style="fill:#fff; stroke-width:0px;"/><path d="M77.1,410c-1,0-1.8-.2-2.5-.7s-1.2-1.2-1.5-2c-.3-.8-.5-1.8-.5-2.8s.2-2,.5-2.8c.4-.8.9-1.5,1.6-2,.7-.5,1.5-.7,2.4-.7s1.9.3,2.6.8c.7.5,1.2,1.2,1.5,2,.3.8.5,1.8.5,2.8s-.2,2-.5,2.8c-.3.8-.9,1.5-1.5,2-.7.5-1.5.7-2.5.7ZM77.1,408.2c.5,0,1-.2,1.4-.5.4-.3.7-.8.9-1.3s.3-1.2.3-2-.1-1.4-.3-1.9-.5-1-.9-1.3c-.4-.3-.9-.5-1.4-.5s-1,.2-1.4.5c-.4.3-.7.8-.9,1.3-.2.6-.3,1.2-.3,2s.1,1.4.3,1.9c.2.6.5,1,.9,1.3.4.3.9.5,1.4.5Z" style="fill:#fff; stroke-width:0px;"/><path d="M87.3,410c-1,0-1.8-.2-2.5-.7s-1.2-1.2-1.5-2c-.3-.8-.5-1.8-.5-2.8s.2-2,.5-2.8c.4-.8.9-1.5,1.6-2,.7-.5,1.5-.7,2.4-.7s1.9.3,2.6.8c.7.5,1.2,1.2,1.5,2,.3.8.5,1.8.5,2.8s-.2,2-.5,2.8c-.3.8-.9,1.5-1.5,2-.7.5-1.5.7-2.5.7ZM87.3,408.2c.5,0,1-.2,1.4-.5.4-.3.7-.8.9-1.3s.3-1.2.3-2-.1-1.4-.3-1.9-.5-1-.9-1.3c-.4-.3-.9-.5-1.4-.5s-1,.2-1.4.5c-.4.3-.7.8-.9,1.3-.2.6-.3,1.2-.3,2s.1,1.4.3,1.9c.2.6.5,1,.9,1.3.4.3.9.5,1.4.5Z" style="fill:#fff; stroke-width:0px;"/><path d="M97.5,399.1h1.9v10.6h-1.9v-10.6Z" style="fill:#fff; stroke-width:0px;"/><path d="M106.9,409.9c-1,0-2-.2-2.9-.7-.9-.5-1.6-1.2-2.1-2s-.8-1.8-.8-2.8.3-1.9.8-2.8c.5-.8,1.2-1.5,2.1-2,.9-.5,1.8-.7,2.9-.7s2,.2,2.9.7c.9.5,1.6,1.2,2.1,2,.5.8.8,1.8.8,2.8s-.3,1.9-.8,2.8-1.2,1.5-2.1,2c-.9.5-1.8.7-2.9.7ZM106.9,408.2c.7,0,1.3-.2,1.9-.5.6-.3,1-.8,1.4-1.3.3-.6.5-1.2.5-1.9s-.2-1.4-.5-1.9c-.3-.6-.8-1-1.4-1.4s-1.2-.5-1.9-.5-1.3.2-1.9.5-1,.8-1.4,1.4c-.3.6-.5,1.2-.5,1.9s.2,1.3.5,1.9.8,1,1.4,1.3,1.2.5,1.9.5ZM108.6,409.2l1.7-.8,1.9,2.7-1.8,1-1.8-2.9Z" style="fill:#fff; stroke-width:0px;"/><path d="M114.6,399.1h4.1c1.1,0,2.1.2,3,.7.9.4,1.5,1.1,2,1.9.5.8.7,1.7.7,2.8s-.2,2-.7,2.8-1.1,1.4-2,1.9c-.9.4-1.8.7-2.9.7h-4.1v-10.6ZM118.7,408c.8,0,1.4-.1,2-.4.6-.3,1-.7,1.3-1.2.3-.5.4-1.2.4-1.9s-.1-1.4-.4-1.9c-.3-.5-.7-1-1.3-1.3-.6-.3-1.2-.4-2-.4h-2.1v7.2h2.1Z" style="fill:#fff; stroke-width:0px;"/><path d="M54.5,498.5h-5.3v-1.4c-.1,0,5.1-7,5.1-7h2.2v6.8h1.7v1.6h-1.7v2.3h-1.9v-2.3ZM54.5,496.9v-4.4l-3.3,4.4h3.3Z" style="fill:#fff; stroke-width:0px;"/><path d="M59.9,499h1.8l-1.4,3.2h-1.4l.9-3.2Z" style="fill:#fff; stroke-width:0px;"/><path d="M67.5,501c-1,0-1.8-.2-2.5-.7s-1.2-1.2-1.5-2-.5-1.8-.5-2.8.2-2,.5-2.8.9-1.5,1.6-2,1.5-.7,2.4-.7,1.9.3,2.6.8,1.2,1.2,1.5,2,.5,1.8.5,2.8-.2,2-.5,2.8-.9,1.5-1.5,2-1.5.7-2.5.7ZM67.5,499.2c.5,0,1-.2,1.4-.5s.7-.8.9-1.3.3-1.2.3-2-.1-1.4-.3-1.9-.5-1-.9-1.3-.9-.5-1.4-.5-1,.2-1.4.5-.7.8-.9,1.3-.3,1.2-.3,2,.1,1.4.3,1.9.5,1,.9,1.3.9.5,1.4.5Z" style="fill:#fff; stroke-width:0px;"/><path d="M77.6,501c-1,0-1.8-.2-2.5-.7s-1.2-1.2-1.5-2-.5-1.8-.5-2.8.2-2,.5-2.8.9-1.5,1.6-2,1.5-.7,2.4-.7,1.9.3,2.6.8,1.2,1.2,1.5,2,.5,1.8.5,2.8-.2,2-.5,2.8-.9,1.5-1.5,2-1.5.7-2.5.7ZM77.6,499.2c.5,0,1-.2,1.4-.5s.7-.8.9-1.3.3-1.2.3-2-.1-1.4-.3-1.9-.5-1-.9-1.3-.9-.5-1.4-.5-1,.2-1.4.5-.7.8-.9,1.3-.3,1.2-.3,2,.1,1.4.3,1.9.5,1,.9,1.3.9.5,1.4.5Z" style="fill:#fff; stroke-width:0px;"/><path d="M87.8,501c-1,0-1.8-.2-2.5-.7s-1.2-1.2-1.5-2-.5-1.8-.5-2.8.2-2,.5-2.8.9-1.5,1.6-2,1.5-.7,2.4-.7,1.9.3,2.6.8,1.2,1.2,1.5,2,.5,1.8.5,2.8-.2,2-.5,2.8-.9,1.5-1.5,2-1.5.7-2.5.7ZM87.8,499.2c.5,0,1-.2,1.4-.5s.7-.8.9-1.3.3-1.2.3-2-.1-1.4-.3-1.9-.5-1-.9-1.3-.9-.5-1.4-.5-1,.2-1.4.5-.7.8-.9,1.3-.3,1.2-.3,2,.1,1.4.3,1.9.5,1,.9,1.3.9.5,1.4.5Z" style="fill:#fff; stroke-width:0px;"/><path d="M98,490.1h1.9v10.6h-1.9v-10.6Z" style="fill:#fff; stroke-width:0px;"/><path d="M107.5,501c-1,0-2-.2-2.9-.7s-1.6-1.2-2.1-2-.8-1.8-.8-2.8.3-1.9.8-2.8,1.2-1.5,2.1-2,1.8-.7,2.9-.7,2,.2,2.9.7,1.6,1.2,2.1,2,.8,1.8.8,2.8-.3,1.9-.8,2.8-1.2,1.5-2.1,2-1.8.7-2.9.7ZM107.5,499.2c.7,0,1.3-.2,1.9-.5s1-.8,1.4-1.3.5-1.2.5-1.9-.2-1.4-.5-1.9-.8-1-1.4-1.4-1.2-.5-1.9-.5-1.3.2-1.9.5-1,.8-1.4,1.4-.5,1.2-.5,1.9.2,1.3.5,1.9.8,1,1.4,1.3,1.2.5,1.9.5ZM109.1,500.2l1.7-.8,1.9,2.7-1.8,1-1.8-2.9Z" style="fill:#fff; stroke-width:0px;"/><path d="M115.1,490.1h4.1c1.1,0,2.1.2,3,.7s1.5,1.1,2,1.9.7,1.7.7,2.8-.2,2-.7,2.8-1.1,1.4-2,1.9-1.8.7-2.9.7h-4.1v-10.6ZM119.2,499c.8,0,1.4-.1,2-.4s1-.7,1.3-1.2.4-1.2.4-1.9-.1-1.4-.4-1.9-.7-1-1.3-1.3-1.2-.4-2-.4h-2.1v7.2h2.1Z" style="fill:#fff; stroke-width:0px;"/><rect x="162.9" y="230.7" width="245.1" height=".8" style="fill:#fff; stroke-width:0px;"/><rect x="162.9" y="317.1" width="245.1" height=".8" style="fill:#fff; stroke-width:0px;"/><rect x="162.9" y="405.8" width="245.1" height=".8" style="fill:#fff; stroke-width:0px;"/><rect x="162.9" y="494.5" width="245.1" height=".8" style="fill:#fff; stroke-width:0px;"/><path d="M456,580.6v2.6c0,.1,0,.2-.2.2h-.9c-.3,2.8-3.2,3.9-7.5,3.9l-.3-2.3c3.1,0,4.6-.4,4.9-1.6h-1.5c-2.6,0-4.3-1.8-4.3-4.5s2-4.7,4.5-4.7,4.3,1.7,4.3,4.6v1.7h.9c.1,0,.2,0,.2.2ZM450.7,580.6c.4,0,.9,0,1.4,0v-1.6c0-1.2-.7-1.9-1.7-1.9s-1.7.7-1.7,1.7.9,1.8,2,1.8Z" style="fill:#fff; stroke-width:0px;"/><path d="M459.5,580.6v2.6c0,.1,0,.2-.2.2h-3.5c-.1,0-.2,0-.2-.2v-2.6c0-.1,0-.2.2-.2h3.5c.1,0,.2,0,.2.2Z" style="fill:#fff; stroke-width:0px;"/><path d="M463.1,580.6v2.6c0,.1,0,.2-.2.2h-3.5c-.1,0-.2,0-.2-.2v-2.6c0-.1,0-.2.2-.2h3.5c.1,0,.2,0,.2.2Z" style="fill:#fff; stroke-width:0px;"/><path d="M466.6,580.6v2.6c0,.1,0,.2-.2.2h-3.5c-.1,0-.2,0-.2-.2v-2.6c0-.1,0-.2.2-.2h3.5c.1,0,.2,0,.2.2Z" style="fill:#fff; stroke-width:0px;"/><path d="M470.1,580.6v2.6c0,.1,0,.2-.2.2h-3.5c-.1,0-.2,0-.2-.2v-2.6c0-.1,0-.2.2-.2h3.5c.1,0,.2,0,.2.2Z" style="fill:#fff; stroke-width:0px;"/><path d="M473.7,580.6v2.6c0,.1,0,.2-.2.2h-3.5c-.1,0-.2,0-.2-.2v-2.6c0-.1,0-.2.2-.2h3.5c.1,0,.2,0,.2.2Z" style="fill:#fff; stroke-width:0px;"/><path d="M477.2,580.6v2.6c0,.1,0,.2-.2.2h-3.5c-.1,0-.2,0-.2-.2v-2.6c0-.1,0-.2.2-.2h3.5c.1,0,.2,0,.2.2Z" style="fill:#fff; stroke-width:0px;"/><path d="M480.8,580.6v2.6c0,.1,0,.2-.2.2h-3.5c-.1,0-.2,0-.2-.2v-2.6c0-.1,0-.2.2-.2h3.5c.1,0,.2,0,.2.2Z" style="fill:#fff; stroke-width:0px;"/><path d="M484.3,580.6v2.6c0,.1,0,.2-.2.2h-3.5c-.1,0-.2,0-.2-.2v-2.6c0-.1,0-.2.2-.2h3.5c.1,0,.2,0,.2.2Z" style="fill:#fff; stroke-width:0px;"/><path d="M487.9,580.6v2.6c0,.1,0,.2-.2.2h-3.5c-.1,0-.2,0-.2-.2v-2.6c0-.1,0-.2.2-.2h3.5c.1,0,.2,0,.2.2Z" style="fill:#fff; stroke-width:0px;"/><path d="M491.4,580.6v2.6c0,.1,0,.2-.2.2h-3.5c-.1,0-.2,0-.2-.2v-2.6c0-.1,0-.2.2-.2h3.5c.1,0,.2,0,.2.2Z" style="fill:#fff; stroke-width:0px;"/><path d="M494.9,580.6v2.6c0,.1,0,.2-.2.2h-3.5c-.1,0-.2,0-.2-.2v-2.6c0-.1,0-.2.2-.2h3.5c.1,0,.2,0,.2.2Z" style="fill:#fff; stroke-width:0px;"/><path d="M498.5,580.6v2.6c0,.1,0,.2-.2.2h-3.5c-.1,0-.2,0-.2-.2v-2.6c0-.1,0-.2.2-.2h3.5c.1,0,.2,0,.2.2Z" style="fill:#fff; stroke-width:0px;"/><path d="M502,580.6v2.6c0,.1,0,.2-.2.2h-3.5c-.1,0-.2,0-.2-.2v-2.6c0-.1,0-.2.2-.2h3.5c.1,0,.2,0,.2.2Z" style="fill:#fff; stroke-width:0px;"/><path d="M505.6,580.6v2.6c0,.1,0,.2-.2.2h-3.5c-.1,0-.2,0-.2-.2v-2.6c0-.1,0-.2.2-.2h3.5c.1,0,.2,0,.2.2Z" style="fill:#fff; stroke-width:0px;"/><path d="M509.1,580.6v2.6c0,.1,0,.2-.2.2h-3.5c-.1,0-.2,0-.2-.2v-2.6c0-.1,0-.2.2-.2h3.5c.1,0,.2,0,.2.2Z" style="fill:#fff; stroke-width:0px;"/><path d="M512.7,580.6v2.6c0,.1,0,.2-.2.2h-3.5c-.1,0-.2,0-.2-.2v-2.6c0-.1,0-.2.2-.2h3.5c.1,0,.2,0,.2.2Z" style="fill:#fff; stroke-width:0px;"/><path d="M516.2,580.6v2.6c0,.1,0,.2-.2.2h-3.5c-.1,0-.2,0-.2-.2v-2.6c0-.1,0-.2.2-.2h3.5c.1,0,.2,0,.2.2Z" style="fill:#fff; stroke-width:0px;"/><path d="M519.8,580.6v2.6c0,.1,0,.2-.2.2h-3.5c-.1,0-.2,0-.2-.2v-2.6c0-.1,0-.2.2-.2h3.5c.1,0,.2,0,.2.2Z" style="fill:#fff; stroke-width:0px;"/><path d="M523.8,588.2l-1.3-1.3-1.3,1.3-1.9-1.9,1.9-1.9,1.3,1.3,1.3-1.3,1.9,1.9-1.9,1.9ZM519.4,583.3v-2.6c0-.1.1-.2.2-.2h1.5c1,0,1.5-.6,1.5-1.9v-4s2.8-.3,2.8-.3v5.4c0,2.5-1.4,3.8-4.4,3.8h-1.5c-.1,0-.2,0-.2-.2Z" style="fill:#fff; stroke-width:0px;"/><path d="M526.1,585.1c1.5,0,2.6-.6,2.6-2.2v-8.4s2.8-.3,2.8-.3v8.8c0,3.2-1.7,4.3-5.2,4.3l-.2-2.3Z" style="fill:#fff; stroke-width:0px;"/><path d="M541.7,578.8v4.3c0,3.2-3.1,4.3-7.5,4.3l-.3-2.3c3.4,0,4.9-.5,5-2-.6.2-1.1.4-1.7.4-2.5,0-4.2-1.8-4.2-4.5s2-4.7,4.5-4.7,4.3,1.7,4.3,4.6ZM537.5,580.6c.4,0,.9,0,1.4-.2v-1.5c0-1.2-.7-1.9-1.7-1.9s-1.7.7-1.7,1.7.8,1.8,1.9,1.8Z" style="fill:#fff; stroke-width:0px;"/><path d="M543.8,570.5l2.8-.3v13.3h-2.8v-13Z" style="fill:#fff; stroke-width:0px;"/><path d="M503.1,612.5c-.9-.4-1.5-1-2-1.9-.5-.8-.7-1.8-.7-2.9s.2-2.1.7-3,1.1-1.5,2-1.9c.9-.4,1.9-.7,3.1-.7s2.3.2,3.1.7c.9.4,1.5,1.1,2,1.9s.7,1.8.7,3-.2,2.1-.7,2.9c-.5.8-1.1,1.4-2,1.9-.9.4-1.9.6-3.1.6s-2.3-.2-3.1-.6ZM503.2,610.6c.7.7,1.7,1,3,1s2.3-.3,3-1c.7-.7,1.1-1.7,1.1-2.9s-.4-2.3-1.1-3c-.7-.7-1.7-1.1-3-1.1s-2.3.4-3,1.1-1.1,1.7-1.1,3,.4,2.2,1.1,2.9Z" style="fill:#ee304c; stroke-width:0px;"/><path d="M513.7,602.4h4.6c1.4,0,2.4.3,3.2.8.8.6,1.1,1.3,1.1,2.4s-.3,1.7-1,2.2c-.7.5-1.6.9-2.8.9l4,4.2h-2l-5.1-5.3h2.4c.8,0,1.4-.2,1.9-.5.4-.3.7-.8.7-1.5s-.2-1.1-.7-1.5c-.4-.3-1.1-.5-1.9-.5h-2.8v9.2h-1.7v-10.5Z" style="fill:#ee304c; stroke-width:0px;"/><path d="M532.5,602.4v1.4h-6.6v3.2h5.4v1.2h-5.4v3.3h6.8v1.4h-8.5v-10.5h8.3Z" style="fill:#ee304c; stroke-width:0px;"/><path d="M536.3,612.5c-.9-.4-1.5-1-2-1.9-.5-.8-.7-1.8-.7-2.9s.2-2.1.7-3,1.1-1.5,2-1.9c.9-.4,1.9-.7,3.1-.7s2.3.2,3.1.7c.9.4,1.5,1.1,2,1.9s.7,1.8.7,3-.2,2.1-.7,2.9c-.5.8-1.1,1.4-2,1.9-.9.4-1.9.6-3.1.6s-2.3-.2-3.1-.6ZM536.5,610.6c.7.7,1.7,1,3,1s2.3-.3,3-1c.7-.7,1.1-1.7,1.1-2.9s-.4-2.3-1.1-3c-.7-.7-1.7-1.1-3-1.1s-2.3.4-3,1.1-1.1,1.7-1.1,3,.4,2.2,1.1,2.9Z" style="fill:#ee304c; stroke-width:0px;"/><path d="M54.5,579.6h-5.3v-1.4c-.1,0,5.1-7,5.1-7h2.2v6.8h1.7v1.6h-1.7v2.3h-1.9v-2.3ZM54.5,578v-4.4l-3.3,4.4h3.3Z" style="fill:#fff; stroke-width:0px;"/><path d="M59.9,580.1h1.8l-1.4,3.2h-1.4l.9-3.2Z" style="fill:#fff; stroke-width:0px;"/><path d="M67.5,582.1c-1,0-1.8-.2-2.5-.7s-1.2-1.2-1.5-2c-.3-.8-.5-1.8-.5-2.8s.2-2,.5-2.8c.4-.8.9-1.5,1.6-2,.7-.5,1.5-.7,2.4-.7s1.9.3,2.6.8c.7.5,1.2,1.2,1.5,2,.3.8.5,1.8.5,2.8s-.2,2-.5,2.8c-.3.8-.9,1.5-1.5,2-.7.5-1.5.7-2.5.7ZM67.5,580.3c.5,0,1-.2,1.4-.5.4-.3.7-.8.9-1.3s.3-1.2.3-2-.1-1.4-.3-1.9-.5-1-.9-1.3c-.4-.3-.9-.5-1.4-.5s-1,.2-1.4.5c-.4.3-.7.8-.9,1.3-.2.6-.3,1.2-.3,2s.1,1.4.3,1.9c.2.6.5,1,.9,1.3.4.3.9.5,1.4.5Z" style="fill:#fff; stroke-width:0px;"/><path d="M77.6,582.1c-1,0-1.8-.2-2.5-.7s-1.2-1.2-1.5-2c-.3-.8-.5-1.8-.5-2.8s.2-2,.5-2.8c.4-.8.9-1.5,1.6-2,.7-.5,1.5-.7,2.4-.7s1.9.3,2.6.8c.7.5,1.2,1.2,1.5,2,.3.8.5,1.8.5,2.8s-.2,2-.5,2.8c-.3.8-.9,1.5-1.5,2-.7.5-1.5.7-2.5.7ZM77.6,580.3c.5,0,1-.2,1.4-.5.4-.3.7-.8.9-1.3s.3-1.2.3-2-.1-1.4-.3-1.9-.5-1-.9-1.3c-.4-.3-.9-.5-1.4-.5s-1,.2-1.4.5c-.4.3-.7.8-.9,1.3-.2.6-.3,1.2-.3,2s.1,1.4.3,1.9c.2.6.5,1,.9,1.3.4.3.9.5,1.4.5Z" style="fill:#fff; stroke-width:0px;"/><path d="M87.8,582.1c-1,0-1.8-.2-2.5-.7s-1.2-1.2-1.5-2c-.3-.8-.5-1.8-.5-2.8s.2-2,.5-2.8c.4-.8.9-1.5,1.6-2,.7-.5,1.5-.7,2.4-.7s1.9.3,2.6.8c.7.5,1.2,1.2,1.5,2,.3.8.5,1.8.5,2.8s-.2,2-.5,2.8c-.3.8-.9,1.5-1.5,2-.7.5-1.5.7-2.5.7ZM87.8,580.3c.5,0,1-.2,1.4-.5.4-.3.7-.8.9-1.3s.3-1.2.3-2-.1-1.4-.3-1.9-.5-1-.9-1.3c-.4-.3-.9-.5-1.4-.5s-1,.2-1.4.5c-.4.3-.7.8-.9,1.3-.2.6-.3,1.2-.3,2s.1,1.4.3,1.9c.2.6.5,1,.9,1.3.4.3.9.5,1.4.5Z" style="fill:#fff; stroke-width:0px;"/><path d="M98,571.2h1.9v10.6h-1.9v-10.6Z" style="fill:#fff; stroke-width:0px;"/><path d="M107.5,582.1c-1,0-2-.2-2.9-.7-.9-.5-1.6-1.2-2.1-2s-.8-1.8-.8-2.8.3-1.9.8-2.8c.5-.8,1.2-1.5,2.1-2,.9-.5,1.8-.7,2.9-.7s2,.2,2.9.7c.9.5,1.6,1.2,2.1,2,.5.8.8,1.8.8,2.8s-.3,1.9-.8,2.8-1.2,1.5-2.1,2c-.9.5-1.8.7-2.9.7ZM107.5,580.3c.7,0,1.3-.2,1.9-.5.6-.3,1-.8,1.4-1.3.3-.6.5-1.2.5-1.9s-.2-1.3-.5-1.9c-.3-.6-.8-1-1.4-1.4s-1.2-.5-1.9-.5-1.3.2-1.9.5-1,.8-1.4,1.4c-.3.6-.5,1.2-.5,1.9s.2,1.3.5,1.9.8,1,1.4,1.3,1.2.5,1.9.5ZM109.1,581.3l1.7-.8,1.9,2.7-1.8,1-1.8-2.9Z" style="fill:#fff; stroke-width:0px;"/><path d="M115.1,571.2h4.1c1.1,0,2.1.2,3,.7.9.4,1.5,1.1,2,1.9.5.8.7,1.7.7,2.8s-.2,2-.7,2.8-1.1,1.4-2,1.9c-.9.4-1.8.7-2.9.7h-4.1v-10.6ZM119.2,580.1c.8,0,1.4-.1,2-.4.6-.3,1-.7,1.3-1.2.3-.5.4-1.2.4-1.9s-.1-1.4-.4-1.9c-.3-.5-.7-1-1.3-1.3-.6-.3-1.2-.4-2-.4h-2.1v7.2h2.1Z" style="fill:#fff; stroke-width:0px;"/><rect x="162.9" y="577.9" width="245.1" height=".8" style="fill:#fff; stroke-width:0px;"/><rect x="44.9" y="101.4" width="246.2" height="54" style="fill:#ee304c; stroke-width:0px;"/><path d="M117.5,133.6c1.4,1.2,3.4,1.9,6,1.9s2.7-.2,4.1-.5c1.4-.3,2.7-.8,4-1.4l.4,5.9c-1.3.5-2.6.9-4,1.2-1.4.3-2.8.4-4.2.4-3.3,0-6-.5-8.3-1.5s-4.1-2.5-5.3-4.4c-1.2-1.9-1.8-4.2-1.8-6.9s.6-5,1.8-6.9c1.2-1.9,3-3.4,5.3-4.4,2.3-1,5.1-1.5,8.3-1.5s2.7.1,4.2.4c1.4.3,2.8.7,4.1,1.2l-.4,5.9c-1.2-.6-2.5-1-3.9-1.4-1.4-.3-2.8-.5-4.1-.5-2.6,0-4.6.6-6,1.9-1.4,1.2-2.1,3-2.1,5.3s.7,4,2.1,5.3Z" style="fill:#fff; stroke-width:0px;"/><path d="M134.8,116h11.9c2.3,0,4.3.3,6,1,1.7.7,3,1.6,3.9,2.9s1.4,2.7,1.4,4.4-.5,3.4-1.6,4.6c-1.1,1.3-2.6,2.2-4.5,2.8l6.9,8.8h-7.5l-9.8-12.4v12.4h-6.7v-24.5ZM146.7,128.1c1.3,0,2.3-.3,3.1-.9.8-.6,1.1-1.5,1.1-2.6s-.4-2-1.1-2.6c-.8-.6-1.8-.9-3.1-.9h-5.2v7.1h5.2Z" style="fill:#fff; stroke-width:0px;"/><path d="M182.2,116v5.4h-14.5v4.4h11.1v4.7h-11.1v4.5h14.9v5.4h-21.6v-24.5h21.2Z" style="fill:#fff; stroke-width:0px;"/><path d="M184.9,116h12.1c3.7,0,6.5.7,8.5,2.2s3,3.6,3,6.4-1,4.9-3,6.4-4.8,2.2-8.5,2.2h-5.3v7.2h-6.7v-24.5ZM200.1,127.5c.8-.7,1.2-1.6,1.2-2.7s-.4-2.1-1.2-2.8c-.8-.7-2-1-3.5-1h-5v7.4h5c1.5,0,2.7-.3,3.5-1Z" style="fill:#fff; stroke-width:0px;"/><path d="M231.8,116v5.4h-14.5v4.4h11.1v4.7h-11.1v4.5h14.9v5.4h-21.6v-24.5h21.2Z" style="fill:#fff; stroke-width:0px;"/><polygon points="74 99.2 89.2 113.8 83.5 90.2 74 99.2" style="fill:#171a23; stroke-width:0px;"/><polygon points="514.8 99.2 499.5 113.8 505.3 90.2 514.8 99.2" style="fill:#171a23; stroke-width:0px;"/><polygon points="270.7 158.3 255.5 143.6 261.3 167.2 270.7 158.3" style="fill:#171a23; stroke-width:0px;"/><path d="M267.1,764.2h-3.5l-4.5-8.9h4.2l3.9,8.4h.1l4-8.4h4.2l-7,13.7h-3.7l2.3-4.8Z" style="fill:#fff; stroke-width:0px;"/><path d="M277.2,755.4h7.3l4.6,13.7h-4.1l-.8-2.8h-6.5l-.8,2.8h-4.1l4.6-13.7ZM283.3,763.6l-2.4-7.9h0l-2.4,7.9h4.9Z" style="fill:#fff; stroke-width:0px;"/><path d="M293.9,755.4v10.6h7.6v3h-11.4v-13.7h3.8Z" style="fill:#fff; stroke-width:0px;"/><path d="M306.4,755.4v10.6h7.6v3h-11.4v-13.7h3.8Z" style="fill:#fff; stroke-width:0px;"/><path d="M319.1,755.4h7.3l4.6,13.7h-4.1l-.8-2.8h-6.5l-.8,2.8h-4.1l4.6-13.7ZM325.2,763.6l-2.4-7.9h0l-2.4,7.9h4.9Z" style="fill:#fff; stroke-width:0px;"/><path d="M237,774.1l4.4,13.4h0v-13.4h3.7v13.7h-7.4l-4.4-13.5h0v13.5h-3.7v-13.7h7.4Z" style="fill:#fff; stroke-width:0px;"/><path d="M259,774.1v3h-8.1v2.5h6.2v2.6h-6.2v2.5h8.3v3h-12.1v-13.7h11.8Z" style="fill:#fff; stroke-width:0px;"/><path d="M268.1,780.9l-4,6.9h-4.3l4.6-7-4.3-6.7h4.3l3.8,6.5,3.8-6.5h4.3l-4.3,6.7,4.6,7h-4.3l-4-6.9Z" style="fill:#fff; stroke-width:0px;"/><path d="M281.2,777.1h-4.6v-3h12.9v3h-4.6v10.6h-3.8v-10.6Z" style="fill:#fff; stroke-width:0px;"/><path d="M298.4,774.1v10.6h7.6v3h-11.4v-13.7h3.8Z" style="fill:#fff; stroke-width:0px;"/><path d="M319,774.1v3h-8.1v2.5h6.2v2.6h-6.2v2.5h8.3v3h-12.1v-13.7h11.8Z" style="fill:#fff; stroke-width:0px;"/><path d="M331.5,787.7h-7.6l-4.4-13.7h4.1l4.1,13.4h0l4-13.4h4.1l-4.4,13.7Z" style="fill:#fff; stroke-width:0px;"/><path d="M348.8,774.1v3h-8.1v2.5h6.2v2.6h-6.2v2.5h8.3v3h-12.1v-13.7h11.8Z" style="fill:#fff; stroke-width:0px;"/><path d="M354,774.1v10.6h7.6v3h-11.4v-13.7h3.8Z" style="fill:#fff; stroke-width:0px;"/><path d="M333.7,756.1h-1.3v-.7h3.5v.7h-1.3v3.8h-.8v-3.8Z" style="fill:#fff; stroke-width:0px;"/><path d="M336.5,755.4h.7l1.5,2.1h0s1.6-2.1,1.6-2.1h.7v4.5h-.8v-3.2l-1.3,1.8h-.2l-1.3-1.8v3.2h-.8v-4.5Z" style="fill:#fff; stroke-width:0px;"/></svg>